<svg xmlns="http://www.w3.org/2000/svg" viewBox="0 0 1000 5496.84"><defs><style>.cls-1{fill:#231f20;}.cls-2{fill:#fff;}.cls-3{fill:none;stroke:#fff;stroke-miterlimit:10;stroke-width:0.5px;}</style></defs><title>Asset 3</title><g id="Layer_2" data-name="Layer 2"><g id="レイヤー_1" data-name="レイヤー 1"><rect class="cls-1" width="1000" height="5496.84"/><path class="cls-2" d="M403.56,840.82v25h-.7v-25Z"/><path class="cls-2" d="M413,847.82v4.45H413a6.35,6.35,0,0,1,.79-1.93,6.09,6.09,0,0,1,3.27-2.57,7.49,7.49,0,0,1,2.42-.37,7.58,7.58,0,0,1,2.57.42,5.49,5.49,0,0,1,3.36,3.27,7.59,7.59,0,0,1,.47,2.78v11.94h-.7V854a7,7,0,0,0-.46-2.68,5,5,0,0,0-1.24-1.82,4.91,4.91,0,0,0-1.82-1,7.09,7.09,0,0,0-2.19-.33,6.27,6.27,0,0,0-2.83.61,6,6,0,0,0-2,1.65,7.22,7.22,0,0,0-1.24,2.4,9.7,9.7,0,0,0-.42,2.87v10.19h-.7v-18Z"/><path class="cls-2" d="M432.75,847.82h3v-4a3.47,3.47,0,0,1,.33-1.68,2.25,2.25,0,0,1,.86-.89,3,3,0,0,1,1.15-.37,10.87,10.87,0,0,1,1.19-.07,6.12,6.12,0,0,1,.86.05l.65.09v.7l-.87-.1c-.26,0-.51,0-.77,0a2.84,2.84,0,0,0-2.19.61,3,3,0,0,0-.51,1.94v3.74h3.88v.7h-3.88v17.29h-.7V848.52h-3Z"/><path class="cls-2" d="M446.29,853.26a9,9,0,0,1,1.56-3,7.87,7.87,0,0,1,2.54-2.08,8.09,8.09,0,0,1,7,0,7.88,7.88,0,0,1,2.54,2.08,9.05,9.05,0,0,1,1.56,3,12.29,12.29,0,0,1,0,7.1,9,9,0,0,1-1.56,3,7.41,7.41,0,0,1-6,2.83,7.51,7.51,0,0,1-3.47-.77,7.66,7.66,0,0,1-2.54-2.07,9,9,0,0,1-1.56-3,12.29,12.29,0,0,1,0-7.1Zm.65,6.84a8.38,8.38,0,0,0,1.42,2.78,7,7,0,0,0,2.33,1.92,6.85,6.85,0,0,0,3.2.72,6.78,6.78,0,0,0,3.17-.72,7,7,0,0,0,2.33-1.92,8.38,8.38,0,0,0,1.42-2.78,11.4,11.4,0,0,0,.47-3.29,11.28,11.28,0,0,0-.47-3.25,8.38,8.38,0,0,0-1.42-2.78,7.23,7.23,0,0,0-2.33-1.94,6.65,6.65,0,0,0-3.17-.73,6.72,6.72,0,0,0-3.2.73,7.23,7.23,0,0,0-2.33,1.94,8.38,8.38,0,0,0-1.42,2.78,11.28,11.28,0,0,0-.47,3.25A11.4,11.4,0,0,0,446.94,860.1Z"/><path class="cls-2" d="M469.78,865.81v-18h.7v4.45h.07a7,7,0,0,1,.77-1.91,5.37,5.37,0,0,1,1.4-1.56,6.86,6.86,0,0,1,2.08-1.05,8.69,8.69,0,0,1,2.82-.35v.7a6.75,6.75,0,0,0-3.2.51,6.07,6.07,0,0,0-2.22,1.68,7.05,7.05,0,0,0-1.29,2.47,9.93,9.93,0,0,0-.42,2.87v10.19Z"/><path class="cls-2" d="M484.44,847.82v4.45h.07a6.66,6.66,0,0,1,.77-1.93,6.33,6.33,0,0,1,1.29-1.54,5.92,5.92,0,0,1,1.7-1,5.32,5.32,0,0,1,2-.37,5.15,5.15,0,0,1,3.52,1.07,5.41,5.41,0,0,1,1.87,3.13h.07a5.56,5.56,0,0,1,2.07-3,5.9,5.9,0,0,1,3.64-1.16,6.65,6.65,0,0,1,2.73.49,4.53,4.53,0,0,1,1.75,1.35,5.27,5.27,0,0,1,.95,2.06,11.87,11.87,0,0,1,.28,2.68v11.83h-.7V854a11.83,11.83,0,0,0-.23-2.42,4.65,4.65,0,0,0-.81-1.85,3.76,3.76,0,0,0-1.54-1.19,6.11,6.11,0,0,0-2.43-.42,5.26,5.26,0,0,0-4.13,1.89,6.19,6.19,0,0,0-1.12,2,7.43,7.43,0,0,0-.38,2.4v11.41h-.7V854.26a14.09,14.09,0,0,0-.19-2.38,5.38,5.38,0,0,0-.72-2,3.71,3.71,0,0,0-1.47-1.33,5.33,5.33,0,0,0-2.45-.49,4.83,4.83,0,0,0-2.42.61,5.76,5.76,0,0,0-1.84,1.65,7.76,7.76,0,0,0-1.16,2.4,10.09,10.09,0,0,0-.4,2.87v10.19h-.7v-18Z"/><path class="cls-2" d="M516.36,851a5.41,5.41,0,0,1,1.31-1.91,6.08,6.08,0,0,1,2.1-1.26,8.51,8.51,0,0,1,2.92-.46,10.09,10.09,0,0,1,2.26.25,4.85,4.85,0,0,1,1.87.86,4.5,4.5,0,0,1,1.29,1.59,5.76,5.76,0,0,1,.53,2.45V864a1.16,1.16,0,0,0,.21.77,1,1,0,0,0,.56.33,2.61,2.61,0,0,0,.75.07l.75-.05v.7h-1a2.46,2.46,0,0,1-1.35-.37,1.51,1.51,0,0,1-.58-1.38v-2.35h-.07a5.58,5.58,0,0,1-.89,1.68,6.49,6.49,0,0,1-1.54,1.44,7.89,7.89,0,0,1-2.12,1,8.74,8.74,0,0,1-2.59.37,7.23,7.23,0,0,1-4.37-1.21,4.2,4.2,0,0,1-1.65-3.62,5.72,5.72,0,0,1,.54-2.7,4.27,4.27,0,0,1,1.42-1.59,5.6,5.6,0,0,1,2-.81,16.45,16.45,0,0,1,2.24-.3l3.19-.19a9.86,9.86,0,0,0,2.19-.35,2.37,2.37,0,0,0,1.26-.81,2.58,2.58,0,0,0,.4-1.56,10.71,10.71,0,0,0-.14-1.68,3.66,3.66,0,0,0-.68-1.61,3.92,3.92,0,0,0-1.59-1.21,7,7,0,0,0-2.83-.47,6.47,6.47,0,0,0-4.41,1.38,5.45,5.45,0,0,0-1.75,3.9h-.7A7.19,7.19,0,0,1,516.36,851Zm11.51,4.22a2.19,2.19,0,0,1-1.08.75,8.83,8.83,0,0,1-1.68.4,17.7,17.7,0,0,1-2,.17q-1.1,0-2.15.11a16.72,16.72,0,0,0-2,.26,4.85,4.85,0,0,0-1.77.7,3.58,3.58,0,0,0-1.23,1.4,5.13,5.13,0,0,0-.46,2.33,4.6,4.6,0,0,0,.26,1.52,3.23,3.23,0,0,0,.89,1.33,4.87,4.87,0,0,0,1.63.94,7.19,7.19,0,0,0,2.47.37,7.72,7.72,0,0,0,3.12-.6,7,7,0,0,0,2.29-1.56,6.42,6.42,0,0,0,1.4-2.22,7.31,7.31,0,0,0,.47-2.59v-3.32Z"/><path class="cls-2" d="M539.53,862.31a4.33,4.33,0,0,0,.23,1.58,2,2,0,0,0,.58.84,1.51,1.51,0,0,0,.77.33,6.74,6.74,0,0,0,.84.05l.95,0a2,2,0,0,0,.59-.09v.7l-.61.07q-.3,0-1.1,0a3.13,3.13,0,0,1-2.08-.72,3.32,3.32,0,0,1-.86-2.64V848.52h-3.29v-.7h3.29v-5.67h.7v5.67h4.06v.7h-4.06Z"/><path class="cls-2" d="M550.94,844.35v-3.54h.7v3.54Zm0,21.46v-18h.7v18Z"/><path class="cls-2" d="M560,853.26a9,9,0,0,1,1.56-3,7.87,7.87,0,0,1,2.54-2.08,8.09,8.09,0,0,1,7,0,7.88,7.88,0,0,1,2.54,2.08,9.05,9.05,0,0,1,1.56,3,12.29,12.29,0,0,1,0,7.1,9,9,0,0,1-1.56,3,7.41,7.41,0,0,1-6,2.83,7.51,7.51,0,0,1-3.47-.77,7.66,7.66,0,0,1-2.54-2.07,9,9,0,0,1-1.56-3,12.29,12.29,0,0,1,0-7.1Zm.65,6.84a8.38,8.38,0,0,0,1.42,2.78,7,7,0,0,0,2.33,1.92,6.85,6.85,0,0,0,3.2.72,6.78,6.78,0,0,0,3.17-.72,7,7,0,0,0,2.33-1.92,8.38,8.38,0,0,0,1.42-2.78,11.4,11.4,0,0,0,.47-3.29,11.28,11.28,0,0,0-.47-3.25,8.38,8.38,0,0,0-1.42-2.78,7.23,7.23,0,0,0-2.33-1.94,6.65,6.65,0,0,0-3.17-.73,6.72,6.72,0,0,0-3.2.73,7.23,7.23,0,0,0-2.33,1.94,8.38,8.38,0,0,0-1.42,2.78,11.28,11.28,0,0,0-.47,3.25A11.4,11.4,0,0,0,560.62,860.1Z"/><path class="cls-2" d="M584.16,847.82v4.45h.07a6.35,6.35,0,0,1,.79-1.93,6.09,6.09,0,0,1,3.27-2.57,7.49,7.49,0,0,1,2.42-.37,7.58,7.58,0,0,1,2.57.42,5.49,5.49,0,0,1,3.36,3.27,7.59,7.59,0,0,1,.47,2.78v11.94h-.7V854a7,7,0,0,0-.46-2.68,5,5,0,0,0-1.24-1.82,4.91,4.91,0,0,0-1.82-1,7.09,7.09,0,0,0-2.19-.33,6.27,6.27,0,0,0-2.83.61,6,6,0,0,0-2,1.65,7.22,7.22,0,0,0-1.24,2.4,9.7,9.7,0,0,0-.42,2.87v10.19h-.7v-18Z"/><line class="cls-3" x1="346.78" y1="852.84" x2="364.97" y2="852.84"/><polyline class="cls-3" points="354.1 830.24 375.83 852.85 354.1 875.45"/></g></g></svg>