<svg xmlns="http://www.w3.org/2000/svg" xmlns:xlink="http://www.w3.org/1999/xlink" viewBox="0 0 145.87 187.2"><defs><style>.cls-1,.cls-2{fill:none;stroke:#fff;stroke-miterlimit:10;}.cls-1{stroke-width:0.25px;}.cls-2{stroke-width:0.1px;}.cls-3{fill:#fff;}</style></defs><title>asset1_small</title><g id="Layer_2" data-name="Layer 2"><g id="レイヤー_1" data-name="レイヤー 1"><line class="cls-1" x1="72.08" y1="160.39" x2="72.08" y2="168.74"/><polyline class="cls-1" points="82.45 163.75 72.08 173.72 61.71 163.75"/><path class="cls-2" d="M126.24,144.78a93.9,93.9,0,0,1-19.45,25.86A63.52,63.52,0,0,1,80.4,185.38q-14.9,4.15-33.93-1.43-18.78-5.51-29.2-17.08a63.09,63.09,0,0,1-14.37-26.7A93.8,93.8,0,0,1,.48,107.91,174.59,174.59,0,0,1,19.63,42.58,93.84,93.84,0,0,1,39.09,16.73,64.34,64.34,0,0,1,65.64,1.89Q80.7-2.34,99.48,3.16q19,5.58,29.29,17.25A64.79,64.79,0,0,1,143,47.19a93.93,93.93,0,0,1,2.41,32.26,174.61,174.61,0,0,1-6.36,33.6A174.57,174.57,0,0,1,126.24,144.78Z"/><image width="790" height="126" transform="translate(12.73 60.68) scale(0.15)" xlink:href="../../Downloads/COLLAGE_ZERO_fix/COLLAGE-ZERO_logo.png"/><path class="cls-3" d="M58.76,110.9v-.13l3,1.49v.14l-3,1.49v-.12l2.94-1.44Z"/><path class="cls-3" d="M67.4,113.27a1.11,1.11,0,0,1-.27.35,1.19,1.19,0,0,1-.38.22,1.43,1.43,0,0,1-.48.08,1.33,1.33,0,0,1-.58-.12,1.26,1.26,0,0,1-.43-.33A1.44,1.44,0,0,1,65,113a1.92,1.92,0,0,1-.09-.6,2.28,2.28,0,0,1,.09-.64,1.58,1.58,0,0,1,.26-.53,1.29,1.29,0,0,1,.45-.37,1.4,1.4,0,0,1,.64-.14,1.3,1.3,0,0,1,.41.07,1.12,1.12,0,0,1,.35.19,1.06,1.06,0,0,1,.26.31,1.2,1.2,0,0,1,.13.44h-.12a1.12,1.12,0,0,0-.13-.39A1,1,0,0,0,67,111a.93.93,0,0,0-.31-.17,1.23,1.23,0,0,0-.37-.05,1.27,1.27,0,0,0-.62.14,1.17,1.17,0,0,0-.41.37,1.55,1.55,0,0,0-.22.5,2.29,2.29,0,0,0-.07.55,1.8,1.8,0,0,0,.08.54,1.42,1.42,0,0,0,.24.46,1.14,1.14,0,0,0,.39.31,1.19,1.19,0,0,0,.54.12,1.28,1.28,0,0,0,.43-.07,1.05,1.05,0,0,0,.71-.93h.12A1.35,1.35,0,0,1,67.4,113.27Z"/><path class="cls-3" d="M68.45,111.7a1.56,1.56,0,0,1,.27-.51,1.34,1.34,0,0,1,.43-.36,1.39,1.39,0,0,1,1.19,0,1.35,1.35,0,0,1,.43.36,1.56,1.56,0,0,1,.27.51,2.11,2.11,0,0,1,0,1.22,1.55,1.55,0,0,1-.27.51,1.32,1.32,0,0,1-.43.35,1.3,1.3,0,0,1-.6.13,1.29,1.29,0,0,1-.59-.13,1.31,1.31,0,0,1-.43-.35,1.55,1.55,0,0,1-.27-.51,2.11,2.11,0,0,1,0-1.22Zm.11,1.17a1.42,1.42,0,0,0,.24.48,1.19,1.19,0,0,0,.4.33,1.17,1.17,0,0,0,.55.12,1.16,1.16,0,0,0,.54-.12,1.21,1.21,0,0,0,.4-.33,1.42,1.42,0,0,0,.24-.48,2,2,0,0,0,.08-.56,1.94,1.94,0,0,0-.08-.56,1.43,1.43,0,0,0-.24-.48,1.25,1.25,0,0,0-.4-.33,1.14,1.14,0,0,0-.54-.13,1.15,1.15,0,0,0-.55.13,1.23,1.23,0,0,0-.4.33,1.43,1.43,0,0,0-.24.48,1.94,1.94,0,0,0-.08.56A2,2,0,0,0,68.57,112.88Z"/><path class="cls-3" d="M72.24,110.77v.76h0a1.11,1.11,0,0,1,.13-.33,1.07,1.07,0,0,1,.23-.26,1.05,1.05,0,0,1,.33-.18,1.28,1.28,0,0,1,.41-.06,1.3,1.3,0,0,1,.44.07,1,1,0,0,1,.35.21,1,1,0,0,1,.23.35,1.31,1.31,0,0,1,.08.48v2h-.12v-2a1.19,1.19,0,0,0-.08-.46.86.86,0,0,0-.21-.31.84.84,0,0,0-.31-.18,1.21,1.21,0,0,0-.37-.06,1.07,1.07,0,0,0-.49.1,1,1,0,0,0-.35.28,1.22,1.22,0,0,0-.21.41,1.63,1.63,0,0,0-.07.49v1.75h-.12v-3.08Z"/><path class="cls-3" d="M75.93,113.25a.73.73,0,0,0,0,.27.34.34,0,0,0,.1.14.26.26,0,0,0,.13.06h.31l.1,0v.12h-.29a.54.54,0,0,1-.36-.12.57.57,0,0,1-.15-.45v-2.39h-.56v-.12h.56v-1h.12v1h.7v.12h-.7Z"/><path class="cls-3" d="M77.61,111.32a.93.93,0,0,1,.22-.33,1.05,1.05,0,0,1,.36-.22,1.46,1.46,0,0,1,.5-.08,1.71,1.71,0,0,1,.39,0,.82.82,0,0,1,.32.15.76.76,0,0,1,.22.27,1,1,0,0,1,.09.42v2a.2.2,0,0,0,0,.13.18.18,0,0,0,.1.06h.26v.12h-.18a.42.42,0,0,1-.23-.06.26.26,0,0,1-.1-.24v-.4h0a1,1,0,0,1-.15.29,1.12,1.12,0,0,1-.26.25,1.35,1.35,0,0,1-.36.17,1.5,1.5,0,0,1-.44.06,1.24,1.24,0,0,1-.75-.21.72.72,0,0,1-.28-.62,1,1,0,0,1,.09-.46.74.74,0,0,1,.24-.27,1,1,0,0,1,.34-.14l.38-.05.55,0a1.7,1.7,0,0,0,.38-.06.41.41,0,0,0,.22-.14.44.44,0,0,0,.07-.27,1.88,1.88,0,0,0,0-.29.62.62,0,0,0-.12-.28.67.67,0,0,0-.27-.21,1.21,1.21,0,0,0-.49-.08,1.11,1.11,0,0,0-.76.24.93.93,0,0,0-.3.67h-.12A1.24,1.24,0,0,1,77.61,111.32Zm2,.72a.37.37,0,0,1-.19.13,1.5,1.5,0,0,1-.29.07l-.35,0-.37,0-.35,0a.82.82,0,0,0-.3.12.61.61,0,0,0-.21.24.88.88,0,0,0-.08.4.78.78,0,0,0,0,.26.56.56,0,0,0,.15.23.84.84,0,0,0,.28.16,1.24,1.24,0,0,0,.42.06,1.32,1.32,0,0,0,.53-.1,1.21,1.21,0,0,0,.39-.27,1.12,1.12,0,0,0,.24-.38,1.26,1.26,0,0,0,.08-.44V112Z"/><path class="cls-3" d="M83.25,113.27a1.11,1.11,0,0,1-.27.35,1.19,1.19,0,0,1-.38.22,1.43,1.43,0,0,1-.48.08,1.33,1.33,0,0,1-.58-.12,1.26,1.26,0,0,1-.43-.33,1.44,1.44,0,0,1-.26-.49,1.92,1.92,0,0,1-.09-.6,2.28,2.28,0,0,1,.09-.64,1.58,1.58,0,0,1,.26-.53,1.29,1.29,0,0,1,.45-.37,1.4,1.4,0,0,1,.64-.14,1.3,1.3,0,0,1,.41.07A1.12,1.12,0,0,1,83,111a1.06,1.06,0,0,1,.26.31,1.2,1.2,0,0,1,.13.44h-.12a1.12,1.12,0,0,0-.13-.39,1,1,0,0,0-.23-.28.93.93,0,0,0-.31-.17,1.23,1.23,0,0,0-.37-.05,1.27,1.27,0,0,0-.62.14,1.17,1.17,0,0,0-.41.37,1.55,1.55,0,0,0-.22.5,2.29,2.29,0,0,0-.07.55,1.8,1.8,0,0,0,.08.54,1.42,1.42,0,0,0,.24.46,1.14,1.14,0,0,0,.39.31,1.19,1.19,0,0,0,.54.12,1.28,1.28,0,0,0,.43-.07,1.05,1.05,0,0,0,.71-.93h.12A1.35,1.35,0,0,1,83.25,113.27Z"/><path class="cls-3" d="M84.7,113.25a.73.73,0,0,0,0,.27.34.34,0,0,0,.1.14.26.26,0,0,0,.13.06h.31l.1,0v.12h-.29a.54.54,0,0,1-.36-.12.57.57,0,0,1-.15-.45v-2.39H84v-.12h.56v-1h.12v1h.7v.12h-.7Z"/><path class="cls-3" d="M14.14,94.91h.29l1.69,4.28h-.28l-.54-1.37H13.25l-.55,1.37h-.28Zm1.07,2.68-.92-2.42h0l-1,2.42Z"/><path class="cls-3" d="M19.84,98.53h0a1.4,1.4,0,0,1-.48.55,1.44,1.44,0,0,1-1.3.05,1.19,1.19,0,0,1-.41-.35,1.56,1.56,0,0,1-.24-.51,2.36,2.36,0,0,1-.08-.61A2.31,2.31,0,0,1,17.4,97a1.44,1.44,0,0,1,.25-.51,1.22,1.22,0,0,1,.43-.34,1.37,1.37,0,0,1,.61-.13,1.33,1.33,0,0,1,.37.05,1.28,1.28,0,0,1,.33.15,1.05,1.05,0,0,1,.44.56h0V94.91h.23v4.28h-.23Zm-1.15.53a1,1,0,0,0,.51-.12,1.08,1.08,0,0,0,.35-.32,1.39,1.39,0,0,0,.21-.45,2,2,0,0,0,.07-.52,2,2,0,0,0-.07-.52,1.47,1.47,0,0,0-.21-.46,1,1,0,0,0-.36-.32,1.05,1.05,0,0,0-.51-.12,1.08,1.08,0,0,0-.52.12,1,1,0,0,0-.36.31,1.32,1.32,0,0,0-.2.46,2.24,2.24,0,0,0-.06.53,2,2,0,0,0,.07.52,1.38,1.38,0,0,0,.21.45,1,1,0,0,0,.36.31A1.07,1.07,0,0,0,18.7,99.07Z"/><path class="cls-3" d="M23.05,99.19h-.28l-1.24-3.08h.26l1.12,2.82h0l1-2.82h.25Z"/><path class="cls-3" d="M25.71,97.68v0a1.83,1.83,0,0,0,.07.52,1.31,1.31,0,0,0,.21.43,1,1,0,0,0,.35.29,1.09,1.09,0,0,0,.5.11,1.06,1.06,0,0,0,.73-.24,1.27,1.27,0,0,0,.37-.67h.23a1.38,1.38,0,0,1-.44.83,1.34,1.34,0,0,1-.9.29,1.37,1.37,0,0,1-.6-.12,1.21,1.21,0,0,1-.43-.34,1.41,1.41,0,0,1-.25-.5,2.23,2.23,0,0,1-.08-.63,2.18,2.18,0,0,1,.09-.62,1.55,1.55,0,0,1,.26-.52,1.29,1.29,0,0,1,.43-.36,1.33,1.33,0,0,1,.62-.13,1.31,1.31,0,0,1,.57.12,1.2,1.2,0,0,1,.42.33,1.44,1.44,0,0,1,.25.48,1.93,1.93,0,0,1,.09.58s0,0,0,.07,0,0,0,.06Zm2.27-.2a1.85,1.85,0,0,0-.08-.48,1.18,1.18,0,0,0-.21-.4,1.07,1.07,0,0,0-.34-.27,1,1,0,0,0-.46-.1,1.06,1.06,0,0,0-.84.38,1.22,1.22,0,0,0-.22.4,1.88,1.88,0,0,0-.1.47Z"/><path class="cls-3" d="M30,96.79h0a.76.76,0,0,1,.15-.28,1.07,1.07,0,0,1,.27-.23,1.34,1.34,0,0,1,.35-.15,1.44,1.44,0,0,1,.4,0v.23a1.08,1.08,0,0,0-.41,0,1,1,0,0,0-.44.26l-.15.17a.82.82,0,0,0-.1.19,1.19,1.19,0,0,0-.07.23,2,2,0,0,0,0,.3v1.69h-.23V96.11H30Z"/><path class="cls-3" d="M33.7,96.3H33v2.15a.82.82,0,0,0,0,.29.34.34,0,0,0,.13.17.46.46,0,0,0,.21.07h.29v.2h-.34a.68.68,0,0,1-.29-.09.53.53,0,0,1-.2-.23.85.85,0,0,1-.06-.41V96.3h-.57v-.2h.57v-1H33v1h.67Z"/><path class="cls-3" d="M35.25,95.53v-.62h.23v.62Zm0,3.67V96.11h.23v3.08Z"/><path class="cls-3" d="M37.39,98.17a1,1,0,0,0,.1.38A.9.9,0,0,0,38,99a1.22,1.22,0,0,0,.39.06l.32,0a1.11,1.11,0,0,0,.32-.1.65.65,0,0,0,.24-.2.53.53,0,0,0,.1-.33.48.48,0,0,0-.16-.39,1.1,1.1,0,0,0-.39-.2,4,4,0,0,0-.51-.12,2.63,2.63,0,0,1-.51-.13,1,1,0,0,1-.39-.25.8.8,0,0,1-.05-.86.76.76,0,0,1,.26-.24,1.2,1.2,0,0,1,.36-.13,2.05,2.05,0,0,1,.4,0,1.79,1.79,0,0,1,.45.05,1,1,0,0,1,.36.17.83.83,0,0,1,.24.31,1.06,1.06,0,0,1,.09.45H39.3a.86.86,0,0,0-.07-.36.63.63,0,0,0-.19-.24.84.84,0,0,0-.29-.14,1.39,1.39,0,0,0-.36,0l-.32,0a.92.92,0,0,0-.29.1.64.64,0,0,0-.21.19.47.47,0,0,0-.08.28.47.47,0,0,0,.09.3.65.65,0,0,0,.24.18,1.63,1.63,0,0,0,.33.11l.37.08.43.1a1.23,1.23,0,0,1,.35.16.71.71,0,0,1,.23.26.83.83,0,0,1,.08.4.7.7,0,0,1-.11.41.87.87,0,0,1-.29.26,1.23,1.23,0,0,1-.39.14,2.32,2.32,0,0,1-.42,0,1.67,1.67,0,0,1-.49-.07,1.11,1.11,0,0,1-.39-.21,1,1,0,0,1-.26-.34,1.16,1.16,0,0,1-.1-.47Z"/><path class="cls-3" d="M41.31,95.53v-.62h.23v.62Zm0,3.67V96.11h.23v3.08Z"/><path class="cls-3" d="M43.34,96.11h.23v.66h0a1,1,0,0,1,.17-.31,1.14,1.14,0,0,1,.26-.23,1.12,1.12,0,0,1,.32-.14,1.31,1.31,0,0,1,.35,0,1.4,1.4,0,0,1,.46.07.9.9,0,0,1,.31.17.83.83,0,0,1,.19.24,1.14,1.14,0,0,1,.1.27,1.77,1.77,0,0,1,0,.27c0,.09,0,.16,0,.22v1.91h-.23v-2c0-.08,0-.17,0-.29a.88.88,0,0,0-.11-.33.76.76,0,0,0-.26-.27.9.9,0,0,0-.49-.11,1.09,1.09,0,0,0-.47.1,1,1,0,0,0-.35.27,1.18,1.18,0,0,0-.22.41,1.72,1.72,0,0,0-.07.52v1.67h-.23Z"/><path class="cls-3" d="M50.08,96.11V99a2.08,2.08,0,0,1-.06.5,1.12,1.12,0,0,1-.21.43,1,1,0,0,1-.4.3,1.66,1.66,0,0,1-.65.11,2,2,0,0,1-.46-.05,1.11,1.11,0,0,1-.38-.16.82.82,0,0,1-.26-.29,1,1,0,0,1-.11-.45h.23a.83.83,0,0,0,.1.35.73.73,0,0,0,.22.24.92.92,0,0,0,.3.14,1.48,1.48,0,0,0,.36,0,1.29,1.29,0,0,0,.53-.1.91.91,0,0,0,.34-.25.9.9,0,0,0,.18-.35,1.59,1.59,0,0,0,.05-.39v-.71h0a1.23,1.23,0,0,1-.44.52,1.21,1.21,0,0,1-.67.18,1.37,1.37,0,0,1-.59-.12,1.13,1.13,0,0,1-.41-.32,1.38,1.38,0,0,1-.25-.48,2.1,2.1,0,0,1-.08-.6,1.91,1.91,0,0,1,.09-.58,1.44,1.44,0,0,1,.25-.48,1.24,1.24,0,0,1,.42-.33,1.36,1.36,0,0,1,1.25.06,1,1,0,0,1,.44.53h0v-.64Zm-1.35.13a1,1,0,0,0-.49.11,1,1,0,0,0-.34.3,1.37,1.37,0,0,0-.2.42,1.73,1.73,0,0,0-.07.48,1.87,1.87,0,0,0,.07.51,1.21,1.21,0,0,0,.21.42,1,1,0,0,0,.35.29,1,1,0,0,0,.48.1,1.07,1.07,0,0,0,.49-.11,1,1,0,0,0,.35-.29,1.29,1.29,0,0,0,.21-.42,1.83,1.83,0,0,0,0-1,1.26,1.26,0,0,0-.21-.42,1,1,0,0,0-.35-.29A1.07,1.07,0,0,0,48.73,96.23Z"/><path class="cls-3" d="M55.29,97.68l-1.16-1.17.16-.16,1.17,1.17,1.16-1.17.16.16-1.16,1.17,1.16,1.16-.16.16-1.16-1.17L54.28,99l-.16-.16Z"/><path class="cls-3" d="M59.55,95.13v-.23h3.28v.23H61.32v4.06h-.26V95.13Z"/><path class="cls-3" d="M64.25,97.68v0a1.83,1.83,0,0,0,.07.52,1.31,1.31,0,0,0,.21.43,1,1,0,0,0,.35.29,1.09,1.09,0,0,0,.5.11,1.06,1.06,0,0,0,.73-.24,1.27,1.27,0,0,0,.37-.67h.23a1.38,1.38,0,0,1-.44.83,1.34,1.34,0,0,1-.9.29,1.37,1.37,0,0,1-.6-.12,1.21,1.21,0,0,1-.43-.34,1.41,1.41,0,0,1-.25-.5,2.23,2.23,0,0,1-.08-.63,2.18,2.18,0,0,1,.09-.62,1.55,1.55,0,0,1,.26-.52,1.29,1.29,0,0,1,.43-.36,1.33,1.33,0,0,1,.62-.13,1.31,1.31,0,0,1,.57.12,1.2,1.2,0,0,1,.42.33,1.44,1.44,0,0,1,.25.48,1.93,1.93,0,0,1,.09.58s0,0,0,.07,0,0,0,.06Zm2.27-.2a1.85,1.85,0,0,0-.08-.48,1.18,1.18,0,0,0-.21-.4,1.07,1.07,0,0,0-.34-.27,1,1,0,0,0-.46-.1,1.06,1.06,0,0,0-.84.38,1.22,1.22,0,0,0-.22.4,1.88,1.88,0,0,0-.1.47Z"/><path class="cls-3" d="M70.68,97.06a.88.88,0,0,0-.11-.36.8.8,0,0,0-.22-.26,1,1,0,0,0-.32-.16,1.38,1.38,0,0,0-.39-.05,1.08,1.08,0,0,0-.51.12,1.11,1.11,0,0,0-.37.31,1.4,1.4,0,0,0-.23.44,1.71,1.71,0,0,0-.08.51,2.19,2.19,0,0,0,.07.58,1.31,1.31,0,0,0,.22.46,1,1,0,0,0,.37.3,1.19,1.19,0,0,0,.52.11,1.07,1.07,0,0,0,.72-.27,1,1,0,0,0,.23-.3,1.25,1.25,0,0,0,.12-.39h.23a1.45,1.45,0,0,1-.15.49,1.19,1.19,0,0,1-.29.36,1.25,1.25,0,0,1-.4.23A1.54,1.54,0,0,1,69,99.13a1.23,1.23,0,0,1-.44-.36,1.53,1.53,0,0,1-.25-.53,2.32,2.32,0,0,1-.08-.62,2,2,0,0,1,.09-.61,1.49,1.49,0,0,1,.27-.5,1.29,1.29,0,0,1,.44-.34,1.39,1.39,0,0,1,.61-.13,1.7,1.7,0,0,1,.47.06,1.21,1.21,0,0,1,.39.19,1,1,0,0,1,.28.32,1.13,1.13,0,0,1,.13.45Z"/><path class="cls-3" d="M72.78,94.91v1.86h0a1,1,0,0,1,.17-.31,1.14,1.14,0,0,1,.26-.23,1.12,1.12,0,0,1,.32-.14,1.31,1.31,0,0,1,.35,0,1.4,1.4,0,0,1,.46.07.9.9,0,0,1,.31.17.83.83,0,0,1,.19.24,1.14,1.14,0,0,1,.1.27,1.77,1.77,0,0,1,0,.27c0,.09,0,.16,0,.22v1.91h-.23v-2c0-.08,0-.17,0-.29a.88.88,0,0,0-.11-.33.76.76,0,0,0-.26-.27.9.9,0,0,0-.49-.11,1.09,1.09,0,0,0-.47.1,1,1,0,0,0-.35.27,1.18,1.18,0,0,0-.22.41,1.72,1.72,0,0,0-.07.52v1.67h-.23V94.91Z"/><path class="cls-3" d="M76.75,96.11H77v.66h0a1,1,0,0,1,.17-.31,1.14,1.14,0,0,1,.26-.23,1.12,1.12,0,0,1,.32-.14,1.31,1.31,0,0,1,.35,0,1.4,1.4,0,0,1,.46.07.9.9,0,0,1,.31.17.83.83,0,0,1,.19.24,1.14,1.14,0,0,1,.1.27,1.77,1.77,0,0,1,0,.27c0,.09,0,.16,0,.22v1.91H79v-2c0-.08,0-.17,0-.29a.88.88,0,0,0-.11-.33.76.76,0,0,0-.26-.27.9.9,0,0,0-.49-.11,1.09,1.09,0,0,0-.47.1,1,1,0,0,0-.35.27,1.18,1.18,0,0,0-.22.41,1.72,1.72,0,0,0-.07.52v1.67h-.23Z"/><path class="cls-3" d="M80.8,97.65a2,2,0,0,1,.09-.62,1.56,1.56,0,0,1,.27-.51,1.3,1.3,0,0,1,.44-.35,1.49,1.49,0,0,1,1.21,0,1.3,1.3,0,0,1,.44.35,1.55,1.55,0,0,1,.27.51,2,2,0,0,1,.09.62,2,2,0,0,1-.09.62,1.51,1.51,0,0,1-.27.51,1.32,1.32,0,0,1-.44.35,1.49,1.49,0,0,1-1.21,0,1.32,1.32,0,0,1-.44-.35,1.53,1.53,0,0,1-.27-.51A2,2,0,0,1,80.8,97.65Zm.23,0a1.81,1.81,0,0,0,.08.53,1.44,1.44,0,0,0,.23.45,1.11,1.11,0,0,0,.37.31,1.17,1.17,0,0,0,1,0,1.11,1.11,0,0,0,.37-.31,1.44,1.44,0,0,0,.23-.45,1.84,1.84,0,0,0,0-1.06,1.44,1.44,0,0,0-.23-.45,1.11,1.11,0,0,0-.37-.31,1.17,1.17,0,0,0-1,0,1.11,1.11,0,0,0-.37.31,1.44,1.44,0,0,0-.23.45A1.82,1.82,0,0,0,81,97.65Z"/><path class="cls-3" d="M85.53,94.91v4.28H85.3V94.91Z"/><path class="cls-3" d="M87.19,97.65a2,2,0,0,1,.09-.62,1.56,1.56,0,0,1,.27-.51,1.3,1.3,0,0,1,.44-.35,1.49,1.49,0,0,1,1.21,0,1.3,1.3,0,0,1,.44.35,1.55,1.55,0,0,1,.27.51,2,2,0,0,1,.09.62,2,2,0,0,1-.09.62,1.51,1.51,0,0,1-.27.51,1.32,1.32,0,0,1-.44.35,1.49,1.49,0,0,1-1.21,0,1.32,1.32,0,0,1-.44-.35,1.53,1.53,0,0,1-.27-.51A2,2,0,0,1,87.19,97.65Zm.23,0a1.81,1.81,0,0,0,.08.53,1.44,1.44,0,0,0,.23.45,1.11,1.11,0,0,0,.37.31,1.17,1.17,0,0,0,1,0,1.11,1.11,0,0,0,.37-.31,1.44,1.44,0,0,0,.23-.45,1.84,1.84,0,0,0,0-1.06,1.44,1.44,0,0,0-.23-.45,1.11,1.11,0,0,0-.37-.31,1.17,1.17,0,0,0-1,0,1.11,1.11,0,0,0-.37.31,1.44,1.44,0,0,0-.23.45A1.82,1.82,0,0,0,87.42,97.65Z"/><path class="cls-3" d="M94.18,96.11V99a2.08,2.08,0,0,1-.06.5,1.12,1.12,0,0,1-.21.43,1,1,0,0,1-.4.3,1.66,1.66,0,0,1-.65.11,2,2,0,0,1-.46-.05,1.11,1.11,0,0,1-.38-.16.82.82,0,0,1-.26-.29,1,1,0,0,1-.11-.45h.23a.83.83,0,0,0,.1.35.73.73,0,0,0,.22.24.92.92,0,0,0,.3.14,1.48,1.48,0,0,0,.36,0,1.29,1.29,0,0,0,.53-.1.91.91,0,0,0,.34-.25.9.9,0,0,0,.18-.35,1.59,1.59,0,0,0,.05-.39v-.71h0a1.23,1.23,0,0,1-.44.52,1.21,1.21,0,0,1-.67.18,1.37,1.37,0,0,1-.59-.12,1.13,1.13,0,0,1-.41-.32,1.38,1.38,0,0,1-.25-.48,2.1,2.1,0,0,1-.08-.6,1.91,1.91,0,0,1,.09-.58,1.44,1.44,0,0,1,.25-.48,1.24,1.24,0,0,1,.42-.33,1.36,1.36,0,0,1,1.25.06,1,1,0,0,1,.44.53h0v-.64Zm-1.35.13a1,1,0,0,0-.49.11,1,1,0,0,0-.34.3,1.37,1.37,0,0,0-.2.42,1.73,1.73,0,0,0-.07.48,1.87,1.87,0,0,0,.07.51,1.21,1.21,0,0,0,.21.42,1,1,0,0,0,.35.29,1,1,0,0,0,.48.1,1.07,1.07,0,0,0,.49-.11,1,1,0,0,0,.35-.29,1.29,1.29,0,0,0,.21-.42,1.83,1.83,0,0,0,0-1,1.26,1.26,0,0,0-.21-.42,1,1,0,0,0-.35-.29A1.07,1.07,0,0,0,92.83,96.23Z"/><path class="cls-3" d="M95.56,96.11h.27L97,98.92,98,96.11h.26L97,99.52l-.18.39a.67.67,0,0,1-.18.24.56.56,0,0,1-.29.12l-.43,0v-.2a1.48,1.48,0,0,0,.38,0,.6.6,0,0,0,.26-.16.76.76,0,0,0,.14-.24q.07-.18.18-.48Z"/><path class="cls-3" d="M104.15,97.06a.88.88,0,0,0-.11-.36.8.8,0,0,0-.22-.26,1,1,0,0,0-.32-.16,1.38,1.38,0,0,0-.39-.05,1.08,1.08,0,0,0-.51.12,1.11,1.11,0,0,0-.37.31,1.4,1.4,0,0,0-.23.44,1.71,1.71,0,0,0-.08.51,2.19,2.19,0,0,0,.07.58,1.31,1.31,0,0,0,.22.46,1,1,0,0,0,.37.3,1.19,1.19,0,0,0,.52.11,1.07,1.07,0,0,0,.72-.27,1,1,0,0,0,.23-.3,1.25,1.25,0,0,0,.12-.39h.23a1.45,1.45,0,0,1-.15.49A1.19,1.19,0,0,1,104,99a1.25,1.25,0,0,1-.4.23,1.54,1.54,0,0,1-1.11-.06,1.23,1.23,0,0,1-.44-.36,1.53,1.53,0,0,1-.25-.53,2.32,2.32,0,0,1-.08-.62,2,2,0,0,1,.09-.61,1.49,1.49,0,0,1,.27-.5,1.29,1.29,0,0,1,.44-.34,1.39,1.39,0,0,1,.61-.13,1.7,1.7,0,0,1,.47.06,1.21,1.21,0,0,1,.39.19,1,1,0,0,1,.28.32,1.13,1.13,0,0,1,.13.45Z"/><path class="cls-3" d="M105.88,97.65A2,2,0,0,1,106,97a1.56,1.56,0,0,1,.27-.51,1.3,1.3,0,0,1,.44-.35,1.49,1.49,0,0,1,1.21,0,1.3,1.3,0,0,1,.44.35,1.55,1.55,0,0,1,.27.51,2,2,0,0,1,.09.62,2,2,0,0,1-.09.62,1.51,1.51,0,0,1-.27.51,1.32,1.32,0,0,1-.44.35,1.49,1.49,0,0,1-1.21,0,1.32,1.32,0,0,1-.44-.35,1.53,1.53,0,0,1-.27-.51A2,2,0,0,1,105.88,97.65Zm.23,0a1.81,1.81,0,0,0,.08.53,1.44,1.44,0,0,0,.23.45,1.11,1.11,0,0,0,.37.31,1.17,1.17,0,0,0,1,0,1.11,1.11,0,0,0,.37-.31,1.44,1.44,0,0,0,.23-.45,1.84,1.84,0,0,0,0-1.06,1.44,1.44,0,0,0-.23-.45,1.11,1.11,0,0,0-.37-.31,1.17,1.17,0,0,0-1,0,1.11,1.11,0,0,0-.37.31,1.44,1.44,0,0,0-.23.45A1.82,1.82,0,0,0,106.11,97.65Z"/><path class="cls-3" d="M110.33,96.11h.23v.63h0a.84.84,0,0,1,.13-.27,1,1,0,0,1,.22-.23,1,1,0,0,1,.29-.15,1,1,0,0,1,.33-.05,1.15,1.15,0,0,1,.38.06.92.92,0,0,1,.28.15.74.74,0,0,1,.18.21.79.79,0,0,1,.09.24h0a1.12,1.12,0,0,1,.37-.49,1,1,0,0,1,.61-.16,1.15,1.15,0,0,1,.39.06.82.82,0,0,1,.31.19.88.88,0,0,1,.2.33,1.38,1.38,0,0,1,.07.47v2.11h-.23V97.08a1,1,0,0,0-.09-.46.73.73,0,0,0-.21-.25.61.61,0,0,0-.25-.11l-.19,0a1,1,0,0,0-.39.07.82.82,0,0,0-.31.22,1,1,0,0,0-.2.36,1.53,1.53,0,0,0-.07.49v1.82h-.23V97.08a1,1,0,0,0-.09-.46.7.7,0,0,0-.2-.26.62.62,0,0,0-.24-.11l-.2,0a1,1,0,0,0-.65.27,1,1,0,0,0-.23.35,1.31,1.31,0,0,0-.09.51v1.82h-.23Z"/><path class="cls-3" d="M116.46,96.82h0a1.21,1.21,0,0,1,.12-.25,1,1,0,0,1,.22-.25,1.21,1.21,0,0,1,.33-.2,1.2,1.2,0,0,1,.45-.08,1.35,1.35,0,0,1,.62.13,1.25,1.25,0,0,1,.43.35,1.51,1.51,0,0,1,.25.52,2.21,2.21,0,0,1,.08.62,2.33,2.33,0,0,1-.08.65,1.42,1.42,0,0,1-.26.51,1.18,1.18,0,0,1-.43.33,1.47,1.47,0,0,1-.62.12,1.38,1.38,0,0,1-.69-.17,1,1,0,0,1-.44-.55h0v1.75h-.22V96.11h.22Zm1.14,2.25a1.12,1.12,0,0,0,.52-.11,1,1,0,0,0,.36-.31,1.32,1.32,0,0,0,.21-.45,2.11,2.11,0,0,0,0-1.06,1.44,1.44,0,0,0-.2-.46,1.06,1.06,0,0,0-.36-.32,1.21,1.21,0,0,0-1.06,0,1,1,0,0,0-.35.32,1.33,1.33,0,0,0-.2.45,2.31,2.31,0,0,0-.06.53,2.55,2.55,0,0,0,.05.53,1.29,1.29,0,0,0,.18.45.93.93,0,0,0,.35.31A1.15,1.15,0,0,0,117.59,99.07Z"/><path class="cls-3" d="M122.64,98.58h0a1,1,0,0,1-.16.26,1.12,1.12,0,0,1-.25.22,1.23,1.23,0,0,1-.33.15,1.45,1.45,0,0,1-.41.05,1.2,1.2,0,0,1-.76-.21.79.79,0,0,1-.27-.66.77.77,0,0,1,.38-.71,1.15,1.15,0,0,1,.37-.14l.39-.06.35,0a2.1,2.1,0,0,0,.39-.06.49.49,0,0,0,.21-.11.31.31,0,0,0,.09-.18,1.72,1.72,0,0,0,0-.27.56.56,0,0,0,0-.23.53.53,0,0,0-.15-.19.75.75,0,0,0-.26-.13,1.42,1.42,0,0,0-.4,0,1,1,0,0,0-.67.2.81.81,0,0,0-.28.62h-.23a1,1,0,0,1,.33-.76,1.3,1.3,0,0,1,.86-.25,1.24,1.24,0,0,1,.81.22.72.72,0,0,1,.25.57v1.79s0,.09,0,.13a.45.45,0,0,0,0,.12A.19.19,0,0,0,123,99a.19.19,0,0,0,.12,0l.17,0v.19l-.19,0a.55.55,0,0,1-.22,0,.29.29,0,0,1-.12-.1.35.35,0,0,1-.06-.14.91.91,0,0,1,0-.18Zm0-1.14a.43.43,0,0,1-.25.14l-.38.05-.38,0-.34.05a1,1,0,0,0-.3.11.62.62,0,0,0-.22.21.66.66,0,0,0-.08.35.6.6,0,0,0,.22.51,1,1,0,0,0,.59.17,1.16,1.16,0,0,0,.62-.14,1.09,1.09,0,0,0,.35-.32,1,1,0,0,0,.15-.35,1.46,1.46,0,0,0,0-.23Z"/><path class="cls-3" d="M124.68,96.11h.23v.66h0a1,1,0,0,1,.17-.31,1.14,1.14,0,0,1,.26-.23,1.12,1.12,0,0,1,.32-.14,1.31,1.31,0,0,1,.35,0,1.4,1.4,0,0,1,.46.07.9.9,0,0,1,.31.17.83.83,0,0,1,.19.24,1.14,1.14,0,0,1,.1.27,1.77,1.77,0,0,1,0,.27c0,.09,0,.16,0,.22v1.91h-.23v-2c0-.08,0-.17,0-.29a.88.88,0,0,0-.11-.33.76.76,0,0,0-.26-.27.9.9,0,0,0-.49-.11,1.09,1.09,0,0,0-.47.1,1,1,0,0,0-.35.27A1.18,1.18,0,0,0,125,97a1.72,1.72,0,0,0-.07.52v1.67h-.23Z"/><path class="cls-3" d="M128.5,96.11h.27l1.15,2.81L131,96.11h.26l-1.32,3.41-.18.39a.67.67,0,0,1-.18.24.56.56,0,0,1-.29.12l-.43,0v-.2a1.48,1.48,0,0,0,.38,0,.6.6,0,0,0,.26-.16.76.76,0,0,0,.14-.24q.07-.18.18-.48Z"/></g></g></svg>