<svg xmlns="http://www.w3.org/2000/svg" viewBox="0 0 625.75 500.12"><defs><style>.cls-1{fill:#fff;}.cls-2,.cls-3{fill:none;stroke:#fff;stroke-miterlimit:10;}.cls-2{stroke-width:0.5px;}.cls-3{stroke-width:0.25px;}</style></defs><title>Asset 1</title><g id="Layer_2" data-name="Layer 2"><g id="レイヤー_1" data-name="レイヤー 1"><path class="cls-1" d="M124.36,251.86h.91l5.36,13.57h-.89L128,261.07h-6.5l-1.73,4.35h-.89Zm3.4,8.49-2.91-7.68h0l-3,7.68Z"/><path class="cls-1" d="M142.43,263.34h0a4.44,4.44,0,0,1-1.52,1.74,4.54,4.54,0,0,1-4.12.16,3.74,3.74,0,0,1-1.31-1.12,4.85,4.85,0,0,1-.76-1.62,7.75,7.75,0,0,1,0-4,4.59,4.59,0,0,1,.81-1.62,3.88,3.88,0,0,1,1.36-1.08,4.33,4.33,0,0,1,1.92-.4,4.24,4.24,0,0,1,1.16.16,4.08,4.08,0,0,1,1.05.47,3.36,3.36,0,0,1,1.4,1.79h0v-6h.72v13.57h-.72ZM138.8,265a3.22,3.22,0,0,0,1.61-.38,3.43,3.43,0,0,0,1.12-1,4.44,4.44,0,0,0,.67-1.43,6.27,6.27,0,0,0,.22-1.64,6.34,6.34,0,0,0-.22-1.66,4.7,4.7,0,0,0-.66-1.44,3.24,3.24,0,0,0-1.13-1,3.33,3.33,0,0,0-1.62-.38,3.43,3.43,0,0,0-1.65.37,3.29,3.29,0,0,0-1.13,1,4.16,4.16,0,0,0-.65,1.44,7.12,7.12,0,0,0-.2,1.69,6.3,6.3,0,0,0,.22,1.66,4.44,4.44,0,0,0,.67,1.43,3.29,3.29,0,0,0,1.13,1A3.38,3.38,0,0,0,138.8,265Z"/><path class="cls-1" d="M152.6,265.43h-.89l-3.93-9.77h.84l3.53,8.93h0l3.31-8.93h.8Z"/><path class="cls-1" d="M161,260.64v.11a5.77,5.77,0,0,0,.23,1.63,4.17,4.17,0,0,0,.68,1.37,3.21,3.21,0,0,0,1.12.93,3.44,3.44,0,0,0,1.57.34,3.35,3.35,0,0,0,2.32-.77,4,4,0,0,0,1.18-2.14h.72a4.37,4.37,0,0,1-1.4,2.62,4.24,4.24,0,0,1-2.84.91,4.31,4.31,0,0,1-1.89-.39,3.85,3.85,0,0,1-1.35-1.06,4.5,4.5,0,0,1-.81-1.6,7.12,7.12,0,0,1-.27-2,7,7,0,0,1,.28-2,4.94,4.94,0,0,1,.83-1.65,4.08,4.08,0,0,1,1.38-1.14,4.18,4.18,0,0,1,1.95-.43,4.13,4.13,0,0,1,1.81.38,3.8,3.8,0,0,1,1.32,1,4.61,4.61,0,0,1,.81,1.52,6.07,6.07,0,0,1,.28,1.85c0,.06,0,.14,0,.22s0,.15,0,.2Zm7.18-.63a5.83,5.83,0,0,0-.27-1.51,3.75,3.75,0,0,0-.68-1.25,3.37,3.37,0,0,0-1.09-.86,3.19,3.19,0,0,0-1.46-.32,3.42,3.42,0,0,0-1.54.33,3.5,3.5,0,0,0-1.12.87,3.9,3.9,0,0,0-.7,1.26A5.92,5.92,0,0,0,161,260Z"/><path class="cls-1" d="M174.73,257.83h.06a2.39,2.39,0,0,1,.48-.89,3.41,3.41,0,0,1,.86-.72,4.22,4.22,0,0,1,1.12-.47,4.55,4.55,0,0,1,1.28-.14v.72a3.43,3.43,0,0,0-1.3.11,3.16,3.16,0,0,0-1.4.84,6.81,6.81,0,0,0-.46.55,2.67,2.67,0,0,0-.33.59,3.73,3.73,0,0,0-.21.72,6.31,6.31,0,0,0-.09,1v5.34H174v-9.77h.72Z"/><path class="cls-1" d="M186.3,256.29h-2.13v6.82a2.63,2.63,0,0,0,.13.93,1.06,1.06,0,0,0,.41.52,1.45,1.45,0,0,0,.67.22,6.8,6.8,0,0,0,.9,0v.63a6.77,6.77,0,0,1-1.07,0,2.16,2.16,0,0,1-.92-.29,1.67,1.67,0,0,1-.64-.71,2.68,2.68,0,0,1-.2-1.31v-6.82h-1.8v-.63h1.8v-3h.72v3h2.13Z"/><path class="cls-1" d="M191.22,253.82v-2h.72v2Zm0,11.61v-9.77h.72v9.77Z"/><path class="cls-1" d="M198,262.18a3,3,0,0,0,.3,1.21,2.87,2.87,0,0,0,1.69,1.45,3.88,3.88,0,0,0,1.23.19,6.59,6.59,0,0,0,1-.09,3.53,3.53,0,0,0,1-.31A2.09,2.09,0,0,0,204,264a1.68,1.68,0,0,0,.3-1,1.53,1.53,0,0,0-.49-1.23,3.46,3.46,0,0,0-1.25-.65,12.66,12.66,0,0,0-1.61-.37,8.34,8.34,0,0,1-1.62-.43,3.29,3.29,0,0,1-1.25-.81,2.53,2.53,0,0,1-.17-2.74,2.4,2.4,0,0,1,.83-.77,3.74,3.74,0,0,1,1.13-.41,6.5,6.5,0,0,1,1.25-.12,5.73,5.73,0,0,1,1.43.17,3.08,3.08,0,0,1,1.15.55,2.63,2.63,0,0,1,.76,1,3.35,3.35,0,0,1,.28,1.43h-.72a2.72,2.72,0,0,0-.22-1.14,2,2,0,0,0-.61-.77,2.65,2.65,0,0,0-.92-.44,4.41,4.41,0,0,0-1.14-.14,5.36,5.36,0,0,0-1,.1,2.88,2.88,0,0,0-.9.32,2,2,0,0,0-.66.59,1.67,1.67,0,0,0,0,1.82,2,2,0,0,0,.75.58,5.16,5.16,0,0,0,1,.35l1.17.27q.72.13,1.36.31a3.84,3.84,0,0,1,1.1.49,2.25,2.25,0,0,1,.73.81,2.64,2.64,0,0,1,.27,1.25,2.23,2.23,0,0,1-.36,1.31,2.78,2.78,0,0,1-.91.83,3.87,3.87,0,0,1-1.23.44,7.35,7.35,0,0,1-1.32.12,5.26,5.26,0,0,1-1.55-.22,3.5,3.5,0,0,1-1.25-.66,3.17,3.17,0,0,1-.84-1.09,3.7,3.7,0,0,1-.32-1.5Z"/><path class="cls-1" d="M210.4,253.82v-2h.72v2Zm0,11.61v-9.77h.72v9.77Z"/><path class="cls-1" d="M216.84,255.66h.72v2.09h0a3.11,3.11,0,0,1,.54-1,3.59,3.59,0,0,1,1.83-1.19,4.19,4.19,0,0,1,1.12-.15,4.44,4.44,0,0,1,1.45.21,2.85,2.85,0,0,1,1,.55,2.67,2.67,0,0,1,.6.77,3.57,3.57,0,0,1,.31.86,5.09,5.09,0,0,1,.11.85c0,.27,0,.51,0,.71v6h-.72v-6.17q0-.36-.06-.91a2.76,2.76,0,0,0-.33-1.05,2.42,2.42,0,0,0-.84-.86,2.85,2.85,0,0,0-1.55-.36,3.44,3.44,0,0,0-1.48.3,3.21,3.21,0,0,0-1.1.85,3.72,3.72,0,0,0-.69,1.29,5.43,5.43,0,0,0-.24,1.64v5.28h-.72Z"/><path class="cls-1" d="M238.17,255.66v9.25a6.63,6.63,0,0,1-.19,1.59,3.54,3.54,0,0,1-.65,1.36,3.21,3.21,0,0,1-1.28.94,5.25,5.25,0,0,1-2.07.35,6.33,6.33,0,0,1-1.46-.16,3.52,3.52,0,0,1-1.19-.51,2.61,2.61,0,0,1-.83-.93,3.32,3.32,0,0,1-.35-1.43h.72a2.62,2.62,0,0,0,.32,1.1,2.32,2.32,0,0,0,.69.75,2.93,2.93,0,0,0,1,.43,4.7,4.7,0,0,0,1.14.13,4.09,4.09,0,0,0,1.68-.3,2.91,2.91,0,0,0,1.07-.79,2.86,2.86,0,0,0,.56-1.1,4.91,4.91,0,0,0,.16-1.24v-2.24h-.06a3.88,3.88,0,0,1-1.39,1.65,3.84,3.84,0,0,1-2.13.57,4.35,4.35,0,0,1-1.87-.37,3.61,3.61,0,0,1-1.31-1,4.43,4.43,0,0,1-.78-1.53,6.73,6.73,0,0,1-.26-1.9,6.09,6.09,0,0,1,.28-1.84,4.59,4.59,0,0,1,.81-1.53,3.9,3.9,0,0,1,1.32-1,4.28,4.28,0,0,1,4,.2,3.27,3.27,0,0,1,1.4,1.67h0v-2Zm-4.28.4a3.16,3.16,0,0,0-1.55.36,3.26,3.26,0,0,0-1.08.95,4.31,4.31,0,0,0-.65,1.34,5.45,5.45,0,0,0-.22,1.53,5.93,5.93,0,0,0,.22,1.62,3.84,3.84,0,0,0,.67,1.34,3.24,3.24,0,0,0,1.1.9,3.29,3.29,0,0,0,1.51.33,3.37,3.37,0,0,0,1.56-.34,3.23,3.23,0,0,0,1.11-.93,4.09,4.09,0,0,0,.67-1.34,5.83,5.83,0,0,0,0-3.16,4,4,0,0,0-.67-1.34,3.28,3.28,0,0,0-1.11-.92A3.37,3.37,0,0,0,233.9,256.06Z"/><path class="cls-1" d="M254.67,260.64,251,256.93l.49-.51,3.71,3.71,3.69-3.71.51.51-3.69,3.71,3.69,3.69-.51.51-3.69-3.71-3.71,3.71-.49-.51Z"/><path class="cls-1" d="M268.18,252.58v-.72h10.39v.72h-4.79v12.84h-.84V252.58Z"/><path class="cls-1" d="M283.05,260.64v.11a5.77,5.77,0,0,0,.23,1.63,4.17,4.17,0,0,0,.68,1.37,3.21,3.21,0,0,0,1.12.93,3.44,3.44,0,0,0,1.57.34,3.35,3.35,0,0,0,2.32-.77,4,4,0,0,0,1.18-2.14h.72a4.37,4.37,0,0,1-1.4,2.62,4.24,4.24,0,0,1-2.84.91,4.31,4.31,0,0,1-1.89-.39,3.85,3.85,0,0,1-1.35-1.06,4.5,4.5,0,0,1-.81-1.6,7.12,7.12,0,0,1-.27-2,7,7,0,0,1,.28-2,4.94,4.94,0,0,1,.83-1.65,4.08,4.08,0,0,1,1.38-1.14,4.18,4.18,0,0,1,1.95-.43,4.13,4.13,0,0,1,1.81.38,3.8,3.8,0,0,1,1.32,1,4.61,4.61,0,0,1,.81,1.52,6.07,6.07,0,0,1,.28,1.85c0,.06,0,.14,0,.22s0,.15,0,.2Zm7.18-.63a5.83,5.83,0,0,0-.27-1.51,3.75,3.75,0,0,0-.68-1.25,3.37,3.37,0,0,0-1.09-.86,3.19,3.19,0,0,0-1.46-.32,3.42,3.42,0,0,0-1.54.33,3.5,3.5,0,0,0-1.12.87,3.9,3.9,0,0,0-.7,1.26,5.92,5.92,0,0,0-.31,1.48Z"/><path class="cls-1" d="M303.42,258.68a2.84,2.84,0,0,0-.33-1.14,2.56,2.56,0,0,0-.71-.82,3.24,3.24,0,0,0-1-.49,4.37,4.37,0,0,0-1.24-.17,3.41,3.41,0,0,0-1.62.37,3.56,3.56,0,0,0-1.18,1,4.48,4.48,0,0,0-.72,1.41,5.42,5.42,0,0,0-.25,1.62,6.9,6.9,0,0,0,.23,1.82,4.11,4.11,0,0,0,.7,1.45,3.26,3.26,0,0,0,1.18,1,3.74,3.74,0,0,0,1.65.34,3.42,3.42,0,0,0,1.26-.23,3.38,3.38,0,0,0,1-.63,3.23,3.23,0,0,0,.73-1,3.89,3.89,0,0,0,.38-1.23h.72a4.6,4.6,0,0,1-.48,1.56,3.81,3.81,0,0,1-.91,1.15,4,4,0,0,1-1.25.71,4.86,4.86,0,0,1-3.52-.18,3.91,3.91,0,0,1-1.39-1.15,4.86,4.86,0,0,1-.8-1.66,7.44,7.44,0,0,1-.26-2,6.24,6.24,0,0,1,.29-1.94,4.74,4.74,0,0,1,.86-1.6,4.11,4.11,0,0,1,1.41-1.08,4.41,4.41,0,0,1,1.92-.4,5.37,5.37,0,0,1,1.49.2,3.86,3.86,0,0,1,1.24.6,3.12,3.12,0,0,1,.88,1,3.62,3.62,0,0,1,.42,1.43Z"/><path class="cls-1" d="M310.07,251.86v5.89h0a3.11,3.11,0,0,1,.54-1,3.59,3.59,0,0,1,1.83-1.19,4.19,4.19,0,0,1,1.12-.15,4.44,4.44,0,0,1,1.45.21,2.85,2.85,0,0,1,1,.55,2.67,2.67,0,0,1,.6.77,3.57,3.57,0,0,1,.31.86,5.09,5.09,0,0,1,.11.85c0,.27,0,.51,0,.71v6h-.72v-6.17q0-.36-.06-.91a2.76,2.76,0,0,0-.33-1.05,2.42,2.42,0,0,0-.84-.86,2.85,2.85,0,0,0-1.55-.36,3.44,3.44,0,0,0-1.48.3,3.21,3.21,0,0,0-1.1.85,3.72,3.72,0,0,0-.69,1.29,5.43,5.43,0,0,0-.24,1.64v5.28h-.72V251.86Z"/><path class="cls-1" d="M322.63,255.66h.72v2.09h0a3.11,3.11,0,0,1,.54-1,3.59,3.59,0,0,1,1.83-1.19,4.19,4.19,0,0,1,1.12-.15,4.44,4.44,0,0,1,1.45.21,2.85,2.85,0,0,1,1,.55,2.67,2.67,0,0,1,.6.77,3.57,3.57,0,0,1,.31.86,5.09,5.09,0,0,1,.11.85c0,.27,0,.51,0,.71v6h-.72v-6.17q0-.36-.06-.91a2.76,2.76,0,0,0-.33-1.05,2.42,2.42,0,0,0-.84-.86,2.85,2.85,0,0,0-1.55-.36,3.44,3.44,0,0,0-1.48.3,3.21,3.21,0,0,0-1.1.85,3.72,3.72,0,0,0-.69,1.29,5.43,5.43,0,0,0-.24,1.64v5.28h-.72Z"/><path class="cls-1" d="M335.46,260.54a6.43,6.43,0,0,1,.29-2,4.94,4.94,0,0,1,.86-1.62,4.12,4.12,0,0,1,1.41-1.11,4.71,4.71,0,0,1,3.84,0,4.11,4.11,0,0,1,1.41,1.11,4.94,4.94,0,0,1,.86,1.62,6.43,6.43,0,0,1,.29,2,6.51,6.51,0,0,1-.29,2,4.81,4.81,0,0,1-.86,1.62,4.14,4.14,0,0,1-1.41,1.1,4.71,4.71,0,0,1-3.84,0,4.15,4.15,0,0,1-1.41-1.1,4.81,4.81,0,0,1-.86-1.62A6.51,6.51,0,0,1,335.46,260.54Zm.72,0a5.7,5.7,0,0,0,.25,1.68,4.55,4.55,0,0,0,.72,1.43,3.51,3.51,0,0,0,1.18,1,3.71,3.71,0,0,0,3.23,0,3.51,3.51,0,0,0,1.18-1,4.57,4.57,0,0,0,.72-1.43,5.87,5.87,0,0,0,0-3.36,4.58,4.58,0,0,0-.72-1.43,3.51,3.51,0,0,0-1.18-1,3.71,3.71,0,0,0-3.23,0,3.51,3.51,0,0,0-1.18,1,4.56,4.56,0,0,0-.72,1.43A5.71,5.71,0,0,0,336.18,260.54Z"/><path class="cls-1" d="M350.43,251.86v13.57h-.72V251.86Z"/><path class="cls-1" d="M355.69,260.54a6.43,6.43,0,0,1,.29-2,4.94,4.94,0,0,1,.86-1.62,4.12,4.12,0,0,1,1.41-1.11,4.71,4.71,0,0,1,3.84,0A4.11,4.11,0,0,1,363.5,257a4.94,4.94,0,0,1,.86,1.62,6.43,6.43,0,0,1,.29,2,6.51,6.51,0,0,1-.29,2,4.81,4.81,0,0,1-.86,1.62,4.14,4.14,0,0,1-1.41,1.1,4.71,4.71,0,0,1-3.84,0,4.15,4.15,0,0,1-1.41-1.1,4.81,4.81,0,0,1-.86-1.62A6.51,6.51,0,0,1,355.69,260.54Zm.72,0a5.7,5.7,0,0,0,.25,1.68,4.55,4.55,0,0,0,.72,1.43,3.51,3.51,0,0,0,1.18,1,3.71,3.71,0,0,0,3.23,0,3.51,3.51,0,0,0,1.18-1,4.57,4.57,0,0,0,.72-1.43,5.87,5.87,0,0,0,0-3.36,4.58,4.58,0,0,0-.72-1.43,3.51,3.51,0,0,0-1.18-1,3.71,3.71,0,0,0-3.23,0,3.51,3.51,0,0,0-1.18,1,4.56,4.56,0,0,0-.72,1.43A5.71,5.71,0,0,0,356.41,260.54Z"/><path class="cls-1" d="M377.83,255.66v9.25a6.63,6.63,0,0,1-.19,1.59,3.54,3.54,0,0,1-.65,1.36,3.21,3.21,0,0,1-1.28.94,5.25,5.25,0,0,1-2.07.35,6.33,6.33,0,0,1-1.46-.16,3.52,3.52,0,0,1-1.19-.51,2.61,2.61,0,0,1-.83-.93,3.32,3.32,0,0,1-.35-1.43h.72a2.62,2.62,0,0,0,.32,1.1,2.32,2.32,0,0,0,.69.75,2.93,2.93,0,0,0,1,.43,4.7,4.7,0,0,0,1.14.13,4.09,4.09,0,0,0,1.68-.3,2.91,2.91,0,0,0,1.07-.79,2.86,2.86,0,0,0,.56-1.1,4.91,4.91,0,0,0,.16-1.24v-2.24h-.06a3.88,3.88,0,0,1-1.39,1.65,3.84,3.84,0,0,1-2.13.57,4.35,4.35,0,0,1-1.87-.37,3.61,3.61,0,0,1-1.31-1,4.43,4.43,0,0,1-.78-1.53,6.73,6.73,0,0,1-.26-1.9,6.09,6.09,0,0,1,.28-1.84,4.59,4.59,0,0,1,.81-1.53,3.9,3.9,0,0,1,1.32-1,4.28,4.28,0,0,1,4,.2,3.27,3.27,0,0,1,1.4,1.67h0v-2Zm-4.28.4a3.16,3.16,0,0,0-1.55.36,3.26,3.26,0,0,0-1.08.95,4.31,4.31,0,0,0-.65,1.34,5.45,5.45,0,0,0-.22,1.53,5.93,5.93,0,0,0,.22,1.62,3.84,3.84,0,0,0,.67,1.34,3.24,3.24,0,0,0,1.1.9,3.29,3.29,0,0,0,1.51.33,3.37,3.37,0,0,0,1.56-.34,3.23,3.23,0,0,0,1.11-.93,4.09,4.09,0,0,0,.67-1.34,5.83,5.83,0,0,0,0-3.16,4,4,0,0,0-.67-1.34,3.28,3.28,0,0,0-1.11-.92A3.37,3.37,0,0,0,373.55,256.06Z"/><path class="cls-1" d="M382.22,255.66h.86l3.63,8.91,3.34-8.91h.82l-4.18,10.81q-.3.72-.56,1.24a2.14,2.14,0,0,1-.58.77,1.79,1.79,0,0,1-.9.37,11.47,11.47,0,0,1-1.38.07v-.63a4.7,4.7,0,0,0,1.22-.12,1.89,1.89,0,0,0,.82-.5,2.44,2.44,0,0,0,.44-.77q.23-.56.57-1.53Z"/><path class="cls-1" d="M409.4,258.68a2.84,2.84,0,0,0-.33-1.14,2.56,2.56,0,0,0-.71-.82,3.24,3.24,0,0,0-1-.49,4.37,4.37,0,0,0-1.24-.17,3.41,3.41,0,0,0-1.62.37,3.56,3.56,0,0,0-1.18,1,4.48,4.48,0,0,0-.72,1.41,5.42,5.42,0,0,0-.25,1.62,6.9,6.9,0,0,0,.23,1.82,4.11,4.11,0,0,0,.7,1.45,3.26,3.26,0,0,0,1.18,1,3.74,3.74,0,0,0,1.65.34,3.42,3.42,0,0,0,1.26-.23,3.38,3.38,0,0,0,1-.63,3.23,3.23,0,0,0,.73-1,3.89,3.89,0,0,0,.38-1.23h.72a4.6,4.6,0,0,1-.48,1.56,3.81,3.81,0,0,1-.91,1.15,4,4,0,0,1-1.25.71,4.86,4.86,0,0,1-3.52-.18,3.91,3.91,0,0,1-1.39-1.15,4.86,4.86,0,0,1-.8-1.66,7.44,7.44,0,0,1-.26-2,6.24,6.24,0,0,1,.29-1.94,4.74,4.74,0,0,1,.86-1.6,4.11,4.11,0,0,1,1.41-1.08,4.41,4.41,0,0,1,1.92-.4,5.37,5.37,0,0,1,1.49.2,3.86,3.86,0,0,1,1.24.6,3.12,3.12,0,0,1,.88,1,3.62,3.62,0,0,1,.42,1.43Z"/><path class="cls-1" d="M414.88,260.54a6.43,6.43,0,0,1,.29-2A4.94,4.94,0,0,1,416,257a4.12,4.12,0,0,1,1.41-1.11,4.71,4.71,0,0,1,3.84,0,4.11,4.11,0,0,1,1.41,1.11,4.94,4.94,0,0,1,.86,1.62,6.43,6.43,0,0,1,.29,2,6.51,6.51,0,0,1-.29,2,4.81,4.81,0,0,1-.86,1.62,4.14,4.14,0,0,1-1.41,1.1,4.71,4.71,0,0,1-3.84,0,4.15,4.15,0,0,1-1.41-1.1,4.81,4.81,0,0,1-.86-1.62A6.51,6.51,0,0,1,414.88,260.54Zm.72,0a5.7,5.7,0,0,0,.25,1.68,4.55,4.55,0,0,0,.72,1.43,3.51,3.51,0,0,0,1.18,1,3.71,3.71,0,0,0,3.23,0,3.51,3.51,0,0,0,1.18-1,4.57,4.57,0,0,0,.72-1.43,5.87,5.87,0,0,0,0-3.36,4.58,4.58,0,0,0-.72-1.43,3.51,3.51,0,0,0-1.18-1,3.71,3.71,0,0,0-3.23,0,3.51,3.51,0,0,0-1.18,1,4.56,4.56,0,0,0-.72,1.43A5.71,5.71,0,0,0,415.6,260.54Z"/><path class="cls-1" d="M429,255.66h.72v2h0a2.61,2.61,0,0,1,.4-.86,3.08,3.08,0,0,1,.69-.71,3.31,3.31,0,0,1,.91-.48,3.26,3.26,0,0,1,1.05-.17,3.68,3.68,0,0,1,1.22.18,2.9,2.9,0,0,1,.87.48,2.34,2.34,0,0,1,.57.67,2.53,2.53,0,0,1,.29.75h0a3.55,3.55,0,0,1,1.17-1.55,3.25,3.25,0,0,1,1.93-.52,3.62,3.62,0,0,1,1.22.2,2.57,2.57,0,0,1,1,.61,2.79,2.79,0,0,1,.64,1,4.35,4.35,0,0,1,.23,1.48v6.67h-.72v-6.69a3.13,3.13,0,0,0-.29-1.46,2.29,2.29,0,0,0-.67-.81,1.91,1.91,0,0,0-.78-.34,3.84,3.84,0,0,0-.6-.07,3.22,3.22,0,0,0-1.23.23,2.61,2.61,0,0,0-1,.68,3.2,3.2,0,0,0-.64,1.13,4.82,4.82,0,0,0-.23,1.55v5.78h-.72v-6.69a3.23,3.23,0,0,0-.28-1.45,2.19,2.19,0,0,0-.65-.81,1.94,1.94,0,0,0-.76-.34,3.46,3.46,0,0,0-.62-.08,3,3,0,0,0-2.07.85A3.28,3.28,0,0,0,430,258a4.19,4.19,0,0,0-.29,1.62v5.78H429Z"/><path class="cls-1" d="M448.38,257.9h.06a3.72,3.72,0,0,1,.38-.8,3.31,3.31,0,0,1,.7-.81,3.74,3.74,0,0,1,2.47-.86,4.27,4.27,0,0,1,1.95.42A3.94,3.94,0,0,1,455.3,257a4.82,4.82,0,0,1,.81,1.63,7.07,7.07,0,0,1,.27,2,7.44,7.44,0,0,1-.27,2.05,4.5,4.5,0,0,1-.81,1.61,3.71,3.71,0,0,1-1.37,1.05,4.65,4.65,0,0,1-2,.38,4.38,4.38,0,0,1-2.17-.53,3.11,3.11,0,0,1-1.39-1.73h0v5.53h-.7V255.66h.7ZM452,265a3.54,3.54,0,0,0,1.65-.36,3.27,3.27,0,0,0,1.14-1,4.23,4.23,0,0,0,.67-1.42,6.72,6.72,0,0,0,0-3.36,4.56,4.56,0,0,0-.65-1.44,3.33,3.33,0,0,0-1.13-1,3.41,3.41,0,0,0-1.69-.39,3.37,3.37,0,0,0-1.66.38,3.21,3.21,0,0,0-1.11,1,4.23,4.23,0,0,0-.62,1.43,7.31,7.31,0,0,0-.19,1.68,8.08,8.08,0,0,0,.17,1.68,4.1,4.1,0,0,0,.58,1.43,3,3,0,0,0,1.11,1A3.63,3.63,0,0,0,452,265Z"/><path class="cls-1" d="M468,263.49h0a3,3,0,0,1-.49.83,3.48,3.48,0,0,1-.79.69,3.92,3.92,0,0,1-1.05.48,4.63,4.63,0,0,1-1.29.17,3.81,3.81,0,0,1-2.41-.67,2.49,2.49,0,0,1-.85-2.08,2.44,2.44,0,0,1,1.21-2.25,3.71,3.71,0,0,1,1.16-.45,11.42,11.42,0,0,1,1.23-.19l1.12-.09a6.62,6.62,0,0,0,1.23-.18,1.56,1.56,0,0,0,.67-.34,1,1,0,0,0,.29-.56A5.34,5.34,0,0,0,468,258a1.8,1.8,0,0,0-.15-.74,1.66,1.66,0,0,0-.48-.61,2.34,2.34,0,0,0-.84-.42,4.45,4.45,0,0,0-1.25-.15,3.29,3.29,0,0,0-2.12.65,2.56,2.56,0,0,0-.88,2h-.72a3.2,3.2,0,0,1,1-2.42,4.12,4.12,0,0,1,2.73-.81,3.91,3.91,0,0,1,2.57.69,2.27,2.27,0,0,1,.81,1.81v5.68c0,.14,0,.28,0,.42a1.38,1.38,0,0,0,.07.38.57.57,0,0,0,.19.28.6.6,0,0,0,.38.1,3.47,3.47,0,0,0,.53-.06v.61a2.28,2.28,0,0,1-.59.08,1.74,1.74,0,0,1-.69-.11.91.91,0,0,1-.39-.3,1.11,1.11,0,0,1-.18-.45,3,3,0,0,1,0-.56Zm0-3.61a1.37,1.37,0,0,1-.81.44,10.14,10.14,0,0,1-1.21.17l-1.22.11q-.53.06-1.06.16a3.11,3.11,0,0,0-1,.35,2,2,0,0,0-.69.67,2.08,2.08,0,0,0-.27,1.11,1.89,1.89,0,0,0,.68,1.61,3,3,0,0,0,1.88.52,3.7,3.7,0,0,0,2-.45,3.46,3.46,0,0,0,1.1-1,3.15,3.15,0,0,0,.48-1.12,4.82,4.82,0,0,0,.1-.73Z"/><path class="cls-1" d="M474.41,255.66h.72v2.09h0a3.11,3.11,0,0,1,.54-1,3.59,3.59,0,0,1,1.83-1.19,4.19,4.19,0,0,1,1.12-.15,4.44,4.44,0,0,1,1.45.21,2.85,2.85,0,0,1,1,.55,2.67,2.67,0,0,1,.6.77,3.57,3.57,0,0,1,.31.86,5.09,5.09,0,0,1,.11.85c0,.27,0,.51,0,.71v6h-.72v-6.17q0-.36-.06-.91a2.76,2.76,0,0,0-.33-1.05,2.42,2.42,0,0,0-.84-.86,2.85,2.85,0,0,0-1.55-.36,3.44,3.44,0,0,0-1.48.3,3.21,3.21,0,0,0-1.1.85,3.72,3.72,0,0,0-.69,1.29,5.43,5.43,0,0,0-.24,1.64v5.28h-.72Z"/><path class="cls-1" d="M486.51,255.66h.86l3.63,8.91,3.34-8.91h.82L491,266.47q-.3.72-.56,1.24a2.14,2.14,0,0,1-.58.77,1.79,1.79,0,0,1-.9.37,11.47,11.47,0,0,1-1.38.07v-.63a4.7,4.7,0,0,0,1.22-.12,1.89,1.89,0,0,0,.82-.5,2.44,2.44,0,0,0,.44-.77q.23-.56.57-1.53Z"/><path class="cls-1" d="M266.68,294.25v-.38l9.14,4.48v.43l-9.14,4.46v-.36l8.82-4.32Z"/><path class="cls-1" d="M293.32,301.37a3.35,3.35,0,0,1-.8,1.05,3.53,3.53,0,0,1-1.15.67,4.3,4.3,0,0,1-1.45.23,4,4,0,0,1-1.75-.37,3.77,3.77,0,0,1-1.29-1,4.36,4.36,0,0,1-.79-1.47,5.81,5.81,0,0,1-.27-1.79,6.89,6.89,0,0,1,.26-1.92,4.76,4.76,0,0,1,.79-1.6,3.88,3.88,0,0,1,1.35-1.11,4.2,4.2,0,0,1,1.92-.41,3.91,3.91,0,0,1,1.24.2,3.38,3.38,0,0,1,1.06.58,3.18,3.18,0,0,1,.78.94,3.55,3.55,0,0,1,.41,1.31h-.36a3.37,3.37,0,0,0-.4-1.18,3,3,0,0,0-.7-.83,2.81,2.81,0,0,0-.94-.49,3.67,3.67,0,0,0-1.1-.16,3.81,3.81,0,0,0-1.86.42,3.5,3.5,0,0,0-1.22,1.1,4.65,4.65,0,0,0-.67,1.51,6.86,6.86,0,0,0-.21,1.65,5.37,5.37,0,0,0,.24,1.62,4.23,4.23,0,0,0,.71,1.37,3.4,3.4,0,0,0,1.17.94,3.58,3.58,0,0,0,1.62.35,3.86,3.86,0,0,0,1.28-.21,3.15,3.15,0,0,0,2.14-2.8h.36A4,4,0,0,1,293.32,301.37Z"/><path class="cls-1" d="M296.83,296.67a4.63,4.63,0,0,1,.8-1.54,4,4,0,0,1,1.3-1.07,3.83,3.83,0,0,1,1.8-.4,3.79,3.79,0,0,1,1.78.4,4,4,0,0,1,1.3,1.07,4.65,4.65,0,0,1,.8,1.54,6.33,6.33,0,0,1,0,3.65,4.64,4.64,0,0,1-.8,1.54,3.94,3.94,0,0,1-1.3,1.06,3.9,3.9,0,0,1-1.8.4,3.86,3.86,0,0,1-1.78-.4,3.94,3.94,0,0,1-1.3-1.06,4.62,4.62,0,0,1-.8-1.54,6.31,6.31,0,0,1,0-3.65Zm.33,3.52a4.28,4.28,0,0,0,.73,1.43,3.61,3.61,0,0,0,1.2,1,3.52,3.52,0,0,0,1.65.37,3.48,3.48,0,0,0,1.63-.37,3.61,3.61,0,0,0,1.2-1,4.3,4.3,0,0,0,.73-1.43,5.85,5.85,0,0,0,.24-1.69,5.79,5.79,0,0,0-.24-1.67,4.3,4.3,0,0,0-.73-1.43,3.71,3.71,0,0,0-1.2-1,3.42,3.42,0,0,0-1.63-.38,3.45,3.45,0,0,0-1.65.38,3.71,3.71,0,0,0-1.2,1,4.28,4.28,0,0,0-.73,1.43,5.79,5.79,0,0,0-.24,1.67A5.85,5.85,0,0,0,297.17,300.19Z"/><path class="cls-1" d="M308.55,293.87v2.29h0a3.27,3.27,0,0,1,.41-1,3.13,3.13,0,0,1,1.68-1.32,3.86,3.86,0,0,1,1.24-.19,3.9,3.9,0,0,1,1.32.22,2.9,2.9,0,0,1,1,.64,2.86,2.86,0,0,1,.68,1,3.9,3.9,0,0,1,.24,1.43v6.14h-.36V297a3.6,3.6,0,0,0-.23-1.38,2.58,2.58,0,0,0-.64-.94,2.54,2.54,0,0,0-.94-.54,3.65,3.65,0,0,0-1.12-.17,3.22,3.22,0,0,0-1.46.31,3.09,3.09,0,0,0-1.05.85,3.69,3.69,0,0,0-.64,1.23,5,5,0,0,0-.22,1.48v5.24h-.36v-9.25Z"/><path class="cls-1" d="M320,301.32a2.22,2.22,0,0,0,.12.81,1,1,0,0,0,.3.43.78.78,0,0,0,.4.17l.43,0h.49a1,1,0,0,0,.31,0v.36l-.31,0-.57,0a1.61,1.61,0,0,1-1.07-.37,1.71,1.71,0,0,1-.44-1.36v-7.16h-1.69v-.36h1.69V291H320v2.92h2.09v.36H320Z"/><path class="cls-1" d="M325.38,295.52a2.78,2.78,0,0,1,.67-1,3.12,3.12,0,0,1,1.08-.65,4.37,4.37,0,0,1,1.5-.23,5.18,5.18,0,0,1,1.16.13,2.49,2.49,0,0,1,1,.44,2.3,2.3,0,0,1,.67.82,3,3,0,0,1,.27,1.26v5.89a.6.6,0,0,0,.11.4.54.54,0,0,0,.29.17,1.33,1.33,0,0,0,.39,0l.39,0v.36h-.54a1.26,1.26,0,0,1-.69-.19.78.78,0,0,1-.3-.71V301h0a2.88,2.88,0,0,1-.46.86,3.35,3.35,0,0,1-.79.74,4.07,4.07,0,0,1-1.09.51,4.5,4.5,0,0,1-1.33.19,3.72,3.72,0,0,1-2.25-.62,2.16,2.16,0,0,1-.85-1.86,3,3,0,0,1,.28-1.39,2.2,2.2,0,0,1,.73-.82,2.89,2.89,0,0,1,1-.41,8.47,8.47,0,0,1,1.15-.15l1.64-.1a5.06,5.06,0,0,0,1.13-.18,1.22,1.22,0,0,0,.65-.41,1.33,1.33,0,0,0,.21-.8,5.49,5.49,0,0,0-.07-.86,1.88,1.88,0,0,0-.35-.83,2,2,0,0,0-.82-.62,3.62,3.62,0,0,0-1.46-.24,3.32,3.32,0,0,0-2.27.71,2.8,2.8,0,0,0-.9,2h-.36A3.7,3.7,0,0,1,325.38,295.52Zm5.92,2.17a1.12,1.12,0,0,1-.56.39,4.58,4.58,0,0,1-.86.21,9.17,9.17,0,0,1-1.05.09l-1.11.05a8.63,8.63,0,0,0-1.05.14,2.48,2.48,0,0,0-.91.36,1.84,1.84,0,0,0-.63.72,2.64,2.64,0,0,0-.23,1.2,2.37,2.37,0,0,0,.13.78,1.67,1.67,0,0,0,.46.68,2.52,2.52,0,0,0,.84.49,3.71,3.71,0,0,0,1.27.19,4,4,0,0,0,1.6-.31,3.62,3.62,0,0,0,1.18-.8,3.31,3.31,0,0,0,.72-1.14,3.76,3.76,0,0,0,.24-1.33v-1.71Z"/><path class="cls-1" d="M342.66,301.37a3.35,3.35,0,0,1-.8,1.05,3.53,3.53,0,0,1-1.15.67,4.3,4.3,0,0,1-1.45.23,4,4,0,0,1-1.75-.37,3.77,3.77,0,0,1-1.29-1,4.36,4.36,0,0,1-.79-1.47,5.81,5.81,0,0,1-.27-1.79,6.89,6.89,0,0,1,.26-1.92,4.76,4.76,0,0,1,.79-1.6,3.88,3.88,0,0,1,1.35-1.11,4.2,4.2,0,0,1,1.92-.41,3.91,3.91,0,0,1,1.24.2,3.38,3.38,0,0,1,1.06.58,3.18,3.18,0,0,1,.78.94,3.55,3.55,0,0,1,.41,1.31h-.36a3.37,3.37,0,0,0-.4-1.18,3,3,0,0,0-.7-.83,2.81,2.81,0,0,0-.94-.49,3.67,3.67,0,0,0-1.1-.16,3.81,3.81,0,0,0-1.86.42,3.5,3.5,0,0,0-1.22,1.1,4.65,4.65,0,0,0-.67,1.51,6.86,6.86,0,0,0-.21,1.65,5.37,5.37,0,0,0,.24,1.62,4.23,4.23,0,0,0,.71,1.37,3.4,3.4,0,0,0,1.17.94,3.58,3.58,0,0,0,1.62.35,3.86,3.86,0,0,0,1.28-.21,3.15,3.15,0,0,0,2.14-2.8H343A4,4,0,0,1,342.66,301.37Z"/><path class="cls-1" d="M347.38,301.32a2.22,2.22,0,0,0,.12.81,1,1,0,0,0,.3.43.78.78,0,0,0,.4.17l.43,0h.49a1,1,0,0,0,.31,0v.36l-.31,0-.57,0a1.61,1.61,0,0,1-1.07-.37,1.71,1.71,0,0,1-.44-1.36v-7.16h-1.69v-.36H347V291h.36v2.92h2.09v.36h-2.09Z"/><line class="cls-2" x1="312.62" y1="392.21" x2="312.62" y2="418.5"/><polyline class="cls-2" points="345.29 402.79 312.62 434.2 279.94 402.79"/><path class="cls-3" d="M279.77,496q-57.18,8.69-108.69-1.39a213.4,213.4,0,0,1-92.35-42.24q-40.82-32.16-63.48-94.81Q-7.1,295.71,3.57,244.47a212,212,0,0,1,43.82-92q33.14-40.71,82.67-70.58A586.54,586.54,0,0,1,345.12,4.16Q402.28-4.55,453.8,5.54a216.15,216.15,0,0,1,92.92,42.51q41.39,32.43,63.75,94.23,22.65,62.65,11.41,113.64a217.68,217.68,0,0,1-44.4,91.69q-33.16,40.72-82.66,70.58a586.62,586.62,0,0,1-103.7,49.47A586.49,586.49,0,0,1,279.77,496Z"/></g></g></svg>