<svg xmlns="http://www.w3.org/2000/svg" viewBox="0 0 301.5 26.27"><defs><style>.cls-1{fill:#fff;}</style></defs><title>Asset 5</title><g id="Layer_2" data-name="Layer 2"><g id="レイヤー_1" data-name="レイヤー 1"><path class="cls-1" d="M.29,1.29,3.42,4.43,6.56,1.29l.28.28L3.7,4.71,6.83,7.84l-.28.28L3.42,5,.28,8.13,0,7.85,3.15,4.71,0,1.57ZM.71,5.42A.71.71,0,0,1,.71,4a.71.71,0,0,1,0,1.43ZM2.71,2a.71.71,0,1,1,.71.71A.72.72,0,0,1,2.71,2ZM4.13,7.42a.71.71,0,1,1-.71-.71A.72.72,0,0,1,4.13,7.42ZM6.13,4a.71.71,0,1,1-.71.71A.72.72,0,0,1,6.13,4Z"/><path class="cls-1" d="M17,1.32l.21.14a.17.17,0,0,1-.09.06,8.94,8.94,0,0,1-2.53,2.55A12.65,12.65,0,0,0,18.82,6a.87.87,0,0,0-.18.24,13.87,13.87,0,0,1-1.45-.47V9.05H16.9V8.6h-5v.48H11.6V5.69a13.56,13.56,0,0,1-1.51.51.72.72,0,0,0-.15-.27,14.42,14.42,0,0,0,4.21-1.87,9.35,9.35,0,0,1-2-2,9.94,9.94,0,0,1-1.89,1.42A2.18,2.18,0,0,0,10,3.32a9.52,9.52,0,0,0,3.26-3l.39.16A.19.19,0,0,1,13.5.5a8.74,8.74,0,0,1-.64.85H17Zm0,4.34a13.3,13.3,0,0,1-2.64-1.44,15,15,0,0,1-2.73,1.44ZM11.88,8.32h5V6h-5Zm.72-6.68-.27.27a9.07,9.07,0,0,0,2,2,8.7,8.7,0,0,0,2.36-2.27Z"/><path class="cls-1" d="M21.69,1h8.43v.29H26V2.7h2.22V7H23.52V2.7h2.21V1.31h-4Zm7.89,7.12V2.62l.43,0s0,.09-.14.1V9h-.29V8.43h-7.3v.65H22V2.62l.43,0s0,.09-.14.1v5.4ZM23.8,3V4.7h1.93V3Zm0,2V6.71h1.93V5ZM28,4.7V3H26V4.7Zm0,2V5H26V6.71Z"/><path class="cls-1" d="M34.39,3.15a11.87,11.87,0,0,1-1.25,2A1,1,0,0,0,33,4.92,13.71,13.71,0,0,0,35.18.42l.41.12c0,.06-.08.09-.18.09a16.05,16.05,0,0,1-.77,2l.17,0s0,.08-.14.09V9.09h-.29Zm4.77,1.09a9.61,9.61,0,0,0,.63,1.67A14.1,14.1,0,0,0,41.5,4.64l.34.22a.19.19,0,0,1-.15,0,19.68,19.68,0,0,1-1.8,1.22,5.26,5.26,0,0,0,2,2.25,1.48,1.48,0,0,0-.23.25,7.3,7.3,0,0,1-2.83-4.38h-.22a5.65,5.65,0,0,1-.68.47,3.87,3.87,0,0,1,1.4,2.84c0,.92-.38,1.54-1.38,1.54l-.83,0a.62.62,0,0,0-.09-.28c.34,0,.67,0,.86,0,.37,0,1.15,0,1.15-1.28A3.06,3.06,0,0,0,39,6.79a11,11,0,0,1-3.56,2.13,1.12,1.12,0,0,0-.21-.26,9.65,9.65,0,0,0,3.67-2.19,4,4,0,0,0-.42-.82A10.06,10.06,0,0,1,35.66,7.2a1,1,0,0,0-.23-.27,8.82,8.82,0,0,0,2.88-1.5,3.68,3.68,0,0,0-.57-.59,13.45,13.45,0,0,1-2.21,1,1.58,1.58,0,0,0-.21-.24,10.51,10.51,0,0,0,2.84-1.32H36V2.56a8.45,8.45,0,0,1-.7.59A.82.82,0,0,0,35.07,3,7.71,7.71,0,0,0,37.37.36l.43.06c0,.06-.06.09-.16.09-.09.15-.19.31-.3.49h2.24a.28.28,0,0,0,.14,0l.23.17a.11.11,0,0,1-.09,0,6.45,6.45,0,0,1-.74,1h2.4v2ZM36.29,2.49V4H38.6V2.49Zm2.48-.29a5.7,5.7,0,0,0,.69-.92H37.13a8.42,8.42,0,0,1-.77.92ZM41.23,4V2.49H38.88V4Z"/><path class="cls-1" d="M45.58,8.56a8.48,8.48,0,0,1-.44-3.16A24.64,24.64,0,0,1,45.68.87l.53.13c0,.08-.09.15-.25.15a20.5,20.5,0,0,0-.52,4.26,9.69,9.69,0,0,0,.12,2c.26-.71.7-1.72.93-2.22l.29.13A15,15,0,0,0,45.74,8a1,1,0,0,0,.13.47Zm3.86-5.42c.31,0,.76,0,1.07,0,0-.87-.07-1.62-.09-2.33L51,.8c0,.1-.1.16-.25.19,0,.62,0,1.28.07,2.09a8,8,0,0,0,2-.42L52.9,3a8.55,8.55,0,0,1-2.07.4c0,1.2.1,2.47.12,3.07A7.47,7.47,0,0,1,53,7.74l-.2.26A6.36,6.36,0,0,0,51,6.78c0,1-.07,1.92-1.43,1.92-1.07,0-1.83-.46-1.83-1.26s1-1.29,1.83-1.29a3.93,3.93,0,0,1,1.13.18c0-.67-.1-1.83-.14-2.93-.31,0-.76,0-1.07,0H47.9V3.14Zm1.24,3.52a3.62,3.62,0,0,0-1.14-.21c-.66,0-1.52.24-1.52,1s.68,1,1.53,1S50.68,8,50.68,7Z"/><path class="cls-1" d="M59,7.59h-2.1v.9h-.29V4.56A7.09,7.09,0,0,1,55.88,6l-.22-.17a12.11,12.11,0,0,0,1.48-4.62H55.8V.9h3.6v.29h-2a18.83,18.83,0,0,1-.56,2.55H59ZM58.7,4H56.88V7.3H58.7Zm5.82.42v.29H63.16V9.09h-.29V4.72H61A5.21,5.21,0,0,1,59,9.1a1.22,1.22,0,0,0-.24-.19,5,5,0,0,0,2-4.18H59.33V4.44h1.38V1.14h-1V.86h4.63v.29H63.16v3.3ZM61,4.44h1.88V1.14H61Z"/><path class="cls-1" d="M73.93,8.48c0,.21.06.25.36.25h1.06c.3,0,.35-.18.38-1.51a1.09,1.09,0,0,0,.28.13C76,8.71,75.9,9,75.38,9H74.28c-.49,0-.64-.09-.64-.54V5.81h-2.5c-.38,1.55-1.25,2.7-3.54,3.28a1,1,0,0,0-.17-.24c2.15-.53,3-1.59,3.4-3H68V5.52h2.9A11.7,11.7,0,0,0,71.12,4l.45,0c0,.06-.07.09-.16.11,0,.48-.11.92-.19,1.35h2.72ZM70.65,1.93s-.07.09-.15.1a3.17,3.17,0,0,1-2.77,2.74,1,1,0,0,0-.17-.23,3,3,0,0,0,2.65-2.65Zm-2.55-.18V3h-.29V1.46h3.79V.32l.43,0s0,.09-.14.1v1h3.86V3h-.29V1.75Zm4.58.09.43,0s0,.09-.14.1V4c0,.19.07.24.51.24h1.69c.3,0,.35-.07.38-.6a1,1,0,0,0,.28.12c0,.61-.14.77-.62.77H73.5c-.64,0-.81-.08-.81-.53Z"/><path class="cls-1" d="M81.78,1V7.13H79.56v.72h-.29V1Zm-.29.29H79.56V3.9h1.93ZM79.56,6.85h1.93V4.18H79.56Zm5.35-3.32h2.73v.29H82V3.53h2.68V1.92H82.42V1.64h2.21V.35l.43,0s0,.09-.14.1V1.64h2.25v.29H84.92Zm1.56.66s0,.09-.14.1v1h1.28v.29H86.33V8.62c0,.27-.08.37-.3.43a10.65,10.65,0,0,1-1.52,0,1,1,0,0,0-.12-.28h.81c.84,0,.86,0,.86-.21V5.56H82V5.28h4V4.15ZM84.16,8.09a8.16,8.16,0,0,0-1.35-1.78L83,6.16A7.61,7.61,0,0,1,84.4,7.91Z"/><path class="cls-1" d="M95.18,1.71a.19.19,0,0,1-.21.14c-.3,2.76-1.32,5.82-2.85,5.82-.64,0-1.34-.76-1.34-2.17A4.14,4.14,0,0,1,95,1.32a3.46,3.46,0,0,1,3.83,3.55c0,2.28-1.41,3.33-3.64,3.8L95,8.39c2.21-.42,3.5-1.49,3.5-3.5A3.17,3.17,0,0,0,95,1.62h-.15Zm-.49-.09a3.86,3.86,0,0,0-3.62,3.88c0,1.17.57,1.85,1.06,1.85C93.42,7.36,94.39,4.5,94.68,1.63Z"/><path class="cls-1" d="M105.37,4.62V7.08c0,.57.3,1,1.08,1h1.83A9.62,9.62,0,0,0,109.47,8c0,.09,0,.25,0,.31-.33,0-.89,0-1.2,0h-1.83a1.22,1.22,0,0,1-1.39-1.31V4.62h-2.84v-.3h2.84V1.56h-2.14v-.3H109v.3h-3.65V4.32h4.55v.3Z"/><path class="cls-1" d="M114,3.16a10.75,10.75,0,0,1,.74,2.07l-.27.07a10.38,10.38,0,0,0-.73-2Zm5.77,0c0,.07-.09.08-.17.08-.72,2.76-2.05,4.49-4.46,5.46l-.17-.23c2.43-1,3.64-2.58,4.38-5.42Zm-3.43-.46a13.25,13.25,0,0,1,.43,2.2l-.27,0A11.81,11.81,0,0,0,116,2.74Z"/><path class="cls-1" d="M130.25,2.28a.48.48,0,0,1-.09.1,10,10,0,0,1-5.22,6.46,1,1,0,0,0-.2-.24,9.6,9.6,0,0,0,5.06-6.13H126A9.73,9.73,0,0,1,123.78,5a1.76,1.76,0,0,0-.24-.2A10.05,10.05,0,0,0,126.62.56l.47.18c0,.1-.15.11-.25.1a12.62,12.62,0,0,1-.67,1.34H130l.07,0Z"/><path class="cls-1" d="M141.68,1.41s-.06,0-.08.06a7.16,7.16,0,0,1-2.42,3,1.21,1.21,0,0,0-.24-.21,6.14,6.14,0,0,0,2.23-2.69H133.9v-.3h7.4l.08,0Zm-3.76,1.65c0,.07-.08.12-.19.14-.3,2.35-1.06,4.48-3.05,5.6a1.72,1.72,0,0,0-.23-.22c2-1.12,2.7-3.18,3-5.58Z"/><path class="cls-1" d="M145.31,3.16A10.75,10.75,0,0,1,146,5.23l-.27.07a10.38,10.38,0,0,0-.73-2Zm5.77,0c0,.07-.09.08-.17.08-.72,2.76-2.05,4.49-4.46,5.46l-.17-.23c2.43-1,3.64-2.58,4.38-5.42Zm-3.43-.46a13.25,13.25,0,0,1,.43,2.2l-.27,0a11.81,11.81,0,0,0-.44-2.17Z"/><path class="cls-1" d="M153.46,1.78h6.16l.36.31a.12.12,0,0,1-.08.06c-.71,3.57-2.4,5.54-5.31,6.62a2.41,2.41,0,0,0-.18-.26c2.89-1.06,4.49-2.9,5.18-6.42h-6.13ZM160.67,0a1,1,0,0,1,1,1.06,1.05,1.05,0,0,1-2.1,0A1,1,0,0,1,160.67,0Zm.76,1.06a.77.77,0,1,0-.76.77A.77.77,0,0,0,161.43,1.06Z"/><path class="cls-1" d="M164.59,1H173v.29h-4.11V2.7h2.22V7h-4.72V2.7h2.21V1.31h-4Zm7.89,7.12V2.62l.43,0s0,.09-.14.1V9h-.29V8.43h-7.3v.65h-.29V2.62l.43,0s0,.09-.14.1v5.4ZM166.7,3V4.7h1.93V3Zm0,2V6.71h1.93V5Zm4.15-.29V3h-1.94V4.7Zm0,2V5h-1.94V6.71Z"/><path class="cls-1" d="M184.6,1.36h-4a.18.18,0,0,1-.16.07,15.32,15.32,0,0,1-.45,1.5h4.15V9.09h-.29V8.55H177v.54h-.29V2.93h3a15.21,15.21,0,0,0,.46-1.57h-4V1.07h8.43ZM177,3.21v5h1.94v-5Zm4.54,1.47V3.21h-2.32V4.69Zm0,1.75V5h-2.32V6.44Zm-2.32.29V8.26h2.32V6.72Zm4.64,1.54v-5h-2v5Z"/><path class="cls-1" d="M187.79,1.7c.75,0,6.63-.5,7.79-.47v.32l-.4,0a2.87,2.87,0,0,0-1.51.42c-1.68,1-3.13,2.65-3.13,4,0,1.5.91,2.4,3.46,2.78l-.12.29c-2.7-.43-3.66-1.35-3.66-3.07,0-1.46,1.49-3.19,3.45-4.34-1,.06-4.17.29-5.66.42a.29.29,0,0,1-.19.14Zm6,1.61a7.33,7.33,0,0,1,1.38,1.34l-.22.18a6.6,6.6,0,0,0-1.35-1.33Zm1-.83a6.88,6.88,0,0,1,1.38,1.34l-.22.18a6.88,6.88,0,0,0-1.35-1.33Z"/><path class="cls-1" d="M198.79,2.16c.78,0,3.49-.1,4.66-.15,0-.16-.06-1.57-.06-1.59l.57,0c0,.09-.07.16-.25.19,0,.3,0,.87,0,1.37,1.11,0,2.32-.07,3.17-.08v.32c-.89,0-2.06,0-3.16.06,0,.81,0,1.29.08,2.13a3.31,3.31,0,0,1,.1,1c0,.9-.08,2.5-2.8,3.62l-.2-.26c1.75-.65,2.54-1.63,2.7-2.76h0a1.48,1.48,0,0,1-1.3.72,1.56,1.56,0,0,1-1.53-1.62,1.71,1.71,0,0,1,1.63-1.73,1.5,1.5,0,0,1,1.07.4c0-.06,0-.1,0-.14,0-.21,0-.77,0-1.35-1.31,0-3.66.12-4.66.16Zm4.81,3c0-.67-.12-1.46-1.14-1.46a1.35,1.35,0,0,0-1.35,1.43,1.24,1.24,0,0,0,1.25,1.3A1.23,1.23,0,0,0,203.6,5.18Z"/><path class="cls-1" d="M212.74,7.75a1.33,1.33,0,1,1-1.33-1.33A1.34,1.34,0,0,1,212.74,7.75Zm-.29,0a1,1,0,1,0-1,1A1,1,0,0,0,212.45,7.75Z"/><path class="cls-1" d="M12.81,24.29A10.38,10.38,0,0,0,12.57,26a2.47,2.47,0,0,0,0,.28h-.3a2.38,2.38,0,0,1,0-.28,9.22,9.22,0,0,1,.2-1.52l1-5.18c.39-2.16,1.42-2.81,2.55-2.81A1.51,1.51,0,0,1,17.58,18a2.24,2.24,0,0,1-1.41,2v0a1.86,1.86,0,0,1,1.57,1.87,2.45,2.45,0,0,1-2.62,2.36A2.57,2.57,0,0,1,13,23.38H13Zm2.09-4.07,0-.29c1.91,0,2.3-1.24,2.3-1.9a1.21,1.21,0,0,0-1.31-1.27c-1.25,0-1.9,1-2.2,2.61l-.67,3.51A2.4,2.4,0,0,0,15.16,24a2.17,2.17,0,0,0,2.24-2c0-1.08-1-1.75-2.15-1.75Z"/><path class="cls-1" d="M22.29,19.29v.94c0,.26,0,.51,0,.78h2.15V24.4h-.29V21.29H22.27a10.79,10.79,0,0,1-.66,3.64,1.58,1.58,0,0,0-.28-.14A12.12,12.12,0,0,0,22,20.24V16.33l.43,0s0,.09-.14.1V19h1.43V16.16l.43,0s0,.08-.14.09V19h1.3v.29ZM29.48,19l.18.09a.1.1,0,0,1-.06.07,9,9,0,0,1-1.46,3.75,5.27,5.27,0,0,0,1.95,1.76,1.27,1.27,0,0,0-.22.24A5.75,5.75,0,0,1,28,23.16a6.09,6.09,0,0,1-2.14,1.76.84.84,0,0,0-.19-.23,5.65,5.65,0,0,0,2.17-1.78,10.57,10.57,0,0,1-1.35-3.29l.26-.07A10.52,10.52,0,0,0,28,22.68a8.51,8.51,0,0,0,1.31-3.35H25.93a12,12,0,0,1-1,5.6.72.72,0,0,0-.25-.16,11.33,11.33,0,0,0,1-5.4V16.63h4.41v.29H25.93V19h3.49Z"/><path class="cls-1" d="M34,21.63V17.07l.5,0c0,.07-.08.13-.2.14v4.38Zm5.07-4.92c0,.09-.08.13-.2.14v3.06c0,2-.69,3.77-3.47,4.78a1.14,1.14,0,0,0-.2-.25c2.72-1,3.37-2.65,3.37-4.54V16.68Z"/><path class="cls-1" d="M43.89,21.63V17.07l.5,0c0,.07-.08.13-.2.14v4.38ZM49,16.72c0,.09-.08.13-.2.14v3.06c0,2-.69,3.77-3.47,4.78a1.14,1.14,0,0,0-.2-.25c2.72-1,3.37-2.65,3.37-4.54V16.68Z"/><path class="cls-1" d="M52.94,20.22h7.94v.31H53.27a.36.36,0,0,1-.28.17Z"/><path class="cls-1" d="M69,17.35a.12.12,0,0,1-.09.07,15.18,15.18,0,0,1-2,3.37,35,35,0,0,1,3.7,3.42l-.26.2A33.14,33.14,0,0,0,66.68,21a14.6,14.6,0,0,1-3.87,3.39,1.62,1.62,0,0,0-.22-.24,14.54,14.54,0,0,0,5.87-6.65H63.52v-.3H68.6l.08,0Z"/><path class="cls-1" d="M75.11,16.85c0,.11-.13.15-.33.13a23.6,23.6,0,0,0-.49,4.35,12.49,12.49,0,0,0,.16,2.25c.23-.6.66-1.72.8-2.08l.29.11c-.44,1.16-.69,1.72-.82,2.12a1.56,1.56,0,0,0-.08.44.84.84,0,0,0,0,.28l-.3.09A9.64,9.64,0,0,1,74,21.35a25.45,25.45,0,0,1,.54-4.63Zm6.3,6.85-1,0a12.71,12.71,0,0,1-1.87-.11c-1.06-.16-1.62-.77-1.62-1.5a2.88,2.88,0,0,1,.94-1.79l.26.17a2.48,2.48,0,0,0-.88,1.61c0,.55.46,1.07,1.39,1.22a11.19,11.19,0,0,0,1.64.11c.37,0,.76,0,1.14,0ZM77,18.13a29.3,29.3,0,0,0,4.22-.37l0,.31a34,34,0,0,1-4.25.37Z"/><path class="cls-1" d="M92.65,17.91v6.43c0,.33-.09.47-.36.53a12.32,12.32,0,0,1-1.77.06,1.9,1.9,0,0,0-.13-.33l1.1,0c.86,0,.88,0,.88-.27V18.19h-7v6.74H85v-7h2.64a14.14,14.14,0,0,0,.75-1.77l.43.12a.17.17,0,0,1-.17.09c-.17.44-.44,1.08-.69,1.57Zm-1.94,5H87.2v.72h-.29V19.83h3.79Zm-.29-2.8H87.2v2.52h3.22Z"/><path class="cls-1" d="M97.44,16.91c0,.08-.09.14-.25.15a21.13,21.13,0,0,0-.49,4.12A8.54,8.54,0,0,0,96.84,23c.24-.48.79-1.55,1.12-2.19l.27.14a23.86,23.86,0,0,0-1.12,2.28.94.94,0,0,0-.06.3,1,1,0,0,0,.09.4l-.3.1a7.82,7.82,0,0,1-.44-2.88,24.8,24.8,0,0,1,.5-4.39Zm4.29-.49.56,0c0,.1-.1.16-.24.19,0,.57.09,1.64.12,2.48a10.86,10.86,0,0,0,2-.31l0,.33a14.13,14.13,0,0,1-2.06.29c0,.28,0,.61,0,.9,0,2.07-.44,3.51-2.31,4.38a1,1,0,0,0-.21-.24c1.8-.84,2.22-2.15,2.22-4.12,0-.3,0-.65,0-.91-.67,0-1.88.08-2.8.08v-.3c.93,0,2.06,0,2.79-.08Z"/><path class="cls-1" d="M114.62,23.35v.3h-7.89v-.3H112c.17-1.32.49-4,.6-5.38h-4.78v-.3h4.92l.07,0,.24.13a.15.15,0,0,1-.11.07c-.1,1.27-.43,4.09-.61,5.51Z"/><path class="cls-1" d="M117.06,20.22H125v.31h-7.61a.36.36,0,0,1-.28.17Z"/><path class="cls-1" d="M136.16,19.07H134v.82a4.72,4.72,0,0,1-3.09,4.76,1.7,1.7,0,0,0-.22-.23,4.46,4.46,0,0,0,3-4.52v-.84H130.2V21.6h-.3V19.07h-2v-.3h2V16.6l.51,0c0,.09-.09.15-.21.16v2h3.51V16.47l.5,0a.2.2,0,0,1-.2.15v2.1h2.15Zm-1.55-2.25a6.93,6.93,0,0,1,1.24,1.49l-.23.16A7.56,7.56,0,0,0,134.39,17Zm.92-.78a6.93,6.93,0,0,1,1.24,1.5l-.23.16a7.62,7.62,0,0,0-1.23-1.47Z"/><path class="cls-1" d="M139,20.22h7.94v.31h-7.61a.36.36,0,0,1-.28.17Z"/><path class="cls-1" d="M157.45,16.85a.2.2,0,0,1-.14.07l-.12,0a22.43,22.43,0,0,1-2.79,2.36l.16.1s-.08.08-.15.09v5.2h-.3V19.46a27.72,27.72,0,0,1-3.95,2.37,2.3,2.3,0,0,0-.18-.25,25.79,25.79,0,0,0,7.09-5Z"/><path class="cls-1" d="M161.1,17.31A11,11,0,0,1,164,18.63l-.17.26A11.24,11.24,0,0,0,161,17.56Zm.16,6.7c3.48-1.09,5.76-3,6.93-5.65a1.3,1.3,0,0,0,.27.16,10.81,10.81,0,0,1-6.82,5.69.32.32,0,0,1-.11.2Z"/><path class="cls-1" d="M178,18a.11.11,0,0,1-.09.07,11.86,11.86,0,0,1-1.45,3.26,15.37,15.37,0,0,1,1.35.87l-.19.26a13.15,13.15,0,0,0-1.32-.87,9.22,9.22,0,0,1-3.59,3.13.83.83,0,0,0-.23-.22A9.22,9.22,0,0,0,176,21.42a17,17,0,0,0-2.44-1.11l.15-.27a18,18,0,0,1,2.46,1.12,10.92,10.92,0,0,0,1.36-3h-3.65a10,10,0,0,1-2.3,2.79,2.29,2.29,0,0,0-.23-.21,10.8,10.8,0,0,0,3.07-4.41l.47.13c0,.09-.11.11-.23.1-.15.36-.4.9-.61,1.3h3.59l.08,0Z"/><path class="cls-1" d="M181.5,20.22h7.94v.31h-7.61a.36.36,0,0,1-.28.17Z"/><path class="cls-1" d="M197.6,17.57a.13.13,0,0,1-.08.06,8.2,8.2,0,0,1-5.75,6.85,2.49,2.49,0,0,0-.18-.26,7.89,7.89,0,0,0,5.58-6.45H190.6v-.3h6.67l.07,0Z"/><path class="cls-1" d="M206.91,19.13v.29h-2.46v4.13h3v.28h-6.29v-.28h3V19.42H201.7v-.29Z"/><path class="cls-1" d="M210.1,20.22H218v.31h-7.61a.36.36,0,0,1-.28.17Z"/><path class="cls-1" d="M226.12,17.35a.12.12,0,0,1-.09.07,15.18,15.18,0,0,1-2,3.37,35,35,0,0,1,3.7,3.42l-.26.2A33.14,33.14,0,0,0,223.84,21,14.6,14.6,0,0,1,220,24.41a1.62,1.62,0,0,0-.22-.24,14.54,14.54,0,0,0,5.87-6.65h-4.93v-.3h5.08l.08,0Z"/><path class="cls-1" d="M231.49,24.4a8.48,8.48,0,0,1-.44-3.16,24.64,24.64,0,0,1,.54-4.54l.53.13c0,.08-.09.15-.25.15a20.5,20.5,0,0,0-.52,4.26,9.69,9.69,0,0,0,.12,2c.26-.71.7-1.72.93-2.22l.29.13a15,15,0,0,0-1.06,2.73,1,1,0,0,0,.13.47ZM235.35,19c.31,0,.76,0,1.07,0,0-.87-.07-1.62-.09-2.33l.57,0c0,.1-.1.16-.25.19,0,.62,0,1.28.07,2.09a8,8,0,0,0,2-.42l.08.31a8.55,8.55,0,0,1-2.07.4c0,1.2.1,2.47.12,3.07a7.47,7.47,0,0,1,2.05,1.29l-.2.26a6.36,6.36,0,0,0-1.84-1.22c0,1-.07,1.92-1.43,1.92-1.07,0-1.83-.46-1.83-1.26s1-1.29,1.83-1.29a3.93,3.93,0,0,1,1.13.18c0-.67-.1-1.83-.14-2.93-.31,0-.76,0-1.07,0h-1.54V19Zm1.24,3.52a3.62,3.62,0,0,0-1.14-.21c-.66,0-1.52.24-1.52,1s.68,1,1.53,1,1.14-.38,1.14-1.37Z"/><path class="cls-1" d="M245.65,19.73h-3v5.21h-.29v-8.3h3.33Zm-.29-2.8h-2.76V18h2.76Zm-2.76,2.52h2.76V18.3h-2.76Zm6.3,3h-1.55v2.33h-.29V22.4h-1.83a3.14,3.14,0,0,1-1.37,2.43.89.89,0,0,0-.22-.21A2.75,2.75,0,0,0,245,22.4h-1.46v-.29H245V20.74h-1.24v-.29h4.92v.29h-1.3v1.38h1.55Zm-3.65-.29h1.82V20.74h-1.82Zm4.89-5.48v7.74c0,.29-.08.43-.3.48a8,8,0,0,1-1.43.06,1.23,1.23,0,0,0-.12-.31h.87c.67,0,.7,0,.7-.23V19.73h-3.13V16.64Zm-.29.29H247V18h2.84ZM247,19.45h2.84V18.3H247Z"/><path class="cls-1" d="M257.21,16.62l.21.13a.14.14,0,0,1-.08.07,7.76,7.76,0,0,1-3.83,3.9,1.61,1.61,0,0,0-.2-.24,7.37,7.37,0,0,0,2.25-1.55,12.4,12.4,0,0,0-1.4-1.21l.19-.17a13.25,13.25,0,0,1,1.41,1.18,6.07,6.07,0,0,0,1.21-1.8H254.1v-.29h3.05Zm1.86,7.61c0,.27.08.32.47.32H261c.36,0,.41-.2.45-1.36a.68.68,0,0,0,.28.13c0,1.21-.13,1.51-.71,1.51h-1.48c-.6,0-.77-.1-.77-.62V22.16h-2.22c-.11,1.08-.64,2.09-2.65,2.82a.87.87,0,0,0-.19-.23c1.92-.68,2.42-1.62,2.55-2.6h-2.4v-.29h2.41c0-.11,0-.22,0-.33V20.07h-1.25v-.29h5.44v.29h-1.43v1.8h2.56v.29h-2.56Zm-2.47-2.69c0,.11,0,.22,0,.33h2.2v-1.8H256.6Zm4.22-5.08s-.08,0-.14,0a17.07,17.07,0,0,1-1.57,1.32,8.49,8.49,0,0,0,.83,1,12.93,12.93,0,0,0,1.7-1.46l.32.23s-.08,0-.14,0a16.84,16.84,0,0,1-1.7,1.37,6.57,6.57,0,0,0,2.13,1.37,1.58,1.58,0,0,0-.2.24,8,8,0,0,1-4-4.29l.24-.09a7.56,7.56,0,0,0,.73,1.4,12.89,12.89,0,0,0,1.53-1.4Z"/><path class="cls-1" d="M269.39,18h3.67v4.26h-.29v-.62h-3.38v3.3h-.29v-3.3h-3.37v.67h-.29V18h3.66V16.18l.43,0s0,.09-.14.1Zm-3.66,3.36h3.38V18.25h-3.37Zm3.66,0h3.38V18.25h-3.38Z"/><path class="cls-1" d="M276.55,17.55c.75,0,6.63-.5,7.79-.47v.32l-.4,0a2.87,2.87,0,0,0-1.51.42c-1.68,1-3.13,2.65-3.13,4,0,1.5.91,2.4,3.46,2.78l-.12.29c-2.7-.43-3.66-1.35-3.66-3.07,0-1.46,1.49-3.19,3.45-4.34-1,.06-4.17.29-5.66.42a.29.29,0,0,1-.19.14Zm6,1.61A7.33,7.33,0,0,1,284,20.49l-.22.18a6.6,6.6,0,0,0-1.35-1.33Zm1-.83a6.88,6.88,0,0,1,1.38,1.34l-.22.18a6.88,6.88,0,0,0-1.35-1.33Z"/><path class="cls-1" d="M287.55,18c.78,0,3.49-.1,4.66-.15,0-.16-.06-1.57-.06-1.59l.57,0c0,.09-.07.16-.25.19,0,.3,0,.87,0,1.37,1.11,0,2.32-.07,3.17-.08v.32c-.89,0-2.06,0-3.16.06,0,.81,0,1.29.08,2.13a3.31,3.31,0,0,1,.1,1c0,.9-.08,2.5-2.8,3.62l-.2-.26c1.75-.65,2.54-1.63,2.7-2.76h0a1.48,1.48,0,0,1-1.3.72A1.56,1.56,0,0,1,289.56,21a1.71,1.71,0,0,1,1.63-1.73,1.5,1.5,0,0,1,1.07.4c0-.06,0-.1,0-.14,0-.21,0-.77,0-1.35-1.31,0-3.66.12-4.66.16Zm4.81,3c0-.67-.12-1.46-1.14-1.46A1.35,1.35,0,0,0,289.87,21a1.24,1.24,0,0,0,1.25,1.3A1.23,1.23,0,0,0,292.36,21Z"/><path class="cls-1" d="M301.5,23.59a1.33,1.33,0,1,1-1.33-1.33A1.34,1.34,0,0,1,301.5,23.59Zm-.29,0a1,1,0,1,0-1,1A1,1,0,0,0,301.21,23.59Z"/></g></g></svg>