<svg xmlns="http://www.w3.org/2000/svg" viewBox="0 0 81.96 13.49"><defs><style>.cls-1{fill:#fff;}.cls-2{fill:none;stroke:#fff;stroke-miterlimit:10;stroke-width:0.25px;}</style></defs><title>company_title_small</title><g id="Layer_2" data-name="Layer 2"><g id="レイヤー_1" data-name="レイヤー 1"><path class="cls-1" d="M24.12,8.78a4.38,4.38,0,0,1-.9,1.31,4,4,0,0,1-1.31.85,4.5,4.5,0,0,1-1.71.31,4.3,4.3,0,0,1-1.83-.39A4.23,4.23,0,0,1,16.95,9.8,5,5,0,0,1,16,8.18a6.13,6.13,0,0,1-.34-2.06,7,7,0,0,1,.26-1.85,5.23,5.23,0,0,1,.82-1.71,4.35,4.35,0,0,1,1.46-1.26A4.47,4.47,0,0,1,20.39.79a4.25,4.25,0,0,1,1.74.33,4.07,4.07,0,0,1,1.24.83A3.59,3.59,0,0,1,24.11,3a2.73,2.73,0,0,1,.27,1H24.1A2.69,2.69,0,0,0,23.77,3,3.34,3.34,0,0,0,23,2a3.87,3.87,0,0,0-1.15-.68,4.49,4.49,0,0,0-3.56.24,4.24,4.24,0,0,0-1.36,1.25,5.11,5.11,0,0,0-.75,1.63A6.57,6.57,0,0,0,16,6.11a6,6,0,0,0,.28,1.83,4.68,4.68,0,0,0,.83,1.55,4.12,4.12,0,0,0,1.34,1.08,3.88,3.88,0,0,0,1.8.41,4.2,4.2,0,0,0,1.61-.29A3.74,3.74,0,0,0,23,9.88a4.11,4.11,0,0,0,.84-1.23,5.55,5.55,0,0,0,.43-1.54h.28A5.94,5.94,0,0,1,24.12,8.78Z"/><path class="cls-1" d="M27.48,6a3.62,3.62,0,0,1,.62-1.2,3.15,3.15,0,0,1,1-.83,3.24,3.24,0,0,1,2.79,0,3.16,3.16,0,0,1,1,.83A3.6,3.6,0,0,1,33.55,6a4.91,4.91,0,0,1,0,2.84,3.6,3.6,0,0,1-.62,1.2,3.08,3.08,0,0,1-1,.83,3,3,0,0,1-1.4.31,3,3,0,0,1-1.39-.31,3.08,3.08,0,0,1-1-.83,3.62,3.62,0,0,1-.62-1.2,4.91,4.91,0,0,1,0-2.84Zm.26,2.74a3.35,3.35,0,0,0,.57,1.11,2.81,2.81,0,0,0,.93.77,3,3,0,0,0,2.55,0,2.82,2.82,0,0,0,.93-.77,3.35,3.35,0,0,0,.57-1.11,4.55,4.55,0,0,0,.19-1.32,4.51,4.51,0,0,0-.19-1.3A3.35,3.35,0,0,0,32.72,5a2.89,2.89,0,0,0-.93-.78,2.91,2.91,0,0,0-2.55,0,2.89,2.89,0,0,0-.93.78,3.35,3.35,0,0,0-.57,1.11,4.51,4.51,0,0,0-.19,1.3A4.55,4.55,0,0,0,27.74,8.74Z"/><path class="cls-1" d="M37.16,3.83V5.61h0a2.67,2.67,0,0,1,.31-.77A2.53,2.53,0,0,1,38,4.22a2.37,2.37,0,0,1,.68-.41,2.12,2.12,0,0,1,.79-.15,2.06,2.06,0,0,1,1.41.43,2.17,2.17,0,0,1,.75,1.25h0a2.23,2.23,0,0,1,.83-1.22,2.36,2.36,0,0,1,1.46-.46,2.65,2.65,0,0,1,1.09.2,1.81,1.81,0,0,1,.7.54,2.09,2.09,0,0,1,.38.83,4.72,4.72,0,0,1,.11,1.07V11h-.28V6.29a4.73,4.73,0,0,0-.09-1,1.85,1.85,0,0,0-.32-.74,1.5,1.5,0,0,0-.62-.48,2.45,2.45,0,0,0-1-.17,2.11,2.11,0,0,0-1.65.76,2.46,2.46,0,0,0-.45.81,3,3,0,0,0-.15,1V11h-.28V6.41a5.57,5.57,0,0,0-.08-1A2.15,2.15,0,0,0,41,4.67a1.48,1.48,0,0,0-.59-.53,2.13,2.13,0,0,0-1-.2,1.93,1.93,0,0,0-1,.25,2.3,2.3,0,0,0-.74.66,3.12,3.12,0,0,0-.46,1A4,4,0,0,0,37.16,7V11h-.28V3.83Z"/><path class="cls-1" d="M49.73,13.49V3.83H50v2h0A3.17,3.17,0,0,1,50.44,5a3.07,3.07,0,0,1,.63-.69,2.71,2.71,0,0,1,.83-.46,3.11,3.11,0,0,1,1-.16,2.86,2.86,0,0,1,1.28.28,2.8,2.8,0,0,1,1,.78,3.6,3.6,0,0,1,.61,1.19,5.33,5.33,0,0,1,0,2.94,3.83,3.83,0,0,1-.59,1.2,2.73,2.73,0,0,1-2.28,1.12A2.92,2.92,0,0,1,51,10.59,2.87,2.87,0,0,1,50,9h0v4.48Zm4.46-2.89A2.7,2.7,0,0,0,55,9.79a3.57,3.57,0,0,0,.5-1.12,5,5,0,0,0,.16-1.25,4.89,4.89,0,0,0-.17-1.32A3.57,3.57,0,0,0,55,5a2.48,2.48,0,0,0-.87-.76,2.56,2.56,0,0,0-1.22-.28,2.66,2.66,0,0,0-1.23.28,2.72,2.72,0,0,0-.92.76,3.44,3.44,0,0,0-.57,1.11A4.45,4.45,0,0,0,50,7.41a3.8,3.8,0,0,0,.8,2.6,2.68,2.68,0,0,0,2.11.9A2.42,2.42,0,0,0,54.19,10.6Z"/><path class="cls-1" d="M59.4,5.11a2.16,2.16,0,0,1,.53-.76,2.44,2.44,0,0,1,.84-.5,3.4,3.4,0,0,1,1.17-.18,4.06,4.06,0,0,1,.9.1,1.94,1.94,0,0,1,.75.34,1.8,1.8,0,0,1,.52.64,2.31,2.31,0,0,1,.21,1V10.3a.47.47,0,0,0,.08.31.42.42,0,0,0,.22.13,1.05,1.05,0,0,0,.3,0l.3,0V11h-.42a1,1,0,0,1-.54-.15.6.6,0,0,1-.23-.55V9.39h0a2.25,2.25,0,0,1-.36.67,2.6,2.6,0,0,1-.62.57,3.14,3.14,0,0,1-.85.4,3.49,3.49,0,0,1-1,.15,2.89,2.89,0,0,1-1.75-.48,1.68,1.68,0,0,1-.66-1.45A2.28,2.28,0,0,1,59,8.17a1.71,1.71,0,0,1,.57-.64,2.24,2.24,0,0,1,.8-.32,6.63,6.63,0,0,1,.9-.12L62.5,7a3.92,3.92,0,0,0,.88-.14,1,1,0,0,0,.5-.32A1,1,0,0,0,64,5.93,4.28,4.28,0,0,0,64,5.26a1.46,1.46,0,0,0-.27-.64,1.58,1.58,0,0,0-.64-.48,2.81,2.81,0,0,0-1.13-.19,2.59,2.59,0,0,0-1.76.55,2.18,2.18,0,0,0-.7,1.56h-.28A2.88,2.88,0,0,1,59.4,5.11ZM64,6.8a.88.88,0,0,1-.43.3,3.53,3.53,0,0,1-.67.16,7.07,7.07,0,0,1-.82.07l-.86,0a6.66,6.66,0,0,0-.82.1,1.94,1.94,0,0,0-.71.28,1.44,1.44,0,0,0-.49.56,2.06,2.06,0,0,0-.18.93,1.83,1.83,0,0,0,.11.61,1.28,1.28,0,0,0,.36.53,1.94,1.94,0,0,0,.65.38,2.88,2.88,0,0,0,1,.15,3.09,3.09,0,0,0,1.25-.24,2.81,2.81,0,0,0,.92-.62,2.55,2.55,0,0,0,.56-.89,2.93,2.93,0,0,0,.19-1V6.8Z"/><path class="cls-1" d="M68.18,3.83V5.61h0a2.55,2.55,0,0,1,.31-.77,2.43,2.43,0,0,1,1.31-1,3,3,0,0,1,1-.15,3,3,0,0,1,1,.17,2.19,2.19,0,0,1,1.34,1.31,3,3,0,0,1,.19,1.11V11h-.28V6.29a2.8,2.8,0,0,0-.18-1.07,2,2,0,0,0-.5-.73,2,2,0,0,0-.73-.42,2.85,2.85,0,0,0-.87-.13,2.5,2.5,0,0,0-1.13.25,2.41,2.41,0,0,0-.82.66,2.88,2.88,0,0,0-.5,1A3.91,3.91,0,0,0,68.18,7V11H67.9V3.83Z"/><path class="cls-1" d="M82,3.83l-3.32,8.65a1.66,1.66,0,0,1-.34.57,1.29,1.29,0,0,1-.43.3,1.7,1.7,0,0,1-.53.12l-.61,0v-.28l.62,0a1.26,1.26,0,0,0,.45-.11.94.94,0,0,0,.34-.28,2,2,0,0,0,.27-.51L78.93,11l-3-7.13h.29l2.86,6.82,2.58-6.82Z"/><line class="cls-2" y1="6.04" x2="4.79" y2="6.04"/><polyline class="cls-2" points="1.93 0.09 7.65 6.04 1.93 11.99"/></g></g></svg>