<svg xmlns="http://www.w3.org/2000/svg" viewBox="0 0 600.01 269.72"><defs><style>.cls-1{fill:#fff;}.cls-2{fill:none;stroke:#fff;stroke-miterlimit:10;stroke-width:0.5px;}</style></defs><title>Asset 2</title><g id="Layer_2" data-name="Layer 2"><g id="レイヤー_1" data-name="レイヤー 1"><path class="cls-1" d="M228.81,28.58a11,11,0,0,1-2.26,3.27A9.94,9.94,0,0,1,223.28,34a11.24,11.24,0,0,1-4.27.77,10.76,10.76,0,0,1-4.57-1,10.59,10.59,0,0,1-3.57-2.66,12.37,12.37,0,0,1-2.33-4.06,15.32,15.32,0,0,1-.84-5.16,17.5,17.5,0,0,1,.65-4.64,13.12,13.12,0,0,1,2-4.29A10.87,10.87,0,0,1,214,9.83a11.16,11.16,0,0,1,5.42-1.23,10.64,10.64,0,0,1,4.34.82,10.13,10.13,0,0,1,3.1,2.07,9,9,0,0,1,1.87,2.64,6.81,6.81,0,0,1,.67,2.56h-.7a6.77,6.77,0,0,0-.8-2.68A8.31,8.31,0,0,0,226,11.65a9.67,9.67,0,0,0-2.87-1.7,11.22,11.22,0,0,0-8.89.59,10.58,10.58,0,0,0-3.41,3.12A12.81,12.81,0,0,0,209,17.74a16.48,16.48,0,0,0-.58,4.17,15,15,0,0,0,.7,4.58,11.69,11.69,0,0,0,2.06,3.89,10.33,10.33,0,0,0,3.34,2.69,9.7,9.7,0,0,0,4.5,1,10.5,10.5,0,0,0,4-.73,9.32,9.32,0,0,0,3.08-2,10.28,10.28,0,0,0,2.1-3.08,13.81,13.81,0,0,0,1.08-3.85h.7A14.9,14.9,0,0,1,228.81,28.58Z"/><path class="cls-1" d="M237.21,21.65a9,9,0,0,1,1.56-3,7.87,7.87,0,0,1,2.54-2.08,8.09,8.09,0,0,1,7,0,7.88,7.88,0,0,1,2.54,2.08,9.05,9.05,0,0,1,1.56,3,12.29,12.29,0,0,1,0,7.1,9,9,0,0,1-1.56,3,7.41,7.41,0,0,1-6,2.83,7.51,7.51,0,0,1-3.47-.77,7.66,7.66,0,0,1-2.54-2.07,9,9,0,0,1-1.56-3,12.29,12.29,0,0,1,0-7.1Zm.65,6.84a8.38,8.38,0,0,0,1.42,2.78,7,7,0,0,0,2.33,1.92,6.85,6.85,0,0,0,3.2.72A6.78,6.78,0,0,0,248,33.2a7,7,0,0,0,2.33-1.92,8.38,8.38,0,0,0,1.42-2.78,11.4,11.4,0,0,0,.47-3.29,11.28,11.28,0,0,0-.47-3.25,8.38,8.38,0,0,0-1.42-2.78A7.23,7.23,0,0,0,248,17.22a6.65,6.65,0,0,0-3.17-.73,6.72,6.72,0,0,0-3.2.73,7.23,7.23,0,0,0-2.33,1.94,8.38,8.38,0,0,0-1.42,2.78,11.28,11.28,0,0,0-.47,3.25A11.4,11.4,0,0,0,237.86,28.49Z"/><path class="cls-1" d="M261.4,16.2v4.45h.07a6.66,6.66,0,0,1,.77-1.93,6.33,6.33,0,0,1,1.29-1.54,5.92,5.92,0,0,1,1.7-1,5.32,5.32,0,0,1,2-.37,5.15,5.15,0,0,1,3.52,1.07A5.41,5.41,0,0,1,272.6,20h.07a5.56,5.56,0,0,1,2.07-3,5.9,5.9,0,0,1,3.64-1.16,6.65,6.65,0,0,1,2.73.49,4.53,4.53,0,0,1,1.75,1.35,5.27,5.27,0,0,1,.95,2.06,11.87,11.87,0,0,1,.28,2.68V34.19h-.7V22.36a11.83,11.83,0,0,0-.23-2.42,4.65,4.65,0,0,0-.81-1.85,3.76,3.76,0,0,0-1.54-1.19,6.11,6.11,0,0,0-2.43-.42,5.26,5.26,0,0,0-4.13,1.89,6.19,6.19,0,0,0-1.12,2,7.43,7.43,0,0,0-.38,2.4V34.19H272V22.64a14.09,14.09,0,0,0-.19-2.38,5.38,5.38,0,0,0-.72-2A3.71,3.71,0,0,0,269.66,17a5.33,5.33,0,0,0-2.45-.49,4.83,4.83,0,0,0-2.42.61A5.76,5.76,0,0,0,263,18.74a7.76,7.76,0,0,0-1.16,2.4,10.09,10.09,0,0,0-.4,2.87V34.19h-.7v-18Z"/><path class="cls-1" d="M292.83,40.35V16.2h.7v5h.07a8,8,0,0,1,1-2.19,7.69,7.69,0,0,1,1.58-1.73,6.8,6.8,0,0,1,2.08-1.14,7.78,7.78,0,0,1,2.54-.4,7.14,7.14,0,0,1,3.2.7,7,7,0,0,1,2.42,2,9,9,0,0,1,1.52,3,13.33,13.33,0,0,1,0,7.35,9.53,9.53,0,0,1-1.47,3,6.84,6.84,0,0,1-5.69,2.8,7.31,7.31,0,0,1-4.73-1.49,7.18,7.18,0,0,1-2.48-3.94h-.07v11.2ZM304,33.13a6.75,6.75,0,0,0,2.15-2,8.94,8.94,0,0,0,1.24-2.8,12.51,12.51,0,0,0,.4-3.13,12.21,12.21,0,0,0-.44-3.31A8.9,8.9,0,0,0,306,19.09a6.21,6.21,0,0,0-2.17-1.91,6.41,6.41,0,0,0-3.06-.7,6.65,6.65,0,0,0-3.08.7,6.81,6.81,0,0,0-2.29,1.89A8.61,8.61,0,0,0,294,21.84a11.12,11.12,0,0,0-.49,3.33q0,4.23,2,6.49a6.71,6.71,0,0,0,5.29,2.26A6,6,0,0,0,304,33.13Z"/><path class="cls-1" d="M317,19.41a5.41,5.41,0,0,1,1.31-1.91,6.08,6.08,0,0,1,2.1-1.26,8.51,8.51,0,0,1,2.92-.46,10.09,10.09,0,0,1,2.26.25,4.85,4.85,0,0,1,1.87.86,4.5,4.5,0,0,1,1.29,1.59,5.76,5.76,0,0,1,.53,2.45V32.37a1.16,1.16,0,0,0,.21.77,1,1,0,0,0,.56.33,2.61,2.61,0,0,0,.75.07l.75-.05v.7h-1a2.46,2.46,0,0,1-1.35-.37,1.51,1.51,0,0,1-.58-1.38V30.1h-.07a5.58,5.58,0,0,1-.89,1.68,6.49,6.49,0,0,1-1.54,1.44,7.89,7.89,0,0,1-2.12,1,8.74,8.74,0,0,1-2.59.37A7.23,7.23,0,0,1,317,33.37a4.2,4.2,0,0,1-1.65-3.62,5.72,5.72,0,0,1,.54-2.7,4.27,4.27,0,0,1,1.42-1.59,5.6,5.6,0,0,1,2-.81,16.45,16.45,0,0,1,2.24-.3l3.19-.19a9.86,9.86,0,0,0,2.19-.35A2.37,2.37,0,0,0,328.2,23a2.58,2.58,0,0,0,.4-1.56,10.71,10.71,0,0,0-.14-1.68,3.66,3.66,0,0,0-.68-1.61A3.92,3.92,0,0,0,326.18,17a7,7,0,0,0-2.83-.47,6.47,6.47,0,0,0-4.41,1.38,5.45,5.45,0,0,0-1.75,3.9h-.7A7.19,7.19,0,0,1,317,19.41Zm11.51,4.22a2.19,2.19,0,0,1-1.08.75,8.83,8.83,0,0,1-1.68.4,17.7,17.7,0,0,1-2,.17q-1.1,0-2.15.11a16.72,16.72,0,0,0-2,.26,4.85,4.85,0,0,0-1.77.7,3.58,3.58,0,0,0-1.23,1.4,5.13,5.13,0,0,0-.46,2.33,4.6,4.6,0,0,0,.26,1.52,3.23,3.23,0,0,0,.89,1.33,4.87,4.87,0,0,0,1.63.94,7.19,7.19,0,0,0,2.47.37,7.72,7.72,0,0,0,3.12-.6,7,7,0,0,0,2.29-1.56,6.42,6.42,0,0,0,1.4-2.22,7.31,7.31,0,0,0,.47-2.59V23.62Z"/><path class="cls-1" d="M339,16.2v4.45H339a6.35,6.35,0,0,1,.79-1.93,6.09,6.09,0,0,1,3.27-2.57,7.49,7.49,0,0,1,2.42-.37,7.58,7.58,0,0,1,2.57.42,5.49,5.49,0,0,1,3.36,3.27,7.59,7.59,0,0,1,.47,2.78V34.19h-.7V22.36a7,7,0,0,0-.46-2.68,5,5,0,0,0-1.24-1.82,4.91,4.91,0,0,0-1.82-1,7.09,7.09,0,0,0-2.19-.33,6.27,6.27,0,0,0-2.83.61,6,6,0,0,0-2,1.65,7.22,7.22,0,0,0-1.24,2.4A9.7,9.7,0,0,0,339,24V34.19h-.7v-18Z"/><path class="cls-1" d="M373.4,16.2,365.1,37.83a4.2,4.2,0,0,1-.84,1.42,3.21,3.21,0,0,1-1.08.75,4.26,4.26,0,0,1-1.31.3q-.72.05-1.52.05v-.7q.91,0,1.56-.05a3.16,3.16,0,0,0,1.12-.28,2.37,2.37,0,0,0,.84-.7,5.19,5.19,0,0,0,.68-1.28l1.3-3.32L358.35,16.2h.73l7.14,17,6.44-17Z"/><path class="cls-1" d="M2.77,125.72H0V112.32H2.77v.46H.57v12.46h2.2Z"/><path class="cls-1" d="M11.55,114.35s-.09.08-.15.09A14.55,14.55,0,0,1,9,118.07c.66.47,2.33,1.68,2.77,2l-.28.39c-.47-.39-1.77-1.38-2.55-1.93v6.52H8.52v-6.43A17.13,17.13,0,0,1,5.77,121a1.72,1.72,0,0,0-.33-.33,15.82,15.82,0,0,0,5.4-6.06H5.79v-.45H8.52v-2.92l.67.06c0,.08-.08.14-.22.15v2.71h2.14l.1,0Zm4.14,9.79h3.9v.45H11v-.45h4.23V117H11.59v-.45h3.65v-5.19l.67.06c0,.08-.08.14-.22.15v5h3.6V117h-3.6Z"/><path class="cls-1" d="M35.88,118.94v6.15h-.45v-.68H28v.65h-.45v-5.38a18.19,18.19,0,0,1-4.2,2,1.43,1.43,0,0,0-.25-.4,17.73,17.73,0,0,0,6-3.24,15.69,15.69,0,0,0-2.75-2.4l.35-.26a14.5,14.5,0,0,1,2.74,2.37A13.6,13.6,0,0,0,33,113.27H27.59a17,17,0,0,1-4,3.42,1.62,1.62,0,0,0-.33-.31,15.21,15.21,0,0,0,5.22-5.13l.7.1c0,.09-.12.15-.28.15a14.17,14.17,0,0,1-.95,1.32h5.31l.09,0,.33.19a.26.26,0,0,1-.13.09,14.82,14.82,0,0,1-4.89,5.88ZM28,124h7.39v-4.57H28Z"/><path class="cls-1" d="M40,112.32h2.77v13.39H40v-.46h2.2V112.79H40Z"/><path class="cls-1" d="M68.23,116.66c.48.57,1.8,2.37,2.1,2.82l-.31.4c-.3-.51-1.21-1.84-1.79-2.61V125h-.45v-8.62A19.82,19.82,0,0,1,65.33,122a1.32,1.32,0,0,0-.35-.36,19.43,19.43,0,0,0,2.69-6.49H65.3v-.45h2.47v-3.42l.67.06c0,.08-.07.14-.22.15v3.21h2.08v.45H68.23Zm10.62,1.5H75.17a14.27,14.27,0,0,0,4.1,4.93,2.11,2.11,0,0,0-.36.38,15.86,15.86,0,0,1-4-5.1V125h-.45V118.4A14.8,14.8,0,0,1,70,123.77a1.21,1.21,0,0,0-.33-.34,13.52,13.52,0,0,0,4.44-5.26H70.19v-.45h4.21v-3.15H71.84a12.07,12.07,0,0,1-1.08,2.52,2.35,2.35,0,0,0-.39-.19,15.51,15.51,0,0,0,1.71-5.1l.68.15c0,.09-.11.14-.27.14-.12.58-.29,1.3-.51,2h2.43v-2.87l.67.06c0,.08-.08.14-.22.15v2.66h3.55v.45H74.86v3.15h4Z"/><path class="cls-1" d="M96.15,114.81H91.33c.42,5.34,1.82,9.81,3.79,9.81.51,0,.72-.88.83-3a1.57,1.57,0,0,0,.42.21c-.13,2.44-.37,3.29-1.26,3.29-2.37,0-3.76-4.73-4.23-10.27H82.63v-.45h8.22c-.08-1-.12-2-.13-3l.71,0c0,.09-.08.15-.23.17,0,1,0,1.9.11,2.83h4.84Zm-9.39,3.27v5.22c1.2-.3,2.47-.6,3.71-.92l0,.39c-2.67.69-5.55,1.41-7.3,1.83a.25.25,0,0,1-.17.21l-.27-.58c.95-.21,2.19-.5,3.54-.83v-5.32H83.16v-.45h6.9v.45Zm6.16-6.69a14.53,14.53,0,0,1,2.43,2l-.33.34a14.63,14.63,0,0,0-2.43-2.07Z"/><path class="cls-1" d="M107.08,111.26c0,.09-.13.13-.24.17a19,19,0,0,0,6.78,5.55,1.47,1.47,0,0,0-.3.38,19.93,19.93,0,0,1-6.83-5.62,18.62,18.62,0,0,1-6.55,5.64c-.06-.09-.18-.24-.27-.34a17.09,17.09,0,0,0,6.58-5.82Zm-6.75,8.25v-.45H113v.45h-7.38l0,0a.34.34,0,0,1-.28.13,43.71,43.71,0,0,1-2.16,4.23c2.29-.06,5.13-.13,7.87-.23a23.39,23.39,0,0,0-2.62-2.68l.34-.21a21.78,21.78,0,0,1,3.75,4.09l-.37.25c-.21-.31-.46-.69-.78-1.08-3.83.17-8,.31-10.46.38,0,.12-.09.17-.19.2l-.21-.66,2.14,0a35.64,35.64,0,0,0,2.24-4.4Zm2.5-3.37h7.42v.45h-7.42Z"/><path class="cls-1" d="M122.65,114.35s-.09.08-.15.09a14.55,14.55,0,0,1-2.37,3.63c.66.47,2.33,1.68,2.77,2l-.28.39c-.47-.39-1.77-1.38-2.55-1.93v6.52h-.45v-6.43a17.13,17.13,0,0,1-2.75,2.38,1.72,1.72,0,0,0-.33-.33,15.82,15.82,0,0,0,5.4-6.06h-5.05v-.45h2.73v-2.92l.67.06c0,.08-.08.14-.22.15v2.71h2.14l.1,0Zm4.14,9.79h3.9v.45h-8.58v-.45h4.23V117h-3.65v-.45h3.65v-5.19l.67.06c0,.08-.08.14-.22.15v5h3.6V117h-3.6Z"/><path class="cls-1" d="M144.46,113.81v10H144v-.85H134v-.48h10v-8.16H134.2v-.48Z"/><path class="cls-1" d="M161,116.49a.22.22,0,0,1-.13.09c-1.14,4.5-3.79,6.72-8.26,7.92a3,3,0,0,0-.25-.44c4.29-1.08,6.87-3.23,8-7.29H149.83v-.48h10.72l.09-.06Zm-1.23-3.58h-8.52v-.48h8.52Z"/><path class="cls-1" d="M165.72,117.62h12.52v.49h-12a.57.57,0,0,1-.43.27Z"/><path class="cls-1" d="M182.65,116.12a24,24,0,0,1,4.17,1.32l-.2.46a24.66,24.66,0,0,0-4.15-1.32Zm1.25,7.59c5-1.77,8.4-4.53,10.33-9a3.28,3.28,0,0,0,.4.29c-2,4.53-5.46,7.33-10.14,9a.32.32,0,0,1-.13.34Zm.3-11.32a23.91,23.91,0,0,1,4.13,1.46l-.2.45a24.15,24.15,0,0,0-4.09-1.46Zm7.16-.51a12.89,12.89,0,0,1,2.07,2.24l-.36.27a13,13,0,0,0-2-2.23Zm1.95-1a12.87,12.87,0,0,1,2.07,2.23l-.36.27a13.42,13.42,0,0,0-2-2.22Z"/><path class="cls-1" d="M209.24,123v.45H199V123h6.3c.25-1.62.74-5.06.88-6.72h-6v-.45h6.13l.09,0,.42.24a.18.18,0,0,1-.15.08c-.2,1.68-.69,5.16-1,6.88Z"/><path class="cls-1" d="M219.32,118.14a1.27,1.27,0,1,1-1.27-1.27A1.27,1.27,0,0,1,219.32,118.14Z"/><path class="cls-1" d="M237.53,114.68l.46.31c0,.06-.11.09-.2.12a14,14,0,0,1-3.31,4.87,3.45,3.45,0,0,0-.36-.3,12.34,12.34,0,0,0,3.06-4.36l-6.87,1.8v4.24c0,1.68,1.17,2.21,2.42,2.21h2.52c.63,0,1.59-.06,2.19-.12v.5c-.58.06-1.64.1-2.15.1h-2.56c-1.56,0-2.9-.75-2.9-2.69v-4.11l-4.09,1.05-.13-.46,4.23-1.08V112l.81,0c0,.16-.15.22-.33.24v4.3l7.06-1.84Zm-1-.5a13.66,13.66,0,0,0-2-2.25l.33-.3a13.61,13.61,0,0,1,2,2.28Zm2-.81a12.45,12.45,0,0,0-2-2.25l.33-.3a11.67,11.67,0,0,1,2,2.28Z"/><path class="cls-1" d="M253.33,113.75v9.75h-.48v-1h-9.2v1.05h-.46v-9.79Zm-.48,8.26v-7.78h-9.2V122Z"/><path class="cls-1" d="M2.77,161.72H0V148.32H2.77v.46H.57v12.46h2.2Z"/><path class="cls-1" d="M12.54,155H7.73c0,1.71-.13,4.24-1.33,6a1.43,1.43,0,0,0-.36-.3c1.13-1.67,1.25-4,1.25-5.71v-4.35h5.26Zm.53-6.82v.45H6.45v-.45Zm-1,3H7.73v3.42h4.36Zm8.16,1.35v.45h-2v8.11h-.45v-8.11H14.27c0,2.46-.33,5.63-2.46,8.05a1.16,1.16,0,0,0-.35-.31c2.1-2.35,2.36-5.44,2.36-7.86v-3.92l.52.19a25.46,25.46,0,0,0,5-1.63l.49.4a.14.14,0,0,1-.12,0l-.11,0a32.41,32.41,0,0,1-5.33,1.63v3Z"/><path class="cls-1" d="M36.51,150.32H27.92A17.76,17.76,0,0,1,26,153.51l.12,0c0,.08-.08.12-.22.14v7.39h-.45v-6.84a13.91,13.91,0,0,1-2.08,2,3,3,0,0,0-.3-.33,12.35,12.35,0,0,0,2.38-2.37v-.17l.1,0a17.05,17.05,0,0,0,1.86-3.09H23.34v-.45h4.3a19.27,19.27,0,0,0,.93-2.61l.68.18c0,.09-.14.13-.29.13a20.49,20.49,0,0,1-.84,2.29h8.38Zm-4.45,9.93h4.48v.45H27.23v-.45h4.38v-5.19H27.84v-.45h3.76v-3.36l.67.06c0,.08-.08.13-.22.15v3.15h3.88v.45H32.06Z"/><path class="cls-1" d="M42.86,151.52v5.23l2-.85.11.4c-1.61.72-3.32,1.46-4.37,1.91a.23.23,0,0,1-.13.22l-.33-.55c.63-.24,1.41-.57,2.28-.93v-5.43H40.36v-.45h2.06v-3.68l.67.06c0,.08-.08.14-.23.15v3.47h1.89v.45Zm3.74,7.69c0,.79.24,1,1.35,1h4.44c1,0,1.12-.49,1.23-2.44a1.22,1.22,0,0,0,.45.21c-.12,2-.32,2.67-1.74,2.67H48c-1.44,0-1.87-.27-1.87-1.48v-5.79l-1.74.75-.19-.41,1.93-.82v-4.27l.67.06c0,.07-.08.13-.22.15v3.87l2.8-1.2v-4.27l.67.06c0,.07-.08.13-.22.15v3.87l3-1.3.12-.14.41.17a.33.33,0,0,1-.11.1,52.35,52.35,0,0,1-.19,6.13.85.85,0,0,1-.87.75c-.37,0-.93,0-1.29,0a1.69,1.69,0,0,0-.15-.46c.47,0,1.11,0,1.31,0s.48-.07.58-.51a48.48,48.48,0,0,0,.17-5.58l-3,1.27v6H49.4V152l-2.8,1.2Z"/><path class="cls-1" d="M56.74,148.32h2.77v13.39H56.74v-.46h2.2V148.79h-2.2Z"/><path class="cls-1" d="M83.82,149.19h10V150h-10Zm0,2.92h10v.82H89.29v6.75h-.9v-6.75H83.82Z"/><path class="cls-1" d="M101.32,159.84V149.27h0l-1.71,1.08-.2-.4,2-1.25h.51v11.14Z"/><path class="cls-1" d="M107.48,154.34c0-4.18,1.77-5.82,3.46-5.82s3.24,1.6,3.24,5.58-1.39,5.92-3.46,5.92C108,160,107.48,156.11,107.48,154.34Zm6.15-.13c0-3.09-.85-5.25-2.76-5.25-1.67,0-2.85,2.19-2.85,5.25,0,2,.58,5.38,2.77,5.38C112.82,159.59,113.63,157.14,113.63,154.2Z"/><path class="cls-1" d="M118.75,154.29a3.29,3.29,0,0,1,2.87-1.67,3.24,3.24,0,0,1,3.27,3.56c0,1.9-1.09,3.84-3.3,3.84-1.81,0-3.43-1.53-3.43-4.62,0-4.45,3-6.88,5.75-6.88V149a6.26,6.26,0,0,0-1.21.13c-2.27.52-3.77,2.91-4,5.13Zm5.58,1.92c0-2.07-1.25-3.15-2.82-3.15a3.06,3.06,0,0,0-2.81,2.44c0,1.81.75,4.08,3,4.08C123.27,159.59,124.33,158.16,124.33,156.21Z"/><path class="cls-1" d="M128.92,154.92h3.93v.56h-3.93Z"/><path class="cls-1" d="M137,154.34c0-4.18,1.77-5.82,3.46-5.82s3.24,1.6,3.24,5.58S142.3,160,140.23,160C137.53,160,137,156.11,137,154.34Zm6.15-.13c0-3.09-.85-5.25-2.76-5.25-1.67,0-2.85,2.19-2.85,5.25,0,2,.58,5.38,2.77,5.38C142.33,159.59,143.14,157.14,143.14,154.2Z"/><path class="cls-1" d="M147.78,154.34c0-4.18,1.77-5.82,3.46-5.82s3.24,1.6,3.24,5.58S153.09,160,151,160C148.32,160,147.78,156.11,147.78,154.34Zm6.15-.13c0-3.09-.85-5.25-2.76-5.25-1.67,0-2.85,2.19-2.85,5.25,0,2,.58,5.38,2.77,5.38C153.12,159.59,153.93,157.14,153.93,154.2Z"/><path class="cls-1" d="M161.39,153.75a3,3,0,0,1,2.47,3,3.21,3.21,0,0,1-3.55,3.27,4.48,4.48,0,0,1-2.48-.75l.3-.44a4,4,0,0,0,2.26.75,2.71,2.71,0,0,0,2.91-2.79c0-2-1.67-2.79-3.35-2.79h-.64v-.45H160c1.26,0,2.87-.77,2.87-2.42a2,2,0,0,0-2.19-2.19,3.31,3.31,0,0,0-2.1.84l-.29-.4a4,4,0,0,1,2.42-.87,2.45,2.45,0,0,1,2.71,2.56,2.84,2.84,0,0,1-2,2.64Z"/><path class="cls-1" d="M173.9,159.84h-6.3v-.35l.93-1c1.47-1.59,4.5-4.33,4.5-6.79,0-1.32-.54-2.73-2.47-2.73a3.47,3.47,0,0,0-2.31,1l-.26-.36a3.86,3.86,0,0,1,2.67-1.1,2.82,2.82,0,0,1,2.92,3c0,2.25-1.57,4.09-4.51,7l-.76.81v0h5.59Z"/><path class="cls-1" d="M196.45,156.42h-4.59a15.32,15.32,0,0,0,6.11,4,1.88,1.88,0,0,0-.32.38,16.82,16.82,0,0,1-6.34-4.33h0V161h-.45v-4.62h0a16.55,16.55,0,0,1-6.24,4.3,2,2,0,0,0-.33-.37,15.82,15.82,0,0,0,6-3.93h-4.32v-5.37h4.89v-1.71h-6.29v-.45h6.29v-1.62l.67.06c0,.07-.08.13-.23.15v1.41h6.44v.45h-6.44v1.71h5.17Zm-10.06-4.92v2h4.44v-2Zm0,2.45v2h4.44v-2ZM196,151.5h-4.73v2H196Zm0,4.47v-2h-4.73v2Z"/><path class="cls-1" d="M205.6,157.05c0,.09-.12.12-.27.12a12.86,12.86,0,0,1-3,3.27,1.6,1.6,0,0,0-.34-.29,10.57,10.57,0,0,0,3-3.3Zm3.22-7.72h6.42v.45H202.08v-.45h6.3v-2.1l.67.06c0,.08-.08.14-.23.15Zm4.52,6.34h-4.52v4.62c0,.42-.12.58-.5.67a16.23,16.23,0,0,1-2.68.07,2.21,2.21,0,0,0-.21-.42l1.47,0c1.46,0,1.47,0,1.47-.33v-4.63H204.1v-4.15h9.24Zm-8.79-3.7v3.25h8.34V152Zm10.24,8.55a28,28,0,0,0-3-3.42l.39-.19a29.62,29.62,0,0,1,3.06,3.36Z"/><path class="cls-1" d="M222.78,152.07h.95a18.87,18.87,0,0,0,2.7-4.21l.62.24c0,.09-.15.14-.3.12a18.61,18.61,0,0,1-2.44,3.85h2.58v.45h-3a17.92,17.92,0,0,1-2.1,2H226v6.21h-.45v-.65h-4.37v1h-.45v-5.68a17.85,17.85,0,0,1-1.6,1l-.33-.3a15.49,15.49,0,0,0,1.93-1.23v-.33h.45a18.67,18.67,0,0,0,2.19-2H218.9v-.45h3.44v-2.43h-2.7v-.45h2.7v-2l.67.06c0,.08-.08.14-.23.15v1.75H225v.45h-2.27Zm2.73,2.94h-4.26l-.11.07v2h4.37Zm-4.37,4.66h4.37v-2.1h-4.37Zm6.41-11.53h4.66l.09,0a2.83,2.83,0,0,1,.33.25.25.25,0,0,1-.14.08c-.63,1.29-1.53,3-2.43,4.6,1.74,1.54,2.55,2.77,2.55,3.94,0,2.1-1.38,2.1-2.4,2.1l-.81,0a1,1,0,0,0-.21-.48,11.21,11.21,0,0,0,1.19.06c.79,0,1.77,0,1.77-1.65,0-1.11-.85-2.29-2.64-3.87.92-1.62,1.75-3.24,2.37-4.53H228v12.46h-.46Z"/><path class="cls-1" d="M235.9,151.55a11.18,11.18,0,0,1,2.65,1.65l-.27.38a11,11,0,0,0-2.66-1.7Zm.17,9a45.85,45.85,0,0,0,2.52-5l.34.29a49.6,49.6,0,0,1-2.37,4.74.25.25,0,0,1,.06.17.2.2,0,0,1,0,.12Zm.61-13a10.48,10.48,0,0,1,2.58,1.8l-.29.36a11.33,11.33,0,0,0-2.58-1.85Zm12.95,5.19h-3.11a7.79,7.79,0,0,0,3.3,3.55,1.5,1.5,0,0,0-.33.36,8.88,8.88,0,0,1-3.42-3.92h-3.49a11.11,11.11,0,0,1-3.44,4,1.85,1.85,0,0,0-.33-.36,9.48,9.48,0,0,0,3.3-3.66h-3.16v-.45h2.94v-2.41h-2.25v-.45h2.25v-2.05l.67.06c0,.07-.08.13-.22.15v1.84h3.84v-2.05l.67.06c0,.07-.08.13-.22.15v1.84h2.59v.45h-2.59v2.41h3Zm-8.13,7.44c0,.41.19.5,1.26.5h4.09c.87,0,1-.24,1.08-1.9a1.51,1.51,0,0,0,.45.21c-.09,1.75-.3,2.15-1.52,2.15h-4c-1.38,0-1.77-.14-1.77-.95v-2.83h5.29v-2.18h-4.86v-.45h5.31v3.07H241.5Zm.84-10.3v2.41h3.84v-2.41Z"/><path class="cls-1" d="M266.76,159.6v.45H254.45v1H254V148.32h12.45v.45h-12V159.6Zm-2.54-9.72c0,.1-.2.12-.33.1a25.36,25.36,0,0,1-2.73,4,28.52,28.52,0,0,1,3.88,3.54l-.39.33a28.2,28.2,0,0,0-3.79-3.52,24,24,0,0,1-4.73,4.23c-.09-.07-.24-.21-.36-.3a22.5,22.5,0,0,0,4.74-4.2,45.17,45.17,0,0,0-4.08-2.82l.34-.28a43.88,43.88,0,0,1,4,2.76,25.83,25.83,0,0,0,2.78-4.09Z"/><path class="cls-1" d="M275.21,154.4c0,.09-.13.12-.29.12a22.78,22.78,0,0,1-4,6.48c-.09-.07-.24-.22-.34-.3a21.2,21.2,0,0,0,4-6.52Zm2.29-3.27H284v.45H270.7v-.45h6.36v-3.76l.67.06c0,.07-.07.13-.22.15Zm5.94,9.87a33.14,33.14,0,0,0-3.93-6.57l.41-.18a34.5,34.5,0,0,1,4,6.54Z"/><path class="cls-1" d="M301.32,151.19h-6a14.21,14.21,0,0,0,6.45,6.9,1.79,1.79,0,0,0-.32.36,15.11,15.11,0,0,1-6.48-7v6h3.34v.45h-3.34V161h-.45v-3.15h-3.37v-.45h3.38v-6a16.58,16.58,0,0,1-6.45,7,1.79,1.79,0,0,0-.31-.36,15.68,15.68,0,0,0,6.42-6.92h-6v-.45h6.33v-3.46l.67.06c0,.07-.08.13-.22.15v3.25h6.39Z"/><path class="cls-1" d="M318.84,151.68h-6.08a19.44,19.44,0,0,0,6.5,7.14,2.11,2.11,0,0,0-.36.38,20.88,20.88,0,0,1-6.4-7.11v9H312v-9a19,19,0,0,1-6.45,7.17,1.94,1.94,0,0,0-.34-.36,17.77,17.77,0,0,0,6.51-7.17h-6v-.45H312v-4l.67.06c0,.07-.08.13-.22.15v3.75h6.34Z"/><path class="cls-1" d="M335.17,148.7v.46h-4.06l-.58,3.9a9.34,9.34,0,0,1,1-.07c1.62,0,3.66.87,3.66,3.33A3.53,3.53,0,0,1,331.7,160a4.31,4.31,0,0,1-2.47-.75l.28-.44a4.88,4.88,0,0,0,2.21.75,3,3,0,0,0,3-3.13,2.85,2.85,0,0,0-3.18-3,8,8,0,0,0-1.56.14l.72-4.87Z"/><path class="cls-1" d="M339.53,154.92h3.93v.56h-3.93Z"/><path class="cls-1" d="M353.19,154.25a3.52,3.52,0,0,1-2.92,1.54,3.11,3.11,0,0,1-3.08-3.36c0-2.1,1.3-3.92,3.41-3.92,1.72,0,3.17,1.5,3.17,4.63,0,4.32-2.66,7-5.69,6.87v-.51a6.73,6.73,0,0,0,1.23-.1c1.75-.34,3.42-1.78,3.92-5.17Zm-5.45-1.86a2.68,2.68,0,0,0,2.6,3,3,3,0,0,0,2.89-2.11c0-2.06-.71-4.29-2.76-4.29C348.81,149,347.74,150.51,347.74,152.39Z"/><path class="cls-1" d="M357.79,154.92h3.93v.56h-3.93Z"/><path class="cls-1" d="M370.66,159.84h-6.3v-.35l.93-1c1.47-1.59,4.5-4.33,4.5-6.79,0-1.32-.54-2.73-2.47-2.73a3.47,3.47,0,0,0-2.31,1l-.25-.36a3.86,3.86,0,0,1,2.67-1.1,2.82,2.82,0,0,1,2.92,3c0,2.25-1.57,4.09-4.51,7l-.76.81v0h5.59Z"/><path class="cls-1" d="M374.46,154.34c0-4.18,1.77-5.82,3.46-5.82s3.24,1.6,3.24,5.58-1.39,5.92-3.46,5.92C375,160,374.46,156.11,374.46,154.34Zm6.15-.13c0-3.09-.85-5.25-2.76-5.25-1.67,0-2.85,2.19-2.85,5.25,0,2,.58,5.38,2.77,5.38C379.79,159.59,380.6,157.14,380.6,154.2Z"/><path class="cls-1" d="M2.77,197.72H0V184.32H2.77v.46H.57v12.46h2.2Z"/><path class="cls-1" d="M11.5,185.81v.45H5.9v-.45Zm-4.9,2.46v-.45H11v.45Zm0,2v-.45H11v.45ZM11,191.84v4.27H7v.79H6.6v-5.07Zm0-8v.45H6.69v-.45Zm-.41,8.43H7v3.37h3.5Zm2.87-8.05v1.41a4.19,4.19,0,0,1-2,3.77,1.66,1.66,0,0,0-.3-.35A3.76,3.76,0,0,0,13,185.64v-1.86h4.47v4.08c0,.27.06.33.41.33H19c.35,0,.39-.19.42-1.81a1.26,1.26,0,0,0,.44.2c0,1.68-.17,2.07-.79,2.07H17.82c-.66,0-.84-.13-.84-.78v-3.63Zm5.13,5.65.31.17a.18.18,0,0,1-.1.1,9.6,9.6,0,0,1-2.81,4.44,9.55,9.55,0,0,0,3.93,2,2.09,2.09,0,0,0-.32.4,10.45,10.45,0,0,1-4-2.14,11.73,11.73,0,0,1-4.18,2.16,1.19,1.19,0,0,0-.27-.4,11,11,0,0,0,4.13-2.07,10.28,10.28,0,0,1-2.53-4l.42-.13a9.75,9.75,0,0,0,2.44,3.88,9.16,9.16,0,0,0,2.61-3.93h-6.5v-.45h6.72Z"/><path class="cls-1" d="M23.66,195.86H37.18v.45H23.66Zm13.11-9.25v.45H24.2v-.45h5.94v-3.34l.67.06c0,.07-.07.13-.22.15v3.13Zm-10,1.47a22,22,0,0,1,1.56,6.67l-.45.06a22.78,22.78,0,0,0-1.53-6.64Zm8,0a.32.32,0,0,1-.3.18,56.64,56.64,0,0,1-2.07,7.06l-.38-.1a53.76,53.76,0,0,0,2-7.29Z"/><path class="cls-1" d="M53.85,193v.45H47.94v3.63h-.45v-3.63H40.2V193h2.61v-4.23h4.68v-2.92H43.25A13.8,13.8,0,0,1,40.71,189a2.33,2.33,0,0,0-.37-.26A14.57,14.57,0,0,0,44,183.2l.64.21c0,.1-.15.14-.29.12a17.26,17.26,0,0,1-.88,1.84h9.72v.45H47.94v2.92h5v.45h-5V193Zm-10.59,0h4.23V189.2H43.26Z"/><path class="cls-1" d="M68.26,184.14v12c0,.57-.18.79-.63.89a21.72,21.72,0,0,1-3.1.07,3.14,3.14,0,0,0-.21-.48l1.92,0c1.49,0,1.58,0,1.58-.5v-4h-8.2a9,9,0,0,1-2.71,5,1.38,1.38,0,0,0-.32-.35c2.61-2.35,2.89-5.61,2.89-8.2v-4.38Zm-8.34,4.17a19.79,19.79,0,0,1-.22,3.31h8.11v-3.31Zm7.89-3.72H59.92v3.27h7.89Z"/><path class="cls-1" d="M74.81,184.31h9.38v12.34h-.45v-.87H75.26v1h-.45Zm8.92.45H75.26v5h8.47Zm-8.47,10.57h8.47v-5.12H75.26Z"/><path class="cls-1" d="M88.81,184.32h2.77v13.39H88.81v-.46H91V184.79h-2.2Z"/><path class="cls-1" d="M120.51,195.84h-6.3v-.35l.93-1c1.47-1.59,4.5-4.33,4.5-6.79,0-1.32-.54-2.73-2.47-2.73a3.47,3.47,0,0,0-2.31,1l-.25-.36a3.86,3.86,0,0,1,2.67-1.1,2.82,2.82,0,0,1,2.92,3c0,2.25-1.57,4.09-4.51,7l-.76.81v0h5.59Z"/><path class="cls-1" d="M124.31,190.34c0-4.18,1.77-5.82,3.46-5.82s3.24,1.6,3.24,5.58-1.39,5.92-3.46,5.92C124.85,196,124.31,192.11,124.31,190.34Zm6.15-.13c0-3.09-.85-5.25-2.76-5.25-1.67,0-2.85,2.19-2.85,5.25,0,2,.58,5.38,2.77,5.38C129.65,195.59,130.46,193.14,130.46,190.2Z"/><path class="cls-1" d="M137.18,195.84V185.27h0l-1.71,1.08-.2-.4,2-1.25h.51v11.14Z"/><path class="cls-1" d="M143.85,190.29a3.29,3.29,0,0,1,2.87-1.67,3.24,3.24,0,0,1,3.27,3.56c0,1.9-1.09,3.84-3.3,3.84-1.81,0-3.43-1.53-3.43-4.62,0-4.45,3-6.88,5.75-6.88V185a6.26,6.26,0,0,0-1.21.13c-2.27.52-3.77,2.91-4,5.13Zm5.58,1.92c0-2.07-1.25-3.15-2.82-3.15a3.06,3.06,0,0,0-2.81,2.44c0,1.81.75,4.08,3,4.08C148.36,195.59,149.43,194.16,149.43,192.21Z"/><path class="cls-1" d="M167.55,193v.45h-5.91v3.63h-.45v-3.63H153.9V193h2.61v-4.23h4.68v-2.92h-4.25a13.8,13.8,0,0,1-2.54,3.17,2.33,2.33,0,0,0-.37-.26,14.57,14.57,0,0,0,3.69-5.53l.64.21c0,.1-.15.14-.29.12a17.26,17.26,0,0,1-.88,1.84h9.72v.45h-5.28v2.92h5v.45h-5V193ZM157,193h4.23V189.2H157Z"/><path class="cls-1" d="M173.79,195.84V185.27h0L172,186.35l-.2-.4,2-1.25h.51v11.14Z"/><path class="cls-1" d="M182.26,195.84V185.27h0l-1.71,1.08-.2-.4,2-1.25h.51v11.14Z"/><path class="cls-1" d="M199.26,184.14v12c0,.57-.18.79-.63.89a21.72,21.72,0,0,1-3.1.07,3.14,3.14,0,0,0-.21-.48l1.92,0c1.49,0,1.58,0,1.58-.5v-4h-8.2a9,9,0,0,1-2.71,5,1.38,1.38,0,0,0-.32-.35c2.61-2.35,2.89-5.61,2.89-8.2v-4.38Zm-8.34,4.17a19.79,19.79,0,0,1-.22,3.31h8.11v-3.31Zm7.89-3.72h-7.89v3.27h7.89Z"/><path class="cls-1" d="M206.92,195.84V185.27h0l-1.71,1.08-.2-.4,2-1.25h.51v11.14Z"/><path class="cls-1" d="M214.36,184.31h9.38v12.34h-.45v-.87h-8.47v1h-.45Zm8.92.45h-8.47v5h8.47Zm-8.47,10.57h8.47v-5.12h-8.47Z"/><path class="cls-1" d="M2.77,233.72H0V220.32H2.77v.46H.57v12.46h2.2Z"/><path class="cls-1" d="M7.75,223.67a20,20,0,0,1-2.39,3.17,3.26,3.26,0,0,0-.3-.35,21.31,21.31,0,0,0,4.32-7.09l.63.21c0,.11-.15.14-.29.12A24.14,24.14,0,0,1,8.1,223.1l.33.09c0,.08-.08.12-.23.14v9.73H7.75Zm11.35.26-5.26.61c.72,4.48,2.29,8.05,4.2,8.05.55,0,.78-.84.88-3a1.76,1.76,0,0,0,.42.19c-.15,2.42-.4,3.24-1.32,3.24-2.22,0-3.86-3.78-4.61-8.44l-4.23.5-.06-.42,4.23-.49a36.6,36.6,0,0,1-.41-4.84l.69,0c0,.1-.08.17-.24.18a35.27,35.27,0,0,0,.36,4.59L19,223.5Zm-3.75-4.27a21.31,21.31,0,0,1,2.94,2.25l-.31.29a20.51,20.51,0,0,0-2.92-2.29Z"/><path class="cls-1" d="M30.39,226a11.46,11.46,0,0,0,1.5,3.14,27.29,27.29,0,0,0,3.53-2.4l.5.3c0,.06-.12.09-.24.08a30.63,30.63,0,0,1-3.57,2.32A9.13,9.13,0,0,0,37,232.71a1.55,1.55,0,0,0-.3.39A9.92,9.92,0,0,1,30,226h0A13.63,13.63,0,0,1,27,228.2l.23,0c0,.06-.08.12-.23.14v3.75l4.82-.78,0,.39c-2.44.44-5.07.88-6.69,1.13a.21.21,0,0,1-.15.21l-.31-.6,1.86-.28v-3.73a19.56,19.56,0,0,1-3.21,1.42,1.88,1.88,0,0,0-.31-.37,17.91,17.91,0,0,0,6.33-3.5H23.24v-.45h6.5v-2H25v-.45h4.75v-1.85H24v-.45h5.7v-1.62l.67.06c0,.08-.08.14-.23.15v1.41h5.88v.45H30.18v1.85H35v.45H30.18v2h6.57V226Z"/><path class="cls-1" d="M47.86,220.58H46.34V233h-.45V229.7c-2,.33-3.95.66-5.21.84a.24.24,0,0,1-.18.2l-.24-.6,1.39-.19v-9.36H40.28v-.45h7.58Zm-2,2.65v-2.65H42.11v2.65Zm-3.78.45v2.69h3.78v-2.69Zm0,3.13v3.06l3.78-.57v-2.49Zm11.07-5.22.32.14a.18.18,0,0,1-.11.1,19.18,19.18,0,0,1-2.65,7.44,8.84,8.84,0,0,0,3.39,3.42,2.06,2.06,0,0,0-.34.38,9.41,9.41,0,0,1-3.32-3.37,11.79,11.79,0,0,1-3.39,3.36,1.46,1.46,0,0,0-.33-.36,11.22,11.22,0,0,0,3.46-3.44A22.24,22.24,0,0,1,48,222.38l.43-.07a21.51,21.51,0,0,0,2.07,6.52,18.54,18.54,0,0,0,2.42-6.75H47.37v-.45h5.71Z"/><path class="cls-1" d="M62.45,221.22a.33.33,0,0,1-.27.1A45.26,45.26,0,0,1,59,226.05l3.21-.06a15.84,15.84,0,0,0-1.12-1.75l.39-.18a13.86,13.86,0,0,1,1.77,3l-.42.21a7.94,7.94,0,0,0-.42-.91l-1.65.06v6.63h-.45v-6.6l-2.46.08a.24.24,0,0,1-.18.18l-.21-.65h1c.39-.47.83-1.05,1.26-1.67a14.5,14.5,0,0,0-2.07-2.33l.3-.24c.19.17.38.34.57.54a24.66,24.66,0,0,0,1.63-3.12l.6.29c0,.07-.12.1-.25.1a26.38,26.38,0,0,1-1.7,3A12.19,12.19,0,0,1,59.94,224a34.66,34.66,0,0,0,1.89-3.09Zm-5,10.26a13.36,13.36,0,0,0,1.11-3.72l.66.18c0,.09-.11.14-.27.14a13.35,13.35,0,0,1-1.11,3.61Zm5.14-.89a11,11,0,0,0-1-2.76l.39-.12a10.42,10.42,0,0,1,1,2.75ZM67.26,221h4v.45h-8V221h3.55v-1.71l.67.06c0,.08-.07.14-.22.15Zm-4,5.52v-2.21h7.86v2.21h-.45v-1.75h-7v1.75Zm7.06.58v3.79c0,.3-.06.45-.31.54a6.37,6.37,0,0,1-1.58.09,1.14,1.14,0,0,0-.18-.42h.92c.63,0,.71,0,.71-.21v-3.36H67.26V233h-.45v-5.53H64.34v4h-.45v-4.47h2.92v-1.71l.67.06c0,.07-.07.13-.22.15v1.5Zm-4.93-2.88a9.55,9.55,0,0,0-.87-2.37l.41-.13a9.26,9.26,0,0,1,.92,2.34Zm4.47-2.29a.32.32,0,0,1-.27.1,18,18,0,0,1-1.19,2.25l-.37-.18a16,16,0,0,0,1.19-2.44Z"/><path class="cls-1" d="M77.25,225.51a20.44,20.44,0,0,1-2.14,2.13,2.29,2.29,0,0,0-.35-.31,19.69,19.69,0,0,0,4.14-4.79l.61.26a.28.28,0,0,1-.28.1A20.79,20.79,0,0,1,77.71,225l.23.07a.27.27,0,0,1-.24.14V233h-.45Zm1.75-6c0,.08-.12.12-.27.1a20.84,20.84,0,0,1-3.62,3.29,1.57,1.57,0,0,0-.3-.33,15.72,15.72,0,0,0,3.57-3.3Zm8.13,6.57.34.2a.23.23,0,0,1-.12.09,10.24,10.24,0,0,1-3.25,4.23,11,11,0,0,0,4.77,2,1.64,1.64,0,0,0-.32.41,11.18,11.18,0,0,1-4.83-2.17,14.74,14.74,0,0,1-4.66,2.2,1.92,1.92,0,0,0-.29-.42,14.18,14.18,0,0,0,4.59-2.08,9.53,9.53,0,0,1-2.64-3.9l.3-.1H79.66v-.45H87Zm-5.52-5.71v1.52a4.11,4.11,0,0,1-2.19,3.79,1.15,1.15,0,0,0-.3-.36,3.65,3.65,0,0,0,2-3.44v-2h4.92v3.93c0,.62.09.62.51.62h.74c.42,0,.67,0,.73-.36a9,9,0,0,0,.08-1.21,1,1,0,0,0,.39.18c0,1.54-.12,1.8-1.14,1.8h-.81c-.95,0-.95-.31-.95-1.17v-3.33Zm-.48,6.19a9,9,0,0,0,2.59,3.73,9.66,9.66,0,0,0,3-3.73Z"/><path class="cls-1" d="M92.11,220.32h2.77v13.39H92.11v-.46h2.2V220.79h-2.2Z"/><path class="cls-1" d="M120.73,223.28c0,.1-.1.15-.27.15a15.87,15.87,0,0,1-2.88,6.37,3.37,3.37,0,0,0-.37-.25,14.62,14.62,0,0,0,2.83-6.4Zm3.33-3.79.67.06c0,.09-.08.13-.22.15v12.45c0,.57-.2.75-.58.84a17.75,17.75,0,0,1-2.66.09,2.71,2.71,0,0,0-.21-.5l1.42,0c1.54,0,1.58,0,1.58-.42ZM130.88,230a24.1,24.1,0,0,0-3.12-6.76l.41-.18a24.15,24.15,0,0,1,3.16,6.73Z"/><path class="cls-1" d="M143.67,231.75H136v.81h-.45v-3l.67.06c0,.08-.08.14-.22.15v1.57h3.33v-2.22l.67.06c0,.07-.08.13-.23.15v2h3.41v-1.87l.67.06c0,.08-.08.14-.22.15Zm4.5-4.79h-11v1.46h10l.11,0,.27.08,0,.18c-.24,2.76-.45,3.76-.85,4.15s-.56.25-1.19.25c-.46,0-1.14,0-1.84-.08a1.16,1.16,0,0,0-.15-.43c1,.09,1.93.09,2.22.09s.48,0,.6-.12c.33-.29.54-1.25.75-3.66H136.76v-8.31h3.58a12.22,12.22,0,0,0,.72-1.38l.62.24c0,.07-.12.12-.25.12-.15.28-.37.67-.6,1h5.07v4.54h-8.68v1.41h11Zm-2.73-6h-8.23v1.6h8.23Zm-8.23,3.65h8.23v-1.59h-8.23Z"/><path class="cls-1" d="M163.32,226.43l-2,.75v5.13c0,.42-.13.57-.42.66a8,8,0,0,1-1.75.07,2.62,2.62,0,0,0-.2-.43h1c.83,0,.87,0,.87-.3v-5c-.84.31-1.62.62-2.22.83a.23.23,0,0,1-.13.22l-.32-.58c.72-.24,1.67-.58,2.67-.94v-4H158.4v-.45h2.52v-3.19l.67.06c0,.09-.07.13-.22.15v3h1.89v.45h-1.89v3.81l1.86-.69Zm8.82-5.62H167a26.9,26.9,0,0,1-1.42,4.69h5.86V233h-.45v-.78h-5.38v.85h-.45v-6.64a12.26,12.26,0,0,1-2.35,3.43,1.72,1.72,0,0,0-.36-.25c2-1.9,3.3-5.14,4.11-8.79h-3.27v-.45h8.91Zm-1.2,5.15h-5.38v5.8h5.38Z"/><path class="cls-1" d="M178.9,230.88c0,1.06.36,1.4,1.89,1.4H187c1.44,0,1.67-.6,1.84-2.85a1.48,1.48,0,0,0,.46.23c-.2,2.31-.46,3.07-2.42,3.07h-6c-1.86,0-2.46-.36-2.46-1.87v-5.54l-2.66.87-.15-.39,2.81-.93v-4.59l.67.06c0,.07-.08.13-.23.15v4.23l4-1.31v-4.14l.67.06c0,.07-.08.13-.22.15v3.78l4.27-1.41.2-.19.39.17a.24.24,0,0,1-.1.1,20.77,20.77,0,0,1-.51,5.82,1.29,1.29,0,0,1-1.24,1c-.47,0-1.23,0-1.74,0a1.47,1.47,0,0,0-.17-.45c.39,0,.87,0,1.25,0,1,0,1.23,0,1.51-.77a18.85,18.85,0,0,0,.45-5.23l-4.3,1.41v6h-.45v-5.82l-4,1.32Z"/><path class="cls-1" d="M2.77,269.72H0V256.32H2.77v.46H.57v12.46h2.2Z"/><path class="cls-1" d="M19.85,264.29v.45h-1.6v2.76H17.8v-.72H13.21v1.42c0,.52-.18.71-.54.79a14.52,14.52,0,0,1-2.42.09,2.65,2.65,0,0,0-.19-.5l1.27,0c1.4,0,1.42,0,1.42-.39v-1.44H7.48v-.45h5.28v-1.59H6.28v-.45h6.48V262.8H7.64v-.45h5.11v-1.29H8.14v-2.71h4.62v-1.2H6.5v-.45h6.25v-1.46l.67.06c0,.09-.07.14-.22.15v1.25H19.6v.45H13.21v1.2h4.84v2.71H13.21v1.29h5v1.94ZM8.59,260.61h4.17V258.8H8.59Zm9-1.81H13.21v1.81H17.6Zm-4.39,4v1.48H17.8V262.8Zm4.59,3.52v-1.59H13.21v1.59Z"/><path class="cls-1" d="M37.1,265.23H31.4a15.23,15.23,0,0,0,6,3.18,1.43,1.43,0,0,0-.3.38,16.2,16.2,0,0,1-6.3-3.55h-.14v3.82h-.45v-3.82h-.12a15.41,15.41,0,0,1-6.21,3.48,2.08,2.08,0,0,0-.32-.41,14.89,14.89,0,0,0,5.9-3.07H23.93v-.45h6.32v-1.59H25.4v-.45h4.84v-1.56H24.62v-.45h3.81a7.11,7.11,0,0,0-1-1.87l.39-.13a6.74,6.74,0,0,1,1,1.86l-.37.15h8v.45h-5.8v1.56h5v.45h-5v1.59H37.1Zm-.06-7v.45H24v-.45h4.75v-3l.74.06c0,.14-.14.21-.29.23v2.69h2.52v-3l.74.06c0,.14-.13.21-.29.23v2.69ZM25.77,255.5a9.61,9.61,0,0,1,1.46,2.37l-.4.18a10.47,10.47,0,0,0-1.44-2.4Zm8.05,3.39c0,.08-.12.12-.25.12a15.8,15.8,0,0,1-1,1.69l-.36-.14a14.34,14.34,0,0,0,1-1.87Zm2.07-3.13c0,.07-.12.12-.25.12a22.47,22.47,0,0,1-1.35,2.27l-.37-.17a16.64,16.64,0,0,0,1.38-2.46Z"/><path class="cls-1" d="M53.73,257.94v10.21c0,.51-.13.73-.55.83a19.1,19.1,0,0,1-2.73.09,2.37,2.37,0,0,0-.2-.51h1.46c.58,0,1,0,1.2,0s.38-.11.38-.39v-9.78h-5.4a10.1,10.1,0,0,1-.31,2.23,49.9,49.9,0,0,1,4.8,4.68l-.36.3A46.42,46.42,0,0,0,47.45,261a8.58,8.58,0,0,1-4.18,4.74,1.61,1.61,0,0,0-.32-.33c3.83-2.15,4.41-4.9,4.48-7.06H42.2v10.69h-.45V257.94h5.7v-2.7l.67.06c0,.08-.08.14-.22.15v2.49Z"/><path class="cls-1" d="M60.82,264.14a22.31,22.31,0,0,1-2.47,1.52,2.87,2.87,0,0,0-.29-.36,19.17,19.17,0,0,0,6.63-5.43l.84.06c0,.09-.12.13-.24.15A22.74,22.74,0,0,0,72,265.13a2.47,2.47,0,0,0-.3.38,23.7,23.7,0,0,1-6.75-5.13,19.13,19.13,0,0,1-4,3.69h8.14V269h-.45v-.51H61.27v.62h-.45Zm2.37-5.46c0,.07-.13.1-.29.1A16.5,16.5,0,0,1,59,261.9a3.38,3.38,0,0,0-.33-.31,14,14,0,0,0,3.95-3.16Zm-4-1.38v1.81h-.45v-2.27h6v-1.6l.67.06c0,.08-.08.14-.23.15v1.4h6v2.27h-.45V257.3Zm9.42,7.21H61.27V268h7.35Zm2.24-2.61a24.15,24.15,0,0,0-4.18-3.19l.28-.28a24.21,24.21,0,0,1,4.2,3.13Z"/><path class="cls-1" d="M75.09,256.32h2.77v13.39H75.09v-.46h2.2V256.79h-2.2Z"/><path class="cls-1" d="M114,258H102.15v3.84c0,2.17-.2,5.19-1.61,7.3a1.37,1.37,0,0,0-.37-.25c1.38-2.08,1.53-4.94,1.53-7v-4.27H102v0h5.37v-2.26l.67.06c0,.07-.08.13-.23.15v2.05H114Zm-3.54,5.42a27.16,27.16,0,0,1,3.66,5.49l-.39.24c-.2-.44-.46-.94-.78-1.5-3.64.2-7.59.39-10,.5a.21.21,0,0,1-.18.18l-.25-.65,1.88-.08a64.33,64.33,0,0,0,2.87-8.35l.67.22a.33.33,0,0,1-.29.15,79.84,79.84,0,0,1-2.8,8c2.25-.09,5.08-.21,7.83-.34a32.67,32.67,0,0,0-2.61-3.63Z"/><path class="cls-1" d="M123.81,261.18h6.55v.45H116.93v-.45h6.44v-3h-3.79a13.17,13.17,0,0,1-1.41,2.44,2.32,2.32,0,0,0-.37-.25,15.24,15.24,0,0,0,2.31-4.9l.66.19c0,.09-.12.14-.29.14a18.47,18.47,0,0,1-.71,1.93h3.6v-2.5l.67.06c0,.08-.08.14-.23.15v2.29h5.43v.45h-5.43ZM119.27,269V263.4H128V269h-.45v-.69h-7.86V269Zm8.31-5.19h-7.86v4h7.86Z"/><path class="cls-1" d="M137.63,255.54a19,19,0,0,1,2.79,2.92l-.32.33a19,19,0,0,0-2.67-2.88,13.94,13.94,0,0,1-3.07,3.9,1,1,0,0,0-.35-.31,12.19,12.19,0,0,0,3.2-4.24l.69.09c0,.09-.1.15-.25.15Zm2.05,5.94v4.81c0,.33-.08.5-.36.58a7.53,7.53,0,0,1-1.71.09,1.43,1.43,0,0,0-.18-.45h1c.75,0,.78,0,.78-.24v-4.36h-2.46V269h-.45v-7.11h-2v-.45Zm-4.09-1.95v-.45h3.72v.45Zm7.53,7.53a.39.39,0,0,1-.28.12,10.25,10.25,0,0,1-3.32,2,1.87,1.87,0,0,0-.33-.36,9.38,9.38,0,0,0,3.33-1.92ZM141,258.42h2.38c.17-.54.36-1.29.5-1.87h-3.54v-.45h7.77v.45h-3.75c-.12.52-.3,1.27-.5,1.88h3.6v7.86H141Zm6,2.44v-2h-5.56v2Zm0,2.47v-2h-5.56v2Zm0,2.49v-2h-5.56v2Zm.9,3.27a15.71,15.71,0,0,0-2.83-2l.38-.25a15.91,15.91,0,0,1,2.85,1.92Z"/><path class="cls-1" d="M156.08,264.63l.09.41c-1.51.61-3.1,1.24-4.09,1.63a.22.22,0,0,1-.13.21l-.33-.56c.6-.21,1.35-.49,2.17-.81v-5.76h-2v-.45h2v-3.9l.67.06c0,.08-.08.13-.22.15v3.69H156v.45h-1.8v5.59Zm-.5,2.71c1.21-.37,3.06-1,4.86-1.65l.07.42c-1.65.6-3.39,1.22-4.48,1.59a.22.22,0,0,1-.13.21Zm6.48-9.24a46.24,46.24,0,0,0,.62,6.72,19.57,19.57,0,0,0,1.89-4.71l.66.18c0,.1-.12.14-.29.14a18.66,18.66,0,0,1-2.13,5c.42,2,1,3.14,1.8,3.14.39,0,.55-.71.63-2.49a1.21,1.21,0,0,0,.42.21c-.12,2-.32,2.75-1.08,2.75-.95,0-1.63-1.17-2.1-3.09a12.43,12.43,0,0,1-3,3.1,2.32,2.32,0,0,0-.33-.33,11.37,11.37,0,0,0,3.15-3.37,45.56,45.56,0,0,1-.73-7.27H156v-.45h5.58l0-2.35.71,0c0,.09-.08.15-.24.17,0,.73,0,1.44,0,2.15h3.5v.45Zm-5.58,2h3.79v4.29h-3.79Zm3.34,3.84V260.6h-2.89V264Zm3.29-8.71a15.93,15.93,0,0,1,2.26,1.57l-.29.35a18.16,18.16,0,0,0-2.26-1.64Z"/><path class="cls-1" d="M171.7,256.31c-.06.17-.21.24-.53.21a37.27,37.27,0,0,0-.78,6.87,19.69,19.69,0,0,0,.26,3.55c.36-.94,1-2.71,1.26-3.29l.45.17c-.69,1.83-1.09,2.71-1.29,3.35a2.47,2.47,0,0,0-.12.69,1.32,1.32,0,0,0,.07.44l-.48.13a15.2,15.2,0,0,1-.64-5,40.24,40.24,0,0,1,.85-7.3Zm9.94,10.8c-.53,0-1.07,0-1.59,0a20,20,0,0,1-3-.18c-1.68-.25-2.55-1.21-2.55-2.37a4.54,4.54,0,0,1,1.49-2.82l.4.27a3.92,3.92,0,0,0-1.39,2.53c0,.87.72,1.69,2.19,1.92a17.65,17.65,0,0,0,2.59.17c.58,0,1.2,0,1.8-.06Zm-7-8.79a45.81,45.81,0,0,0,6.66-.58l.06.49a54,54,0,0,1-6.71.58Z"/><path class="cls-1" d="M190.76,262.41a11.56,11.56,0,0,1,3.75-.83c2.58,0,4,1.48,4,3.38a3.17,3.17,0,0,1-3.33,3.36,3.49,3.49,0,0,1-3-1.5l.29-.33a3.19,3.19,0,0,0,2.76,1.38A2.71,2.71,0,0,0,198,265c0-1.63-1.2-3-3.5-2.94a11.45,11.45,0,0,0-3.75.85c0,1.11,0,3.09,0,3.57a2.07,2.07,0,0,1-2.08,2.23,2.16,2.16,0,0,1-2.35-2.15,3.84,3.84,0,0,1,1.9-2.85,11.31,11.31,0,0,1,2.05-1.1V259c-1.15.1-2.44.14-3.79.12v-.48a33.81,33.81,0,0,0,3.79-.1v-3l.93.09c0,.2-.18.29-.44.31,0,.57,0,1.59,0,2.54a11.55,11.55,0,0,0,3-.67l.15.48a14.78,14.78,0,0,1-3.13.66Zm-.43,4c0-.42,0-1.91,0-3.36a11.79,11.79,0,0,0-1.83,1,3.53,3.53,0,0,0-1.67,2.43,1.71,1.71,0,0,0,1.89,1.73,1.63,1.63,0,0,0,1.62-1.79Zm8.52-6.07a13.13,13.13,0,0,0-3.45-2.28l.25-.4a15.61,15.61,0,0,1,3.57,2.31Z"/><path class="cls-1" d="M205.26,256.4c0,.13-.15.22-.39.24a33.31,33.31,0,0,0-.78,6.49,13.49,13.49,0,0,0,.23,2.91c.38-.77,1.24-2.44,1.77-3.45l.42.23a37.51,37.51,0,0,0-1.77,3.6,1.48,1.48,0,0,0-.09.48,1.65,1.65,0,0,0,.15.63l-.48.15a12.3,12.3,0,0,1-.69-4.54,39.08,39.08,0,0,1,.79-6.93Zm6.76-.77.89,0c0,.17-.17.25-.37.3,0,.9.13,2.6.19,3.92a17,17,0,0,0,3.21-.5l.06.53a22.81,22.81,0,0,1-3.25.45c0,.44,0,1,0,1.42,0,3.27-.69,5.54-3.64,6.92a1.59,1.59,0,0,0-.33-.37c2.83-1.32,3.49-3.39,3.49-6.49,0-.48,0-1,0-1.44-1.06.08-3,.12-4.42.12V260c1.47,0,3.25,0,4.41-.12Z"/><path class="cls-1" d="M222.14,262.05a10,10,0,0,1,4.32-1.08c2.46,0,3.9,1.38,3.9,3.49,0,2.73-2.41,4.2-5.23,4.2-2,0-3.29-.71-3.29-1.91a2.11,2.11,0,0,1,2.34-1.86,3.28,3.28,0,0,1,3.06,3,3.53,3.53,0,0,0,2.64-3.37c0-1.86-1.29-3-3.43-3a9.29,9.29,0,0,0-5.78,2.06c-.5.48-1.06,1.12-1.48,1.62l-.36-.36c1.53-1.67,6.18-6.12,8.23-8.05-1,.13-4.24.24-6.31.3a.41.41,0,0,1-.27.23l-.11-.71c2.12,0,5.75-.15,6.9-.31l.21-.1.53.57a.77.77,0,0,1-.32.13c-1.26,1.06-4.42,4.11-5.55,5.23Zm3,6.15a6.75,6.75,0,0,0,1.67-.21,2.85,2.85,0,0,0-2.62-2.64c-1,0-1.85.52-1.85,1.4C222.3,267.84,223.85,268.2,225.11,268.2Z"/><path class="cls-1" d="M235.27,256.52h.52v11.32h-.52Z"/><path class="cls-1" d="M247.73,257h-3.78v10.86h-.53V257h-3.79v-.47h8.1Z"/><path class="cls-1" d="M262.93,261.15H257.6l.22.06c0,.09-.12.15-.27.17-.39,3-1.46,5.56-4.72,7.13a2.55,2.55,0,0,0-.35-.37c3.23-1.5,4.2-3.85,4.59-7h-6.16v-.48h12Zm-1.45-4.26h-9.21v-.48h9.21Z"/><path class="cls-1" d="M278.08,258.32a.8.8,0,0,1-.15.16c-1.49,4.83-4,8.05-8.24,10.2a1.48,1.48,0,0,0-.31-.37,15.14,15.14,0,0,0,8-9.67h-6a15.37,15.37,0,0,1-3.46,3.9,2.83,2.83,0,0,0-.37-.32,15.86,15.86,0,0,0,4.84-6.61l.74.29c0,.15-.24.17-.39.15a20,20,0,0,1-1.06,2.12h6l.11,0Z"/><path class="cls-1" d="M291.34,256.31c-.06.14-.2.15-.36.14a23.78,23.78,0,0,1-10.33,12,2,2,0,0,0-.36-.35,23,23,0,0,0,10.3-12Z"/><path class="cls-1" d="M306.71,257.75v9.75h-.48v-1H297v1.05h-.46v-9.79Zm-.48,8.26v-7.78H297V266Z"/><path class="cls-1" d="M312.08,260.12a24,24,0,0,1,4.17,1.32l-.2.46a24.66,24.66,0,0,0-4.15-1.32Zm1.25,7.59c5-1.77,8.4-4.53,10.33-9a3.28,3.28,0,0,0,.4.29c-2,4.53-5.46,7.33-10.14,9a.32.32,0,0,1-.13.34Zm.3-11.32a23.91,23.91,0,0,1,4.13,1.46l-.2.45a24.16,24.16,0,0,0-4.09-1.46Zm7.16-.51a12.89,12.89,0,0,1,2.07,2.24l-.36.27a13.06,13.06,0,0,0-2-2.23Zm1.95-1a12.87,12.87,0,0,1,2.07,2.23l-.36.27a13.42,13.42,0,0,0-2-2.22Z"/><path class="cls-1" d="M327.95,261.62h12.52v.49h-12a.57.57,0,0,1-.43.27Z"/><path class="cls-1" d="M347.51,261.42a4.32,4.32,0,0,1,2.66-1.12c1.13,0,1.69.81,1.86,2.07,1.33-.62,3-1.31,4.33-1.8l.32.63h-.09a.43.43,0,0,1-.23-.09c-1.16.4-2.92,1.11-4.27,1.74a11.64,11.64,0,0,1,.06,1.33c0,.56,0,1.19-.06,1.85h-.54c0-.58.08-1.38.08-2.07a8,8,0,0,0,0-.9c-2,1-3.79,2.16-3.79,3.3s1.18,1.54,3.52,1.54a33.64,33.64,0,0,0,3.79-.15v.51c-1,.09-2.35.12-3.79.12-2.88,0-4-.72-4-2s1.88-2.61,4.21-3.78c-.12-1.29-.67-1.8-1.38-1.8-1.17,0-2.37.69-3.81,2.27a22.88,22.88,0,0,1-1.71,1.63l-.33-.34a10.92,10.92,0,0,0,4-6l-1,0H344.6v-.48h2.6l1.18,0a21.59,21.59,0,0,0,.46-2.27l.88.15c0,.15-.13.24-.36.25a18.93,18.93,0,0,1-.44,1.86,21.72,21.72,0,0,0,5.58-.92l.1.5a22.37,22.37,0,0,1-5.82.9,11.87,11.87,0,0,1-1.3,3.07Z"/><path class="cls-1" d="M360.79,259.56a11.92,11.92,0,0,1,2.8,1.6l-.25.39a12.84,12.84,0,0,0-2.8-1.67Zm.2,8.94a52.27,52.27,0,0,0,2.73-5l.33.29a50.83,50.83,0,0,1-2.56,4.84.25.25,0,0,1,.06.17.2.2,0,0,1,0,.12Zm3-10.93a12,12,0,0,0-2.73-1.81l.27-.31a11.56,11.56,0,0,1,2.73,1.75Zm10.35,2.65h-4.74v3.12h3.58v5.59h-.45v-.58h-6.62v.71h-.45v-5.71h3.48v-3.12h-4.74v-.45h4.74v-3.15c-1.29.23-2.67.44-4,.6a1.16,1.16,0,0,0-.15-.37,46.92,46.92,0,0,0,7.83-1.56l.54.38a.15.15,0,0,1-.12,0l-.11,0a29.25,29.25,0,0,1-3.58.84v3.24h4.74Zm-1.6,7.68v-4.11h-6.62v4.11Z"/><path class="cls-1" d="M390.31,256.38v11.68c0,.52-.17.73-.57.82A17.18,17.18,0,0,1,387,269a2.31,2.31,0,0,0-.19-.46h1.47c1.59,0,1.6,0,1.6-.44v-3.94h-5V269h-.45v-4.81h-4.56a8.82,8.82,0,0,1-1.91,5,1.15,1.15,0,0,0-.33-.33c1.71-1.95,1.89-4.65,1.89-6.81v-5.59ZM379.93,262c0,.54,0,1.11-.06,1.71h4.51v-3.17h-4.45Zm4.45-5.15h-4.45v3.24h4.45Zm5.47,0h-5v3.24h5Zm-5,6.85h5v-3.17h-5Z"/><path class="cls-1" d="M397.87,255.86c0,.17-.17.27-.46.3-.12,1.58-.27,5.86-.27,8.1,0,2.46,1.2,3.66,3.3,3.66a7.44,7.44,0,0,0,5.79-3.12,1.54,1.54,0,0,0,.38.33,8,8,0,0,1-6.18,3.27c-2.32,0-3.78-1.41-3.78-4.17,0-1.8.15-6.66.27-8.53Z"/><path class="cls-1" d="M414.92,255.62c0,.15-.25.27-.45.27-.1.73-.25,1.54-.42,2.62a17.86,17.86,0,0,0,4.72-.9l.17.46a19.48,19.48,0,0,1-5,.93,35.79,35.79,0,0,1-2.85,9.6l-.46-.2a34.13,34.13,0,0,0,2.8-9.39c-.3,0-.62,0-.9,0h-2.07v-.5c.24,0,.56,0,.9,0s1.72,0,2.14,0c.17-1,.33-2.1.45-3Zm8,12.78-1.28,0a13.79,13.79,0,0,1-3.82-.39,1.94,1.94,0,0,1-1.42-1.9,3.5,3.5,0,0,1,.92-2.16l.39.25a3.2,3.2,0,0,0-.84,1.9c0,1.35,1.23,1.81,4.44,1.81.51,0,1,0,1.61-.06Zm-.46-7.3a16.17,16.17,0,0,0-5.36.75l-.15-.44a17.54,17.54,0,0,1,5.52-.79Z"/><path class="cls-1" d="M430.66,263.93c.58.45,2.32,1.94,2.73,2.31l-.32.41a31.7,31.7,0,0,0-2.41-2.24V269h-.45v-5.11a13.27,13.27,0,0,1-3,3.73,1.8,1.8,0,0,0-.33-.34,11.38,11.38,0,0,0,3.13-4h-2.92v-.45h3.08V261h-3.27v-.45h7.23V261h-3.51v1.94H434v.45h-3.3Zm3.19-6.88v.45h-6.61V257h3v-1.79l.67.06c0,.07-.08.13-.22.15V257Zm-5.16.66a9.17,9.17,0,0,1,.75,2.54l-.43.12a9.83,9.83,0,0,0-.72-2.56Zm4.17.23c0,.08-.12.12-.25.12a20.73,20.73,0,0,1-.92,2.37l-.37-.17a18.12,18.12,0,0,0,.93-2.58Zm7.88,2.59V261h-2v8.08h-.45V261h-3v1c0,2.26-.29,5-2.5,7.09a1.19,1.19,0,0,0-.33-.35c2.13-1.93,2.38-4.56,2.38-6.75v-5.26l.54.21a23.19,23.19,0,0,0,4.61-1.6l.54.39a.19.19,0,0,1-.14,0l-.1,0a30.12,30.12,0,0,1-5,1.62v3.16Z"/><path class="cls-1" d="M444.82,257.3a17.67,17.67,0,0,1,2.59,4.35l-.45.24a18,18,0,0,0-2.55-4.32Zm10.6,0c0,.13-.13.16-.34.16-1.47,5.69-4.38,9-8.56,10.83a2,2,0,0,0-.34-.39c4.18-1.86,7-5.05,8.49-10.84Z"/><path class="cls-1" d="M461.47,263.85v-7.2l.79.06c0,.1-.12.21-.31.22v6.92Zm8-7.75c0,.14-.12.21-.32.23v4.83c0,3.12-1.09,5.94-5.47,7.54a1.81,1.81,0,0,0-.31-.39c4.29-1.56,5.31-4.18,5.31-7.15V256Z"/><path class="cls-1" d="M485,267v.45h-10.2V267h6.3c.25-1.62.74-5.06.88-6.72h-6v-.45h6.13l.09,0,.42.24a.18.18,0,0,1-.15.08c-.2,1.68-.69,5.16-1,6.88Z"/><path class="cls-1" d="M488.74,261.62h12.52v.49h-12a.57.57,0,0,1-.43.27Z"/><path class="cls-1" d="M505.63,260.06a24,24,0,0,1,4.17,1.32l-.2.47a24.62,24.62,0,0,0-4.15-1.32Zm1.25,7.59c5.05-1.8,8.38-4.5,10.33-9a3.25,3.25,0,0,0,.42.27c-2,4.56-5.38,7.3-10.17,9.06a.32.32,0,0,1-.13.35Zm.3-11.32a24,24,0,0,1,4.13,1.46l-.2.45a24.11,24.11,0,0,0-4.09-1.45Z"/><path class="cls-1" d="M530.48,259.58v9H530v-.69h-7v-.45h7v-3.61H523.6v-.45H530V260h-6.6v-.45Z"/><path class="cls-1" d="M536.69,257a17.44,17.44,0,0,1,4.51,2.08l-.27.4a17.81,17.81,0,0,0-4.46-2.1Zm.25,10.57c5.49-1.73,9.09-4.74,10.93-8.91a2.1,2.1,0,0,0,.42.25c-1.87,4.12-5.59,7.32-10.75,9a.51.51,0,0,1-.18.31Z"/><path class="cls-1" d="M559,257.42a.31.31,0,0,1-.33.23c-.48,4.35-2.08,9.18-4.5,9.18-1,0-2.11-1.2-2.11-3.42a6.53,6.53,0,0,1,6.66-6.6c4.39,0,6,2.92,6,5.61,0,3.6-2.22,5.25-5.75,6,0-.09-.19-.33-.25-.45,3.48-.66,5.52-2.35,5.52-5.52,0-2.5-1.51-5.17-5.55-5.17h-.24Zm-.78-.13a6.09,6.09,0,0,0-5.71,6.12c0,1.85.9,2.92,1.67,2.92C556.25,266.33,557.78,261.81,558.25,257.28Z"/><path class="cls-1" d="M574.65,260.85h-4.8v8.22h-.45V256h5.25Zm-.45-4.42h-4.35v1.71h4.35Zm-4.35,4h4.35v-1.81h-4.35Zm9.95,4.67h-2.45v3.67h-.45v-3.67H574a5,5,0,0,1-2.16,3.84,1.46,1.46,0,0,0-.35-.33,4.33,4.33,0,0,0,2.07-3.51h-2.29v-.45h2.29v-2.17h-2V262h7.77v.45h-2.05v2.17h2.45Zm-5.76-.45h2.86v-2.17H574Zm7.71-8.64v12.21c0,.46-.13.67-.48.76A13,13,0,0,1,579,269a1.86,1.86,0,0,0-.2-.49l1.37,0c1.07,0,1.11,0,1.11-.36v-7.35h-4.94V256Zm-.45.45h-4.49v1.71h4.49Zm-4.49,4h4.49v-1.81h-4.49Z"/><path class="cls-1" d="M592.06,255.93l.33.21a.21.21,0,0,1-.12.1,12.26,12.26,0,0,1-6,6.15,2.49,2.49,0,0,0-.31-.37,11.65,11.65,0,0,0,3.55-2.44,19.46,19.46,0,0,0-2.21-1.9l.3-.27a21,21,0,0,1,2.22,1.86,9.63,9.63,0,0,0,1.91-2.83h-4.53V256H592Zm2.94,12c0,.42.12.51.75.51h2.34c.57,0,.65-.31.71-2.14a1.06,1.06,0,0,0,.44.21c-.06,1.9-.21,2.38-1.12,2.38h-2.34c-.95,0-1.22-.15-1.22-1v-3.25h-3.49c-.18,1.71-1,3.3-4.19,4.46a1.35,1.35,0,0,0-.3-.36c3-1.08,3.83-2.55,4-4.1h-3.78v-.45h3.81c0-.18,0-.35,0-.52v-2.31h-2v-.45h8.58v.45H595v2.83h4v.45h-4Zm-3.9-4.24c0,.18,0,.34,0,.52h3.46v-2.83H591.1Zm6.66-8c0,.06-.12.07-.22.07a26.88,26.88,0,0,1-2.47,2.08,13,13,0,0,0,1.3,1.56A20.38,20.38,0,0,0,599,257.1l.51.36c0,.06-.12.07-.23.07a27.18,27.18,0,0,1-2.68,2.16,10.37,10.37,0,0,0,3.36,2.16,2.49,2.49,0,0,0-.31.38,12.57,12.57,0,0,1-6.39-6.76l.38-.13a11.91,11.91,0,0,0,1.15,2.2,20.41,20.41,0,0,0,2.42-2.2Z"/><line class="cls-2" x1="152.68" y1="22.78" x2="170.87" y2="22.78"/><polyline class="cls-2" points="160.01 0.17 181.74 22.77 160.01 45.38"/></g></g></svg>