<svg xmlns="http://www.w3.org/2000/svg" viewBox="0 0 118.91 231.27"><defs><style>.cls-1{fill:#fff;}.cls-2{fill:none;stroke:#fff;stroke-miterlimit:10;stroke-width:0.25px;}</style></defs><title>company_small</title><g id="Layer_2" data-name="Layer 2"><g id="レイヤー_1" data-name="レイヤー 1"><path class="cls-1" d="M39.32,8.78a4.38,4.38,0,0,1-.9,1.31,4,4,0,0,1-1.31.85,4.5,4.5,0,0,1-1.71.31,4.3,4.3,0,0,1-1.83-.39A4.23,4.23,0,0,1,32.14,9.8a5,5,0,0,1-.93-1.62,6.13,6.13,0,0,1-.34-2.06,7,7,0,0,1,.26-1.85A5.23,5.23,0,0,1,32,2.54a4.35,4.35,0,0,1,1.46-1.26A4.47,4.47,0,0,1,35.58.79a4.25,4.25,0,0,1,1.74.33,4.07,4.07,0,0,1,1.24.83A3.59,3.59,0,0,1,39.31,3a2.73,2.73,0,0,1,.27,1h-.28A2.69,2.69,0,0,0,39,3,3.34,3.34,0,0,0,38.21,2a3.87,3.87,0,0,0-1.15-.68,4.49,4.49,0,0,0-3.56.24,4.24,4.24,0,0,0-1.36,1.25,5.11,5.11,0,0,0-.75,1.63,6.57,6.57,0,0,0-.23,1.67,6,6,0,0,0,.28,1.83,4.68,4.68,0,0,0,.83,1.55,4.12,4.12,0,0,0,1.34,1.08,3.88,3.88,0,0,0,1.8.41A4.2,4.2,0,0,0,37,10.69a3.74,3.74,0,0,0,1.23-.81,4.11,4.11,0,0,0,.84-1.23,5.55,5.55,0,0,0,.43-1.54h.28A5.94,5.94,0,0,1,39.32,8.78Z"/><path class="cls-1" d="M42.68,6a3.62,3.62,0,0,1,.62-1.2,3.15,3.15,0,0,1,1-.83A3.24,3.24,0,0,1,47.1,4a3.16,3.16,0,0,1,1,.83A3.6,3.6,0,0,1,48.74,6a4.91,4.91,0,0,1,0,2.84,3.6,3.6,0,0,1-.62,1.2,3.08,3.08,0,0,1-1,.83,3,3,0,0,1-1.4.31,3,3,0,0,1-1.39-.31,3.08,3.08,0,0,1-1-.83,3.62,3.62,0,0,1-.62-1.2,4.91,4.91,0,0,1,0-2.84Zm.26,2.74a3.35,3.35,0,0,0,.57,1.11,2.81,2.81,0,0,0,.93.77,3,3,0,0,0,2.55,0,2.82,2.82,0,0,0,.93-.77,3.35,3.35,0,0,0,.57-1.11,4.55,4.55,0,0,0,.19-1.32,4.51,4.51,0,0,0-.19-1.3A3.35,3.35,0,0,0,47.92,5,2.89,2.89,0,0,0,47,4.24a2.91,2.91,0,0,0-2.55,0A2.89,2.89,0,0,0,43.5,5a3.35,3.35,0,0,0-.57,1.11,4.51,4.51,0,0,0-.19,1.3A4.55,4.55,0,0,0,42.94,8.74Z"/><path class="cls-1" d="M52.35,3.83V5.61h0a2.67,2.67,0,0,1,.31-.77,2.53,2.53,0,0,1,.52-.62,2.37,2.37,0,0,1,.68-.41,2.12,2.12,0,0,1,.79-.15,2.06,2.06,0,0,1,1.41.43,2.17,2.17,0,0,1,.75,1.25h0a2.23,2.23,0,0,1,.83-1.22,2.36,2.36,0,0,1,1.46-.46,2.65,2.65,0,0,1,1.09.2,1.81,1.81,0,0,1,.7.54,2.09,2.09,0,0,1,.38.83,4.72,4.72,0,0,1,.11,1.07V11h-.28V6.29a4.73,4.73,0,0,0-.09-1,1.85,1.85,0,0,0-.32-.74,1.5,1.5,0,0,0-.62-.48,2.45,2.45,0,0,0-1-.17,2.11,2.11,0,0,0-1.65.76A2.46,2.46,0,0,0,57,5.5a3,3,0,0,0-.15,1V11h-.28V6.41a5.57,5.57,0,0,0-.08-1,2.15,2.15,0,0,0-.29-.78,1.48,1.48,0,0,0-.59-.53,2.13,2.13,0,0,0-1-.2,1.93,1.93,0,0,0-1,.25,2.3,2.3,0,0,0-.74.66,3.12,3.12,0,0,0-.46,1A4,4,0,0,0,52.35,7V11h-.28V3.83Z"/><path class="cls-1" d="M64.92,13.49V3.83h.28v2h0A3.17,3.17,0,0,1,65.64,5a3.07,3.07,0,0,1,.63-.69,2.71,2.71,0,0,1,.83-.46,3.11,3.11,0,0,1,1-.16,2.86,2.86,0,0,1,1.28.28,2.8,2.8,0,0,1,1,.78A3.6,3.6,0,0,1,71,5.92a5.33,5.33,0,0,1,0,2.94,3.83,3.83,0,0,1-.59,1.2,2.73,2.73,0,0,1-2.28,1.12,2.92,2.92,0,0,1-1.89-.59,2.87,2.87,0,0,1-1-1.58h0v4.48Zm4.46-2.89a2.7,2.7,0,0,0,.86-.81,3.57,3.57,0,0,0,.5-1.12,5,5,0,0,0,.16-1.25,4.89,4.89,0,0,0-.17-1.32A3.57,3.57,0,0,0,70.21,5a2.48,2.48,0,0,0-.87-.76,2.56,2.56,0,0,0-1.22-.28,2.66,2.66,0,0,0-1.23.28A2.72,2.72,0,0,0,66,5a3.44,3.44,0,0,0-.57,1.11,4.45,4.45,0,0,0-.2,1.33A3.8,3.8,0,0,0,66,10a2.68,2.68,0,0,0,2.11.9A2.42,2.42,0,0,0,69.38,10.6Z"/><path class="cls-1" d="M74.6,5.11a2.16,2.16,0,0,1,.53-.76,2.44,2.44,0,0,1,.84-.5,3.4,3.4,0,0,1,1.17-.18,4.06,4.06,0,0,1,.9.1,1.94,1.94,0,0,1,.75.34,1.8,1.8,0,0,1,.52.64,2.31,2.31,0,0,1,.21,1V10.3a.47.47,0,0,0,.08.31.42.42,0,0,0,.22.13,1.05,1.05,0,0,0,.3,0l.3,0V11H80a1,1,0,0,1-.54-.15.6.6,0,0,1-.23-.55V9.39h0a2.25,2.25,0,0,1-.36.67,2.6,2.6,0,0,1-.62.57,3.14,3.14,0,0,1-.85.4,3.49,3.49,0,0,1-1,.15,2.89,2.89,0,0,1-1.75-.48,1.68,1.68,0,0,1-.66-1.45,2.28,2.28,0,0,1,.22-1.08,1.71,1.71,0,0,1,.57-.64,2.24,2.24,0,0,1,.8-.32,6.63,6.63,0,0,1,.9-.12L77.69,7a3.92,3.92,0,0,0,.88-.14,1,1,0,0,0,.5-.32,1,1,0,0,0,.16-.62,4.28,4.28,0,0,0-.06-.67,1.46,1.46,0,0,0-.27-.64,1.58,1.58,0,0,0-.64-.48,2.81,2.81,0,0,0-1.13-.19,2.59,2.59,0,0,0-1.76.55,2.18,2.18,0,0,0-.7,1.56h-.28A2.88,2.88,0,0,1,74.6,5.11ZM79.2,6.8a.88.88,0,0,1-.43.3,3.53,3.53,0,0,1-.67.16,7.07,7.07,0,0,1-.82.07l-.86,0a6.66,6.66,0,0,0-.82.1,1.94,1.94,0,0,0-.71.28,1.44,1.44,0,0,0-.49.56,2.06,2.06,0,0,0-.18.93,1.83,1.83,0,0,0,.11.61,1.28,1.28,0,0,0,.36.53,1.94,1.94,0,0,0,.65.38,2.88,2.88,0,0,0,1,.15,3.09,3.09,0,0,0,1.25-.24,2.81,2.81,0,0,0,.92-.62A2.55,2.55,0,0,0,79,9.16a2.93,2.93,0,0,0,.19-1V6.8Z"/><path class="cls-1" d="M83.38,3.83V5.61h0a2.55,2.55,0,0,1,.31-.77,2.43,2.43,0,0,1,1.31-1,3,3,0,0,1,1-.15,3,3,0,0,1,1,.17,2.19,2.19,0,0,1,1.34,1.31,3,3,0,0,1,.19,1.11V11h-.28V6.29a2.8,2.8,0,0,0-.18-1.07,2,2,0,0,0-.5-.73,2,2,0,0,0-.73-.42A2.85,2.85,0,0,0,86,3.94a2.5,2.5,0,0,0-1.13.25,2.41,2.41,0,0,0-.82.66,2.88,2.88,0,0,0-.5,1A3.91,3.91,0,0,0,83.38,7V11h-.28V3.83Z"/><path class="cls-1" d="M97.15,3.83l-3.32,8.65a1.66,1.66,0,0,1-.34.57,1.29,1.29,0,0,1-.43.3,1.7,1.7,0,0,1-.53.12l-.61,0v-.28l.62,0a1.26,1.26,0,0,0,.45-.11.94.94,0,0,0,.34-.28,2,2,0,0,0,.27-.51L94.13,11l-3-7.13h.29l2.86,6.82,2.58-6.82Z"/><path class="cls-1" d="M1.81,39.55H.52V33.29h1.3v.22h-1v5.82h1Z"/><path class="cls-1" d="M6.36,34.24s0,0-.07,0A6.77,6.77,0,0,1,5.19,36l1.3.94-.13.18c-.22-.18-.83-.64-1.19-.9v3H4.95v-3a8,8,0,0,1-1.28,1.11.82.82,0,0,0-.15-.15A7.39,7.39,0,0,0,6,34.36H3.67v-.21H4.95V32.79l.32,0s0,.06-.11.07v1.27h1l0,0ZM8.3,38.81h1.82V39h-4v-.21h2V35.46H6.38v-.21h1.7V32.83l.32,0s0,.06-.11.07v2.33H10v.21H8.3Z"/><path class="cls-1" d="M18.16,36.38v2.87H18v-.32H14.5v.3h-.21V36.72a8.48,8.48,0,0,1-2,.92.68.68,0,0,0-.12-.19A8.29,8.29,0,0,0,15,35.94a7.33,7.33,0,0,0-1.28-1.12l.16-.12a6.76,6.76,0,0,1,1.28,1.11,6.35,6.35,0,0,0,1.62-2.07H14.29a8,8,0,0,1-1.87,1.6.76.76,0,0,0-.15-.15,7.09,7.09,0,0,0,2.44-2.4l.33,0s-.06.07-.13.07a6.58,6.58,0,0,1-.44.62h2.48l0,0,.15.09a.13.13,0,0,1-.06,0,6.91,6.91,0,0,1-2.28,2.75ZM14.5,38.73H18V36.59H14.5Z"/><path class="cls-1" d="M20.51,33.29h1.3v6.25h-1.3v-.22h1V33.51h-1Z"/><path class="cls-1" d="M1.51,47.32c.22.27.84,1.11,1,1.32l-.15.19c-.14-.24-.57-.86-.83-1.22v3.61H1.3v-4A9.26,9.26,0,0,1,.16,49.8.61.61,0,0,0,0,49.63a9.07,9.07,0,0,0,1.25-3H.15v-.21H1.3v-1.6l.32,0s0,.06-.11.07v1.5h1v.21h-1Zm5,.7H4.76a6.65,6.65,0,0,0,1.91,2.3,1,1,0,0,0-.17.17,7.4,7.4,0,0,1-1.89-2.38v3.1H4.4V48.13a6.91,6.91,0,0,1-2.07,2.51.56.56,0,0,0-.15-.16A6.31,6.31,0,0,0,4.24,48H2.43v-.21h2V46.34H3.2a5.66,5.66,0,0,1-.5,1.18l-.18-.09A7.24,7.24,0,0,0,3.31,45l.32.07s0,.06-.13.06c-.06.27-.13.61-.24,1H4.4V44.79l.32,0s0,.06-.11.07v1.24H6.27v.21H4.61v1.47H6.47Z"/><path class="cls-1" d="M15,46.46H12.75c.2,2.49.85,4.58,1.77,4.58.24,0,.34-.41.38-1.42a.74.74,0,0,0,.2.1c-.06,1.14-.17,1.53-.59,1.53-1.11,0-1.76-2.21-2-4.8H8.69v-.21h3.84c0-.47-.06-.95-.06-1.42l.33,0s0,.07-.1.08c0,.45,0,.89,0,1.32H15ZM10.61,48v2.44L12.34,50l0,.18L9,51a.11.11,0,0,1-.08.1l-.13-.27,1.65-.39V48H8.93v-.21h3.22V48Zm2.88-3.12a6.76,6.76,0,0,1,1.13.94l-.15.16a6.84,6.84,0,0,0-1.13-1Z"/><path class="cls-1" d="M20.56,44.8s-.06.06-.11.08a8.87,8.87,0,0,0,3.17,2.59.71.71,0,0,0-.14.17A9.3,9.3,0,0,1,20.28,45a8.71,8.71,0,0,1-3.06,2.63l-.13-.16a8,8,0,0,0,3.07-2.72Zm-3.15,3.85v-.21h5.9v.21H19.88a.16.16,0,0,1-.13.06,20.16,20.16,0,0,1-1,2l3.68-.1a11,11,0,0,0-1.23-1.25l.16-.1a10.14,10.14,0,0,1,1.75,1.91l-.17.12c-.1-.15-.22-.32-.36-.5-1.79.08-3.73.15-4.88.18,0,.06,0,.08-.09.09l-.1-.31,1,0a16.62,16.62,0,0,0,1-2.05Zm1.17-1.58H22v.21H18.58Z"/><path class="cls-1" d="M28.29,46.24s0,0-.07,0A6.77,6.77,0,0,1,27.11,48l1.3.94-.13.18c-.22-.18-.83-.64-1.19-.9v3h-.21v-3a8,8,0,0,1-1.28,1.11.82.82,0,0,0-.15-.15A7.39,7.39,0,0,0,28,46.36H25.6v-.21h1.27V44.79l.32,0s0,.06-.11.07v1.27h1l0,0Zm1.93,4.57H32V51H28v-.21h2V47.46h-1.7v-.21H30V44.83l.32,0s0,.06-.11.07v2.33H31.9v.21H30.22Z"/><path class="cls-1" d="M39,46v4.66h-.22v-.4H34.1V50h4.65V46.21H34.19V46Z"/><path class="cls-1" d="M47.22,47.24a.1.1,0,0,1-.06,0A4.76,4.76,0,0,1,43.29,51a1.44,1.44,0,0,0-.12-.2,4.54,4.54,0,0,0,3.72-3.4H42v-.22h5l0,0Zm-.57-1.67h-4v-.22h4Z"/><path class="cls-1" d="M49.89,47.76h5.85V48h-5.6a.27.27,0,0,1-.2.13Z"/><path class="cls-1" d="M58.28,47.06a11.23,11.23,0,0,1,1.95.62l-.09.22a11.52,11.52,0,0,0-1.94-.62Zm.58,3.54a7.59,7.59,0,0,0,4.83-4.22l.19.13a7.71,7.71,0,0,1-4.74,4.22.15.15,0,0,1-.06.16ZM59,45.32a11.13,11.13,0,0,1,1.93.68l-.09.21a11.25,11.25,0,0,0-1.91-.68Zm3.34-.24a6,6,0,0,1,1,1l-.17.13a6.1,6.1,0,0,0-1-1Zm.91-.46a6,6,0,0,1,1,1L64,45.8a6.31,6.31,0,0,0-.95-1Z"/><path class="cls-1" d="M71.21,50.26v.21H66.45v-.21h2.94c.12-.76.34-2.36.41-3.14H67v-.21h2.91l.2.11A.08.08,0,0,1,70,47c-.09.78-.32,2.41-.45,3.21Z"/><path class="cls-1" d="M76.19,48a.6.6,0,1,1-.6-.6A.6.6,0,0,1,76.19,48Z"/><path class="cls-1" d="M85,46.39l.22.15s0,0-.09.06a6.55,6.55,0,0,1-1.55,2.28l-.17-.14a5.77,5.77,0,0,0,1.43-2l-3.21.84v2c0,.78.55,1,1.13,1h1.18c.29,0,.74,0,1-.06v.23c-.27,0-.76,0-1,0h-1.2a1.19,1.19,0,0,1-1.35-1.25V47.6l-1.91.49-.06-.22,2-.5V45.16l.38,0c0,.08-.07.11-.15.11v2l3.3-.86Zm-.45-.23a6.35,6.35,0,0,0-.92-1.05l.15-.14A6.37,6.37,0,0,1,84.68,46Zm.95-.38a5.82,5.82,0,0,0-.92-1.05l.15-.14a5.39,5.39,0,0,1,.93,1.06Z"/><path class="cls-1" d="M92.84,46v4.55h-.22V50H88.32v.49H88.1V46Zm-.22,3.86V46.18H88.32v3.63Z"/><path class="cls-1" d="M1.81,75.55H.52V69.29h1.3v.22h-1v5.82h1Z"/><path class="cls-1" d="M6.8,72.42H4.55a5.28,5.28,0,0,1-.62,2.82.66.66,0,0,0-.17-.14,4.86,4.86,0,0,0,.58-2.67v-2H6.8ZM7,69.23v.21H4v-.21Zm-.46,1.38h-2v1.6h2Zm3.81.63v.21H9.46v3.79H9.25V71.45H7.6a5.6,5.6,0,0,1-1.15,3.76.55.55,0,0,0-.16-.15,5.33,5.33,0,0,0,1.1-3.67V69.57l.25.09A11.86,11.86,0,0,0,10,68.89l.23.19a.07.07,0,0,1-.06,0h0a15.13,15.13,0,0,1-2.49.76v1.38Z"/><path class="cls-1" d="M18.46,70.22h-4a8.26,8.26,0,0,1-.88,1.49h.06s0,.06-.11.06v3.45h-.21V72.05a6.48,6.48,0,0,1-1,.94,1.38,1.38,0,0,0-.14-.15,5.77,5.77,0,0,0,1.11-1.11v-.08h0a7.91,7.91,0,0,0,.87-1.44H12.32V70h2a9,9,0,0,0,.43-1.22l.32.08s-.06.06-.13.06A9.47,9.47,0,0,1,14.55,70h3.92Zm-2.08,4.64h2.09v.21H14.13v-.21h2V72.44H14.42v-.21h1.76V70.66l.32,0s0,.06-.11.07v1.47H18.2v.21H16.38Z"/><path class="cls-1" d="M21.88,70.78v2.44l.93-.4,0,.19-2,.89a.11.11,0,0,1-.06.1l-.15-.26,1.06-.43V70.78h-1v-.21h1V68.86l.32,0s0,.06-.11.07v1.62h.88v.21Zm1.74,3.59c0,.37.11.48.63.48h2.07c.46,0,.53-.23.57-1.14a.56.56,0,0,0,.21.1c-.06,1-.15,1.25-.81,1.25h-2c-.67,0-.88-.13-.88-.69v-2.7l-.81.35-.09-.19.9-.38v-2l.32,0s0,.06-.11.07v1.81l1.31-.56v-2l.32,0s0,.06-.1.07V70.7l1.41-.61.06-.06.19.08,0,0A24.32,24.32,0,0,1,26.67,73a.4.4,0,0,1-.41.35h-.6a.77.77,0,0,0-.07-.22h.61c.13,0,.22,0,.27-.24a22.5,22.5,0,0,0,.08-2.61l-1.4.6v2.79h-.21V71l-1.31.56Z"/><path class="cls-1" d="M28.82,69.29h1.3v6.25h-1.3v-.22h1V69.51h-1Z"/><path class="cls-1" d="M1,81.7H5.65v.39H1Zm0,1.37H5.65v.39H3.51V86.6H3.09V83.45H1Z"/><path class="cls-1" d="M9.63,86.67V81.73h0l-.8.5L8.72,82l.91-.58h.24v5.2Z"/><path class="cls-1" d="M13,84.1c0-2,.83-2.72,1.62-2.72s1.51.75,1.51,2.61-.65,2.77-1.62,2.77C13.24,86.76,13,84.93,13,84.1ZM15.86,84c0-1.44-.4-2.45-1.29-2.45s-1.33,1-1.33,2.45c0,1,.27,2.51,1.3,2.51S15.86,85.41,15.86,84Z"/><path class="cls-1" d="M18.69,84.08A1.53,1.53,0,0,1,20,83.3,1.51,1.51,0,0,1,21.55,85,1.62,1.62,0,0,1,20,86.76c-.85,0-1.6-.71-1.6-2.16,0-2.08,1.38-3.21,2.68-3.21v.24a2.92,2.92,0,0,0-.57.06,2.68,2.68,0,0,0-1.85,2.4Zm2.61.9A1.31,1.31,0,0,0,20,83.51a1.43,1.43,0,0,0-1.31,1.14c0,.85.35,1.9,1.38,1.9C20.8,86.55,21.29,85.89,21.29,85Z"/><path class="cls-1" d="M23.86,84.37H25.7v.26H23.86Z"/><path class="cls-1" d="M28.06,84.1c0-2,.83-2.72,1.62-2.72s1.51.75,1.51,2.61-.65,2.77-1.62,2.77C28.31,86.76,28.06,84.93,28.06,84.1ZM30.93,84c0-1.44-.4-2.45-1.29-2.45s-1.33,1-1.33,2.45c0,1,.27,2.51,1.3,2.51S30.93,85.41,30.93,84Z"/><path class="cls-1" d="M33.53,84.1c0-2,.83-2.72,1.62-2.72s1.51.75,1.51,2.61S36,86.76,35,86.76C33.78,86.76,33.53,84.93,33.53,84.1ZM36.4,84c0-1.44-.4-2.45-1.29-2.45s-1.33,1-1.33,2.45c0,1,.27,2.51,1.3,2.51S36.4,85.41,36.4,84Z"/><path class="cls-1" d="M40.35,83.83a1.39,1.39,0,0,1,1.16,1.4,1.5,1.5,0,0,1-1.66,1.53,2.09,2.09,0,0,1-1.16-.35l.14-.2a1.86,1.86,0,0,0,1.06.35,1.26,1.26,0,0,0,1.36-1.3c0-.92-.78-1.3-1.56-1.3h-.3v-.21h.32A1.24,1.24,0,0,0,41,82.61a1,1,0,0,0-1-1A1.55,1.55,0,0,0,39,82l-.13-.19A1.86,1.86,0,0,1,40,81.38a1.14,1.14,0,0,1,1.27,1.2,1.33,1.33,0,0,1-1,1.23Z"/><path class="cls-1" d="M46.67,86.67H43.72v-.16l.43-.48c.69-.74,2.1-2,2.1-3.17,0-.62-.25-1.27-1.16-1.27a1.62,1.62,0,0,0-1.08.48l-.12-.17a1.8,1.8,0,0,1,1.25-.51,1.32,1.32,0,0,1,1.37,1.4c0,1.05-.74,1.91-2.11,3.28l-.36.38h2.61Z"/><path class="cls-1" d="M5.81,97.07H3.66a7.16,7.16,0,0,0,2.85,1.85.9.9,0,0,0-.15.18,7.85,7.85,0,0,1-3-2h0v2.16H3.18V97.07h0a7.72,7.72,0,0,1-2.91,2,.94.94,0,0,0-.15-.17,7.39,7.39,0,0,0,2.81-1.83H.9V94.57H3.18v-.8H.25v-.21H3.18V92.8l.32,0s0,.06-.11.07v.66h3v.21h-3v.8H5.81Zm-4.7-2.3v.93H3.18v-.93Zm0,1.14v.95H3.18v-.95ZM5.6,94.78H3.39v.93H5.6Zm0,2.09v-.95H3.39v.95Z"/><path class="cls-1" d="M10.52,97.37s-.06.06-.13.06A6,6,0,0,1,9,99a.72.72,0,0,0-.16-.13,4.93,4.93,0,0,0,1.4-1.54ZM12,93.76h3V94H8.87v-.21h2.94v-1l.32,0s0,.06-.11.07Zm2.11,3H12v2.16c0,.2-.06.27-.23.32a7.6,7.6,0,0,1-1.25,0,1.05,1.05,0,0,0-.1-.2h.69c.68,0,.69,0,.69-.15V96.72h-2V94.78h4.31ZM10,95v1.52h3.89V95Zm4.78,4a13.21,13.21,0,0,0-1.42-1.6l.18-.09A13.69,13.69,0,0,1,15,98.87Z"/><path class="cls-1" d="M19,95h.44a8.81,8.81,0,0,0,1.26-2l.29.11s-.07.06-.14.06A8.73,8.73,0,0,1,19.7,95h1.2v.21H19.52a8.32,8.32,0,0,1-1,1h1.94v2.9h-.21v-.3h-2v.46H18V96.61a8.45,8.45,0,0,1-.75.47l-.15-.14a7.31,7.31,0,0,0,.9-.57v-.15h.21a8.73,8.73,0,0,0,1-1H17.18V95h1.6V93.91H17.52V93.7h1.26v-.92l.32,0s0,.06-.11.07v.82h1.06v.21H19Zm1.28,1.37h-2l0,0v1h2Zm-2,2.18h2v-1h-2Zm3-5.39h2.22l.15.12a.11.11,0,0,1-.06,0c-.29.6-.71,1.39-1.13,2.15.81.72,1.19,1.3,1.19,1.84,0,1-.64,1-1.12,1h-.38a.48.48,0,0,0-.1-.22,5.24,5.24,0,0,0,.55,0c.37,0,.83,0,.83-.77,0-.52-.4-1.07-1.23-1.81.43-.76.82-1.51,1.11-2.12H21.44v5.82h-.22Z"/><path class="cls-1" d="M25.59,94.8a5.23,5.23,0,0,1,1.24.77l-.13.17A5.12,5.12,0,0,0,25.46,95ZM25.67,99a21.51,21.51,0,0,0,1.18-2.31l.16.13A23.13,23.13,0,0,1,25.9,99a.11.11,0,0,1,0,.08.09.09,0,0,1,0,.06ZM26,92.89a4.9,4.9,0,0,1,1.2.84l-.13.17a5.29,5.29,0,0,0-1.2-.86Zm6,2.42H30.55A3.63,3.63,0,0,0,32.09,97a.71.71,0,0,0-.15.17,4.14,4.14,0,0,1-1.6-1.83H28.71a5.19,5.19,0,0,1-1.6,1.88.89.89,0,0,0-.15-.17,4.42,4.42,0,0,0,1.54-1.71H27V95.1h1.37V94H27.33v-.21h1.05v-1l.31,0s0,.06-.1.07v.86h1.79v-1l.31,0s0,.06-.1.07v.86h1.21V94H30.6V95.1H32Zm-3.8,3.47c0,.19.09.23.59.23H30.7c.41,0,.47-.11.5-.89a.69.69,0,0,0,.21.1c0,.82-.14,1-.71,1H28.82c-.64,0-.83-.06-.83-.44V97.46h2.47v-1H28.19v-.21h2.48v1.44H28.2ZM28.59,94V95.1h1.79V94Z"/><path class="cls-1" d="M40.44,98.56v.21H34.69v.48h-.21v-6H40.3v.21h-5.6v5.06ZM39.26,94s-.09.06-.15,0a11.88,11.88,0,0,1-1.28,1.86,13.28,13.28,0,0,1,1.81,1.65l-.18.15a13.09,13.09,0,0,0-1.77-1.65,11.19,11.19,0,0,1-2.21,2l-.17-.14a10.53,10.53,0,0,0,2.21-2,21,21,0,0,0-1.91-1.32l.16-.13a20.47,20.47,0,0,1,1.88,1.29A12.08,12.08,0,0,0,39,93.89Z"/><path class="cls-1" d="M44.84,96.13s-.06.06-.13.06a10.62,10.62,0,0,1-1.86,3l-.16-.14a9.89,9.89,0,0,0,1.85-3Zm1.07-1.53h3v.21H42.73V94.6h3V92.84l.32,0s0,.06-.11.07Zm2.77,4.61a15.51,15.51,0,0,0-1.83-3.07l.19-.08a16.1,16.1,0,0,1,1.86,3.05Z"/><path class="cls-1" d="M57.48,94.63H54.65a6.64,6.64,0,0,0,3,3.22.82.82,0,0,0-.15.17,7.06,7.06,0,0,1-3-3.29v2.82h1.56v.21H54.49v1.47h-.21V97.76H52.71v-.21h1.58V94.74a7.73,7.73,0,0,1-3,3.28.86.86,0,0,0-.15-.17,7.32,7.32,0,0,0,3-3.23H51.33v-.21h3V92.8l.32,0s0,.06-.11.07v1.52h3Z"/><path class="cls-1" d="M66.09,94.86H63.26a9.08,9.08,0,0,0,3,3.33,1,1,0,0,0-.17.17,9.75,9.75,0,0,1-3-3.32v4.18h-.21V95a8.86,8.86,0,0,1-3,3.35.89.89,0,0,0-.16-.17,8.3,8.3,0,0,0,3-3.35H60v-.21h2.94V92.8l.32,0s0,.06-.11.07v1.75h3Z"/><path class="cls-1" d="M74.27,93.47v.22h-1.9l-.27,1.82a4.29,4.29,0,0,1,.48,0A1.56,1.56,0,0,1,74.29,97a1.65,1.65,0,0,1-1.65,1.73,2,2,0,0,1-1.16-.35l.13-.2a2.28,2.28,0,0,0,1,.35A1.4,1.4,0,0,0,74,97.09a1.33,1.33,0,0,0-1.48-1.41,3.75,3.75,0,0,0-.73.06l.34-2.28Z"/><path class="cls-1" d="M76.75,96.37h1.83v.26H76.75Z"/><path class="cls-1" d="M83.58,96.06a1.64,1.64,0,0,1-1.37.72,1.45,1.45,0,0,1-1.44-1.57,1.67,1.67,0,0,1,1.59-1.83c.8,0,1.48.7,1.48,2.16,0,2-1.24,3.26-2.65,3.21v-.24a3.12,3.12,0,0,0,.57,0c.82-.16,1.6-.83,1.83-2.42ZM81,95.19a1.25,1.25,0,0,0,1.21,1.39,1.4,1.4,0,0,0,1.35-1c0-1-.33-2-1.29-2C81.53,93.59,81,94.31,81,95.19Z"/><path class="cls-1" d="M86.15,96.37H88v.26H86.15Z"/><path class="cls-1" d="M92.65,98.67H89.71v-.16l.43-.48c.69-.74,2.1-2,2.1-3.17,0-.62-.25-1.27-1.16-1.27a1.62,1.62,0,0,0-1.08.48l-.12-.17a1.8,1.8,0,0,1,1.25-.51,1.32,1.32,0,0,1,1.37,1.4c0,1.05-.74,1.91-2.11,3.28l-.36.38h2.61Z"/><path class="cls-1" d="M94.88,96.1c0-2,.83-2.72,1.62-2.72S98,94.13,98,96s-.65,2.77-1.62,2.77C95.13,98.76,94.88,96.93,94.88,96.1ZM97.75,96c0-1.44-.4-2.45-1.29-2.45s-1.33,1-1.33,2.45c0,1,.27,2.51,1.3,2.51S97.75,97.41,97.75,96Z"/><path class="cls-1" d="M1.81,123.55H.52v-6.25h1.3v.22h-1v5.82h1Z"/><path class="cls-1" d="M6.33,118v.21H3.71V118ZM4,119.13v-.21H6.09v.21Zm0,.94v-.21H6.09v.21Zm2.05.73v2H4.25v.37H4V120.8Zm0-3.73v.21h-2v-.21ZM5.88,121H4.25v1.58H5.88Zm1.34-3.76v.66a2,2,0,0,1-.94,1.76.77.77,0,0,0-.14-.16,1.76,1.76,0,0,0,.87-1.6V117H9.1v1.9c0,.13,0,.15.19.15h.54c.16,0,.18-.09.2-.85a.6.6,0,0,0,.2.09c0,.78-.08,1-.37,1H9.28c-.31,0-.39-.06-.39-.36v-1.69Zm2.39,2.64.15.08a.09.09,0,0,1,0,0,4.48,4.48,0,0,1-1.31,2.07,4.45,4.45,0,0,0,1.83,1,1,1,0,0,0-.15.19,4.88,4.88,0,0,1-1.85-1,5.48,5.48,0,0,1-2,1,.57.57,0,0,0-.13-.19,5.16,5.16,0,0,0,1.93-1,4.8,4.8,0,0,1-1.18-1.88l.2-.06A4.55,4.55,0,0,0,8.24,122a4.29,4.29,0,0,0,1.22-1.83h-3v-.21H9.62Z"/><path class="cls-1" d="M12.44,122.68h6.31v.21H12.44Zm6.12-4.32v.21H12.7v-.21h2.77V116.8l.32,0s0,.06-.11.07v1.46Zm-4.68.69a10.29,10.29,0,0,1,.73,3.12l-.21,0a10.63,10.63,0,0,0-.71-3.1Zm3.73,0a.15.15,0,0,1-.14.08,26.41,26.41,0,0,1-1,3.3l-.17,0a25.1,25.1,0,0,0,.92-3.4Z"/><path class="cls-1" d="M27,121.33v.21H24.26v1.69H24v-1.69h-3.4v-.21h1.22v-2H24V118h-2a6.46,6.46,0,0,1-1.18,1.48,1.09,1.09,0,0,0-.17-.12,6.81,6.81,0,0,0,1.72-2.58l.3.1s-.07.06-.13.06a8.09,8.09,0,0,1-.41.86h4.54V118H24.26v1.37h2.31v.21H24.26v1.76Zm-4.94,0h2v-1.76h-2Z"/><path class="cls-1" d="M34.23,117.21v5.58c0,.27-.08.37-.29.41a10.15,10.15,0,0,1-1.45,0,1.41,1.41,0,0,0-.1-.22h.9c.69,0,.74,0,.74-.23v-1.88H30.18a4.19,4.19,0,0,1-1.27,2.33.63.63,0,0,0-.15-.16,4.85,4.85,0,0,0,1.35-3.83v-2Zm-3.89,1.95a9.27,9.27,0,0,1-.1,1.55H34v-1.55ZM34,117.42H30.33v1.53H34Z"/><path class="cls-1" d="M37.79,117.29h4.38V123H42v-.41H38v.46h-.21Zm4.17.21H38v2.34h4Zm-4,4.94h4V120H38Z"/><path class="cls-1" d="M44.8,117.29h1.3v6.25H44.8v-.22h1v-5.82h-1Z"/><path class="cls-1" d="M3.11,134.67H.17v-.16L.6,134c.69-.74,2.1-2,2.1-3.17,0-.62-.25-1.27-1.16-1.27a1.62,1.62,0,0,0-1.08.48l-.12-.17a1.8,1.8,0,0,1,1.25-.51A1.32,1.32,0,0,1,3,130.78c0,1.05-.74,1.91-2.11,3.28l-.36.38H3.11Z"/><path class="cls-1" d="M5.34,132.1c0-2,.83-2.72,1.62-2.72s1.51.75,1.51,2.61-.65,2.77-1.62,2.77C5.59,134.76,5.34,132.93,5.34,132.1ZM8.21,132c0-1.44-.4-2.45-1.29-2.45s-1.33,1-1.33,2.45c0,1,.27,2.51,1.3,2.51S8.21,133.41,8.21,132Z"/><path class="cls-1" d="M11.83,134.67v-4.94h0l-.8.5-.09-.19.91-.58h.24v5.2Z"/><path class="cls-1" d="M15.43,132.08a1.53,1.53,0,0,1,1.34-.78A1.51,1.51,0,0,1,18.3,133a1.62,1.62,0,0,1-1.54,1.79c-.85,0-1.6-.71-1.6-2.16,0-2.08,1.38-3.21,2.68-3.21v.24a2.92,2.92,0,0,0-.57.06,2.68,2.68,0,0,0-1.85,2.4ZM18,133a1.31,1.31,0,0,0-1.32-1.47,1.43,1.43,0,0,0-1.31,1.14c0,.85.35,1.9,1.38,1.9C17.54,134.55,18,133.89,18,133Z"/><path class="cls-1" d="M26.94,133.33v.21H24.18v1.69H24v-1.69h-3.4v-.21h1.22v-2H24V130H22a6.46,6.46,0,0,1-1.18,1.48,1.09,1.09,0,0,0-.17-.12,6.81,6.81,0,0,0,1.72-2.58l.3.1s-.07.06-.13.06a8.09,8.09,0,0,1-.41.86h4.54V130H24.18v1.37h2.31v.21H24.18v1.76Zm-4.94,0h2v-1.76H22Z"/><path class="cls-1" d="M30.33,134.67v-4.94h0l-.8.5-.09-.19.91-.58h.24v5.2Z"/><path class="cls-1" d="M34.82,134.67v-4.94h0l-.8.5-.09-.19.91-.58h.24v5.2Z"/><path class="cls-1" d="M43.27,129.21v5.58c0,.27-.08.37-.29.41a10.15,10.15,0,0,1-1.45,0,1.49,1.49,0,0,0-.1-.22h.9c.69,0,.74,0,.74-.23v-1.88H39.22A4.19,4.19,0,0,1,38,135.25a.63.63,0,0,0-.15-.16,4.85,4.85,0,0,0,1.35-3.83v-2Zm-3.89,1.95a9.27,9.27,0,0,1-.1,1.55h3.79v-1.55Zm3.68-1.74H39.37v1.53h3.68Z"/><path class="cls-1" d="M47.35,134.67v-4.94h0l-.8.5-.09-.19.91-.58h.24v5.2Z"/><path class="cls-1" d="M51.35,129.29h4.38V135h-.21v-.41h-4v.46h-.21Zm4.17.21h-4v2.34h4Zm-4,4.94h4V132h-4Z"/><path class="cls-1" d="M1.81,159.55H.52v-6.25h1.3v.22h-1v5.82h1Z"/><path class="cls-1" d="M4.6,154.85a9.37,9.37,0,0,1-1.11,1.48l-.14-.16a9.93,9.93,0,0,0,2-3.31l.29.1s-.07.06-.13.06a11.26,11.26,0,0,1-.76,1.58l.15,0s0,.06-.1.06v4.55H4.6Zm5.3.12-2.46.29c.34,2.09,1.07,3.76,2,3.76.26,0,.36-.39.41-1.39a.8.8,0,0,0,.2.09c-.07,1.13-.19,1.51-.62,1.51-1,0-1.8-1.77-2.15-3.94l-2,.23,0-.2,2-.23A17.15,17.15,0,0,1,7,152.83h.32s0,.08-.11.08a16.36,16.36,0,0,0,.17,2.14l2.46-.29Zm-1.75-2A10,10,0,0,1,9.53,154l-.15.13A9.58,9.58,0,0,0,8,153.09Z"/><path class="cls-1" d="M15.61,155.95a5.35,5.35,0,0,0,.7,1.46A12.73,12.73,0,0,0,18,156.29l.23.14s-.06,0-.11,0a14.33,14.33,0,0,1-1.67,1.09,4.26,4.26,0,0,0,2.27,1.53.75.75,0,0,0-.14.18,4.63,4.63,0,0,1-3.13-3.31h0A6.35,6.35,0,0,1,14,157l.1,0s0,.06-.1.06v1.75l2.25-.36v.18c-1.14.2-2.37.41-3.12.52a.1.1,0,0,1-.07.1l-.15-.28.87-.13v-1.74a9.18,9.18,0,0,1-1.5.67.9.9,0,0,0-.15-.18,8.36,8.36,0,0,0,3-1.63H12.26v-.21h3v-.91H13.08v-.21H15.3v-.86H12.64v-.21H15.3v-.76l.32,0s0,.06-.11.07v.66h2.75v.21H15.51v.86h2.27v.21H15.51v.91h3.07v.21Z"/><path class="cls-1" d="M24.21,153.41H23.5v5.82h-.21v-1.56c-.91.15-1.84.31-2.43.39a.12.12,0,0,1-.08.09l-.11-.28.65-.09v-4.37h-.64v-.21h3.54Zm-.92,1.24v-1.24H21.53v1.24Zm-1.76.21v1.25h1.76v-1.25Zm0,1.46v1.43l1.76-.27v-1.16Zm5.17-2.44.15.06a.08.08,0,0,1,0,0,9,9,0,0,1-1.24,3.47,4.13,4.13,0,0,0,1.58,1.6.9.9,0,0,0-.16.17,4.39,4.39,0,0,1-1.55-1.58,5.52,5.52,0,0,1-1.58,1.57.69.69,0,0,0-.15-.17,5.26,5.26,0,0,0,1.62-1.6,10.38,10.38,0,0,1-1-3.21l.2,0a10.06,10.06,0,0,0,1,3,8.66,8.66,0,0,0,1.13-3.15H24v-.21H26.7Z"/><path class="cls-1" d="M31.47,153.71a.15.15,0,0,1-.13,0,21,21,0,0,1-1.5,2.21l1.5,0a7.38,7.38,0,0,0-.53-.82L31,155a6.49,6.49,0,0,1,.83,1.41l-.2.1a3.58,3.58,0,0,0-.2-.43l-.77,0v3.1h-.21v-3.08l-1.15,0a.11.11,0,0,1-.08.08l-.1-.3h.48c.18-.22.39-.49.59-.78a6.8,6.8,0,0,0-1-1.09l.14-.11.27.25a11.7,11.7,0,0,0,.76-1.46l.28.13s-.06,0-.12,0a12.29,12.29,0,0,1-.79,1.41,5.66,5.66,0,0,1,.54.64,16.17,16.17,0,0,0,.88-1.44Zm-2.31,4.79a6.24,6.24,0,0,0,.52-1.74l.31.08s0,.06-.13.06a6.26,6.26,0,0,1-.52,1.69Zm2.4-.41a5.14,5.14,0,0,0-.45-1.29l.18-.06a4.86,4.86,0,0,1,.47,1.28Zm2.16-4.5H35.6v.21H31.85v-.21h1.66v-.8l.32,0s0,.06-.11.07Zm-1.87,2.58v-1h3.67v1h-.21v-.82H32.06v.82Zm3.3.27v1.77c0,.14,0,.21-.15.25a3,3,0,0,1-.74,0,.57.57,0,0,0-.08-.2h.43c.29,0,.33,0,.33-.1v-1.57H33.72v2.58h-.21v-2.58H32.36v1.88h-.21v-2.09h1.37v-.8l.32,0s0,.06-.11.07v.7Zm-2.3-1.34a4.52,4.52,0,0,0-.41-1.11l.19-.06a4.34,4.34,0,0,1,.43,1.09ZM34.93,154a.15.15,0,0,1-.13,0,8.3,8.3,0,0,1-.55,1.05l-.17-.08a7.53,7.53,0,0,0,.55-1.14Z"/><path class="cls-1" d="M38.83,155.72a9.49,9.49,0,0,1-1,1,1,1,0,0,0-.16-.15,9.18,9.18,0,0,0,1.93-2.23l.29.12a.13.13,0,0,1-.13,0,9.63,9.63,0,0,1-.71,1l.11,0a.12.12,0,0,1-.11.06v3.67h-.21Zm.82-2.81s-.06.06-.13,0a9.78,9.78,0,0,1-1.69,1.53.74.74,0,0,0-.14-.15,7.33,7.33,0,0,0,1.67-1.54Zm3.8,3.07.16.09a.11.11,0,0,1-.06,0,4.78,4.78,0,0,1-1.52,2,5.15,5.15,0,0,0,2.23,1,.75.75,0,0,0-.15.19,5.22,5.22,0,0,1-2.26-1,6.88,6.88,0,0,1-2.18,1,.9.9,0,0,0-.13-.2,6.62,6.62,0,0,0,2.14-1,4.46,4.46,0,0,1-1.23-1.82l.14,0H40V156h3.49Zm-2.58-2.67V154a1.92,1.92,0,0,1-1,1.77.56.56,0,0,0-.14-.17,1.7,1.7,0,0,0,1-1.6v-.92H43v1.83c0,.29,0,.29.24.29h.34c.2,0,.31,0,.34-.17a4.26,4.26,0,0,0,0-.57.48.48,0,0,0,.18.08c0,.72-.06.84-.53.84h-.38c-.44,0-.44-.15-.44-.55v-1.55Zm-.22,2.89a4.18,4.18,0,0,0,1.21,1.74,4.51,4.51,0,0,0,1.42-1.74Z"/><path class="cls-1" d="M46.2,153.29h1.3v6.25H46.2v-.22h1v-5.82h-1Z"/><path class="cls-1" d="M1.67,166.67s0,.07-.13.07a7.4,7.4,0,0,1-1.34,3L0,169.6a6.82,6.82,0,0,0,1.32-3Zm1.55-1.77.32,0s0,.06-.11.07v5.81c0,.27-.09.35-.27.39a8.29,8.29,0,0,1-1.24,0,1.22,1.22,0,0,0-.1-.23h.67c.72,0,.74,0,.74-.2Zm3.19,4.92A11.24,11.24,0,0,0,5,166.66l.19-.08a11.28,11.28,0,0,1,1.48,3.15Z"/><path class="cls-1" d="M12.84,170.63H9.27V171H9.06v-1.42l.32,0s0,.06-.11.07v.74h1.56v-1l.31,0s0,.06-.1.07v.94h1.59v-.88l.31,0s0,.06-.1.07Zm2.1-2.23H9.82v.68h4.73l.13,0,0,.08c-.11,1.29-.21,1.76-.4,1.94s-.26.12-.55.12-.53,0-.86,0a.54.54,0,0,0-.07-.2c.46,0,.9,0,1,0s.22,0,.28-.06.25-.58.35-1.71H9.61V165.4h1.67a5.82,5.82,0,0,0,.34-.64l.29.11s-.06.06-.12.06-.17.32-.28.48h2.37v2.12H9.82v.66h5.12Zm-1.27-2.78H9.82v.75h3.84Zm-3.84,1.7h3.84v-.74H9.82Z"/><path class="cls-1" d="M22.57,168.14l-.91.35v2.4c0,.2-.06.27-.2.31a3.72,3.72,0,0,1-.82,0,1.26,1.26,0,0,0-.09-.2H21c.39,0,.41,0,.41-.14v-2.32l-1,.39a.11.11,0,0,1-.06.1l-.15-.27,1.25-.44V166.5H20.27v-.21h1.18V164.8l.32,0s0,.06-.1.07v1.39h.88v.21h-.88v1.78l.87-.32Zm4.12-2.63H24.26a12.61,12.61,0,0,1-.67,2.19h2.74v3.49h-.21v-.36H23.61v.4H23.4v-3.1a5.71,5.71,0,0,1-1.1,1.6.78.78,0,0,0-.17-.12,8.31,8.31,0,0,0,1.92-4.1H22.52v-.21h4.16Zm-.56,2.4H23.61v2.71h2.51Z"/><path class="cls-1" d="M30.29,170.22c0,.5.17.65.88.65h2.91c.67,0,.78-.28.86-1.33a.7.7,0,0,0,.22.1c-.09,1.08-.22,1.44-1.13,1.44h-2.8c-.87,0-1.15-.17-1.15-.88v-2.58l-1.24.41-.07-.18,1.31-.43v-2.14l.32,0s0,.06-.11.07v2l1.86-.61V164.8l.32,0s0,.06-.11.07v1.76l2-.66.09-.09.18.08a.11.11,0,0,1,0,0,9.73,9.73,0,0,1-.24,2.72.6.6,0,0,1-.58.46h-.81a.7.7,0,0,0-.08-.21h.58c.48,0,.57,0,.71-.36a8.8,8.8,0,0,0,.21-2.44l-2,.66v2.79h-.21v-2.72l-1.86.62Z"/><path class="cls-1" d="M1.81,195.55H.52v-6.25h1.3v.22h-1v5.82h1Z"/><path class="cls-1" d="M10.22,193v.21H9.47v1.29H9.26v-.34H7.12v.67c0,.25-.08.33-.25.37a6.73,6.73,0,0,1-1.13,0,1.18,1.18,0,0,0-.09-.23h.6c.65,0,.67,0,.67-.18v-.67H4.44V194H6.91v-.74h-3V193h3v-.69H4.52v-.21H6.91v-.6H4.75v-1.27H6.91v-.56H4v-.21H6.91v-.68l.32,0s0,.06-.11.07v.58h3v.21h-3v.56H9.38v1.27H7.12v.6H9.47v.9ZM5,191.3H6.91v-.85H5Zm4.21-.85H7.12v.85H9.17Zm-2.05,1.87V193H9.26v-.69ZM9.26,194v-.74H7.12V194Z"/><path class="cls-1" d="M18.72,193.45H16.05a7.11,7.11,0,0,0,2.82,1.48.68.68,0,0,0-.14.18,7.57,7.57,0,0,1-2.94-1.66h-.06v1.79h-.21v-1.79h-.06a7.2,7.2,0,0,1-2.9,1.63.94.94,0,0,0-.15-.19,7,7,0,0,0,2.75-1.44h-2.6v-.21h2.95v-.74H13.25v-.21h2.26v-.73H12.89v-.21h1.78a3.33,3.33,0,0,0-.46-.88l.18-.06a3.14,3.14,0,0,1,.47.87l-.17.07h3.75v.21H15.72v.73h2.35v.21H15.72v.74h3Zm0-3.28v.21H12.6v-.21h2.22v-1.39l.34,0c0,.06-.06.1-.13.1v1.25h1.18v-1.39l.34,0c0,.06-.06.1-.13.1v1.25Zm-5.26-1.27a4.48,4.48,0,0,1,.68,1.11l-.19.08a4.88,4.88,0,0,0-.67-1.12Zm3.76,1.58s-.06.06-.12.06a7.27,7.27,0,0,1-.48.79l-.17-.06a6.7,6.7,0,0,0,.48-.88Zm1-1.46s-.06.06-.12.06a10.45,10.45,0,0,1-.63,1.06l-.17-.08a7.8,7.8,0,0,0,.64-1.15Z"/><path class="cls-1" d="M26.93,190v4.77c0,.24-.06.34-.26.39a8.9,8.9,0,0,1-1.27,0,1.09,1.09,0,0,0-.09-.24h1.24c.14,0,.18,0,.18-.18v-4.57H24.2a4.8,4.8,0,0,1-.15,1,23.22,23.22,0,0,1,2.24,2.19l-.17.14A21.7,21.7,0,0,0,24,191.5a4,4,0,0,1-2,2.21.78.78,0,0,0-.15-.15,3.62,3.62,0,0,0,2.09-3.3H21.55v5h-.21V190H24v-1.26l.31,0s0,.06-.1.07V190Z"/><path class="cls-1" d="M30.7,192.94a10.36,10.36,0,0,1-1.16.71,1.39,1.39,0,0,0-.13-.17,9,9,0,0,0,3.1-2.54l.39,0s-.06.06-.11.07a10.61,10.61,0,0,0,3.12,2.36,1.2,1.2,0,0,0-.14.17,11.05,11.05,0,0,1-3.15-2.4,8.94,8.94,0,0,1-1.87,1.72h3.8v2.29h-.21V195H30.91v.29H30.7Zm1.11-2.55s-.06,0-.13,0a7.7,7.7,0,0,1-1.83,1.46,1.53,1.53,0,0,0-.15-.15,6.53,6.53,0,0,0,1.84-1.48Zm-1.86-.64v.85h-.21v-1.06h2.78v-.75l.32,0s0,.06-.11.07v.65h2.81v1.06h-.21v-.85Zm4.4,3.37H30.91v1.63h3.43Zm1-1.22a11.26,11.26,0,0,0-2-1.49l.13-.13a11.33,11.33,0,0,1,2,1.46Z"/><path class="cls-1" d="M37.79,189.29h1.3v6.25h-1.3v-.22h1v-5.82h-1Z"/><path class="cls-1" d="M6.49,202.06H.95v1.79a6.38,6.38,0,0,1-.75,3.41.66.66,0,0,0-.17-.12,6.1,6.1,0,0,0,.71-3.29v-2H3.38V200.8l.32,0s0,.06-.11.07v1h2.9Zm-1.65,2.53a12.74,12.74,0,0,1,1.71,2.56l-.18.11c-.09-.2-.22-.44-.36-.7l-4.65.23a.1.1,0,0,1-.08.08l-.12-.3.88,0a29.8,29.8,0,0,0,1.34-3.9l.32.11a.15.15,0,0,1-.13.07,37.2,37.2,0,0,1-1.31,3.72l3.66-.16a15.12,15.12,0,0,0-1.22-1.7Z"/><path class="cls-1" d="M12.75,203.56h3.06v.21H9.53v-.21h3v-1.39H10.77a6.12,6.12,0,0,1-.66,1.14l-.17-.12A7.13,7.13,0,0,0,11,200.9l.31.09s-.06.06-.13.06a8.72,8.72,0,0,1-.33.9h1.68v-1.17l.32,0s0,.06-.11.07V202h2.54v.21H12.75Zm-2.12,3.67V204.6h4.09v2.63h-.21v-.32H10.84v.32Zm3.88-2.42H10.84v1.89h3.67Z"/><path class="cls-1" d="M20.84,200.93a8.87,8.87,0,0,1,1.3,1.37l-.15.15a8.87,8.87,0,0,0-1.25-1.34,6.5,6.5,0,0,1-1.44,1.82.46.46,0,0,0-.16-.15,5.71,5.71,0,0,0,1.49-2l.32,0s0,.07-.12.07Zm1,2.77V206c0,.15,0,.23-.17.27a3.52,3.52,0,0,1-.8,0,.65.65,0,0,0-.08-.21h.48c.35,0,.36,0,.36-.11v-2H20.44v3.32h-.21v-3.32h-.91v-.21Zm-1.91-.91v-.21h1.74v.21Zm3.52,3.52a.18.18,0,0,1-.13.06,4.79,4.79,0,0,1-1.55.91.89.89,0,0,0-.15-.17,4.36,4.36,0,0,0,1.55-.9Zm-1-4h1.11c.08-.25.17-.6.23-.88H22.11v-.21h3.63v.21H24c-.06.25-.14.6-.23.88h1.68v3.67h-3Zm2.81,1.14v-.93h-2.6v.93Zm0,1.16v-.95h-2.6v.95Zm0,1.16v-1h-2.6v1Zm.42,1.53a7.38,7.38,0,0,0-1.32-.92l.17-.12a7.42,7.42,0,0,1,1.33.9Z"/><path class="cls-1" d="M31.1,205.17l0,.19-1.91.76a.1.1,0,0,1-.06.1L29,206l1-.38V202.9h-.91v-.21H30v-1.82l.32,0s0,.06-.11.07v1.72h.84v.21h-.84v2.61Zm-.23,1.27c.57-.18,1.43-.48,2.27-.77l0,.2-2.09.74a.1.1,0,0,1-.06.1Zm3-4.31a21.58,21.58,0,0,0,.29,3.14,9.17,9.17,0,0,0,.88-2.2l.31.08s-.06.06-.13.06a8.75,8.75,0,0,1-1,2.35c.2.91.48,1.46.84,1.46.18,0,.26-.33.29-1.16a.57.57,0,0,0,.2.1c-.06.95-.15,1.28-.5,1.28s-.76-.55-1-1.44a5.81,5.81,0,0,1-1.38,1.45,1.07,1.07,0,0,0-.15-.15A5.31,5.31,0,0,0,34,205.52a21.32,21.32,0,0,1-.34-3.4H31.07v-.21h2.61l0-1.1.33,0s0,.07-.11.08c0,.34,0,.67,0,1h1.63v.21Zm-2.61,1h1.77v2H31.29Zm1.56,1.79v-1.58H31.5v1.58Zm1.53-4.07a7.48,7.48,0,0,1,1.06.74l-.13.16a8.53,8.53,0,0,0-1.06-.76Z"/><path class="cls-1" d="M40.05,201.29c0,.08-.1.11-.25.1a17.34,17.34,0,0,0-.36,3.21,9.14,9.14,0,0,0,.12,1.66l.59-1.53.21.08c-.32.85-.51,1.27-.6,1.56a1.15,1.15,0,0,0-.06.32.6.6,0,0,0,0,.2l-.22.06a7.12,7.12,0,0,1-.3-2.35,18.81,18.81,0,0,1,.4-3.41Zm4.64,5-.74,0a9.36,9.36,0,0,1-1.38-.08c-.78-.12-1.19-.57-1.19-1.11a2.12,2.12,0,0,1,.69-1.32l.19.13a1.83,1.83,0,0,0-.65,1.18c0,.41.34.79,1,.9a8.2,8.2,0,0,0,1.21.08c.27,0,.56,0,.84,0Zm-3.27-4.1a21.35,21.35,0,0,0,3.11-.27l0,.23a25.23,25.23,0,0,1-3.13.27Z"/><path class="cls-1" d="M50.62,204.14a5.4,5.4,0,0,1,1.75-.39c1.21,0,1.86.69,1.86,1.58a1.48,1.48,0,0,1-1.55,1.57,1.63,1.63,0,0,1-1.42-.7l.13-.15a1.49,1.49,0,0,0,1.29.64A1.27,1.27,0,0,0,54,205.33c0-.76-.56-1.38-1.63-1.37a5.34,5.34,0,0,0-1.75.4c0,.52,0,1.44,0,1.67a1,1,0,0,1-1,1,1,1,0,0,1-1.1-1,1.79,1.79,0,0,1,.89-1.33,5.28,5.28,0,0,1,1-.51v-1.67c-.54,0-1.14.06-1.77.06v-.22a15.84,15.84,0,0,0,1.77,0v-1.39l.43,0c0,.09-.08.13-.2.15,0,.27,0,.74,0,1.18A5.39,5.39,0,0,0,52,202l.07.22a6.92,6.92,0,0,1-1.46.31Zm-.2,1.87c0-.2,0-.89,0-1.57a5.5,5.5,0,0,0-.85.47,1.65,1.65,0,0,0-.78,1.13.8.8,0,0,0,.88.81.76.76,0,0,0,.76-.83Zm4-2.84a6.15,6.15,0,0,0-1.61-1.06l.12-.19A7.27,7.27,0,0,1,54.57,203Z"/><path class="cls-1" d="M59.05,201.33c0,.06-.07.1-.18.11a15.57,15.57,0,0,0-.36,3,6.31,6.31,0,0,0,.1,1.36c.17-.36.58-1.14.83-1.61l.2.1a17.72,17.72,0,0,0-.83,1.68.69.69,0,0,0,0,.22.76.76,0,0,0,.07.29l-.22.07a5.76,5.76,0,0,1-.32-2.12,18.31,18.31,0,0,1,.37-3.24Zm3.16-.36.41,0c0,.08-.08.12-.18.14,0,.42.06,1.21.09,1.83a7.93,7.93,0,0,0,1.5-.23l0,.25a10.6,10.6,0,0,1-1.52.21c0,.2,0,.45,0,.67,0,1.53-.32,2.58-1.7,3.23a.73.73,0,0,0-.15-.18c1.32-.62,1.63-1.58,1.63-3,0-.22,0-.48,0-.67-.5,0-1.39.06-2.07.06V203c.69,0,1.52,0,2.06-.06Z"/><path class="cls-1" d="M68.67,204a4.67,4.67,0,0,1,2-.5,1.6,1.6,0,0,1,1.82,1.63c0,1.27-1.13,2-2.44,2-.92,0-1.53-.33-1.53-.89a1,1,0,0,1,1.09-.87,1.53,1.53,0,0,1,1.43,1.38,1.65,1.65,0,0,0,1.23-1.58,1.41,1.41,0,0,0-1.6-1.42,4.34,4.34,0,0,0-2.7,1c-.23.22-.5.53-.69.76l-.17-.17c.71-.78,2.89-2.86,3.85-3.76-.45.06-2,.11-2.95.14a.19.19,0,0,1-.13.11l0-.33c1,0,2.68-.07,3.22-.15l.1,0,.25.27a.36.36,0,0,1-.15.06c-.59.5-2.07,1.92-2.59,2.44Zm1.39,2.87a3.13,3.13,0,0,0,.78-.1,1.33,1.33,0,0,0-1.23-1.23c-.46,0-.86.25-.86.65S69.47,206.84,70.06,206.84Z"/><path class="cls-1" d="M76.48,201.38h.25v5.29h-.25Z"/><path class="cls-1" d="M83.94,201.6H82.17v5.07h-.25V201.6H80.16v-.22h3.78Z"/><path class="cls-1" d="M92.7,203.55H90.22l.1,0s-.06.07-.13.08A3.82,3.82,0,0,1,88,207a1.16,1.16,0,0,0-.16-.17A3.62,3.62,0,0,0,90,203.55H87.09v-.22H92.7Zm-.68-2h-4.3v-.22H92Z"/><path class="cls-1" d="M101.47,202.22l-.07.08a7.35,7.35,0,0,1-3.84,4.76.69.69,0,0,0-.15-.17,7.07,7.07,0,0,0,3.73-4.52H98.33a7.17,7.17,0,0,1-1.62,1.82l-.17-.15A7.4,7.4,0,0,0,98.79,201l.34.13c0,.07-.11.08-.18.07a9,9,0,0,1-.5,1h2.79l0,0Z"/><path class="cls-1" d="M109.49,201.29c0,.06-.09.07-.17.06a11.11,11.11,0,0,1-4.83,5.58.9.9,0,0,0-.17-.16,10.76,10.76,0,0,0,4.81-5.62Z"/><path class="cls-1" d="M118.39,202v4.55h-.22V206h-4.29v.49h-.22V202Zm-.22,3.86v-3.63h-4.29v3.63Z"/><path class="cls-1" d="M.54,215.06a11.23,11.23,0,0,1,1.95.62l-.09.22a11.52,11.52,0,0,0-1.94-.62Zm.58,3.54a7.59,7.59,0,0,0,4.83-4.22l.19.13a7.71,7.71,0,0,1-4.74,4.22.15.15,0,0,1-.06.16Zm.14-5.29a11.13,11.13,0,0,1,1.93.68l-.09.21a11.25,11.25,0,0,0-1.91-.68Zm3.34-.24a6,6,0,0,1,1,1l-.17.13a6.1,6.1,0,0,0-1-1Zm.91-.46a6,6,0,0,1,1,1l-.17.13a6.31,6.31,0,0,0-.95-1Z"/><path class="cls-1" d="M8.51,215.76h5.85V216H8.76a.27.27,0,0,1-.2.13Z"/><path class="cls-1" d="M18.22,215.67a2,2,0,0,1,1.24-.53c.53,0,.79.38.87,1,.62-.29,1.42-.61,2-.84l.15.29h0a.19.19,0,0,1-.1,0c-.54.19-1.37.52-2,.81a5.55,5.55,0,0,1,0,.62c0,.26,0,.55,0,.86H20.1c0-.27,0-.64,0-1a3.83,3.83,0,0,0,0-.42c-1,.46-1.77,1-1.77,1.54s.55.72,1.65.72a15.69,15.69,0,0,0,1.77-.07v.24c-.45,0-1.1.06-1.77.06-1.34,0-1.88-.34-1.88-.95s.88-1.22,2-1.76c-.06-.6-.32-.84-.64-.84a2.55,2.55,0,0,0-1.78,1.06,10.74,10.74,0,0,1-.8.76L16.7,217a5.11,5.11,0,0,0,1.86-2.8h-1.7V214h1.76a10.18,10.18,0,0,0,.22-1.06l.41.07c0,.07-.06.11-.17.12-.06.32-.13.59-.2.87a10.13,10.13,0,0,0,2.6-.43l0,.23a10.45,10.45,0,0,1-2.72.42,5.54,5.54,0,0,1-.61,1.44Z"/><path class="cls-1" d="M25,214.81a5.58,5.58,0,0,1,1.31.75l-.12.18a6,6,0,0,0-1.31-.78ZM25,219a24.3,24.3,0,0,0,1.27-2.35l.15.13a23.86,23.86,0,0,1-1.2,2.26.12.12,0,0,1,0,.08.09.09,0,0,1,0,.06Zm1.41-5.11a5.57,5.57,0,0,0-1.27-.85l.13-.15a5.4,5.4,0,0,1,1.28.82Zm4.83,1.24H29.07v1.46h1.67v2.61h-.21v-.27H27.45v.33h-.21v-2.67h1.63v-1.46H26.65v-.21h2.21v-1.47c-.6.1-1.25.2-1.85.28a.53.53,0,0,0-.07-.18,21.91,21.91,0,0,0,3.66-.73l.25.18a.07.07,0,0,1-.06,0h0a13.77,13.77,0,0,1-1.67.39v1.51h2.21Zm-.75,3.59v-1.92H27.45v1.92Z"/><path class="cls-1" d="M39.27,213.32v5.46c0,.25-.08.34-.27.39a8.07,8.07,0,0,1-1.29,0,1.08,1.08,0,0,0-.09-.22h.69c.74,0,.75,0,.75-.2v-1.84H36.71v2.25H36.5v-2.25H34.37a4.12,4.12,0,0,1-.89,2.33.52.52,0,0,0-.15-.15,4.71,4.71,0,0,0,.88-3.18v-2.61Zm-4.85,2.61c0,.25,0,.52,0,.8H36.5v-1.48H34.42Zm2.08-2.4H34.42V215H36.5Zm2.56,0H36.71V215h2.35Zm-2.35,3.2h2.35v-1.48H36.71Z"/><path class="cls-1" d="M43.38,213.08c0,.08-.08.13-.22.14C43.11,214,43,216,43,217s.56,1.71,1.54,1.71a3.47,3.47,0,0,0,2.7-1.46.7.7,0,0,0,.18.15,3.74,3.74,0,0,1-2.89,1.53c-1.09,0-1.77-.66-1.77-1.95,0-.84.07-3.11.13-4Z"/><path class="cls-1" d="M51.91,213c0,.07-.12.13-.21.13,0,.34-.12.72-.2,1.23a8.35,8.35,0,0,0,2.21-.42l.08.22a9.09,9.09,0,0,1-2.32.43A16.74,16.74,0,0,1,50.14,219l-.22-.09a15.94,15.94,0,0,0,1.31-4.38H49.84v-.23h1.42c.08-.48.15-1,.21-1.42Zm3.74,6h-.6a6.43,6.43,0,0,1-1.79-.18.91.91,0,0,1-.67-.89,1.64,1.64,0,0,1,.43-1l.18.12a1.49,1.49,0,0,0-.39.89c0,.63.57.85,2.07.85.24,0,.49,0,.75,0Zm-.22-3.41a7.56,7.56,0,0,0-2.5.35l-.07-.2a8.2,8.2,0,0,1,2.58-.37Z"/><path class="cls-1" d="M59.79,216.84c.27.21,1.09.9,1.28,1.08l-.15.19a14.63,14.63,0,0,0-1.13-1v2.16h-.21v-2.39a6.18,6.18,0,0,1-1.38,1.74.85.85,0,0,0-.15-.16,5.32,5.32,0,0,0,1.46-1.85H58.14v-.21h1.44v-.9H58v-.21h3.38v.21H59.79v.9h1.54v.21H59.79Zm1.49-3.21v.21H58.19v-.21h1.39v-.83l.32,0s0,.06-.11.07v.74Zm-2.41.31a4.31,4.31,0,0,1,.35,1.18l-.2.06a4.59,4.59,0,0,0-.34-1.2Zm1.95.1s-.06.06-.12.06a9.78,9.78,0,0,1-.43,1.11l-.17-.08a8.51,8.51,0,0,0,.43-1.2Zm3.68,1.21v.21h-.93v3.77h-.21v-3.77H62v.47a4.26,4.26,0,0,1-1.17,3.31.55.55,0,0,0-.15-.16,4,4,0,0,0,1.11-3.15v-2.46l.25.1a10.8,10.8,0,0,0,2.15-.75l.25.18-.06,0h0a14.11,14.11,0,0,1-2.33.76v1.48Z"/><path class="cls-1" d="M67,213.75a8.3,8.3,0,0,1,1.21,2l-.21.11a8.36,8.36,0,0,0-1.19-2Zm5,0c0,.06-.06.08-.16.08a7,7,0,0,1-4,5.06.94.94,0,0,0-.16-.18,6.84,6.84,0,0,0,4-5.06Z"/><path class="cls-1" d="M75.35,216.81v-3.36l.37,0s-.06.1-.15.1v3.23Zm3.73-3.62c0,.06-.06.1-.15.1v2.26a3.41,3.41,0,0,1-2.56,3.52.85.85,0,0,0-.15-.18,3.23,3.23,0,0,0,2.48-3.34v-2.39Z"/><path class="cls-1" d="M87,218.26v.21H82.22v-.21h2.94c.12-.76.34-2.36.41-3.14H82.79v-.21H85.7l.2.11a.08.08,0,0,1-.07,0c-.09.78-.32,2.41-.45,3.21Z"/><path class="cls-1" d="M89.33,215.76h5.85V216h-5.6a.27.27,0,0,1-.2.13Z"/><path class="cls-1" d="M97.77,215a11.19,11.19,0,0,1,1.95.62l-.09.22a11.56,11.56,0,0,0-1.94-.62Zm.58,3.54a7.51,7.51,0,0,0,4.83-4.22,1.51,1.51,0,0,0,.2.13,7.65,7.65,0,0,1-4.75,4.23.15.15,0,0,1-.06.16Zm.14-5.29a11.17,11.17,0,0,1,1.93.68l-.09.21a11.25,11.25,0,0,0-1.91-.68Z"/><path class="cls-1" d="M110,214.81V219h-.22v-.32H106.5v-.21h3.26v-1.69h-3v-.21h3V215h-3.08v-.21Z"/><path class="cls-1" d="M113.49,213.62a8.16,8.16,0,0,1,2.11,1l-.13.19a8.32,8.32,0,0,0-2.08-1Zm.12,4.94a7.71,7.71,0,0,0,5.11-4.16,1,1,0,0,0,.2.12,8,8,0,0,1-5,4.19.24.24,0,0,1-.08.15Z"/><path class="cls-1" d="M3.56,225.8a.14.14,0,0,1-.15.1c-.22,2-1,4.29-2.1,4.29-.47,0-1-.56-1-1.6a3,3,0,0,1,3.11-3.08,2.55,2.55,0,0,1,2.82,2.62c0,1.68-1,2.45-2.68,2.8l-.12-.21c1.62-.31,2.58-1.1,2.58-2.58a2.34,2.34,0,0,0-2.59-2.42H3.32Zm-.36-.06A2.84,2.84,0,0,0,.53,228.6c0,.86.42,1.37.78,1.37C2.26,230,3,227.86,3.19,225.74Z"/><path class="cls-1" d="M11.31,227.41H9.07v3.84H8.86v-6.11h2.45Zm-.21-2.07h-2v.8h2Zm-2,1.86h2v-.85h-2Zm4.64,2.18H12.57v1.72h-.21v-1.72H11a2.32,2.32,0,0,1-1,1.79.69.69,0,0,0-.16-.15,2,2,0,0,0,1-1.64H9.74v-.21h1.07v-1H9.9v-.21h3.63v.21h-1v1h1.14ZM11,229.17h1.34v-1H11Zm3.6-4v5.7c0,.22-.06.31-.22.36a6,6,0,0,1-1.05,0,.9.9,0,0,0-.09-.23h.64c.5,0,.52,0,.52-.17v-3.43h-2.3v-2.28Zm-.21.21H12.32v.8h2.09Zm-2.09,1.86h2.09v-.85H12.32Z"/><path class="cls-1" d="M19.88,225.11l.15.1a.1.1,0,0,1-.06,0,5.72,5.72,0,0,1-2.82,2.87A1.14,1.14,0,0,0,17,228a5.43,5.43,0,0,0,1.66-1.14,9,9,0,0,0-1-.89l.14-.13a9.75,9.75,0,0,1,1,.87,4.49,4.49,0,0,0,.89-1.32H17.59v-.21h2.25Zm1.37,5.61c0,.2.06.24.35.24H22.7c.27,0,.3-.15.33-1a.51.51,0,0,0,.2.1c0,.89-.1,1.11-.53,1.11H21.61c-.44,0-.57-.07-.57-.46v-1.52H19.42c-.08.8-.47,1.54-2,2.08a.63.63,0,0,0-.14-.17c1.42-.5,1.79-1.19,1.88-1.91H17.43V229h1.78c0-.08,0-.16,0-.25v-1.08H18.3v-.21h4v.21h-1V229h1.88v.21H21.26Zm-1.82-2c0,.08,0,.16,0,.25H21v-1.32H19.44ZM22.55,225s-.06,0-.1,0a12.59,12.59,0,0,1-1.16,1,6.17,6.17,0,0,0,.61.73,9.56,9.56,0,0,0,1.25-1.08l.24.17s-.06,0-.11,0a12.69,12.69,0,0,1-1.25,1,4.84,4.84,0,0,0,1.57,1,1.18,1.18,0,0,0-.15.17,5.87,5.87,0,0,1-3-3.16l.18-.06a5.48,5.48,0,0,0,.54,1,9.48,9.48,0,0,0,1.13-1Z"/><line class="cls-2" x1="15.2" y1="6.04" x2="19.99" y2="6.04"/><polyline class="cls-2" points="17.12 0.09 22.85 6.04 17.12 11.99"/></g></g></svg>