<svg xmlns="http://www.w3.org/2000/svg" viewBox="0 0 220.71 45.55"><defs><style>.cls-1{fill:#fff;}.cls-2{fill:none;stroke:#fff;stroke-miterlimit:10;stroke-width:0.5px;}</style></defs><title>company_title</title><g id="Layer_2" data-name="Layer 2"><g id="レイヤー_1" data-name="レイヤー 1"><path class="cls-1" d="M76.13,28.58a11,11,0,0,1-2.26,3.27A9.94,9.94,0,0,1,70.6,34a11.24,11.24,0,0,1-4.27.77,10.76,10.76,0,0,1-4.57-1,10.59,10.59,0,0,1-3.57-2.66,12.37,12.37,0,0,1-2.33-4.06A15.32,15.32,0,0,1,55,21.91a17.5,17.5,0,0,1,.65-4.64,13.12,13.12,0,0,1,2-4.29,10.87,10.87,0,0,1,3.64-3.15,11.16,11.16,0,0,1,5.42-1.23,10.64,10.64,0,0,1,4.34.82,10.13,10.13,0,0,1,3.1,2.07,9,9,0,0,1,1.87,2.64,6.81,6.81,0,0,1,.67,2.56h-.7a6.77,6.77,0,0,0-.8-2.68,8.31,8.31,0,0,0-1.91-2.36A9.67,9.67,0,0,0,70.48,10a11.22,11.22,0,0,0-8.89.59,10.58,10.58,0,0,0-3.41,3.12,12.81,12.81,0,0,0-1.87,4.08,16.48,16.48,0,0,0-.58,4.17,15,15,0,0,0,.7,4.58,11.69,11.69,0,0,0,2.06,3.89,10.33,10.33,0,0,0,3.34,2.69,9.7,9.7,0,0,0,4.5,1,10.5,10.5,0,0,0,4-.73,9.32,9.32,0,0,0,3.08-2,10.28,10.28,0,0,0,2.1-3.08,13.81,13.81,0,0,0,1.08-3.85h.7A14.9,14.9,0,0,1,76.13,28.58Z"/><path class="cls-1" d="M84.53,21.65a9,9,0,0,1,1.56-3,7.87,7.87,0,0,1,2.54-2.08,8.09,8.09,0,0,1,7,0,7.88,7.88,0,0,1,2.54,2.08,9.05,9.05,0,0,1,1.56,3,12.29,12.29,0,0,1,0,7.1,9,9,0,0,1-1.56,3,7.41,7.41,0,0,1-6,2.83,7.51,7.51,0,0,1-3.47-.77,7.66,7.66,0,0,1-2.54-2.07,9,9,0,0,1-1.56-3,12.29,12.29,0,0,1,0-7.1Zm.65,6.84a8.38,8.38,0,0,0,1.42,2.78,7,7,0,0,0,2.33,1.92,6.85,6.85,0,0,0,3.2.72,6.78,6.78,0,0,0,3.17-.72,7,7,0,0,0,2.33-1.92A8.38,8.38,0,0,0,99,28.49a11.4,11.4,0,0,0,.47-3.29A11.28,11.28,0,0,0,99,21.94a8.38,8.38,0,0,0-1.42-2.78,7.23,7.23,0,0,0-2.33-1.94,6.65,6.65,0,0,0-3.17-.73,6.72,6.72,0,0,0-3.2.73,7.23,7.23,0,0,0-2.33,1.94,8.38,8.38,0,0,0-1.42,2.78,11.28,11.28,0,0,0-.47,3.25A11.4,11.4,0,0,0,85.18,28.49Z"/><path class="cls-1" d="M108.71,16.2v4.45h.07a6.66,6.66,0,0,1,.77-1.93,6.33,6.33,0,0,1,1.29-1.54,5.92,5.92,0,0,1,1.7-1,5.32,5.32,0,0,1,2-.37A5.15,5.15,0,0,1,118,16.85,5.41,5.41,0,0,1,119.91,20H120a5.56,5.56,0,0,1,2.07-3,5.9,5.9,0,0,1,3.64-1.16,6.65,6.65,0,0,1,2.73.49,4.53,4.53,0,0,1,1.75,1.35,5.27,5.27,0,0,1,.95,2.06,11.87,11.87,0,0,1,.28,2.68V34.19h-.7V22.36a11.83,11.83,0,0,0-.23-2.42,4.65,4.65,0,0,0-.81-1.85,3.76,3.76,0,0,0-1.54-1.19,6.11,6.11,0,0,0-2.43-.42,5.26,5.26,0,0,0-4.13,1.89,6.19,6.19,0,0,0-1.12,2,7.43,7.43,0,0,0-.38,2.4V34.19h-.7V22.64a14.09,14.09,0,0,0-.19-2.38,5.38,5.38,0,0,0-.72-2A3.71,3.71,0,0,0,117,17a5.33,5.33,0,0,0-2.45-.49,4.83,4.83,0,0,0-2.42.61,5.76,5.76,0,0,0-1.84,1.65,7.76,7.76,0,0,0-1.16,2.4,10.09,10.09,0,0,0-.4,2.87V34.19H108v-18Z"/><path class="cls-1" d="M140.14,40.35V16.2h.7v5h.07a8,8,0,0,1,1-2.19,7.69,7.69,0,0,1,1.58-1.73,6.8,6.8,0,0,1,2.08-1.14,7.78,7.78,0,0,1,2.54-.4,7.14,7.14,0,0,1,3.2.7,7,7,0,0,1,2.42,2,9,9,0,0,1,1.52,3,13.33,13.33,0,0,1,0,7.35,9.53,9.53,0,0,1-1.47,3,6.84,6.84,0,0,1-5.69,2.8,7.31,7.31,0,0,1-4.73-1.49,7.18,7.18,0,0,1-2.48-3.94h-.07v11.2Zm11.15-7.23a6.75,6.75,0,0,0,2.15-2,8.94,8.94,0,0,0,1.24-2.8,12.51,12.51,0,0,0,.4-3.13,12.21,12.21,0,0,0-.44-3.31,8.9,8.9,0,0,0-1.29-2.77,6.21,6.21,0,0,0-2.17-1.91,6.41,6.41,0,0,0-3.06-.7,6.65,6.65,0,0,0-3.08.7,6.81,6.81,0,0,0-2.29,1.89,8.61,8.61,0,0,0-1.42,2.77,11.12,11.12,0,0,0-.49,3.33q0,4.23,2,6.49a6.71,6.71,0,0,0,5.29,2.26A6,6,0,0,0,151.29,33.13Z"/><path class="cls-1" d="M164.33,19.41a5.41,5.41,0,0,1,1.31-1.91,6.08,6.08,0,0,1,2.1-1.26,8.51,8.51,0,0,1,2.92-.46,10.09,10.09,0,0,1,2.26.25,4.85,4.85,0,0,1,1.87.86,4.5,4.5,0,0,1,1.29,1.59,5.76,5.76,0,0,1,.53,2.45V32.37a1.16,1.16,0,0,0,.21.77,1,1,0,0,0,.56.33,2.61,2.61,0,0,0,.75.07l.75-.05v.7h-1a2.46,2.46,0,0,1-1.35-.37,1.51,1.51,0,0,1-.58-1.38V30.1h-.07a5.58,5.58,0,0,1-.89,1.68,6.49,6.49,0,0,1-1.54,1.44,7.89,7.89,0,0,1-2.12,1,8.74,8.74,0,0,1-2.59.37,7.23,7.23,0,0,1-4.37-1.21,4.2,4.2,0,0,1-1.65-3.62,5.72,5.72,0,0,1,.54-2.7,4.27,4.27,0,0,1,1.42-1.59,5.6,5.6,0,0,1,2-.81,16.45,16.45,0,0,1,2.24-.3l3.19-.19a9.86,9.86,0,0,0,2.19-.35,2.37,2.37,0,0,0,1.26-.81,2.58,2.58,0,0,0,.4-1.56,10.71,10.71,0,0,0-.14-1.68,3.66,3.66,0,0,0-.68-1.61A3.92,3.92,0,0,0,173.5,17a7,7,0,0,0-2.83-.47,6.47,6.47,0,0,0-4.41,1.38,5.45,5.45,0,0,0-1.75,3.9h-.7A7.19,7.19,0,0,1,164.33,19.41Zm11.51,4.22a2.19,2.19,0,0,1-1.08.75,8.83,8.83,0,0,1-1.68.4,17.7,17.7,0,0,1-2,.17q-1.1,0-2.15.11a16.72,16.72,0,0,0-2,.26,4.85,4.85,0,0,0-1.77.7,3.58,3.58,0,0,0-1.23,1.4,5.13,5.13,0,0,0-.46,2.33,4.6,4.6,0,0,0,.26,1.52,3.23,3.23,0,0,0,.89,1.33,4.87,4.87,0,0,0,1.63.94,7.19,7.19,0,0,0,2.47.37,7.72,7.72,0,0,0,3.12-.6A7,7,0,0,0,174,31.76a6.42,6.42,0,0,0,1.4-2.22,7.31,7.31,0,0,0,.47-2.59V23.62Z"/><path class="cls-1" d="M186.27,16.2v4.45h.07a6.35,6.35,0,0,1,.79-1.93,6.09,6.09,0,0,1,3.27-2.57,7.49,7.49,0,0,1,2.42-.37,7.58,7.58,0,0,1,2.57.42,5.49,5.49,0,0,1,3.36,3.27,7.59,7.59,0,0,1,.47,2.78V34.19h-.7V22.36a7,7,0,0,0-.46-2.68,5,5,0,0,0-1.24-1.82,4.91,4.91,0,0,0-1.82-1,7.09,7.09,0,0,0-2.19-.33,6.27,6.27,0,0,0-2.83.61,6,6,0,0,0-2,1.65,7.22,7.22,0,0,0-1.24,2.4,9.7,9.7,0,0,0-.42,2.87V34.19h-.7v-18Z"/><path class="cls-1" d="M220.71,16.2l-8.29,21.63a4.2,4.2,0,0,1-.84,1.42,3.21,3.21,0,0,1-1.08.75,4.26,4.26,0,0,1-1.31.3q-.72.05-1.52.05v-.7q.91,0,1.56-.05a3.16,3.16,0,0,0,1.12-.28,2.37,2.37,0,0,0,.84-.7,5.19,5.19,0,0,0,.68-1.28l1.3-3.32L205.66,16.2h.73l7.14,17,6.44-17Z"/><line class="cls-2" y1="22.78" x2="18.19" y2="22.78"/><polyline class="cls-2" points="7.32 0.17 29.05 22.77 7.32 45.38"/></g></g></svg>