<svg xmlns="http://www.w3.org/2000/svg" viewBox="0 0 26.63 4.12"><defs><style>.cls-1{fill:#fff;}</style></defs><title>contact-small</title><g id="Layer_2" data-name="Layer 2"><g id="レイヤー_1" data-name="レイヤー 1"><path class="cls-1" d="M0,1.1V1L3,2.47v.14L0,4.1V4L2.94,2.54Z"/><path class="cls-1" d="M8.64,3.47a1.11,1.11,0,0,1-.27.35A1.19,1.19,0,0,1,8,4a1.43,1.43,0,0,1-.48.08A1.33,1.33,0,0,1,6.92,4a1.26,1.26,0,0,1-.43-.33,1.44,1.44,0,0,1-.26-.49,1.92,1.92,0,0,1-.09-.6,2.28,2.28,0,0,1,.09-.64,1.58,1.58,0,0,1,.26-.53A1.29,1.29,0,0,1,6.94,1,1.4,1.4,0,0,1,7.58.9,1.3,1.3,0,0,1,8,1a1.12,1.12,0,0,1,.35.19,1.06,1.06,0,0,1,.26.31,1.2,1.2,0,0,1,.13.44H8.62a1.12,1.12,0,0,0-.13-.39,1,1,0,0,0-.23-.28.93.93,0,0,0-.31-.17A1.23,1.23,0,0,0,7.58,1,1.27,1.27,0,0,0,7,1.16a1.17,1.17,0,0,0-.41.37,1.55,1.55,0,0,0-.22.5,2.29,2.29,0,0,0-.07.55,1.8,1.8,0,0,0,.08.54,1.42,1.42,0,0,0,.24.46A1.14,1.14,0,0,0,7,3.89,1.19,1.19,0,0,0,7.5,4a1.28,1.28,0,0,0,.43-.07A1.05,1.05,0,0,0,8.65,3h.12A1.35,1.35,0,0,1,8.64,3.47Z"/><path class="cls-1" d="M9.69,1.91A1.56,1.56,0,0,1,10,1.39,1.34,1.34,0,0,1,10.39,1a1.39,1.39,0,0,1,1.19,0,1.35,1.35,0,0,1,.43.36,1.56,1.56,0,0,1,.27.51,2.11,2.11,0,0,1,0,1.22,1.55,1.55,0,0,1-.27.51,1.32,1.32,0,0,1-.43.35,1.3,1.3,0,0,1-.6.13A1.29,1.29,0,0,1,10.39,4,1.31,1.31,0,0,1,10,3.64a1.55,1.55,0,0,1-.27-.51,2.11,2.11,0,0,1,0-1.22ZM9.8,3.08a1.42,1.42,0,0,0,.24.48,1.19,1.19,0,0,0,.4.33A1.17,1.17,0,0,0,11,4a1.16,1.16,0,0,0,.54-.12,1.21,1.21,0,0,0,.4-.33,1.42,1.42,0,0,0,.24-.48,2,2,0,0,0,.08-.56A1.94,1.94,0,0,0,12.18,2a1.43,1.43,0,0,0-.24-.48,1.25,1.25,0,0,0-.4-.33A1.14,1.14,0,0,0,11,1a1.15,1.15,0,0,0-.55.13,1.23,1.23,0,0,0-.4.33A1.43,1.43,0,0,0,9.8,2a1.94,1.94,0,0,0-.08.56A2,2,0,0,0,9.8,3.08Z"/><path class="cls-1" d="M13.48,1v.76h0a1.11,1.11,0,0,1,.13-.33,1.07,1.07,0,0,1,.23-.26A1.05,1.05,0,0,1,14.18,1,1.28,1.28,0,0,1,14.6.9,1.3,1.3,0,0,1,15,1a1,1,0,0,1,.35.21,1,1,0,0,1,.23.35A1.31,1.31,0,0,1,15.7,2v2h-.12V2a1.19,1.19,0,0,0-.08-.46.86.86,0,0,0-.21-.31A.84.84,0,0,0,15,1.08,1.21,1.21,0,0,0,14.6,1a1.07,1.07,0,0,0-.49.1,1,1,0,0,0-.35.28,1.22,1.22,0,0,0-.21.41,1.63,1.63,0,0,0-.07.49V4.06h-.12V1Z"/><path class="cls-1" d="M17.17,3.46a.73.73,0,0,0,0,.27.34.34,0,0,0,.1.14.26.26,0,0,0,.13.06h.31l.1,0V4h-.29a.54.54,0,0,1-.36-.12A.57.57,0,0,1,17,3.48V1.09h-.56V1H17V0h.12V1h.7v.12h-.7Z"/><path class="cls-1" d="M18.85,1.52a.93.93,0,0,1,.22-.33A1.05,1.05,0,0,1,19.43,1a1.46,1.46,0,0,1,.5-.08,1.71,1.71,0,0,1,.39,0,.82.82,0,0,1,.32.15.76.76,0,0,1,.22.27,1,1,0,0,1,.09.42v2a.2.2,0,0,0,0,.13.18.18,0,0,0,.1.06h.26v.12h-.18A.42.42,0,0,1,20.93,4a.26.26,0,0,1-.1-.24v-.4h0a1,1,0,0,1-.15.29,1.12,1.12,0,0,1-.26.25,1.35,1.35,0,0,1-.36.17,1.5,1.5,0,0,1-.44.06,1.24,1.24,0,0,1-.75-.21.72.72,0,0,1-.28-.62,1,1,0,0,1,.09-.46.74.74,0,0,1,.24-.27,1,1,0,0,1,.34-.14l.38-.05.55,0a1.7,1.7,0,0,0,.38-.06.41.41,0,0,0,.22-.14.44.44,0,0,0,.07-.27,1.88,1.88,0,0,0,0-.29.62.62,0,0,0-.12-.28.67.67,0,0,0-.27-.21A1.21,1.21,0,0,0,19.93,1a1.11,1.11,0,0,0-.76.24.93.93,0,0,0-.3.67h-.12A1.24,1.24,0,0,1,18.85,1.52Zm2,.72a.37.37,0,0,1-.19.13,1.5,1.5,0,0,1-.29.07l-.35,0-.37,0-.35,0a.82.82,0,0,0-.3.12.61.61,0,0,0-.21.24.88.88,0,0,0-.08.4.78.78,0,0,0,0,.26.56.56,0,0,0,.15.23.84.84,0,0,0,.28.16,1.24,1.24,0,0,0,.42.06,1.32,1.32,0,0,0,.53-.1,1.21,1.21,0,0,0,.39-.27,1.12,1.12,0,0,0,.24-.38,1.26,1.26,0,0,0,.08-.44V2.24Z"/><path class="cls-1" d="M24.49,3.47a1.11,1.11,0,0,1-.27.35,1.19,1.19,0,0,1-.38.22,1.43,1.43,0,0,1-.48.08A1.33,1.33,0,0,1,22.77,4a1.26,1.26,0,0,1-.43-.33,1.44,1.44,0,0,1-.26-.49,1.92,1.92,0,0,1-.09-.6,2.28,2.28,0,0,1,.09-.64,1.58,1.58,0,0,1,.26-.53A1.29,1.29,0,0,1,22.79,1,1.4,1.4,0,0,1,23.42.9a1.3,1.3,0,0,1,.41.07,1.12,1.12,0,0,1,.35.19,1.06,1.06,0,0,1,.26.31,1.2,1.2,0,0,1,.13.44h-.12a1.12,1.12,0,0,0-.13-.39,1,1,0,0,0-.23-.28.93.93,0,0,0-.31-.17A1.23,1.23,0,0,0,23.42,1a1.27,1.27,0,0,0-.62.14,1.17,1.17,0,0,0-.41.37,1.55,1.55,0,0,0-.22.5,2.29,2.29,0,0,0-.07.55,1.8,1.8,0,0,0,.08.54,1.42,1.42,0,0,0,.24.46,1.14,1.14,0,0,0,.39.31,1.19,1.19,0,0,0,.54.12,1.28,1.28,0,0,0,.43-.07A1.05,1.05,0,0,0,24.49,3h.12A1.35,1.35,0,0,1,24.49,3.47Z"/><path class="cls-1" d="M25.94,3.46a.73.73,0,0,0,0,.27.34.34,0,0,0,.1.14.26.26,0,0,0,.13.06h.31l.1,0V4h-.29A.54.54,0,0,1,26,3.93a.57.57,0,0,1-.15-.45V1.09h-.56V1h.56V0h.12V1h.7v.12h-.7Z"/></g></g></svg>