<svg xmlns="http://www.w3.org/2000/svg" viewBox="0 0 77.99 12.07"><defs><style>.cls-1{fill:#fff;}</style></defs><title>contact_mod</title><g id="Layer_2" data-name="Layer 2"><g id="レイヤー_1" data-name="レイヤー 1"><path class="cls-1" d="M0,3.22V2.85L8.92,7.22v.42L0,12v-.35L8.61,7.43Z"/><path class="cls-1" d="M25.3,10.16a3.26,3.26,0,0,1-.78,1,3.45,3.45,0,0,1-1.12.65,4.19,4.19,0,0,1-1.41.23,3.89,3.89,0,0,1-1.71-.36,3.69,3.69,0,0,1-1.26-1,4.25,4.25,0,0,1-.77-1.43A5.66,5.66,0,0,1,18,7.55a6.75,6.75,0,0,1,.25-1.87A4.64,4.64,0,0,1,19,4.12,3.79,3.79,0,0,1,20.32,3a4.11,4.11,0,0,1,1.87-.4,3.84,3.84,0,0,1,1.21.19,3.31,3.31,0,0,1,1,.56,3.11,3.11,0,0,1,.76.92,3.45,3.45,0,0,1,.4,1.27h-.35a3.29,3.29,0,0,0-.39-1.15,2.89,2.89,0,0,0-.69-.81,2.73,2.73,0,0,0-.91-.48A3.6,3.6,0,0,0,22.19,3a3.71,3.71,0,0,0-1.82.41,3.42,3.42,0,0,0-1.19,1.07,4.53,4.53,0,0,0-.65,1.47,6.68,6.68,0,0,0-.2,1.61,5.25,5.25,0,0,0,.24,1.58,4.12,4.12,0,0,0,.69,1.33,3.33,3.33,0,0,0,1.14.92,3.49,3.49,0,0,0,1.58.34,3.76,3.76,0,0,0,1.25-.2A3.08,3.08,0,0,0,25.32,8.8h.35A3.86,3.86,0,0,1,25.3,10.16Z"/><path class="cls-1" d="M28.37,5.58a4.53,4.53,0,0,1,.78-1.5,4,4,0,0,1,1.27-1,4.07,4.07,0,0,1,3.5,0,4,4,0,0,1,1.27,1A4.53,4.53,0,0,1,36,5.58a6.16,6.16,0,0,1,0,3.57,4.52,4.52,0,0,1-.78,1.5,3.72,3.72,0,0,1-3,1.42,3.76,3.76,0,0,1-1.74-.39,3.84,3.84,0,0,1-1.27-1,4.52,4.52,0,0,1-.78-1.5,6.16,6.16,0,0,1,0-3.57ZM28.7,9a4.2,4.2,0,0,0,.71,1.4,3.54,3.54,0,0,0,1.17,1,3.44,3.44,0,0,0,1.61.36,3.4,3.4,0,0,0,1.59-.36,3.54,3.54,0,0,0,1.17-1A4.2,4.2,0,0,0,35.66,9a5.72,5.72,0,0,0,.24-1.65,5.65,5.65,0,0,0-.24-1.63,4.19,4.19,0,0,0-.71-1.4,3.64,3.64,0,0,0-1.17-1A3.34,3.34,0,0,0,32.19,3a3.38,3.38,0,0,0-1.61.37,3.64,3.64,0,0,0-1.17,1,4.19,4.19,0,0,0-.71,1.4,5.68,5.68,0,0,0-.24,1.63A5.75,5.75,0,0,0,28.7,9Z"/><path class="cls-1" d="M39.46,2.85V5.08h0a3.2,3.2,0,0,1,.4-1,3.06,3.06,0,0,1,1.64-1.29,3.76,3.76,0,0,1,1.21-.18A3.83,3.83,0,0,1,44,2.85a2.76,2.76,0,0,1,1.69,1.64A3.81,3.81,0,0,1,46,5.89v6h-.35V5.94a3.52,3.52,0,0,0-.23-1.34,2.52,2.52,0,0,0-.62-.91,2.46,2.46,0,0,0-.91-.53A3.56,3.56,0,0,0,42.74,3a3.14,3.14,0,0,0-1.42.31,3,3,0,0,0-1,.83,3.61,3.61,0,0,0-.62,1.2,4.87,4.87,0,0,0-.21,1.44v5.11h-.35v-9Z"/><path class="cls-1" d="M50.26,10.12a2.16,2.16,0,0,0,.11.79,1,1,0,0,0,.29.42.76.76,0,0,0,.39.17l.42,0h.47a1,1,0,0,0,.3,0v.35l-.31,0-.55,0a1.57,1.57,0,0,1-1-.36,1.67,1.67,0,0,1-.43-1.33v-7H48.26V2.85h1.65V0h.35V2.85h2V3.2h-2Z"/><path class="cls-1" d="M55.18,4.46a2.72,2.72,0,0,1,.66-1,3.06,3.06,0,0,1,1.05-.63,4.29,4.29,0,0,1,1.47-.23,5.11,5.11,0,0,1,1.13.12,2.44,2.44,0,0,1,.94.43,2.26,2.26,0,0,1,.65.8,2.9,2.9,0,0,1,.26,1.23V11a.59.59,0,0,0,.11.39.53.53,0,0,0,.28.17,1.32,1.32,0,0,0,.38,0l.38,0v.35H62a1.23,1.23,0,0,1-.68-.18A.76.76,0,0,1,61,11V9.82h0a2.8,2.8,0,0,1-.45.84,3.27,3.27,0,0,1-.77.72,4,4,0,0,1-1.06.5,4.39,4.39,0,0,1-1.3.18,3.63,3.63,0,0,1-2.2-.61,2.11,2.11,0,0,1-.83-1.82,2.88,2.88,0,0,1,.27-1.35,2.14,2.14,0,0,1,.71-.8,2.82,2.82,0,0,1,1-.4,8.19,8.19,0,0,1,1.12-.15l1.6-.1a5,5,0,0,0,1.1-.18,1.19,1.19,0,0,0,.63-.4,1.29,1.29,0,0,0,.2-.78,5.34,5.34,0,0,0-.07-.84,1.84,1.84,0,0,0-.34-.81,2,2,0,0,0-.8-.61A3.53,3.53,0,0,0,58.36,3a3.24,3.24,0,0,0-2.21.69,2.74,2.74,0,0,0-.88,2h-.35A3.58,3.58,0,0,1,55.18,4.46ZM61,6.57a1.09,1.09,0,0,1-.54.38,4.46,4.46,0,0,1-.84.2,9,9,0,0,1-1,.09l-1.08.05a8.34,8.34,0,0,0-1,.13,2.43,2.43,0,0,0-.89.35,1.8,1.8,0,0,0-.62.7,2.57,2.57,0,0,0-.23,1.17,2.3,2.3,0,0,0,.13.76,1.62,1.62,0,0,0,.45.67,2.44,2.44,0,0,0,.82.47,3.61,3.61,0,0,0,1.24.18,3.86,3.86,0,0,0,1.56-.3,3.52,3.52,0,0,0,1.15-.78,3.22,3.22,0,0,0,.7-1.12A3.68,3.68,0,0,0,61,8.24V6.57Z"/><path class="cls-1" d="M71.7,10.16a3.26,3.26,0,0,1-.78,1,3.45,3.45,0,0,1-1.12.65,4.19,4.19,0,0,1-1.41.23,3.89,3.89,0,0,1-1.71-.36,3.69,3.69,0,0,1-1.26-1,4.25,4.25,0,0,1-.77-1.43,5.66,5.66,0,0,1-.26-1.75,6.75,6.75,0,0,1,.25-1.87,4.64,4.64,0,0,1,.77-1.56A3.79,3.79,0,0,1,66.72,3a4.11,4.11,0,0,1,1.87-.4,3.84,3.84,0,0,1,1.21.19,3.31,3.31,0,0,1,1,.56,3.11,3.11,0,0,1,.76.92A3.45,3.45,0,0,1,72,5.59h-.35a3.29,3.29,0,0,0-.39-1.15,2.89,2.89,0,0,0-.69-.81,2.73,2.73,0,0,0-.91-.48A3.6,3.6,0,0,0,68.59,3a3.71,3.71,0,0,0-1.82.41,3.42,3.42,0,0,0-1.19,1.07,4.53,4.53,0,0,0-.65,1.47,6.68,6.68,0,0,0-.2,1.61A5.25,5.25,0,0,0,65,9.14a4.12,4.12,0,0,0,.69,1.33,3.33,3.33,0,0,0,1.14.92,3.49,3.49,0,0,0,1.58.34,3.76,3.76,0,0,0,1.25-.2A3.08,3.08,0,0,0,71.71,8.8h.35A3.86,3.86,0,0,1,71.7,10.16Z"/><path class="cls-1" d="M75.95,10.12a2.16,2.16,0,0,0,.11.79,1,1,0,0,0,.29.42.76.76,0,0,0,.39.17l.42,0h.47a1,1,0,0,0,.3,0v.35l-.31,0-.55,0a1.57,1.57,0,0,1-1-.36,1.67,1.67,0,0,1-.43-1.33v-7H73.95V2.85H75.6V0h.35V2.85h2V3.2h-2Z"/></g></g></svg>