<svg xmlns="http://www.w3.org/2000/svg" viewBox="0 0 169.11 49.78"><defs><style>.cls-1{fill:#fff;}</style></defs><title>Asset 6</title><g id="Layer_2" data-name="Layer 2"><g id="レイヤー_1" data-name="レイヤー 1"><path class="cls-1" d="M39.93,40.92v-.37l8.92,4.38v.42l-8.92,4.36v-.35l8.61-4.22Z"/><path class="cls-1" d="M65.23,47.87a3.26,3.26,0,0,1-.78,1,3.45,3.45,0,0,1-1.12.65,4.19,4.19,0,0,1-1.41.23,3.89,3.89,0,0,1-1.71-.36,3.69,3.69,0,0,1-1.26-1A4.25,4.25,0,0,1,58.17,47a5.66,5.66,0,0,1-.26-1.75,6.75,6.75,0,0,1,.25-1.87,4.64,4.64,0,0,1,.77-1.56,3.79,3.79,0,0,1,1.32-1.08,4.11,4.11,0,0,1,1.87-.4,3.84,3.84,0,0,1,1.21.19,3.31,3.31,0,0,1,1,.56,3.11,3.11,0,0,1,.76.92,3.45,3.45,0,0,1,.4,1.27h-.35a3.29,3.29,0,0,0-.39-1.15,2.89,2.89,0,0,0-.69-.81,2.73,2.73,0,0,0-.91-.48,3.6,3.6,0,0,0-1.07-.16,3.71,3.71,0,0,0-1.82.41,3.42,3.42,0,0,0-1.19,1.07,4.53,4.53,0,0,0-.65,1.47,6.68,6.68,0,0,0-.2,1.61,5.25,5.25,0,0,0,.24,1.58,4.12,4.12,0,0,0,.69,1.33,3.33,3.33,0,0,0,1.14.92,3.49,3.49,0,0,0,1.58.34,3.76,3.76,0,0,0,1.25-.2,3.08,3.08,0,0,0,2.09-2.73h.35A3.86,3.86,0,0,1,65.23,47.87Z"/><path class="cls-1" d="M68.3,43.29a4.53,4.53,0,0,1,.78-1.5,4,4,0,0,1,1.27-1,4.07,4.07,0,0,1,3.5,0,4,4,0,0,1,1.27,1,4.53,4.53,0,0,1,.78,1.5,6.16,6.16,0,0,1,0,3.57,4.52,4.52,0,0,1-.78,1.5,3.72,3.72,0,0,1-3,1.42,3.76,3.76,0,0,1-1.74-.39,3.84,3.84,0,0,1-1.27-1,4.52,4.52,0,0,1-.78-1.5,6.16,6.16,0,0,1,0-3.57Zm.32,3.43a4.2,4.2,0,0,0,.71,1.4,3.54,3.54,0,0,0,1.17,1,3.44,3.44,0,0,0,1.61.36,3.4,3.4,0,0,0,1.59-.36,3.54,3.54,0,0,0,1.17-1,4.2,4.2,0,0,0,.71-1.4,5.72,5.72,0,0,0,.24-1.65,5.65,5.65,0,0,0-.24-1.63,4.19,4.19,0,0,0-.71-1.4,3.64,3.64,0,0,0-1.17-1,3.34,3.34,0,0,0-1.59-.37,3.38,3.38,0,0,0-1.61.37,3.64,3.64,0,0,0-1.17,1,4.19,4.19,0,0,0-.71,1.4,5.68,5.68,0,0,0-.24,1.63A5.75,5.75,0,0,0,68.63,46.72Z"/><path class="cls-1" d="M79.39,40.55v2.23h0a3.2,3.2,0,0,1,.4-1,3.06,3.06,0,0,1,1.64-1.29,3.76,3.76,0,0,1,1.21-.18,3.83,3.83,0,0,1,1.29.21,2.76,2.76,0,0,1,1.69,1.64,3.81,3.81,0,0,1,.24,1.4v6h-.35V43.65a3.52,3.52,0,0,0-.23-1.34,2.52,2.52,0,0,0-.62-.91,2.46,2.46,0,0,0-.91-.53,3.56,3.56,0,0,0-1.1-.17,3.14,3.14,0,0,0-1.42.31,3,3,0,0,0-1,.83A3.61,3.61,0,0,0,79.6,43a4.87,4.87,0,0,0-.21,1.44v5.11H79v-9Z"/><path class="cls-1" d="M90.19,47.83a2.16,2.16,0,0,0,.11.79,1,1,0,0,0,.29.42.76.76,0,0,0,.39.17l.42,0h.47a1,1,0,0,0,.3,0v.35l-.31,0-.55,0a1.57,1.57,0,0,1-1-.36,1.67,1.67,0,0,1-.43-1.33v-7H88.19v-.35h1.65V37.71h.35v2.85h2v.35h-2Z"/><path class="cls-1" d="M95.11,42.16a2.72,2.72,0,0,1,.66-1,3.06,3.06,0,0,1,1.05-.63,4.29,4.29,0,0,1,1.47-.23,5.11,5.11,0,0,1,1.13.12,2.44,2.44,0,0,1,.94.43,2.26,2.26,0,0,1,.65.8,2.9,2.9,0,0,1,.26,1.23v5.75a.59.59,0,0,0,.11.39.53.53,0,0,0,.28.17,1.32,1.32,0,0,0,.38,0l.38,0v.35h-.53a1.23,1.23,0,0,1-.68-.18.76.76,0,0,1-.29-.69V47.53h0a2.8,2.8,0,0,1-.45.84,3.27,3.27,0,0,1-.77.72,4,4,0,0,1-1.06.5,4.39,4.39,0,0,1-1.3.18,3.63,3.63,0,0,1-2.2-.61,2.11,2.11,0,0,1-.83-1.82A2.88,2.88,0,0,1,94.56,46a2.14,2.14,0,0,1,.71-.8,2.82,2.82,0,0,1,1-.4,8.19,8.19,0,0,1,1.12-.15l1.6-.1a5,5,0,0,0,1.1-.18,1.19,1.19,0,0,0,.63-.4,1.29,1.29,0,0,0,.2-.78,5.34,5.34,0,0,0-.07-.84,1.84,1.84,0,0,0-.34-.81,2,2,0,0,0-.8-.61,3.53,3.53,0,0,0-1.42-.24,3.24,3.24,0,0,0-2.21.69,2.74,2.74,0,0,0-.88,2h-.35A3.58,3.58,0,0,1,95.11,42.16Zm5.78,2.12a1.09,1.09,0,0,1-.54.38,4.46,4.46,0,0,1-.84.2,9,9,0,0,1-1,.09L97.4,45a8.34,8.34,0,0,0-1,.13,2.43,2.43,0,0,0-.89.35,1.8,1.8,0,0,0-.62.7,2.57,2.57,0,0,0-.23,1.17,2.3,2.3,0,0,0,.13.76,1.62,1.62,0,0,0,.45.67,2.44,2.44,0,0,0,.82.47,3.61,3.61,0,0,0,1.24.18,3.86,3.86,0,0,0,1.56-.3,3.52,3.52,0,0,0,1.15-.78,3.22,3.22,0,0,0,.7-1.12,3.68,3.68,0,0,0,.24-1.3V44.28Z"/><path class="cls-1" d="M111.63,47.87a3.26,3.26,0,0,1-.78,1,3.45,3.45,0,0,1-1.12.65,4.19,4.19,0,0,1-1.41.23,3.89,3.89,0,0,1-1.71-.36,3.69,3.69,0,0,1-1.26-1,4.25,4.25,0,0,1-.77-1.43,5.66,5.66,0,0,1-.26-1.75,6.75,6.75,0,0,1,.25-1.87,4.64,4.64,0,0,1,.77-1.56,3.79,3.79,0,0,1,1.32-1.08,4.11,4.11,0,0,1,1.87-.4,3.84,3.84,0,0,1,1.21.19,3.31,3.31,0,0,1,1,.56,3.11,3.11,0,0,1,.76.92,3.45,3.45,0,0,1,.4,1.27h-.35a3.29,3.29,0,0,0-.39-1.15,2.89,2.89,0,0,0-.69-.81,2.73,2.73,0,0,0-.91-.48,3.6,3.6,0,0,0-1.07-.16,3.71,3.71,0,0,0-1.82.41,3.42,3.42,0,0,0-1.19,1.07,4.53,4.53,0,0,0-.65,1.47,6.68,6.68,0,0,0-.2,1.61,5.25,5.25,0,0,0,.24,1.58,4.12,4.12,0,0,0,.69,1.33,3.33,3.33,0,0,0,1.14.92,3.49,3.49,0,0,0,1.58.34,3.76,3.76,0,0,0,1.25-.2,3.08,3.08,0,0,0,2.09-2.73H112A3.86,3.86,0,0,1,111.63,47.87Z"/><path class="cls-1" d="M115.88,47.83a2.16,2.16,0,0,0,.11.79,1,1,0,0,0,.29.42.76.76,0,0,0,.39.17l.42,0h.47a1,1,0,0,0,.3,0v.35l-.31,0-.55,0a1.57,1.57,0,0,1-1-.36,1.67,1.67,0,0,1-.43-1.33v-7h-1.65v-.35h1.65V37.71h.35v2.85h2v.35h-2Z"/><path class="cls-1" d="M6.8,0a6.74,6.74,0,0,1,6.68,6.92A6.74,6.74,0,1,1,0,6.92,6.82,6.82,0,0,1,6.8,0Zm0,13.27c3.34,0,5.89-2.71,5.89-6.35A6,6,0,0,0,6.78.62C3.34.62.82,3.38.82,7A6,6,0,0,0,6.78,13.27ZM9.93,10.4a5.67,5.67,0,0,1-2.73.74A3.9,3.9,0,0,1,3.08,7.06a4.07,4.07,0,0,1,4.2-4.18,4.79,4.79,0,0,1,2.51.58l-.2.6A4.46,4.46,0,0,0,7.38,3.5,3.25,3.25,0,0,0,3.88,7,3.26,3.26,0,0,0,7.4,10.48a4.38,4.38,0,0,0,2.33-.64Z"/><path class="cls-1" d="M25.55,9.93a4.78,4.78,0,0,1-1,1.43,4.34,4.34,0,0,1-1.43.93,4.9,4.9,0,0,1-1.86.34,4.67,4.67,0,0,1-2-.42A4.61,4.61,0,0,1,17.73,11a5.39,5.39,0,0,1-1-1.77A6.67,6.67,0,0,1,16.35,7a7.65,7.65,0,0,1,.28-2,5.72,5.72,0,0,1,.89-1.87,4.75,4.75,0,0,1,1.59-1.37,4.87,4.87,0,0,1,2.36-.53,4.64,4.64,0,0,1,1.89.36,4.41,4.41,0,0,1,1.35.9,3.89,3.89,0,0,1,.82,1.15,2.94,2.94,0,0,1,.29,1.11h-.3a3,3,0,0,0-.35-1.17,3.63,3.63,0,0,0-.83-1,4.23,4.23,0,0,0-1.25-.74,4.89,4.89,0,0,0-3.87.26,4.61,4.61,0,0,0-1.49,1.36,5.6,5.6,0,0,0-.82,1.78A7.21,7.21,0,0,0,16.66,7,6.56,6.56,0,0,0,17,9a5.1,5.1,0,0,0,.9,1.69,4.49,4.49,0,0,0,1.46,1.17,4.23,4.23,0,0,0,2,.44A4.56,4.56,0,0,0,23,12a4.05,4.05,0,0,0,1.34-.88,4.49,4.49,0,0,0,.92-1.34,6.06,6.06,0,0,0,.47-1.68h.3A6.5,6.5,0,0,1,25.55,9.93Z"/><path class="cls-1" d="M28.13,6.94a7.24,7.24,0,0,1,.33-2.2,5.44,5.44,0,0,1,1-1.81A4.59,4.59,0,0,1,31,1.69a5.31,5.31,0,0,1,4.32,0,4.59,4.59,0,0,1,1.57,1.24,5.44,5.44,0,0,1,1,1.81,7.27,7.27,0,0,1,.33,2.2,7.27,7.27,0,0,1-.33,2.2,5.44,5.44,0,0,1-1,1.81,4.51,4.51,0,0,1-1.57,1.23,5.4,5.4,0,0,1-4.32,0,4.51,4.51,0,0,1-1.57-1.23,5.44,5.44,0,0,1-1-1.81A7.24,7.24,0,0,1,28.13,6.94Zm.3,0a7.13,7.13,0,0,0,.34,2.17,5.14,5.14,0,0,0,.93,1.71,4.21,4.21,0,0,0,1.47,1.12,5,5,0,0,0,3.93,0,4.21,4.21,0,0,0,1.47-1.12,5.14,5.14,0,0,0,.93-1.71,7,7,0,0,0,0-4.33,5.14,5.14,0,0,0-.93-1.71,4.23,4.23,0,0,0-1.47-1.12,5,5,0,0,0-3.93,0A4.23,4.23,0,0,0,29.7,3.06a5.14,5.14,0,0,0-.93,1.71A7.14,7.14,0,0,0,28.43,6.94Z"/><path class="cls-1" d="M47.34,12.38H40.68V1.49H41V12.08h6.36Z"/><path class="cls-1" d="M55.9,12.38H49.23V1.49h.31V12.08H55.9Z"/><path class="cls-1" d="M57.13,12.38h-.34L61.2,1.49h.4l4.3,10.89h-.33L64.13,8.8H58.58ZM61.42,1.8h0L58.7,8.49H64Z"/><path class="cls-1" d="M72.7,7.29h4.53v5.09h-.3V9.68h0a4,4,0,0,1-1.59,2.17,4.79,4.79,0,0,1-2.76.78,5.16,5.16,0,0,1-2.21-.45A4.56,4.56,0,0,1,68.74,11a5.29,5.29,0,0,1-1-1.81,7.29,7.29,0,0,1-.33-2.21,7,7,0,0,1,.35-2.23,5.42,5.42,0,0,1,1-1.81,4.67,4.67,0,0,1,1.6-1.21,5,5,0,0,1,2.15-.44,5.25,5.25,0,0,1,1.69.26,4.28,4.28,0,0,1,1.36.74,4,4,0,0,1,1,1.15,4.63,4.63,0,0,1,.51,1.51h-.31a4.22,4.22,0,0,0-.5-1.38,3.85,3.85,0,0,0-.9-1.06,3.89,3.89,0,0,0-1.25-.68,4.93,4.93,0,0,0-1.56-.24,4.67,4.67,0,0,0-2,.43A4.49,4.49,0,0,0,69,3.12a5.07,5.07,0,0,0-.94,1.72,6.72,6.72,0,0,0-.32,2.1A7,7,0,0,0,68,9,4.94,4.94,0,0,0,69,10.75a4.36,4.36,0,0,0,1.52,1.16,4.92,4.92,0,0,0,2.11.43A4.56,4.56,0,0,0,74.29,12a4.24,4.24,0,0,0,1.38-.87,4,4,0,0,0,.92-1.33,4.15,4.15,0,0,0,.33-1.67V7.59H72.7Z"/><path class="cls-1" d="M87.29,12.08v.3H80V1.49h7.23v.3H80.31V6.56h6.51v.3H80.31v5.22Z"/><path class="cls-1" d="M101.8,12.38h-8V12L101.37,1.8H94.19v-.3h7.49V1.9L94.07,12.08h7.73Z"/><path class="cls-1" d="M111,12.08v.3h-7.29V1.49h7.23v.3H104V6.56h6.51v.3H104v5.22Z"/><path class="cls-1" d="M113.13,12.38V1.49h4.45a3.8,3.8,0,0,1,2.5.68,2.71,2.71,0,0,1,.82,2.11,2.62,2.62,0,0,1-.58,1.82,3.11,3.11,0,0,1-1.75,1v0a3.19,3.19,0,0,1,1.11.33,1.71,1.71,0,0,1,.66.62,2.41,2.41,0,0,1,.3.9,8.14,8.14,0,0,1,.08,1.17q0,.23,0,.57t0,.68c0,.22,0,.43.08.61a1,1,0,0,0,.12.38h-.34a1.8,1.8,0,0,1-.12-.45q0-.28-.07-.6t0-.65c0-.22,0-.41,0-.59a6.48,6.48,0,0,0-.1-1.2,1.86,1.86,0,0,0-.4-.88,1.92,1.92,0,0,0-.87-.55,4.85,4.85,0,0,0-1.51-.19h-4.1v5.11ZM117.5,7a4.41,4.41,0,0,0,1.17-.15,2.75,2.75,0,0,0,1-.49,2.5,2.5,0,0,0,.69-.85,2.69,2.69,0,0,0,.26-1.23,2.41,2.41,0,0,0-.7-1.81,3.21,3.21,0,0,0-2.24-.65h-4.22V7Z"/><path class="cls-1" d="M123.33,6.94a7.24,7.24,0,0,1,.33-2.2,5.44,5.44,0,0,1,1-1.81,4.59,4.59,0,0,1,1.57-1.24,5.31,5.31,0,0,1,4.32,0,4.59,4.59,0,0,1,1.57,1.24,5.44,5.44,0,0,1,1,1.81,7.27,7.27,0,0,1,.33,2.2,7.27,7.27,0,0,1-.33,2.2,5.44,5.44,0,0,1-1,1.81,4.51,4.51,0,0,1-1.57,1.23,5.4,5.4,0,0,1-4.32,0,4.51,4.51,0,0,1-1.57-1.23,5.44,5.44,0,0,1-1-1.81A7.24,7.24,0,0,1,123.33,6.94Zm.3,0A7.13,7.13,0,0,0,124,9.1a5.14,5.14,0,0,0,.93,1.71,4.21,4.21,0,0,0,1.47,1.12,5,5,0,0,0,3.93,0,4.21,4.21,0,0,0,1.47-1.12,5.14,5.14,0,0,0,.93-1.71,7,7,0,0,0,0-4.33,5.14,5.14,0,0,0-.93-1.71,4.23,4.23,0,0,0-1.47-1.12,5,5,0,0,0-3.93,0,4.23,4.23,0,0,0-1.47,1.12A5.14,5.14,0,0,0,124,4.77,7.14,7.14,0,0,0,123.63,6.94Z"/><path class="cls-1" d="M137.33,12.38a3.54,3.54,0,0,1-.15,1.11,1.33,1.33,0,0,1-.53.69v-.31a1.13,1.13,0,0,0,.28-.54,4.23,4.23,0,0,0,.08-1V10.89h.3Z"/><path class="cls-1" d="M147.1,1.49V12.38h-.31V1.49Z"/><path class="cls-1" d="M150.29,4.54V6.48h0a2.76,2.76,0,0,1,.34-.84,2.64,2.64,0,0,1,1.43-1.12,3.25,3.25,0,0,1,1.05-.16,3.3,3.3,0,0,1,1.12.18,2.45,2.45,0,0,1,.88.54,2.42,2.42,0,0,1,.58.88,3.3,3.3,0,0,1,.21,1.21v5.2h-.3V7.23a3.07,3.07,0,0,0-.2-1.17,2.11,2.11,0,0,0-1.33-1.25,3.13,3.13,0,0,0-1-.14,2.73,2.73,0,0,0-1.23.27,2.63,2.63,0,0,0-.89.72,3.14,3.14,0,0,0-.54,1,4.23,4.23,0,0,0-.18,1.25v4.44H150V4.54Z"/><path class="cls-1" d="M164.83,10.89a2.83,2.83,0,0,1-.68.89,3,3,0,0,1-1,.56,3.64,3.64,0,0,1-1.23.2,3.39,3.39,0,0,1-1.49-.31,3.21,3.21,0,0,1-1.09-.85,3.72,3.72,0,0,1-.67-1.24,4.92,4.92,0,0,1-.23-1.52A5.86,5.86,0,0,1,158.69,7a4,4,0,0,1,.67-1.36,3.29,3.29,0,0,1,1.14-.94,3.56,3.56,0,0,1,1.62-.35,3.3,3.3,0,0,1,1.05.17,2.86,2.86,0,0,1,.9.49,2.7,2.7,0,0,1,.66.8,3,3,0,0,1,.34,1.11h-.31a2.87,2.87,0,0,0-.33-1,2.53,2.53,0,0,0-.59-.7,2.39,2.39,0,0,0-.79-.42,3.12,3.12,0,0,0-.93-.14,3.22,3.22,0,0,0-1.58.36,3,3,0,0,0-1,.93,3.93,3.93,0,0,0-.56,1.28,5.79,5.79,0,0,0-.18,1.4A4.57,4.57,0,0,0,159,10a3.6,3.6,0,0,0,.6,1.16,2.9,2.9,0,0,0,1,.8,3,3,0,0,0,1.37.3,3.26,3.26,0,0,0,1.08-.18,2.67,2.67,0,0,0,1.82-2.37h.3A3.36,3.36,0,0,1,164.83,10.89Z"/><path class="cls-1" d="M168.81,12.38V10.89h.3v1.49Z"/></g></g></svg>