<svg xmlns="http://www.w3.org/2000/svg" viewBox="0 0 88.68 27.06"><defs><style>.cls-1{fill:#fff;}</style></defs><title>copy_small</title><g id="Layer_2" data-name="Layer 2"><g id="レイヤー_1" data-name="レイヤー 1"><path class="cls-1" d="M3.56,0a3.53,3.53,0,0,1,3.5,3.63A3.53,3.53,0,1,1,0,3.63,3.57,3.57,0,0,1,3.56,0Zm0,7A3.14,3.14,0,0,0,6.64,3.63,3.14,3.14,0,0,0,3.55.33,3.16,3.16,0,0,0,.43,3.68,3.15,3.15,0,0,0,3.55,7ZM5.21,5.45a3,3,0,0,1-1.43.39A2,2,0,0,1,1.61,3.7a2.14,2.14,0,0,1,2.2-2.19,2.52,2.52,0,0,1,1.32.31L5,2.13a2.33,2.33,0,0,0-1.16-.29A1.7,1.7,0,0,0,2,3.67,1.71,1.71,0,0,0,3.88,5.49,2.3,2.3,0,0,0,5.1,5.16Z"/><path class="cls-1" d="M13.4,5.21a2.54,2.54,0,0,1-.52.75,2.28,2.28,0,0,1-.75.49,2.57,2.57,0,0,1-1,.18,2.46,2.46,0,0,1-1-.22,2.43,2.43,0,0,1-.82-.61,2.85,2.85,0,0,1-.53-.93,3.5,3.5,0,0,1-.19-1.18,4,4,0,0,1,.15-1.06,3,3,0,0,1,.47-1A2.5,2.5,0,0,1,10,.92,2.56,2.56,0,0,1,11.26.64a2.44,2.44,0,0,1,1,.19A2.31,2.31,0,0,1,13,1.3a2.06,2.06,0,0,1,.43.6,1.55,1.55,0,0,1,.15.58h-.16a1.54,1.54,0,0,0-.18-.61,1.9,1.9,0,0,0-.44-.54A2.21,2.21,0,0,0,12.11,1a2.57,2.57,0,0,0-2,.14,2.42,2.42,0,0,0-.78.71,2.93,2.93,0,0,0-.43.93,3.77,3.77,0,0,0-.13,1,3.44,3.44,0,0,0,.16,1,2.69,2.69,0,0,0,.47.89,2.35,2.35,0,0,0,.76.62,2.22,2.22,0,0,0,1,.23,2.41,2.41,0,0,0,.92-.17,2.14,2.14,0,0,0,.7-.46,2.36,2.36,0,0,0,.48-.7,3.15,3.15,0,0,0,.25-.88h.16A3.41,3.41,0,0,1,13.4,5.21Z"/><path class="cls-1" d="M14.75,3.63a3.81,3.81,0,0,1,.17-1.15,2.85,2.85,0,0,1,.5-1,2.4,2.4,0,0,1,.82-.65,2.78,2.78,0,0,1,2.26,0,2.4,2.4,0,0,1,.82.65,2.86,2.86,0,0,1,.5,1A3.78,3.78,0,0,1,20,3.63a3.78,3.78,0,0,1-.17,1.15,2.85,2.85,0,0,1-.5,1,2.39,2.39,0,0,1-.82.64,2.84,2.84,0,0,1-2.26,0,2.39,2.39,0,0,1-.82-.64,2.83,2.83,0,0,1-.5-1A3.81,3.81,0,0,1,14.75,3.63Zm.16,0a3.76,3.76,0,0,0,.18,1.14,2.67,2.67,0,0,0,.49.89,2.2,2.2,0,0,0,.77.59,2.61,2.61,0,0,0,2.06,0,2.2,2.2,0,0,0,.77-.59,2.69,2.69,0,0,0,.49-.89,3.68,3.68,0,0,0,0-2.27,2.7,2.7,0,0,0-.49-.9A2.23,2.23,0,0,0,18.41,1a2.63,2.63,0,0,0-2.06,0,2.22,2.22,0,0,0-.77.59,2.68,2.68,0,0,0-.49.9A3.74,3.74,0,0,0,14.91,3.63Z"/><path class="cls-1" d="M24.83,6.49h-3.5V.78h.16V6.33h3.33Z"/><path class="cls-1" d="M29.31,6.49h-3.5V.78H26V6.33h3.33Z"/><path class="cls-1" d="M30,6.49h-.18L32.1.78h.21l2.25,5.71h-.18l-.75-1.88H30.72ZM32.21.94h0L30.78,4.45h2.78Z"/><path class="cls-1" d="M38.13,3.82H40.5V6.49h-.16V5.07h0a2.1,2.1,0,0,1-.83,1.14A2.52,2.52,0,0,1,38,6.62a2.72,2.72,0,0,1-1.16-.24A2.4,2.4,0,0,1,36,5.74a2.77,2.77,0,0,1-.51-.95,3.84,3.84,0,0,1-.17-1.16,3.67,3.67,0,0,1,.18-1.17,2.86,2.86,0,0,1,.53-1,2.46,2.46,0,0,1,.84-.64A2.63,2.63,0,0,1,38,.64a2.75,2.75,0,0,1,.88.14,2.24,2.24,0,0,1,.71.39,2.09,2.09,0,0,1,.5.6,2.41,2.41,0,0,1,.27.79h-.16A2.21,2.21,0,0,0,40,1.84,2,2,0,0,0,38.87.93,2.6,2.6,0,0,0,38,.8,2.44,2.44,0,0,0,37,1a2.36,2.36,0,0,0-.79.61,2.64,2.64,0,0,0-.49.9,3.52,3.52,0,0,0-.17,1.1,3.66,3.66,0,0,0,.16,1.1,2.59,2.59,0,0,0,.48.9,2.27,2.27,0,0,0,.8.61,2.57,2.57,0,0,0,1.11.22A2.4,2.4,0,0,0,39,6.3a2.23,2.23,0,0,0,.72-.46,2.12,2.12,0,0,0,.48-.7,2.17,2.17,0,0,0,.18-.87V4H38.13Z"/><path class="cls-1" d="M45.78,6.33v.16H42V.78h3.79V.94H42.12v2.5h3.42V3.6H42.12V6.33Z"/><path class="cls-1" d="M53.38,6.49H49.18V6.27l4-5.33H49.39V.78h3.93V1l-4,5.33h4.05Z"/><path class="cls-1" d="M58.21,6.33v.16H54.39V.78h3.79V.94H54.55v2.5H58V3.6H54.55V6.33Z"/><path class="cls-1" d="M59.33,6.49V.78h2.33A2,2,0,0,1,63,1.14a1.42,1.42,0,0,1,.43,1.11,1.37,1.37,0,0,1-.3,1,1.62,1.62,0,0,1-.92.52v0a1.69,1.69,0,0,1,.58.17.91.91,0,0,1,.34.32,1.28,1.28,0,0,1,.16.47,4.32,4.32,0,0,1,0,.62c0,.08,0,.18,0,.3s0,.24,0,.36,0,.22,0,.32a.5.5,0,0,0,.06.2h-.18a.9.9,0,0,1-.06-.24c0-.1,0-.2,0-.32s0-.23,0-.34,0-.22,0-.31a3.37,3.37,0,0,0-.05-.63,1,1,0,0,0-.21-.46,1,1,0,0,0-.46-.29,2.55,2.55,0,0,0-.79-.1H59.49V6.49Zm2.3-2.84a2.29,2.29,0,0,0,.61-.08,1.45,1.45,0,0,0,.52-.26,1.3,1.3,0,0,0,.36-.44,1.41,1.41,0,0,0,.14-.64,1.27,1.27,0,0,0-.37-.95A1.68,1.68,0,0,0,61.7.94H59.49V3.65Z"/><path class="cls-1" d="M64.68,3.63a3.81,3.81,0,0,1,.17-1.15,2.85,2.85,0,0,1,.5-1,2.4,2.4,0,0,1,.82-.65,2.78,2.78,0,0,1,2.26,0,2.4,2.4,0,0,1,.82.65,2.86,2.86,0,0,1,.5,1,3.78,3.78,0,0,1,.17,1.15,3.78,3.78,0,0,1-.17,1.15,2.85,2.85,0,0,1-.5,1,2.39,2.39,0,0,1-.82.64,2.84,2.84,0,0,1-2.26,0,2.39,2.39,0,0,1-.82-.64,2.83,2.83,0,0,1-.5-1A3.81,3.81,0,0,1,64.68,3.63Zm.16,0A3.76,3.76,0,0,0,65,4.77a2.67,2.67,0,0,0,.49.89,2.2,2.2,0,0,0,.77.59,2.61,2.61,0,0,0,2.06,0,2.2,2.2,0,0,0,.77-.59,2.69,2.69,0,0,0,.49-.89,3.68,3.68,0,0,0,0-2.27,2.7,2.7,0,0,0-.49-.9A2.23,2.23,0,0,0,68.34,1a2.63,2.63,0,0,0-2.06,0,2.22,2.22,0,0,0-.77.59,2.68,2.68,0,0,0-.49.9A3.74,3.74,0,0,0,64.84,3.63Z"/><path class="cls-1" d="M72,6.49a1.85,1.85,0,0,1-.08.58.7.7,0,0,1-.28.36V7.27A.59.59,0,0,0,71.81,7a2.22,2.22,0,0,0,0-.5V5.71H72Z"/><path class="cls-1" d="M77.14.78V6.49H77V.78Z"/><path class="cls-1" d="M78.82,2.38v1h0A1.45,1.45,0,0,1,79,3a1.39,1.39,0,0,1,.75-.59,1.72,1.72,0,0,1,.55-.08,1.74,1.74,0,0,1,.59.1,1.27,1.27,0,0,1,.77.75,1.76,1.76,0,0,1,.11.64V6.49h-.16V3.79a1.6,1.6,0,0,0-.1-.61,1.14,1.14,0,0,0-.28-.42,1.12,1.12,0,0,0-.42-.24,1.61,1.61,0,0,0-.5-.08,1.42,1.42,0,0,0-.65.14A1.38,1.38,0,0,0,79.2,3a1.66,1.66,0,0,0-.28.55,2.22,2.22,0,0,0-.1.66V6.49h-.16V2.38Z"/><path class="cls-1" d="M86.44,5.71a1.48,1.48,0,0,1-.36.47,1.58,1.58,0,0,1-.51.3,1.93,1.93,0,0,1-.64.1,1.77,1.77,0,0,1-.78-.16A1.67,1.67,0,0,1,83.57,6a2,2,0,0,1-.35-.65,2.57,2.57,0,0,1-.12-.79,3,3,0,0,1,.12-.85A2.12,2.12,0,0,1,83.57,3a1.72,1.72,0,0,1,.6-.49A1.87,1.87,0,0,1,85,2.28a1.73,1.73,0,0,1,.55.09,1.53,1.53,0,0,1,.47.26,1.45,1.45,0,0,1,.35.42,1.58,1.58,0,0,1,.18.58h-.16a1.51,1.51,0,0,0-.18-.52,1.32,1.32,0,0,0-.31-.37,1.25,1.25,0,0,0-.42-.22A1.65,1.65,0,0,0,85,2.44a1.69,1.69,0,0,0-.83.19,1.57,1.57,0,0,0-.54.49,2.08,2.08,0,0,0-.3.67,3,3,0,0,0-.09.73,2.4,2.4,0,0,0,.11.72,1.89,1.89,0,0,0,.32.61,1.52,1.52,0,0,0,.52.42,1.58,1.58,0,0,0,.72.16,1.71,1.71,0,0,0,.57-.09,1.41,1.41,0,0,0,.8-.69,1.4,1.4,0,0,0,.15-.56h.16A1.76,1.76,0,0,1,86.44,5.71Z"/><path class="cls-1" d="M88.52,6.49V5.71h.16v.78Z"/><path class="cls-1" d="M27,23v-.17l4.06,2V25L27,27v-.16l3.92-1.92Z"/><path class="cls-1" d="M38.52,26.19a1.49,1.49,0,0,1-.36.47,1.57,1.57,0,0,1-.51.29,1.88,1.88,0,0,1-.64.1,1.77,1.77,0,0,1-.78-.16,1.67,1.67,0,0,1-.57-.44,1.94,1.94,0,0,1-.35-.65,2.57,2.57,0,0,1-.12-.8,3.07,3.07,0,0,1,.12-.85,2.12,2.12,0,0,1,.35-.71,1.73,1.73,0,0,1,.6-.49,1.87,1.87,0,0,1,.85-.18,1.73,1.73,0,0,1,.55.09,1.5,1.5,0,0,1,.47.26,1.43,1.43,0,0,1,.35.42,1.58,1.58,0,0,1,.18.58h-.16a1.47,1.47,0,0,0-.18-.52,1.32,1.32,0,0,0-.31-.37,1.23,1.23,0,0,0-.42-.22,1.61,1.61,0,0,0-.49-.07,1.69,1.69,0,0,0-.83.19,1.56,1.56,0,0,0-.54.49,2.08,2.08,0,0,0-.3.67,3,3,0,0,0-.09.73,2.41,2.41,0,0,0,.11.72,1.89,1.89,0,0,0,.32.61,1.52,1.52,0,0,0,.52.42,1.6,1.6,0,0,0,.72.16,1.73,1.73,0,0,0,.57-.09,1.46,1.46,0,0,0,.47-.27,1.39,1.39,0,0,0,.48-1h.16A1.76,1.76,0,0,1,38.52,26.19Z"/><path class="cls-1" d="M39.91,24.11a2.07,2.07,0,0,1,.36-.68,1.8,1.8,0,0,1,.58-.48,1.85,1.85,0,0,1,1.59,0,1.8,1.8,0,0,1,.58.48,2.07,2.07,0,0,1,.36.68,2.8,2.8,0,0,1,0,1.62,2.07,2.07,0,0,1-.36.68,1.69,1.69,0,0,1-1.38.65,1.71,1.71,0,0,1-.79-.18,1.75,1.75,0,0,1-.58-.47,2.07,2.07,0,0,1-.36-.68,2.8,2.8,0,0,1,0-1.62Zm.15,1.56a1.91,1.91,0,0,0,.32.64,1.6,1.6,0,0,0,.53.44,1.57,1.57,0,0,0,.73.16,1.55,1.55,0,0,0,.72-.16,1.6,1.6,0,0,0,.53-.44,1.91,1.91,0,0,0,.32-.64,2.66,2.66,0,0,0,0-1.5,1.91,1.91,0,0,0-.32-.64,1.64,1.64,0,0,0-.53-.44,1.52,1.52,0,0,0-.72-.17,1.54,1.54,0,0,0-.73.17,1.65,1.65,0,0,0-.53.44,1.91,1.91,0,0,0-.32.64,2.64,2.64,0,0,0,0,1.5Z"/><path class="cls-1" d="M45,22.86v1h0a1.44,1.44,0,0,1,.18-.44,1.4,1.4,0,0,1,.75-.59,1.7,1.7,0,0,1,.55-.08,1.74,1.74,0,0,1,.59.1,1.25,1.25,0,0,1,.77.75,1.73,1.73,0,0,1,.11.64V27h-.16v-2.7a1.6,1.6,0,0,0-.1-.61,1.14,1.14,0,0,0-.28-.42A1.12,1.12,0,0,0,47,23a1.61,1.61,0,0,0-.5-.08,1.44,1.44,0,0,0-.65.14,1.38,1.38,0,0,0-.47.38,1.63,1.63,0,0,0-.28.55,2.19,2.19,0,0,0-.1.66V27H44.8V22.86Z"/><path class="cls-1" d="M49.88,26.17a1,1,0,0,0,.05.36.46.46,0,0,0,.13.19.35.35,0,0,0,.18.08h.41l.14,0v.16l-.14,0H50.4a.72.72,0,0,1-.48-.16.76.76,0,0,1-.2-.6V23H49v-.16h.75v-1.3h.16v1.3h.93V23h-.93Z"/><path class="cls-1" d="M52.12,23.59a1.24,1.24,0,0,1,.3-.44,1.4,1.4,0,0,1,.48-.29,2,2,0,0,1,.67-.1,2.25,2.25,0,0,1,.52.06,1.1,1.1,0,0,1,.43.2,1,1,0,0,1,.3.36,1.33,1.33,0,0,1,.12.56v2.62a.26.26,0,0,0,0,.18.23.23,0,0,0,.13.08l.17,0h.17V27h-.24a.56.56,0,0,1-.31-.08.34.34,0,0,1-.13-.32V26h0a1.27,1.27,0,0,1-.2.38,1.48,1.48,0,0,1-.35.33,1.8,1.8,0,0,1-.48.23,2,2,0,0,1-.59.08,1.65,1.65,0,0,1-1-.28,1,1,0,0,1-.38-.83,1.3,1.3,0,0,1,.12-.62,1,1,0,0,1,.32-.36,1.29,1.29,0,0,1,.46-.18,3.83,3.83,0,0,1,.51-.07l.73,0a2.28,2.28,0,0,0,.5-.08.55.55,0,0,0,.29-.18.6.6,0,0,0,.09-.36,2.41,2.41,0,0,0,0-.38.84.84,0,0,0-.16-.37.9.9,0,0,0-.36-.28,1.6,1.6,0,0,0-.65-.11,1.48,1.48,0,0,0-1,.32,1.24,1.24,0,0,0-.4.89H52A1.64,1.64,0,0,1,52.12,23.59Zm2.63,1a.49.49,0,0,1-.25.17,2,2,0,0,1-.38.09l-.47,0-.49,0-.47.06a1.11,1.11,0,0,0-.4.16.81.81,0,0,0-.28.32,1.17,1.17,0,0,0-.1.53,1,1,0,0,0,.06.35.73.73,0,0,0,.2.3,1.14,1.14,0,0,0,.37.22,1.65,1.65,0,0,0,.56.08,1.76,1.76,0,0,0,.71-.14,1.6,1.6,0,0,0,.52-.36,1.48,1.48,0,0,0,.32-.51,1.67,1.67,0,0,0,.11-.59v-.76Z"/><path class="cls-1" d="M59.64,26.19a1.49,1.49,0,0,1-.36.47,1.57,1.57,0,0,1-.51.29,1.88,1.88,0,0,1-.64.1,1.77,1.77,0,0,1-.78-.16,1.67,1.67,0,0,1-.57-.44,1.94,1.94,0,0,1-.35-.65,2.57,2.57,0,0,1-.12-.8,3.07,3.07,0,0,1,.12-.85,2.12,2.12,0,0,1,.35-.71,1.73,1.73,0,0,1,.6-.49,1.87,1.87,0,0,1,.85-.18,1.73,1.73,0,0,1,.55.09,1.5,1.5,0,0,1,.47.26,1.43,1.43,0,0,1,.35.42,1.58,1.58,0,0,1,.18.58h-.16a1.47,1.47,0,0,0-.18-.52,1.32,1.32,0,0,0-.31-.37,1.23,1.23,0,0,0-.42-.22,1.61,1.61,0,0,0-.49-.07,1.69,1.69,0,0,0-.83.19,1.56,1.56,0,0,0-.54.49,2.08,2.08,0,0,0-.3.67,3,3,0,0,0-.09.73,2.41,2.41,0,0,0,.11.72,1.89,1.89,0,0,0,.32.61,1.52,1.52,0,0,0,.52.42,1.6,1.6,0,0,0,.72.16,1.73,1.73,0,0,0,.57-.09,1.46,1.46,0,0,0,.47-.27,1.39,1.39,0,0,0,.48-1h.16A1.76,1.76,0,0,1,59.64,26.19Z"/><path class="cls-1" d="M61.58,26.17a1,1,0,0,0,.05.36.46.46,0,0,0,.13.19.35.35,0,0,0,.18.08h.41l.14,0v.16l-.14,0h-.25a.72.72,0,0,1-.48-.16.76.76,0,0,1-.2-.6V23h-.75v-.16h.75v-1.3h.16v1.3h.93V23h-.93Z"/></g></g></svg>