<svg xmlns="http://www.w3.org/2000/svg" xmlns:xlink="http://www.w3.org/1999/xlink" viewBox="0 0 732.07 260.58"><defs><style>.cls-1{fill:url(#名称未設定グラデーション_9);}.cls-2{fill:url(#名称未設定グラデーション_9-2);}.cls-3{fill:url(#名称未設定グラデーション_9-4);}.cls-4{fill:url(#名称未設定グラデーション_9-5);}.cls-5{fill:url(#名称未設定グラデーション_9-7);}.cls-6{fill:url(#名称未設定グラデーション_9-8);}.cls-7{fill:url(#名称未設定グラデーション_9-9);}.cls-8{fill:url(#名称未設定グラデーション_9-10);}.cls-9{fill:url(#名称未設定グラデーション_9-11);}.cls-10{fill:url(#名称未設定グラデーション_9-12);}.cls-11{fill:url(#名称未設定グラデーション_9-13);}.cls-12{fill:url(#名称未設定グラデーション_9-14);}.cls-13{fill:url(#名称未設定グラデーション_14);}</style><linearGradient id="名称未設定グラデーション_9" x1="1.09" y1="229.95" x2="732.75" y2="229.95" gradientUnits="userSpaceOnUse"><stop offset="0"/><stop offset="0.69" stop-color="#00aeef"/><stop offset="1"/></linearGradient><linearGradient id="名称未設定グラデーション_9-2" x1="-0.91" y1="230.06" x2="730.75" y2="230.06" xlink:href="#名称未設定グラデーション_9"/><linearGradient id="名称未設定グラデーション_9-4" x1="2.09" y1="229.95" x2="733.75" y2="229.95" xlink:href="#名称未設定グラデーション_9"/><linearGradient id="名称未設定グラデーション_9-5" x1="2.09" y1="230.06" x2="733.75" y2="230.06" xlink:href="#名称未設定グラデーション_9"/><linearGradient id="名称未設定グラデーション_9-7" x1="3.09" y1="229.84" x2="734.75" y2="229.84" xlink:href="#名称未設定グラデーション_9"/><linearGradient id="名称未設定グラデーション_9-8" x1="3.09" y1="230.06" x2="734.75" y2="230.06" xlink:href="#名称未設定グラデーション_9"/><linearGradient id="名称未設定グラデーション_9-9" x1="-0.91" y1="230.06" x2="730.75" y2="230.06" xlink:href="#名称未設定グラデーション_9"/><linearGradient id="名称未設定グラデーション_9-10" x1="-0.91" y1="229.95" x2="730.75" y2="229.95" xlink:href="#名称未設定グラデーション_9"/><linearGradient id="名称未設定グラデーション_9-11" x1="-0.91" y1="230.06" x2="730.75" y2="230.06" xlink:href="#名称未設定グラデーション_9"/><linearGradient id="名称未設定グラデーション_9-12" x1="-0.91" y1="230.21" x2="730.75" y2="230.21" xlink:href="#名称未設定グラデーション_9"/><linearGradient id="名称未設定グラデーション_9-13" x1="-0.91" y1="229.86" x2="730.75" y2="229.86" xlink:href="#名称未設定グラデーション_9"/><linearGradient id="名称未設定グラデーション_9-14" x1="2.09" y1="230.06" x2="733.75" y2="230.06" xlink:href="#名称未設定グラデーション_9"/><linearGradient id="名称未設定グラデーション_14" x1="268.07" y1="77.91" x2="464" y2="77.91" gradientUnits="userSpaceOnUse"><stop offset="0"/><stop offset="0.1" stop-color="#002533"/><stop offset="0.31" stop-color="#006e97"/><stop offset="0.46" stop-color="#009cd6"/><stop offset="0.53" stop-color="#00aeef"/><stop offset="1"/></linearGradient></defs><title>creative-brian-logo</title><g id="Layer_2" data-name="Layer 2"><g id="レイヤー_1" data-name="レイヤー 1"><g id="_Group_" data-name="&lt;Group&gt;"><rect id="_Path_" data-name="&lt;Path&gt;" class="cls-1" x="307.46" y="199.85" width="5.32" height="60.2" rx="1.01" ry="1.01"/><path id="_Path_2" data-name="&lt;Path&gt;" class="cls-2" d="M434.35,203.53V201a1.42,1.42,0,0,0-1.42-1.42H397.4A1.42,1.42,0,0,0,396,201v58a1.42,1.42,0,0,0,1.42,1.42h35.54a1.42,1.42,0,0,0,1.42-1.42V256.6a1.42,1.42,0,0,0-1.42-1.42H402.71a1.42,1.42,0,0,1-1.42-1.42v-47.4a1.42,1.42,0,0,1,1.42-1.42h30.22A1.42,1.42,0,0,0,434.35,203.53Z"/><rect id="_Path_3" data-name="&lt;Path&gt;" class="cls-2" x="409.25" y="227.41" width="23.76" height="5.32" rx="1.42" ry="1.42"/><path id="_Path_4" data-name="&lt;Path&gt;" class="cls-3" d="M54.49,245.33H51.31a2.45,2.45,0,0,0-1.95.82h0a25,25,0,1,1-.11-32.49h0a2.05,2.05,0,0,0,1.55.7h3.85c1.31,0,1.09-.78,1-1.07a30.32,30.32,0,1,0-.17,33.64C55.6,246.61,56.24,245.33,54.49,245.33Z"/><path id="_Path_5" data-name="&lt;Path&gt;" class="cls-4" d="M174.95,203.25V201.2c0-1.27-.78-1.52-1.24-1.57H138.07a1.68,1.68,0,0,0-1.5,1.9V258.9s0,1.6,1.47,1.6h35.38c1.28,0,1.5-.82,1.53-1.22v-2.49a1.5,1.5,0,0,0-1.56-1.6H142.78c-.83,0-.89-.93-.89-.93V205.81a.81.81,0,0,1,.85-.86h30.48A1.76,1.76,0,0,0,174.95,203.25Z"/><path id="_Path_6" data-name="&lt;Path&gt;" class="cls-4" d="M172,227.41H151.3a1.49,1.49,0,0,0-1.46,1.57v2.42a1.29,1.29,0,0,0,1.46,1.32H172a1.5,1.5,0,0,0,1.58-1.42V229a1.42,1.42,0,0,0-1.43-1.57Z"/><path id="_Path_7" data-name="&lt;Path&gt;" class="cls-5" d="M289.63,199.63H250.15s-1.14,0-1.14,1.11v3a1.26,1.26,0,0,0,1.25,1.22H266.4a.88.88,0,0,1,.87,1v53a1.1,1.1,0,0,0,1.1,1.12h3.31c.92,0,.91-1.21.91-1.21v-53a.91.91,0,0,1,1-.91h15.85a1.26,1.26,0,0,0,1.38-1.22v-2.86A1.23,1.23,0,0,0,289.63,199.63Z"/><path id="_Path_8" data-name="&lt;Path&gt;" class="cls-6" d="M242.15,259.29l-22.23-58.71a1.59,1.59,0,0,0-1.51-1h-5.23a1.57,1.57,0,0,0-1.5,1h0l-19.84,58.64h0s-.39,1.27.93,1.27h3.15a1.65,1.65,0,0,0,1.5-1.19l2.35-6.94.24-.72,0-.09h0a.94.94,0,0,1,.94-.63h22.41c1.52,0,1.21-1.31,1.21-1.31l-1.18-3.12a1.66,1.66,0,0,0-1.53-.89H202.94c-.88,0-.6-.87-.6-.87l.19-.56,12.5-37h0l.1-.29c.23-.6.84-1.78,1.63.29l19.8,52.29h0a1.91,1.91,0,0,0,1.46,1h3.29C242.49,260.5,242.24,259.55,242.15,259.29Z"/><path id="_Path_9" data-name="&lt;Path&gt;" class="cls-7" d="M643.35,259.29l-22.23-58.71a1.59,1.59,0,0,0-1.51-1h-5.23a1.57,1.57,0,0,0-1.5,1h0L593,259.23h0s-.39,1.27.93,1.27h3.15a1.65,1.65,0,0,0,1.5-1.19l2.35-6.94.24-.72,0-.09h0a.94.94,0,0,1,.94-.63h22.41c1.52,0,1.21-1.31,1.21-1.31l-1.18-3.12a1.66,1.66,0,0,0-1.53-.89H604.14c-.88,0-.6-.87-.6-.87l.19-.56,12.5-37h0l.1-.29c.23-.6.84-1.78,1.63.29l19.8,52.29h0a1.91,1.91,0,0,0,1.46,1h3.29C643.69,260.5,643.44,259.55,643.35,259.29Z"/><rect id="_Path_10" data-name="&lt;Path&gt;" class="cls-8" x="662.99" y="199.85" width="5.32" height="60.2" rx="1.01" ry="1.01"/><path id="_Path_11" data-name="&lt;Path&gt;" class="cls-9" d="M561.59,244.56h0c-.93-.82-.09-1.1.14-1.16l.2,0a30.12,30.12,0,0,0,5.76-1.92c5.65-2.57,12.39-8.06,12.39-19.58,0-6.53-2.07-11.79-6.14-15.64-7.33-6.92-18.67-6.64-19.94-6.59h-17a1.44,1.44,0,0,0-1.5,1.54V258.9a1.55,1.55,0,0,0,1.57,1.6h2.41c1.37,0,1.33-1.6,1.33-1.6V206.08a1.05,1.05,0,0,1,1.06-1.13h12.31c.09,0,10.14-.45,16.06,5.14,3,2.84,4.48,6.69,4.48,11.77,0,7-3,11.8-9.1,14.66a27.2,27.2,0,0,1-9.35,2.3h0a1.92,1.92,0,0,0-1.83,2.07v2.91a4.23,4.23,0,0,0,1.61,3l14.54,12.7h0l.16.14a3.81,3.81,0,0,0,2.36.84h3.67c2.74,0,.91-1.84.9-1.85Z"/><path id="_Path_12" data-name="&lt;Path&gt;" class="cls-10" d="M731.06,199.93h-3.29a1,1,0,0,0-1,1v45.18c0,.56-.29.66-.65.24L711,226.06l-18.75-25.67a1.4,1.4,0,0,0-1.54-.46c-.69.23-.75,1.08-.75,1.29v58.27a1,1,0,0,0,1,1h3.29a1,1,0,0,0,1-1V214.31c0-.56.29-.66.65-.24L711,234.82,729.78,260a1.4,1.4,0,0,0,1.54.46c.69-.23.75-1.08.75-1.29V200.95A1,1,0,0,0,731.06,199.93Z"/><path id="_Path_13" data-name="&lt;Path&gt;" class="cls-11" d="M516.11,232.77a19.86,19.86,0,0,0-7.28-4.38l-.21-.08h0c-1.17-.45-.09-1.1-.08-1.1l.16-.1a13,13,0,0,0,6.31-10c.59-5.22-.7-9.37-3.68-12.49-4.76-5-13.93-5-15-5H477.38a1.22,1.22,0,0,0-1.17,1.38v58.12s0,.95.85.95h3.56c.82,0,.91-.95.91-.95V205l15.19,0s7.25-.05,10.83,3.41c1.92,1.85,2.58,4.56,2.18,8.16-.46,4-3.23,6.12-6.11,7.19h0l0,0a1.86,1.86,0,0,0-1.22,1.74v5.23a1.78,1.78,0,0,0,1.28,1.69h0c3.17.72,6.56,2,8.74,4.16a8,8,0,0,1,2.41,5.95c0,8.38-6.8,12.28-21.41,12.28h-4.49a1,1,0,0,0-1,1v3.43a.9.9,0,0,0,.88.87h4.58c4.4,0,10.88-.26,16.38-2.52,6.77-2.79,10.35-8,10.35-15.08A13.23,13.23,0,0,0,516.11,232.77Z"/><path id="_Path_14" data-name="&lt;Path&gt;" class="cls-12" d="M99.42,244.56h0c-.93-.82-.09-1.1.14-1.16l.2,0a30.12,30.12,0,0,0,5.76-1.92c5.65-2.57,12.39-8.06,12.39-19.58,0-6.53-2.07-11.79-6.14-15.64-7.33-6.92-18.67-6.64-19.94-6.59h-17a1.44,1.44,0,0,0-1.5,1.54V258.9A1.55,1.55,0,0,0,75,260.5h2.41c1.37,0,1.33-1.6,1.33-1.6V206.08a1.05,1.05,0,0,1,1.06-1.13H92.07c.09,0,10.14-.45,16.06,5.14,3,2.84,4.48,6.69,4.48,11.77,0,7-3,11.8-9.1,14.66a27.2,27.2,0,0,1-9.35,2.3h0a1.92,1.92,0,0,0-1.83,2.07v2.91a4.23,4.23,0,0,0,1.61,3l14.54,12.7h0l.16.14a3.81,3.81,0,0,0,2.36.84h3.67c2.74,0,.91-1.84.9-1.85Z"/><path id="_Path_15" data-name="&lt;Path&gt;" class="cls-7" d="M379.77,199.63h-3.29a1.51,1.51,0,0,0-1.34,1L357.41,253c-.74,2.2-1.54.28-1.63,0l-19.86-52.45a1.58,1.58,0,0,0-1.37-.95h-3.31c-1.4,0-.87,1.31-.87,1.31h0l22.19,58.61a1.58,1.58,0,0,0,1.37.95h5.54a1.51,1.51,0,0,0,1.34-1l19.85-58.67C380.75,200.59,381,199.63,379.77,199.63Z"/></g><path id="_Compound_Path_" data-name="&lt;Compound Path&gt;" class="cls-13" d="M461.45,40.88,417.31,2.48A11.69,11.69,0,0,0,410.15,0L373,1.89c-2.24.11-4.15.17-4.23.12s-.15,0-.15,0-1.83.18-4.08.3l-49.9,2.53c-6.83.35-10.48,3-10.52,3L271.31,31.3a8.69,8.69,0,0,0-3.24,6.45l.59,29.16a10.55,10.55,0,0,0,3.16,6.76l21.59,18.8a21.54,21.54,0,0,0,7,3.78l63.2,17.63,1.39.4a14.48,14.48,0,0,1,5.42,3.55l1.19,1.19,36,35.86c1.59,1.58,3.38,1.11,4-1.06l6.14-22.3a10.55,10.55,0,0,1,4.4-6.31l30.7-22a11,11,0,0,0,3.9-6.42l7.15-49.2A8.36,8.36,0,0,0,461.45,40.88ZM358.54,8.39h.15c.63,0,3.11,0,3.75,1.23.8,1.58-.73,3.26-.73,3.26h0L329.16,47.31c-.83.88-3.36,2.68-6.07,2.18s-3.8-5-3.8-5l-5.59-27c-.17-.92-.53-3.45.46-5s3.44-2,4.47-2.09l.49,0h0l39.41-2Zm-75,29.38h0l-.59-.27a4.52,4.52,0,0,1-2.65-3.36,4,4,0,0,1,1.67-3.35l19.58-14c.54-.37,2.66-1.73,4.37-1.09a4.15,4.15,0,0,1,2.18,3l5,24.06c.22,1,.79,4.29-1.17,5.58-2.15,1.42-5.41,0-5.41,0Zm-9.12,26.48-.17-8.42h0v-.51c0-.69.13-1.88.86-2.08,1.08-.29,1.89,1.51,1.89,1.51h0l9.57,20.36h0l.06.14c.23.5,1,2.26.27,2.66s-1.64-.25-2-.58l-.21-.18h0L277.54,71A10.56,10.56,0,0,1,274.38,64.25Zm24.26,18.89c-2.25-.22-3.4-3-3.62-3.47l0-.08h0L280.06,47.84h0s-1-2.41.08-3.58,3.36-.15,3.36-.15l25.44,11.73s3.53,1.64,4.32,5.06c.71,3.06-.62,5.72-1.82,7.67L303,80.5S301.12,83.38,298.64,83.13Zm51.37,21L309.39,92.78c-6.19-1.73-3.94-5.8-3.25-6.83l11.08-15.56a5.79,5.79,0,0,1,4-2.24c3-.18,5.41,2.47,5.92,3l26.34,28.74h0l.12.13C354.4,101,359.28,106.69,350,104.11Zm18.32-7c-.27,10.16-7.16,2.74-7.19,2.71L330.58,66.46a9.19,9.19,0,0,1-2.69-6.23,9,9,0,0,1,2.21-5.52l33.86-35.81c.38-.38,1.91-1.82,3.27-1.14a3,3,0,0,1,1.32,2.55ZM382.58,8.2c.33-.87,1.48-1.08,2-1.13l.33,0h0l22-1.12a4.89,4.89,0,0,1,5.16,3.73l3.1,11.22h0l.27,1c.27,1.1.43,2.54-.71,3.31-1.53,1-4-.34-4-.34L383.54,10C383.25,9.89,382.2,9.21,382.58,8.2ZM374.3,19.82h0s-.1-3.42,1.78-4.81,4.78.14,4.78.14l28.22,15.31h0l.4.22c.84.49,2.72,1.76,2.76,3.46.06,2.53-2.81,4.24-2.81,4.24l-24.56,15h0c-.73.44-4.93,2.62-8.1.84-2.18-1.23-2.5-4.81-2.55-6.18Zm2.17,83.8c-2.09-1-2.37-4.44-2.39-5.8l.06-21.56h0s0-.06,0-.16v-.23c0-1.19.22-4.84,2.25-6,2.56-1.41,6.59.51,6.59.51l26,14.43h0l.32.18a4.14,4.14,0,0,1,2.23,3.32,3.94,3.94,0,0,1-2.27,3.55L409,92h0L384.28,103S379.41,105.06,376.47,103.61Zm35.8,26.25-3.56,12.93c-.6,2.16-2.39,2.64-4,1.06l-20.36-20.25s-2.31-2.31-1.41-3.56c.71-1,2.54-.72,3.36-.54l23.06,5.5A3.93,3.93,0,0,1,412.28,129.87Zm4.62-27.34-2.37,11.11s-.66,3-2.54,4.2c-2.12,1.3-5.69.49-5.69.49l-19-4.53c-8-2.16-.93-5.44-.28-5.73l.05,0h0l24.27-10.74h0s2.9-1.26,4.55.45A5,5,0,0,1,416.89,102.53Zm.56-22.08c-2.22,1.12-5.46-.54-5.46-.54L389.57,67.49h0l-.59-.33a6,6,0,0,1-3.06-4.55c-.15-2.63,2.22-4.46,3.22-5.11L411.5,43.86h0l.23-.14c.78-.46,3.46-1.88,5.35-.9,2.08,1.09,2.12,4.28,2.14,5.25l.4,27.41C419.63,76.67,419.67,79.32,417.45,80.44Zm2.77-66.76c.72-.32,1.54.31,1.79.52l24,20.89s1.35,1.26.87,2-1.74.31-1.74.31l-13.94-3.72c-.68-.18-4.21-1.27-6.09-3.23a12.48,12.48,0,0,1-2.6-4.82l0-.15h0l-2.7-9.76S419.33,14.07,420.22,13.68Zm7.27,39.42,16.29,35.22c.94,2-.07,3.25-2.24,2.69l-9.38-2.42a11,11,0,0,1-5.08-2.93c-1.28-1.45-1.57-4-1.63-5.42l-.39-26.53c0-.41,0-1.87.83-2S427.49,53.1,427.49,53.1Zm17.13,49-.33.24h0L425.58,115.7h0l0,0c-.33.23-2.49,1.69-4,.74a3.1,3.1,0,0,1-1.09-3.2l3.16-14.83a6,6,0,0,1,2.61-3.69,7.25,7.25,0,0,1,5.36-.35l12.1,3.11h0l.08,0a2.88,2.88,0,0,1,2.08,1.78A2.82,2.82,0,0,1,444.62,102.06Zm13-51.2-5.14,35.4c-.09.49-.38,1.61-1.29,1.77-1.17.21-1.89-1.41-1.89-1.41L430.26,45.38a4.82,4.82,0,0,1,0-4.28c.78-1.29,2.6-1,3.37-.85l.36.1h0l20.3,5.42A4.71,4.71,0,0,1,457.65,50.86Z"/></g></g></svg>