<svg xmlns="http://www.w3.org/2000/svg" viewBox="0 0 507.4 164.74"><defs><style>.cls-1{fill:#fff;}.cls-2{fill:none;stroke:#fff;stroke-miterlimit:10;stroke-width:0.5px;}</style></defs><title>Asset 1</title><g id="Layer_2" data-name="Layer 2"><g id="レイヤー_1" data-name="レイヤー 1"><path class="cls-1" d="M161.55,10.75v25h-.7v-25Z"/><path class="cls-1" d="M171,17.75v4.45H171a6.35,6.35,0,0,1,.79-1.93,6.09,6.09,0,0,1,3.27-2.57,7.49,7.49,0,0,1,2.42-.37,7.58,7.58,0,0,1,2.57.42A5.49,5.49,0,0,1,183.44,21a7.59,7.59,0,0,1,.47,2.78V35.74h-.7V23.91a7,7,0,0,0-.46-2.68,5,5,0,0,0-1.24-1.82,4.91,4.91,0,0,0-1.82-1,7.09,7.09,0,0,0-2.19-.33,6.27,6.27,0,0,0-2.83.61,6,6,0,0,0-2,1.65,7.22,7.22,0,0,0-1.24,2.4,9.7,9.7,0,0,0-.42,2.87V35.74h-.7v-18Z"/><path class="cls-1" d="M190.74,17.75h3v-4a3.47,3.47,0,0,1,.33-1.68,2.25,2.25,0,0,1,.86-.89,3,3,0,0,1,1.15-.37,10.87,10.87,0,0,1,1.19-.07,6.12,6.12,0,0,1,.86.05l.65.09v.7l-.87-.1c-.26,0-.51,0-.77,0a2.84,2.84,0,0,0-2.19.61,3,3,0,0,0-.51,1.94v3.74h3.88v.7h-3.88V35.74h-.7V18.45h-3Z"/><path class="cls-1" d="M204.28,23.19a9,9,0,0,1,1.56-3,7.87,7.87,0,0,1,2.54-2.08,8.09,8.09,0,0,1,7,0,7.88,7.88,0,0,1,2.54,2.08,9.05,9.05,0,0,1,1.56,3,12.29,12.29,0,0,1,0,7.1,9,9,0,0,1-1.56,3,7.41,7.41,0,0,1-6,2.83,7.51,7.51,0,0,1-3.47-.77,7.66,7.66,0,0,1-2.54-2.07,9,9,0,0,1-1.56-3,12.29,12.29,0,0,1,0-7.1Zm.65,6.84a8.38,8.38,0,0,0,1.42,2.78,7,7,0,0,0,2.33,1.92,6.85,6.85,0,0,0,3.2.72,6.78,6.78,0,0,0,3.17-.72,7,7,0,0,0,2.33-1.92A8.38,8.38,0,0,0,218.79,30a11.4,11.4,0,0,0,.47-3.29,11.28,11.28,0,0,0-.47-3.25,8.38,8.38,0,0,0-1.42-2.78A7.23,7.23,0,0,0,215,18.76a6.65,6.65,0,0,0-3.17-.73,6.72,6.72,0,0,0-3.2.73,7.23,7.23,0,0,0-2.33,1.94,8.38,8.38,0,0,0-1.42,2.78,11.28,11.28,0,0,0-.47,3.25A11.4,11.4,0,0,0,204.93,30Z"/><path class="cls-1" d="M227.76,35.74v-18h.7v4.45h.07a7,7,0,0,1,.77-1.91,5.37,5.37,0,0,1,1.4-1.56,6.86,6.86,0,0,1,2.08-1.05,8.69,8.69,0,0,1,2.82-.35V18a6.75,6.75,0,0,0-3.2.51,6.07,6.07,0,0,0-2.22,1.68,7.05,7.05,0,0,0-1.29,2.47,9.93,9.93,0,0,0-.42,2.87V35.74Z"/><path class="cls-1" d="M242.43,17.75v4.45h.07a6.66,6.66,0,0,1,.77-1.93,6.33,6.33,0,0,1,1.29-1.54,5.92,5.92,0,0,1,1.7-1,5.32,5.32,0,0,1,2-.37,5.15,5.15,0,0,1,3.52,1.07,5.41,5.41,0,0,1,1.87,3.13h.07a5.56,5.56,0,0,1,2.07-3,5.9,5.9,0,0,1,3.64-1.16,6.65,6.65,0,0,1,2.73.49,4.53,4.53,0,0,1,1.75,1.35,5.27,5.27,0,0,1,.95,2.06,11.87,11.87,0,0,1,.28,2.68V35.74h-.7V23.91a11.83,11.83,0,0,0-.23-2.42,4.65,4.65,0,0,0-.81-1.85,3.76,3.76,0,0,0-1.54-1.19A6.11,6.11,0,0,0,259.4,18a5.26,5.26,0,0,0-4.13,1.89,6.19,6.19,0,0,0-1.12,2,7.43,7.43,0,0,0-.38,2.4V35.74h-.7V24.19a14.09,14.09,0,0,0-.19-2.38,5.38,5.38,0,0,0-.72-2,3.71,3.71,0,0,0-1.47-1.33,5.33,5.33,0,0,0-2.45-.49,4.83,4.83,0,0,0-2.42.61A5.76,5.76,0,0,0,244,20.29a7.76,7.76,0,0,0-1.16,2.4,10.09,10.09,0,0,0-.4,2.87V35.74h-.7v-18Z"/><path class="cls-1" d="M274.35,21A5.41,5.41,0,0,1,275.66,19a6.08,6.08,0,0,1,2.1-1.26,8.51,8.51,0,0,1,2.92-.46,10.09,10.09,0,0,1,2.26.25,4.85,4.85,0,0,1,1.87.86A4.5,4.5,0,0,1,286.11,20a5.76,5.76,0,0,1,.53,2.45V33.92a1.16,1.16,0,0,0,.21.77,1,1,0,0,0,.56.33,2.61,2.61,0,0,0,.75.07l.75-.05v.7h-1a2.46,2.46,0,0,1-1.35-.37,1.51,1.51,0,0,1-.58-1.38V31.64h-.07a5.58,5.58,0,0,1-.89,1.68,6.49,6.49,0,0,1-1.54,1.44,7.89,7.89,0,0,1-2.12,1,8.74,8.74,0,0,1-2.59.37,7.23,7.23,0,0,1-4.37-1.21,4.2,4.2,0,0,1-1.65-3.62,5.72,5.72,0,0,1,.54-2.7A4.27,4.27,0,0,1,274.67,27a5.6,5.6,0,0,1,2-.81,16.45,16.45,0,0,1,2.24-.3l3.19-.19a9.86,9.86,0,0,0,2.19-.35,2.37,2.37,0,0,0,1.26-.81,2.58,2.58,0,0,0,.4-1.56,10.71,10.71,0,0,0-.14-1.68,3.66,3.66,0,0,0-.68-1.61,3.92,3.92,0,0,0-1.59-1.21,7,7,0,0,0-2.83-.47,6.47,6.47,0,0,0-4.41,1.38,5.45,5.45,0,0,0-1.75,3.9h-.7A7.19,7.19,0,0,1,274.35,21Zm11.51,4.22a2.19,2.19,0,0,1-1.08.75,8.83,8.83,0,0,1-1.68.4,17.7,17.7,0,0,1-2,.17q-1.1,0-2.15.11a16.72,16.72,0,0,0-2,.26,4.85,4.85,0,0,0-1.77.7,3.58,3.58,0,0,0-1.23,1.4,5.13,5.13,0,0,0-.46,2.33,4.6,4.6,0,0,0,.26,1.52,3.23,3.23,0,0,0,.89,1.33,4.87,4.87,0,0,0,1.63.94,7.19,7.19,0,0,0,2.47.37,7.72,7.72,0,0,0,3.12-.6,7,7,0,0,0,2.29-1.56,6.42,6.42,0,0,0,1.4-2.22,7.31,7.31,0,0,0,.47-2.59V25.17Z"/><path class="cls-1" d="M297.52,32.24a4.33,4.33,0,0,0,.23,1.58,2,2,0,0,0,.58.84,1.51,1.51,0,0,0,.77.33,6.74,6.74,0,0,0,.84.05l.95,0a2,2,0,0,0,.59-.09v.7l-.61.07q-.3,0-1.1,0a3.13,3.13,0,0,1-2.08-.72,3.32,3.32,0,0,1-.86-2.64V18.45h-3.29v-.7h3.29V12.08h.7v5.67h4.06v.7h-4.06Z"/><path class="cls-1" d="M308.93,14.28V10.75h.7v3.54Zm0,21.46v-18h.7v18Z"/><path class="cls-1" d="M318,23.19a9,9,0,0,1,1.56-3,7.87,7.87,0,0,1,2.54-2.08,8.09,8.09,0,0,1,7,0,7.88,7.88,0,0,1,2.54,2.08,9.05,9.05,0,0,1,1.56,3,12.29,12.29,0,0,1,0,7.1,9,9,0,0,1-1.56,3,7.41,7.41,0,0,1-6,2.83,7.51,7.51,0,0,1-3.47-.77,7.66,7.66,0,0,1-2.54-2.07,9,9,0,0,1-1.56-3,12.29,12.29,0,0,1,0-7.1Zm.65,6.84A8.38,8.38,0,0,0,320,32.82a7,7,0,0,0,2.33,1.92,6.85,6.85,0,0,0,3.2.72,6.78,6.78,0,0,0,3.17-.72A7,7,0,0,0,331,32.82,8.38,8.38,0,0,0,332.47,30a11.4,11.4,0,0,0,.47-3.29,11.28,11.28,0,0,0-.47-3.25A8.38,8.38,0,0,0,331,20.71a7.23,7.23,0,0,0-2.33-1.94,6.65,6.65,0,0,0-3.17-.73,6.72,6.72,0,0,0-3.2.73A7.23,7.23,0,0,0,320,20.71a8.38,8.38,0,0,0-1.42,2.78,11.28,11.28,0,0,0-.47,3.25A11.4,11.4,0,0,0,318.61,30Z"/><path class="cls-1" d="M342.14,17.75v4.45h.07a6.35,6.35,0,0,1,.79-1.93,6.09,6.09,0,0,1,3.27-2.57,7.49,7.49,0,0,1,2.42-.37,7.58,7.58,0,0,1,2.57.42A5.49,5.49,0,0,1,354.62,21a7.59,7.59,0,0,1,.47,2.78V35.74h-.7V23.91a7,7,0,0,0-.46-2.68,5,5,0,0,0-1.24-1.82,4.91,4.91,0,0,0-1.82-1,7.09,7.09,0,0,0-2.19-.33,6.27,6.27,0,0,0-2.83.61,6,6,0,0,0-2,1.65,7.22,7.22,0,0,0-1.24,2.4,9.7,9.7,0,0,0-.42,2.87V35.74h-.7v-18Z"/><path class="cls-1" d="M8,126.53H0a2.69,2.69,0,0,1,.32-1.37A4.89,4.89,0,0,1,1.2,124a10.05,10.05,0,0,1,1.22-1l1.34-1q.68-.47,1.33-1a9.59,9.59,0,0,0,1.16-1,4.83,4.83,0,0,0,.82-1.14,3,3,0,0,0,.05-2.55,2.56,2.56,0,0,0-.69-.9,3,3,0,0,0-1-.54,4.54,4.54,0,0,0-1.33-.18,4.12,4.12,0,0,0-1.6.28,2.83,2.83,0,0,0-1.09.78A3.13,3.13,0,0,0,.76,117a5.65,5.65,0,0,0-.19,1.52H.21a4.51,4.51,0,0,1,1-3,3.64,3.64,0,0,1,2.87-1.08,5,5,0,0,1,1.44.2,3.32,3.32,0,0,1,1.16.61,2.94,2.94,0,0,1,.78,1,3.42,3.42,0,0,1-.24,3.2,7.39,7.39,0,0,1-1.33,1.51,16.47,16.47,0,0,1-1.73,1.33q-.93.62-1.75,1.25A9.7,9.7,0,0,0,1,124.75a2.48,2.48,0,0,0-.65,1.43H8Z"/><path class="cls-1" d="M19.74,122.79a6.17,6.17,0,0,1-.75,2,4.16,4.16,0,0,1-1.39,1.41,4,4,0,0,1-2.16.54,4,4,0,0,1-2.15-.54,4.13,4.13,0,0,1-1.4-1.41,6.15,6.15,0,0,1-.75-2,11.44,11.44,0,0,1,0-4.46,6.14,6.14,0,0,1,.75-2,4.22,4.22,0,0,1,1.4-1.42,4,4,0,0,1,2.15-.54,4,4,0,0,1,2.16.54A4.25,4.25,0,0,1,19,116.34a6.17,6.17,0,0,1,.75,2,11.44,11.44,0,0,1,0,4.46Zm-.33-4.27a6.08,6.08,0,0,0-.67-1.88,4,4,0,0,0-1.27-1.38,3.57,3.57,0,0,0-2-.54,3.57,3.57,0,0,0-2,.54,4,4,0,0,0-1.27,1.38,6.05,6.05,0,0,0-.67,1.88,10.84,10.84,0,0,0,0,4.08,6,6,0,0,0,.67,1.88,4,4,0,0,0,1.27,1.38,3.57,3.57,0,0,0,2,.54,3.57,3.57,0,0,0,2-.54,4,4,0,0,0,1.27-1.38,6.07,6.07,0,0,0,.67-1.88,10.84,10.84,0,0,0,0-4.08Z"/><path class="cls-1" d="M27.29,115a5.07,5.07,0,0,1-1.41,1.31,6.5,6.5,0,0,1-1.77.8v-.35a6.85,6.85,0,0,0,1-.39,5.89,5.89,0,0,0,.79-.47,6.1,6.1,0,0,0,.71-.6q.34-.33.71-.76h.39v11.95h-.35V115Z"/><path class="cls-1" d="M42,121a3.08,3.08,0,0,1,.82,2.22,3.39,3.39,0,0,1-.35,1.6,3.16,3.16,0,0,1-.94,1.1,4,4,0,0,1-1.38.63,7,7,0,0,1-3.34,0,4,4,0,0,1-1.38-.63,3.15,3.15,0,0,1-.94-1.1,3.38,3.38,0,0,1-.35-1.6A3.08,3.08,0,0,1,35,121a3.46,3.46,0,0,1,2.24-1v0a3.12,3.12,0,0,1-1-.29,3,3,0,0,1-.78-.54,2.41,2.41,0,0,1-.53-.76,2.33,2.33,0,0,1-.19-.95A3,3,0,0,1,35,116a2.59,2.59,0,0,1,.8-.94,3.38,3.38,0,0,1,1.19-.54,6.47,6.47,0,0,1,2.92,0,3.39,3.39,0,0,1,1.19.54,2.59,2.59,0,0,1,.8.94,3,3,0,0,1,.29,1.38,2.34,2.34,0,0,1-.19.95,2.43,2.43,0,0,1-.53.76,3,3,0,0,1-.78.54,3.13,3.13,0,0,1-1,.29v0A3.46,3.46,0,0,1,42,121Zm.13.78a2.65,2.65,0,0,0-.89-.93,3.8,3.8,0,0,0-1.27-.5,7.56,7.56,0,0,0-3,0,3.79,3.79,0,0,0-1.27.5,2.65,2.65,0,0,0-.89.93,2.85,2.85,0,0,0-.33,1.44,3.07,3.07,0,0,0,.32,1.47,2.81,2.81,0,0,0,.88,1,3.74,3.74,0,0,0,1.27.56,6.58,6.58,0,0,0,3,0,3.75,3.75,0,0,0,1.27-.56,2.82,2.82,0,0,0,.88-1,3.08,3.08,0,0,0,.32-1.47A2.86,2.86,0,0,0,42.15,121.75Zm-.55-5.64a2.33,2.33,0,0,0-.76-.82,3.22,3.22,0,0,0-1.08-.44,6.05,6.05,0,0,0-2.51,0,3.22,3.22,0,0,0-1.08.44,2.33,2.33,0,0,0-.76.82,2.56,2.56,0,0,0-.29,1.28,1.94,1.94,0,0,0,.31,1.1,2.44,2.44,0,0,0,.79.76,3.74,3.74,0,0,0,1.09.43,5.22,5.22,0,0,0,2.41,0,3.76,3.76,0,0,0,1.09-.43,2.44,2.44,0,0,0,.79-.76,1.94,1.94,0,0,0,.31-1.1A2.56,2.56,0,0,0,41.6,116.11Z"/><path class="cls-1" d="M47.4,126.53v-1.72h.35v1.72Z"/><path class="cls-1" d="M57,115a5.07,5.07,0,0,1-1.41,1.31,6.5,6.5,0,0,1-1.77.8v-.35a6.85,6.85,0,0,0,1-.39,5.89,5.89,0,0,0,.79-.47,6.1,6.1,0,0,0,.71-.6q.34-.33.71-.76h.39v11.95H57V115Z"/><path class="cls-1" d="M65.57,126.53v-1.72h.35v1.72Z"/><path class="cls-1" d="M71.24,116.58a3.18,3.18,0,0,1,.82-1.22,3.46,3.46,0,0,1,1.3-.74,5.53,5.53,0,0,1,1.7-.25,6,6,0,0,1,1.39.16,3.65,3.65,0,0,1,1.19.51,2.64,2.64,0,0,1,.84.91,2.73,2.73,0,0,1,.32,1.35,2.61,2.61,0,0,1-.73,2,3,3,0,0,1-1.84.81v0a3.74,3.74,0,0,1,1,.25,2.81,2.81,0,0,1,.9.58,2.76,2.76,0,0,1,.63.94,3.42,3.42,0,0,1,.24,1.33,3.22,3.22,0,0,1-1.2,2.59,3.84,3.84,0,0,1-1.28.68,5.18,5.18,0,0,1-1.56.23,5.7,5.7,0,0,1-1.84-.28,3.87,3.87,0,0,1-1.41-.82,3.32,3.32,0,0,1-.87-1.33,4.35,4.35,0,0,1-.22-1.81H71a4,4,0,0,0,.19,1.68,3.06,3.06,0,0,0,.79,1.22,3.45,3.45,0,0,0,1.3.75,5.42,5.42,0,0,0,1.7.25,4.77,4.77,0,0,0,1.39-.2,3.5,3.5,0,0,0,1.18-.61,3.06,3.06,0,0,0,.82-1,2.91,2.91,0,0,0,.31-1.36,3.11,3.11,0,0,0-.25-1.32,2.35,2.35,0,0,0-.72-.9,3.26,3.26,0,0,0-1.09-.53,6.11,6.11,0,0,0-1.36-.21h-.86v-.35h.86a5.1,5.1,0,0,0,1.15-.13,3.06,3.06,0,0,0,1-.44,2.33,2.33,0,0,0,.74-.81,2.51,2.51,0,0,0,.28-1.24,2.42,2.42,0,0,0-.32-1.21,2.47,2.47,0,0,0-.77-.8,3.24,3.24,0,0,0-1.07-.44,5.7,5.7,0,0,0-1.23-.13,5.14,5.14,0,0,0-1.55.22,3.14,3.14,0,0,0-1.19.67,2.86,2.86,0,0,0-.75,1.12,4.14,4.14,0,0,0-.24,1.56H71A4.52,4.52,0,0,1,71.24,116.58Z"/><path class="cls-1" d="M86.67,115a5.07,5.07,0,0,1-1.41,1.31,6.5,6.5,0,0,1-1.77.8v-.35a6.85,6.85,0,0,0,1-.39,5.89,5.89,0,0,0,.79-.47,6.1,6.1,0,0,0,.71-.6q.34-.33.71-.76h.39v11.95H86.7V115Z"/><path class="cls-1" d="M116.69,126.32v-11.7h4.95v.45h-4.5v11.25Z"/><path class="cls-1" d="M135.45,115.48c0,.09-.09.15-.26.18,0,.06.26,9.49,6.95,12.49a2,2,0,0,0-.35.36c-4.75-2.17-6.27-7.56-6.76-10.68h0c-.39,3.15-1.68,8.29-6.68,10.65a1.94,1.94,0,0,0-.31-.3c6.38-3,6.6-10.69,6.71-12.75Z"/><path class="cls-1" d="M155.28,126.91h6.57v.45H148.34v-.45h6.49v-9.73h-5.74v-.45h12.09v.45h-5.9Z"/><path class="cls-1" d="M172.34,117.47v2.92c0,.29,0,.6,0,.9h3.07v.45h-3.1a12.39,12.39,0,0,1-.27,1.73c.66.64,2.6,2.74,3.06,3.27l-.31.38c-.51-.63-2.09-2.4-2.87-3.21a8.2,8.2,0,0,1-3.3,4.46,1.31,1.31,0,0,0-.3-.35,7.93,7.93,0,0,0,3.54-6.27h-3.46v-.45h3.49a9.1,9.1,0,0,0,0-.92v-2.91h-1.74a11.18,11.18,0,0,1-1.38,2.88,3.83,3.83,0,0,0-.37-.24,13.94,13.94,0,0,0,2-5.28l.68.18c0,.09-.12.14-.27.14-.14.63-.3,1.26-.48,1.87h4.62v.45Zm3.81-1.27h5.32v11.89H181v-1.2H176.6v1.32h-.45Zm.45,10.24H181v-9.79H176.6Z"/><path class="cls-1" d="M194.63,118.45a16.78,16.78,0,0,0-1.43-1.94l.33-.17a15.88,15.88,0,0,1,2.19,3.29l-.33.21a11.15,11.15,0,0,0-.52-1c-2.22.12-4.56.23-6,.29,0,.1-.09.15-.18.18l-.21-.65,1.24,0a27.14,27.14,0,0,0,1.77-3.72l.63.19q0,.11-.27.14a36.93,36.93,0,0,1-1.67,3.38Zm.06,2.16v7.3c0,.74-.29.75-2.36.75a1.75,1.75,0,0,0-.2-.5l1.33,0c.71,0,.77,0,.77-.29v-2.23H190v3h-.45v-8.1Zm-.45.45H190v1.81h4.21ZM190,125.23h4.21v-1.91H190ZM201,121c.69,0,.81-.29.87-2a1.22,1.22,0,0,0,.45.21c-.07,1.75-.25,2.2-1.3,2.2h-3.15c-1.14,0-1.47-.17-1.47-1v-5.55l.67.06c0,.08-.07.14-.22.15v2.71a38.14,38.14,0,0,0,4.33-1.57l.45.44a.13.13,0,0,1-.11,0l-.13,0a43.9,43.9,0,0,1-4.54,1.55v2.2c0,.45.15.56,1,.56Zm-4.15,6.51c0,.46.17.58,1,.58h3.29c.76,0,.88-.31.95-2.21a1.46,1.46,0,0,0,.45.19c-.09,2-.27,2.45-1.38,2.45h-3.27c-1.17,0-1.51-.17-1.51-1v-5.52l.67.06c0,.08-.07.14-.22.15v2.54a19.54,19.54,0,0,0,4.59-1.73l.4.45a.12.12,0,0,1-.1,0l-.12,0a21.52,21.52,0,0,1-4.77,1.68Z"/><path class="cls-1" d="M211.49,115.91c-.06.17-.21.24-.53.21a37.19,37.19,0,0,0-.78,6.87,19.78,19.78,0,0,0,.26,3.55c.36-.94,1-2.71,1.26-3.29l.45.17c-.69,1.83-1.09,2.71-1.29,3.35a2.5,2.5,0,0,0-.12.69,1.32,1.32,0,0,0,.07.44l-.48.13a15.23,15.23,0,0,1-.64-5,40.16,40.16,0,0,1,.86-7.3Zm9.94,10.8c-.53,0-1.06,0-1.59,0a20.06,20.06,0,0,1-3-.18c-1.68-.25-2.55-1.21-2.55-2.37a4.54,4.54,0,0,1,1.48-2.82l.4.27a3.93,3.93,0,0,0-1.39,2.53c0,.87.72,1.69,2.19,1.92a17.65,17.65,0,0,0,2.6.17c.58,0,1.2,0,1.8-.06Zm-7-8.79a45.82,45.82,0,0,0,6.66-.58l.06.49a54,54,0,0,1-6.71.58Z"/><path class="cls-1" d="M240.25,127.16a14.89,14.89,0,0,0-5.09-2.61c0,.44,0,1.27,0,1.67,0,1.38-1,2.08-2.65,2.08-1.79,0-3.26-.81-3.26-2.32,0-1.26,1.43-2.21,3.32-2.24a9.73,9.73,0,0,1,2.05.2c0-.52-.09-1-.12-1.41-.12-1.92-.21-4.83-.21-7.29l.95.08c0,.15-.14.28-.41.31v3a38,38,0,0,0,5.27-.46l.06.51a45.07,45.07,0,0,1-5.32.44c0,1.15.08,2.11.15,3.33,0,.47.11,1.05.13,1.58a16.66,16.66,0,0,1,5.41,2.71Zm-5.55-1.81c0-.31,0-.65,0-.9a7.44,7.44,0,0,0-1.91-.23c-2,0-3,.84-3,1.76,0,1.23,1.34,1.84,2.73,1.84s2.23-.6,2.23-1.59Z"/><path class="cls-1" d="M250.79,121.66a10,10,0,0,1,4.32-1.08c2.46,0,3.9,1.38,3.9,3.49,0,2.73-2.41,4.2-5.23,4.2-2,0-3.29-.71-3.29-1.91a2.11,2.11,0,0,1,2.34-1.86,3.28,3.28,0,0,1,3.06,3,3.53,3.53,0,0,0,2.64-3.37c0-1.86-1.29-3-3.44-3a9.29,9.29,0,0,0-5.78,2.06c-.49.48-1.06,1.12-1.48,1.62l-.36-.36c1.53-1.67,6.18-6.12,8.23-8.05-1,.13-4.24.24-6.31.3a.42.42,0,0,1-.27.23l-.11-.71c2.12,0,5.74-.15,6.9-.31l.21-.1.53.57a.77.77,0,0,1-.32.13c-1.26,1.06-4.42,4.11-5.55,5.23Zm3,6.15a6.74,6.74,0,0,0,1.66-.21A2.85,2.85,0,0,0,252.8,125c-1,0-1.85.52-1.85,1.4C251,127.45,252.5,127.81,253.76,127.81Z"/><path class="cls-1" d="M272.89,116.59h-3.78v10.86h-.53V116.59h-3.79v-.47h8.1Z"/><path class="cls-1" d="M287.39,116.12l-4.25,11.32h-.48l-3.78-11.32h.59l2.1,6.28c.57,1.7,1,3.09,1.37,4.33h0c.35-1.26.87-2.71,1.48-4.33l2.36-6.28Z"/><path class="cls-1" d="M301.31,127a7.26,7.26,0,0,1-3.09.58c-2.6,0-5.27-1.63-5.27-5.77,0-3.28,2-5.89,5.69-5.89a5.71,5.71,0,0,1,2.6.49l-.21.44a5.1,5.1,0,0,0-2.34-.51c-3.21,0-5.17,2.15-5.17,5.52,0,3.19,1.84,5.29,5,5.29a5.89,5.89,0,0,0,2.61-.56Z"/><path class="cls-1" d="M319,127.45h-.52l-.35-5.52c-.13-2-.27-3.95-.26-5.07h0c-.42,1.18-.87,2.44-1.56,4.18l-2.54,6.43h-.35L311,121.21c-.69-1.84-1.17-3.13-1.52-4.35h0c0,1.3-.12,3.28-.27,5.23l-.37,5.35h-.54l.82-11.32h.55l2.64,6.94c.54,1.47.95,2.55,1.29,3.6h0c.3-1,.71-2,1.3-3.54l2.73-7h.6Z"/><path class="cls-1" d="M331,118.1l.3.1a.32.32,0,0,1-.08.12,19.09,19.09,0,0,1-1.57,6.55,11.85,11.85,0,0,1,1.86,1.67l-.29.38a11.47,11.47,0,0,0-1.79-1.62,8.11,8.11,0,0,1-3.12,3.36,2,2,0,0,0-.33-.39,7.64,7.64,0,0,0,3.07-3.25,19.21,19.21,0,0,0-2.34-1.49l-.21.77-.42-.23c.4-1.36.95-3.45,1.42-5.49h-1.74v-.45h1.85c.27-1.17.53-2.31.72-3.27l.67.1c0,.09-.09.13-.24.13-.19.89-.43,1.94-.69,3h2.82Zm-3,.48c-.37,1.58-.78,3.19-1.14,4.53a23.25,23.25,0,0,1,2.43,1.48,17.73,17.73,0,0,0,1.47-6Zm11.6,3.06v.45h-3.84v5.75c0,.46-.13.65-.51.73a13.82,13.82,0,0,1-2.45.08,3,3,0,0,0-.2-.47l1.71,0c.93,0,1,0,1-.36v-5.76h-4v-.45h4v-2.71l.42,0a14.53,14.53,0,0,0,2.82-2.86H332v-.45h6.94l.11,0,.38.25a.31.31,0,0,1-.15.09,16.62,16.62,0,0,1-3.48,3.48v2.19Z"/><path class="cls-1" d="M347.76,117v1.81a9.32,9.32,0,0,1-1.6,5.71,1,1,0,0,0-.35-.3,8.79,8.79,0,0,0,1.5-5.41v-2.27h6.21a13.2,13.2,0,0,1-.21-1.69l.73,0c0,.1-.09.15-.24.17,0,.49.09,1,.17,1.5h5.59V117h-5.5a15.06,15.06,0,0,0,1.54,4.14,12.46,12.46,0,0,0,1.66-3l.65.19c0,.09-.14.13-.29.13a12.46,12.46,0,0,1-1.79,3.14c.88,1.41,1.89,2.35,2.74,2.34.45,0,.62-.56.71-2a1.28,1.28,0,0,0,.42.23c-.12,1.71-.39,2.28-1.12,2.28-1,0-2.1-1-3-2.44a11.46,11.46,0,0,1-2.67,2.32,1.71,1.71,0,0,0-.35-.3,10.66,10.66,0,0,0,2.76-2.42,15.65,15.65,0,0,1-1.7-4.53Zm.72,8.1a4,4,0,0,1-2.25,3.06l-.35-.27a3.81,3.81,0,0,0,2.19-2.9Zm-.11-6.37v-.45h4.86v.45Zm4.38,4.14h-3.46v.62h-.45v-3.58h3.92Zm-.45-2.52h-3v2.07h3Zm-1.95,7.2c0,.35.15.42,1.05.42h3.4c.73,0,.84-.19.9-1.75a1.46,1.46,0,0,0,.45.2c-.07,1.65-.27,2-1.32,2h-3.39c-1.21,0-1.54-.12-1.54-.88V125l.67.06c0,.07-.07.13-.22.15Zm3.39-1.5a9.93,9.93,0,0,0-2.9-1.83l.3-.31a9.35,9.35,0,0,1,2.91,1.78Zm2.08-11.22a7.42,7.42,0,0,1,2.27,1.09l-.27.39a7.61,7.61,0,0,0-2.26-1.14Zm3.48,13.29a10.63,10.63,0,0,0-2.93-2.94l.35-.25a10.46,10.46,0,0,1,2.94,2.92Z"/><path class="cls-1" d="M380.09,117h-12V121c0,2.27-.16,5.44-1.42,7.71a1.37,1.37,0,0,0-.37-.27c1.23-2.21,1.35-5.23,1.35-7.44v-4.51h5.83v-1.65l.68.06c0,.07-.08.13-.22.15v1.44h6.18Zm-2,6.61.33.19a.36.36,0,0,1-.12.1,7.91,7.91,0,0,1-3.42,3,18.18,18.18,0,0,0,5.29,1.37,1.52,1.52,0,0,0-.27.4,18.8,18.8,0,0,1-5.5-1.54,20.25,20.25,0,0,1-5.76,1.52,1.54,1.54,0,0,0-.22-.41,19.85,19.85,0,0,0,5.52-1.35,8,8,0,0,1-3-2.61l.39-.18a7.69,7.69,0,0,0,3.12,2.58,7.66,7.66,0,0,0,3.24-2.61H369v-.45h9Zm-1.1-1.35h-5.44v-2.64h-2.73v-.45h2.73v-1.58l.67.06c0,.08-.07.14-.22.15v1.37h4.54v-1.58l.68.06c0,.08-.08.14-.23.15v1.37h3v.45h-3Zm-.45-2.64H372v2.19h4.54Z"/><path class="cls-1" d="M399.76,120.56l.33.12a.21.21,0,0,1-.11.12,23.75,23.75,0,0,1-3.48,3.55l-.34-.24a20.75,20.75,0,0,0,3.09-3.09h-5.76v0h.16c0,.08-.07.12-.22.15v6.71c0,.43-.13.61-.51.7a14.44,14.44,0,0,1-2.55.08,2.27,2.27,0,0,0-.19-.45l1.57,0c1.2,0,1.23,0,1.23-.34V121h-6.41v-.45h8.75a24,24,0,0,0-5.29-2.75l.31-.37a26.69,26.69,0,0,1,3.24,1.44,19.12,19.12,0,0,0,3.81-2.65H388v-.45h9.76a.51.51,0,0,0,.26,0l.42.31a.22.22,0,0,1-.17.08,23.41,23.41,0,0,1-4.18,3,13.3,13.3,0,0,1,1.84,1.17l-.18.24h3.93Z"/><path class="cls-1" d="M409.07,121.07a11.54,11.54,0,0,0-2.62-1.56l.26-.33a10,10,0,0,1,2.63,1.5Zm-2.26,7.06a47.55,47.55,0,0,0,2.26-4.86l.35.27a46.53,46.53,0,0,1-2.12,4.65.32.32,0,0,1,.06.18.34.34,0,0,1,0,.12Zm2.8-11a10.66,10.66,0,0,0-2.43-1.74l.28-.31a10.59,10.59,0,0,1,2.43,1.68Zm2.47,8.52a.28.28,0,0,1-.27.12,10.14,10.14,0,0,1-2.31,3,2.24,2.24,0,0,0-.35-.31,9,9,0,0,0,2.27-3Zm-1.52-10h4.28v9.31h-4.28Zm.45.45v2.49h3.37v-2.49Zm0,2.94v2.49h3.37V119Zm0,2.94v2.54h3.37v-2.54Zm4.27,6.13a18.26,18.26,0,0,0-1.89-2.44l.36-.21a18.94,18.94,0,0,1,1.89,2.38Zm1.1-11.62.67.06c0,.08-.07.13-.22.15v8.44h-.45Zm2.8-1.59.68.06c0,.09-.08.13-.23.15v12.76c0,.48-.18.65-.51.73a12.38,12.38,0,0,1-2.28.09,3.51,3.51,0,0,0-.2-.45h1.2c1.25,0,1.34,0,1.34-.37Z"/><path class="cls-1" d="M427.28,119.66a24,24,0,0,1,4.17,1.32l-.2.46a24.61,24.61,0,0,0-4.15-1.32Zm1.25,7.59c5.05-1.8,8.38-4.5,10.33-9a3.32,3.32,0,0,0,.42.27c-2,4.56-5.38,7.3-10.17,9.06a.32.32,0,0,1-.13.35Zm.3-11.32a24,24,0,0,1,4.13,1.46l-.2.45a24.07,24.07,0,0,0-4.09-1.45Z"/><path class="cls-1" d="M455.42,116.69a.19.19,0,0,1-.15.1,23.86,23.86,0,0,1-3.14,5.31,55.43,55.43,0,0,1,5.84,5.4l-.4.31a52.59,52.59,0,0,0-5.75-5.34,23,23,0,0,1-6.1,5.35,2.61,2.61,0,0,0-.35-.37,22.93,22.93,0,0,0,9.25-10.5h-7.78v-.48h8l.12-.06Z"/><path class="cls-1" d="M476.69,120.76h-5.32l.22.06c0,.09-.12.15-.27.17-.39,3-1.46,5.56-4.72,7.12a2.61,2.61,0,0,0-.35-.37c3.22-1.5,4.2-3.85,4.59-7h-6.16v-.48h12Zm-1.46-4.26H466V116h9.21Z"/><path class="cls-1" d="M494.9,127.75c-.21-.45-.5-1-.84-1.57-3,.3-8.82.6-11.18.73a.41.41,0,0,1-.25.29l-.24-.75,1.61-.06c1-3,2.58-7.59,3.48-10.68l.78.23c-.06.13-.18.18-.39.18-.9,2.91-2.29,7.24-3.36,10.24,3-.14,7-.41,9.28-.62a30.87,30.87,0,0,0-3.1-4.15l.4-.25a29.26,29.26,0,0,1,4.29,6.24Z"/><path class="cls-1" d="M507.4,116.95v11.7h-4.95v-.45H507V116.95Z"/><path class="cls-1" d="M118,151.91c-.06.17-.21.24-.53.21a37.19,37.19,0,0,0-.78,6.87,19.78,19.78,0,0,0,.26,3.55c.36-.94,1-2.71,1.26-3.29l.45.17c-.69,1.83-1.09,2.71-1.29,3.35a2.5,2.5,0,0,0-.12.69,1.32,1.32,0,0,0,.07.44l-.48.13a15.23,15.23,0,0,1-.64-5,40.16,40.16,0,0,1,.86-7.3Zm9.94,10.8c-.53,0-1.06,0-1.59,0a20.06,20.06,0,0,1-3-.18c-1.68-.25-2.55-1.21-2.55-2.37a4.54,4.54,0,0,1,1.48-2.82l.4.27a3.93,3.93,0,0,0-1.39,2.53c0,.87.72,1.69,2.19,1.92a17.65,17.65,0,0,0,2.6.17c.58,0,1.2,0,1.8-.06Zm-7-8.79a45.82,45.82,0,0,0,6.66-.58l.06.49a54,54,0,0,1-6.71.58Z"/><path class="cls-1" d="M140.08,156.32h-4.8v8.35h-.45V151.58h5.25Zm-.45-4.29h-4.35v1.65h4.35Zm-4.35,3.84h4.35v-1.74h-4.35Zm9.84,5h-3.63a4.79,4.79,0,0,0,3.54,2.61,1.08,1.08,0,0,0-.3.39,5.27,5.27,0,0,1-3.71-3H141c-.24,1.06-1.08,2.23-3.88,3.09a2.18,2.18,0,0,0-.29-.36c2.63-.72,3.45-1.79,3.71-2.73h-3.69v-.45h3.77a2.56,2.56,0,0,0,0-.46v-1.14h-3.52v-.45h2.13a5.58,5.58,0,0,0-.88-1.53l.39-.15a5.22,5.22,0,0,1,.93,1.59l-.2.09h2.69l-.09-.06a11.74,11.74,0,0,0,1-1.68l.57.28a.25.25,0,0,1-.26.09,15.72,15.72,0,0,1-.84,1.36h2.29v.45h-3.72v1.14c0,.15,0,.3,0,.46h4.08Zm2.05-9.25v12.25c0,.44-.12.63-.44.72a9.43,9.43,0,0,1-1.92.09,2.16,2.16,0,0,0-.2-.5h1.14c.9,0,1,0,1-.31v-7.53h-4.94v-4.74Zm-.45.45h-4.49v1.65h4.49Zm-4.49,3.84h4.49v-1.74h-4.49Z"/><path class="cls-1" d="M153.79,153.73c1.23,0,5.5-.17,7.35-.24,0-.25-.09-2.48-.09-2.5l.9,0c0,.14-.1.25-.39.3,0,.48,0,1.36.06,2.16,1.76-.06,3.66-.1,5-.12v.51c-1.41,0-3.26,0-5,.09,0,1.27,0,2,.12,3.36a5.25,5.25,0,0,1,.16,1.56c0,1.42-.12,3.94-4.42,5.71l-.32-.41c2.76-1,4-2.58,4.26-4.35h0a2.34,2.34,0,0,1-2.05,1.14,2.46,2.46,0,0,1-2.42-2.55,2.7,2.7,0,0,1,2.58-2.73,2.36,2.36,0,0,1,1.7.63c0-.09,0-.17,0-.23,0-.33,0-1.21-.06-2.13-2.07.06-5.77.18-7.35.25Zm7.59,4.77c0-1.05-.2-2.31-1.8-2.31a2.13,2.13,0,0,0-2.13,2.25,2,2,0,1,0,3.93.06Z"/><path class="cls-1" d="M175.68,157.66a10,10,0,0,1,4.32-1.08c2.46,0,3.9,1.38,3.9,3.49,0,2.73-2.41,4.2-5.23,4.2-2,0-3.29-.71-3.29-1.91a2.11,2.11,0,0,1,2.34-1.86,3.28,3.28,0,0,1,3.06,3,3.53,3.53,0,0,0,2.64-3.37c0-1.86-1.29-3-3.44-3a9.29,9.29,0,0,0-5.78,2.06c-.49.48-1.06,1.12-1.48,1.62l-.36-.36c1.53-1.67,6.18-6.12,8.23-8.05-1,.13-4.24.24-6.31.3a.42.42,0,0,1-.27.23l-.11-.71c2.12,0,5.74-.15,6.9-.31l.21-.1.53.57a.77.77,0,0,1-.32.13c-1.26,1.06-4.42,4.11-5.55,5.23Zm3,6.15a6.74,6.74,0,0,0,1.66-.21,2.85,2.85,0,0,0-2.62-2.64c-1,0-1.85.52-1.85,1.4C175.84,163.45,177.38,163.81,178.65,163.81Z"/><path class="cls-1" d="M192,159.46v-7.2l.79.06c0,.1-.12.21-.31.22v6.92Zm8-7.75c0,.14-.12.21-.32.23v4.83c0,3.12-1.09,5.94-5.47,7.54a1.78,1.78,0,0,0-.31-.39c4.29-1.56,5.31-4.18,5.31-7.15v-5.11Z"/><path class="cls-1" d="M208.79,159.46v-7.2l.79.06c0,.1-.12.21-.31.22v6.92Zm8-7.75c0,.14-.12.21-.31.23v4.83c0,3.12-1.1,5.94-5.47,7.54a1.84,1.84,0,0,0-.31-.39c4.29-1.56,5.31-4.18,5.31-7.15v-5.11Z"/><path class="cls-1" d="M224.33,157.22h12.52v.49h-12a.56.56,0,0,1-.43.27Z"/><path class="cls-1" d="M250.78,152.69a.19.19,0,0,1-.15.1,23.93,23.93,0,0,1-3.13,5.31,55.41,55.41,0,0,1,5.83,5.4l-.4.31a52.39,52.39,0,0,0-5.74-5.34,23,23,0,0,1-6.11,5.35,2.4,2.4,0,0,0-.35-.37A22.93,22.93,0,0,0,250,153H242.2v-.48h8l.12-.06Z"/><path class="cls-1" d="M261.73,157a4.32,4.32,0,0,1,2.65-1.12c1.13,0,1.7.81,1.86,2.07,1.34-.62,3-1.31,4.34-1.8l.31.63h-.09a.43.43,0,0,1-.22-.09c-1.16.4-2.93,1.11-4.28,1.74a11.62,11.62,0,0,1,.06,1.33c0,.56,0,1.19-.06,1.85h-.54c0-.58.07-1.38.07-2.07a8.22,8.22,0,0,0,0-.9c-2,1-3.79,2.16-3.79,3.3s1.18,1.54,3.52,1.54a33.62,33.62,0,0,0,3.79-.15v.51c-1,.09-2.35.12-3.79.12-2.88,0-4-.72-4-2s1.88-2.61,4.21-3.78c-.12-1.29-.68-1.8-1.38-1.8-1.17,0-2.37.69-3.81,2.27a23,23,0,0,1-1.71,1.63l-.33-.34a10.93,10.93,0,0,0,4-6l-1,0h-2.61v-.48h2.6l1.18,0a21.36,21.36,0,0,0,.46-2.26l.88.15c0,.15-.13.24-.36.25a18.39,18.39,0,0,1-.44,1.86,21.71,21.71,0,0,0,5.58-.92l.11.5a22.37,22.37,0,0,1-5.82.9,11.8,11.8,0,0,1-1.3,3.07Z"/><path class="cls-1" d="M283.13,151.54l.33.21a.21.21,0,0,1-.12.1,12.25,12.25,0,0,1-6,6.15,2.38,2.38,0,0,0-.31-.37,11.65,11.65,0,0,0,3.55-2.44,19.37,19.37,0,0,0-2.21-1.9l.3-.27a21,21,0,0,1,2.22,1.86,9.63,9.63,0,0,0,1.91-2.83h-4.53v-.45H283Zm2.94,12c0,.42.12.51.75.51h2.34c.57,0,.64-.31.71-2.14a1.05,1.05,0,0,0,.44.21c-.06,1.9-.21,2.38-1.12,2.38h-2.34c-.95,0-1.22-.15-1.22-1v-3.25h-3.49c-.18,1.71-1,3.3-4.19,4.46a1.33,1.33,0,0,0-.3-.36c3-1.08,3.82-2.55,4-4.1h-3.78v-.45h3.81c0-.18,0-.35,0-.52V157h-2v-.45h8.58V157h-2.25v2.83h4v.45h-4Zm-3.9-4.24c0,.18,0,.34,0,.52h3.46V157h-3.45Zm6.66-8c0,.06-.12.07-.22.07a27,27,0,0,1-2.47,2.08,12.94,12.94,0,0,0,1.3,1.56,20.44,20.44,0,0,0,2.68-2.31l.51.36c0,.06-.12.07-.23.07a27.16,27.16,0,0,1-2.68,2.16,10.36,10.36,0,0,0,3.36,2.16,2.38,2.38,0,0,0-.31.38,12.57,12.57,0,0,1-6.39-6.76l.38-.13a12,12,0,0,0,1.15,2.2,20.5,20.5,0,0,0,2.42-2.2Z"/><path class="cls-1" d="M304.26,157.61a11.41,11.41,0,0,0,1.5,3.14,27.43,27.43,0,0,0,3.53-2.4l.49.3c0,.06-.12.09-.24.08A30.55,30.55,0,0,1,306,161a9.13,9.13,0,0,0,4.86,3.27,1.56,1.56,0,0,0-.3.39,9.92,9.92,0,0,1-6.71-7.09h0a13.61,13.61,0,0,1-2.94,2.19l.23,0c0,.06-.08.12-.23.13v3.75l4.82-.78,0,.39c-2.45.44-5.07.88-6.69,1.13a.21.21,0,0,1-.15.21l-.31-.6,1.86-.28v-3.73a19.6,19.6,0,0,1-3.21,1.42,1.85,1.85,0,0,0-.31-.37,17.9,17.9,0,0,0,6.33-3.5H297.1v-.45h6.49v-2h-4.75v-.45h4.75v-1.85h-5.7v-.45h5.7v-1.62l.68.06c0,.08-.08.14-.23.15v1.41h5.88v.45H304v1.85h4.86v.45H304v2h6.57v.45Z"/><path class="cls-1" d="M319.47,151.46c0,.17-.16.27-.46.3-.12,1.58-.27,5.86-.27,8.1,0,2.46,1.2,3.66,3.3,3.66a7.44,7.44,0,0,0,5.79-3.12,1.51,1.51,0,0,0,.38.33A8,8,0,0,1,322,164c-2.32,0-3.78-1.41-3.78-4.17,0-1.8.15-6.66.27-8.53Z"/><path class="cls-1" d="M334.63,153.35c.94.06,2.05.06,3,.06s1.76,0,2.52,0c0-.77,0-1.68,0-2.25l.93.06c0,.18-.13.25-.42.3,0,.51,0,1.26,0,1.86a27.68,27.68,0,0,0,5.28-.65l.11.48a28.09,28.09,0,0,1-5.4.65l.09,3.22a23.19,23.19,0,0,0,4.53-.63l.11.5a28.6,28.6,0,0,1-4.62.58l.12,2.89a17.76,17.76,0,0,1,4.67,2.5l-.32.42a16.15,16.15,0,0,0-4.32-2.42c0,.31,0,.66,0,.9a2.1,2.1,0,0,1-2.37,2.38c-1.86,0-3.27-.66-3.27-2.05s1.65-2.1,3.22-2.1a7.21,7.21,0,0,1,1.89.23c0-.77-.06-1.73-.09-2.73l-1.64,0c-2.14,0-3.28-.14-3.28-1.14,0-.52.4-.93,1.27-1.53l.35.34c-1,.57-1.12.92-1.12,1.21,0,.51,1,.65,2.79.65l1.61,0-.09-3.21c-1.1,0-2.08,0-3.49,0-.71,0-1.47,0-2.05,0Zm5.82,7.4a6.9,6.9,0,0,0-1.92-.26c-1.27,0-2.74.53-2.74,1.64s1.26,1.6,2.79,1.6,1.89-.63,1.89-1.92Z"/><path class="cls-1" d="M355.38,151.46c0,.17-.16.27-.46.3-.12,1.58-.27,5.86-.27,8.1,0,2.46,1.2,3.66,3.3,3.66a7.44,7.44,0,0,0,5.79-3.12,1.51,1.51,0,0,0,.38.33,8,8,0,0,1-6.18,3.27c-2.32,0-3.78-1.41-3.78-4.17,0-1.8.15-6.66.27-8.53Z"/><path class="cls-1" d="M374.59,151.22c0,.15-.26.27-.45.27-.1.73-.25,1.54-.42,2.63a17.85,17.85,0,0,0,4.72-.9l.17.46a19.49,19.49,0,0,1-5,.93,35.82,35.82,0,0,1-2.85,9.6l-.46-.2a34.2,34.2,0,0,0,2.8-9.39c-.3,0-.62,0-.9,0h-2.07l0-.5c.24,0,.55,0,.9,0s1.72,0,2.14,0c.16-1,.33-2.1.45-3Zm8,12.78-1.28,0a13.78,13.78,0,0,1-3.82-.39,1.94,1.94,0,0,1-1.43-1.9,3.51,3.51,0,0,1,.91-2.16l.39.25a3.2,3.2,0,0,0-.84,1.9c0,1.35,1.23,1.81,4.44,1.81.51,0,1.05,0,1.61-.06Zm-.46-7.3a16.18,16.18,0,0,0-5.36.75l-.15-.43a17.55,17.55,0,0,1,5.52-.79Z"/><line class="cls-2" x1="104.77" y1="22.78" x2="122.95" y2="22.78"/><polyline class="cls-2" points="112.09 0.17 133.82 22.77 112.09 45.38"/></g></g></svg>