<svg xmlns="http://www.w3.org/2000/svg" viewBox="0 0 94.11 12.08"><defs><style>.cls-1{fill:#fff;}.cls-2{fill:none;stroke:#fff;stroke-miterlimit:10;stroke-width:0.25px;}</style></defs><title>info_title_small</title><g id="Layer_2" data-name="Layer 2"><g id="レイヤー_1" data-name="レイヤー 1"><path class="cls-1" d="M16.69,1V11h-.28V1Z"/><path class="cls-1" d="M20.46,3.81V5.59h0a2.55,2.55,0,0,1,.31-.77,2.43,2.43,0,0,1,1.31-1,3,3,0,0,1,1-.15,3,3,0,0,1,1,.17,2.19,2.19,0,0,1,1.34,1.31,3,3,0,0,1,.19,1.11V11h-.28V6.28a2.8,2.8,0,0,0-.18-1.07,2,2,0,0,0-.5-.73A2,2,0,0,0,24,4.06a2.85,2.85,0,0,0-.87-.13,2.5,2.5,0,0,0-1.13.25,2.41,2.41,0,0,0-.82.66,2.88,2.88,0,0,0-.5,1,3.91,3.91,0,0,0-.17,1.15V11h-.28V3.81Z"/><path class="cls-1" d="M28.37,3.81h1.22V2.22a1.39,1.39,0,0,1,.13-.67.9.9,0,0,1,.34-.36A1.19,1.19,0,0,1,30.53,1L31,1l.34,0,.26,0v.28l-.35,0h-.31a1.14,1.14,0,0,0-.87.24,1.21,1.21,0,0,0-.2.78v1.5h1.55v.28H29.87V11h-.28V4.09H28.37Z"/><path class="cls-1" d="M33.79,6a3.62,3.62,0,0,1,.62-1.2,3.15,3.15,0,0,1,1-.83,3.24,3.24,0,0,1,2.79,0,3.16,3.16,0,0,1,1,.83A3.6,3.6,0,0,1,39.85,6a4.91,4.91,0,0,1,0,2.84,3.6,3.6,0,0,1-.62,1.2,3.08,3.08,0,0,1-1,.83,3,3,0,0,1-1.4.31,3,3,0,0,1-1.39-.31,3.08,3.08,0,0,1-1-.83,3.62,3.62,0,0,1-.62-1.2,4.91,4.91,0,0,1,0-2.84ZM34,8.73a3.35,3.35,0,0,0,.57,1.11,2.81,2.81,0,0,0,.93.77,3,3,0,0,0,2.55,0A2.82,2.82,0,0,0,39,9.84a3.35,3.35,0,0,0,.57-1.11,4.55,4.55,0,0,0,.19-1.32,4.51,4.51,0,0,0-.19-1.3A3.35,3.35,0,0,0,39,5a2.89,2.89,0,0,0-.93-.78,2.91,2.91,0,0,0-2.55,0,2.89,2.89,0,0,0-.93.78A3.35,3.35,0,0,0,34,6.11a4.51,4.51,0,0,0-.19,1.3A4.55,4.55,0,0,0,34,8.73Z"/><path class="cls-1" d="M43.18,11V3.81h.28V5.59h0a2.81,2.81,0,0,1,.31-.76,2.17,2.17,0,0,1,.56-.62,2.75,2.75,0,0,1,.83-.42,3.47,3.47,0,0,1,1.13-.14v.28a2.7,2.7,0,0,0-1.28.2,2.42,2.42,0,0,0-.89.67,2.82,2.82,0,0,0-.52,1,4,4,0,0,0-.17,1.15V11Z"/><path class="cls-1" d="M49,3.81V5.59h0a2.67,2.67,0,0,1,.31-.77,2.53,2.53,0,0,1,.52-.62,2.37,2.37,0,0,1,.68-.41,2.12,2.12,0,0,1,.79-.15,2.06,2.06,0,0,1,1.41.43,2.17,2.17,0,0,1,.75,1.25h0a2.23,2.23,0,0,1,.83-1.22,2.36,2.36,0,0,1,1.46-.46,2.65,2.65,0,0,1,1.09.2,1.81,1.81,0,0,1,.7.54,2.09,2.09,0,0,1,.38.83,4.72,4.72,0,0,1,.11,1.07V11h-.28V6.28a4.73,4.73,0,0,0-.09-1,1.85,1.85,0,0,0-.32-.74,1.5,1.5,0,0,0-.62-.48,2.45,2.45,0,0,0-1-.17,2.11,2.11,0,0,0-1.65.76,2.46,2.46,0,0,0-.45.81,3,3,0,0,0-.15,1V11H53.3V6.39a5.57,5.57,0,0,0-.08-1,2.15,2.15,0,0,0-.29-.78,1.48,1.48,0,0,0-.59-.53,2.13,2.13,0,0,0-1-.2,1.93,1.93,0,0,0-1,.25,2.3,2.3,0,0,0-.74.66,3.12,3.12,0,0,0-.46,1A4,4,0,0,0,49,6.94V11h-.28V3.81Z"/><path class="cls-1" d="M61.81,5.1a2.16,2.16,0,0,1,.53-.76,2.44,2.44,0,0,1,.84-.5,3.4,3.4,0,0,1,1.17-.18,4.06,4.06,0,0,1,.9.1,1.94,1.94,0,0,1,.75.34,1.8,1.8,0,0,1,.52.64,2.31,2.31,0,0,1,.21,1v4.58a.47.47,0,0,0,.08.31.42.42,0,0,0,.22.13,1.05,1.05,0,0,0,.3,0l.3,0V11h-.42a1,1,0,0,1-.54-.15.6.6,0,0,1-.23-.55V9.37h0a2.25,2.25,0,0,1-.36.67,2.6,2.6,0,0,1-.62.57,3.14,3.14,0,0,1-.85.4,3.49,3.49,0,0,1-1,.15,2.89,2.89,0,0,1-1.75-.48,1.68,1.68,0,0,1-.66-1.45,2.28,2.28,0,0,1,.22-1.08,1.71,1.71,0,0,1,.57-.64,2.24,2.24,0,0,1,.8-.32,6.63,6.63,0,0,1,.9-.12L64.91,7a3.92,3.92,0,0,0,.88-.14,1,1,0,0,0,.5-.32,1,1,0,0,0,.16-.62,4.28,4.28,0,0,0-.06-.67,1.46,1.46,0,0,0-.27-.64,1.58,1.58,0,0,0-.64-.48,2.81,2.81,0,0,0-1.13-.19,2.59,2.59,0,0,0-1.76.55A2.18,2.18,0,0,0,61.88,6H61.6A2.88,2.88,0,0,1,61.81,5.1Zm4.61,1.69a.88.88,0,0,1-.43.3,3.53,3.53,0,0,1-.67.16,7.07,7.07,0,0,1-.82.07l-.86,0a6.66,6.66,0,0,0-.82.1,1.94,1.94,0,0,0-.71.28,1.44,1.44,0,0,0-.49.56,2.06,2.06,0,0,0-.18.93,1.83,1.83,0,0,0,.11.61,1.28,1.28,0,0,0,.36.53,1.94,1.94,0,0,0,.65.38,2.88,2.88,0,0,0,1,.15,3.09,3.09,0,0,0,1.25-.24A2.81,2.81,0,0,0,65.7,10a2.55,2.55,0,0,0,.56-.89,2.93,2.93,0,0,0,.19-1V6.78Z"/><path class="cls-1" d="M71.08,9.61a1.73,1.73,0,0,0,.09.63.8.8,0,0,0,.23.34.6.6,0,0,0,.31.13l.34,0h.38a.8.8,0,0,0,.24,0V11l-.25,0H72a1.26,1.26,0,0,1-.83-.29,1.33,1.33,0,0,1-.34-1.06V4.09H69.49V3.81H70.8V1.55h.28V3.81h1.62v.28H71.08Z"/><path class="cls-1" d="M75.64,2.43V1h.28V2.43Zm0,8.58V3.81h.28V11Z"/><path class="cls-1" d="M79.26,6a3.62,3.62,0,0,1,.62-1.2,3.15,3.15,0,0,1,1-.83,3.24,3.24,0,0,1,2.79,0,3.16,3.16,0,0,1,1,.83A3.6,3.6,0,0,1,85.32,6a4.91,4.91,0,0,1,0,2.84A3.6,3.6,0,0,1,84.7,10a3.08,3.08,0,0,1-1,.83,3,3,0,0,1-1.4.31,3,3,0,0,1-1.39-.31,3.08,3.08,0,0,1-1-.83,3.62,3.62,0,0,1-.62-1.2,4.91,4.91,0,0,1,0-2.84Zm.26,2.74a3.35,3.35,0,0,0,.57,1.11,2.81,2.81,0,0,0,.93.77,3,3,0,0,0,2.55,0,2.82,2.82,0,0,0,.93-.77,3.35,3.35,0,0,0,.57-1.11,4.55,4.55,0,0,0,.19-1.32,4.51,4.51,0,0,0-.19-1.3A3.35,3.35,0,0,0,84.49,5a2.89,2.89,0,0,0-.93-.78,2.91,2.91,0,0,0-2.55,0,2.89,2.89,0,0,0-.93.78,3.35,3.35,0,0,0-.57,1.11,4.51,4.51,0,0,0-.19,1.3A4.55,4.55,0,0,0,79.52,8.73Z"/><path class="cls-1" d="M88.93,3.81V5.59h0a2.55,2.55,0,0,1,.31-.77,2.43,2.43,0,0,1,1.31-1,3,3,0,0,1,1-.15,3,3,0,0,1,1,.17,2.19,2.19,0,0,1,1.34,1.31,3,3,0,0,1,.19,1.11V11h-.28V6.28a2.8,2.8,0,0,0-.18-1.07,2,2,0,0,0-.5-.73,2,2,0,0,0-.73-.42,2.85,2.85,0,0,0-.87-.13,2.5,2.5,0,0,0-1.13.25,2.41,2.41,0,0,0-.82.66,2.88,2.88,0,0,0-.5,1,3.91,3.91,0,0,0-.17,1.15V11h-.28V3.81Z"/><line class="cls-2" y1="6.04" x2="4.79" y2="6.04"/><polyline class="cls-2" points="1.93 0.09 7.65 6.04 1.93 11.99"/></g></g></svg>