<svg xmlns="http://www.w3.org/2000/svg" viewBox="0 0 119.14 88.6"><defs><style>.cls-1{fill:#fff;}.cls-2{fill:none;stroke:#fff;stroke-miterlimit:10;stroke-width:0.25px;}</style></defs><title>info_small</title><g id="Layer_2" data-name="Layer 2"><g id="レイヤー_1" data-name="レイヤー 1"><path class="cls-1" d="M28,1V11h-.28V1Z"/><path class="cls-1" d="M31.75,3.81V5.59h0a2.55,2.55,0,0,1,.31-.77,2.43,2.43,0,0,1,1.31-1,3,3,0,0,1,1-.15,3,3,0,0,1,1,.17,2.19,2.19,0,0,1,1.34,1.31,3,3,0,0,1,.19,1.11V11h-.28V6.28a2.8,2.8,0,0,0-.18-1.07,2,2,0,0,0-.5-.73,2,2,0,0,0-.73-.42,2.85,2.85,0,0,0-.87-.13,2.5,2.5,0,0,0-1.13.25,2.41,2.41,0,0,0-.82.66,2.88,2.88,0,0,0-.5,1,3.91,3.91,0,0,0-.17,1.15V11h-.28V3.81Z"/><path class="cls-1" d="M39.66,3.81h1.22V2.22A1.39,1.39,0,0,1,41,1.55a.9.9,0,0,1,.34-.36A1.19,1.19,0,0,1,41.82,1l.48,0,.34,0,.26,0v.28l-.35,0h-.31a1.14,1.14,0,0,0-.87.24,1.21,1.21,0,0,0-.2.78v1.5h1.55v.28H41.16V11h-.28V4.09H39.66Z"/><path class="cls-1" d="M45.08,6a3.62,3.62,0,0,1,.62-1.2,3.15,3.15,0,0,1,1-.83A3.24,3.24,0,0,1,49.5,4a3.16,3.16,0,0,1,1,.83A3.6,3.6,0,0,1,51.14,6a4.91,4.91,0,0,1,0,2.84,3.6,3.6,0,0,1-.62,1.2,3.08,3.08,0,0,1-1,.83,3,3,0,0,1-1.4.31,3,3,0,0,1-1.39-.31,3.08,3.08,0,0,1-1-.83,3.62,3.62,0,0,1-.62-1.2,4.91,4.91,0,0,1,0-2.84Zm.26,2.74a3.35,3.35,0,0,0,.57,1.11,2.81,2.81,0,0,0,.93.77,3,3,0,0,0,2.55,0,2.82,2.82,0,0,0,.93-.77,3.35,3.35,0,0,0,.57-1.11,4.55,4.55,0,0,0,.19-1.32,4.51,4.51,0,0,0-.19-1.3A3.35,3.35,0,0,0,50.31,5a2.89,2.89,0,0,0-.93-.78,2.91,2.91,0,0,0-2.55,0A2.89,2.89,0,0,0,45.9,5a3.35,3.35,0,0,0-.57,1.11,4.51,4.51,0,0,0-.19,1.3A4.55,4.55,0,0,0,45.34,8.73Z"/><path class="cls-1" d="M54.47,11V3.81h.28V5.59h0a2.81,2.81,0,0,1,.31-.76,2.17,2.17,0,0,1,.56-.62,2.75,2.75,0,0,1,.83-.42,3.47,3.47,0,0,1,1.13-.14v.28a2.7,2.7,0,0,0-1.28.2,2.42,2.42,0,0,0-.89.67,2.82,2.82,0,0,0-.52,1,4,4,0,0,0-.17,1.15V11Z"/><path class="cls-1" d="M60.34,3.81V5.59h0a2.67,2.67,0,0,1,.31-.77,2.53,2.53,0,0,1,.52-.62,2.37,2.37,0,0,1,.68-.41,2.12,2.12,0,0,1,.79-.15,2.06,2.06,0,0,1,1.41.43,2.17,2.17,0,0,1,.75,1.25h0a2.23,2.23,0,0,1,.83-1.22,2.36,2.36,0,0,1,1.46-.46,2.65,2.65,0,0,1,1.09.2,1.81,1.81,0,0,1,.7.54,2.09,2.09,0,0,1,.38.83,4.72,4.72,0,0,1,.11,1.07V11h-.28V6.28a4.73,4.73,0,0,0-.09-1,1.85,1.85,0,0,0-.32-.74,1.5,1.5,0,0,0-.62-.48,2.45,2.45,0,0,0-1-.17,2.11,2.11,0,0,0-1.65.76,2.46,2.46,0,0,0-.45.81,3,3,0,0,0-.15,1V11h-.28V6.39a5.57,5.57,0,0,0-.08-1,2.15,2.15,0,0,0-.29-.78,1.48,1.48,0,0,0-.59-.53,2.13,2.13,0,0,0-1-.2,1.93,1.93,0,0,0-1,.25,2.3,2.3,0,0,0-.74.66,3.12,3.12,0,0,0-.46,1,4,4,0,0,0-.16,1.15V11h-.28V3.81Z"/><path class="cls-1" d="M73.11,5.1a2.16,2.16,0,0,1,.53-.76,2.44,2.44,0,0,1,.84-.5,3.4,3.4,0,0,1,1.17-.18,4.06,4.06,0,0,1,.9.1,1.94,1.94,0,0,1,.75.34,1.8,1.8,0,0,1,.52.64,2.31,2.31,0,0,1,.21,1v4.58a.47.47,0,0,0,.08.31.42.42,0,0,0,.22.13,1.05,1.05,0,0,0,.3,0l.3,0V11h-.42a1,1,0,0,1-.54-.15.6.6,0,0,1-.23-.55V9.37h0a2.25,2.25,0,0,1-.36.67,2.6,2.6,0,0,1-.62.57,3.14,3.14,0,0,1-.85.4,3.49,3.49,0,0,1-1,.15,2.89,2.89,0,0,1-1.75-.48,1.68,1.68,0,0,1-.66-1.45,2.28,2.28,0,0,1,.22-1.08,1.71,1.71,0,0,1,.57-.64A2.24,2.24,0,0,1,74,7.2a6.63,6.63,0,0,1,.9-.12L76.2,7a3.92,3.92,0,0,0,.88-.14,1,1,0,0,0,.5-.32,1,1,0,0,0,.16-.62,4.28,4.28,0,0,0-.06-.67,1.46,1.46,0,0,0-.27-.64,1.58,1.58,0,0,0-.64-.48,2.81,2.81,0,0,0-1.13-.19,2.59,2.59,0,0,0-1.76.55A2.18,2.18,0,0,0,73.18,6H72.9A2.88,2.88,0,0,1,73.11,5.1Zm4.61,1.69a.88.88,0,0,1-.43.3,3.53,3.53,0,0,1-.67.16,7.07,7.07,0,0,1-.82.07l-.86,0a6.66,6.66,0,0,0-.82.1,1.94,1.94,0,0,0-.71.28,1.44,1.44,0,0,0-.49.56,2.06,2.06,0,0,0-.18.93,1.83,1.83,0,0,0,.11.61,1.28,1.28,0,0,0,.36.53,1.94,1.94,0,0,0,.65.38,2.88,2.88,0,0,0,1,.15,3.09,3.09,0,0,0,1.25-.24A2.81,2.81,0,0,0,77,10a2.55,2.55,0,0,0,.56-.89,2.93,2.93,0,0,0,.19-1V6.78Z"/><path class="cls-1" d="M82.37,9.61a1.73,1.73,0,0,0,.09.63.8.8,0,0,0,.23.34.6.6,0,0,0,.31.13l.34,0h.38a.8.8,0,0,0,.24,0V11l-.25,0h-.44a1.26,1.26,0,0,1-.83-.29,1.33,1.33,0,0,1-.34-1.06V4.09H80.78V3.81h1.32V1.55h.28V3.81H84v.28H82.37Z"/><path class="cls-1" d="M86.94,2.43V1h.28V2.43Zm0,8.58V3.81h.28V11Z"/><path class="cls-1" d="M90.55,6a3.62,3.62,0,0,1,.62-1.2,3.15,3.15,0,0,1,1-.83A3.24,3.24,0,0,1,95,4a3.16,3.16,0,0,1,1,.83A3.6,3.6,0,0,1,96.61,6a4.91,4.91,0,0,1,0,2.84A3.6,3.6,0,0,1,96,10a3.08,3.08,0,0,1-1,.83,3,3,0,0,1-1.4.31,3,3,0,0,1-1.39-.31,3.08,3.08,0,0,1-1-.83,3.62,3.62,0,0,1-.62-1.2,4.91,4.91,0,0,1,0-2.84Zm.26,2.74a3.35,3.35,0,0,0,.57,1.11,2.81,2.81,0,0,0,.93.77,3,3,0,0,0,2.55,0,2.82,2.82,0,0,0,.93-.77,3.35,3.35,0,0,0,.57-1.11,4.55,4.55,0,0,0,.19-1.32,4.51,4.51,0,0,0-.19-1.3A3.35,3.35,0,0,0,95.79,5a2.89,2.89,0,0,0-.93-.78,2.91,2.91,0,0,0-2.55,0,2.89,2.89,0,0,0-.93.78,3.35,3.35,0,0,0-.57,1.11,4.51,4.51,0,0,0-.19,1.3A4.55,4.55,0,0,0,90.81,8.73Z"/><path class="cls-1" d="M100.22,3.81V5.59h0a2.55,2.55,0,0,1,.31-.77,2.43,2.43,0,0,1,1.31-1,3,3,0,0,1,1-.15,3,3,0,0,1,1,.17,2.19,2.19,0,0,1,1.34,1.31,3,3,0,0,1,.19,1.11V11h-.28V6.28a2.8,2.8,0,0,0-.18-1.07,2,2,0,0,0-.5-.73,2,2,0,0,0-.73-.42,2.85,2.85,0,0,0-.87-.13,2.5,2.5,0,0,0-1.13.25,2.41,2.41,0,0,0-.82.66,2.88,2.88,0,0,0-.5,1,3.91,3.91,0,0,0-.17,1.15V11h-.28V3.81Z"/><path class="cls-1" d="M42.53,45.62H38.41a1.38,1.38,0,0,1,.16-.7,2.47,2.47,0,0,1,.45-.59,5.11,5.11,0,0,1,.63-.52l.69-.49.68-.49a4.88,4.88,0,0,0,.59-.53,2.45,2.45,0,0,0,.42-.58,1.55,1.55,0,0,0,0-1.3,1.32,1.32,0,0,0-.36-.46,1.54,1.54,0,0,0-.54-.28,2.33,2.33,0,0,0-.68-.09,2.1,2.1,0,0,0-.82.14,1.45,1.45,0,0,0-.56.4,1.6,1.6,0,0,0-.32.61,2.88,2.88,0,0,0-.1.78h-.18a2.31,2.31,0,0,1,.5-1.56,1.86,1.86,0,0,1,1.47-.55,2.54,2.54,0,0,1,.74.1,1.69,1.69,0,0,1,.59.31,1.51,1.51,0,0,1,.4.51A1.74,1.74,0,0,1,42.1,42a3.78,3.78,0,0,1-.68.77,8.6,8.6,0,0,1-.89.68q-.48.32-.9.64a4.94,4.94,0,0,0-.72.66,1.27,1.27,0,0,0-.33.73h3.94Z"/><path class="cls-1" d="M48.52,43.71a3.17,3.17,0,0,1-.38,1,2.14,2.14,0,0,1-.71.72,2.36,2.36,0,0,1-2.21,0,2.13,2.13,0,0,1-.72-.72,3.14,3.14,0,0,1-.38-1,5.87,5.87,0,0,1,0-2.29,3.14,3.14,0,0,1,.38-1,2.17,2.17,0,0,1,.72-.73,2.33,2.33,0,0,1,2.21,0,2.18,2.18,0,0,1,.71.73,3.17,3.17,0,0,1,.38,1,5.82,5.82,0,0,1,0,2.29Zm-.17-2.19a3.12,3.12,0,0,0-.34-1,2,2,0,0,0-.65-.71,2.1,2.1,0,0,0-2.08,0,2,2,0,0,0-.65.71,3.15,3.15,0,0,0-.34,1,5.57,5.57,0,0,0,0,2.09,3.14,3.14,0,0,0,.34,1,2,2,0,0,0,.65.71,2.1,2.1,0,0,0,2.08,0,2,2,0,0,0,.65-.71,3.12,3.12,0,0,0,.34-1,5.57,5.57,0,0,0,0-2.09Z"/><path class="cls-1" d="M52.39,39.74a2.6,2.6,0,0,1-.72.67,3.32,3.32,0,0,1-.9.41v-.18a3.56,3.56,0,0,0,.5-.2,3,3,0,0,0,.4-.24,3.21,3.21,0,0,0,.37-.31c.12-.11.24-.24.36-.39h.2v6.12h-.18V39.74Z"/><path class="cls-1" d="M59.94,42.77a1.58,1.58,0,0,1,.42,1.14,1.74,1.74,0,0,1-.18.82,1.62,1.62,0,0,1-.48.56,2,2,0,0,1-.71.32,3.58,3.58,0,0,1-1.71,0,2,2,0,0,1-.71-.32,1.62,1.62,0,0,1-.48-.56,1.74,1.74,0,0,1-.18-.82,1.58,1.58,0,0,1,.42-1.14,1.77,1.77,0,0,1,1.15-.51v0A1.6,1.6,0,0,1,57,42.1a1.54,1.54,0,0,1-.4-.28,1.24,1.24,0,0,1-.27-.39,1.2,1.2,0,0,1-.1-.49,1.55,1.55,0,0,1,.15-.71,1.33,1.33,0,0,1,.41-.48,1.74,1.74,0,0,1,.61-.27,3.31,3.31,0,0,1,1.49,0,1.74,1.74,0,0,1,.61.27,1.33,1.33,0,0,1,.41.48,1.55,1.55,0,0,1,.15.71,1.2,1.2,0,0,1-.1.49,1.24,1.24,0,0,1-.27.39,1.54,1.54,0,0,1-.4.28,1.6,1.6,0,0,1-.49.15v0A1.77,1.77,0,0,1,59.94,42.77Zm.07.4a1.37,1.37,0,0,0-.45-.48,2,2,0,0,0-.65-.26,3.88,3.88,0,0,0-1.53,0,1.94,1.94,0,0,0-.65.26,1.36,1.36,0,0,0-.46.48,1.46,1.46,0,0,0-.17.74,1.57,1.57,0,0,0,.17.75,1.44,1.44,0,0,0,.45.51,1.91,1.91,0,0,0,.65.29,3.36,3.36,0,0,0,1.55,0,1.92,1.92,0,0,0,.65-.29,1.45,1.45,0,0,0,.45-.51,1.58,1.58,0,0,0,.17-.75A1.46,1.46,0,0,0,60,43.17Zm-.28-2.89a1.2,1.2,0,0,0-.39-.42,1.65,1.65,0,0,0-.55-.23,3.11,3.11,0,0,0-1.29,0,1.65,1.65,0,0,0-.55.23,1.2,1.2,0,0,0-.39.42,1.32,1.32,0,0,0-.15.66,1,1,0,0,0,.16.56,1.24,1.24,0,0,0,.4.39,1.93,1.93,0,0,0,.56.22,2.68,2.68,0,0,0,1.23,0,1.93,1.93,0,0,0,.56-.22,1.24,1.24,0,0,0,.4-.39,1,1,0,0,0,.16-.56A1.32,1.32,0,0,0,59.72,40.29Z"/><path class="cls-1" d="M62.69,45.62v-.88h.18v.88Z"/><path class="cls-1" d="M67.6,39.74a2.6,2.6,0,0,1-.72.67,3.32,3.32,0,0,1-.9.41v-.18a3.56,3.56,0,0,0,.5-.2,3,3,0,0,0,.4-.24,3.21,3.21,0,0,0,.37-.31c.12-.11.24-.24.36-.39h.2v6.12h-.18V39.74Z"/><path class="cls-1" d="M72,45.62v-.88h.18v.88Z"/><path class="cls-1" d="M74.91,40.52a1.62,1.62,0,0,1,.42-.63,1.76,1.76,0,0,1,.67-.38,2.82,2.82,0,0,1,.87-.13,3.07,3.07,0,0,1,.71.08,1.89,1.89,0,0,1,.61.26,1.36,1.36,0,0,1,.43.47,1.39,1.39,0,0,1,.16.69,1.34,1.34,0,0,1-.37,1,1.52,1.52,0,0,1-.94.41v0a1.89,1.89,0,0,1,.53.13,1.42,1.42,0,0,1,.46.3,1.41,1.41,0,0,1,.32.48,1.75,1.75,0,0,1,.12.68,1.65,1.65,0,0,1-.62,1.33,2,2,0,0,1-.66.35,2.65,2.65,0,0,1-.8.12,2.93,2.93,0,0,1-.95-.14,2,2,0,0,1-.72-.42,1.7,1.7,0,0,1-.45-.68,2.21,2.21,0,0,1-.11-.93h.18a2.06,2.06,0,0,0,.1.86,1.57,1.57,0,0,0,.41.63,1.77,1.77,0,0,0,.67.38,2.76,2.76,0,0,0,.87.13,2.45,2.45,0,0,0,.71-.1,1.82,1.82,0,0,0,.6-.31,1.56,1.56,0,0,0,.42-.51,1.49,1.49,0,0,0,.16-.7,1.59,1.59,0,0,0-.13-.68,1.21,1.21,0,0,0-.37-.46,1.68,1.68,0,0,0-.56-.27,3.15,3.15,0,0,0-.7-.11h-.44v-.18H77a2.62,2.62,0,0,0,.59-.07,1.57,1.57,0,0,0,.53-.22,1.19,1.19,0,0,0,.38-.41,1.29,1.29,0,0,0,.14-.63,1.25,1.25,0,0,0-.16-.62,1.27,1.27,0,0,0-.4-.41,1.65,1.65,0,0,0-.55-.23,2.92,2.92,0,0,0-.63-.07,2.65,2.65,0,0,0-.8.11,1.61,1.61,0,0,0-.61.34,1.46,1.46,0,0,0-.38.57,2.13,2.13,0,0,0-.12.8h-.18A2.33,2.33,0,0,1,74.91,40.52Z"/><path class="cls-1" d="M82.81,39.74a2.6,2.6,0,0,1-.72.67,3.32,3.32,0,0,1-.9.41v-.18a3.56,3.56,0,0,0,.5-.2,3,3,0,0,0,.4-.24,3.21,3.21,0,0,0,.37-.31c.12-.11.24-.24.36-.39H83v6.12h-.18V39.74Z"/><path class="cls-1" d="M.66,63.47V58H3v.21H.87v5.25Z"/><path class="cls-1" d="M8.9,58.41s0,.07-.12.08S8.9,62.93,12,64.33a1,1,0,0,0-.16.17c-2.22-1-2.93-3.53-3.16-5h0c-.18,1.47-.78,3.87-3.12,5a1,1,0,0,0-.15-.14c3-1.39,3.08-5,3.13-6Z"/><path class="cls-1" d="M17.82,63.75h3.07V64H14.57v-.21h3V59.2H14.92V59h5.65v.21H17.82Z"/><path class="cls-1" d="M25.43,59.34v1.37a4.1,4.1,0,0,1,0,.42h1.44v.21H25.41a5.78,5.78,0,0,1-.13.81c.31.3,1.21,1.28,1.43,1.53l-.15.17c-.24-.29-1-1.12-1.34-1.5a3.82,3.82,0,0,1-1.54,2.08.63.63,0,0,0-.14-.16,3.7,3.7,0,0,0,1.65-2.93H23.58v-.21h1.63c0-.15,0-.29,0-.43V59.34h-.81a5.21,5.21,0,0,1-.64,1.34l-.18-.11a6.52,6.52,0,0,0,.92-2.47l.32.08s-.06.06-.13.06c-.06.29-.14.59-.22.88h2.16v.21Zm1.78-.6H29.7V64.3h-.21v-.56H27.42v.62h-.21Zm.21,4.78h2.07V59H27.42Z"/><path class="cls-1" d="M35.49,59.8a7.91,7.91,0,0,0-.67-.9l.15-.08a7.44,7.44,0,0,1,1,1.53l-.15.1A4.92,4.92,0,0,0,35.6,60l-2.79.13s0,.07-.08.08l-.1-.3h.58A12.74,12.74,0,0,0,34,58.14l.29.09s-.06.06-.13.06a17.22,17.22,0,0,1-.78,1.58Zm0,1v3.41c0,.34-.13.35-1.1.35a.79.79,0,0,0-.09-.23H35c.33,0,.36,0,.36-.13v-1h-2v1.42h-.21V60.81Zm-.21.21h-2v.85h2Zm-2,1.95h2v-.89h-2Zm5.11-2c.32,0,.38-.13.41-.92a.58.58,0,0,0,.21.1c0,.82-.12,1-.61,1H37c-.53,0-.69-.08-.69-.47V58.12l.31,0s0,.06-.1.07v1.27a17.85,17.85,0,0,0,2-.74l.21.2h-.11a20.49,20.49,0,0,1-2.12.72v1c0,.21.07.26.46.26Zm-1.94,3c0,.22.08.27.48.27h1.53c.36,0,.41-.15.44-1a.7.7,0,0,0,.21.09c0,.92-.13,1.14-.64,1.14H37c-.55,0-.71-.08-.71-.48V61.43l.31,0s0,.06-.1.07v1.18a9.11,9.11,0,0,0,2.14-.81l.19.21h-.11a10.06,10.06,0,0,1-2.23.78Z"/><path class="cls-1" d="M43,58.61c0,.08-.1.11-.25.1a17.34,17.34,0,0,0-.36,3.21,9.14,9.14,0,0,0,.12,1.66L43.12,62l.21.08c-.32.85-.51,1.27-.6,1.56a1.15,1.15,0,0,0-.06.32.6.6,0,0,0,0,.2l-.22.06a7.12,7.12,0,0,1-.3-2.35,18.81,18.81,0,0,1,.4-3.41Zm4.64,5-.74,0a9.36,9.36,0,0,1-1.38-.08c-.78-.12-1.19-.57-1.19-1.11A2.12,2.12,0,0,1,45,61.17l.19.13a1.83,1.83,0,0,0-.65,1.18c0,.41.34.79,1,.9a8.2,8.2,0,0,0,1.21.08c.27,0,.56,0,.84,0Zm-3.27-4.1a21.35,21.35,0,0,0,3.11-.27l0,.23a25.23,25.23,0,0,1-3.13.27Z"/><path class="cls-1" d="M56.13,63.87a7,7,0,0,0-2.37-1.22c0,.2,0,.6,0,.78,0,.64-.48,1-1.24,1S51,64,51,63.31s.67-1,1.55-1a4.52,4.52,0,0,1,1,.09c0-.25,0-.46-.06-.66-.06-.9-.1-2.25-.1-3.4l.44,0c0,.07-.06.13-.19.15V59.9a17.78,17.78,0,0,0,2.46-.22l0,.24a21.15,21.15,0,0,1-2.49.2c0,.54,0,1,.07,1.55,0,.22,0,.49.06.74a7.79,7.79,0,0,1,2.53,1.27ZM53.54,63c0-.15,0-.3,0-.42a3.47,3.47,0,0,0-.89-.1c-1,0-1.42.39-1.42.82s.62.86,1.27.86,1-.28,1-.74Z"/><path class="cls-1" d="M60.78,61.3a4.67,4.67,0,0,1,2-.5,1.6,1.6,0,0,1,1.82,1.63c0,1.27-1.13,2-2.44,2-.92,0-1.53-.33-1.53-.89a1,1,0,0,1,1.09-.87A1.53,1.53,0,0,1,63.16,64a1.65,1.65,0,0,0,1.23-1.58A1.41,1.41,0,0,0,62.79,61a4.34,4.34,0,0,0-2.7,1c-.23.22-.5.53-.69.76l-.17-.17c.71-.78,2.89-2.86,3.85-3.76-.45.06-2,.11-2.95.14A.19.19,0,0,1,60,59l0-.33c1,0,2.68-.07,3.22-.15l.1,0,.25.27a.36.36,0,0,1-.15.06c-.59.5-2.07,1.92-2.59,2.44Zm1.39,2.87a3.13,3.13,0,0,0,.78-.1,1.33,1.33,0,0,0-1.23-1.23c-.46,0-.86.25-.86.65S61.58,64.17,62.17,64.17Z"/><path class="cls-1" d="M70.8,58.93H69V64h-.25V58.93H67v-.22H70.8Z"/><path class="cls-1" d="M77.17,58.71l-2,5.29H75L73.2,58.71h.27l1,2.93c.27.79.48,1.44.64,2h0c.16-.59.41-1.27.69-2l1.1-2.93Z"/><path class="cls-1" d="M83.33,63.8a3.39,3.39,0,0,1-1.44.27,2.41,2.41,0,0,1-2.46-2.7,2.55,2.55,0,0,1,2.66-2.75,2.66,2.66,0,0,1,1.21.23l-.1.2a2.38,2.38,0,0,0-1.09-.24,2.32,2.32,0,0,0-2.42,2.58A2.23,2.23,0,0,0,82,63.87a2.75,2.75,0,0,0,1.22-.26Z"/><path class="cls-1" d="M91.22,64H91l-.16-2.58c-.06-.92-.13-1.84-.12-2.37h0c-.2.55-.41,1.14-.73,2l-1.18,3h-.16l-1.11-2.93c-.32-.86-.55-1.46-.71-2h0c0,.61-.06,1.53-.13,2.44L86.46,64h-.25l.39-5.29h.26L88.09,62c.25.69.44,1.19.6,1.68h0c.14-.47.33-.92.61-1.65l1.27-3.27h.28Z"/><path class="cls-1" d="M96.5,59.64l.14,0a.14.14,0,0,1,0,.06,8.89,8.89,0,0,1-.74,3.06,5.52,5.52,0,0,1,.87.78l-.13.18a5.42,5.42,0,0,0-.83-.76,3.79,3.79,0,0,1-1.46,1.57.9.9,0,0,0-.15-.18,3.57,3.57,0,0,0,1.44-1.52,9.07,9.07,0,0,0-1.09-.69l-.1.36-.2-.1c.19-.64.44-1.61.67-2.56h-.81v-.21h.86c.13-.55.25-1.08.34-1.53l.32,0s0,.06-.11.06c-.09.41-.2.9-.32,1.42H96.5Zm-1.41.22c-.17.74-.36,1.49-.53,2.12a10.64,10.64,0,0,1,1.13.69,8.3,8.3,0,0,0,.69-2.81Zm5.41,1.43v.21H98.71v2.68c0,.22-.06.3-.24.34a6.44,6.44,0,0,1-1.14,0,1.27,1.27,0,0,0-.09-.22H98c.43,0,.46,0,.46-.17V61.5H96.62v-.21H98.5V60l.2,0A6.82,6.82,0,0,0,100,58.7H96.94v-.21h3.29l.18.12a.15.15,0,0,1-.07,0,7.79,7.79,0,0,1-1.62,1.63v1Z"/><path class="cls-1" d="M104,59.12V60a4.35,4.35,0,0,1-.75,2.67.45.45,0,0,0-.16-.14,4.1,4.1,0,0,0,.7-2.53V58.91h2.9a6.08,6.08,0,0,1-.1-.79h.34s0,.07-.11.08c0,.23,0,.47.08.7h2.61v.21h-2.57a7,7,0,0,0,.72,1.93,5.77,5.77,0,0,0,.78-1.42l.3.09s-.06.06-.13.06a5.8,5.8,0,0,1-.83,1.46c.41.66.88,1.1,1.28,1.09.21,0,.29-.26.33-1a.6.6,0,0,0,.2.1c-.06.8-.18,1.06-.53,1.06s-1-.45-1.41-1.14a5.34,5.34,0,0,1-1.25,1.09.78.78,0,0,0-.16-.14,5,5,0,0,0,1.29-1.13,7.27,7.27,0,0,1-.79-2.12Zm.34,3.78a1.88,1.88,0,0,1-1.05,1.43l-.16-.13a1.78,1.78,0,0,0,1-1.35Zm0-3v-.21h2.27v.21Zm2,1.93h-1.62v.29h-.21V60.47h1.83Zm-.21-1.18h-1.41v1h1.41ZM105.18,64c0,.16.07.2.49.2h1.59c.34,0,.39-.09.42-.82a.68.68,0,0,0,.21.09c0,.77-.13.94-.62.94h-1.58c-.57,0-.72-.06-.72-.41v-1.2l.32,0s0,.06-.11.07Zm1.58-.7a4.63,4.63,0,0,0-1.35-.85l.14-.15a4.36,4.36,0,0,1,1.36.83Zm1-5.24a3.45,3.45,0,0,1,1.06.51l-.13.18a3.56,3.56,0,0,0-1.06-.53Zm1.63,6.21A5,5,0,0,0,108,62.93l.16-.12a4.88,4.88,0,0,1,1.37,1.37Z"/><path class="cls-1" d="M118.71,59.1h-5.61V61a7.83,7.83,0,0,1-.67,3.6.62.62,0,0,0-.17-.13,7.46,7.46,0,0,0,.63-3.47V58.89h2.72v-.77l.32,0s0,.06-.11.07v.67h2.89Zm-.92,3.09.15.09-.06,0a3.7,3.7,0,0,1-1.6,1.41,8.49,8.49,0,0,0,2.47.64.69.69,0,0,0-.13.19,8.77,8.77,0,0,1-2.57-.72,9.44,9.44,0,0,1-2.69.71.73.73,0,0,0-.11-.19,9.28,9.28,0,0,0,2.58-.63,3.75,3.75,0,0,1-1.42-1.22l.18-.08a3.59,3.59,0,0,0,1.46,1.2,3.57,3.57,0,0,0,1.51-1.22h-4v-.21h4.26Zm-.51-.63h-2.54V60.33h-1.27v-.21h1.27v-.74l.32,0s0,.06-.1.07v.64h2.12v-.74l.31,0s0,.06-.1.07v.64h1.39v.21h-1.39Zm-.21-1.23h-2.12v1h2.12Z"/><path class="cls-1" d="M6.16,72.78l.15.06a.1.1,0,0,1,0,.06,11.1,11.1,0,0,1-1.62,1.66l-.16-.11A9.68,9.68,0,0,0,5.92,73H3.31s0,.06-.11.07v3.13c0,.2-.06.29-.24.33a6.72,6.72,0,0,1-1.19,0,1,1,0,0,0-.09-.21h.74c.56,0,.57,0,.57-.16V73H0v-.21H4.08a11.12,11.12,0,0,0-2.47-1.28l.15-.18A12.55,12.55,0,0,1,3.27,72,9,9,0,0,0,5,70.77H.65v-.21H5.21a.24.24,0,0,0,.12,0l.2.15a.1.1,0,0,1-.08,0,10.92,10.92,0,0,1-2,1.41,6.27,6.27,0,0,1,.86.55l-.08.11H6.16Z"/><path class="cls-1" d="M9.92,73a5.4,5.4,0,0,0-1.23-.73l.12-.15a4.67,4.67,0,0,1,1.23.7Zm-1.06,3.3a22.22,22.22,0,0,0,1.06-2.27l.16.13a21.75,21.75,0,0,1-1,2.17.15.15,0,0,1,0,.08.17.17,0,0,1,0,.06Zm1.31-5.15A5,5,0,0,0,9,70.35l.13-.15A4.92,4.92,0,0,1,10.3,71Zm1.16,4a.13.13,0,0,1-.13.06,4.72,4.72,0,0,1-1.08,1.38,1.09,1.09,0,0,0-.16-.15A4.19,4.19,0,0,0,11,75Zm-.71-4.67h2v4.35h-2Zm.21.21v1.16H12.4V70.68Zm0,1.37v1.16H12.4V72.06Zm0,1.37v1.18H12.4V73.43Zm2,2.86a8.57,8.57,0,0,0-.88-1.14l.17-.1A8.85,8.85,0,0,1,13,76.17Zm.51-5.43.31,0s0,.06-.1.07v3.94h-.21Zm1.31-.74.32,0s0,.06-.11.07v6c0,.22-.08.3-.24.34a5.78,5.78,0,0,1-1.06,0,1.77,1.77,0,0,0-.09-.21H14c.58,0,.62,0,.62-.18Z"/><path class="cls-1" d="M17.85,72.36a11.19,11.19,0,0,1,1.95.62l-.09.22a11.56,11.56,0,0,0-1.94-.62Zm.58,3.54a7.51,7.51,0,0,0,4.83-4.22,1.51,1.51,0,0,0,.2.13A7.65,7.65,0,0,1,18.7,76a.15.15,0,0,1-.06.16Zm.14-5.29a11.17,11.17,0,0,1,1.93.68l-.09.21a11.25,11.25,0,0,0-1.91-.68Z"/><path class="cls-1" d="M30.47,71a.09.09,0,0,1-.07,0,11.18,11.18,0,0,1-1.46,2.48A25.94,25.94,0,0,1,31.66,76l-.19.15a24.37,24.37,0,0,0-2.68-2.49,10.75,10.75,0,0,1-2.85,2.5,1.24,1.24,0,0,0-.16-.18,10.72,10.72,0,0,0,4.32-4.9H26.46v-.22H30.2l.06,0Z"/><path class="cls-1" d="M39.86,72.88H37.37l.1,0s-.06.07-.13.08a3.82,3.82,0,0,1-2.21,3.33,1.16,1.16,0,0,0-.16-.17,3.62,3.62,0,0,0,2.14-3.26H34.25v-.22h5.61Zm-.68-2h-4.3v-.22h4.3Z"/><path class="cls-1" d="M47.85,76.14c-.1-.21-.23-.46-.39-.74-1.41.14-4.12.28-5.22.34a.19.19,0,0,1-.12.13L42,75.53l.75,0c.48-1.38,1.21-3.54,1.63-5l.36.1c0,.06-.08.08-.18.08-.42,1.36-1.07,3.38-1.57,4.78,1.39-.06,3.27-.19,4.34-.29a14.38,14.38,0,0,0-1.45-1.94l.19-.12a13.7,13.7,0,0,1,2,2.91Z"/><path class="cls-1" d="M52.93,71.1v5.46H50.62v-.21h2.1V71.1Z"/><path class="cls-1" d="M57.26,70.61c0,.08-.1.11-.25.1a17.34,17.34,0,0,0-.36,3.21,9.14,9.14,0,0,0,.12,1.66L57.36,74l.21.08c-.32.85-.51,1.27-.6,1.56a1.15,1.15,0,0,0-.06.32.6.6,0,0,0,0,.2l-.22.06a7.12,7.12,0,0,1-.3-2.35,18.81,18.81,0,0,1,.4-3.41Zm4.64,5-.74,0a9.36,9.36,0,0,1-1.38-.08c-.78-.12-1.19-.57-1.19-1.11a2.12,2.12,0,0,1,.69-1.32l.19.13a1.83,1.83,0,0,0-.65,1.18c0,.41.34.79,1,.9a8.2,8.2,0,0,0,1.21.08c.27,0,.56,0,.84,0Zm-3.27-4.1a21.35,21.35,0,0,0,3.11-.27l0,.23a25.23,25.23,0,0,1-3.13.27Z"/><path class="cls-1" d="M67.35,72.67H65.11v3.9H64.9V70.46h2.45Zm-.21-2h-2v.77h2Zm-2,1.79h2v-.81h-2Zm4.59,2.32H68A2.24,2.24,0,0,0,69.67,76a.51.51,0,0,0-.14.18,2.46,2.46,0,0,1-1.73-1.4h0c-.11.5-.5,1-1.81,1.44a1,1,0,0,0-.13-.17c1.23-.34,1.61-.83,1.73-1.27H65.83v-.21h1.76a1.12,1.12,0,0,0,0-.22v-.53H66v-.21h1a2.61,2.61,0,0,0-.41-.71l.18-.07a2.43,2.43,0,0,1,.43.74l-.09,0h1.25l0,0a5.42,5.42,0,0,0,.45-.78l.27.13a.12.12,0,0,1-.12,0,7.37,7.37,0,0,1-.39.64h1.07v.21H67.81v.53c0,.07,0,.14,0,.22h1.91Zm1-4.32v5.72c0,.2-.06.29-.2.34a4.37,4.37,0,0,1-.9,0,1,1,0,0,0-.09-.23H70c.42,0,.45,0,.45-.15V72.67h-2.3V70.46Zm-.21.21H68.36v.77h2.09Zm-2.09,1.79h2.09v-.81H68.36Z"/><path class="cls-1" d="M73.51,71.46l3.43-.11c0-.12,0-1.16,0-1.17h.42c0,.06,0,.12-.18.14,0,.22,0,.64,0,1l2.33-.06v.24c-.66,0-1.52,0-2.33,0,0,.6,0,1,.06,1.57a2.46,2.46,0,0,1,.08.73c0,.67-.06,1.84-2.07,2.67l-.15-.19c1.29-.48,1.87-1.2,2-2h0a1.09,1.09,0,0,1-1,.53A1.15,1.15,0,0,1,75,73.65a1.26,1.26,0,0,1,1.2-1.27,1.1,1.1,0,0,1,.79.29s0-.08,0-.1,0-.57,0-1l-3.43.12Zm3.54,2.23c0-.49-.09-1.08-.84-1.08a1,1,0,0,0-1,1.05.92.92,0,0,0,.92,1A.91.91,0,0,0,77.05,73.69Z"/><path class="cls-1" d="M83.53,73.3a4.67,4.67,0,0,1,2-.5,1.6,1.6,0,0,1,1.82,1.63c0,1.27-1.13,2-2.44,2-.92,0-1.53-.33-1.53-.89a1,1,0,0,1,1.09-.87A1.53,1.53,0,0,1,85.91,76a1.65,1.65,0,0,0,1.23-1.58A1.41,1.41,0,0,0,85.54,73a4.34,4.34,0,0,0-2.7,1c-.23.22-.5.53-.69.76L82,74.56c.71-.78,2.89-2.86,3.85-3.76-.45.06-2,.11-2.95.14a.19.19,0,0,1-.13.11l0-.33c1,0,2.68-.07,3.22-.15l.1,0,.25.27a.36.36,0,0,1-.15.06c-.59.5-2.07,1.92-2.59,2.44Zm1.39,2.87a3.13,3.13,0,0,0,.78-.1,1.33,1.33,0,0,0-1.23-1.23c-.46,0-.86.25-.86.65S84.33,76.17,84.92,76.17Z"/><path class="cls-1" d="M91,74.14V70.77l.37,0s-.06.1-.15.1v3.23Zm3.73-3.62c0,.06-.06.1-.15.1v2.26A3.41,3.41,0,0,1,92,76.4a.85.85,0,0,0-.15-.18,3.23,3.23,0,0,0,2.48-3.34V70.49Z"/><path class="cls-1" d="M98.67,74.14V70.77l.37,0s-.06.1-.15.1v3.23Zm3.73-3.62c0,.06-.06.1-.15.1v2.26A3.41,3.41,0,0,1,99.7,76.4a.85.85,0,0,0-.15-.18A3.23,3.23,0,0,0,102,72.88V70.49Z"/><path class="cls-1" d="M105.73,73.09h5.85v.23H106a.27.27,0,0,1-.2.13Z"/><path class="cls-1" d="M118,71a.09.09,0,0,1-.07,0,11.18,11.18,0,0,1-1.46,2.48A25.94,25.94,0,0,1,119.14,76l-.19.15a24.37,24.37,0,0,0-2.68-2.49,10.75,10.75,0,0,1-2.85,2.5,1.24,1.24,0,0,0-.16-.18,10.72,10.72,0,0,0,4.32-4.9h-3.64v-.22h3.74l.06,0Z"/><path class="cls-1" d="M1.73,85A2,2,0,0,1,3,84.48c.53,0,.79.38.87,1,.62-.29,1.42-.61,2-.84L6,84.9H6a.19.19,0,0,1-.1,0c-.54.19-1.37.52-2,.81a5.55,5.55,0,0,1,0,.62c0,.26,0,.55,0,.86H3.61c0-.27,0-.64,0-1a3.83,3.83,0,0,0,0-.42c-1,.46-1.77,1-1.77,1.54s.55.72,1.65.72A15.69,15.69,0,0,0,5.28,88v.24c-.45,0-1.1.06-1.77.06-1.34,0-1.88-.34-1.88-.95s.88-1.22,2-1.76c-.06-.6-.32-.84-.64-.84a2.55,2.55,0,0,0-1.78,1.06,10.74,10.74,0,0,1-.8.76l-.15-.16a5.11,5.11,0,0,0,1.86-2.8H.37v-.22H2.14a10.18,10.18,0,0,0,.22-1.06l.41.07c0,.07-.06.11-.17.12-.06.32-.13.59-.2.87A10.13,10.13,0,0,0,5,82.91l0,.23a10.45,10.45,0,0,1-2.72.42A5.54,5.54,0,0,1,1.72,85Z"/><path class="cls-1" d="M11.17,82.44l.15.1a.1.1,0,0,1-.06,0,5.72,5.72,0,0,1-2.82,2.87,1.14,1.14,0,0,0-.15-.17A5.43,5.43,0,0,0,10,84.14a9,9,0,0,0-1-.89l.14-.13a9.75,9.75,0,0,1,1,.87A4.49,4.49,0,0,0,11,82.67H8.88v-.21h2.25ZM12.54,88c0,.2.06.24.35.24H14c.27,0,.3-.15.33-1a.51.51,0,0,0,.2.1c0,.89-.1,1.11-.53,1.11H12.9c-.44,0-.57-.07-.57-.46V86.52H10.7c-.08.8-.47,1.54-2,2.08a.63.63,0,0,0-.14-.17c1.42-.5,1.79-1.19,1.88-1.91H8.72v-.21H10.5c0-.08,0-.16,0-.25V85H9.59v-.21h4V85h-1v1.32h1.88v.21H12.54Zm-1.82-2c0,.08,0,.16,0,.25h1.62V85H10.72Zm3.11-3.74s-.06,0-.1,0a12.59,12.59,0,0,1-1.16,1,6.17,6.17,0,0,0,.61.73A9.56,9.56,0,0,0,14.44,83l.24.17s-.06,0-.11,0a12.69,12.69,0,0,1-1.25,1,4.84,4.84,0,0,0,1.57,1,1.18,1.18,0,0,0-.15.17,5.87,5.87,0,0,1-3-3.16l.18-.06a5.48,5.48,0,0,0,.54,1,9.48,9.48,0,0,0,1.13-1Z"/><path class="cls-1" d="M20.46,85.27a5.35,5.35,0,0,0,.7,1.46,12.73,12.73,0,0,0,1.65-1.12l.23.14s-.06,0-.11,0a14.33,14.33,0,0,1-1.67,1.09,4.26,4.26,0,0,0,2.27,1.53.75.75,0,0,0-.14.18,4.63,4.63,0,0,1-3.13-3.31h0a6.35,6.35,0,0,1-1.37,1l.1,0s0,.06-.1.06v1.75l2.25-.36V88c-1.14.2-2.37.41-3.12.52a.1.1,0,0,1-.07.1l-.15-.28.87-.13V86.42a9.18,9.18,0,0,1-1.5.67.9.9,0,0,0-.15-.18,8.36,8.36,0,0,0,3-1.63H17.12v-.21h3v-.91H17.93v-.21h2.22v-.86H17.49v-.21h2.66v-.76l.32,0s0,.06-.11.07v.66h2.75v.21H20.36v.86h2.27v.21H20.36v.91h3.07v.21Z"/><path class="cls-1" d="M27.06,82.4c0,.08-.08.13-.22.14-.06.74-.13,2.74-.13,3.78S27.28,88,28.26,88A3.47,3.47,0,0,0,31,86.58a.7.7,0,0,0,.18.15,3.74,3.74,0,0,1-2.89,1.53c-1.09,0-1.77-.66-1.77-1.95,0-.84.07-3.11.13-4Z"/><path class="cls-1" d="M33.62,83.29c.44,0,1,0,1.41,0l1.18,0c0-.36,0-.78,0-1.05l.43,0c0,.08-.06.12-.2.14,0,.24,0,.59,0,.87A12.94,12.94,0,0,0,38.9,83l0,.22a13.13,13.13,0,0,1-2.52.3l0,1.51a10.83,10.83,0,0,0,2.12-.29l0,.23a13.37,13.37,0,0,1-2.16.27l.06,1.35a8.3,8.3,0,0,1,2.18,1.17l-.15.2a7.54,7.54,0,0,0-2-1.13c0,.15,0,.31,0,.42a1,1,0,0,1-1.11,1.11c-.87,0-1.53-.31-1.53-1s.77-1,1.51-1a3.37,3.37,0,0,1,.88.1c0-.36,0-.81,0-1.27h-.76c-1,0-1.53-.06-1.53-.53,0-.25.19-.43.59-.71l.16.16c-.45.27-.53.43-.53.57s.46.3,1.3.3h.75l0-1.5c-.51,0-1,0-1.63,0-.33,0-.69,0-1,0Zm2.72,3.45a3.24,3.24,0,0,0-.9-.12c-.6,0-1.28.25-1.28.76s.59.75,1.3.75.88-.29.88-.9Z"/><path class="cls-1" d="M42.83,82.4c0,.08-.08.13-.22.14-.06.74-.13,2.74-.13,3.78S43,88,44,88a3.47,3.47,0,0,0,2.7-1.46.7.7,0,0,0,.18.15A3.74,3.74,0,0,1,44,88.26c-1.09,0-1.77-.66-1.77-1.95,0-.84.07-3.11.13-4Z"/><path class="cls-1" d="M51.29,82.29c0,.07-.12.13-.21.13,0,.34-.12.72-.2,1.23a8.35,8.35,0,0,0,2.21-.42l.08.22a9.09,9.09,0,0,1-2.32.43,16.74,16.74,0,0,1-1.33,4.48l-.22-.09a15.94,15.94,0,0,0,1.31-4.38H49.22v-.23h1.42c.08-.48.15-1,.21-1.42Zm3.74,6h-.6a6.43,6.43,0,0,1-1.79-.18A.91.91,0,0,1,52,87.2a1.64,1.64,0,0,1,.43-1l.18.12a1.49,1.49,0,0,0-.39.89c0,.63.57.85,2.07.85.24,0,.49,0,.75,0Zm-.22-3.41a7.56,7.56,0,0,0-2.5.35l-.07-.2a8.2,8.2,0,0,1,2.58-.37Z"/><line class="cls-2" x1="11.29" y1="6.04" x2="16.08" y2="6.04"/><polyline class="cls-2" points="13.22 0.09 18.94 6.04 13.22 11.99"/></g></g></svg>