<svg xmlns="http://www.w3.org/2000/svg" viewBox="0 0 568.45 54.98"><defs><style>.cls-1{fill:#fff;}</style></defs><title>logo2</title><g id="Layer_2" data-name="Layer 2"><g id="表面_SpotColor_White_" data-name="表面（SpotColor_White）"><path class="cls-1" d="M45.62,54.75A4.86,4.86,0,0,0,43,54.51L33.4,55c-8.33,0-16.66-1.74-23.17-7.13A28.84,28.84,0,0,1,0,25.23c0-6.9,2.46-13.89,7.85-18.41C13.57,2.15,20.47.72,27.61.72l8.73.71,2.54.24A3.23,3.23,0,0,0,42,0l3.65,15-.63.23C42,8.33,34.83,4.85,27.61,4.85c-5.24,0-9.44,1.19-13,5.31A22.38,22.38,0,0,0,9.52,24.68c0,13.8,9.36,26.18,23.88,26.18,8.41,0,14.12-5,17.54-12.38l.79.32Z"/><path class="cls-1" d="M63,47.68A27.68,27.68,0,0,1,54.5,28C54.5,12.14,66.8.72,82.42.72c16.11,0,28.32,11.5,28.32,27.85C110.75,44,97.42,55,82.51,55A28.07,28.07,0,0,1,63,47.68Zm21.35,3.18c11.11,0,16.89-9.68,16.89-19.92,0-14.12-9.44-26.1-20.63-26.1C69.25,4.85,64,14.92,64,25.16,64,37,71.08,50.86,84.33,50.86Z"/><path class="cls-1" d="M127.87,44.82c0,4,2,5.48,5.87,5.48,10.39,0,18.33-6.27,22.61-15.39l.72.32L150.25,55c-1-1.19-3.25-1-4.61-1H114v-.71c5.08-.72,5.16-4.76,5.16-9.13v-32c0-4.37-.08-9-5.16-9.68V1.75h19v.72c-5.08.47-5.15,4.68-5.15,9.12Z"/><path class="cls-1" d="M169.92,44.82c0,4,2,5.48,5.87,5.48,10.39,0,18.33-6.27,22.61-15.39l.72.32L192.29,55c-1-1.19-3.25-1-4.61-1H156v-.71c5.08-.72,5.16-4.76,5.16-9.13v-32c0-4.37-.08-9-5.16-9.68V1.75h19v.72c-5.08.47-5.15,4.68-5.15,9.12Z"/><path class="cls-1" d="M209.35,43.32A17.67,17.67,0,0,0,208.07,49a4.39,4.39,0,0,0,4.37,4.29V54H196.26v-.71a5.66,5.66,0,0,0,4.13-2.54A37.53,37.53,0,0,0,204,43.32L216.72,9.61A13.66,13.66,0,0,0,217.91,5a2.64,2.64,0,0,0-2.46-2.54V1.75h17.61v.72a2.76,2.76,0,0,0-2.3,2.85,10.4,10.4,0,0,0,.72,3.1l13.56,39c1.19,2.86,1.67,5,4.84,5.8V54h-18v-.71c2.86-.64,3.89-2.78,3.89-5.56,0-7.22-9-16.74-21.82-17Zm13-35.62-7.22,19a22,22,0,0,1,16,6.35Z"/><path class="cls-1" d="M278.52,54c-8.73,0-16.18-.8-23.17-6.58a27.82,27.82,0,0,1-10.07-22.06C245.28,9.13,256.62.72,271.93.72l9.68.87a13.42,13.42,0,0,0,2.46.32A4.08,4.08,0,0,0,287.56.08l2.77,14.68-.79.15c-3.18-6.66-9.68-10.07-16.9-10.07-11.66,0-17.85,8-17.85,19.2,0,13.25,8.56,26.26,22.85,26.26,8.09,0,8.57-3.1,8.57-9.2V28.56c0-4.28-.08-8.89-5-9.68v-.72H299v.72c-4,.79-4,2.77-4,6.35V46.34c0,3.73.08,6.11,4,7V54Z"/><path class="cls-1" d="M344.59,16.74,344,17c-3.33-8-11.82-11.58-20-11.58-5.47,0-7.3.87-7.3,6.67v4.52h6.11c3.73,0,9,.47,8.81-4.76l.71-.24,3.09,17.77-.63.23c-2.77-9.28-7.77-9.28-16.18-9.28h-1.9V41.58c0,6.18.15,8.73,8.17,8.73,11.35,0,18.88-5.32,23.8-15.31l.79.23L342.69,55c-.8-1.11-2.23-1-3.49-1H302.78v-.71c5.08-.8,5.16-4.85,5.16-9.13v-32c0-4.28-.08-8.89-5.16-9.68V1.75h34c1.51,0,3.09.16,4.28-1Z"/><path class="cls-1" d="M407.74,55c-.87-1.27-2.7-1-4-1H370.05l30.7-48.23-6-.32c-9.37-.47-17.54,3.1-20.94,12.54l-.72-.15,4-17.06c1,1.35,2.94,1,4.44,1h31.73L382.43,50l6,.32c11,.56,21.26-4.44,26.26-14.76l.71.24Z"/><path class="cls-1" d="M458.82,16.74l-.63.24c-3.33-8-11.82-11.58-20-11.58-5.47,0-7.3.87-7.3,6.67v4.52H437c3.73,0,9,.47,8.81-4.76l.71-.24,3.09,17.77-.63.23c-2.77-9.28-7.77-9.28-16.18-9.28h-1.9V41.58c0,6.18.15,8.73,8.17,8.73,11.35,0,18.88-5.32,23.8-15.31l.79.23L456.92,55c-.8-1.11-2.23-1-3.49-1H417v-.71c5.08-.8,5.16-4.85,5.16-9.13v-32c0-4.28-.08-8.89-5.16-9.68V1.75h34c1.51,0,3.09.16,4.28-1Z"/><path class="cls-1" d="M494.52,1.75c8.57,0,11.42,2.7,11.42,8.09,0,6.51-6.35,10.39-11.42,13.09,6.11,6.82,10.55,15.23,13.89,23.64,1.19,2.78,2.14,6,5.55,6.67V54H497.22v-.71c1.75-.32,2.94-1.11,2.94-3.1,0-3-2.77-8.49-4.28-11.11l-8.18-11.82-.79-1-9.2,3.18v14.2c0,5,.08,9,5.15,9.68V54h-19v-.71c5.08-.8,5.16-4.85,5.16-9.2V12.14c0-4.37-.08-9-5.16-9.68V1.75ZM477.7,25.63c5.63-1.58,19.59-6.58,19.59-14,0-5.71-4.84-6.27-9.51-6.27-2.3,0-7.7,0-9.13,1.75-.87,1-1,3.49-1,4.92Z"/><path class="cls-1" d="M520.69,47.68A27.68,27.68,0,0,1,512.2,28C512.2,12.14,524.5.72,540.12.72c16.11,0,28.32,11.5,28.32,27.85C568.45,44,555.12,55,540.21,55A28.07,28.07,0,0,1,520.69,47.68ZM542,50.86c11.11,0,16.89-9.68,16.89-19.92,0-14.12-9.44-26.1-20.63-26.1-11.35,0-16.58,10.07-16.58,20.31C521.72,37,528.78,50.86,542,50.86Z"/></g></g></svg>