<svg xmlns="http://www.w3.org/2000/svg" xmlns:xlink="http://www.w3.org/1999/xlink" viewBox="0 0 625.75 500.12"><defs><style>.cls-1{fill:none;stroke:#fff;stroke-miterlimit:10;stroke-width:0.25px;}</style></defs><title>logoOutline</title><g id="Layer_2" data-name="Layer 2"><g id="レイヤー_1" data-name="レイヤー 1"><image width="790" height="126" transform="translate(138.13 169.9) scale(0.43)" xlink:href="../../Downloads/COLLAGE_ZERO_fix/COLLAGE-ZERO_logo.png"/><path class="cls-1" d="M279.77,496q-57.18,8.69-108.69-1.39a213.4,213.4,0,0,1-92.35-42.24q-40.82-32.16-63.48-94.81Q-7.1,295.71,3.57,244.47a212,212,0,0,1,43.82-92q33.14-40.71,82.67-70.58A586.54,586.54,0,0,1,345.12,4.16Q402.28-4.55,453.8,5.54a216.15,216.15,0,0,1,92.92,42.51q41.39,32.43,63.75,94.23,22.65,62.65,11.41,113.64a217.68,217.68,0,0,1-44.4,91.69q-33.16,40.72-82.66,70.58a586.62,586.62,0,0,1-103.7,49.47A586.49,586.49,0,0,1,279.77,496Z"/></g></g></svg>