<svg xmlns="http://www.w3.org/2000/svg" xmlns:xlink="http://www.w3.org/1999/xlink" viewBox="0 0 120.03 435.08"><defs><style>.cls-1{fill:#fff;}.cls-2{fill:none;stroke:#fff;stroke-miterlimit:10;stroke-width:0.5px;}.cls-3{fill:#231f20;}</style></defs><title>pro1_small</title><g id="Layer_2" data-name="Layer 2"><g id="レイヤー_1" data-name="レイヤー 1"><path class="cls-1" d="M19,50.6H16.73v6.52h-.31V50.6H14.14v-.28H19Z"/><path class="cls-1" d="M26.28,50.32l-2.55,6.8h-.29l-2.27-6.8h.35l1.26,3.77c.34,1,.62,1.85.82,2.6h0c.21-.76.52-1.63.89-2.6l1.41-3.77Z"/><path class="cls-1" d="M33.26,56.87a4.36,4.36,0,0,1-1.85.35c-1.56,0-3.16-1-3.16-3.47a3.28,3.28,0,0,1,3.41-3.54,3.42,3.42,0,0,1,1.56.3l-.13.26a3.06,3.06,0,0,0-1.4-.31,3,3,0,0,0-3.11,3.31,2.87,2.87,0,0,0,3,3.18,3.54,3.54,0,0,0,1.57-.33Z"/><path class="cls-1" d="M42.48,57.12h-.31L42,53.81c-.08-1.19-.16-2.37-.15-3h0c-.25.71-.52,1.47-.94,2.51l-1.52,3.86h-.21l-1.43-3.76c-.41-1.11-.7-1.88-.91-2.61h0c0,.78-.07,2-.16,3.14l-.22,3.21H36l.5-6.8h.33l1.58,4.17c.32.88.57,1.53.77,2.16h0c.18-.6.42-1.19.78-2.12l1.64-4.2H42Z"/><path class="cls-1" d="M45.18,53.48a11.9,11.9,0,0,0,3.94-4l.49,0c0,.06-.08.08-.15.1a13.67,13.67,0,0,0,4,3.72,1.11,1.11,0,0,0-.18.23,14,14,0,0,1-4-3.75,12.75,12.75,0,0,1-3.92,3.84Zm4.31,1.06v2.75h3.75v.27H45.42v-.27h1.33V53.67l.41,0s0,.08-.13.09v3.49h2.21V51.94l.41,0s0,.08-.13.09v2.21h2.85v.27Z"/><path class="cls-1" d="M56.06,50.21h8v.27H60.15V51.8h2.11v4.07H57.78V51.8h2.1V50.48H56.06ZM63.53,57V51.72l.41,0s0,.08-.14.09v6h-.27v-.58H56.61v.61h-.27V51.72l.41,0s0,.08-.13.09V57Zm-5.47-4.89v1.62h1.83V52.07Zm0,1.89V55.6h1.83V54ZM62,53.69V52.07H60.15v1.62Zm0,1.91V54H60.15V55.6Z"/><path class="cls-1" d="M67.67,55.94l2.73-.58,0,.24-2.75.61v1.63H67.4V56.27l-.5.11a.13.13,0,0,1-.09.12l-.16-.35L67.4,56V50.31l.32.13a11.67,11.67,0,0,0,2.35-.87l.32.23a.13.13,0,0,1-.08,0h-.06a15.55,15.55,0,0,1-2.58.88v1.4h2.39v.27H67.67v1.49h2.48v.27H67.67Zm6.58-2.3.2.11a.16.16,0,0,1-.07.06,5.89,5.89,0,0,1-1.63,2.49A5.58,5.58,0,0,0,75,57.61a1.37,1.37,0,0,0-.18.23,5.9,5.9,0,0,1-2.26-1.36A7.52,7.52,0,0,1,70,57.85a1.06,1.06,0,0,0-.17-.23,7.11,7.11,0,0,0,2.52-1.33A6.22,6.22,0,0,1,71,54l.24-.08a5.87,5.87,0,0,0,1.29,2.16A5.58,5.58,0,0,0,74,53.92H70.58v-.27h3.61Zm-2.81-3.38v1.12a2.52,2.52,0,0,1-1,2.14.6.6,0,0,0-.19-.21,2.2,2.2,0,0,0,.88-1.94V50h2.48v2.35c0,.36,0,.38.28.38h.38c.41,0,.41,0,.44-1.08a.56.56,0,0,0,.23.11c0,1,0,1.22-.64,1.22h-.43c-.53,0-.53-.2-.53-.71v-2Z"/><path class="cls-1" d="M79.83,50l.05,0,.2.14s0,0-.07.05c-.23.65-.57,1.54-.89,2.3a3.15,3.15,0,0,1,.95,2.07c0,1.16-.63,1.13-1.3,1.1a.6.6,0,0,0-.11-.28l.41,0c.36,0,.72,0,.72-.85a3.14,3.14,0,0,0-1-2c.33-.77.64-1.6.86-2.25H78.11v7.62h-.27V50Zm1.25,3,1.82-.45,0,.23-2.5.65a.15.15,0,0,1-.08.13l-.2-.34.67-.15V49.66l.41,0s0,.08-.13.09v1.16h1.71v.27H81.08Zm1.28,1.23a9.33,9.33,0,0,0,.41-1l.38.13s-.07.07-.16.07c-.08.23-.22.54-.34.81h2.49V57.8h-.27v-.38H81.22v.41H81V54.15Zm2.5,1.48V54.42H81.22v1.21Zm-3.64,1.53h3.64V55.9H81.22Zm2.23-4.41c0,.21.05.25.4.25h1.28c.28,0,.33-.12.35-1a.73.73,0,0,0,.27.13c0,.88-.13,1.1-.59,1.1h-1.3c-.53,0-.67-.08-.67-.52V49.66l.41,0s0,.08-.14.09v1.49a8.49,8.49,0,0,0,1.77-.93l.31.23a.08.08,0,0,1-.06,0h-.07a10.42,10.42,0,0,1-2,.94Z"/><path class="cls-1" d="M88.46,50.85c.71,0,6.28-.48,7.38-.44v.31l-.38,0a2.7,2.7,0,0,0-1.43.4c-1.59.92-3,2.51-3,3.76,0,1.42.86,2.28,3.28,2.63l-.12.28c-2.56-.41-3.47-1.28-3.47-2.91,0-1.39,1.41-3,3.27-4.1-.9.05-4,.27-5.36.4a.27.27,0,0,1-.18.13Zm5.71,1.52a7,7,0,0,1,1.31,1.27l-.21.17A6.29,6.29,0,0,0,94,52.56Zm.9-.78a6.52,6.52,0,0,1,1.31,1.27l-.21.17a6.57,6.57,0,0,0-1.28-1.26Z"/><path class="cls-1" d="M103.23,50.86a.18.18,0,0,1-.2.13c-.29,2.61-1.25,5.51-2.7,5.51-.6,0-1.27-.72-1.27-2.05a3.92,3.92,0,0,1,4-4,3.27,3.27,0,0,1,3.63,3.37c0,2.16-1.33,3.15-3.45,3.6l-.15-.27c2.09-.4,3.31-1.41,3.31-3.31a3,3,0,0,0-3.33-3.11h-.14Zm-.47-.08a3.65,3.65,0,0,0-3.43,3.67c0,1.11.54,1.76,1,1.76C101.56,56.21,102.48,53.5,102.76,50.78Z"/><path class="cls-1" d="M21.15,73.24a4.35,4.35,0,0,1-1.85.35c-1.56,0-3.16-1-3.16-3.47a3.28,3.28,0,0,1,3.41-3.54,3.42,3.42,0,0,1,1.56.3l-.13.26a3.06,3.06,0,0,0-1.4-.31,3,3,0,0,0-3.11,3.31,2.87,2.87,0,0,0,3,3.18A3.54,3.54,0,0,0,21,73Z"/><path class="cls-1" d="M30.37,73.49h-.31l-.21-3.31c-.08-1.19-.16-2.37-.15-3h0c-.25.71-.52,1.47-.94,2.51l-1.52,3.86H27l-1.43-3.76c-.41-1.11-.7-1.88-.91-2.61h0c0,.78-.07,2-.16,3.14l-.22,3.21h-.32l.5-6.8h.33l1.58,4.17c.32.88.57,1.53.77,2.16h0c.18-.6.42-1.19.78-2.12l1.64-4.2h.36Z"/><path class="cls-1" d="M36.21,67.88l.18.06a.19.19,0,0,1,0,.07,11.43,11.43,0,0,1-.95,3.93,7.07,7.07,0,0,1,1.12,1l-.17.23a6.91,6.91,0,0,0-1.07-1,4.87,4.87,0,0,1-1.87,2,1.18,1.18,0,0,0-.2-.23,4.59,4.59,0,0,0,1.85-2,11.56,11.56,0,0,0-1.4-.89l-.13.46-.25-.13c.24-.82.57-2.07.86-3.3h-1V67.9h1.11c.16-.7.31-1.39.43-2L35,66c0,.05-.05.08-.14.08-.12.53-.26,1.16-.42,1.82h1.69Zm-1.81.29c-.23.95-.47,1.92-.68,2.72a13.77,13.77,0,0,1,1.46.89,10.65,10.65,0,0,0,.88-3.61Zm7,1.84v.27h-2.3v3.45c0,.28-.08.39-.31.44a8.33,8.33,0,0,1-1.47,0,1.76,1.76,0,0,0-.12-.28l1,0c.56,0,.59,0,.59-.22V70.28H36.37V70h2.41V68.38l.25,0a8.77,8.77,0,0,0,1.69-1.72h-4v-.27h4.17l.06,0,.23.15a.19.19,0,0,1-.09.05,10,10,0,0,1-2.09,2.09V70Z"/><path class="cls-1" d="M44.89,67.21V68.3a5.59,5.59,0,0,1-1,3.43.57.57,0,0,0-.21-.18,5.28,5.28,0,0,0,.9-3.25V66.94h3.73a7.87,7.87,0,0,1-.13-1l.44,0c0,.06-.05.09-.14.1,0,.3.05.6.1.9H52v.27h-3.3a9.06,9.06,0,0,0,.93,2.48,7.49,7.49,0,0,0,1-1.83L51,68c0,.05-.08.08-.17.08A7.45,7.45,0,0,1,49.74,70c.53.85,1.13,1.41,1.65,1.4.27,0,.37-.33.42-1.22a.76.76,0,0,0,.25.13c-.07,1-.23,1.37-.67,1.37-.6,0-1.26-.58-1.82-1.47a6.88,6.88,0,0,1-1.6,1.4,1,1,0,0,0-.21-.18,6.42,6.42,0,0,0,1.66-1.45,9.36,9.36,0,0,1-1-2.72Zm.43,4.86A2.41,2.41,0,0,1,44,73.91l-.21-.16A2.29,2.29,0,0,0,45.08,72Zm-.06-3.83V68h2.92v.27Zm2.63,2.48H45.81v.37h-.27V69h2.35Zm-.27-1.51H45.81v1.24h1.81Zm-1.17,4.32c0,.21.09.25.63.25h2c.44,0,.5-.12.54-1.05a.88.88,0,0,0,.27.12c0,1-.16,1.21-.79,1.21h-2c-.73,0-.93-.07-.93-.53V72l.41,0s0,.08-.13.09Zm2-.9a5.94,5.94,0,0,0-1.74-1.1l.18-.19a5.63,5.63,0,0,1,1.75,1.07Zm1.25-6.73a4.44,4.44,0,0,1,1.36.66l-.16.23a4.56,4.56,0,0,0-1.36-.68Zm2.09,8a6.4,6.4,0,0,0-1.76-1.76l.21-.15A6.29,6.29,0,0,1,52,73.72Z"/><path class="cls-1" d="M62.9,67.2H55.69v2.44a10.07,10.07,0,0,1-.85,4.63.78.78,0,0,0-.23-.16,9.58,9.58,0,0,0,.81-4.47V66.93h3.5v-1l.41,0s0,.08-.13.09v.86H62.9Zm-1.19,4,.2.12a.24.24,0,0,1-.07.06,4.75,4.75,0,0,1-2.05,1.81A10.9,10.9,0,0,0,63,74a.89.89,0,0,0-.16.24,11.26,11.26,0,0,1-3.3-.93A12.15,12.15,0,0,1,56,74.2a.94.94,0,0,0-.13-.24,11.9,11.9,0,0,0,3.31-.81,4.82,4.82,0,0,1-1.83-1.57l.23-.11A4.61,4.61,0,0,0,59.5,73a4.59,4.59,0,0,0,1.94-1.57h-5.2v-.27h5.41Zm-.66-.81H57.79V68.77H56.15V68.5h1.64v-.95l.41,0s0,.08-.13.09v.82h2.73v-.95l.41,0s0,.08-.13.09v.82h1.78v.27H61.06Zm-.27-1.58H58.06v1.31h2.73Z"/><path class="cls-1" d="M73.72,71.36v.27h-1v1.66h-.27v-.43H69.73v.86c0,.31-.11.42-.32.48a8.79,8.79,0,0,1-1.45.05,1.6,1.6,0,0,0-.12-.3h.77c.84,0,.85,0,.85-.23v-.86H66.29v-.27h3.17v-1H65.57v-.27h3.89v-.89H66.39v-.27h3.07v-.77H66.69V67.79h2.77v-.72H65.71V66.8h3.75v-.87l.41,0c0,.05,0,.08-.13.09v.75h3.83v.27H69.73v.72h2.91v1.63H69.73v.77h3v1.16ZM67,69.15h2.5V68.06H67Zm5.41-1.09H69.73v1.09h2.64Zm-2.64,2.4v.89h2.75v-.89Zm2.75,2.12v-1H69.73v1Z"/><path class="cls-1" d="M76.24,67.53H84.3v.27H76.24Zm3.48,1.28h.13v4.92c0,.23-.06.34-.25.4a6.67,6.67,0,0,1-1.26.05,1.41,1.41,0,0,0-.12-.28h1.19c.14,0,.17,0,.17-.17V72.11H77.16v2.12h-.27V68.81Zm-.14.27H77.16v1.23h2.42Zm-2.42,2.76h2.42V70.58H77.16Zm.81-5.9a7.55,7.55,0,0,1,1.13,1.31l-.23.13a7.52,7.52,0,0,0-1.12-1.32Zm3.13,6.72V68.89l.4,0s0,.08-.13.09v3.65Zm.4-5.37a10.26,10.26,0,0,0,1.05-1.4l.37.15s-.08.06-.16.06a12.13,12.13,0,0,1-1,1.3Zm2.07,6.46c0,.27-.08.37-.29.42a8,8,0,0,1-1.39.05,1.22,1.22,0,0,0-.12-.28h.74c.77,0,.78,0,.78-.2V68.58l.41,0s0,.08-.13.09Z"/><path class="cls-1" d="M94.64,69.36l.2.07a.12.12,0,0,1-.06.07,14.27,14.27,0,0,1-2.09,2.13l-.21-.14a12.46,12.46,0,0,0,1.85-1.85H91s0,.07-.13.09v4c0,.26-.08.37-.31.42a8.71,8.71,0,0,1-1.53,0,1.4,1.4,0,0,0-.12-.27h.95c.72,0,.74,0,.74-.21V69.64H86.73v-.27H92a14.34,14.34,0,0,0-3.18-1.65l.19-.23a16,16,0,0,1,1.94.86,11.54,11.54,0,0,0,2.29-1.59H87.56v-.27h5.86a.31.31,0,0,0,.15,0l.25.19a.13.13,0,0,1-.1,0,14,14,0,0,1-2.51,1.82,7.92,7.92,0,0,1,1.11.7l-.11.14h2.42Z"/><path class="cls-1" d="M98.85,69.66a6.94,6.94,0,0,0-1.58-.94l.15-.2a6,6,0,0,1,1.58.9ZM97.49,73.9A28.45,28.45,0,0,0,98.85,71l.21.16a28,28,0,0,1-1.27,2.79.19.19,0,0,1,0,.11.2.2,0,0,1,0,.07Zm1.68-6.63a6.42,6.42,0,0,0-1.46-1l.17-.19a6.37,6.37,0,0,1,1.46,1Zm1.49,5.11a.17.17,0,0,1-.16.07,6.06,6.06,0,0,1-1.39,1.77,1.38,1.38,0,0,0-.21-.19,5.39,5.39,0,0,0,1.36-1.79Zm-.91-6h2.57V72H99.75Zm.27.27v1.49h2V66.66Zm0,1.76v1.49h2V68.42Zm0,1.76v1.52h2V70.19Zm2.57,3.68a11.07,11.07,0,0,0-1.13-1.47l.22-.13a11.38,11.38,0,0,1,1.13,1.43Zm.66-7,.4,0s0,.08-.13.09v5.07h-.27Zm1.68-1,.41,0c0,.05,0,.08-.13.09v7.66c0,.29-.11.39-.31.44a7.47,7.47,0,0,1-1.37.05,2,2,0,0,0-.12-.27h.72c.75,0,.8,0,.8-.23Z"/><path class="cls-1" d="M3.8,94.54H2v5.07H1.79V94.54H0v-.22H3.8Z"/><path class="cls-1" d="M10.23,94.32l-2,5.29H8L6.26,94.32h.27l1,2.93c.27.79.48,1.44.64,2h0c.16-.59.41-1.27.69-2L10,94.32Z"/><path class="cls-1" d="M16.44,99.41a3.39,3.39,0,0,1-1.44.27A2.41,2.41,0,0,1,12.54,97a2.55,2.55,0,0,1,2.66-2.75,2.66,2.66,0,0,1,1.21.23l-.1.2a2.38,2.38,0,0,0-1.09-.24A2.32,2.32,0,0,0,12.8,97a2.23,2.23,0,0,0,2.33,2.47,2.75,2.75,0,0,0,1.22-.26Z"/><path class="cls-1" d="M24.38,99.61h-.25L24,97c-.06-.92-.13-1.84-.12-2.37h0c-.2.55-.41,1.14-.73,2l-1.18,3h-.16l-1.11-2.93c-.32-.86-.55-1.46-.71-2h0c0,.61-.06,1.53-.13,2.44l-.17,2.5h-.25l.39-5.29H20l1.23,3.24c.25.69.44,1.19.6,1.68h0c.14-.47.33-.92.61-1.65l1.27-3.27H24Z"/><path class="cls-1" d="M27.26,96.78a9.25,9.25,0,0,0,3.07-3.08l.38,0s-.06.06-.12.08a10.63,10.63,0,0,0,3.12,2.89.85.85,0,0,0-.14.18,10.87,10.87,0,0,1-3.12-2.92,9.92,9.92,0,0,1-3,3Zm3.36.83v2.14h2.91V100H27.44v-.21h1V96.92l.32,0s0,.06-.11.07v2.72h1.72V95.58l.32,0s0,.06-.1.07v1.72h2.22v.21Z"/><path class="cls-1" d="M36.5,94.24h6.21v.21h-3v1h1.64v3.17H37.84V95.47h1.63v-1h-3Zm5.81,5.25V95.41l.32,0s0,.06-.11.07v4.64h-.21v-.45H36.93v.48h-.21V95.41l.32,0s0,.06-.11.07v4Zm-4.26-3.8v1.26h1.42V95.68Zm0,1.47v1.27h1.42V97.15Zm3.06-.21V95.68H39.68v1.26Zm0,1.48V97.15H39.68v1.27Z"/><path class="cls-1" d="M48.9,94.74a.14.14,0,0,1-.15.1c-.22,2-1,4.29-2.1,4.29-.47,0-1-.56-1-1.6a3,3,0,0,1,3.11-3.08,2.55,2.55,0,0,1,2.82,2.62c0,1.68-1,2.45-2.68,2.8l-.12-.21c1.62-.31,2.58-1.1,2.58-2.58a2.34,2.34,0,0,0-2.59-2.42h-.11Zm-.36-.06a2.84,2.84,0,0,0-2.67,2.86c0,.86.42,1.37.78,1.37C47.6,98.9,48.32,96.79,48.53,94.68Z"/><path class="cls-1" d="M61,97.72v.21H57.88v1.89c0,.18-.06.26-.22.3a5.84,5.84,0,0,1-1.07,0,1,1,0,0,0-.1-.2h.67c.48,0,.51,0,.51-.15v-1.9h-3.1v-.21h3.1V97l.21,0a7,7,0,0,0,1.34-1H55.87v-.21h3.57l0,0,.18.13a.1.1,0,0,1-.07,0,7.72,7.72,0,0,1-1.72,1.27v.49Zm-5.83-2.84v1.3h-.21V94.66h2.74v-1l.32,0s0,.06-.11.07v.87h2.79v1.51h-.21v-1.3Z"/><path class="cls-1" d="M68.88,94.92v4.66h-.22v-.4H64V99h4.65V95.15H64.09v-.22Z"/><path class="cls-1" d="M72.53,94.56a8.16,8.16,0,0,1,2.11,1l-.13.19a8.32,8.32,0,0,0-2.08-1Zm.12,4.94a7.71,7.71,0,0,0,5.11-4.16,1,1,0,0,0,.2.12,8,8,0,0,1-5,4.19.24.24,0,0,1-.08.15Z"/><path class="cls-1" d="M86.62,96.48H84.13l.1,0s-.06.07-.13.08a3.82,3.82,0,0,1-2.21,3.33,1.16,1.16,0,0,0-.16-.17,3.62,3.62,0,0,0,2.14-3.26H81v-.22h5.61Zm-.68-2h-4.3v-.22h4.3Z"/><path class="cls-1" d="M92.08,94.05c0,.08-.09.12-.23.12-.08.43-.22,1.16-.32,1.58a9.61,9.61,0,0,1,1-.08c1,0,1.32.63,1.32,1.63a5.35,5.35,0,0,1-.28,1.7,1.19,1.19,0,0,1-1.16.91,2,2,0,0,1-1.28-.64.86.86,0,0,0,.11-.19c.62.5.93.6,1.18.6a1,1,0,0,0,.94-.74,5.66,5.66,0,0,0,.27-1.64c0-.85-.29-1.42-1.11-1.42a10.09,10.09,0,0,0-1,.08,12.1,12.1,0,0,1-1.54,3.87l-.21-.1A11.36,11.36,0,0,0,91.25,96c-.43,0-1,.1-1.37.17l0-.22,1.46-.17c.11-.51.24-1.18.33-1.81Zm3.62,3.31A4.27,4.27,0,0,0,94,94.92l.16-.16a4.44,4.44,0,0,1,1.76,2.52Z"/><path class="cls-1" d="M100,95.17a.22.22,0,0,1-.19.13,10.9,10.9,0,0,1-.28,2.3h0a5,5,0,0,1,2.78-1c1.08,0,1.7.52,1.7,1.43,0,1.3-1.13,1.82-3.77,1.93a2,2,0,0,0-.07-.22c2.51-.12,3.61-.55,3.61-1.7,0-.78-.55-1.23-1.49-1.23A4.25,4.25,0,0,0,99.42,98l-.24-.14a7.89,7.89,0,0,0,.38-2.77Zm.3-1.28a11.4,11.4,0,0,1,2.72.67l-.09.22a11.32,11.32,0,0,0-2.7-.67Z"/><path class="cls-1" d="M107.61,98.38a14.69,14.69,0,0,1,1.63,1.59l-.2.2a14.51,14.51,0,0,0-1.6-1.62Z"/><path class="cls-1" d="M114.27,94.27a16.39,16.39,0,0,0,3.3-.31l.15.2a1.65,1.65,0,0,0-.37.3,24.82,24.82,0,0,1-2.82,2.16,26.64,26.64,0,0,1,4.67-.53v.25h-.45a4,4,0,0,0-.89.08c-.62.16-2.32,1.11-2.32,2.23a.82.82,0,0,0,.38.73,4.87,4.87,0,0,0,1.86.43l-.07.23c-1.72-.18-2.4-.53-2.4-1.37,0-1.23,1.6-2.07,1.95-2.23a26.08,26.08,0,0,0-3.93.71l-.06-.22a3.07,3.07,0,0,0,.9-.31,27,27,0,0,0,3-2.32c-.5.08-1.57.16-2,.18l-.76,0a.15.15,0,0,1-.13.07Z"/><path class="cls-1" d="M3.89,106.74a.14.14,0,0,1-.15.1c-.22,2-1,4.29-2.1,4.29-.47,0-1-.56-1-1.6a3,3,0,0,1,3.11-3.08,2.55,2.55,0,0,1,2.82,2.62c0,1.68-1,2.45-2.68,2.8l-.12-.21c1.62-.31,2.58-1.1,2.58-2.58a2.34,2.34,0,0,0-2.59-2.42H3.66Zm-.36-.06a2.84,2.84,0,0,0-2.67,2.86c0,.86.42,1.37.78,1.37C2.6,110.9,3.31,108.79,3.53,106.68Z"/><path class="cls-1" d="M13.53,111.41a3.39,3.39,0,0,1-1.44.27A2.41,2.41,0,0,1,9.63,109a2.55,2.55,0,0,1,2.66-2.75,2.66,2.66,0,0,1,1.21.23l-.1.2a2.38,2.38,0,0,0-1.09-.24A2.32,2.32,0,0,0,9.89,109a2.23,2.23,0,0,0,2.33,2.47,2.75,2.75,0,0,0,1.22-.26Z"/><path class="cls-1" d="M21.53,111.61h-.25L21.12,109c-.06-.92-.13-1.84-.12-2.37h0c-.2.55-.41,1.14-.73,2l-1.18,3h-.16l-1.11-2.93c-.32-.86-.55-1.46-.71-2h0c0,.61-.06,1.53-.13,2.44l-.17,2.5h-.25l.39-5.29h.26l1.23,3.24c.25.69.44,1.19.6,1.68h0c.14-.47.33-.92.61-1.65l1.27-3.27h.28Z"/><path class="cls-1" d="M27,106.05c0,.08-.09.12-.23.12-.08.43-.22,1.16-.32,1.58a9.61,9.61,0,0,1,1-.08c1,0,1.32.63,1.32,1.63a5.35,5.35,0,0,1-.28,1.7,1.19,1.19,0,0,1-1.16.91,2,2,0,0,1-1.28-.64.86.86,0,0,0,.11-.19c.62.5.93.6,1.18.6a1,1,0,0,0,.94-.74,5.66,5.66,0,0,0,.27-1.64c0-.85-.29-1.42-1.11-1.42a10.09,10.09,0,0,0-1,.08,12.1,12.1,0,0,1-1.54,3.87l-.21-.1A11.36,11.36,0,0,0,26.13,108c-.43,0-1,.1-1.37.17l0-.22,1.46-.17c.11-.51.24-1.18.33-1.81Zm1.8-.2a5.44,5.44,0,0,1,1,1l-.16.13a5.31,5.31,0,0,0-1-1Zm1.74,4.08a4.49,4.49,0,0,0-1.61-2.44l.17-.14a4.58,4.58,0,0,1,1.66,2.49Zm-.71-4.36a5.46,5.46,0,0,1,1,1l-.16.13a5.35,5.35,0,0,0-1-1Z"/><path class="cls-1" d="M33.89,105.81a4.17,4.17,0,0,1,.76,1,6,6,0,0,0,.72-1.05l.26.14a.11.11,0,0,1-.11,0,6.43,6.43,0,0,1-.77,1.06,8.23,8.23,0,0,1,.15,5c-.12.16-.27.2-.72.2h-.32a.52.52,0,0,0-.08-.22h.43c.27,0,.45,0,.53-.12a5.92,5.92,0,0,0,.27-2.29c0-.29,0-.57,0-.85a5.71,5.71,0,0,1-1.28,1.67.73.73,0,0,0-.15-.18,4.9,4.9,0,0,0,1.39-1.85,4.37,4.37,0,0,0-.34-1.2,9.14,9.14,0,0,1-.88.85l-.15-.12a8.24,8.24,0,0,0,.95-.91,4,4,0,0,0-.78-1Zm2.23,4v-2a4.53,4.53,0,0,1-.62.71,1,1,0,0,0-.16-.13,5,5,0,0,0,1.17-1.68l.29.1s-.06.06-.13.06c-.08.17-.17.34-.27.5H37.7a5.67,5.67,0,0,0,.32-.61l.29.1s-.06.06-.12.06a4.15,4.15,0,0,1-.27.46h1.94v.21H38v.5h1.62v.21H38v.53h1.62v.21H38v.55h2.07v.21Zm3.24.42.17.11a.12.12,0,0,1-.07,0A3.58,3.58,0,0,1,38,111.51a8.18,8.18,0,0,0,2.13.48.74.74,0,0,0-.13.19,8.15,8.15,0,0,1-2.24-.57,10.38,10.38,0,0,1-2.26.57.89.89,0,0,0-.13-.2,10.29,10.29,0,0,0,2.14-.49,3.2,3.2,0,0,1-1.18-.94l.16-.07h-.68v-.21h3.55Zm-3.81-4h1.27v-.58l.31,0s0,.06-.1.07v.48h1.43v-.58l.32,0s0,.06-.11.07v.48h1.39v.21H38.67V107h-.21v-.53H37V107h-.21v-.53H35.56Zm2.23,1.83v-.5H36.33v.5Zm0,.74v-.53H36.33v.53Zm0,.76v-.55H36.33v.55Zm-1.26.85a3,3,0,0,0,1.23.91,3.62,3.62,0,0,0,1.37-.91Z"/><path class="cls-1" d="M44,108.6a9.38,9.38,0,0,1-.95,1.05l-.16-.15a9.43,9.43,0,0,0,1.76-2.23l.29.11s-.06.06-.13.06q-.26.44-.59.88l.1,0a.12.12,0,0,1-.11.06v3.75H44Zm.79-2.75s-.08.06-.13,0a11.13,11.13,0,0,1-1.6,1.53.72.72,0,0,0-.15-.15,8.29,8.29,0,0,0,1.58-1.54Zm4.62,4.06v.21H48.25v1.73c0,.18,0,.26-.21.3a6,6,0,0,1-1.06,0,1,1,0,0,0-.09-.21h.65c.5,0,.5,0,.5-.14v-1.73H44.9v-.21H48v-.82h-3v-.21h4.26v.21h-1s0,0-.11.06v.76ZM48.79,106v2.23H45.53V106Zm-2.17,5.61a6.34,6.34,0,0,0-.95-1.09l.17-.1a6.08,6.08,0,0,1,1,1.06Zm2-4.61v-.79H45.74V107Zm0,1v-.81H45.74V108Z"/><path class="cls-1" d="M52.14,107.07l3.43-.11c0-.12,0-1.16,0-1.17h.42c0,.06,0,.12-.18.14,0,.22,0,.64,0,1l2.33-.06v.24c-.66,0-1.52,0-2.33,0,0,.6,0,1,.06,1.57a2.46,2.46,0,0,1,.08.73c0,.67-.06,1.84-2.07,2.67l-.15-.19c1.29-.48,1.87-1.2,2-2h0a1.09,1.09,0,0,1-1,.53,1.15,1.15,0,0,1-1.13-1.19,1.26,1.26,0,0,1,1.2-1.27,1.1,1.1,0,0,1,.79.29s0-.08,0-.1,0-.57,0-1l-3.43.12Zm3.54,2.23c0-.49-.09-1.08-.84-1.08a1,1,0,0,0-1,1.05.92.92,0,0,0,.92,1A.91.91,0,0,0,55.68,109.3Z"/><path class="cls-1" d="M62.5,108.9a4.67,4.67,0,0,1,2-.5A1.6,1.6,0,0,1,66.34,110c0,1.27-1.13,2-2.44,2-.92,0-1.53-.33-1.53-.89a1,1,0,0,1,1.09-.87,1.53,1.53,0,0,1,1.43,1.38A1.65,1.65,0,0,0,66.11,110a1.41,1.41,0,0,0-1.6-1.42,4.34,4.34,0,0,0-2.7,1c-.23.22-.5.53-.69.76l-.17-.17c.71-.78,2.89-2.86,3.85-3.76-.45.06-2,.11-2.95.14a.19.19,0,0,1-.13.11l0-.33c1,0,2.68-.07,3.22-.15l.1,0,.25.27a.36.36,0,0,1-.15.06c-.59.5-2.07,1.92-2.59,2.44Zm1.39,2.87a3.13,3.13,0,0,0,.78-.1,1.33,1.33,0,0,0-1.23-1.23c-.46,0-.86.25-.86.65S63.3,111.78,63.89,111.78Z"/><path class="cls-1" d="M69.12,106.73c.55,0,4.89-.37,5.74-.34v.24h-.29a2.1,2.1,0,0,0-1.11.31c-1.24.71-2.3,2-2.3,2.93s.67,1.77,2.55,2l-.09.22c-2-.32-2.7-1-2.7-2.26,0-1.08,1.1-2.35,2.54-3.19-.7,0-3.08.21-4.17.31a.21.21,0,0,1-.14.1Zm4.44,1.18a5.43,5.43,0,0,1,1,1l-.16.13a4.87,4.87,0,0,0-1-1Zm.7-.61a5.1,5.1,0,0,1,1,1l-.16.13a5.12,5.12,0,0,0-1-1Z"/><path class="cls-1" d="M81.92,108c0,.1,0,.2-.08.29a1.81,1.81,0,0,1,1.84,1.78v0c0,1.11-1,1.74-2.75,1.92a1.49,1.49,0,0,0-.07-.22c1.58-.15,2.59-.71,2.59-1.68s-.69-1.52-1.68-1.63a5.69,5.69,0,0,1-1.44,2.22,1.79,1.79,0,0,0,.23.48l-.2.12a1.91,1.91,0,0,1-.22-.43,2.37,2.37,0,0,1-1.46.67c-.46,0-.73-.36-.73-.88a2.57,2.57,0,0,1,1.87-2.13c0-.21,0-.43,0-.65s0-.46,0-.7c-.69,0-1.27,0-1.66,0v-.22c.39,0,1,0,1.67,0,0-.34,0-.76,0-1.11l.43,0a.19.19,0,0,1-.18.14c0,.29,0,.66,0,.94a16.23,16.23,0,0,0,3-.29l0,.22a15.37,15.37,0,0,1-3.07.29c0,.46,0,.88,0,1.28a3.71,3.71,0,0,1,1.23-.21h.3a3,3,0,0,0,.08-.34Zm-1.84,2.67a8.53,8.53,0,0,1-.23-1.88,2.33,2.33,0,0,0-1.66,1.9c0,.35.17.67.55.65A2.36,2.36,0,0,0,80.07,110.65Zm1.45-2.18a3.63,3.63,0,0,0-1.47.22,8,8,0,0,0,.21,1.79A5.26,5.26,0,0,0,81.52,108.47Z"/><path class="cls-1" d="M88.37,109a4.3,4.3,0,0,1,2.08-.61c1.11,0,1.86.54,1.86,1.6,0,1.29-1.32,1.77-3.52,1.88a1,1,0,0,0-.08-.22c2.09-.1,3.38-.5,3.38-1.65,0-1-.64-1.39-1.65-1.39a4.72,4.72,0,0,0-2.72,1.08,5.82,5.82,0,0,0-.51.59l-.17-.17c.69-.79,2.89-3,3.65-3.77-.31,0-2,.12-2.81.16a.2.2,0,0,1-.13.1l-.06-.32c.79,0,2.93-.13,3.12-.19l.11-.06.26.3a.33.33,0,0,1-.2.06c-.74.67-2.16,2.14-2.61,2.61Z"/><path class="cls-1" d="M95.8,108.34a15.27,15.27,0,0,1,2.84-.57,1.4,1.4,0,0,1,1.59,1.53v.08c0,1.21-1,2.17-3.08,2.68a1,1,0,0,0-.13-.2c1.74-.41,3-1.25,3-2.56A1.19,1.19,0,0,0,98.64,108a11.67,11.67,0,0,0-2.61.54.22.22,0,0,1-.13.15Zm.87-2.46a13.6,13.6,0,0,1,2.84.61l-.08.22a13.41,13.41,0,0,0-2.81-.6Z"/><path class="cls-1" d="M106,107.24l.14,0a.14.14,0,0,1,0,.06,8.89,8.89,0,0,1-.74,3.06,5.52,5.52,0,0,1,.87.78l-.13.18a5.42,5.42,0,0,0-.83-.76,3.79,3.79,0,0,1-1.46,1.57.9.9,0,0,0-.15-.18,3.57,3.57,0,0,0,1.44-1.52,9.07,9.07,0,0,0-1.09-.69l-.1.36-.2-.1c.19-.64.44-1.61.67-2.56h-.81v-.21h.86c.13-.55.25-1.08.34-1.53l.32,0s0,.06-.11.06c-.09.41-.2.9-.32,1.42H106Zm-1.41.22c-.17.74-.36,1.49-.53,2.12a10.64,10.64,0,0,1,1.13.69,8.3,8.3,0,0,0,.69-2.81ZM110,108.9v.21h-1.79v2.68c0,.22-.06.3-.24.34a6.44,6.44,0,0,1-1.14,0,1.27,1.27,0,0,0-.09-.22h.8c.43,0,.46,0,.46-.17v-2.69h-1.88v-.21H108v-1.27l.2,0a6.82,6.82,0,0,0,1.32-1.34h-3.07v-.21h3.29l.18.12a.15.15,0,0,1-.07,0,7.79,7.79,0,0,1-1.62,1.63v1Z"/><path class="cls-1" d="M113.61,106.73v.85a4.35,4.35,0,0,1-.75,2.67.45.45,0,0,0-.16-.14,4.1,4.1,0,0,0,.7-2.53v-1.06h2.9a6.08,6.08,0,0,1-.1-.79h.34s0,.07-.11.08c0,.23,0,.47.08.7h2.61v.21h-2.57a7,7,0,0,0,.72,1.93,5.77,5.77,0,0,0,.78-1.42l.3.09s-.06.06-.13.06a5.8,5.8,0,0,1-.83,1.46c.41.66.88,1.1,1.28,1.09.21,0,.29-.26.33-1a.6.6,0,0,0,.2.1c-.06.8-.18,1.06-.53,1.06s-1-.45-1.41-1.14a5.34,5.34,0,0,1-1.25,1.09.78.78,0,0,0-.16-.14,5,5,0,0,0,1.29-1.13,7.27,7.27,0,0,1-.79-2.12Zm.34,3.78a1.88,1.88,0,0,1-1.05,1.43l-.16-.13a1.78,1.78,0,0,0,1-1.35Zm0-3v-.21h2.27v.21Zm2,1.93h-1.62v.29h-.21v-1.67h1.83Zm-.21-1.18h-1.41v1h1.41Zm-.91,3.36c0,.16.07.2.49.2h1.59c.34,0,.39-.09.42-.82a.68.68,0,0,0,.21.09c0,.77-.13.94-.62.94h-1.58c-.57,0-.72-.06-.72-.41v-1.2l.32,0s0,.06-.11.07Zm1.58-.7a4.63,4.63,0,0,0-1.35-.85l.14-.15a4.36,4.36,0,0,1,1.36.83Zm1-5.24a3.45,3.45,0,0,1,1.06.51l-.13.18a3.56,3.56,0,0,0-1.06-.53Zm1.63,6.21a5,5,0,0,0-1.37-1.37l.16-.12a4.88,4.88,0,0,1,1.37,1.37Z"/><path class="cls-1" d="M6.85,121.87H5.38a2.8,2.8,0,0,1-1.18,1.37,17.11,17.11,0,0,1,2.47.75l-.14.18a17.61,17.61,0,0,0-2.59-.79,8.61,8.61,0,0,1-3.35.76.63.63,0,0,0-.1-.21,9.29,9.29,0,0,0,3.13-.62c-.59-.13-1.23-.25-1.87-.36l-.21.27-.19-.1c.27-.34.62-.8.95-1.26H.42v-.21h2c.2-.29.39-.56.55-.81l.29.1s-.06,0-.13,0l-.46.67H6.85Zm-4.17-2.75v-.81H.48v-.21H6.79v.21H4.57v.81H6.25v1.69H1v-1.69Zm-1.43.21v1.27H2.67v-1.27Zm1.3,2.54-.67.92c.69.1,1.38.24,2,.39a2.8,2.8,0,0,0,1.25-1.3Zm1.81-2.75v-.81H2.89v.81Zm-1.47.21v1.27H4.36v-1.27Zm3.16,0H4.57v1.27H6Z"/><path class="cls-1" d="M9.67,118.09h5.85v6.09h-.21v-.36H9.88v.36H9.67Zm.21,5.52h5.43V118.3H9.88Zm4.9-3.33h-2a3.15,3.15,0,0,0,2,2.57.66.66,0,0,0-.15.18,3.41,3.41,0,0,1-2.1-2.75h0a3.11,3.11,0,0,1-2.06,2.79.63.63,0,0,0-.15-.16,3,3,0,0,0,2-2.63h-2v-.21h2c.06-.41.08-.86.1-1.34l.33,0s0,.08-.13.09c0,.43,0,.84-.09,1.23h2.18Z"/><path class="cls-1" d="M20,120.61a2,2,0,0,1,1.24-.53c.53,0,.79.38.87,1,.62-.29,1.42-.61,2-.84l.15.29h0a.19.19,0,0,1-.1,0c-.54.19-1.37.52-2,.81a5.55,5.55,0,0,1,0,.62c0,.26,0,.55,0,.86h-.25c0-.27,0-.64,0-1a3.83,3.83,0,0,0,0-.42c-1,.46-1.77,1-1.77,1.54s.55.72,1.65.72a15.69,15.69,0,0,0,1.77-.07v.24c-.45,0-1.1.06-1.77.06-1.34,0-1.88-.34-1.88-.95s.88-1.22,2-1.76c-.06-.6-.32-.84-.64-.84a2.55,2.55,0,0,0-1.78,1.06,10.73,10.73,0,0,1-.8.76l-.15-.16a5.11,5.11,0,0,0,1.86-2.8h-1.7V119h1.76a10.18,10.18,0,0,0,.22-1.06L21,118c0,.07-.06.11-.17.12-.06.32-.13.59-.2.87a10.13,10.13,0,0,0,2.6-.43l0,.23a10.45,10.45,0,0,1-2.72.42,5.54,5.54,0,0,1-.61,1.44Z"/><path class="cls-1" d="M33.1,121.95v.21h-.75v1.29h-.21v-.34H30v.67c0,.25-.08.33-.25.37a6.73,6.73,0,0,1-1.13,0,1.18,1.18,0,0,0-.09-.23h.6c.65,0,.67,0,.67-.18v-.67H27.32v-.21h2.47v-.74h-3v-.21h3v-.69H27.4V121h2.39v-.6H27.63v-1.27h2.16v-.56H26.87v-.21h2.92v-.68l.32,0s0,.06-.11.07v.58h3v.21H30v.56h2.26v1.27H30v.6h2.35v.9Zm-5.26-1.72h1.95v-.85H27.84Zm4.21-.85H30v.85H32ZM30,121.25v.69h2.14v-.69Zm2.14,1.65v-.74H30v.74Z"/><path class="cls-1" d="M35.65,119h6.28v.21H35.65Zm2.71,1h.1v3.82c0,.18,0,.27-.2.31a5.21,5.21,0,0,1-1,0,1.07,1.07,0,0,0-.09-.22h.92c.11,0,.13,0,.13-.13v-1.26H36.36v1.65h-.21V120Zm-.11.21H36.36v1h1.88Zm-1.88,2.15h1.88v-1H36.36Zm.63-4.59a5.92,5.92,0,0,1,.88,1l-.18.1a5.87,5.87,0,0,0-.87-1ZM39.43,123V120l.31,0s0,.06-.1.07V123Zm.31-4.17a8,8,0,0,0,.82-1.09l.29.12s-.06,0-.13,0a9.46,9.46,0,0,1-.81,1Zm1.61,5c0,.21-.06.29-.22.33a6.22,6.22,0,0,1-1.08,0A.93.93,0,0,0,40,124h.57c.6,0,.61,0,.61-.15v-4l.32,0s0,.06-.11.07Z"/><path class="cls-1" d="M45.64,118.22c0,.08-.1.11-.25.1a17.34,17.34,0,0,0-.36,3.21,9.14,9.14,0,0,0,.12,1.66l.59-1.53.21.08c-.32.85-.51,1.27-.6,1.56a1.15,1.15,0,0,0-.06.32.6.6,0,0,0,0,.2l-.22.06a7.12,7.12,0,0,1-.3-2.35,18.81,18.81,0,0,1,.4-3.41Zm4.64,5-.74,0a9.36,9.36,0,0,1-1.38-.08c-.78-.12-1.19-.57-1.19-1.11a2.12,2.12,0,0,1,.69-1.32l.19.13a1.83,1.83,0,0,0-.65,1.18c0,.41.34.79,1,.9a8.2,8.2,0,0,0,1.21.08c.27,0,.56,0,.84,0ZM47,119.16a21.35,21.35,0,0,0,3.11-.27l0,.23a25.23,25.23,0,0,1-3.13.27Z"/><path class="cls-1" d="M58.83,120.39l.15.06a.1.1,0,0,1,0,.06,11.1,11.1,0,0,1-1.62,1.66l-.16-.11a9.68,9.68,0,0,0,1.44-1.44H56s0,.06-.11.07v3.13c0,.2-.06.29-.24.33a6.72,6.72,0,0,1-1.19,0,1,1,0,0,0-.09-.21h.74c.56,0,.57,0,.57-.16v-3.21h-3v-.21h4.08a11.12,11.12,0,0,0-2.47-1.28l.15-.18a12.55,12.55,0,0,1,1.51.67,9,9,0,0,0,1.78-1.24h-4.4v-.21h4.56a.24.24,0,0,0,.12,0l.2.15a.1.1,0,0,1-.08,0,10.92,10.92,0,0,1-2,1.41,6.27,6.27,0,0,1,.86.55l-.08.11h1.88Z"/><path class="cls-1" d="M62.7,120.63a5.4,5.4,0,0,0-1.23-.73l.12-.15a4.67,4.67,0,0,1,1.23.7Zm-1.06,3.3a22.22,22.22,0,0,0,1.06-2.27l.16.13a21.52,21.52,0,0,1-1,2.17.15.15,0,0,1,0,.08.17.17,0,0,1,0,.06Zm1.31-5.15a5,5,0,0,0-1.13-.81l.13-.15a4.92,4.92,0,0,1,1.13.78Zm1.16,4a.13.13,0,0,1-.13.06,4.72,4.72,0,0,1-1.08,1.38,1.09,1.09,0,0,0-.16-.15,4.19,4.19,0,0,0,1.06-1.39Zm-.71-4.67h2v4.35h-2Zm.21.21v1.16h1.58v-1.16Zm0,1.37v1.16h1.58v-1.16Zm0,1.37v1.18h1.58V121Zm2,2.86a8.57,8.57,0,0,0-.88-1.14l.17-.1a8.85,8.85,0,0,1,.88,1.11Zm.51-5.43.31,0s0,.06-.1.07v3.94h-.21Zm1.31-.74.32,0s0,.06-.11.07v6c0,.22-.08.3-.24.34a5.78,5.78,0,0,1-1.06,0,1.77,1.77,0,0,0-.09-.21h.56c.58,0,.62,0,.62-.18Z"/><path class="cls-1" d="M70.56,119.07,74,119c0-.12,0-1.16,0-1.17h.42c0,.06,0,.12-.18.14,0,.22,0,.64,0,1l2.33-.06v.24c-.66,0-1.52,0-2.33,0,0,.6,0,1,.06,1.57a2.46,2.46,0,0,1,.08.73c0,.67-.06,1.84-2.07,2.67l-.15-.19c1.29-.48,1.87-1.2,2-2h0a1.09,1.09,0,0,1-1,.53A1.15,1.15,0,0,1,72,121.26a1.26,1.26,0,0,1,1.2-1.27,1.1,1.1,0,0,1,.79.29s0-.08,0-.1,0-.57,0-1l-3.43.12Zm3.54,2.23c0-.49-.09-1.08-.84-1.08a1,1,0,0,0-1,1.05.92.92,0,0,0,.92,1A.91.91,0,0,0,74.11,121.3Z"/><path class="cls-1" d="M80.69,120.9a4.67,4.67,0,0,1,2-.5A1.6,1.6,0,0,1,84.52,122c0,1.27-1.13,2-2.44,2-.92,0-1.53-.33-1.53-.89a1,1,0,0,1,1.09-.87,1.53,1.53,0,0,1,1.43,1.38A1.65,1.65,0,0,0,84.3,122a1.41,1.41,0,0,0-1.6-1.42,4.34,4.34,0,0,0-2.7,1c-.23.22-.5.53-.69.76l-.17-.17c.71-.78,2.89-2.86,3.85-3.76-.45.06-2,.11-2.95.14a.19.19,0,0,1-.13.11l0-.33c1,0,2.68-.07,3.22-.15l.1,0,.25.27a.36.36,0,0,1-.15.06c-.59.5-2.07,1.92-2.59,2.44Zm1.39,2.87a3.13,3.13,0,0,0,.78-.1,1.33,1.33,0,0,0-1.23-1.23c-.46,0-.86.25-.86.65S81.49,123.78,82.07,123.78Z"/><path class="cls-1" d="M92.61,123.4a12.47,12.47,0,0,1-2.18.18,7,7,0,0,1-1.29-.09A1.27,1.27,0,0,1,88,122.22a2.31,2.31,0,0,1,.74-1.51l.18.13a2.17,2.17,0,0,0-.69,1.42c0,.46.31.86,1,1a6,6,0,0,0,1.21.09,11.45,11.45,0,0,0,2.18-.2ZM91.13,119c-.65.07-2,.1-2.93.1v-.23a22.36,22.36,0,0,0,3.94-.24l.06.24a2.36,2.36,0,0,0-.78.23,9.46,9.46,0,0,0-1.62,1l-.15-.16a9.94,9.94,0,0,1,1.48-1Z"/><path class="cls-1" d="M100.74,120h-.06a.27.27,0,0,1-.13,0c-2.06.64-4.16,1.67-4.16,2.74,0,.78.89,1,2.15,1a19.74,19.74,0,0,0,2.45-.14v.24a21.3,21.3,0,0,1-2.47.12c-1.4,0-2.38-.31-2.38-1.23,0-.76.81-1.44,1.95-2a6.92,6.92,0,0,1-.31-2.84l.44,0c0,.08-.08.14-.21.15a5.81,5.81,0,0,0,.29,2.54,18.55,18.55,0,0,1,2.33-.9Z"/><path class="cls-1" d="M106.54,118.05c0,.08-.09.12-.23.12-.08.43-.22,1.16-.32,1.58a9.61,9.61,0,0,1,1-.08c1,0,1.32.63,1.32,1.63A5.35,5.35,0,0,1,108,123a1.19,1.19,0,0,1-1.16.91,2,2,0,0,1-1.28-.64.86.86,0,0,0,.11-.19c.62.5.93.6,1.18.6a1,1,0,0,0,.94-.74,5.66,5.66,0,0,0,.27-1.64c0-.85-.29-1.42-1.11-1.42a10.09,10.09,0,0,0-1,.08,12.1,12.1,0,0,1-1.54,3.87l-.21-.1a11.36,11.36,0,0,0,1.52-3.75c-.43,0-1,.1-1.37.17l0-.22,1.46-.17c.11-.51.24-1.18.33-1.81Zm1.8-.2a5.44,5.44,0,0,1,1,1l-.16.13a5.31,5.31,0,0,0-1-1Zm1.74,4.08a4.49,4.49,0,0,0-1.61-2.44l.17-.14a4.58,4.58,0,0,1,1.66,2.49Zm-.71-4.36a5.46,5.46,0,0,1,1,1l-.16.13a5.35,5.35,0,0,0-1-1Z"/><path class="cls-1" d="M113.22,118.73c.55,0,4.89-.37,5.74-.34v.24h-.29a2.1,2.1,0,0,0-1.11.31c-1.24.71-2.3,2-2.3,2.93s.67,1.77,2.55,2l-.09.22c-2-.32-2.7-1-2.7-2.26,0-1.08,1.1-2.35,2.54-3.19-.7,0-3.08.21-4.17.31a.21.21,0,0,1-.14.1Zm4.44,1.18a5.43,5.43,0,0,1,1,1l-.16.13a4.87,4.87,0,0,0-1-1Zm.7-.61a5.1,5.1,0,0,1,1,1l-.16.13a5.12,5.12,0,0,0-1-1Z"/><path class="cls-1" d="M6.36,132a11.77,11.77,0,0,1-2.23.47,2.65,2.65,0,0,0,1.23,1.26l-.13.2a2.66,2.66,0,0,1-.4-.2,3.25,3.25,0,0,0-.95-.13H3.67v-.2a5.22,5.22,0,0,1,.9,0,3.68,3.68,0,0,1-.67-1,17.88,17.88,0,0,1-1.91.08H.86v-.22H1.8a19.7,19.7,0,0,0,2-.07c-.09-.25-.22-.72-.32-1.1a14,14,0,0,1-1.46.06H1.29v-.22l.87,0a11.14,11.14,0,0,0,1.27,0c-.08-.34-.15-.74-.22-1.18h.44c0,.08-.06.12-.18.14,0,.36.11.7.18,1a7.23,7.23,0,0,0,2-.45l.09.21a7.9,7.9,0,0,1-2,.45A7.75,7.75,0,0,0,4,132.31a10.76,10.76,0,0,0,2.25-.48Zm-1.23,3.81c-.41,0-.83,0-1.46,0-1.07,0-2-.32-2-1.08a1.49,1.49,0,0,1,.88-1.13l.13.17c-.49.27-.78.62-.78.95,0,.6.73.87,1.75.87.55,0,1,0,1.46,0Z"/><path class="cls-1" d="M9.37,130.89c.44,0,1,0,1.41,0l1.18,0c0-.36,0-.78,0-1.05l.43,0c0,.08-.06.12-.2.14,0,.24,0,.59,0,.87a12.94,12.94,0,0,0,2.47-.3l0,.22a13.13,13.13,0,0,1-2.52.3l0,1.51a10.83,10.83,0,0,0,2.12-.29l0,.23a13.38,13.38,0,0,1-2.16.27l.06,1.35a8.3,8.3,0,0,1,2.18,1.17l-.15.2a7.54,7.54,0,0,0-2-1.13c0,.15,0,.31,0,.42A1,1,0,0,1,11.2,136c-.87,0-1.53-.31-1.53-1s.77-1,1.51-1a3.37,3.37,0,0,1,.88.1c0-.36,0-.81,0-1.27h-.76c-1,0-1.53-.06-1.53-.53,0-.25.19-.43.59-.71l.16.16c-.45.27-.53.43-.53.57s.46.3,1.3.3H12l0-1.5c-.51,0-1,0-1.63,0-.33,0-.69,0-1,0Zm2.72,3.45a3.24,3.24,0,0,0-.9-.12c-.6,0-1.28.25-1.28.76s.59.75,1.3.75.88-.29.88-.9Z"/><path class="cls-1" d="M17.72,131.07l3.43-.11c0-.12,0-1.16,0-1.17h.42c0,.06,0,.12-.18.14,0,.22,0,.64,0,1l2.33-.06v.24c-.66,0-1.52,0-2.33,0,0,.6,0,1,.06,1.57a2.46,2.46,0,0,1,.08.73c0,.67-.06,1.84-2.07,2.67l-.15-.19c1.29-.48,1.87-1.2,2-2h0a1.09,1.09,0,0,1-1,.53,1.15,1.15,0,0,1-1.13-1.19,1.26,1.26,0,0,1,1.2-1.27,1.1,1.1,0,0,1,.79.29s0-.08,0-.1,0-.57,0-1l-3.43.12Zm3.54,2.23c0-.49-.09-1.08-.84-1.08a1,1,0,0,0-1,1.05.92.92,0,0,0,.92,1A.91.91,0,0,0,21.27,133.3Z"/><path class="cls-1" d="M28.37,135.19a1,1,0,1,1-1-1A1,1,0,0,1,28.37,135.19Zm-.21,0a.77.77,0,1,0-.77.77A.77.77,0,0,0,28.16,135.19Z"/><path class="cls-1" d="M32.35,130.89c.44,0,1,0,1.41,0l1.18,0c0-.36,0-.78,0-1.05l.43,0c0,.08-.06.12-.2.14,0,.24,0,.59,0,.87a12.94,12.94,0,0,0,2.47-.3l0,.22a13.13,13.13,0,0,1-2.52.3l0,1.51a10.83,10.83,0,0,0,2.12-.29l0,.23a13.37,13.37,0,0,1-2.16.27l.06,1.35a8.3,8.3,0,0,1,2.18,1.17l-.15.2a7.54,7.54,0,0,0-2-1.13c0,.15,0,.31,0,.42A1,1,0,0,1,34.18,136c-.87,0-1.53-.31-1.53-1s.77-1,1.51-1a3.37,3.37,0,0,1,.88.1c0-.36,0-.81,0-1.27h-.76c-1,0-1.53-.06-1.53-.53,0-.25.19-.43.59-.71l.16.16c-.45.27-.53.43-.53.57s.46.3,1.3.3H35l0-1.5c-.51,0-1,0-1.63,0-.33,0-.69,0-1,0Zm2.72,3.45a3.24,3.24,0,0,0-.9-.12c-.6,0-1.28.25-1.28.76s.59.75,1.3.75.88-.29.88-.9Z"/><path class="cls-1" d="M42.74,129.9c0,.07-.12.13-.21.13,0,.34-.12.72-.2,1.23a8.35,8.35,0,0,0,2.21-.42l.08.22a9.09,9.09,0,0,1-2.32.43A16.74,16.74,0,0,1,41,136l-.22-.09a15.94,15.94,0,0,0,1.31-4.38H40.67v-.23H42.1c.08-.48.15-1,.21-1.42Zm3.74,6h-.6a6.43,6.43,0,0,1-1.79-.18.91.91,0,0,1-.67-.89,1.64,1.64,0,0,1,.43-1l.18.12a1.49,1.49,0,0,0-.39.89c0,.63.57.85,2.07.85.24,0,.49,0,.75,0Zm-.22-3.41a7.56,7.56,0,0,0-2.5.35l-.07-.2a8.2,8.2,0,0,1,2.58-.37Z"/><path class="cls-1" d="M49.72,131.1a3.87,3.87,0,0,1-.4,1.79l-.19-.09a3.89,3.89,0,0,0,.39-1.73Zm.48,5v-6.43l.31,0s0,.06-.1.07v6.33Zm.69-5.31a5.75,5.75,0,0,1,.53,1.13l-.18.12a6.16,6.16,0,0,0-.53-1.17Zm2.62,4.83h2v.21H51.13v-.21H53.3v-2H51.67v-.21H53.3v-1.79H52a6.08,6.08,0,0,1-.57,1.26l-.17-.09a8.85,8.85,0,0,0,1-2.82l.32.08s-.06.06-.13.06a11.67,11.67,0,0,1-.34,1.29H53.3v-1.77l.31,0s0,.06-.1.07v1.67h1.82v.21H53.51v1.79h1.63v.21H53.51Z"/><path class="cls-1" d="M64.25,134.27v.21H61.49v1.69h-.21v-1.69h-3.4v-.21h1.22v-2h2.19v-1.37h-2a6.46,6.46,0,0,1-1.18,1.48,1.09,1.09,0,0,0-.17-.12,6.81,6.81,0,0,0,1.72-2.58l.3.1s-.07.06-.13.06a8.09,8.09,0,0,1-.41.86H64v.21H61.49v1.37H63.8v.21H61.49v1.76Zm-4.94,0h2V132.5h-2Z"/><path class="cls-1" d="M67.69,131.79a9.37,9.37,0,0,1-1.11,1.48l-.14-.16a9.93,9.93,0,0,0,2-3.31l.29.1s-.07.06-.13.06a11.26,11.26,0,0,1-.76,1.58l.15,0s0,.06-.1.06v4.55h-.21Zm5.3.12-2.46.29c.34,2.09,1.07,3.76,2,3.76.26,0,.36-.39.41-1.39a.8.8,0,0,0,.2.09c-.07,1.13-.19,1.51-.62,1.51-1,0-1.8-1.77-2.15-3.94l-2,.23,0-.2,2-.23a17.15,17.15,0,0,1-.19-2.26h.32s0,.08-.11.08a16.36,16.36,0,0,0,.17,2.14l2.46-.29Zm-1.75-2A10,10,0,0,1,72.61,131l-.15.13A9.58,9.58,0,0,0,71.1,130Z"/><path class="cls-1" d="M79.39,132.25v-2.19h2.72v2.19H80.48c0,.3-.06.64-.11,1H82l.12,0s0,.06,0,.09c-.09,1.87-.17,2.49-.35,2.69s-.25.14-.54.14-.48,0-.76,0a.52.52,0,0,0-.06-.2c.41,0,.81,0,.92,0s.2,0,.25-.07.24-.77.32-2.46H80.35a4.5,4.5,0,0,1-1.2,2.72A.93.93,0,0,0,79,136c.95-.81,1.19-2.54,1.27-3.8Zm.21-2V132h2.3v-1.77Zm3.42,4.2v-3.88l.32,0s0,.06-.11.07v3.78Zm1.82-4.6.31,0s0,.06-.1.07v5.83c0,.23-.09.31-.25.36a6.32,6.32,0,0,1-1.16,0,1.26,1.26,0,0,0-.1-.2h.62c.63,0,.68,0,.68-.19Z"/><path class="cls-1" d="M93,135.43a12.49,12.49,0,0,1-2.18.18,7,7,0,0,1-1.29-.09,1.27,1.27,0,0,1-1.16-1.27,2.31,2.31,0,0,1,.74-1.51l.17.13a2.17,2.17,0,0,0-.69,1.42c0,.46.32.86,1,1a6,6,0,0,0,1.21.09,11.44,11.44,0,0,0,2.18-.2ZM91.51,131c-.65.07-2,.1-2.93.1v-.23a22.35,22.35,0,0,0,3.94-.24l.06.24a2.36,2.36,0,0,0-.78.23,9.43,9.43,0,0,0-1.62,1L90,132a9.91,9.91,0,0,1,1.49-1Zm1.56,1.81a4.87,4.87,0,0,0-1-1l.14-.14a5.45,5.45,0,0,1,1,1Zm.7-.61a5.07,5.07,0,0,0-1-1l.14-.14a5,5,0,0,1,1,1Z"/><path class="cls-1" d="M101.11,132h-.06a.27.27,0,0,1-.13,0c-2.06.64-4.16,1.67-4.16,2.74,0,.78.89,1,2.15,1a19.74,19.74,0,0,0,2.45-.14v.24a21.3,21.3,0,0,1-2.47.12c-1.4,0-2.38-.31-2.38-1.23,0-.76.81-1.44,1.95-2a6.92,6.92,0,0,1-.31-2.84l.44,0c0,.08-.08.14-.21.15a5.81,5.81,0,0,0,.29,2.54,18.55,18.55,0,0,1,2.33-.9Z"/><path class="cls-1" d="M107.54,130.74a.14.14,0,0,1-.15.1c-.22,2-1,4.29-2.1,4.29-.47,0-1-.56-1-1.6a3,3,0,0,1,3.11-3.08,2.55,2.55,0,0,1,2.82,2.62c0,1.68-1,2.45-2.68,2.8l-.12-.21c1.62-.31,2.58-1.1,2.58-2.58a2.34,2.34,0,0,0-2.59-2.42h-.11Zm-.36-.06a2.84,2.84,0,0,0-2.67,2.86c0,.86.42,1.37.78,1.37C106.25,134.9,107,132.79,107.18,130.68Z"/><path class="cls-1" d="M115.35,131.24l.14,0a.14.14,0,0,1,0,.06,8.89,8.89,0,0,1-.74,3.06,5.52,5.52,0,0,1,.87.78l-.13.18a5.42,5.42,0,0,0-.83-.76,3.79,3.79,0,0,1-1.46,1.57A.9.9,0,0,0,113,136a3.57,3.57,0,0,0,1.44-1.52,9.07,9.07,0,0,0-1.09-.69l-.1.36-.2-.1c.19-.64.44-1.61.67-2.56h-.81v-.21h.86c.13-.55.25-1.08.34-1.53l.32,0s0,.06-.11.06c-.09.41-.2.9-.32,1.42h1.36Zm-1.41.22c-.17.74-.36,1.49-.53,2.12a10.64,10.64,0,0,1,1.13.69,8.3,8.3,0,0,0,.69-2.81Zm5.41,1.43v.21h-1.79v2.68c0,.22-.06.3-.24.34a6.44,6.44,0,0,1-1.14,0,1.27,1.27,0,0,0-.09-.22h.8c.43,0,.46,0,.46-.17v-2.69h-1.88v-.21h1.88v-1.27l.2,0a6.82,6.82,0,0,0,1.32-1.34h-3.07v-.21h3.29l.18.12a.15.15,0,0,1-.07,0,7.79,7.79,0,0,1-1.62,1.63v1Z"/><path class="cls-1" d="M1.29,142.73v.85a4.35,4.35,0,0,1-.75,2.67.45.45,0,0,0-.16-.14,4.1,4.1,0,0,0,.7-2.53v-1.06H4a6.08,6.08,0,0,1-.1-.79h.34s0,.07-.11.08c0,.23,0,.47.08.7H6.8v.21H4.23A7,7,0,0,0,5,144.66a5.77,5.77,0,0,0,.78-1.42l.3.09s-.06.06-.13.06a5.8,5.8,0,0,1-.83,1.46c.41.66.88,1.1,1.28,1.09.21,0,.29-.26.33-1a.6.6,0,0,0,.2.1c-.06.8-.18,1.06-.53,1.06s-1-.45-1.41-1.14a5.34,5.34,0,0,1-1.25,1.09.78.78,0,0,0-.16-.14,5,5,0,0,0,1.29-1.13A7.27,7.27,0,0,1,4,142.73Zm.34,3.78a1.88,1.88,0,0,1-1.05,1.43l-.16-.13a1.78,1.78,0,0,0,1-1.35Zm0-3v-.21H3.84v.21Zm2,1.93H2v.29H1.79v-1.67H3.62Zm-.21-1.18H2v1H3.41Zm-.91,3.36c0,.16.07.2.49.2H4.58c.34,0,.39-.09.42-.82a.68.68,0,0,0,.21.09c0,.77-.13.94-.62.94H3c-.57,0-.72-.06-.72-.41v-1.2l.32,0s0,.06-.11.07Zm1.58-.7a4.63,4.63,0,0,0-1.35-.85l.14-.15a4.36,4.36,0,0,1,1.36.83Zm1-5.24a3.45,3.45,0,0,1,1.06.51L6,142.4a3.56,3.56,0,0,0-1.06-.53Zm1.63,6.21a5,5,0,0,0-1.37-1.37l.16-.12a4.88,4.88,0,0,1,1.37,1.37Z"/><path class="cls-1" d="M15.75,142.71H10.14v1.9a7.83,7.83,0,0,1-.67,3.6.62.62,0,0,0-.17-.13,7.46,7.46,0,0,0,.63-3.47V142.5h2.72v-.77l.32,0s0,.06-.11.07v.67h2.89Zm-.92,3.09.15.09-.06,0a3.7,3.7,0,0,1-1.6,1.41,8.48,8.48,0,0,0,2.47.64.69.69,0,0,0-.13.19,8.77,8.77,0,0,1-2.57-.72,9.44,9.44,0,0,1-2.69.71.73.73,0,0,0-.11-.19,9.28,9.28,0,0,0,2.58-.63,3.75,3.75,0,0,1-1.42-1.22l.18-.08a3.59,3.59,0,0,0,1.46,1.2A3.57,3.57,0,0,0,14.62,146h-4v-.21h4.26Zm-.51-.63H11.77v-1.23H10.5v-.21h1.27V143l.32,0s0,.06-.11.07v.64h2.12V143l.31,0s0,.06-.1.07v.64H15.7v.21H14.32Zm-.21-1.23H12v1h2.12Z"/><path class="cls-1" d="M22.47,143.23h.27a1.35,1.35,0,1,1,0,2.68,2.59,2.59,0,0,1-1.47-.51,1.15,1.15,0,0,0,.09-.21,2.38,2.38,0,0,0,1.39.5A1.11,1.11,0,0,0,24,144.52c0-.67-.49-1.08-1.25-1.08a10.22,10.22,0,0,0-2.58.65c.29,1,.76,2.76,1.06,3.89L21,148c-.25-1.06-.75-2.88-1-3.87l-1.55.53a.2.2,0,0,1-.11.15l-.14-.31,1.74-.58c-.23-.78-.43-1.46-.54-1.8l.44-.09c0,.09,0,.13-.15.19.2.68.32,1.09.47,1.63a12.91,12.91,0,0,1,2.28-.64A6.39,6.39,0,0,0,21,142l.15-.16a6.33,6.33,0,0,1,1.43,1.31Z"/><path class="cls-1" d="M29.92,142.59h3v.21H26.71v-.21h3v-.86l.32,0s0,.06-.11.07Zm2.62,1.32v3.89c0,.21-.06.31-.24.35a7.73,7.73,0,0,1-1.19,0A.78.78,0,0,0,31,148h.74c.56,0,.57,0,.57-.17v-3.68H30.52V145c0,.11,0,.13.27.13h.89c.18,0,.21,0,.22-.45a.57.57,0,0,0,.2.08c0,.46-.1.57-.39.57H30.8c-.39,0-.49,0-.49-.34v-.86H29.18c-.11.83-.45,1.3-1.5,1.55a.44.44,0,0,0-.13-.17c1-.22,1.32-.6,1.42-1.39H27.38v4.06h-.21v-4.27h3.72l-.15-.06a8.68,8.68,0,0,0,.49-1l.31.1a.14.14,0,0,1-.13.06,8.47,8.47,0,0,1-.48.93Zm-3.84,0a4.48,4.48,0,0,0-.43-.95l.18-.06a3.87,3.87,0,0,1,.45.93Zm2.45,3.53H28.75v.45h-.21v-2.11h2.62ZM30.95,146h-2.2v1.25h2.2Z"/><path class="cls-1" d="M35.55,148.17v-3H38v2.93h-.21v-.34h-2v.42Zm2.22-2.81h-2v2.18h2ZM40.23,142v2.3H36.67V142ZM40,144.07v-1.88H36.88v1.88Zm-1.16,1.08h2.51v3h-.21v-.36H39.07v.42h-.21Zm.21,2.39h2.09v-2.18H39.07Z"/><path class="cls-1" d="M47.42,142.74a.14.14,0,0,1-.15.1c-.22,2-1,4.29-2.1,4.29-.47,0-1-.56-1-1.6a3,3,0,0,1,3.11-3.08,2.55,2.55,0,0,1,2.82,2.62c0,1.68-1,2.45-2.68,2.8l-.12-.21c1.62-.31,2.58-1.1,2.58-2.58a2.34,2.34,0,0,0-2.59-2.42h-.11Zm-.36-.06a2.84,2.84,0,0,0-2.67,2.86c0,.86.42,1.37.78,1.37C46.12,146.9,46.84,144.79,47.05,142.68Z"/><path class="cls-1" d="M52.62,143.13v-.21h2.46v.21Zm.31.94v-.21h2v.21Zm0,.94v-.21h2V145Zm2,.73v2H53.15v.37h-.21v-2.37Zm0-3.73v.21H53V142Zm-.18,3.94H53.15v1.58h1.54Zm1.77-1.09v2.29l1-.25,0,.19-2.13.53a.09.09,0,0,1-.07.09l-.13-.27,1-.24v-2.34h-.92v-.21h2v.21ZM59,143.44H57.88c0,2.51.2,4.39.84,4.51h0c.11,0,.22-.45.27-1.05a.52.52,0,0,0,.19.09c-.09.82-.2,1.19-.45,1.19h-.08c-.81-.16-.95-2.09-1-4.73H55.21v-.21h2.44l0-1.49.33,0s0,.07-.11.08c0,.48,0,.95,0,1.39H59Zm-.81-1.68a5.18,5.18,0,0,1,.85,1l-.17.12a5.23,5.23,0,0,0-.85-1Z"/><path class="cls-1" d="M67.47,142.26v5.46c0,.25-.08.34-.27.39a8.07,8.07,0,0,1-1.29,0,1.08,1.08,0,0,0-.09-.22h.69c.74,0,.75,0,.75-.2v-1.84H64.92v2.25h-.21v-2.25H62.58a4.12,4.12,0,0,1-.89,2.33.53.53,0,0,0-.15-.15,4.71,4.71,0,0,0,.88-3.18v-2.61Zm-4.85,2.61c0,.25,0,.52,0,.8h2.11v-1.48H62.63Zm2.08-2.4H62.63V144h2.08Zm2.56,0H64.92V144h2.35Zm-2.35,3.2h2.35v-1.48H64.92Z"/><path class="cls-1" d="M71.6,146.74A2.11,2.11,0,0,1,70.49,148l-.16-.13a2,2,0,0,0,1.09-1.18Zm5.06-3v.21H70.34v-.21H74.5l-.11-.06a8.26,8.26,0,0,0,.48-1l.27.13a.13.13,0,0,1-.12,0,7.69,7.69,0,0,1-.46.84Zm-.39-1.28v.21H70.74v-.21h2.63v-.69l.32,0s0,.06-.11.07v.6Zm-.67,1.93v1.85H71.41v-1.85Zm-.21.81v-.6H71.62v.6Zm0,.83v-.62H71.62V146Zm-3.26-3.28a3.45,3.45,0,0,1,.43.89l-.2.08a3.48,3.48,0,0,0-.42-.9Zm.26,5c0,.15.06.18.45.18h1.44c.33,0,.38-.09.41-.85a.57.57,0,0,0,.2.09c0,.81-.12,1-.59,1H72.85c-.53,0-.68,0-.68-.39v-1l.32,0s0,.06-.1.07Zm.44-1.43a4.78,4.78,0,0,1,1.35.68l-.13.17a5,5,0,0,0-1.35-.7ZM76.51,148a5.8,5.8,0,0,0-1.4-1.19l.15-.12a5.36,5.36,0,0,1,1.4,1.18Z"/><path class="cls-1" d="M85.06,143v4.73c0,.25-.06.35-.27.39a9.22,9.22,0,0,1-1.3,0,1.34,1.34,0,0,0-.1-.25h.81c.63,0,.64,0,.64-.2v-4.53H79.66v5h-.21V143H81.4a10.33,10.33,0,0,0,.55-1.3l.32.08a.13.13,0,0,1-.13.06,12.15,12.15,0,0,1-.51,1.16Zm-1.43,3.69H81v.53h-.21v-2.81h2.79Zm-.21-2.07H81v1.86h2.37Z"/><path class="cls-1" d="M91.67,143.48l-.75,0c-.28,0-.57,0-.84,0-.08.6-.15,1.23-.21,1.77a15.1,15.1,0,0,0,1.78-.1v.23c-.47,0-1.18.09-1.81.09,0,.36-.06.58-.06.79,0,1.3.83,1.42,1.58,1.42s1.83-.09,1.83-1.07a2.36,2.36,0,0,0-.62-1.38.84.84,0,0,0,.19-.11,2.46,2.46,0,0,1,.66,1.5c0,.93-.86,1.28-2,1.28-.6,0-1.84,0-1.84-1.62,0-.18,0-.39.06-.81-.62,0-1.58,0-1.58-.69a1.11,1.11,0,0,1,.62-.85l.15.16c-.33.21-.53.46-.53.67,0,.46.67.46,1.36.48.06-.53.13-1.18.21-1.79A5.11,5.11,0,0,1,88.3,143l.09-.21a4.75,4.75,0,0,0,1.48.41c.06-.48.12-1,.17-1.34l.42.06c0,.08-.1.12-.21.12l-.15,1.19c.25,0,.5,0,.76,0s.55,0,.81,0Z"/><path class="cls-1" d="M99.27,141.75s-.06.06-.11.08a9.75,9.75,0,0,0,3.15,2.59.87.87,0,0,0-.14.17A10.11,10.11,0,0,1,99,142a9.44,9.44,0,0,1-3.1,2.7l-.13-.16a8.56,8.56,0,0,0,3.12-2.78Zm-2.36,6.42v-2.79h4.19v2.79h-.21v-.33H97.12v.33Zm4-2.58H97.12v2h3.77Zm-3.71-1.51h3.63v.21H97.19Z"/><path class="cls-1" d="M106.18,141.91l.43.06c0,.08-.09.1-.2.12,0,.33,0,.82-.06,1.11l.18.06a2.43,2.43,0,0,0-.21.83v.39a4.14,4.14,0,0,1,2.48-.94,1.73,1.73,0,0,1,1.81,2c0,1.43-1.15,2.09-3.1,2.26a1,1,0,0,0-.07-.22c1.85-.16,2.94-.71,2.94-2a1.55,1.55,0,0,0-1.58-1.74,3.85,3.85,0,0,0-2.47,1V148h-.23c0-.48,0-2.82,0-3.35a8.29,8.29,0,0,1-1.52,1.93l-.15-.17a7.21,7.21,0,0,0,1.68-2.29l0-.64a8.93,8.93,0,0,1-1.46.11v-.23a6.74,6.74,0,0,0,1.48-.12Z"/><path class="cls-1" d="M119.43,143.78c-.46.06-1,.14-1.62.24a10.43,10.43,0,0,1-.06,1.65.68.68,0,0,1-.68.6,2.74,2.74,0,0,1-1.11-.32l.08-.21a2.5,2.5,0,0,0,1,.31.47.47,0,0,0,.47-.41,9.21,9.21,0,0,0,.06-1.58l-2.61.44c0,.69,0,1.34.06,1.79.09,1.2.65,1.3,1.72,1.3.62,0,1.39,0,1.89-.09v.24c-.5,0-1.31.07-2,.07-1,0-1.78-.07-1.88-1.48,0-.44,0-1.09-.06-1.79l-1.46.27,0-.22,1.48-.25,0-1.84.41,0c0,.08-.07.11-.17.12,0,.48,0,1.06,0,1.63l2.6-.43c0-.61,0-1.28-.09-1.91l.4,0c0,.07,0,.09-.15.11,0,.55.06,1.15.07,1.72l1.6-.26Z"/><path class="cls-1" d="M.72,154.73c.55,0,4.89-.37,5.74-.34v.24H6.17a2.1,2.1,0,0,0-1.11.31c-1.24.71-2.3,2-2.3,2.93s.67,1.77,2.55,2l-.09.22c-2-.32-2.7-1-2.7-2.26,0-1.08,1.1-2.35,2.54-3.19-.7,0-3.08.21-4.17.31a.21.21,0,0,1-.14.1Z"/><path class="cls-1" d="M15.87,156.39l.15.06a.1.1,0,0,1,0,.06,11.1,11.1,0,0,1-1.62,1.66l-.16-.11a9.68,9.68,0,0,0,1.44-1.44H13s0,.06-.11.07v3.13c0,.2-.06.29-.24.33a6.72,6.72,0,0,1-1.19,0,1,1,0,0,0-.09-.21h.74c.56,0,.57,0,.57-.16v-3.21h-3v-.21H13.8a11.12,11.12,0,0,0-2.47-1.28l.15-.18a12.55,12.55,0,0,1,1.51.67,9,9,0,0,0,1.78-1.24h-4.4v-.21h4.56a.24.24,0,0,0,.12,0l.2.15a.1.1,0,0,1-.08,0,10.92,10.92,0,0,1-2,1.41,6.27,6.27,0,0,1,.86.55l-.08.11h1.88Z"/><path class="cls-1" d="M20.38,156.63a5.4,5.4,0,0,0-1.23-.73l.12-.15a4.67,4.67,0,0,1,1.23.7Zm-1.06,3.3a22.22,22.22,0,0,0,1.06-2.27l.16.13a21.52,21.52,0,0,1-1,2.17.15.15,0,0,1,0,.08.17.17,0,0,1,0,.06Zm1.31-5.15A5,5,0,0,0,19.5,154l.13-.15a4.92,4.92,0,0,1,1.13.78Zm1.16,4a.13.13,0,0,1-.13.06,4.72,4.72,0,0,1-1.08,1.38,1.09,1.09,0,0,0-.16-.15,4.19,4.19,0,0,0,1.06-1.39Zm-.71-4.67h2v4.35h-2Zm.21.21v1.16h1.58v-1.16Zm0,1.37v1.16h1.58v-1.16Zm0,1.37v1.18h1.58V157Zm2,2.86a8.57,8.57,0,0,0-.88-1.14l.17-.1a8.85,8.85,0,0,1,.88,1.11Zm.51-5.43.31,0s0,.06-.1.07v3.94H23.8Zm1.31-.74.32,0s0,.06-.11.07v6c0,.22-.08.3-.24.34a5.78,5.78,0,0,1-1.06,0,1.77,1.77,0,0,0-.09-.21h.56c.58,0,.62,0,.62-.18Z"/><path class="cls-1" d="M28.94,154.73c.55,0,4.89-.37,5.74-.34v.24h-.29a2.1,2.1,0,0,0-1.11.31c-1.24.71-2.3,2-2.3,2.93s.67,1.77,2.55,2l-.09.22c-2-.32-2.7-1-2.7-2.26,0-1.08,1.1-2.35,2.54-3.19-.7,0-3.08.21-4.17.31a.21.21,0,0,1-.14.1Zm4.44,1.18a5.43,5.43,0,0,1,1,1l-.16.13a4.87,4.87,0,0,0-1-1Zm.7-.61a5.1,5.1,0,0,1,1,1l-.16.13a5.12,5.12,0,0,0-1-1Z"/><path class="cls-1" d="M44.12,156a11.77,11.77,0,0,1-2.23.47,2.65,2.65,0,0,0,1.23,1.26L43,158a2.66,2.66,0,0,1-.4-.2,3.25,3.25,0,0,0-.95-.13h-.22v-.2a5.22,5.22,0,0,1,.9,0,3.68,3.68,0,0,1-.67-1,17.88,17.88,0,0,1-1.91.08H38.62v-.22h.94a19.7,19.7,0,0,0,2-.07c-.09-.25-.22-.72-.32-1.1a14,14,0,0,1-1.46.06H39v-.22l.87,0a11.14,11.14,0,0,0,1.27,0c-.08-.34-.15-.74-.22-1.18h.44c0,.08-.06.12-.18.14,0,.36.11.7.18,1a7.23,7.23,0,0,0,2-.45l.09.21a7.9,7.9,0,0,1-2,.45,7.75,7.75,0,0,0,.33,1.09,10.76,10.76,0,0,0,2.25-.48Zm-1.23,3.81c-.41,0-.83,0-1.46,0-1.07,0-2-.32-2-1.08a1.49,1.49,0,0,1,.88-1.13l.13.17c-.49.27-.78.62-.78.95,0,.6.73.87,1.75.87.55,0,1,0,1.46,0Z"/><path class="cls-1" d="M47.91,158.38A14.69,14.69,0,0,1,49.55,160l-.2.2a14.51,14.51,0,0,0-1.6-1.62Z"/><path class="cls-1" d="M60.21,155H54.67v1.79a6.38,6.38,0,0,1-.75,3.41.65.65,0,0,0-.18-.12,6.09,6.09,0,0,0,.71-3.29v-2H57.1v-1.06l.32,0s0,.06-.11.07v1h2.9Zm-1.65,2.53a12.74,12.74,0,0,1,1.71,2.56l-.18.11c-.09-.2-.22-.44-.36-.7l-4.65.23a.1.1,0,0,1-.08.08l-.12-.3.88,0a29.8,29.8,0,0,0,1.34-3.9l.32.11a.15.15,0,0,1-.13.07A37.2,37.2,0,0,1,56,159.47l3.66-.16a15.12,15.12,0,0,0-1.22-1.7Z"/><path class="cls-1" d="M66.33,156.5h3.06v.21H63.11v-.21h3V155.1H64.35a6.12,6.12,0,0,1-.66,1.14l-.17-.12a7.13,7.13,0,0,0,1.08-2.29l.31.09s-.06.06-.13.06a8.72,8.72,0,0,1-.33.9h1.68v-1.17l.32,0s0,.06-.11.07v1.07h2.54v.21H66.33Zm-2.12,3.67v-2.63H68.3v2.63h-.21v-.32H64.42v.32Zm3.88-2.42H64.42v1.89h3.67Z"/><path class="cls-1" d="M75.53,159.7h3.07v.21H72.3v-.21h3v-2.06H72.95v-.21h2.37v-1.92H72.67v-.21h5.58v.21H75.53v1.92H78v.21H75.53Zm-1.21-6a11,11,0,0,1,2.14,1.12l-.14.17a10.71,10.71,0,0,0-2.14-1.15Z"/><path class="cls-1" d="M83.86,156.95a.6.6,0,1,1-.6-.6A.6.6,0,0,1,83.86,156.95Z"/><path class="cls-1" d="M93.37,155.16l-.07.08A7.35,7.35,0,0,1,89.45,160a.69.69,0,0,0-.15-.17A7.07,7.07,0,0,0,93,155.31H90.22a7.17,7.17,0,0,1-1.62,1.82l-.17-.15a7.4,7.4,0,0,0,2.26-3.09L91,154c0,.07-.11.08-.18.07a9,9,0,0,1-.5,1h2.79l0,0Z"/><path class="cls-1" d="M97.92,157.74v-3.36l.37,0s-.06.1-.15.1v3.23Zm3.73-3.62c0,.06-.06.1-.15.1v2.26A3.41,3.41,0,0,1,99,160a.85.85,0,0,0-.15-.18,3.23,3.23,0,0,0,2.48-3.34V154.1Z"/><path class="cls-1" d="M106,155h4.8v.22h-2.3V159h2.81v.22h-5.8V159h2.77v-3.76H106Z"/><path class="cls-1" d="M120,154.22a.15.15,0,0,1-.11,0l-.09,0a16.36,16.36,0,0,1-2.06,1.74l.12.07s-.06.06-.11.07V160h-.22v-3.82a20.4,20.4,0,0,1-2.91,1.74l-.13-.18a19,19,0,0,0,5.22-3.7Z"/><path class="cls-1" d="M5.83,167.06a.08.08,0,0,1-.06,0,8.73,8.73,0,0,1-1.07,2.4,11.65,11.65,0,0,1,1,.64l-.14.19a9.36,9.36,0,0,0-1-.64A6.78,6.78,0,0,1,1.93,172a.61.61,0,0,0-.17-.16,6.8,6.8,0,0,0,2.61-2.26,12.31,12.31,0,0,0-1.8-.82l.11-.2a13.32,13.32,0,0,1,1.81.83,8,8,0,0,0,1-2.19H2.81a7.34,7.34,0,0,1-1.7,2.05l-.17-.15a8,8,0,0,0,2.26-3.25l.34.1c0,.06-.08.08-.17.07-.11.27-.29.67-.45,1H5.58l.06,0Z"/><path class="cls-1" d="M8.67,168.7h5.85v.23H8.91a.27.27,0,0,1-.2.13Z"/><path class="cls-1" d="M20.49,166.74a.14.14,0,0,1-.15.1c-.22,2-1,4.29-2.1,4.29-.47,0-1-.56-1-1.6a3,3,0,0,1,3.11-3.08,2.55,2.55,0,0,1,2.82,2.62c0,1.68-1,2.45-2.68,2.8l-.12-.21c1.62-.31,2.58-1.1,2.58-2.58a2.34,2.34,0,0,0-2.59-2.42h-.11Zm-.36-.06a2.84,2.84,0,0,0-2.67,2.86c0,.86.42,1.37.78,1.37C19.19,170.9,19.91,168.79,20.12,166.68Z"/><path class="cls-1" d="M28.28,166.35a.07.07,0,0,1,0,0,12.23,12.23,0,0,1-.66,2.86,8.48,8.48,0,0,1,.94,1.29l-.18.14a8.43,8.43,0,0,0-.85-1.2,6.3,6.3,0,0,1-1.88,2.68.74.74,0,0,0-.16-.17,6,6,0,0,0,1.89-2.7,15,15,0,0,0-1.4-1.44l.17-.13a14,14,0,0,1,1.32,1.33,11.92,11.92,0,0,0,.6-2.56h-2.5v-.21h2.63Zm3.17-.06.15.06a.11.11,0,0,1,0,0,9.44,9.44,0,0,1-1.33,3.75A4.31,4.31,0,0,0,31.93,172a1.33,1.33,0,0,0-.17.17,4.47,4.47,0,0,1-1.67-1.83,6,6,0,0,1-1.94,1.81A.66.66,0,0,0,28,172a5.76,5.76,0,0,0,2-1.86,12.2,12.2,0,0,1-1-3.56l.2,0a12.09,12.09,0,0,0,.91,3.38,9.28,9.28,0,0,0,1.21-3.41H28.63v-.21h2.82Z"/><path class="cls-1" d="M40.69,167.27H37c0,.46-.06.94-.13,1.42h2.84l.13,0,0,.08c-.15,2.2-.29,3-.57,3.24s-.28.15-.59.15-.64,0-1.05,0a.5.5,0,0,0-.07-.21c.53,0,1,.06,1.21.06s.26,0,.33-.08c.23-.22.38-1,.53-3H36.79a4,4,0,0,1-2.27,3.28.81.81,0,0,0-.15-.15c2-.9,2.28-3,2.37-4.76H34.38v-.21h3v-1.33l.32,0s0,.06-.11.07v1.23h3.07Z"/><path class="cls-1" d="M46.14,166.74a.14.14,0,0,1-.15.1c-.22,2-1,4.29-2.1,4.29-.47,0-1-.56-1-1.6A3,3,0,0,1,46,166.45a2.55,2.55,0,0,1,2.82,2.62c0,1.68-1,2.45-2.68,2.8l-.12-.21c1.62-.31,2.58-1.1,2.58-2.58A2.34,2.34,0,0,0,46,166.67H45.9Zm-.36-.06a2.84,2.84,0,0,0-2.67,2.86c0,.86.42,1.37.78,1.37C44.84,170.9,45.55,168.79,45.77,166.68Z"/><path class="cls-1" d="M51.53,170.38A14.69,14.69,0,0,1,53.17,172l-.2.2a14.51,14.51,0,0,0-1.6-1.62Z"/><path class="cls-1" d="M62.25,171.47a7,7,0,0,0-2.37-1.22c0,.2,0,.6,0,.78,0,.64-.48,1-1.24,1s-1.52-.38-1.52-1.09.67-1,1.55-1a4.52,4.52,0,0,1,1,.09c0-.25,0-.46-.06-.66-.06-.9-.1-2.25-.1-3.4l.44,0c0,.07-.06.13-.19.15v1.42a17.78,17.78,0,0,0,2.46-.22l0,.24a21.15,21.15,0,0,1-2.49.2c0,.54,0,1,.07,1.55,0,.22,0,.49.06.74a7.79,7.79,0,0,1,2.53,1.27Zm-2.59-.85c0-.15,0-.3,0-.42a3.47,3.47,0,0,0-.89-.1c-1,0-1.42.39-1.42.82s.62.86,1.27.86,1-.28,1-.74Z"/><path class="cls-1" d="M66,169.84a3.38,3.38,0,0,1-.2-1.18,12.65,12.65,0,0,1,.25-2.44l.43.1c0,.1-.11.11-.22.12a11.08,11.08,0,0,0-.24,2.19,2.76,2.76,0,0,0,0,.54c.15-.37.43-.91.57-1.18a1.7,1.7,0,0,0,.18.13,9.78,9.78,0,0,0-.57,1.21.8.8,0,0,0,0,.27.58.58,0,0,0,0,.19Zm3.57-3.8c0,.09-.07.12-.2.15,0,.65.12,1.72.12,2.47,0,1.36-.53,2.54-2.56,3.38l-.15-.2c1.9-.72,2.49-1.89,2.49-3.18,0-.78-.08-1.83-.15-2.65Z"/><path class="cls-1" d="M74,167.45s-.06.06-.13.06A5.82,5.82,0,0,1,72.8,169l-.17-.13a5,5,0,0,0,1.09-1.48Zm2.21-.68V167H72.7v-.21h1.68v-1l.32,0s0,.06-.11.07v.95Zm-.85,1.9s-.06.06-.13.06a7.17,7.17,0,0,1-.54,1.26,10.35,10.35,0,0,1,.87,1.2l-.18.14a9.54,9.54,0,0,0-.8-1.14A5.5,5.5,0,0,1,72.9,172a.8.8,0,0,0-.16-.14A5.29,5.29,0,0,0,74.46,170c-.31-.38-.64-.76-1-1.09l.17-.11c.3.3.62.65.91,1a7.17,7.17,0,0,0,.5-1.23Zm-.22-1.3a5.73,5.73,0,0,1,.94,1.38l-.18.12a6,6,0,0,0-.93-1.4Zm3.77.06H79a.31.31,0,0,0,0,.08c-.09,3.17-.17,4.15-.4,4.43a.6.6,0,0,1-.54.18l-.81,0a.47.47,0,0,0-.07-.21c.45,0,.85,0,1,0a.25.25,0,0,0,.22-.09c.2-.22.29-1.25.37-4.2H77.31c-.09,1.81-.42,3.56-1.74,4.55a.78.78,0,0,0-.19-.13c1.28-.9,1.62-2.63,1.72-4.42H76v-.21h1.11c0-.55,0-1.1,0-1.64l.36,0c0,.06-.06.08-.15.1,0,.5,0,1,0,1.52Z"/><path class="cls-1" d="M87.84,170.36v.21H84.77v1.64h-.21v-1.64h-3v-.21h3v-.64l.32,0s0,.06-.11.07v.55Zm-6.29-.76c.46-.19,1.13-.5,1.79-.8l0,.18-1.62.76a.12.12,0,0,1-.06.1Zm2.1-.17c.24-.22.5-.5.76-.79a6.84,6.84,0,0,0-1.1-.84l.14-.13.21.13a9.31,9.31,0,0,0,.72-.95H81.73v-.21h2.83v-.92l.32,0s0,.06-.11.07v.82h2.89v.21H84.44l.23.11a.13.13,0,0,1-.12,0,8.84,8.84,0,0,1-.74.88,6.76,6.76,0,0,1,.74.58c.32-.37.62-.76.85-1.07l.25.15s-.06,0-.11,0a18.19,18.19,0,0,1-1.63,1.82l1.81,0a8.61,8.61,0,0,0-.67-.76l.18-.11a6.78,6.78,0,0,1,1,1.29l-.18.13c-.06-.11-.14-.24-.24-.38l-2.45.1a.1.1,0,0,1-.08.08l-.13-.3ZM82,167.29a6.05,6.05,0,0,1,1.18.79l-.15.15a6.76,6.76,0,0,0-1.18-.81Zm4.06,1.4a11,11,0,0,1,1.75,1l-.17.16a10.75,10.75,0,0,0-1.75-1.05Zm1.44-1.37s-.06,0-.11,0a12.1,12.1,0,0,1-1.23.83l-.15-.13a9.62,9.62,0,0,0,1.25-.91Z"/><path class="cls-1" d="M91.22,166.94a9.1,9.1,0,0,0,.4-1.22l.31.09s-.06.06-.13.06a9.76,9.76,0,0,1-.37,1.06H92.7V171h-2v.64h-.21v-4.7Zm1.26,1.88v-1.67H90.68v1.67Zm-1.81,2h1.81V169H90.68Zm5.62-3.85h.11a.29.29,0,0,0,0,.08c-.11,3.5-.2,4.63-.48,5s-.32.2-.63.2-.64,0-1,0a.55.55,0,0,0-.07-.21c.55,0,1.05,0,1.25,0a.32.32,0,0,0,.27-.1c.24-.26.36-1.41.46-4.71H93.84a7.45,7.45,0,0,1-.85,1.67l-.17-.13a8.91,8.91,0,0,0,1.23-3l.32.08s-.06.07-.13.06c-.09.36-.2.73-.32,1.09Zm-2.25,1.48a7.27,7.27,0,0,1,1.09,1.82l-.19.11a7.38,7.38,0,0,0-1.09-1.84Z"/><path class="cls-1" d="M101,168.95a.6.6,0,1,1-.6-.6A.6.6,0,0,1,101,168.95Z"/><path class="cls-1" d="M105.41,167.45s-.06.06-.13.06a5.82,5.82,0,0,1-1.1,1.45l-.17-.13a5,5,0,0,0,1.09-1.48Zm2.21-.68V167h-3.54v-.21h1.68v-1l.32,0s0,.06-.11.07v.95Zm-.85,1.9s-.06.06-.13.06a7.17,7.17,0,0,1-.54,1.26,10.35,10.35,0,0,1,.87,1.2l-.18.14a9.54,9.54,0,0,0-.8-1.14,5.5,5.5,0,0,1-1.7,1.85.8.8,0,0,0-.16-.14,5.29,5.29,0,0,0,1.72-1.88c-.31-.38-.64-.76-1-1.09l.17-.11c.3.3.62.65.91,1a7.17,7.17,0,0,0,.5-1.23Zm-.22-1.3a5.73,5.73,0,0,1,.94,1.38l-.18.12a6,6,0,0,0-.93-1.4Zm3.77.06h.12a.31.31,0,0,0,0,.08c-.09,3.17-.17,4.15-.4,4.43a.6.6,0,0,1-.54.18l-.81,0a.47.47,0,0,0-.07-.21c.45,0,.85,0,1,0a.25.25,0,0,0,.22-.09c.2-.22.29-1.25.37-4.2H108.7c-.09,1.81-.42,3.56-1.74,4.55a.78.78,0,0,0-.19-.13c1.28-.9,1.62-2.63,1.72-4.42h-1.11v-.21h1.11c0-.55,0-1.1,0-1.64l.36,0c0,.06-.06.08-.15.1,0,.5,0,1,0,1.52Z"/><path class="cls-1" d="M119.12,169.77h-2.65a7.67,7.67,0,0,0,2.84,2,.93.93,0,0,0-.15.17,8.22,8.22,0,0,1-2.94-2.13h-.08v2.4h-.21v-2.4h-.06a7.36,7.36,0,0,1-2.92,2.12.93.93,0,0,0-.15-.18,6.85,6.85,0,0,0,2.82-1.95H113v-.21h3v-.79h-2.27v-2.68h4.81v2.68h-2.33v.79h3Zm-5.25-3.47v1h2.06v-1Zm0,2.26h2.06v-1h-2.06Zm4.39-1.24v-1h-2.12v1Zm0,1.24v-1h-2.12v1Z"/><path class="cls-1" d="M1.46,178.94a9.1,9.1,0,0,0,.4-1.22l.31.09s-.06.06-.13.06a9.76,9.76,0,0,1-.37,1.06H2.93V183h-2v.64H.7v-4.7Zm1.26,1.88v-1.67H.91v1.67Zm-1.81,2H2.72V181H.91Zm5.62-3.85h.11a.29.29,0,0,0,0,.08c-.11,3.5-.2,4.63-.48,5s-.32.2-.63.2-.64,0-1,0a.55.55,0,0,0-.07-.21c.55,0,1.05,0,1.25,0a.32.32,0,0,0,.27-.1c.24-.26.36-1.41.46-4.71H4.08a7.45,7.45,0,0,1-.85,1.67l-.17-.13a8.91,8.91,0,0,0,1.23-3l.32.08s-.06.07-.13.06c-.09.36-.2.73-.32,1.09Zm-2.25,1.48a7.27,7.27,0,0,1,1.09,1.82l-.19.11a7.38,7.38,0,0,0-1.09-1.84Z"/><path class="cls-1" d="M11.92,177.92c0,.06-.09.1-.22.1-.06.35-.12.72-.2,1a10.89,10.89,0,0,0,2.3-.36l0,.23a14.59,14.59,0,0,1-2.39.36,9.74,9.74,0,0,1-1.57,3.52l-.2-.1a9.53,9.53,0,0,0,1.52-3.4H9.69v-.22h1.58c.09-.39.16-.8.22-1.25Zm1.91,2.94c0,.67.06,1,.1,1.58a7.22,7.22,0,0,1,1.59.88l-.14.2a7.17,7.17,0,0,0-1.44-.83v.3a1.07,1.07,0,0,1-1.22,1.08c-.81,0-1.36-.33-1.36-.93s.74-1,1.36-1a3.18,3.18,0,0,1,1,.17c0-.53-.09-1.06-.09-1.46Zm-.13,1.73a2.82,2.82,0,0,0-1-.2c-.48,0-1.12.17-1.12.73s.48.71,1.13.71,1-.28,1-.85C13.72,182.84,13.72,182.71,13.71,182.59ZM15.5,180a9,9,0,0,0-2.5.38l-.06-.22a9.44,9.44,0,0,1,2.55-.39Z"/><path class="cls-1" d="M21.61,178.54H19.84v5.07H19.6v-5.07H17.83v-.22h3.78Z"/><path class="cls-1" d="M28,178.32l-2,5.29h-.22L24,178.32h.27l1,2.93c.27.79.48,1.44.64,2h0c.16-.59.41-1.27.69-2l1.1-2.93Z"/><path class="cls-1" d="M34.15,183.41a3.39,3.39,0,0,1-1.44.27,2.41,2.41,0,0,1-2.46-2.7,2.55,2.55,0,0,1,2.66-2.75,2.66,2.66,0,0,1,1.21.23l-.1.2a2.38,2.38,0,0,0-1.09-.24A2.32,2.32,0,0,0,30.51,181a2.23,2.23,0,0,0,2.33,2.47,2.75,2.75,0,0,0,1.22-.26Z"/><path class="cls-1" d="M42,183.61H41.8L41.64,181c-.06-.92-.13-1.84-.12-2.37h0c-.2.55-.41,1.14-.73,2l-1.18,3h-.16l-1.11-2.93c-.32-.86-.55-1.46-.71-2h0c0,.61-.06,1.53-.13,2.44l-.17,2.5H37l.39-5.29h.26l1.23,3.24c.25.69.44,1.19.6,1.68h0c.14-.47.33-.92.61-1.65l1.27-3.27h.28Z"/><path class="cls-1" d="M44.88,180.78A9.25,9.25,0,0,0,48,177.7l.38,0s-.06.06-.12.08a10.63,10.63,0,0,0,3.12,2.89.85.85,0,0,0-.14.18,10.87,10.87,0,0,1-3.12-2.92,9.92,9.92,0,0,1-3,3Zm3.36.83v2.14h2.91V184H45.07v-.21h1v-2.82l.32,0s0,.06-.11.07v2.72H48v-4.16l.32,0s0,.06-.1.07v1.72h2.22v.21Z"/><path class="cls-1" d="M54.07,178.24h6.21v.21h-3v1H58.9v3.17H55.42v-3.17H57v-1h-3Zm5.81,5.25v-4.08l.32,0s0,.06-.11.07v4.64h-.21v-.45H54.51v.48H54.3v-4.76l.32,0s0,.06-.11.07v4Zm-4.26-3.8v1.26H57v-1.26Zm0,1.47v1.27H57v-1.27Zm3.06-.21v-1.26H57.26v1.26Zm0,1.48v-1.27H57.26v1.27Z"/><path class="cls-1" d="M65.09,180.95a.6.6,0,1,1-.6-.6A.6.6,0,0,1,65.09,180.95Z"/><path class="cls-1" d="M70.69,179.08v1.05h1.87v.21H70.69v.88h1.5v2.09c0,.15,0,.22-.16.26a4.7,4.7,0,0,1-.87,0,.72.72,0,0,0-.08-.19h.44c.41,0,.46,0,.46-.1v-1.89H70.69v2.74h-.21v-2.74H69.24v2.19H69v-2.4h1.45v-.88H68.59v-.21h1.89v-1.05H69.33A4.67,4.67,0,0,1,69,180l-.19-.08a7.63,7.63,0,0,0,.57-2l.32.08s0,.06-.13.06a7.89,7.89,0,0,1-.17.79h1.09v-1.13l.32,0s0,.06-.11.07v1h1.56v.21Zm2.28-.5.32,0s0,.06-.11.07v3.78H73Zm1.5-.72.32,0s0,.06-.11.07v5.84c0,.22-.08.3-.24.34a5.41,5.41,0,0,1-1.06,0,2.11,2.11,0,0,0-.09-.2h.56c.58,0,.62,0,.62-.17Z"/><path class="cls-1" d="M78.79,179.83a8.12,8.12,0,0,1-1.06,1.47l-.14-.16a9.18,9.18,0,0,0,1.9-3.34l.3.09a.13.13,0,0,1-.13.06,10.49,10.49,0,0,1-.7,1.58l.15,0s0,.06-.11.06v4.55h-.21Zm5.41-.66H81.78v1.32H84v.21H81.78v1.37h2.35v.21H81.78v1.89h-.21v-5h-.85a7.86,7.86,0,0,1-1,1.67l-.17-.13A8.81,8.81,0,0,0,81,177.84l.32.1s-.06.06-.14.06c-.11.32-.24.64-.38,1H84.2Z"/><path class="cls-1" d="M88.62,180.61a2,2,0,0,1,1.24-.53c.53,0,.79.38.87,1,.62-.29,1.42-.61,2-.84l.15.29h0a.19.19,0,0,1-.1,0c-.54.19-1.37.52-2,.81a5.55,5.55,0,0,1,0,.62c0,.26,0,.55,0,.86H90.5c0-.27,0-.64,0-1a3.83,3.83,0,0,0,0-.42c-1,.46-1.77,1-1.77,1.54s.55.72,1.65.72a15.69,15.69,0,0,0,1.77-.07v.24c-.45,0-1.1.06-1.77.06-1.34,0-1.88-.34-1.88-.95s.88-1.22,2-1.76c-.06-.6-.32-.84-.64-.84a2.55,2.55,0,0,0-1.78,1.06,10.73,10.73,0,0,1-.8.76L87.1,182a5.11,5.11,0,0,0,1.86-2.8h-1.7V179H89a10.18,10.18,0,0,0,.22-1.06l.41.07c0,.07-.06.11-.17.12-.06.32-.13.59-.2.87a10.13,10.13,0,0,0,2.6-.43l0,.23a10.45,10.45,0,0,1-2.72.42,5.54,5.54,0,0,1-.61,1.44Z"/><path class="cls-1" d="M101,180.55l.16.1a.09.09,0,0,1-.08,0A5.22,5.22,0,0,1,99,183a8,8,0,0,0,3,1.05.92.92,0,0,0-.13.19,8.11,8.11,0,0,1-3.09-1.13,10.21,10.21,0,0,1-3.09,1.1.68.68,0,0,0-.13-.19,10,10,0,0,0,3-1,5.18,5.18,0,0,1-1.76-2.08l.18-.08a5,5,0,0,0,1.77,2,4.88,4.88,0,0,0,1.94-2.06H96.18v-.21h2.56v-1.38H95.82V179h2.92v-1.24l.32,0s0,.06-.11.07V179h3v.21H99v1.38h2Z"/><path class="cls-1" d="M106.86,181.16l-.71.26v2.4c0,.2-.07.27-.21.32a4.23,4.23,0,0,1-.9,0,.79.79,0,0,0-.09-.21h.47c.5,0,.53,0,.53-.15V181.5l-.94.34a.12.12,0,0,1-.06.1l-.15-.27,1.15-.39v-1.81h-1.1v-.21h1.1v-1.53l.31,0s0,.06-.1.07v1.44H107v.21h-.87v1.73l.68-.24Zm3.57.56.14.08a.1.1,0,0,1,0,0,3.36,3.36,0,0,1-1,1.47,5.23,5.23,0,0,0,1.74.66,1,1,0,0,0-.15.19,5.34,5.34,0,0,1-1.76-.72,4.84,4.84,0,0,1-1.61.73.71.71,0,0,0-.14-.18,4.78,4.78,0,0,0,1.57-.67,3.56,3.56,0,0,1-1-1.13l.18-.07a3.22,3.22,0,0,0,1,1.08,3,3,0,0,0,.95-1.25H108a4.59,4.59,0,0,1-1.27,2.19l-.16-.13a5.18,5.18,0,0,0,1.45-3H107v-.21h1.1c0-.26.08-.53.12-.8h-1.12v-.21h2.65l0,0a8.18,8.18,0,0,0,.79-1.32l.29.11s-.06.06-.12.06a9.56,9.56,0,0,1-.76,1.18h.94V180H108.4q-.05.41-.13.8h2.92V181h-3c0,.26-.11.51-.17.75h2.37Zm.34-3.8h-.1a24.38,24.38,0,0,1-3.68.45.58.58,0,0,0-.06-.18,23.37,23.37,0,0,0,3.64-.46Zm-3.26.65a3.4,3.4,0,0,1,.41,1l-.2.08a3.45,3.45,0,0,0-.4-1Zm1.34-.13a3.92,3.92,0,0,1,.25,1l-.2,0a4.68,4.68,0,0,0-.24-1Z"/><path class="cls-1" d="M115.37,178c0,.08-.08.13-.22.14-.06.74-.13,2.74-.13,3.78s.56,1.71,1.54,1.71a3.47,3.47,0,0,0,2.7-1.46.7.7,0,0,0,.18.15,3.74,3.74,0,0,1-2.89,1.53c-1.09,0-1.77-.66-1.77-1.95,0-.84.07-3.11.13-4Z"/><path class="cls-1" d="M.95,190.89c.44,0,1,0,1.41,0l1.18,0c0-.36,0-.78,0-1.05l.43,0c0,.08-.06.12-.2.14,0,.24,0,.59,0,.87a12.94,12.94,0,0,0,2.47-.3l0,.22a13.13,13.13,0,0,1-2.52.3l0,1.51a10.83,10.83,0,0,0,2.12-.29l0,.23a13.37,13.37,0,0,1-2.16.27l.06,1.35A8.3,8.3,0,0,1,6,195.35l-.15.2a7.54,7.54,0,0,0-2-1.13c0,.15,0,.31,0,.42A1,1,0,0,1,2.77,196c-.87,0-1.53-.31-1.53-1s.77-1,1.51-1a3.37,3.37,0,0,1,.88.1c0-.36,0-.81,0-1.27H2.83c-1,0-1.53-.06-1.53-.53,0-.25.19-.43.59-.71l.16.16c-.45.27-.53.43-.53.57s.46.3,1.3.3h.75l0-1.5c-.51,0-1,0-1.63,0-.33,0-.69,0-1,0Zm2.72,3.45a3.24,3.24,0,0,0-.9-.12c-.6,0-1.28.25-1.28.76s.59.75,1.3.75.88-.29.88-.9Z"/><path class="cls-1" d="M8.9,191.07l3.43-.11c0-.12,0-1.16,0-1.17h.42c0,.06,0,.12-.18.14,0,.22,0,.64,0,1l2.33-.06v.24c-.66,0-1.52,0-2.33,0,0,.6,0,1,.06,1.57a2.46,2.46,0,0,1,.08.73c0,.67-.06,1.84-2.07,2.67l-.15-.19c1.29-.48,1.87-1.2,2-2h0a1.09,1.09,0,0,1-1,.53,1.15,1.15,0,0,1-1.13-1.19,1.26,1.26,0,0,1,1.2-1.27,1.1,1.1,0,0,1,.79.29s0-.08,0-.1,0-.57,0-1l-3.43.12Zm3.54,2.23c0-.49-.09-1.08-.84-1.08a1,1,0,0,0-1,1.05.92.92,0,0,0,.92,1A.91.91,0,0,0,12.44,193.3Z"/><path class="cls-1" d="M19.15,195.19a1,1,0,1,1-1-1A1,1,0,0,1,19.15,195.19Zm-.21,0a.77.77,0,1,0-.77.77A.77.77,0,0,0,18.94,195.19Z"/><path class="cls-1" d="M25,300v.18H22.4v1.62c0,.16,0,.22-.19.26a5.09,5.09,0,0,1-.92,0,1,1,0,0,0-.09-.17h.58c.41,0,.44,0,.44-.13v-1.62H19.57V300h2.65v-.61l.18,0a6,6,0,0,0,1.15-.86H20.68v-.18h3.06l0,0,.16.11a.08.08,0,0,1-.06,0,6.61,6.61,0,0,1-1.47,1.08V300Zm-5-2.43v1.11h-.18v-1.29h2.34v-.83l.27,0s0,.05-.09.06v.74h2.39v1.29h-.18v-1.11Z"/><path class="cls-1" d="M31.13,297.61v4h-.19v-.34H27v-.19h4V297.8H27v-.19Z"/><path class="cls-1" d="M33.58,297.29a7,7,0,0,1,1.81.83l-.11.16a7.1,7.1,0,0,0-1.78-.84Zm.1,4.23A6.6,6.6,0,0,0,38.05,298l.17.1a6.81,6.81,0,0,1-4.3,3.59.21.21,0,0,1-.07.13Z"/><path class="cls-1" d="M45,298.94H42.83l.09,0s0,.06-.11.07a3.27,3.27,0,0,1-1.89,2.85,1,1,0,0,0-.14-.15,3.1,3.1,0,0,0,1.83-2.79H40.15v-.19H45Zm-.58-1.7H40.69V297h3.68Z"/><path class="cls-1" d="M47.93,299.05A1.73,1.73,0,0,1,49,298.6c.45,0,.68.32.74.83.53-.25,1.22-.52,1.73-.72l.13.25h0a.16.16,0,0,1-.09,0c-.46.16-1.17.44-1.71.7a4.73,4.73,0,0,1,0,.53c0,.22,0,.47,0,.74h-.22c0-.23,0-.55,0-.83a3.27,3.27,0,0,0,0-.36c-.82.4-1.52.86-1.52,1.32s.47.62,1.41.62a13.5,13.5,0,0,0,1.52-.06v.2c-.38,0-.94,0-1.52,0-1.15,0-1.61-.29-1.61-.81s.75-1,1.68-1.51c0-.52-.27-.72-.55-.72a2.18,2.18,0,0,0-1.52.91,9.45,9.45,0,0,1-.68.65l-.13-.14a4.36,4.36,0,0,0,1.59-2.4H46.77v-.19h1.51a8.49,8.49,0,0,0,.19-.91l.35.06c0,.06-.05.1-.14.1a7.4,7.4,0,0,1-.17.74,8.67,8.67,0,0,0,2.23-.37l0,.2a9,9,0,0,1-2.33.36,4.74,4.74,0,0,1-.52,1.23Z"/><path class="cls-1" d="M53.71,298.51a9.53,9.53,0,0,1,1.67.53l-.08.19a9.78,9.78,0,0,0-1.66-.53Zm.5,3a6.42,6.42,0,0,0,4.13-3.61,1.3,1.3,0,0,0,.17.11,6.55,6.55,0,0,1-4.07,3.62.13.13,0,0,1-.05.14Zm.12-4.53a9.51,9.51,0,0,1,1.65.58l-.08.18a9.69,9.69,0,0,0-1.64-.58Z"/><path class="cls-1" d="M64.08,297.32a.07.07,0,0,1-.06,0,9.6,9.6,0,0,1-1.25,2.12,22.2,22.2,0,0,1,2.33,2.16l-.16.13a20.87,20.87,0,0,0-2.3-2.13,9.2,9.2,0,0,1-2.44,2.14l-.14-.15a9.17,9.17,0,0,0,3.7-4.2H60.65v-.19h3.2l0,0Z"/><path class="cls-1" d="M71.69,298.94H69.56l.09,0s0,.06-.11.07a3.27,3.27,0,0,1-1.89,2.85,1,1,0,0,0-.14-.15,3.1,3.1,0,0,0,1.83-2.79H66.89v-.19h4.8Zm-.58-1.7H67.43V297h3.68Z"/><path class="cls-1" d="M78.11,301.74c-.08-.18-.2-.4-.34-.63-1.21.12-3.53.24-4.47.29a.16.16,0,0,1-.1.11l-.1-.3.64,0c.41-1.18,1-3,1.39-4.27l.31.09c0,.05-.07.07-.16.07-.36,1.16-.92,2.9-1.34,4.1,1.19-.05,2.8-.16,3.71-.25a12.51,12.51,0,0,0-1.24-1.66l.16-.1a11.71,11.71,0,0,1,1.72,2.49Z"/><path class="cls-1" d="M81,297c0,.07-.08.1-.21.08a14.92,14.92,0,0,0-.31,2.75,7.87,7.87,0,0,0,.1,1.42l.5-1.31.18.07c-.28.73-.44,1.08-.52,1.34a1,1,0,0,0,0,.28.54.54,0,0,0,0,.17l-.19.05a6.07,6.07,0,0,1-.26-2,16.1,16.1,0,0,1,.34-2.92Zm4,4.32-.64,0a8,8,0,0,1-1.18-.07c-.67-.1-1-.49-1-.95a1.82,1.82,0,0,1,.59-1.13l.16.11a1.57,1.57,0,0,0-.56,1c0,.35.29.68.88.77a7.06,7.06,0,0,0,1,.07l.72,0Zm-2.8-3.51a18.16,18.16,0,0,0,2.66-.23l0,.2a21.78,21.78,0,0,1-2.68.23Z"/><path class="cls-1" d="M89.39,297h.17a5.41,5.41,0,0,0,2.67,5,.82.82,0,0,0-.15.14,5.38,5.38,0,0,1-2.61-3.9,5.51,5.51,0,0,1-2.64,3.9l-.14-.13a5.37,5.37,0,0,0,2.61-3.9l.16,0a8.07,8.07,0,0,1-.07-.91H87.76V297h1.63Z"/><path class="cls-1" d="M98.92,298H99l.1,0v.06c-.11,2.72-.2,3.6-.44,3.86s-.28.16-.52.16-.54,0-.86,0a.39.39,0,0,0-.06-.18c.45,0,.86,0,1,0s.2,0,.27-.08.32-1.12.41-3.66H96.46a4.71,4.71,0,0,1-2.32,4A.54.54,0,0,0,94,302a4.55,4.55,0,0,0,2.27-3.83h-2.1V298h2.11c0-.18,0-.36,0-.53v-.86l.27,0s0,.05-.09.06v.78c0,.17,0,.35,0,.53Z"/><path class="cls-1" d="M9.94,431.45a9.53,9.53,0,0,1,1.67.53l-.08.19a9.78,9.78,0,0,0-1.66-.53Zm.5,3a6.42,6.42,0,0,0,4.13-3.61,1.3,1.3,0,0,0,.17.11,6.55,6.55,0,0,1-4.07,3.62.13.13,0,0,1-.05.14Zm.12-4.53a9.51,9.51,0,0,1,1.65.58l-.08.18a9.69,9.69,0,0,0-1.64-.58Z"/><path class="cls-1" d="M20.32,430.26a.07.07,0,0,1-.06,0A9.6,9.6,0,0,1,19,432.43a22.2,22.2,0,0,1,2.33,2.16l-.16.13a20.87,20.87,0,0,0-2.3-2.13,9.2,9.2,0,0,1-2.44,2.14l-.14-.15a9.17,9.17,0,0,0,3.7-4.2H16.89v-.19h3.2l0,0Z"/><path class="cls-1" d="M27.93,431.89H25.8l.09,0s0,.06-.11.07a3.27,3.27,0,0,1-1.89,2.85,1,1,0,0,0-.14-.15,3.1,3.1,0,0,0,1.83-2.79H23.12v-.19h4.8Zm-.58-1.7H23.66V430h3.68Z"/><path class="cls-1" d="M34.35,434.68c-.08-.18-.2-.4-.34-.63-1.21.12-3.53.24-4.47.29a.16.16,0,0,1-.1.11l-.1-.3.64,0c.41-1.18,1-3,1.39-4.27l.31.09c0,.05-.07.07-.16.07-.36,1.16-.92,2.9-1.34,4.1,1.19-.05,2.8-.16,3.71-.25a12.51,12.51,0,0,0-1.24-1.66l.16-.1a11.71,11.71,0,0,1,1.72,2.49Z"/><path class="cls-1" d="M38.46,429.81c0,.07-.08.1-.2.1-.07.37-.19,1-.27,1.36a8.34,8.34,0,0,1,.83-.07c.83,0,1.13.54,1.13,1.4a4.59,4.59,0,0,1-.24,1.46,1,1,0,0,1-1,.78,1.74,1.74,0,0,1-1.1-.55.7.7,0,0,0,.1-.16c.53.43.8.52,1,.52a.82.82,0,0,0,.8-.64,4.84,4.84,0,0,0,.23-1.4c0-.73-.25-1.21-1-1.21a8.63,8.63,0,0,0-.86.07,10.39,10.39,0,0,1-1.32,3.32l-.18-.08a9.71,9.71,0,0,0,1.3-3.21l-1.18.14,0-.19,1.25-.14c.1-.44.2-1,.28-1.55Zm1.54-.17a4.65,4.65,0,0,1,.87.84l-.14.11a4.6,4.6,0,0,0-.86-.84Zm1.49,3.5A3.85,3.85,0,0,0,40.11,431l.14-.12A3.92,3.92,0,0,1,41.68,433Zm-.61-3.73a4.68,4.68,0,0,1,.87.85l-.14.11a4.57,4.57,0,0,0-.86-.84Z"/><path class="cls-1" d="M46.81,434.39a2.9,2.9,0,0,1-1.24.23,2.06,2.06,0,0,1-2.1-2.31A2.19,2.19,0,0,1,45.75,430a2.28,2.28,0,0,1,1,.2l-.08.17a2,2,0,0,0-.94-.2,2,2,0,0,0-2.07,2.21,1.91,1.91,0,0,0,2,2.12,2.36,2.36,0,0,0,1-.22Z"/><path class="cls-1" d="M52.92,434.56h-.21l-.14-2.21c-.05-.79-.11-1.58-.1-2h0c-.17.47-.35,1-.62,1.67l-1,2.57h-.14l-1-2.51c-.28-.74-.47-1.25-.61-1.74h0c0,.52,0,1.31-.11,2.09l-.15,2.14h-.22L49,430h.22l1.06,2.78c.22.59.38,1,.52,1.44h0c.12-.4.28-.79.52-1.42l1.09-2.8h.24Z"/><path class="cls-1" d="M56.79,430.82l.12,0,0,0a7.65,7.65,0,0,1-.63,2.62,4.73,4.73,0,0,1,.74.67l-.11.15a4.63,4.63,0,0,0-.71-.65A3.25,3.25,0,0,1,54.92,435a.81.81,0,0,0-.13-.16,3,3,0,0,0,1.23-1.3,7.47,7.47,0,0,0-.94-.59l-.08.31-.17-.09c.16-.55.38-1.38.57-2.2h-.7v-.18h.74c.11-.47.21-.92.29-1.31l.27,0s0,.05-.1.05c-.08.35-.17.77-.28,1.21h1.16Zm-1.21.19c-.15.63-.31,1.28-.46,1.81a9,9,0,0,1,1,.59,7.09,7.09,0,0,0,.59-2.41Zm4.64,1.22v.18H58.69v2.3c0,.19-.05.26-.2.29a5.49,5.49,0,0,1-1,0,1.08,1.08,0,0,0-.08-.19h.68c.37,0,.4,0,.4-.14v-2.3H56.9v-.18h1.61v-1.09l.17,0A5.82,5.82,0,0,0,59.8,430H57.17v-.18H60l.15.1a.13.13,0,0,1-.06,0,6.66,6.66,0,0,1-1.39,1.39v.88Z"/><path class="cls-1" d="M62.55,430.38v.73a3.72,3.72,0,0,1-.64,2.29.37.37,0,0,0-.14-.12,3.51,3.51,0,0,0,.6-2.17v-.91h2.48a5.35,5.35,0,0,1-.08-.68h.29s0,.06-.1.07c0,.2,0,.4.07.6h2.24v.18h-2.2a6,6,0,0,0,.62,1.66,5,5,0,0,0,.67-1.22l.26.08s-.05.05-.11.05a5,5,0,0,1-.71,1.25c.35.56.76.94,1.1.94.18,0,.25-.22.28-.82a.52.52,0,0,0,.17.09c0,.68-.16.91-.45.91s-.84-.38-1.21-1a4.55,4.55,0,0,1-1.07.93.67.67,0,0,0-.14-.12,4.28,4.28,0,0,0,1.1-1,6.23,6.23,0,0,1-.68-1.81Zm.29,3.24a1.61,1.61,0,0,1-.9,1.22l-.14-.11a1.52,1.52,0,0,0,.88-1.16Zm0-2.55v-.18h1.94v.18Zm1.75,1.66H63.16V433H63v-1.43h1.57Zm-.18-1H63.16v.83h1.21Zm-.78,2.88c0,.14.06.17.42.17h1.36c.29,0,.34-.08.36-.7a.6.6,0,0,0,.18.08c0,.66-.11.8-.53.8H64c-.49,0-.62,0-.62-.35v-1l.27,0s0,.05-.09.06Zm1.35-.6a3.94,3.94,0,0,0-1.16-.73l.12-.13a3.73,3.73,0,0,1,1.16.71Zm.83-4.49a3,3,0,0,1,.91.44l-.11.16a3,3,0,0,0-.91-.46Zm1.39,5.31A4.23,4.23,0,0,0,66,433.65l.14-.1a4.19,4.19,0,0,1,1.18,1.17Z"/><path class="cls-1" d="M74.52,430.37h-4.8V432a6.7,6.7,0,0,1-.57,3.08A.54.54,0,0,0,69,435a6.39,6.39,0,0,0,.54-3v-1.8h2.33v-.66l.27,0s0,.05-.09.06v.58h2.47ZM73.72,433l.13.08,0,0a3.17,3.17,0,0,1-1.37,1.21,7.23,7.23,0,0,0,2.12.55.57.57,0,0,0-.11.16,7.54,7.54,0,0,1-2.2-.62,8.06,8.06,0,0,1-2.3.61.6.6,0,0,0-.09-.16,7.93,7.93,0,0,0,2.21-.54,3.22,3.22,0,0,1-1.22-1l.16-.07a3.06,3.06,0,0,0,1.25,1,3.05,3.05,0,0,0,1.29-1H70.08V433h3.65Zm-.44-.54H71.11v-1.05H70v-.18h1.09v-.63l.27,0s0,.05-.09.06v.54h1.82v-.63l.27,0s0,.05-.09.06v.54h1.19v.18H73.29Zm-.18-1.05H71.29v.88h1.82Z"/><path class="cls-1" d="M77.58,432a1.73,1.73,0,0,1,1.06-.45c.45,0,.68.32.74.83.53-.25,1.22-.52,1.73-.72l.13.25h0a.16.16,0,0,1-.09,0c-.46.16-1.17.44-1.71.7a4.73,4.73,0,0,1,0,.53c0,.22,0,.47,0,.74h-.22c0-.23,0-.55,0-.83a3.27,3.27,0,0,0,0-.36c-.82.4-1.52.86-1.52,1.32s.47.62,1.41.62a13.5,13.5,0,0,0,1.52-.06v.2c-.38,0-.94,0-1.52,0-1.15,0-1.61-.29-1.61-.81s.75-1,1.68-1.51c0-.52-.27-.72-.55-.72a2.18,2.18,0,0,0-1.52.91,9.45,9.45,0,0,1-.68.65l-.13-.14a4.36,4.36,0,0,0,1.59-2.4H76.41v-.19h1.51a8.49,8.49,0,0,0,.19-.91l.35.06c0,.06-.05.1-.14.1a7.4,7.4,0,0,1-.17.74,8.67,8.67,0,0,0,2.23-.37l0,.2a9,9,0,0,1-2.33.36,4.74,4.74,0,0,1-.52,1.23Z"/><path class="cls-1" d="M88.27,433.14v.18h-.64v1.1h-.18v-.29H85.62v.57c0,.21-.07.28-.22.32a5.81,5.81,0,0,1-1,0,1,1,0,0,0-.08-.2h.51c.56,0,.57,0,.57-.16v-.58H83.33V434h2.11v-.64H82.85v-.18h2.59v-.59h-2v-.18h2v-.52H83.59v-1.09h1.85v-.48h-2.5v-.18h2.5v-.58l.27,0s0,.05-.09.06v.5h2.55v.18H85.62v.48h1.94v1.09H85.62v.52h2v.77Zm-4.5-1.47h1.67v-.73H83.77Zm3.6-.73H85.62v.73h1.76Zm-1.76,1.6v.59h1.83v-.59ZM87.45,434v-.64H85.62V434Z"/><path class="cls-1" d="M89.93,430.59H95.3v.18H89.93Zm2.32.85h.08v3.27c0,.16,0,.23-.17.26a4.44,4.44,0,0,1-.84,0,.91.91,0,0,0-.08-.19H92c.09,0,.11,0,.11-.11v-1.08H90.54v1.42h-.18v-3.62Zm-.1.18H90.54v.82h1.61Zm-1.61,1.84h1.61v-.84H90.54Zm.54-3.93a5,5,0,0,1,.76.87l-.15.09a5,5,0,0,0-.75-.88ZM93.17,434V431.5l.27,0s0,.05-.09.06V434Zm.27-3.57a6.94,6.94,0,0,0,.7-.93l.25.1s-.05,0-.11,0a7.89,7.89,0,0,1-.69.86Zm1.38,4.3c0,.18-.05.25-.19.28a5.28,5.28,0,0,1-.92,0,.86.86,0,0,0-.08-.19h.49c.51,0,.52,0,.52-.13v-3.45l.27,0s0,.05-.09.06Z"/><path class="cls-1" d="M102.17,431.81l.13,0a.08.08,0,0,1,0,0,9.48,9.48,0,0,1-1.39,1.42l-.14-.1A8.34,8.34,0,0,0,102,432H99.73s0,0-.09.06v2.68c0,.17-.05.25-.2.28a5.74,5.74,0,0,1-1,0,.93.93,0,0,0-.08-.18H99c.48,0,.49,0,.49-.14V432H96.9v-.18h3.5a9.59,9.59,0,0,0-2.12-1.1l.13-.15a10.63,10.63,0,0,1,1.3.58,7.67,7.67,0,0,0,1.52-1.06H97.46v-.18h3.9l.1,0,.17.13a.09.09,0,0,1-.07,0,9.34,9.34,0,0,1-1.67,1.21,5.23,5.23,0,0,1,.74.47l-.07.1h1.61Z"/><path class="cls-1" d="M105,432a4.64,4.64,0,0,0-1-.62l.1-.13a4,4,0,0,1,1,.6Zm-.91,2.83a18.8,18.8,0,0,0,.91-1.94l.14.11a18.63,18.63,0,0,1-.84,1.86.13.13,0,0,1,0,.07.14.14,0,0,1,0,0Zm1.12-4.41a4.25,4.25,0,0,0-1-.7l.11-.13a4.24,4.24,0,0,1,1,.67Zm1,3.41a.11.11,0,0,1-.11,0,4.05,4.05,0,0,1-.92,1.18l-.14-.13a3.58,3.58,0,0,0,.91-1.19Zm-.61-4h1.71v3.72h-1.71Zm.18.18v1h1.35v-1Zm0,1.17v1h1.35v-1Zm0,1.18v1h1.35v-1Zm1.71,2.45a7.31,7.31,0,0,0-.75-1l.14-.08a7.52,7.52,0,0,1,.76,1Zm.44-4.65.27,0s0,.05-.09.06v3.38h-.18Zm1.12-.64.27,0s0,.05-.09.06v5.1c0,.19-.07.26-.2.29a4.92,4.92,0,0,1-.91,0,1.44,1.44,0,0,0-.08-.18h.48c.5,0,.53,0,.53-.15Z"/><line class="cls-2" x1="62.39" y1="315.98" x2="62.39" y2="327.23"/><polyline class="cls-2" points="76.38 320.51 62.39 333.95 48.41 320.51"/><path class="cls-1" d="M63,.87l0-.05h.27V27.63h.57V0h-.72c-.57.65-1.12,1.23-1.63,1.73a14.32,14.32,0,0,1-1.67,1.41A13.84,13.84,0,0,1,58,4.25a16.05,16.05,0,0,1-2.19.88V5.7a15.17,15.17,0,0,0,3.93-1.81A11.77,11.77,0,0,0,63,.87Z"/><path class="cls-1" d="M119.34,286.6H0V212.5H119.34ZM.54,286.06H118.8V213H.54Z"/><rect class="cls-1" x="5.1" y="217.6" width="109.14" height="63.91" rx="8.5" ry="8.5"/><path class="cls-3" d="M27.75,233v.67h-3V235c0,.7-.33.79-1.74.79a2.71,2.71,0,0,0-.3-.67l.78,0c.49,0,.52,0,.52-.15v-1.27H21.11V233H24v-.63l.24,0a6.68,6.68,0,0,0,.94-.69H22.51v-.64h3.42l.12,0,.55.33a.24.24,0,0,1-.14.09,8.36,8.36,0,0,1-1.67,1.27v.3ZM22,230.41v1.17h-.7v-1.84H24v-.9l.93.06c0,.07-.06.1-.18.12v.72h2.77v1.84h-.73v-1.17Z"/><path class="cls-3" d="M36.24,230.1v5.08h-.76v-.39H31v-.7h4.49v-3.29H31.06v-.7Z"/><path class="cls-3" d="M40.3,229.64a9.14,9.14,0,0,1,2.18,1l-.38.67a10.16,10.16,0,0,0-2.15-1Zm-.14,5.06a7.71,7.71,0,0,0,5.16-4.29,5,5,0,0,0,.68.43,8.52,8.52,0,0,1-5.19,4.46.23.23,0,0,1-.12.18Z"/><path class="cls-3" d="M55.14,232.15H52.73l.14,0a.16.16,0,0,1-.16.1,4,4,0,0,1-2.25,3.29,5.37,5.37,0,0,0-.56-.5,3.3,3.3,0,0,0,2-2.92H49.17v-.69h6Zm-.74-2.07H49.85v-.69H54.4Z"/><path class="cls-3" d="M64.35,232.23h0a.25.25,0,0,1-.13,0c-.55.17-1.33.44-1.91.67,0,.16,0,.35,0,.56s0,.42,0,.67l-.75.05a7.53,7.53,0,0,0,0-1c-.7.35-1.24.78-1.24,1.14s.46.55,1.38.55a16.48,16.48,0,0,0,1.85-.09v.69c-.42,0-1.06.06-1.87.06-1.42,0-2.09-.33-2.09-1.17,0-.62.81-1.27,1.89-1.82,0-.33-.19-.55-.44-.55a2.34,2.34,0,0,0-1.69,1c-.19.21-.47.5-.8.81l-.51-.5a8.59,8.59,0,0,0,1-1,5.1,5.1,0,0,0,.81-1.6H58.29V230l1.27,0H60c.07-.32.13-.63.18-1l.93.1c0,.07-.08.12-.18.13-.05.27-.11.51-.18.75a9.11,9.11,0,0,0,2.39-.42l.13.7a11.35,11.35,0,0,1-2.71.38,4.26,4.26,0,0,1-.44,1.05h0a1.85,1.85,0,0,1,1.1-.41c.46,0,.81.33.91.91.6-.27,1.33-.54,1.9-.76Z"/><path class="cls-3" d="M21.64,248.88a11.06,11.06,0,0,1,1.95.67l-.32.64a12,12,0,0,0-1.94-.7Zm.33,3.54a7.57,7.57,0,0,0,5-4.2,6.64,6.64,0,0,0,.64.47,8.2,8.2,0,0,1-5,4.3.17.17,0,0,1-.1.19Zm.53-5.37a12.69,12.69,0,0,1,1.94.73l-.35.63a10.56,10.56,0,0,0-1.92-.76Z"/><path class="cls-3" d="M35.53,247.6a.22.22,0,0,1-.13.1A11.53,11.53,0,0,1,34,250.2a28.3,28.3,0,0,1,2.59,2.39l-.65.56a22.84,22.84,0,0,0-2.41-2.38,11.74,11.74,0,0,1-2.73,2.38,4.32,4.32,0,0,0-.54-.57A10.12,10.12,0,0,0,34.4,248H30.92v-.7h3.88l.13,0Z"/><path class="cls-3" d="M45.49,249.85H43.08l.14,0a.16.16,0,0,1-.16.1,4,4,0,0,1-2.25,3.29,5.37,5.37,0,0,0-.56-.5,3.3,3.3,0,0,0,2-2.92H39.53v-.69h6Zm-.74-2.07H40.2v-.69h4.55Z"/><path class="cls-3" d="M53.87,253.13q-.17-.4-.38-.8c-1.58.18-3.86.33-5,.39a.2.2,0,0,1-.15.16l-.26-.9h.77c.47-1.41,1.13-3.56,1.51-5l1,.25c0,.08-.1.12-.22.13-.38,1.3-1,3.17-1.47,4.6,1,0,2.61-.16,3.49-.24A12.9,12.9,0,0,0,52,250.06l.62-.34a14.84,14.84,0,0,1,2,3.06Z"/><path class="cls-3" d="M59.15,247.15c0,.08-.09.13-.24.13a18,18,0,0,0-.38,3.29,8.33,8.33,0,0,0,.07,1.25c.12-.29.42-1,.52-1.24l.38.51c-.27.63-.52,1-.62,1.38a1.22,1.22,0,0,0-.06.35.93.93,0,0,0,0,.25l-.73.12a8.24,8.24,0,0,1-.33-2.6,23.37,23.37,0,0,1,.36-3.6Zm4.57,5.47-.81,0a9.89,9.89,0,0,1-1.34-.07c-1-.13-1.39-.66-1.39-1.27a2.32,2.32,0,0,1,.67-1.45l.7.25a1.63,1.63,0,0,0-.59,1.1c0,.69.92.73,1.78.73a9.09,9.09,0,0,0,1-.05ZM60.32,248a25,25,0,0,0,3.17-.28l.07.73a25.82,25.82,0,0,1-3.23.27Z"/><path class="cls-3" d="M24.16,264.73h.72a6.36,6.36,0,0,0,3,5.87,3.35,3.35,0,0,0-.56.6,6.42,6.42,0,0,1-2.89-4,6.5,6.5,0,0,1-2.92,4,4.09,4.09,0,0,0-.58-.55,6,6,0,0,0,2.93-4.4l.38.09c-.05-.33-.08-.63-.1-.91H22.39v-.71h1.77Z"/><path class="cls-3" d="M36.55,265.89h.34l.41,0c0,.06,0,.16,0,.24-.1,3.17-.21,4.28-.5,4.65s-.5.38-1.16.38H34.9a1.63,1.63,0,0,0-.25-.74c.5,0,.95,0,1.14,0a.39.39,0,0,0,.33-.11c.22-.23.33-1.25.42-3.75H34.16a5.46,5.46,0,0,1-2.77,4.66,3,3,0,0,0-.55-.56,4.87,4.87,0,0,0,2.58-4.09H31.07v-.71h2.38v-1.58l.92.05c0,.06-.05.11-.18.13v1.41Z"/><path class="cls-3" d="M44.68,264.26h.64v8.4h-.64Z"/><rect class="cls-3" x="13.14" y="240.4" width="94.33" height="0.54"/><rect class="cls-3" x="13.14" y="259.23" width="94.33" height="0.54"/><image width="1058" height="645" transform="translate(4.66 348.22) scale(0.1)" xlink:href="../../Downloads/COLLAGE_ZERO_fix/26942296_1706521456071547_1041069672_o.png"/><path class="cls-1" d="M119.34,420.12H0V346H119.34ZM.54,419.59H118.8v-73H.54Z"/></g></g></svg>