<svg xmlns="http://www.w3.org/2000/svg" xmlns:xlink="http://www.w3.org/1999/xlink" viewBox="0 0 507.51 166.8"><defs><style>.cls-1{fill:#fff;}.cls-2,.cls-3,.cls-5{fill:none;stroke-miterlimit:10;}.cls-2,.cls-3{stroke:#fff;}.cls-2{stroke-width:0.5px;}.cls-4{fill:#231f20;}.cls-5{stroke:#231f20;}</style></defs><title>Asset 2</title><g id="Layer_2" data-name="Layer 2"><g id="レイヤー_1" data-name="レイヤー 1"><path class="cls-1" d="M65.78,164v.24h-3.5v2.16c0,.21-.06.3-.25.34a6.66,6.66,0,0,1-1.22,0,1.17,1.17,0,0,0-.12-.22h.77c.54,0,.58,0,.58-.17v-2.17H58.5V164H62v-.82l.24,0A8,8,0,0,0,63.81,162H60v-.24h4.08l0,0,.21.15a.11.11,0,0,1-.08,0,8.79,8.79,0,0,1-2,1.45V164Zm-6.66-3.25v1.48h-.24v-1.72H62v-1.1l.36,0s0,.07-.12.08v1h3.19v1.72H65.2v-1.48Z"/><path class="cls-1" d="M73.82,160.76v5.32h-.26v-.46H68.26v-.26h5.31V161H68.35v-.26Z"/><path class="cls-1" d="M77,160.35a9.3,9.3,0,0,1,2.41,1.11l-.14.22a9.46,9.46,0,0,0-2.37-1.12Zm.14,5.64a8.81,8.81,0,0,0,5.83-4.75,1.17,1.17,0,0,0,.22.14,9.08,9.08,0,0,1-5.73,4.78.27.27,0,0,1-.1.17Z"/><path class="cls-1" d="M92.06,162.55H89.22l.12,0s-.06.08-.14.09a4.36,4.36,0,0,1-2.52,3.8,1.39,1.39,0,0,0-.18-.2,4.13,4.13,0,0,0,2.45-3.72H85.66v-.26h6.4Zm-.78-2.27H86.37V160h4.91Z"/><path class="cls-1" d="M95.92,162.69a2.3,2.3,0,0,1,1.42-.6c.6,0,.9.43,1,1.1.71-.33,1.62-.7,2.31-1l.17.34h0a.22.22,0,0,1-.12,0c-.62.22-1.56.59-2.28.93a6.07,6.07,0,0,1,0,.71c0,.3,0,.63,0,1h-.29c0-.31,0-.74,0-1.1a4.38,4.38,0,0,0,0-.48c-1.09.53-2,1.15-2,1.76s.63.82,1.88.82a17.84,17.84,0,0,0,2-.08v.27c-.51,0-1.26.06-2,.06-1.54,0-2.15-.38-2.15-1.08s1-1.39,2.25-2c-.06-.69-.36-1-.74-1a2.91,2.91,0,0,0-2,1.21,12.23,12.23,0,0,1-.91.87l-.18-.18a5.82,5.82,0,0,0,2.12-3.2H94.37v-.26h2a11.61,11.61,0,0,0,.25-1.21l.47.08c0,.08-.07.13-.19.14a9.9,9.9,0,0,1-.23,1,11.6,11.6,0,0,0,3-.49l.06.26a11.94,11.94,0,0,1-3.1.48,6.33,6.33,0,0,1-.7,1.64Z"/><path class="cls-1" d="M103.53,162a12.79,12.79,0,0,1,2.22.7l-.1.25a13.17,13.17,0,0,0-2.21-.7Zm.66,4a8.57,8.57,0,0,0,5.51-4.81,1.72,1.72,0,0,0,.22.14,8.74,8.74,0,0,1-5.42,4.83.17.17,0,0,1-.07.18Zm.16-6a12.78,12.78,0,0,1,2.2.78l-.1.24a12.78,12.78,0,0,0-2.18-.78Z"/><path class="cls-1" d="M117.25,160.38a.1.1,0,0,1-.08.06,12.74,12.74,0,0,1-1.67,2.83,29.48,29.48,0,0,1,3.11,2.88l-.22.17a27.84,27.84,0,0,0-3.06-2.85,12.26,12.26,0,0,1-3.25,2.85,1.38,1.38,0,0,0-.18-.2,12.23,12.23,0,0,0,4.93-5.6h-4.15v-.26H117l.06,0Z"/><path class="cls-1" d="M127.3,162.55h-2.84l.12,0s-.06.08-.14.09a4.36,4.36,0,0,1-2.52,3.8,1.39,1.39,0,0,0-.18-.2,4.13,4.13,0,0,0,2.45-3.72h-3.29v-.26h6.4Zm-.78-2.27h-4.91V160h4.91Z"/><path class="cls-1" d="M135.74,166.27c-.11-.24-.26-.53-.45-.84-1.61.16-4.7.32-6,.39a.22.22,0,0,1-.14.15l-.13-.4.86,0c.55-1.58,1.38-4,1.86-5.69l.42.12c0,.07-.1.1-.21.1-.48,1.55-1.22,3.86-1.79,5.46,1.58-.07,3.73-.22,4.95-.33a16.43,16.43,0,0,0-1.66-2.21l.22-.14a15.65,15.65,0,0,1,2.29,3.33Z"/><path class="cls-1" d="M139.49,160c0,.09-.11.13-.28.11a19.85,19.85,0,0,0-.42,3.66,10.56,10.56,0,0,0,.14,1.9l.67-1.75.24.09c-.37,1-.58,1.45-.69,1.78a1.31,1.31,0,0,0-.06.37.7.7,0,0,0,0,.23l-.26.07a8.08,8.08,0,0,1-.34-2.68,21.52,21.52,0,0,1,.46-3.89Zm5.3,5.76-.85,0a10.62,10.62,0,0,1-1.58-.1c-.9-.14-1.36-.65-1.36-1.26a2.42,2.42,0,0,1,.79-1.5l.22.14a2.09,2.09,0,0,0-.74,1.35c0,.46.38.9,1.17,1a9.33,9.33,0,0,0,1.38.09c.31,0,.64,0,1,0ZM141.06,161a24.53,24.53,0,0,0,3.55-.31l0,.26a28.78,28.78,0,0,1-3.57.31Z"/><path class="cls-1" d="M150.59,159.94h.23a7.22,7.22,0,0,0,3.57,6.6,1.09,1.09,0,0,0-.2.18,7.18,7.18,0,0,1-3.49-5.21c-.58,2.44-1.65,4.2-3.52,5.21a2.13,2.13,0,0,0-.19-.18c1.86-1,2.93-2.73,3.49-5.21l.21.06a10.64,10.64,0,0,1-.1-1.22h-2.17v-.24h2.17Z"/><path class="cls-1" d="M163.23,161.27h.11l.14,0v.08c-.14,3.62-.26,4.8-.58,5.15-.18.2-.37.22-.7.22s-.72,0-1.14,0a.51.51,0,0,0-.08-.24c.6,0,1.15.06,1.34.06a.42.42,0,0,0,.36-.11c.27-.28.42-1.49.55-4.88h-3.28a6.28,6.28,0,0,1-3.09,5.27.68.68,0,0,0-.18-.17,6.07,6.07,0,0,0,3-5.1h-2.81v-.24h2.81c0-.24,0-.48,0-.7v-1.15l.36,0s0,.07-.12.08v1c0,.22,0,.46,0,.7Z"/><path class="cls-1" d="M330.88,162a12.79,12.79,0,0,1,2.22.7l-.1.25a13.08,13.08,0,0,0-2.21-.7Zm.66,4a8.57,8.57,0,0,0,5.51-4.81,1.72,1.72,0,0,0,.22.14,8.74,8.74,0,0,1-5.42,4.83.17.17,0,0,1-.07.18Zm.16-6a12.78,12.78,0,0,1,2.2.78l-.1.24a12.78,12.78,0,0,0-2.18-.78Z"/><path class="cls-1" d="M344.6,160.38a.1.1,0,0,1-.08.06,12.74,12.74,0,0,1-1.67,2.83,29.68,29.68,0,0,1,3.11,2.88l-.22.17a27.84,27.84,0,0,0-3.06-2.85,12.26,12.26,0,0,1-3.25,2.85,1.43,1.43,0,0,0-.18-.2,12.22,12.22,0,0,0,4.93-5.6H340v-.26h4.27l.06,0Z"/><path class="cls-1" d="M354.65,162.55h-2.84l.12,0s-.06.08-.14.09a4.36,4.36,0,0,1-2.52,3.8,1.39,1.39,0,0,0-.18-.2,4.13,4.13,0,0,0,2.45-3.72h-3.29v-.26h6.4Zm-.78-2.27H349V160h4.91Z"/><path class="cls-1" d="M363.09,166.27c-.11-.24-.26-.53-.45-.84-1.61.16-4.7.32-6,.39a.22.22,0,0,1-.14.15l-.13-.4.86,0c.55-1.58,1.38-4,1.86-5.69l.42.12c0,.07-.1.1-.21.1-.48,1.55-1.22,3.86-1.79,5.46,1.58-.07,3.73-.22,4.95-.33a16.43,16.43,0,0,0-1.66-2.21l.22-.14a15.7,15.7,0,0,1,2.29,3.33Z"/><path class="cls-1" d="M368.49,159.77c0,.1-.1.14-.26.14-.1.49-.26,1.32-.36,1.81a10.83,10.83,0,0,1,1.11-.09c1.1,0,1.5.72,1.5,1.86a6.12,6.12,0,0,1-.32,1.94,1.36,1.36,0,0,1-1.33,1,2.32,2.32,0,0,1-1.46-.73.93.93,0,0,0,.13-.22c.71.57,1.06.69,1.34.69a1.09,1.09,0,0,0,1.07-.85,6.44,6.44,0,0,0,.31-1.87c0-1-.34-1.62-1.27-1.62a11.4,11.4,0,0,0-1.15.09,13.82,13.82,0,0,1-1.76,4.42l-.24-.11a13,13,0,0,0,1.73-4.28c-.5.06-1.09.12-1.57.19l0-.26,1.66-.19c.13-.58.27-1.34.38-2.07Zm2.05-.23a6.24,6.24,0,0,1,1.16,1.13l-.18.15a6.07,6.07,0,0,0-1.14-1.12Zm2,4.66a5.13,5.13,0,0,0-1.84-2.79l.19-.16a5.23,5.23,0,0,1,1.89,2.85Zm-.81-5a6.24,6.24,0,0,1,1.16,1.13l-.18.15a6.1,6.1,0,0,0-1.14-1.12Z"/><path class="cls-1" d="M379.55,165.89a3.87,3.87,0,0,1-1.65.31,2.75,2.75,0,0,1-2.81-3.08,2.92,2.92,0,0,1,3-3.14,3,3,0,0,1,1.38.26l-.11.23a2.72,2.72,0,0,0-1.25-.27,2.65,2.65,0,0,0-2.76,2.94A2.55,2.55,0,0,0,378,166a3.15,3.15,0,0,0,1.39-.3Z"/><path class="cls-1" d="M387.62,166.11h-.28l-.18-2.94c-.07-1.06-.14-2.1-.14-2.7h0c-.22.63-.46,1.3-.83,2.23l-1.35,3.43h-.18l-1.27-3.34c-.37-1-.62-1.67-.81-2.32h0c0,.7-.06,1.75-.14,2.79l-.2,2.85h-.29l.44-6h.3l1.41,3.7c.29.78.5,1.36.69,1.92h0c.16-.54.38-1.06.7-1.89l1.46-3.73h.32Z"/><path class="cls-1" d="M392.7,161.13l.16.06a.17.17,0,0,1,0,.06,10.17,10.17,0,0,1-.84,3.49,6.25,6.25,0,0,1,1,.89l-.15.2a6.21,6.21,0,0,0-1-.86,4.32,4.32,0,0,1-1.66,1.79,1.08,1.08,0,0,0-.18-.21,4.08,4.08,0,0,0,1.64-1.73,10.25,10.25,0,0,0-1.25-.79l-.11.41-.22-.12c.22-.73.5-1.84.76-2.93h-.93v-.24h1c.14-.62.28-1.23.38-1.74l.36.06s0,.07-.13.07c-.1.47-.23,1-.37,1.62h1.5Zm-1.61.26c-.2.84-.42,1.7-.61,2.42a12.33,12.33,0,0,1,1.29.79,9.46,9.46,0,0,0,.78-3.21Zm6.18,1.63v.24h-2v3.06c0,.25-.07.34-.27.39a7.38,7.38,0,0,1-1.3,0,1.45,1.45,0,0,0-.1-.25l.91,0c.5,0,.53,0,.53-.19v-3.07h-2.14V163H395v-1.45l.22,0a7.77,7.77,0,0,0,1.5-1.53H393.2v-.24h3.7l.06,0,.2.14a.17.17,0,0,1-.08,0,8.91,8.91,0,0,1-1.86,1.85V163Z"/><path class="cls-1" d="M400.29,160.54v1a5,5,0,0,1-.86,3,.5.5,0,0,0-.18-.16,4.68,4.68,0,0,0,.8-2.89V160.3h3.31a7.13,7.13,0,0,1-.11-.9l.39,0c0,.06,0,.08-.13.09,0,.26,0,.54.09.8h3v.24h-2.93a8.05,8.05,0,0,0,.82,2.21,6.63,6.63,0,0,0,.89-1.62l.34.1s-.07.07-.15.07a6.59,6.59,0,0,1-1,1.67c.47.75,1,1.26,1.46,1.25.24,0,.33-.3.38-1.09a.7.7,0,0,0,.22.12c-.06.91-.21,1.21-.6,1.21s-1.12-.51-1.62-1.3A6.13,6.13,0,0,1,403,164.4a.93.93,0,0,0-.18-.16,5.71,5.71,0,0,0,1.47-1.29,8.32,8.32,0,0,1-.9-2.42Zm.38,4.32a2.14,2.14,0,0,1-1.2,1.63l-.18-.14a2,2,0,0,0,1.17-1.54Zm-.06-3.4v-.24h2.59v.24Zm2.33,2.21h-1.85V164h-.24v-1.91H403Zm-.24-1.34h-1.61v1.1h1.61Zm-1,3.84c0,.18.08.22.56.22H404c.39,0,.45-.1.48-.94a.76.76,0,0,0,.24.1c0,.88-.14,1.07-.7,1.07h-1.81c-.65,0-.82-.06-.82-.47v-1.37l.36,0s0,.07-.12.08Zm1.81-.8a5.31,5.31,0,0,0-1.54-1l.16-.17a5,5,0,0,1,1.55,1Zm1.11-6a4,4,0,0,1,1.21.58l-.14.21a4.07,4.07,0,0,0-1.21-.61Zm1.85,7.08a5.67,5.67,0,0,0-1.56-1.57l.18-.14a5.58,5.58,0,0,1,1.57,1.56Z"/><path class="cls-1" d="M416.17,160.52h-6.4v2.17a8.93,8.93,0,0,1-.76,4.11.7.7,0,0,0-.2-.14,8.51,8.51,0,0,0,.72-4v-2.41h3.11v-.88l.36,0s0,.07-.12.08v.77h3.29Zm-1.06,3.53.18.1a.19.19,0,0,1-.06.06,4.22,4.22,0,0,1-1.82,1.61,9.67,9.67,0,0,0,2.82.73.79.79,0,0,0-.14.22,10,10,0,0,1-2.93-.82,10.79,10.79,0,0,1-3.07.81.83.83,0,0,0-.12-.22,10.59,10.59,0,0,0,2.94-.72,4.29,4.29,0,0,1-1.62-1.39l.21-.1a1.73,1.73,0,0,0,3.39,0h-4.62v-.24h4.81Zm-.58-.72h-2.9v-1.41h-1.46v-.24h1.46v-.84l.36,0s0,.07-.12.08v.73h2.42v-.84l.36,0s0,.07-.12.08v.73h1.58v.24h-1.58Zm-.24-1.41h-2.42v1.17h2.42Z"/><path class="cls-1" d="M420.17,162.69a2.3,2.3,0,0,1,1.42-.6c.6,0,.9.43,1,1.1.71-.33,1.62-.7,2.31-1l.17.34h0a.22.22,0,0,1-.12,0c-.62.22-1.56.59-2.28.93a6.07,6.07,0,0,1,0,.71c0,.3,0,.63,0,1h-.29c0-.31,0-.74,0-1.1a4.38,4.38,0,0,0,0-.48c-1.09.53-2,1.15-2,1.76s.63.82,1.88.82a17.84,17.84,0,0,0,2-.08v.27c-.51,0-1.26.06-2,.06-1.54,0-2.15-.38-2.15-1.08s1-1.39,2.25-2c-.06-.69-.36-1-.74-1a2.91,2.91,0,0,0-2,1.21,12.43,12.43,0,0,1-.91.87l-.18-.18a5.82,5.82,0,0,0,2.12-3.2h-1.94v-.26h2a11.61,11.61,0,0,0,.25-1.21l.47.08c0,.08-.07.13-.19.14a9.9,9.9,0,0,1-.23,1,11.55,11.55,0,0,0,3-.49l.06.26a11.94,11.94,0,0,1-3.1.48,6.33,6.33,0,0,1-.7,1.64Z"/><path class="cls-1" d="M434.33,164.22v.24h-.86v1.47h-.24v-.38h-2.45v.76c0,.28-.1.38-.29.42a7.63,7.63,0,0,1-1.29,0,1.35,1.35,0,0,0-.1-.26h.68c.74,0,.76,0,.76-.21v-.77h-2.81v-.24h2.81v-.85h-3.45v-.24h3.45v-.79h-2.73v-.24h2.73v-.69h-2.46v-1.45h2.46v-.64h-3.33v-.24h3.33v-.78l.36,0s0,.07-.12.08v.66h3.41v.24h-3.41v.64h2.58v1.45h-2.58v.69h2.69v1Zm-6-2h2.22v-1h-2.22Zm4.81-1h-2.34v1h2.34Zm-2.34,2.13v.79h2.45v-.79Zm2.45,1.88v-.85h-2.45v.85Z"/><path class="cls-1" d="M436.45,160.82h7.16v.24h-7.16Zm3.09,1.14h.11v4.37c0,.21-.06.3-.22.35a6,6,0,0,1-1.12,0,1.25,1.25,0,0,0-.1-.25h1.06c.12,0,.15,0,.15-.15v-1.44h-2.15v1.89H437V162Zm-.13.24h-2.15v1.1h2.15Zm-2.15,2.46h2.15v-1.12h-2.15Zm.72-5.24a6.68,6.68,0,0,1,1,1.16l-.2.12a6.72,6.72,0,0,0-1-1.18Zm2.78,6V162l.36,0s0,.07-.12.08v3.24Zm.36-4.77a9.06,9.06,0,0,0,.94-1.24l.33.14s-.07.06-.14.06a10.77,10.77,0,0,1-.92,1.15Zm1.84,5.73c0,.24-.07.33-.26.38a7.1,7.1,0,0,1-1.23,0,1.11,1.11,0,0,0-.1-.25H442c.68,0,.7,0,.7-.18v-4.6l.36,0s0,.07-.12.08Z"/><path class="cls-1" d="M452.69,162.44l.18.06a.11.11,0,0,1-.06.06,12.62,12.62,0,0,1-1.85,1.89l-.18-.13a11,11,0,0,0,1.65-1.65h-3s0,.06-.12.08v3.57c0,.23-.07.33-.27.38a7.71,7.71,0,0,1-1.36,0,1.2,1.2,0,0,0-.1-.24h.84c.64,0,.66,0,.66-.18v-3.66h-3.41v-.24h4.66A12.76,12.76,0,0,0,447.5,161l.17-.2a14.27,14.27,0,0,1,1.73.77,10.22,10.22,0,0,0,2-1.42h-5v-.24h5.21a.28.28,0,0,0,.14,0l.22.17a.12.12,0,0,1-.09,0,12.53,12.53,0,0,1-2.23,1.62,7.06,7.06,0,0,1,1,.62l-.1.13h2.15Z"/><path class="cls-1" d="M456.32,162.71a6.16,6.16,0,0,0-1.4-.83l.14-.18a5.31,5.31,0,0,1,1.4.8Zm-1.21,3.77a25.13,25.13,0,0,0,1.21-2.59l.18.14a24.56,24.56,0,0,1-1.13,2.48.15.15,0,0,1,0,.16Zm1.5-5.88a5.68,5.68,0,0,0-1.3-.93l.15-.17a5.63,5.63,0,0,1,1.29.9Zm1.32,4.54a.15.15,0,0,1-.14.06,5.4,5.4,0,0,1-1.23,1.58,1.18,1.18,0,0,0-.18-.17,4.78,4.78,0,0,0,1.21-1.59Zm-.81-5.33h2.28v5h-2.28Zm.24.24v1.33h1.8V160Zm0,1.57v1.33h1.8v-1.33Zm0,1.57v1.35h1.8v-1.35Zm2.28,3.27a9.81,9.81,0,0,0-1-1.3l.19-.11a10,10,0,0,1,1,1.27Zm.58-6.2.36,0s0,.07-.12.08v4.5h-.24Zm1.5-.85.36,0s0,.07-.12.08v6.8c0,.26-.1.34-.27.39a6.61,6.61,0,0,1-1.22,0,1.87,1.87,0,0,0-.1-.24H461c.66,0,.71,0,.71-.2Z"/><line class="cls-2" x1="239.35" y1="61.04" x2="257.53" y2="61.04"/><polyline class="cls-2" points="246.67 38.44 268.4 61.05 246.67 83.65"/><image width="1058" height="645" transform="translate(293.82 4.1) scale(0.19)" xlink:href="26942296_1706521456071547_1041069672_o.png"/><rect class="cls-3" x="285.63" y="0.5" width="221.38" height="137.09"/><rect class="cls-3" x="0.5" y="0.5" width="221.38" height="137.09"/><rect class="cls-1" x="9.5" y="9.5" width="203.38" height="119.09" rx="8.5" ry="8.5"/><path class="cls-4" d="M51.69,38.29v1.25H46.18v2.4c0,1.29-.62,1.47-3.24,1.47a5,5,0,0,0-.55-1.25l1.45,0c.91,0,1,0,1-.28V39.54H39.33V38.29H44.8V37.12l.44,0A12.56,12.56,0,0,0,47,35.86h-5v-1.2h6.37l.22-.07,1,.62a.43.43,0,0,1-.26.17,15.59,15.59,0,0,1-3.11,2.36v.55ZM41,33.4v2.18H39.73V32.16h5V30.49l1.72.11c0,.12-.11.19-.33.22v1.34h5.15v3.42H50V33.4Z"/><path class="cls-4" d="M67.16,32.82v9.47H65.74v-.73H57.39V40.24h8.35V34.13H57.53V32.82Z"/><path class="cls-4" d="M74.35,32a17,17,0,0,1,4.06,1.83L77.7,35a18.82,18.82,0,0,0-4-1.9Zm-.26,9.42c4.75-1.46,8-4.19,9.6-8a9.25,9.25,0,0,0,1.27.8,15.87,15.87,0,0,1-9.66,8.29.44.44,0,0,1-.22.33Z"/><path class="cls-4" d="M101.66,36.62H97.17l.26.07a.29.29,0,0,1-.3.18A7.36,7.36,0,0,1,92.94,43a9.94,9.94,0,0,0-1-.94,6.16,6.16,0,0,0,3.79-5.43H90.55V35.34h11.11Zm-1.38-3.86H91.81V31.48h8.47Z"/><path class="cls-4" d="M118.43,36.77h-.08a.46.46,0,0,1-.23-.07c-1,.32-2.47.81-3.56,1.25,0,.3,0,.65,0,1s0,.79,0,1.24l-1.39.1a14.12,14.12,0,0,0,.06-1.83c-1.3.65-2.32,1.45-2.32,2.12s.85,1,2.58,1a30.59,30.59,0,0,0,3.44-.17v1.28c-.77.08-2,.11-3.47.11-2.65,0-3.9-.61-3.9-2.18,0-1.16,1.52-2.37,3.51-3.39-.07-.62-.34-1-.83-1-1,0-2,.52-3.14,1.85-.36.4-.88.94-1.49,1.5l-1-.94a16,16,0,0,0,1.82-1.79,9.48,9.48,0,0,0,1.52-3h-2.85V32.69c.81,0,1.79,0,2.37,0h.84c.12-.59.23-1.17.33-1.9l1.74.19c0,.14-.15.22-.33.25-.1.5-.21,1-.33,1.41a16.93,16.93,0,0,0,4.45-.79l.23,1.31a21,21,0,0,1-5,.7,7.88,7.88,0,0,1-.83,2h0a3.44,3.44,0,0,1,2.05-.77c.85,0,1.5.61,1.7,1.7,1.12-.5,2.48-1,3.54-1.42Z"/><path class="cls-4" d="M40.32,67.82a20.65,20.65,0,0,1,3.62,1.25l-.59,1.2A22.36,22.36,0,0,0,39.74,69Zm.61,6.59c4.34-1.42,7.43-3.72,9.27-7.83a12.1,12.1,0,0,0,1.2.88,15.26,15.26,0,0,1-9.25,8,.32.32,0,0,1-.18.36Zm1-10a23.64,23.64,0,0,1,3.61,1.35l-.65,1.17a19.69,19.69,0,0,0-3.57-1.42Z"/><path class="cls-4" d="M65.81,65.43a.41.41,0,0,1-.23.19,21.39,21.39,0,0,1-2.66,4.64,52.41,52.41,0,0,1,4.82,4.45l-1.21,1A42.58,42.58,0,0,0,62,71.34a21.82,21.82,0,0,1-5.08,4.42,8.08,8.08,0,0,0-1-1.06,18.85,18.85,0,0,0,7.76-8.49H57.22V64.91h7.23l.25-.08Z"/><path class="cls-4" d="M84,69.62H79.48l.26.07a.29.29,0,0,1-.3.18A7.36,7.36,0,0,1,75.25,76a9.94,9.94,0,0,0-1-.94A6.16,6.16,0,0,0,78,69.62H72.87V68.34H84ZM82.6,65.76H74.12V64.48H82.6Z"/><path class="cls-4" d="M99.16,75.71q-.31-.74-.7-1.49c-2.94.33-7.18.62-9.26.73a.37.37,0,0,1-.28.29l-.48-1.67,1.43,0c.88-2.62,2.11-6.63,2.81-9.33l1.79.47c0,.15-.19.22-.41.23-.7,2.41-1.82,5.91-2.74,8.57,1.93-.08,4.86-.29,6.5-.45a24,24,0,0,0-2.16-3l1.16-.63a27.65,27.65,0,0,1,3.71,5.7Z"/><path class="cls-4" d="M108.67,64.59c0,.15-.17.23-.44.25a33.43,33.43,0,0,0-.72,6.12,15.51,15.51,0,0,0,.12,2.33c.22-.54.79-1.83,1-2.3l.7,1c-.51,1.17-1,1.94-1.16,2.58a2.3,2.3,0,0,0-.11.65,1.76,1.76,0,0,0,.07.47l-1.36.22a15.32,15.32,0,0,1-.62-4.84,43.24,43.24,0,0,1,.68-6.7Zm8.52,10.18c-.48,0-1,0-1.5,0a18.54,18.54,0,0,1-2.49-.14c-1.8-.25-2.59-1.23-2.59-2.37a4.33,4.33,0,0,1,1.24-2.7l1.29.47a3,3,0,0,0-1.1,2.05c0,1.28,1.72,1.36,3.31,1.36a17.1,17.1,0,0,0,1.89-.1Zm-6.34-8.67a46.55,46.55,0,0,0,5.91-.52l.14,1.35a47.76,47.76,0,0,1-6,.5Z"/><path class="cls-4" d="M45,97.34h1.34c0,2.55.33,7.76,5.68,10.93a6.25,6.25,0,0,0-1,1.12A12,12,0,0,1,45.6,102c-1,3.35-2.74,5.91-5.44,7.44a7.59,7.59,0,0,0-1.07-1c2.91-1.49,4.63-4.37,5.46-8.2l.72.17c-.1-.61-.15-1.17-.19-1.7H41.73V97.36H45Z"/><path class="cls-4" d="M67.82,99.51h.63l.76.07c0,.11,0,.3,0,.44-.19,5.91-.39,8-.94,8.65s-.92.7-2.16.7l-1.32,0A3,3,0,0,0,64.3,108c.92.07,1.76.07,2.12.07a.73.73,0,0,0,.61-.21c.41-.43.61-2.33.77-7H63.37a10.16,10.16,0,0,1-5.15,8.67,5.68,5.68,0,0,0-1-1A9.07,9.07,0,0,0,62,100.83H57.63V99.51H62V96.56l1.71.1c0,.11-.1.21-.33.23v2.62Z"/><path class="cls-4" d="M83,96.48h1.2v15.64H83Z"/><line class="cls-5" x1="24.48" y1="52.5" x2="200.26" y2="52.5"/><line class="cls-5" x1="24.48" y1="87.59" x2="200.26" y2="87.59"/></g></g></svg>