<svg xmlns="http://www.w3.org/2000/svg" viewBox="0 0 508.75 374.65"><defs><style>.cls-1{fill:#fff;}</style></defs><title>Asset 1</title><g id="Layer_2" data-name="Layer 2"><g id="レイヤー_1" data-name="レイヤー 1"><path class="cls-1" d="M108.82,108.29h-8v23.1H99.66v-23.1H91.59v-1h17.23Z"/><path class="cls-1" d="M134.81,107.31l-9,24.09h-1l-8-24.09H118l4.47,13.37c1.21,3.61,2.2,6.57,2.9,9.22h.06c.73-2.68,1.85-5.77,3.16-9.22l5-13.37Z"/><path class="cls-1" d="M159.52,130.5a15.45,15.45,0,0,1-6.57,1.24c-5.52,0-11.2-3.48-11.2-12.28,0-7,4.31-12.54,12.09-12.54a12.12,12.12,0,0,1,5.52,1.05l-.45.92a10.86,10.86,0,0,0-5-1.08c-6.83,0-11,4.56-11,11.74,0,6.8,3.92,11.26,10.59,11.26a12.54,12.54,0,0,0,5.55-1.18Z"/><path class="cls-1" d="M192.19,131.4h-1.12l-.73-11.74c-.29-4.21-.57-8.39-.54-10.79h-.1c-.89,2.52-1.85,5.2-3.32,8.9L181,131.46h-.73l-5.07-13.34c-1.47-3.92-2.49-6.67-3.22-9.25h-.1c-.06,2.78-.26,7-.57,11.14l-.8,11.39h-1.15l1.76-24.09h1.18l5.62,14.77c1.15,3.13,2,5.42,2.74,7.66h.06c.64-2.14,1.5-4.21,2.78-7.53l5.81-14.9h1.28Z"/><path class="cls-1" d="M201.74,118.5c5.68-3.48,11.36-9.19,14-14l1.72.13c-.06.22-.29.29-.54.35a48.45,48.45,0,0,0,14.2,13.18,4,4,0,0,0-.64.8c-5.17-3.16-11.13-8.55-14.23-13.3-2.62,4.43-8.17,10.05-13.88,13.59ZM217,122.27V132h13.27v1H202.57v-1h4.72V119.17l1.44.13c0,.16-.16.29-.48.32V132h7.82V113l1.44.13c0,.16-.16.29-.48.32v7.82h10.11v1Z"/><path class="cls-1" d="M240.25,106.92h28.3v1H254.77v4.66h7.47V127H246.38V112.54h7.43v-4.66H240.25Zm26.48,23.9V112.25l1.44.13c0,.16-.16.29-.48.32v21.12h-1v-2h-24.5v2.17h-1v-21.7l1.44.13c0,.16-.16.29-.48.32v18.12Zm-19.4-17.33v5.74h6.48V113.5Zm0,6.7V126h6.48V120.2Zm13.94-1V113.5h-6.51v5.74Zm0,6.76V120.2h-6.51V126Z"/><path class="cls-1" d="M281.39,127.22l9.67-2,.1.86c-3.38.77-6.92,1.53-9.76,2.17V134h-1V128.4l-1.75.38a.45.45,0,0,1-.32.41l-.57-1.24,2.65-.54V107.27l1.15.45a41.37,41.37,0,0,0,8.33-3.09l1.15.83a.45.45,0,0,1-.29.1.61.61,0,0,1-.22,0,55.25,55.25,0,0,1-9.16,3.13v5h8.49v1h-8.49v5.26h8.78v1h-8.78ZM304.72,119l.7.38a.56.56,0,0,1-.25.22,20.87,20.87,0,0,1-5.78,8.84,19.77,19.77,0,0,0,8,4.63,5,5,0,0,0-.64.8,20.88,20.88,0,0,1-8-4.82,26.67,26.67,0,0,1-9,4.88,3.66,3.66,0,0,0-.61-.83,25.2,25.2,0,0,0,8.93-4.72,22,22,0,0,1-4.75-8l.86-.29a20.74,20.74,0,0,0,4.56,7.66,19.83,19.83,0,0,0,5.26-7.75H291.73v-1h12.79Zm-10-12v4a8.94,8.94,0,0,1-3.41,7.59,2.12,2.12,0,0,0-.67-.73,7.79,7.79,0,0,0,3.13-6.86v-4.91h8.81v8.33c0,1.28.1,1.34,1,1.34h1.34c1.47,0,1.47-.16,1.56-3.83a2,2,0,0,0,.83.38c-.1,3.57-.1,4.31-2.26,4.31h-1.53c-1.88,0-1.88-.7-1.88-2.52v-7.05Z"/><path class="cls-1" d="M324.5,106l.19-.06.7.51c0,.1-.16.16-.26.19-.83,2.3-2,5.46-3.16,8.17,2.46,2.78,3.35,5.2,3.35,7.34,0,4.12-2.23,4-4.59,3.89a2.13,2.13,0,0,0-.38-1,12.17,12.17,0,0,0,1.47.1c1.28,0,2.55,0,2.55-3,0-2-.89-4.34-3.48-7.21,1.18-2.74,2.26-5.68,3.06-8H318.4v27h-1V106Zm4.43,10.46c2-.48,4.21-1.05,6.45-1.6l.1.83c-3.29.86-6.73,1.75-8.87,2.3a.54.54,0,0,1-.29.45l-.7-1.21,2.36-.54V104.94l1.44.13c0,.16-.16.29-.48.32v4.12H335v1h-6.06Zm4.53,4.37a32.19,32.19,0,0,0,1.44-3.57l1.34.45c-.06.16-.26.26-.57.26-.29.8-.77,1.91-1.21,2.87h8.84v13h-1v-1.34H329.44v1.47h-1V120.87Zm8.87,5.23v-4.28H329.44v4.28Zm-12.89,5.42h12.89v-4.47H329.44Zm7.91-15.63c0,.73.19.89,1.4.89h4.53c1,0,1.18-.42,1.25-3.38a2.61,2.61,0,0,0,1,.45c-.13,3.13-.45,3.89-2.11,3.89h-4.59c-1.88,0-2.39-.29-2.39-1.85V104.94l1.44.13c0,.16-.16.29-.48.32v5.3a30.06,30.06,0,0,0,6.29-3.29l1.12.8a.29.29,0,0,1-.22.1.71.71,0,0,1-.26,0,37.09,37.09,0,0,1-6.92,3.32Z"/><path class="cls-1" d="M355.05,109.19c2.52-.1,22.27-1.69,26.16-1.56v1.08c-.45,0-.89-.06-1.34-.06a9.58,9.58,0,0,0-5.07,1.4c-5.65,3.25-10.5,8.9-10.5,13.34,0,5,3.06,8.07,11.62,9.32l-.42,1c-9.06-1.44-12.28-4.53-12.28-10.31,0-4.91,5-10.69,11.58-14.55-3.19.19-14,1-19,1.4a1,1,0,0,1-.64.48Zm20.23,5.39a24.87,24.87,0,0,1,4.63,4.5l-.73.61a22.28,22.28,0,0,0-4.53-4.47Zm3.19-2.78a23,23,0,0,1,4.63,4.5l-.73.61a23.22,23.22,0,0,0-4.53-4.47Z"/><path class="cls-1" d="M407.33,109.22a.65.65,0,0,1-.7.48c-1,9.25-4.44,19.53-9.57,19.53-2.14,0-4.5-2.55-4.5-7.27a13.88,13.88,0,0,1,14.17-14c9.35,0,12.86,6.22,12.86,11.93,0,7.66-4.72,11.17-12.22,12.76-.1-.19-.41-.7-.54-1,7.4-1.4,11.74-5,11.74-11.74,0-5.33-3.22-11-11.8-11h-.51Zm-1.66-.29a13,13,0,0,0-12.16,13c0,3.92,1.91,6.22,3.54,6.22C401.43,128.17,404.68,118.57,405.67,108.93Z"/><path class="cls-1" d="M116.55,183.5a15.45,15.45,0,0,1-6.57,1.24c-5.52,0-11.2-3.48-11.2-12.28,0-7,4.31-12.54,12.09-12.54a12.12,12.12,0,0,1,5.52,1.05l-.45.92a10.86,10.86,0,0,0-5-1.08c-6.83,0-11,4.56-11,11.74,0,6.8,3.92,11.26,10.59,11.26a12.55,12.55,0,0,0,5.55-1.18Z"/><path class="cls-1" d="M149.23,184.4h-1.12l-.73-11.74c-.29-4.21-.57-8.39-.54-10.79h-.1c-.89,2.52-1.85,5.2-3.32,8.9L138,184.46h-.73l-5.07-13.34c-1.47-3.92-2.49-6.67-3.22-9.25h-.1c-.06,2.78-.25,7-.57,11.14l-.8,11.39h-1.15l1.75-24.09h1.18l5.62,14.77c1.15,3.13,2,5.42,2.74,7.66h.06c.64-2.14,1.5-4.21,2.78-7.53l5.81-14.9h1.28Z"/><path class="cls-1" d="M169.91,164.52l.64.22a.7.7,0,0,1-.16.25A40.56,40.56,0,0,1,167,178.94a25.13,25.13,0,0,1,4,3.54l-.61.8a24.45,24.45,0,0,0-3.8-3.45A17.24,17.24,0,0,1,160,187a4.14,4.14,0,0,0-.7-.83,16.26,16.26,0,0,0,6.54-6.92,41,41,0,0,0-5-3.16l-.45,1.63-.89-.48c.86-2.9,2-7.34,3-11.68h-3.7v-1h3.93c.57-2.49,1.12-4.91,1.53-7l1.44.22c0,.19-.19.29-.51.29-.41,1.88-.92,4.12-1.47,6.45h6Zm-6.41,1c-.8,3.35-1.66,6.8-2.43,9.64a48.58,48.58,0,0,1,5.17,3.16,37.68,37.68,0,0,0,3.13-12.79ZM188.16,172v1H180v12.22c0,1-.29,1.37-1.08,1.56a29.35,29.35,0,0,1-5.2.16,6.13,6.13,0,0,0-.41-1c1.44,0,2.71.06,3.64.06,2,0,2.11,0,2.11-.77V173h-8.55v-1H179v-5.78l.89.1a31,31,0,0,0,6-6.09h-14v-1h14.77l.22-.06.8.54a.67.67,0,0,1-.32.19,35.39,35.39,0,0,1-7.4,7.4V172Z"/><path class="cls-1" d="M200.62,162.16V166c0,3.57-.54,8.52-3.41,12.16a2,2,0,0,0-.73-.64c2.74-3.51,3.19-8.14,3.19-11.52V161.2h13.21a28,28,0,0,1-.45-3.61l1.56.06c0,.22-.19.32-.51.35.06,1.05.19,2.14.35,3.19h11.9v1H214a32.07,32.07,0,0,0,3.29,8.81,26.43,26.43,0,0,0,3.54-6.48l1.37.41c-.06.19-.29.29-.61.29a26.36,26.36,0,0,1-3.8,6.67c1.88,3,4,5,5.84,5,1,0,1.31-1.18,1.5-4.34a2.68,2.68,0,0,0,.89.48c-.26,3.64-.83,4.85-2.39,4.85-2.14,0-4.47-2-6.45-5.2a24.37,24.37,0,0,1-5.68,4.95,3.63,3.63,0,0,0-.73-.64,22.73,22.73,0,0,0,5.87-5.14,33.24,33.24,0,0,1-3.61-9.64Zm1.53,17.23c-.67,2.78-1.88,5.26-4.79,6.51l-.73-.57a8.1,8.1,0,0,0,4.66-6.16Zm-.22-13.56v-1h10.34v1Zm9.32,8.81h-7.37v1.31h-1v-7.63h8.33Zm-1-5.36h-6.41v4.4h6.41Zm-4.15,15.32c0,.73.32.89,2.23.89h7.24c1.56,0,1.79-.42,1.91-3.73a3.13,3.13,0,0,0,1,.42c-.16,3.51-.57,4.28-2.81,4.28h-7.21c-2.58,0-3.29-.26-3.29-1.88V179.1l1.44.13c0,.16-.16.29-.48.32Zm7.21-3.19a21,21,0,0,0-6.16-3.89l.64-.67a19.87,19.87,0,0,1,6.19,3.8Zm4.44-23.87a15.78,15.78,0,0,1,4.82,2.33l-.57.83a16.19,16.19,0,0,0-4.82-2.43Zm7.4,28.27a22.6,22.6,0,0,0-6.22-6.25l.73-.54a22.27,22.27,0,0,1,6.25,6.22Z"/><path class="cls-1" d="M264.49,162.09H238.94v8.65c0,4.82-.35,11.58-3,16.4a2.82,2.82,0,0,0-.8-.58c2.62-4.69,2.87-11.13,2.87-15.83v-9.6h12.41v-3.51l1.44.13c0,.16-.16.29-.48.32v3.06h13.15Zm-4.21,14.07.7.42a.81.81,0,0,1-.26.22,16.84,16.84,0,0,1-7.28,6.41,38.63,38.63,0,0,0,11.26,2.9,3.13,3.13,0,0,0-.57.86,40,40,0,0,1-11.71-3.29,43.08,43.08,0,0,1-12.25,3.22,3.26,3.26,0,0,0-.48-.86,42.22,42.22,0,0,0,11.74-2.87,17.09,17.09,0,0,1-6.48-5.55l.83-.38a16.32,16.32,0,0,0,6.64,5.49,16.29,16.29,0,0,0,6.89-5.55H240.88v-1h19.18ZM258,173.29H246.37v-5.62h-5.81v-1h5.81v-3.35l1.44.13c0,.16-.16.29-.48.32v2.9H257v-3.35l1.44.13c0,.16-.16.29-.48.32v2.9h6.32v1H258Zm-1-5.62h-9.67v4.66H257Z"/><path class="cls-1" d="M302.84,176.83v1h-3.41v5.87h-1v-1.53h-9.76v3c0,1.12-.38,1.5-1.15,1.69a30.87,30.87,0,0,1-5.14.19A5.52,5.52,0,0,0,282,186c1,0,1.95,0,2.71,0,3,0,3,0,3-.83v-3.06H276.52v-1h11.23v-3.38H274v-1h13.78v-3.16H276.87v-1h10.88V170h-9.83V164.2h9.83v-2.55h-13.3v-1h13.3v-3.1l1.44.13c0,.19-.16.29-.48.32v2.65H302.3v1H288.71v2.55H299V170h-10.3v2.74h10.72v4.12Zm-24-7.82h8.87v-3.86h-8.87Zm19.18-3.86h-9.35V169h9.35Zm-9.35,8.52v3.16h9.76v-3.16Zm9.76,7.5v-3.38h-9.76v3.38Z"/><path class="cls-1" d="M311.71,163.27h28.59v1H311.71Zm12.35,4.53v0h.45v17.42c0,.83-.22,1.21-.89,1.4a23.74,23.74,0,0,1-4.47.19,4.91,4.91,0,0,0-.41-1c.86,0,1.66,0,2.33,0,.92,0,1.59,0,1.88,0,.48,0,.61-.16.61-.61v-5.74H315V187h-1V167.8Zm-.51,1H315v4.37h8.58ZM315,178.56h8.58v-4.47H315Zm2.87-20.9a26.72,26.72,0,0,1,4,4.63l-.8.48a26.86,26.86,0,0,0-4-4.69Zm11.1,23.8V168.09l1.44.13c0,.16-.16.29-.48.32v12.92Zm1.44-19a36.47,36.47,0,0,0,3.73-4.95l1.31.54c-.1.16-.29.22-.57.22a42.8,42.8,0,0,1-3.67,4.59Zm7.34,22.88c0,1-.29,1.31-1,1.5a28.24,28.24,0,0,1-4.91.19,4.37,4.37,0,0,0-.42-1c1,0,1.88,0,2.62,0,2.71,0,2.78,0,2.78-.7V167l1.44.13c0,.16-.16.29-.48.32Z"/><path class="cls-1" d="M376.84,169.75l.7.26a.44.44,0,0,1-.22.25,50.54,50.54,0,0,1-7.4,7.56l-.73-.51a44.07,44.07,0,0,0,6.57-6.57H363.5v0h.35c0,.16-.16.25-.48.32v14.26c0,.92-.29,1.31-1.09,1.5s-1.5.16-5.42.16a4.7,4.7,0,0,0-.41-1c1.31,0,2.46,0,3.35,0,2.55,0,2.62,0,2.62-.73V170.74H348.79v-1h18.6a50.9,50.9,0,0,0-11.26-5.84l.67-.8a57,57,0,0,1,6.89,3.06,40.84,40.84,0,0,0,8.11-5.65h-20v-1h20.77a1.09,1.09,0,0,0,.54-.1l.89.67a.45.45,0,0,1-.35.16,49.75,49.75,0,0,1-8.9,6.45,28.19,28.19,0,0,1,3.92,2.49l-.38.51h8.36Z"/><path class="cls-1" d="M391.72,170.83a24.6,24.6,0,0,0-5.58-3.32l.54-.7a21.23,21.23,0,0,1,5.58,3.19Zm-4.82,15a100.29,100.29,0,0,0,4.82-10.34l.73.57A98.5,98.5,0,0,1,388,186a.68.68,0,0,1,.13.38.77.77,0,0,1-.06.26Zm6-23.48a22.73,22.73,0,0,0-5.17-3.7l.61-.67a22.49,22.49,0,0,1,5.17,3.57Zm5.26,18.12a.59.59,0,0,1-.57.25,21.49,21.49,0,0,1-4.91,6.29,4.9,4.9,0,0,0-.73-.67,19.1,19.1,0,0,0,4.82-6.35Zm-3.22-21.28H404V179h-9.09Zm1,1v5.3H403v-5.3Zm0,6.25v5.3H403v-5.3Zm0,6.25v5.39H403v-5.39Zm9.09,13a39.14,39.14,0,0,0-4-5.2l.77-.45a40.11,40.11,0,0,1,4,5.07ZM407.29,161l1.44.13c0,.16-.16.29-.48.32v18h-1Zm6-3.38,1.44.13c0,.19-.16.29-.48.32v27.15c0,1-.38,1.37-1.08,1.56a26.31,26.31,0,0,1-4.85.19,8.13,8.13,0,0,0-.41-1c1,0,1.82,0,2.55,0,2.65,0,2.84,0,2.84-.8Z"/><path class="cls-1" d="M8.1,250.53H4.32v10.86H3.79V250.53H0v-.47H8.1Z"/><path class="cls-1" d="M22.49,250.06l-4.25,11.33h-.48L14,250.06h.58l2.1,6.29c.57,1.7,1,3.09,1.37,4.33h0c.34-1.26.87-2.71,1.48-4.33l2.36-6.29Z"/><path class="cls-1" d="M36.3,261a7.26,7.26,0,0,1-3.09.58c-2.6,0-5.27-1.63-5.27-5.78,0-3.28,2-5.89,5.69-5.89a5.7,5.7,0,0,1,2.59.5l-.21.43a5.11,5.11,0,0,0-2.34-.51c-3.21,0-5.17,2.15-5.17,5.52,0,3.2,1.84,5.29,5,5.29a5.9,5.9,0,0,0,2.61-.55Z"/><path class="cls-1" d="M53.85,261.39h-.52L53,255.87c-.13-2-.27-3.95-.25-5.07h0c-.42,1.18-.87,2.45-1.56,4.18l-2.54,6.43h-.34l-2.38-6.27c-.69-1.84-1.17-3.13-1.52-4.35h0c0,1.3-.12,3.29-.27,5.23l-.37,5.36h-.54l.83-11.33h.55L47.13,257c.54,1.47.95,2.55,1.29,3.6h0c.3-1,.71-2,1.3-3.54l2.73-7h.6Z"/><path class="cls-1" d="M60.54,255.33a19.84,19.84,0,0,0,6.57-6.6l.81.06c0,.1-.13.13-.25.17a22.76,22.76,0,0,0,6.67,6.19,1.84,1.84,0,0,0-.3.38,23.24,23.24,0,0,1-6.69-6.25,21.25,21.25,0,0,1-6.52,6.39Zm7.18,1.77v4.58H74v.45h-13v-.45h2.22v-6l.67.06c0,.07-.08.13-.23.15v5.82h3.67v-8.91l.68.06c0,.07-.08.13-.23.15v3.67h4.75v.45Z"/><path class="cls-1" d="M80.84,249.88h13.3v.45H87.67v2.19h3.51v6.78H83.72v-6.78h3.5v-2.19H80.84Zm12.45,11.23v-8.73l.68.06c0,.07-.08.13-.23.15v9.93h-.45v-1H81.77v1h-.45v-10.2l.67.06c0,.07-.08.13-.23.15v8.52ZM84.17,253v2.7h3V253Zm0,3.15v2.73h3v-2.73Zm6.55-.45V253H87.67v2.7Zm0,3.18v-2.73H87.67v2.73Z"/><path class="cls-1" d="M107.92,251a.31.31,0,0,1-.33.22c-.48,4.35-2.08,9.18-4.5,9.18-1,0-2.11-1.2-2.11-3.42a6.53,6.53,0,0,1,6.66-6.6c4.39,0,6,2.92,6,5.61,0,3.6-2.22,5.25-5.75,6,0-.09-.19-.33-.25-.45,3.48-.66,5.52-2.36,5.52-5.52,0-2.5-1.51-5.17-5.55-5.17h-.24Zm-.78-.13a6.09,6.09,0,0,0-5.71,6.12c0,1.85.9,2.92,1.67,2.92C105.14,259.87,106.67,255.36,107.13,250.83Z"/><path class="cls-1" d="M134.26,257.34v.45h-6.57v4c0,.39-.12.55-.46.64a12.5,12.5,0,0,1-2.29.09,2.32,2.32,0,0,0-.23-.42h1.44c1,0,1.09,0,1.09-.31v-4.06h-6.63v-.45h6.63v-1.53l.45,0a15,15,0,0,0,2.88-2.14h-7.18v-.45H131l.09,0,.39.29a.21.21,0,0,1-.15.08,16.61,16.61,0,0,1-3.67,2.71v1Zm-12.49-6.09V254h-.45V250.8h5.87v-2.07l.67.06c0,.08-.08.13-.23.15v1.86h6V254h-.45v-2.77Z"/><path class="cls-1" d="M151.69,251.35v10h-.48v-.85h-10V260h10v-8.16h-9.78v-.48Z"/><path class="cls-1" d="M159.91,250.57a17.42,17.42,0,0,1,4.51,2.08l-.27.4a17.81,17.81,0,0,0-4.46-2.1Zm.25,10.57c5.49-1.72,9.09-4.74,10.93-8.91a2.15,2.15,0,0,0,.42.25c-1.87,4.12-5.59,7.32-10.75,9a.51.51,0,0,1-.18.31Z"/><path class="cls-1" d="M190.54,254.69h-5.32l.22.06c0,.09-.12.15-.27.17-.39,3-1.46,5.56-4.72,7.13a2.5,2.5,0,0,0-.35-.37c3.23-1.5,4.2-3.86,4.59-7h-6.16v-.48h12Zm-1.45-4.26h-9.21V250h9.21Z"/><path class="cls-1" d="M202.72,249.49c0,.18-.2.25-.5.25-.18.92-.48,2.47-.67,3.39a20.59,20.59,0,0,1,2.08-.17c2.07,0,2.82,1.35,2.82,3.5a11.44,11.44,0,0,1-.6,3.64,2.56,2.56,0,0,1-2.49,2c-.63,0-1.39-.24-2.74-1.37a1.84,1.84,0,0,0,.24-.4c1.33,1.06,2,1.29,2.52,1.29a2,2,0,0,0,2-1.59,12.09,12.09,0,0,0,.58-3.51c0-1.83-.63-3-2.38-3a21.62,21.62,0,0,0-2.16.17,25.93,25.93,0,0,1-3.3,8.29l-.45-.21a24.32,24.32,0,0,0,3.25-8c-.93.11-2,.22-2.94.36l-.06-.48c.79-.1,2-.24,3.12-.36.24-1.1.51-2.52.71-3.89Zm7.75,7.09a9.15,9.15,0,0,0-3.66-5.25l.34-.34a9.52,9.52,0,0,1,3.78,5.4Z"/><path class="cls-1" d="M220.12,251.88a.47.47,0,0,1-.41.27,23.46,23.46,0,0,1-.6,4.94h0a10.68,10.68,0,0,1,6-2.06c2.33,0,3.64,1.11,3.64,3.06,0,2.79-2.43,3.9-8.08,4.14a4.25,4.25,0,0,0-.15-.46c5.37-.25,7.74-1.19,7.74-3.63,0-1.68-1.17-2.62-3.18-2.62-3.1,0-5.94,2-6.17,2.49l-.51-.3c.29-.33.79-2.85.83-5.92Zm.64-2.75a24.43,24.43,0,0,1,5.83,1.42l-.2.46a24.23,24.23,0,0,0-5.79-1.42Z"/><path class="cls-1" d="M237.34,258.76a31.42,31.42,0,0,1,3.5,3.4l-.43.42a31.21,31.21,0,0,0-3.44-3.47Z"/><path class="cls-1" d="M252.51,250c1.2,0,5.88-.18,7.06-.66l.31.42a3.61,3.61,0,0,0-.79.65,53.18,53.18,0,0,1-6,4.63,57,57,0,0,1,10-1.14v.54c-.32,0-.63,0-1,0a8.58,8.58,0,0,0-1.91.18c-1.33.34-5,2.38-5,4.79a1.75,1.75,0,0,0,.83,1.56,10.4,10.4,0,0,0,4,.92l-.15.5c-3.69-.37-5.15-1.12-5.15-2.94,0-2.62,3.44-4.44,4.17-4.78a55.7,55.7,0,0,0-8.41,1.53l-.13-.48a6.62,6.62,0,0,0,1.93-.66,57.76,57.76,0,0,0,6.49-5c-1.06.18-3.36.34-4.26.39l-1.63.08a.32.32,0,0,1-.27.15Z"/><path class="cls-1" d="M277,251a.31.31,0,0,1-.33.22c-.48,4.35-2.08,9.18-4.5,9.18-1,0-2.11-1.2-2.11-3.42a6.53,6.53,0,0,1,6.66-6.6c4.39,0,6,2.92,6,5.61,0,3.6-2.22,5.25-5.75,6,0-.09-.19-.33-.25-.45,3.48-.66,5.52-2.36,5.52-5.52,0-2.5-1.51-5.17-5.55-5.17h-.24Zm-.78-.13a6.09,6.09,0,0,0-5.71,6.12c0,1.85.9,2.92,1.67,2.92C274.21,259.87,275.74,255.36,276.21,250.83Z"/><path class="cls-1" d="M298.06,261a7.26,7.26,0,0,1-3.09.58c-2.6,0-5.27-1.63-5.27-5.78,0-3.28,2-5.89,5.69-5.89a5.7,5.7,0,0,1,2.59.5l-.21.43a5.11,5.11,0,0,0-2.34-.51c-3.21,0-5.17,2.15-5.17,5.52,0,3.2,1.84,5.29,5,5.29a5.9,5.9,0,0,0,2.61-.55Z"/><path class="cls-1" d="M315.61,261.39h-.52l-.35-5.52c-.13-2-.27-3.95-.25-5.07h0c-.42,1.18-.87,2.45-1.56,4.18l-2.54,6.43H310l-2.38-6.27c-.69-1.84-1.17-3.13-1.52-4.35h0c0,1.3-.12,3.29-.27,5.23l-.37,5.36h-.54l.83-11.33h.55l2.64,6.95c.54,1.47.95,2.55,1.29,3.6h0c.3-1,.71-2,1.3-3.54l2.73-7h.6Z"/><path class="cls-1" d="M327.67,249.49c0,.18-.2.25-.5.25-.18.92-.48,2.47-.67,3.39a20.59,20.59,0,0,1,2.08-.17c2.07,0,2.82,1.35,2.82,3.5a11.44,11.44,0,0,1-.6,3.64,2.56,2.56,0,0,1-2.49,2c-.63,0-1.39-.24-2.74-1.37a1.84,1.84,0,0,0,.24-.4c1.33,1.06,2,1.29,2.52,1.29a2,2,0,0,0,2-1.59,12.09,12.09,0,0,0,.58-3.51c0-1.83-.63-3-2.38-3a21.62,21.62,0,0,0-2.16.17,25.93,25.93,0,0,1-3.3,8.29l-.45-.21a24.32,24.32,0,0,0,3.25-8c-.93.11-2,.22-2.94.36l-.06-.48c.79-.1,2-.24,3.12-.36.24-1.1.51-2.52.71-3.89Zm3.85-.44a11.68,11.68,0,0,1,2.17,2.12l-.34.29a11.37,11.37,0,0,0-2.14-2.1Zm3.74,8.75a9.63,9.63,0,0,0-3.45-5.24l.36-.3a9.81,9.81,0,0,1,3.55,5.34Zm-1.52-9.33a11.65,11.65,0,0,1,2.17,2.12l-.34.29a11.37,11.37,0,0,0-2.14-2.1Z"/><path class="cls-1" d="M342.92,249a9,9,0,0,1,1.64,2.1,12.88,12.88,0,0,0,1.54-2.25l.55.3a.23.23,0,0,1-.24.08,13.67,13.67,0,0,1-1.65,2.26,12.15,12.15,0,0,1,1,5.52c0,2.31-.15,4.49-.67,5.19-.26.35-.59.42-1.55.42-.22,0-.46,0-.69,0a1.11,1.11,0,0,0-.18-.46l.92,0c.58,0,1,0,1.14-.25.43-.56.58-2.81.58-4.91,0-.62,0-1.21-.06-1.81a12.21,12.21,0,0,1-2.74,3.57,1.57,1.57,0,0,0-.33-.39,10.52,10.52,0,0,0,3-4,9.39,9.39,0,0,0-.72-2.57,19.49,19.49,0,0,1-1.89,1.82,2.72,2.72,0,0,0-.33-.25,17.68,17.68,0,0,0,2-2,8.52,8.52,0,0,0-1.67-2.21Zm4.79,8.66v-4.25a9.76,9.76,0,0,1-1.33,1.53,2.13,2.13,0,0,0-.34-.29,10.7,10.7,0,0,0,2.5-3.6l.63.21c0,.09-.12.12-.27.12-.17.36-.36.72-.57,1.08h2.76a12.06,12.06,0,0,0,.67-1.3l.63.21c0,.08-.12.12-.25.12a8.86,8.86,0,0,1-.57,1h4.16v.45h-4V254h3.46v.45h-3.46v1.14h3.46V256h-3.46v1.17h4.42v.45Zm6.94.9.36.24a.25.25,0,0,1-.15.09,7.66,7.66,0,0,1-3.12,2.33,17.54,17.54,0,0,0,4.56,1,1.62,1.62,0,0,0-.29.4,17.46,17.46,0,0,1-4.8-1.21,22.3,22.3,0,0,1-4.84,1.23,1.85,1.85,0,0,0-.29-.42,22.06,22.06,0,0,0,4.59-1.05,6.86,6.86,0,0,1-2.52-2l.34-.15H347v-.45h7.5ZM346.49,250h2.71v-1.25l.67.06c0,.08-.08.14-.22.15v1h3.06v-1.25l.67.06c0,.08-.08.14-.22.15v1h3v.45h-3v1.14h-.45v-1.14h-3.06v1.14h-.45v-1.14h-2.71Zm4.79,3.93v-1.08h-3.12V254Zm0,1.59v-1.14h-3.12v1.14Zm0,1.62V256h-3.12v1.17Zm-2.7,1.83a6.52,6.52,0,0,0,2.63,1.95,7.76,7.76,0,0,0,2.92-1.95Z"/><path class="cls-1" d="M365.05,254.94a20.32,20.32,0,0,1-2,2.25,2.32,2.32,0,0,0-.34-.31,20.25,20.25,0,0,0,3.76-4.79l.62.24c0,.09-.14.12-.29.12q-.56.94-1.26,1.89l.22.08a.27.27,0,0,1-.24.13v8h-.45Zm1.69-5.89c0,.11-.18.12-.27.11a23.85,23.85,0,0,1-3.42,3.27,1.58,1.58,0,0,0-.32-.32,17.71,17.71,0,0,0,3.39-3.3Zm9.88,8.68v.45h-2.49v3.71c0,.39-.1.55-.45.64a12.8,12.8,0,0,1-2.28.09,2.3,2.3,0,0,0-.2-.45l1.4,0c1.06,0,1.08,0,1.08-.3v-3.71H367v-.45h6.72V256h-6.41v-.45h9.12V256h-2c0,.06-.09.11-.23.13v1.62Zm-1.35-8.43v4.77h-7V249.3Zm-4.65,12a13.63,13.63,0,0,0-2-2.33l.36-.22a13,13,0,0,1,2,2.26Zm4.2-9.87v-1.69h-6.08v1.69Zm0,2.18v-1.73h-6.08v1.73Z"/><path class="cls-1" d="M382.84,251.67c1.23,0,5.5-.17,7.35-.24,0-.25-.09-2.47-.09-2.5l.9,0c0,.13-.1.25-.39.3,0,.48,0,1.37.06,2.16,1.76-.06,3.66-.11,5-.12v.51c-1.41,0-3.25,0-5,.09,0,1.28,0,2,.12,3.36a5.22,5.22,0,0,1,.17,1.56c0,1.42-.12,3.95-4.42,5.71l-.32-.41c2.76-1,4-2.58,4.26-4.35h0a2.34,2.34,0,0,1-2.05,1.14,2.46,2.46,0,0,1-2.42-2.55,2.7,2.7,0,0,1,2.58-2.73,2.36,2.36,0,0,1,1.69.63c0-.09,0-.17,0-.22,0-.33,0-1.21-.06-2.13-2.07.06-5.77.18-7.35.25Zm7.59,4.77c0-1-.2-2.31-1.8-2.31a2.13,2.13,0,0,0-2.13,2.25,2,2,0,1,0,3.93.06Z"/><path class="cls-1" d="M405.33,255.6a10,10,0,0,1,4.32-1.08c2.46,0,3.9,1.38,3.9,3.5,0,2.73-2.41,4.2-5.23,4.2-2,0-3.29-.71-3.29-1.91a2.11,2.11,0,0,1,2.34-1.86,3.28,3.28,0,0,1,3.06,3,3.53,3.53,0,0,0,2.64-3.37c0-1.86-1.29-3-3.43-3a9.29,9.29,0,0,0-5.78,2.06c-.5.48-1.06,1.12-1.48,1.62l-.36-.36c1.53-1.67,6.18-6.12,8.23-8.05-1,.13-4.24.24-6.31.3a.41.41,0,0,1-.27.22l-.11-.71c2.12,0,5.75-.15,6.9-.31l.21-.11.53.57a.76.76,0,0,1-.32.13c-1.26,1.07-4.42,4.11-5.55,5.24Zm3,6.15a6.72,6.72,0,0,0,1.67-.21,2.85,2.85,0,0,0-2.62-2.64c-1,0-1.85.53-1.85,1.4C405.49,261.39,407,261.74,408.3,261.74Z"/><path class="cls-1" d="M419.75,250.95c1.19,0,10.47-.79,12.3-.74v.51l-.63,0a4.5,4.5,0,0,0-2.38.66c-2.66,1.53-4.94,4.19-4.94,6.27,0,2.37,1.44,3.79,5.46,4.38l-.19.47c-4.26-.68-5.78-2.13-5.78-4.84,0-2.31,2.36-5,5.45-6.84-1.5.09-6.58.45-8.92.66a.45.45,0,0,1-.3.23Zm9.51,2.53a11.71,11.71,0,0,1,2.17,2.12l-.34.29a10.46,10.46,0,0,0-2.13-2.1Zm1.5-1.3a10.82,10.82,0,0,1,2.17,2.12l-.34.29a10.91,10.91,0,0,0-2.13-2.1Z"/><path class="cls-1" d="M447.5,253.62c0,.21-.1.42-.17.63,2.31.27,3.86,1.48,3.95,3.81v.09c0,2.38-2.22,3.74-5.89,4.11a3.42,3.42,0,0,0-.15-.47c3.39-.31,5.55-1.53,5.55-3.6s-1.47-3.25-3.6-3.5a12.19,12.19,0,0,1-3.08,4.75,3.79,3.79,0,0,0,.5,1l-.42.25a4.15,4.15,0,0,1-.46-.93,5.06,5.06,0,0,1-3.12,1.44c-1,0-1.56-.76-1.56-1.87,0-2,1.81-3.71,4-4.56,0-.45,0-.92,0-1.39s0-1,0-1.5c-1.47,0-2.73,0-3.56-.06v-.48c.83.06,2.18.07,3.57.07,0-.72,0-1.62.08-2.38l.92.06a.42.42,0,0,1-.39.3c0,.63-.07,1.41-.1,2a34.72,34.72,0,0,0,6.48-.63l.09.48a33,33,0,0,1-6.58.61c0,1,0,1.89,0,2.75a7.94,7.94,0,0,1,2.64-.45c.22,0,.45,0,.64,0a6.18,6.18,0,0,0,.17-.72Zm-3.94,5.71a18.17,18.17,0,0,1-.5-4c-2,.81-3.55,2.31-3.55,4.06,0,.75.36,1.42,1.18,1.4A5.06,5.06,0,0,0,443.55,259.33Zm3.1-4.67a7.77,7.77,0,0,0-3.15.46A17.29,17.29,0,0,0,444,259,11.27,11.27,0,0,0,446.66,254.67Z"/><path class="cls-1" d="M461.71,255.9a9.21,9.21,0,0,1,4.46-1.3c2.38,0,4,1.16,4,3.43,0,2.76-2.82,3.79-7.54,4a2,2,0,0,0-.17-.48c4.47-.22,7.23-1.08,7.23-3.52,0-2.05-1.38-3-3.54-3a10.11,10.11,0,0,0-5.82,2.31,12.32,12.32,0,0,0-1.09,1.26l-.36-.36c1.47-1.69,6.2-6.46,7.81-8.07-.66.08-4.21.25-6,.34a.44.44,0,0,1-.27.21l-.12-.69c1.7,0,6.29-.29,6.67-.41l.22-.12.56.65a.72.72,0,0,1-.44.12c-1.59,1.42-4.62,4.57-5.59,5.58Z"/><path class="cls-1" d="M477.85,254.4a32.77,32.77,0,0,1,6.09-1.23c2.37,0,3.41,1.32,3.41,3.29v.16c-.06,2.6-2.19,4.65-6.6,5.75a2.16,2.16,0,0,0-.27-.42c3.72-.88,6.38-2.68,6.38-5.47,0-1.61-.73-2.82-2.91-2.82a25,25,0,0,0-5.58,1.16.47.47,0,0,1-.27.33Zm1.86-5.26a29.23,29.23,0,0,1,6.08,1.3l-.17.47a28.61,28.61,0,0,0-6-1.29Z"/><path class="cls-1" d="M500.1,252l.3.1a.33.33,0,0,1-.08.12,19.08,19.08,0,0,1-1.58,6.55,11.86,11.86,0,0,1,1.86,1.67l-.29.38a11.54,11.54,0,0,0-1.79-1.62,8.11,8.11,0,0,1-3.12,3.36,1.93,1.93,0,0,0-.33-.39,7.64,7.64,0,0,0,3.08-3.25,19.23,19.23,0,0,0-2.34-1.49l-.21.76-.42-.22c.41-1.37.95-3.45,1.42-5.49h-1.74v-.45h1.85c.27-1.17.52-2.31.72-3.27l.67.11c0,.09-.09.13-.24.13-.19.88-.43,1.93-.69,3H500Zm-3,.48c-.37,1.58-.78,3.2-1.14,4.53a23.13,23.13,0,0,1,2.43,1.48,17.71,17.71,0,0,0,1.47-6Zm11.59,3.06V256h-3.84v5.75c0,.46-.13.65-.51.74a13.82,13.82,0,0,1-2.45.08,2.93,2.93,0,0,0-.19-.47l1.71,0c.93,0,1,0,1-.36V256h-4v-.45h4v-2.71l.42,0a14.57,14.57,0,0,0,2.82-2.87H501v-.45H508l.11,0,.38.25a.32.32,0,0,1-.15.09,16.62,16.62,0,0,1-3.48,3.48v2.19Z"/><path class="cls-1" d="M2.71,278.93v1.82a9.32,9.32,0,0,1-1.6,5.71,1,1,0,0,0-.34-.3,8.79,8.79,0,0,0,1.5-5.41v-2.27H8.47a13.18,13.18,0,0,1-.21-1.69l.74,0c0,.1-.09.15-.24.17,0,.49.09,1,.17,1.5h5.59v.45H9a15.09,15.09,0,0,0,1.54,4.14,12.43,12.43,0,0,0,1.67-3l.65.19c0,.09-.14.13-.29.13a12.41,12.41,0,0,1-1.79,3.14c.88,1.41,1.89,2.35,2.75,2.34.45,0,.62-.56.71-2a1.27,1.27,0,0,0,.42.22c-.12,1.71-.39,2.28-1.12,2.28-1,0-2.1-1-3-2.45a11.46,11.46,0,0,1-2.67,2.33,1.69,1.69,0,0,0-.34-.3,10.7,10.7,0,0,0,2.76-2.42,15.63,15.63,0,0,1-1.7-4.53Zm.72,8.1a4,4,0,0,1-2.25,3.06l-.35-.27A3.81,3.81,0,0,0,3,286.93Zm-.11-6.37v-.45H8.19v.45Zm4.38,4.14H4.25v.62H3.79v-3.58H7.71Zm-.45-2.52h-3v2.07h3Zm-2,7.2c0,.34.15.42,1.05.42h3.4c.74,0,.84-.2.9-1.75a1.47,1.47,0,0,0,.45.2c-.08,1.65-.27,2-1.32,2H6.41c-1.21,0-1.54-.12-1.54-.88V286.9l.67.06c0,.07-.08.13-.23.15ZM8.7,288a9.91,9.91,0,0,0-2.9-1.83l.3-.31A9.36,9.36,0,0,1,9,287.61Zm2.08-11.22A7.44,7.44,0,0,1,13,277.85l-.27.39a7.61,7.61,0,0,0-2.26-1.14ZM14.26,290a10.65,10.65,0,0,0-2.92-2.94l.34-.25a10.47,10.47,0,0,1,2.94,2.92Z"/><path class="cls-1" d="M34.83,285.67H31.68a6,6,0,0,1-2.54,2.94,36.63,36.63,0,0,1,5.29,1.61l-.3.39a37.71,37.71,0,0,0-5.55-1.7,18.46,18.46,0,0,1-7.18,1.63,1.37,1.37,0,0,0-.21-.45,19.92,19.92,0,0,0,6.71-1.33c-1.28-.29-2.62-.54-4-.77q-.23.31-.45.58l-.41-.21c.58-.72,1.32-1.71,2-2.7h-4v-.45h4.32c.44-.62.84-1.2,1.19-1.72l.63.21c0,.07-.14.1-.29.09l-1,1.42h8.91Zm-8.94-5.9V278H21.19v-.45H34.71V278H29.94v1.74h3.62v3.62H22.38v-3.62Zm-3.06.45v2.71h3.06v-2.71Zm2.78,5.45c-.48.67-1,1.35-1.44,2,1.49.22,3,.51,4.33.82a6,6,0,0,0,2.67-2.79Zm3.88-5.9V278H26.34v1.74Zm-3.15.45v2.71h3.15v-2.71Zm6.76,0H29.94v2.71H33.1Z"/><path class="cls-1" d="M41.62,277.57H54.15v13H53.7v-.76H42.07v.76h-.45Zm.45,11.82H53.7V278H42.07Zm10.48-7.12H48.3c.6,2.79,2,4.67,4.38,5.5a1.38,1.38,0,0,0-.33.39c-2.46-1-3.88-2.89-4.5-5.89h0c-.41,2.76-1.42,4.83-4.41,6a1.38,1.38,0,0,0-.31-.34c2.83-1.06,3.85-3,4.27-5.64H43.17v-.45h4.28c.12-.88.17-1.84.21-2.86l.71,0c0,.1-.11.17-.27.19,0,.93-.09,1.8-.2,2.63h4.67Z"/><path class="cls-1" d="M64.46,283a4.32,4.32,0,0,1,2.66-1.12c1.13,0,1.69.81,1.86,2.07,1.33-.62,3-1.31,4.33-1.8l.32.63h-.09a.43.43,0,0,1-.23-.09c-1.16.4-2.92,1.11-4.27,1.74a11.64,11.64,0,0,1,.06,1.33c0,.56,0,1.19-.06,1.85H68.5c0-.58.08-1.38.08-2.07a8,8,0,0,0,0-.9c-2,1-3.79,2.16-3.79,3.3s1.18,1.54,3.52,1.54a33.64,33.64,0,0,0,3.79-.15v.51c-1,.09-2.35.12-3.79.12-2.88,0-4-.72-4-2s1.88-2.61,4.21-3.78c-.12-1.29-.67-1.8-1.38-1.8-1.17,0-2.37.69-3.81,2.26a22.68,22.68,0,0,1-1.71,1.63l-.33-.34a10.92,10.92,0,0,0,4-6l-1,0H61.55v-.48h3.78a21.64,21.64,0,0,0,.46-2.26l.88.15c0,.15-.13.24-.36.25a18.94,18.94,0,0,1-.44,1.86,21.74,21.74,0,0,0,5.58-.92l.1.5a22.36,22.36,0,0,1-5.82.9,11.88,11.88,0,0,1-1.3,3.08Z"/><path class="cls-1" d="M93.17,285.83v.45h-1.6V289h-.45v-.72H86.53v1.42c0,.53-.18.71-.54.79a14.44,14.44,0,0,1-2.42.09,2.63,2.63,0,0,0-.19-.5h1.27c1.4,0,1.42,0,1.42-.39v-1.44H80.8v-.45h5.28v-1.59H79.6v-.45h6.48v-1.49H81v-.45h5.11v-1.29H81.46v-2.71h4.62v-1.2H79.82v-.45h6.25v-1.46l.67.06c0,.09-.07.14-.22.15v1.25h6.39v.45H86.53v1.2h4.84v2.71H86.53v1.29h5v1.94Zm-11.26-3.67h4.17v-1.82H81.91Zm9-1.82H86.53v1.82h4.39Zm-4.39,4v1.49h4.59v-1.49Zm4.59,3.52v-1.59H86.53v1.59Z"/><path class="cls-1" d="M99.36,279.46H112.8v.45H99.36Zm5.8,2.13h.21v8.19c0,.39-.11.57-.42.66a11.17,11.17,0,0,1-2.1.09,2.33,2.33,0,0,0-.19-.46l1.09,0c.43,0,.75,0,.88,0s.29-.08.29-.29v-2.7h-4v3.54h-.45v-9Zm-.24.45h-4v2.05h4Zm-4,4.6h4v-2.1h-4Zm1.35-9.82a12.55,12.55,0,0,1,1.89,2.17l-.37.22a12.55,12.55,0,0,0-1.87-2.21ZM107.46,288v-6.29l.67.06c0,.07-.08.13-.22.15V288Zm.67-8.94a17.2,17.2,0,0,0,1.75-2.33l.62.25c0,.08-.14.1-.27.1a20,20,0,0,1-1.72,2.16Zm3.45,10.75c0,.45-.14.62-.48.71a13.3,13.3,0,0,1-2.31.09,2.05,2.05,0,0,0-.2-.46h1.23c1.27,0,1.3,0,1.3-.33v-8.62l.67.06c0,.08-.08.14-.22.15Z"/><path class="cls-1" d="M121.46,277.85c-.06.17-.21.24-.53.21a37.27,37.27,0,0,0-.78,6.87,19.69,19.69,0,0,0,.26,3.55c.36-.94,1-2.71,1.26-3.29l.45.17c-.69,1.83-1.09,2.71-1.29,3.35a2.46,2.46,0,0,0-.12.69,1.33,1.33,0,0,0,.07.44l-.48.13a15.2,15.2,0,0,1-.64-5,40.25,40.25,0,0,1,.85-7.3Zm9.94,10.8c-.53,0-1.07,0-1.59,0a20.05,20.05,0,0,1-3-.18c-1.68-.25-2.55-1.21-2.55-2.37a4.54,4.54,0,0,1,1.49-2.82l.4.27a3.93,3.93,0,0,0-1.39,2.54c0,.87.72,1.69,2.19,1.92a17.71,17.71,0,0,0,2.59.17c.58,0,1.2,0,1.8-.06Zm-7-8.79a45.88,45.88,0,0,0,6.66-.58l.06.49a53.92,53.92,0,0,1-6.71.58Z"/><path class="cls-1" d="M150.33,282.5l.33.12a.21.21,0,0,1-.1.12,23.85,23.85,0,0,1-3.48,3.55l-.34-.24a20.75,20.75,0,0,0,3.09-3.09h-5.59c0,.08-.08.12-.22.15v6.71c0,.43-.14.61-.51.7a14.43,14.43,0,0,1-2.55.08,2.29,2.29,0,0,0-.19-.45l1.57,0c1.2,0,1.23,0,1.23-.34V283h-6.41v-.45h8.75a24,24,0,0,0-5.29-2.75l.32-.37a26.75,26.75,0,0,1,3.24,1.44,19.15,19.15,0,0,0,3.81-2.66h-9.42v-.45h9.76a.5.5,0,0,0,.25,0l.42.32a.22.22,0,0,1-.17.08,23.42,23.42,0,0,1-4.18,3,13.41,13.41,0,0,1,1.84,1.17l-.18.24h4Z"/><path class="cls-1" d="M159.34,283a11.52,11.52,0,0,0-2.62-1.56l.25-.33a10,10,0,0,1,2.63,1.5Zm-2.26,7.06a47.37,47.37,0,0,0,2.26-4.86l.34.27a46.77,46.77,0,0,1-2.11,4.65.32.32,0,0,1,.06.18.34.34,0,0,1,0,.12Zm2.8-11a10.66,10.66,0,0,0-2.43-1.74l.28-.31a10.55,10.55,0,0,1,2.43,1.68Zm2.47,8.52a.28.28,0,0,1-.27.12,10.14,10.14,0,0,1-2.31,3,2.24,2.24,0,0,0-.34-.32,9,9,0,0,0,2.26-3Zm-1.51-10h4.27v9.31h-4.27Zm.45.45v2.49h3.37V278Zm0,2.94v2.49h3.37v-2.49Zm0,2.94v2.54h3.37v-2.54Zm4.27,6.13a18.32,18.32,0,0,0-1.89-2.45l.36-.21a18.88,18.88,0,0,1,1.89,2.38Zm1.09-11.62.67.06c0,.08-.07.13-.22.15V287h-.45Zm2.8-1.59.68.06c0,.09-.08.13-.23.15v12.76c0,.48-.18.65-.51.74a12.39,12.39,0,0,1-2.28.09,3.64,3.64,0,0,0-.19-.45h1.2c1.25,0,1.33,0,1.33-.37Z"/><path class="cls-1" d="M176.92,279.67c1.23,0,5.5-.17,7.35-.24,0-.25-.09-2.47-.09-2.5l.9,0c0,.13-.1.25-.39.3,0,.48,0,1.37.06,2.16,1.76-.06,3.66-.11,5-.12v.51c-1.41,0-3.25,0-5,.09,0,1.28,0,2,.12,3.36a5.22,5.22,0,0,1,.17,1.56c0,1.42-.12,3.95-4.42,5.71l-.32-.41c2.76-1,4-2.58,4.26-4.35h0a2.34,2.34,0,0,1-2.05,1.14,2.46,2.46,0,0,1-2.42-2.55,2.7,2.7,0,0,1,2.58-2.73,2.36,2.36,0,0,1,1.69.63c0-.09,0-.17,0-.22,0-.33,0-1.21-.06-2.13-2.07.06-5.77.18-7.35.25Zm7.59,4.77c0-1-.2-2.31-1.8-2.31a2.13,2.13,0,0,0-2.13,2.25,2,2,0,1,0,3.93.06Z"/><path class="cls-1" d="M199.22,283.6a10,10,0,0,1,4.32-1.08c2.46,0,3.9,1.38,3.9,3.5,0,2.73-2.41,4.2-5.23,4.2-2,0-3.29-.71-3.29-1.91a2.11,2.11,0,0,1,2.34-1.86,3.28,3.28,0,0,1,3.06,3A3.53,3.53,0,0,0,207,286c0-1.86-1.29-3-3.43-3a9.29,9.29,0,0,0-5.78,2.06c-.5.48-1.06,1.12-1.48,1.62l-.36-.36c1.53-1.67,6.18-6.12,8.23-8.05-1,.13-4.24.24-6.31.3a.41.41,0,0,1-.27.22l-.11-.71c2.12,0,5.75-.15,6.9-.31l.21-.11.53.57a.76.76,0,0,1-.32.13c-1.26,1.07-4.42,4.11-5.55,5.24Zm3,6.15a6.72,6.72,0,0,0,1.67-.21,2.85,2.85,0,0,0-2.62-2.64c-1,0-1.85.53-1.85,1.4C199.39,289.39,200.93,289.74,202.19,289.74Z"/><path class="cls-1" d="M225.39,288.94a26.75,26.75,0,0,1-4.67.39,15,15,0,0,1-2.76-.19,2.72,2.72,0,0,1-2.47-2.71,4.94,4.94,0,0,1,1.59-3.24l.38.27a4.65,4.65,0,0,0-1.49,3c0,1,.67,1.85,2.13,2.19a12.84,12.84,0,0,0,2.58.2,24.47,24.47,0,0,0,4.67-.42Zm-3.17-9.45c-1.39.15-4.35.21-6.28.21v-.5c.52,0,6.36.06,8.44-.51l.12.51a5,5,0,0,0-1.67.5,20.18,20.18,0,0,0-3.48,2.19l-.31-.34a21.29,21.29,0,0,1,3.18-2Z"/><path class="cls-1" d="M243.41,281.66h-.12a.58.58,0,0,1-.29-.08c-4.41,1.37-8.91,3.57-8.91,5.87,0,1.67,1.9,2.19,4.6,2.19a42.35,42.35,0,0,0,5.25-.3l0,.51a45.4,45.4,0,0,1-5.28.25c-3,0-5.1-.66-5.1-2.64,0-1.62,1.74-3.08,4.17-4.3-.47-.78-.68-2.58-.68-6.08l.95.09c0,.17-.17.3-.45.33,0,3,.12,4.7.62,5.45a39.57,39.57,0,0,1,5-1.92Z"/><path class="cls-1" d="M256.51,277.49c0,.18-.2.25-.5.25-.18.92-.48,2.47-.67,3.39a20.59,20.59,0,0,1,2.08-.17c2.07,0,2.82,1.35,2.82,3.5a11.44,11.44,0,0,1-.6,3.64,2.56,2.56,0,0,1-2.49,2c-.63,0-1.39-.24-2.74-1.37a1.84,1.84,0,0,0,.24-.4c1.33,1.06,2,1.29,2.52,1.29a2,2,0,0,0,2-1.59,12.09,12.09,0,0,0,.58-3.51c0-1.83-.63-3-2.38-3a21.62,21.62,0,0,0-2.16.17,25.93,25.93,0,0,1-3.3,8.29l-.45-.21a24.32,24.32,0,0,0,3.25-8c-.93.11-2,.22-2.94.36l-.06-.48c.79-.1,2-.24,3.12-.36.24-1.1.51-2.52.71-3.89Zm3.85-.44a11.68,11.68,0,0,1,2.17,2.12l-.34.29a11.37,11.37,0,0,0-2.14-2.1Zm3.74,8.75a9.63,9.63,0,0,0-3.45-5.24l.36-.3a9.81,9.81,0,0,1,3.55,5.34Zm-1.52-9.33a11.65,11.65,0,0,1,2.17,2.12l-.34.29a11.37,11.37,0,0,0-2.14-2.1Z"/><path class="cls-1" d="M271.56,278.95c1.19,0,10.47-.79,12.3-.74v.51l-.63,0a4.5,4.5,0,0,0-2.38.66c-2.66,1.53-4.94,4.19-4.94,6.27,0,2.37,1.44,3.79,5.46,4.38l-.19.47c-4.26-.68-5.78-2.13-5.78-4.84,0-2.31,2.36-5,5.45-6.84-1.5.09-6.58.45-8.92.66a.45.45,0,0,1-.3.23Zm9.51,2.53a11.71,11.71,0,0,1,2.17,2.12l-.34.29a10.46,10.46,0,0,0-2.13-2.1Zm1.5-1.3a10.82,10.82,0,0,1,2.17,2.12l-.34.29a10.91,10.91,0,0,0-2.13-2.1Z"/><path class="cls-1" d="M303.43,281.77a25.18,25.18,0,0,1-4.78,1,5.67,5.67,0,0,0,2.64,2.7l-.27.42a5.54,5.54,0,0,1-.86-.42,7,7,0,0,0-2-.27,4.5,4.5,0,0,0-.47,0l0-.44a11.19,11.19,0,0,1,1.92.09,7.86,7.86,0,0,1-1.44-2A38.32,38.32,0,0,1,294,283c-.81,0-1.71,0-2.39,0v-.48c.57,0,1.31,0,2,0a42.52,42.52,0,0,0,4.27-.15c-.2-.54-.48-1.54-.69-2.35a29.9,29.9,0,0,1-3.13.12c-.55,0-1.14,0-1.54,0v-.48c.62,0,1.29,0,1.86,0a24,24,0,0,0,2.73-.1c-.17-.74-.33-1.58-.46-2.52l.95,0c0,.17-.12.25-.39.3.11.76.24,1.5.39,2.16a15.5,15.5,0,0,0,4.18-1l.2.45a16.88,16.88,0,0,1-4.28,1,17,17,0,0,0,.71,2.34,23,23,0,0,0,4.83-1Zm-2.64,8.16c-.87,0-1.79.09-3.13.09-2.29,0-4.23-.69-4.23-2.31a3.18,3.18,0,0,1,1.88-2.42l.27.36c-1,.57-1.67,1.32-1.67,2,0,1.27,1.56,1.86,3.75,1.86,1.17,0,2.07-.06,3.12-.1Z"/><path class="cls-1" d="M310.55,279.29c.94.06,2.05.06,3,.06.81,0,1.75,0,2.52,0,0-.76,0-1.68,0-2.25l.93.06c0,.18-.13.25-.42.3,0,.51,0,1.26,0,1.86a27.73,27.73,0,0,0,5.28-.65l.1.48a28.05,28.05,0,0,1-5.4.64l.09,3.22a23.12,23.12,0,0,0,4.53-.63l.11.5a28.57,28.57,0,0,1-4.62.58l.12,2.89a17.79,17.79,0,0,1,4.67,2.5l-.32.42a16.13,16.13,0,0,0-4.32-2.42c0,.31,0,.66,0,.9a2.1,2.1,0,0,1-2.37,2.38c-1.86,0-3.27-.66-3.27-2.05s1.65-2.1,3.22-2.1a7.22,7.22,0,0,1,1.89.22c0-.76-.06-1.72-.09-2.73l-1.64,0c-2.14,0-3.28-.14-3.28-1.14,0-.52.4-.93,1.27-1.53l.34.34c-1,.57-1.12.92-1.12,1.21,0,.51,1,.64,2.79.64l1.61,0-.09-3.21c-1.1,0-2.08,0-3.5,0-.71,0-1.47,0-2.05,0Zm5.82,7.39a6.89,6.89,0,0,0-1.92-.25c-1.27,0-2.75.53-2.75,1.63s1.26,1.61,2.79,1.61,1.89-.63,1.89-1.92Z"/><path class="cls-1" d="M329.15,279.67c1.23,0,5.5-.17,7.35-.24,0-.25-.09-2.47-.09-2.5l.9,0c0,.13-.1.25-.39.3,0,.48,0,1.37.06,2.16,1.76-.06,3.66-.11,5-.12v.51c-1.41,0-3.25,0-5,.09,0,1.28,0,2,.12,3.36a5.22,5.22,0,0,1,.17,1.56c0,1.42-.12,3.95-4.42,5.71l-.32-.41c2.76-1,4-2.58,4.26-4.35h0a2.34,2.34,0,0,1-2.05,1.14,2.46,2.46,0,0,1-2.42-2.55,2.7,2.7,0,0,1,2.58-2.73,2.36,2.36,0,0,1,1.69.63c0-.09,0-.17,0-.22,0-.33,0-1.21-.06-2.13-2.07.06-5.77.18-7.35.25Zm7.59,4.77c0-1-.2-2.31-1.8-2.31a2.13,2.13,0,0,0-2.13,2.25,2,2,0,1,0,3.93.06Z"/><path class="cls-1" d="M353.09,288.48a2.1,2.1,0,1,1-2.1-2.1A2.11,2.11,0,0,1,353.09,288.48Zm-.45,0a1.65,1.65,0,1,0-1.65,1.65A1.64,1.64,0,0,0,352.64,288.48Z"/><path class="cls-1" d="M362.75,279.29c.94.06,2.05.06,3,.06.81,0,1.75,0,2.52,0,0-.76,0-1.68,0-2.25l.93.06c0,.18-.13.25-.42.3,0,.51,0,1.26,0,1.86a27.73,27.73,0,0,0,5.28-.65l.1.48a28.05,28.05,0,0,1-5.4.64l.09,3.22a23.12,23.12,0,0,0,4.53-.63l.11.5a28.57,28.57,0,0,1-4.62.58l.12,2.89a17.79,17.79,0,0,1,4.67,2.5l-.32.42a16.13,16.13,0,0,0-4.32-2.42c0,.31,0,.66,0,.9a2.1,2.1,0,0,1-2.37,2.38c-1.86,0-3.27-.66-3.27-2.05s1.65-2.1,3.22-2.1a7.22,7.22,0,0,1,1.89.22c0-.76-.06-1.72-.09-2.73l-1.64,0c-2.14,0-3.28-.14-3.28-1.14,0-.52.4-.93,1.27-1.53l.34.34c-1,.57-1.12.92-1.12,1.21,0,.51,1,.64,2.79.64l1.61,0-.09-3.21c-1.1,0-2.08,0-3.5,0-.71,0-1.47,0-2.05,0Zm5.82,7.39a6.89,6.89,0,0,0-1.92-.25c-1.27,0-2.75.53-2.75,1.63s1.26,1.61,2.79,1.61,1.89-.63,1.89-1.92Z"/><path class="cls-1" d="M385.69,277.16c0,.15-.25.27-.45.27-.1.74-.25,1.54-.42,2.63a17.86,17.86,0,0,0,4.72-.9l.17.46a19.48,19.48,0,0,1-5,.93,35.79,35.79,0,0,1-2.85,9.6l-.46-.2a34.13,34.13,0,0,0,2.8-9.39c-.3,0-.62,0-.9,0h-2.07v-.5c.24,0,.56,0,.9,0s1.72,0,2.14,0c.17-1,.33-2.1.45-3Zm8,12.78-1.28,0a13.76,13.76,0,0,1-3.82-.39,1.94,1.94,0,0,1-1.42-1.9,3.5,3.5,0,0,1,.92-2.16l.39.25a3.2,3.2,0,0,0-.84,1.91c0,1.35,1.23,1.81,4.44,1.81.51,0,1,0,1.61-.06Zm-.46-7.3a16.18,16.18,0,0,0-5.36.75l-.15-.43a17.52,17.52,0,0,1,5.52-.79Z"/><path class="cls-1" d="M401.38,279.74a8.3,8.3,0,0,1-.86,3.82l-.41-.19a8.33,8.33,0,0,0,.83-3.71Zm1,10.81V276.79l.67.06c0,.08-.08.14-.22.15v13.56Zm1.49-11.37a12.27,12.27,0,0,1,1.14,2.43l-.37.25a13.3,13.3,0,0,0-1.14-2.5Zm5.61,10.35h4.38V290h-9.46v-.45H409v-4.23h-3.49v-.45H409V281h-2.82a13,13,0,0,1-1.23,2.7,2.21,2.21,0,0,0-.37-.19,19,19,0,0,0,2.1-6l.67.18c0,.09-.12.14-.29.14a25,25,0,0,1-.74,2.76H409v-3.79l.67.06c0,.08-.07.14-.22.15v3.58h3.9V281h-3.9v3.82H413v.45h-3.48Z"/><path class="cls-1" d="M433.23,286.52V287h-5.91v3.63h-.45V287h-7.29v-.45h2.61v-4.23h4.68v-2.92h-4.25a13.81,13.81,0,0,1-2.54,3.17,2.36,2.36,0,0,0-.37-.26,14.57,14.57,0,0,0,3.69-5.53l.64.21c0,.1-.15.13-.29.12a17.26,17.26,0,0,1-.88,1.84h9.72v.45h-5.28v2.92h5v.45h-5v3.78Zm-10.59,0h4.23v-3.78h-4.23Z"/><path class="cls-1" d="M441.32,281.21a20,20,0,0,1-2.39,3.17,3.27,3.27,0,0,0-.3-.35,21.3,21.3,0,0,0,4.32-7.09l.63.21c0,.1-.15.13-.29.12a24.14,24.14,0,0,1-1.63,3.38l.33.09c0,.08-.08.12-.23.14v9.73h-.45Zm11.35.25-5.27.62c.72,4.48,2.29,8.05,4.2,8.05.55,0,.78-.84.88-3a1.78,1.78,0,0,0,.42.2c-.15,2.42-.4,3.24-1.32,3.24-2.22,0-3.86-3.78-4.61-8.45l-4.23.5-.06-.42,4.23-.5a36.6,36.6,0,0,1-.41-4.84l.69,0c0,.1-.08.17-.24.18a35.27,35.27,0,0,0,.36,4.59l5.28-.63Zm-3.75-4.27a21.27,21.27,0,0,1,2.94,2.25l-.31.29a20.58,20.58,0,0,0-2.92-2.29Z"/><path class="cls-1" d="M459.88,282.19v-4.69h5.82v4.69h-3.48c-.06.65-.12,1.37-.22,2.12h3.43l.25,0c0,.06,0,.12,0,.19-.2,4-.36,5.33-.75,5.76s-.54.3-1.16.3c-.42,0-1,0-1.62-.06a1.12,1.12,0,0,0-.13-.43c.87.07,1.73.07,2,.07s.43,0,.54-.15c.31-.33.51-1.65.67-5.26h-3.27c-.34,2.17-1,4.48-2.56,5.82a2,2,0,0,0-.34-.24c2-1.74,2.55-5.44,2.73-8.14Zm.45-4.24v3.79h4.92v-3.79Zm7.32,9v-8.31l.68.06c0,.08-.08.13-.23.15v8.1Zm3.9-9.85.67.06c0,.09-.08.13-.22.15v12.48c0,.5-.2.67-.54.76a13.53,13.53,0,0,1-2.48.08,2.84,2.84,0,0,0-.21-.44l1.32,0c1.35,0,1.46,0,1.46-.41Z"/><path class="cls-1" d="M489.68,289a26.65,26.65,0,0,1-4.66.39,15,15,0,0,1-2.76-.2,2.72,2.72,0,0,1-2.48-2.71,4.94,4.94,0,0,1,1.59-3.24l.38.27a4.65,4.65,0,0,0-1.48,3c0,1,.67,1.84,2.13,2.19a12.83,12.83,0,0,0,2.58.2,24.53,24.53,0,0,0,4.66-.42Zm-3.16-9.45c-1.4.15-4.35.21-6.29.21v-.5c.53,0,6.36.06,8.44-.51l.12.51a5.05,5.05,0,0,0-1.67.5,20.22,20.22,0,0,0-3.48,2.19l-.32-.35a21.37,21.37,0,0,1,3.18-2Zm3.34,3.88a10.46,10.46,0,0,0-2.13-2.1l.3-.3a11.68,11.68,0,0,1,2.17,2.11Zm1.5-1.3a10.9,10.9,0,0,0-2.13-2.1l.3-.3a10.85,10.85,0,0,1,2.17,2.12Z"/><path class="cls-1" d="M507.71,281.66h-.12a.58.58,0,0,1-.29-.08c-4.41,1.37-8.91,3.57-8.91,5.87,0,1.67,1.9,2.19,4.6,2.19a42.35,42.35,0,0,0,5.25-.3l0,.51a45.4,45.4,0,0,1-5.28.25c-3,0-5.1-.66-5.1-2.64,0-1.62,1.74-3.08,4.17-4.3-.47-.78-.68-2.58-.68-6.08l.95.09c0,.17-.17.3-.45.33,0,3,.12,4.7.62,5.45a39.57,39.57,0,0,1,5-1.92Z"/><path class="cls-1" d="M8.29,307a.31.31,0,0,1-.33.22c-.48,4.35-2.08,9.18-4.5,9.18-1,0-2.11-1.2-2.11-3.42A6.53,6.53,0,0,1,8,306.35c4.39,0,6,2.92,6,5.61,0,3.6-2.22,5.25-5.75,6,0-.09-.19-.33-.25-.45,3.48-.66,5.52-2.36,5.52-5.52,0-2.5-1.51-5.17-5.55-5.17H7.79Zm-.78-.13a6.09,6.09,0,0,0-5.71,6.12c0,1.85.9,2.92,1.67,2.92C5.52,315.87,7,311.36,7.51,306.83Z"/><path class="cls-1" d="M25.79,308l.3.1a.33.33,0,0,1-.08.12,19.08,19.08,0,0,1-1.58,6.55,11.86,11.86,0,0,1,1.86,1.67l-.29.38a11.54,11.54,0,0,0-1.79-1.62,8.11,8.11,0,0,1-3.12,3.36,1.93,1.93,0,0,0-.33-.39A7.64,7.64,0,0,0,23.86,315a19.23,19.23,0,0,0-2.34-1.49l-.21.76-.42-.22c.41-1.37.95-3.45,1.42-5.49H20.57v-.45h1.85c.27-1.17.52-2.31.72-3.27l.67.11c0,.09-.09.13-.24.13-.19.88-.43,1.93-.69,3H25.7Zm-3,.48c-.37,1.58-.78,3.2-1.14,4.53a23.13,23.13,0,0,1,2.43,1.48,17.71,17.71,0,0,0,1.47-6Zm11.59,3.06V312H30.53v5.75c0,.46-.13.65-.51.74a13.82,13.82,0,0,1-2.45.08,2.93,2.93,0,0,0-.19-.47l1.71,0c.93,0,1,0,1-.36V312h-4v-.45h4v-2.71l.42,0A14.57,14.57,0,0,0,33.32,306H26.74v-.45h6.94l.11,0,.38.25a.32.32,0,0,1-.15.09,16.62,16.62,0,0,1-3.48,3.48v2.19Z"/><path class="cls-1" d="M42.27,306.93v1.82a9.32,9.32,0,0,1-1.6,5.71,1,1,0,0,0-.34-.3,8.79,8.79,0,0,0,1.5-5.41v-2.27H48a13.18,13.18,0,0,1-.21-1.69l.74,0c0,.1-.09.15-.24.17,0,.49.09,1,.17,1.5h5.59v.45h-5.5a15.09,15.09,0,0,0,1.54,4.14,12.43,12.43,0,0,0,1.67-3l.65.19c0,.09-.14.13-.29.13a12.41,12.41,0,0,1-1.79,3.14c.88,1.41,1.89,2.35,2.75,2.34.45,0,.62-.56.71-2a1.27,1.27,0,0,0,.42.22c-.12,1.71-.39,2.28-1.12,2.28-1,0-2.1-1-3-2.45a11.46,11.46,0,0,1-2.67,2.33,1.69,1.69,0,0,0-.34-.3,10.7,10.7,0,0,0,2.76-2.42,15.63,15.63,0,0,1-1.7-4.53ZM43,315a4,4,0,0,1-2.25,3.06l-.35-.27a3.81,3.81,0,0,0,2.19-2.89Zm-.11-6.37v-.45h4.86v.45Zm4.38,4.14H43.8v.62h-.45v-3.58h3.92Zm-.45-2.52h-3v2.07h3Zm-2,7.2c0,.34.15.42,1.05.42h3.4c.74,0,.84-.2.9-1.75a1.47,1.47,0,0,0,.45.2c-.08,1.65-.27,2-1.32,2H46c-1.21,0-1.54-.12-1.54-.88V314.9l.67.06c0,.07-.08.13-.23.15Zm3.39-1.5a9.91,9.91,0,0,0-2.9-1.83l.3-.31a9.36,9.36,0,0,1,2.91,1.78Zm2.08-11.22a7.44,7.44,0,0,1,2.26,1.09l-.27.39a7.61,7.61,0,0,0-2.26-1.14ZM53.82,318a10.65,10.65,0,0,0-2.92-2.94l.34-.25a10.47,10.47,0,0,1,2.94,2.92Z"/><path class="cls-1" d="M74.34,306.9h-12V311c0,2.26-.17,5.44-1.42,7.71a1.34,1.34,0,0,0-.37-.27c1.23-2.21,1.35-5.23,1.35-7.44v-4.51h5.83V304.8l.67.06c0,.07-.08.13-.22.15v1.44h6.18Zm-2,6.61.33.2a.36.36,0,0,1-.12.1,7.91,7.91,0,0,1-3.42,3,18.13,18.13,0,0,0,5.29,1.37,1.48,1.48,0,0,0-.27.41,18.84,18.84,0,0,1-5.5-1.54,20.24,20.24,0,0,1-5.76,1.51,1.55,1.55,0,0,0-.22-.41,19.85,19.85,0,0,0,5.52-1.35,8,8,0,0,1-3-2.61l.39-.18a7.68,7.68,0,0,0,3.12,2.58A7.66,7.66,0,0,0,71.91,314H63.24v-.45h9Zm-1.09-1.35H65.82v-2.64H63.09v-.45h2.73V307.5l.67.06c0,.08-.08.14-.22.15v1.37h4.54V307.5l.68.06c0,.08-.08.14-.23.15v1.37h3v.45h-3Zm-.45-2.64H66.27v2.19h4.54Z"/><path class="cls-1" d="M89.75,308l.57,0c1.92,0,3.18,1.14,3.18,2.82,0,1.92-1.37,2.91-3.21,2.91a5.53,5.53,0,0,1-3.15-1.1,2.36,2.36,0,0,0,.19-.45,5.11,5.11,0,0,0,3,1.06c1.36,0,2.7-.63,2.7-2.46,0-1.44-1-2.31-2.67-2.31a21.91,21.91,0,0,0-5.52,1.39c.63,2.19,1.63,5.91,2.28,8.33l-.53.12c-.52-2.27-1.6-6.17-2.22-8.28L81,311.15a.42.42,0,0,1-.24.33l-.3-.66c1-.33,2.64-.87,3.74-1.24-.5-1.68-.93-3.12-1.16-3.86l.95-.2c0,.2-.06.27-.33.41.42,1.46.69,2.34,1,3.48A27.51,27.51,0,0,1,89.58,308a13.68,13.68,0,0,0-2.91-2.67L87,305a13.52,13.52,0,0,1,3.06,2.8Z"/><path class="cls-1" d="M106.73,306.65h6.5v.45H99.86v-.45h6.42V304.8l.67.06c0,.07-.08.13-.23.15Zm5.61,2.83v8.33c0,.45-.12.66-.51.75a16.55,16.55,0,0,1-2.55.09,1.68,1.68,0,0,0-.19-.5h1.58c1.2,0,1.23,0,1.23-.36v-7.87H108v1.84c0,.24.08.29.58.29h1.91c.38,0,.45-.08.48-1a1.21,1.21,0,0,0,.43.18c0,1-.21,1.23-.84,1.23h-2c-.82,0-1-.09-1-.74v-1.84h-2.42c-.22,1.79-1,2.78-3.21,3.33a1,1,0,0,0-.28-.36c2.05-.46,2.82-1.29,3-3h-3.39v8.68h-.45v-9.13h8l-.33-.12a18.53,18.53,0,0,0,1-2.2l.66.21a.29.29,0,0,1-.27.12,18.13,18.13,0,0,1-1,2Zm-8.22-.07a9.56,9.56,0,0,0-.93-2l.39-.13a8.3,8.3,0,0,1,1,2Zm5.25,7.56h-5.16v1h-.45V313.4h5.61Zm-.45-3.12h-4.71v2.67h4.71Z"/><path class="cls-1" d="M119.81,318.59v-6.46H125v6.28h-.45v-.72h-4.3v.9Zm4.75-6h-4.3v4.67h4.3Zm5.25-7.23v4.92h-7.62v-4.92Zm-.45,4.47v-4h-6.72v4Zm-2.47,2.31h5.38v6.34h-.45v-.78h-4.49v.9h-.45Zm.45,5.11h4.49v-4.67h-4.49Z"/><path class="cls-1" d="M146.26,307a.31.31,0,0,1-.33.22c-.48,4.35-2.08,9.18-4.5,9.18-1,0-2.11-1.2-2.11-3.42a6.53,6.53,0,0,1,6.66-6.6c4.39,0,6,2.92,6,5.61,0,3.6-2.22,5.25-5.75,6,0-.09-.19-.33-.25-.45,3.48-.66,5.52-2.36,5.52-5.52,0-2.5-1.51-5.17-5.55-5.17h-.24Zm-.78-.13a6.09,6.09,0,0,0-5.71,6.12c0,1.85.9,2.92,1.67,2.92C143.48,315.87,145,311.36,145.48,306.83Z"/><path class="cls-1" d="M158.44,307.8v-.45h5.28v.45Zm.67,2v-.45h4.2v.45Zm0,2v-.45h4.2v.45Zm4.2,1.56v4.27h-3.75v.79h-.45v-5.07Zm-.07-8v.45h-4v-.45Zm-.37,8.43h-3.3v3.37h3.3Zm3.78-2.34v4.9l2.24-.54,0,.41c-1.7.42-3.46.87-4.56,1.13a.19.19,0,0,1-.15.19l-.27-.57,2.25-.51v-5h-2V311h4.32v.45Zm5.52-3h-2.47c.08,5.38.42,9.4,1.8,9.66h0c.24,0,.46-1,.58-2.25a1.11,1.11,0,0,0,.4.2c-.19,1.75-.43,2.55-1,2.55l-.18,0c-1.72-.35-2-4.49-2.13-10.12H164V308h5.23l0-3.19.71,0c0,.09-.08.15-.23.17,0,1,0,2,0,3h2.49Zm-1.74-3.6a11.1,11.1,0,0,1,1.83,2l-.36.25a11.21,11.21,0,0,0-1.83-2.08Z"/><path class="cls-1" d="M191.34,305.93v11.68c0,.53-.17.74-.57.83a17.3,17.3,0,0,1-2.76.08,2.31,2.31,0,0,0-.19-.46h1.47c1.59,0,1.6,0,1.6-.43v-3.95h-5v4.81h-.45v-4.81h-4.56a8.82,8.82,0,0,1-1.91,5,1.16,1.16,0,0,0-.33-.33c1.71-1.95,1.89-4.65,1.89-6.81v-5.59ZM181,311.52c0,.54,0,1.11-.06,1.71h4.51v-3.17H181Zm4.45-5.14H181v3.24h4.45Zm5.47,0h-5v3.24h5Zm-5,6.85h5v-3.17h-5Z"/><path class="cls-1" d="M201.2,315.52a4.53,4.53,0,0,1-2.37,2.67l-.35-.27a4.36,4.36,0,0,0,2.33-2.54ZM212,309v.45H198.52V309h8.89l-.22-.12a17.63,17.63,0,0,0,1-2.07l.58.29a.28.28,0,0,1-.25.1,16.29,16.29,0,0,1-1,1.8Zm-.84-2.75v.45H199.37v-.45H205v-1.48l.67.06c0,.08-.08.14-.23.15v1.27Zm-1.44,4.14v4h-9v-4Zm-.45,1.74v-1.29h-8.05v1.29Zm0,1.77V312.6h-8.05v1.32Zm-7-7a7.41,7.41,0,0,1,.93,1.9l-.44.18a7.4,7.4,0,0,0-.9-1.94Zm.56,10.69c0,.33.13.39,1,.39h3.09c.7,0,.81-.2.87-1.83a1.27,1.27,0,0,0,.44.2c-.06,1.72-.25,2.08-1.26,2.08h-3.09c-1.14,0-1.46-.11-1.46-.84v-2.13l.67.06c0,.08-.08.13-.22.15Zm.94-3.06a10.25,10.25,0,0,1,2.9,1.46l-.27.36a10.66,10.66,0,0,0-2.89-1.5Zm7.91,3.62a12.42,12.42,0,0,0-3-2.55l.33-.25a11.43,11.43,0,0,1,3,2.52Z"/><path class="cls-1" d="M231.09,307.52v10.14c0,.53-.13.75-.57.84a19.78,19.78,0,0,1-2.79.09,2.94,2.94,0,0,0-.21-.53l1.74,0c1.35,0,1.38,0,1.38-.42V308H219.52V318.6h-.45V307.52h4.17a22.14,22.14,0,0,0,1.18-2.79l.67.18a.26.26,0,0,1-.27.13,26.17,26.17,0,0,1-1.09,2.47ZM228,315.42h-5.54v1.14H222v-6h6Zm-.45-4.42h-5.08v4h5.08Z"/><path class="cls-1" d="M246.24,308.55c-.51,0-1.07.06-1.61.06s-1.21,0-1.8-.08c-.17,1.27-.33,2.63-.45,3.79a32.41,32.41,0,0,0,3.81-.21l0,.49c-1,.11-2.52.2-3.88.2-.08.78-.12,1.25-.12,1.7,0,2.79,1.77,3,3.39,3,1.33,0,3.93-.2,3.93-2.29a5.06,5.06,0,0,0-1.32-3,1.85,1.85,0,0,0,.41-.24,5.27,5.27,0,0,1,1.41,3.21c0,2-1.84,2.75-4.35,2.75-1.27,0-3.94,0-3.94-3.48,0-.39,0-.82.12-1.74-1.33,0-3.39-.06-3.39-1.47a2.38,2.38,0,0,1,1.32-1.82l.33.34c-.71.45-1.12,1-1.12,1.44,0,1,1.44,1,2.91,1,.12-1.14.28-2.52.45-3.84a10.91,10.91,0,0,1-3.31-.88l.2-.45a10.2,10.2,0,0,0,3.18.87c.13-1,.25-2.05.36-2.86l.9.12c0,.17-.21.25-.45.25l-.33,2.55c.54,0,1.08.07,1.62.07s1.17,0,1.73-.07Z"/><path class="cls-1" d="M263.46,304.85c0,.11-.12.14-.24.17a20.88,20.88,0,0,0,6.75,5.55,2,2,0,0,0-.3.38,21.66,21.66,0,0,1-6.79-5.62,20.19,20.19,0,0,1-6.63,5.78c-.06-.09-.19-.24-.28-.34a18.35,18.35,0,0,0,6.67-6ZM258.4,318.6v-6h9v6h-.45v-.71h-8.08v.71Zm8.54-5.52h-8.08v4.36h8.08ZM259,309.86h7.77v.45H259Z"/><path class="cls-1" d="M279.27,305.18l.91.13c0,.18-.19.23-.43.26-.06.7-.1,1.75-.12,2.37l.39.14a5.2,5.2,0,0,0-.45,1.78l0,.83a8.86,8.86,0,0,1,5.31-2c2.7,0,3.87,1.84,3.87,4.21,0,3.06-2.46,4.47-6.64,4.84a2.09,2.09,0,0,0-.15-.46c4-.34,6.3-1.53,6.3-4.38,0-2.07-1.06-3.74-3.39-3.74a8.24,8.24,0,0,0-5.29,2.12v7H279c0-1,0-6,0-7.17a17.82,17.82,0,0,1-3.25,4.14l-.33-.36a15.45,15.45,0,0,0,3.6-4.9l0-1.37a19.18,19.18,0,0,1-3.12.24v-.5a14.43,14.43,0,0,0,3.17-.25Z"/><path class="cls-1" d="M308.69,309.2c-1,.12-2.19.3-3.46.51a22.26,22.26,0,0,1-.13,3.54,1.45,1.45,0,0,1-1.46,1.27,5.87,5.87,0,0,1-2.38-.69l.18-.45a5.37,5.37,0,0,0,2.17.66,1,1,0,0,0,1-.87,19.63,19.63,0,0,0,.13-3.39l-5.58.94c0,1.47.06,2.88.13,3.84.2,2.57,1.4,2.78,3.67,2.78,1.32,0,3-.09,4-.2l0,.51c-1.06.09-2.8.15-4.2.15-2.08,0-3.81-.15-4-3.18-.08-.95-.11-2.33-.13-3.83-1,.17-2.22.41-3.12.57l-.08-.48c.85-.13,2.14-.37,3.18-.54l0-3.94.87.1c0,.17-.15.24-.36.25,0,1,0,2.28,0,3.5,1.51-.24,3.6-.6,5.56-.93,0-1.3-.1-2.75-.19-4.09l.85.09c0,.15-.1.19-.33.24.06,1.17.12,2.46.15,3.69l3.42-.55Z"/><path class="cls-1" d="M315.17,306.95c1.19,0,10.47-.79,12.3-.74v.51l-.63,0a4.5,4.5,0,0,0-2.38.66c-2.66,1.53-4.94,4.19-4.94,6.27,0,2.37,1.44,3.79,5.46,4.38l-.19.47c-4.26-.68-5.78-2.13-5.78-4.84,0-2.31,2.36-5,5.45-6.84-1.5.09-6.58.45-8.92.66a.45.45,0,0,1-.3.23Z"/><path class="cls-1" d="M346.94,310.5l.33.12a.21.21,0,0,1-.1.12,23.85,23.85,0,0,1-3.48,3.55l-.34-.24a20.75,20.75,0,0,0,3.09-3.09h-5.59c0,.08-.08.12-.22.15v6.71c0,.43-.14.61-.51.7a14.43,14.43,0,0,1-2.55.08,2.29,2.29,0,0,0-.19-.45l1.57,0c1.2,0,1.23,0,1.23-.34V311h-6.41v-.45h8.75a24,24,0,0,0-5.29-2.75l.32-.37a26.75,26.75,0,0,1,3.24,1.44,19.15,19.15,0,0,0,3.81-2.66h-9.42v-.45h9.76a.5.5,0,0,0,.25,0l.42.32a.22.22,0,0,1-.17.08,23.42,23.42,0,0,1-4.18,3,13.41,13.41,0,0,1,1.84,1.17l-.18.24h4Z"/><path class="cls-1" d="M356,311a11.52,11.52,0,0,0-2.62-1.56l.25-.33a10,10,0,0,1,2.63,1.5Zm-2.26,7.06a47.37,47.37,0,0,0,2.26-4.86l.34.27a46.54,46.54,0,0,1-2.12,4.65.31.31,0,0,1,.06.18.34.34,0,0,1,0,.12Zm2.8-11a10.66,10.66,0,0,0-2.43-1.74l.28-.31a10.55,10.55,0,0,1,2.43,1.68Zm2.47,8.52a.28.28,0,0,1-.27.12,10.14,10.14,0,0,1-2.31,3,2.24,2.24,0,0,0-.34-.32,9,9,0,0,0,2.26-3Zm-1.51-10h4.27v9.31h-4.27Zm.45.45v2.49h3.37V306Zm0,2.94v2.49h3.37v-2.49Zm0,2.94v2.54h3.37v-2.54Zm4.27,6.13a18.32,18.32,0,0,0-1.89-2.45l.36-.21a18.88,18.88,0,0,1,1.89,2.38Zm1.09-11.62.67.06c0,.08-.07.13-.22.15V315h-.45Zm2.8-1.59.68.06c0,.09-.08.13-.23.15v12.76c0,.48-.18.65-.51.74a12.39,12.39,0,0,1-2.28.09,3.64,3.64,0,0,0-.19-.45h1.2c1.24,0,1.33,0,1.33-.37Z"/><path class="cls-1" d="M373.68,306.95c1.19,0,10.47-.79,12.3-.74v.51l-.63,0a4.5,4.5,0,0,0-2.38.66c-2.66,1.53-4.94,4.19-4.94,6.27,0,2.37,1.44,3.79,5.46,4.38l-.19.47c-4.26-.68-5.78-2.13-5.78-4.84,0-2.31,2.36-5,5.45-6.84-1.5.09-6.58.45-8.92.66a.45.45,0,0,1-.3.23Zm9.51,2.53a11.71,11.71,0,0,1,2.17,2.12l-.34.29a10.46,10.46,0,0,0-2.13-2.1Zm1.5-1.3a10.82,10.82,0,0,1,2.17,2.12l-.34.29a10.91,10.91,0,0,0-2.13-2.1Z"/><path class="cls-1" d="M405.58,309.77a25.18,25.18,0,0,1-4.78,1,5.67,5.67,0,0,0,2.64,2.7l-.27.42a5.54,5.54,0,0,1-.86-.42,7,7,0,0,0-2-.27,4.5,4.5,0,0,0-.47,0l0-.44a11.19,11.19,0,0,1,1.92.09,7.86,7.86,0,0,1-1.44-2,38.32,38.32,0,0,1-4.08.17c-.81,0-1.71,0-2.39,0v-.48c.57,0,1.31,0,2,0a42.52,42.52,0,0,0,4.27-.15c-.2-.54-.48-1.54-.69-2.35a29.9,29.9,0,0,1-3.13.12c-.55,0-1.14,0-1.54,0v-.48c.62,0,1.29,0,1.86,0a24,24,0,0,0,2.73-.1c-.17-.74-.33-1.58-.46-2.52l.95,0c0,.17-.12.25-.39.3.11.76.24,1.5.39,2.16a15.5,15.5,0,0,0,4.18-1l.2.45a16.88,16.88,0,0,1-4.28,1,17,17,0,0,0,.71,2.34,23,23,0,0,0,4.83-1Zm-2.64,8.16c-.87,0-1.79.09-3.13.09-2.29,0-4.23-.69-4.23-2.31a3.18,3.18,0,0,1,1.88-2.42l.27.36c-1,.57-1.67,1.32-1.67,2,0,1.27,1.56,1.86,3.75,1.86,1.17,0,2.07-.06,3.12-.1Z"/><path class="cls-1" d="M413.48,314.76a31.42,31.42,0,0,1,3.5,3.4l-.43.42a31.21,31.21,0,0,0-3.44-3.47Z"/><path class="cls-1" d="M439.58,307.52H427.71v3.84c0,2.17-.2,5.19-1.61,7.3a1.39,1.39,0,0,0-.37-.25c1.38-2.08,1.53-4.93,1.53-7v-4.27h5.66V304.8l.67.06c0,.07-.08.13-.23.15v2.06h6.21ZM436,312.93a27.17,27.17,0,0,1,3.66,5.49l-.39.24c-.2-.43-.46-.94-.78-1.5-3.64.2-7.59.39-10,.5a.21.21,0,0,1-.18.18l-.25-.65,1.88-.08a64.33,64.33,0,0,0,2.87-8.35l.67.23a.33.33,0,0,1-.29.15,79.85,79.85,0,0,1-2.8,8c2.25-.09,5.08-.21,7.83-.34a32.67,32.67,0,0,0-2.61-3.63Z"/><path class="cls-1" d="M452,310.73h6.55v.45H445.11v-.45h6.44v-3h-3.79a13.17,13.17,0,0,1-1.41,2.44,2.36,2.36,0,0,0-.37-.25,15.24,15.24,0,0,0,2.31-4.9l.66.19c0,.09-.12.14-.29.14a18.47,18.47,0,0,1-.71,1.93h3.6v-2.5l.67.06c0,.08-.08.14-.23.15v2.29h5.43v.45H452Zm-4.54,7.86v-5.64h8.76v5.64h-.45v-.69H447.9v.69Zm8.31-5.19H447.9v4h7.86Z"/><path class="cls-1" d="M471,317.58h6.58V318H464.09v-.45h6.48v-4.41h-5.08v-.45h5.08v-4.11h-5.68v-.45h12v.45H471v4.11h5.26v.45H471Zm-2.58-12.85a23.55,23.55,0,0,1,4.58,2.4l-.3.38a23,23,0,0,0-4.58-2.46Z"/><path class="cls-1" d="M488.61,311.69a1.27,1.27,0,1,1-1.27-1.27A1.27,1.27,0,0,1,488.61,311.69Z"/><path class="cls-1" d="M508.75,307.86a.83.83,0,0,1-.15.17c-1.49,4.83-4,8.05-8.24,10.2a1.47,1.47,0,0,0-.31-.37,15.14,15.14,0,0,0,8-9.67h-6a15.37,15.37,0,0,1-3.46,3.9,2.83,2.83,0,0,0-.37-.32,15.86,15.86,0,0,0,4.84-6.61l.74.28c0,.15-.24.17-.39.15a20,20,0,0,1-1.06,2.12h6l.11,0Z"/><path class="cls-1" d="M3.84,341.4v-7.2l.79.06c0,.11-.12.21-.31.22v6.92Zm8-7.75c0,.14-.12.21-.32.23v4.83c0,3.12-1.09,5.94-5.47,7.54a1.81,1.81,0,0,0-.31-.39C10,344.29,11,341.67,11,338.69v-5.11Z"/><path class="cls-1" d="M20.09,335.46H30.36v.48H25.44V344h6v.48H19V344H25v-8.05H20.09Z"/><path class="cls-1" d="M49,333.85a.32.32,0,0,1-.23.11.51.51,0,0,1-.19,0,35.24,35.24,0,0,1-4.41,3.72l.25.15c0,.07-.13.13-.24.15v8.21h-.48V338a43.77,43.77,0,0,1-6.22,3.73,3.8,3.8,0,0,0-.29-.39,40.74,40.74,0,0,0,11.19-7.92Z"/><path class="cls-1" d="M64.58,335.65a.17.17,0,0,1-.13.1,18.69,18.69,0,0,1-2.29,5.14,24.73,24.73,0,0,1,2.13,1.37l-.3.41a20,20,0,0,0-2.08-1.37,14.54,14.54,0,0,1-5.67,4.93,1.32,1.32,0,0,0-.36-.34,14.54,14.54,0,0,0,5.59-4.83,26.5,26.5,0,0,0-3.85-1.75l.24-.42a28.39,28.39,0,0,1,3.88,1.77,17.19,17.19,0,0,0,2.14-4.7H58.11a15.68,15.68,0,0,1-3.63,4.39,4,4,0,0,0-.36-.33,17,17,0,0,0,4.84-7l.73.21c-.06.13-.18.17-.36.15-.24.57-.63,1.42-1,2.06h5.67l.12,0Z"/><path class="cls-1" d="M71.42,339.16H83.95v.49h-12a.57.57,0,0,1-.43.27Z"/><path class="cls-1" d="M97.61,335a.31.31,0,0,1-.33.22c-.48,4.35-2.08,9.18-4.5,9.18-1,0-2.11-1.2-2.11-3.42a6.53,6.53,0,0,1,6.66-6.6c4.39,0,6,2.92,6,5.61,0,3.6-2.22,5.25-5.75,6,0-.09-.19-.33-.25-.45,3.48-.66,5.52-2.36,5.52-5.52,0-2.5-1.51-5.17-5.55-5.17H97.1Zm-.78-.13a6.09,6.09,0,0,0-5.71,6.12c0,1.85.9,2.92,1.67,2.92C94.84,343.87,96.37,339.36,96.83,334.83Z"/><path class="cls-1" d="M115.14,334.12a.16.16,0,0,1-.09.1,26.34,26.34,0,0,1-1.41,6.12,18.24,18.24,0,0,1,2,2.76l-.39.3a18,18,0,0,0-1.82-2.56,13.51,13.51,0,0,1-4,5.75,1.57,1.57,0,0,0-.35-.36,12.82,12.82,0,0,0,4-5.77,32.32,32.32,0,0,0-3-3.08l.36-.27A29.93,29.93,0,0,1,113.3,340a25.59,25.59,0,0,0,1.27-5.48h-5.35V334h5.54l.09,0Zm6.79-.12.31.13a.24.24,0,0,1-.1.11,20.19,20.19,0,0,1-2.85,8,9.21,9.21,0,0,0,3.66,4,2.86,2.86,0,0,0-.36.38A9.56,9.56,0,0,1,119,342.7a12.8,12.8,0,0,1-4.16,3.89,1.45,1.45,0,0,0-.33-.36,12.34,12.34,0,0,0,4.25-4,26.11,26.11,0,0,1-2.1-7.63l.43-.06a25.85,25.85,0,0,0,2,7.25,19.93,19.93,0,0,0,2.59-7.31h-5.75V334h5.94Z"/><path class="cls-1" d="M142.67,336.09h-8c-.06,1-.13,2-.29,3h6.09l.27.06,0,.17c-.33,4.71-.63,6.38-1.21,6.93-.32.32-.6.33-1.26.33s-1.38,0-2.25-.09a1.06,1.06,0,0,0-.15-.45c1.14.1,2.23.12,2.58.12s.55,0,.71-.17c.49-.46.82-2.08,1.13-6.43h-5.92c-.48,2.82-1.65,5.56-4.86,7a1.7,1.7,0,0,0-.33-.33c4.35-1.92,4.88-6.42,5.07-10.18h-5v-.45h6.5v-2.85l.67.06c0,.08-.08.14-.23.15v2.64h6.57Z"/><path class="cls-1" d="M155.15,335a.31.31,0,0,1-.33.22c-.48,4.35-2.08,9.18-4.5,9.18-1,0-2.11-1.2-2.11-3.42a6.53,6.53,0,0,1,6.66-6.6c4.39,0,6,2.92,6,5.61,0,3.6-2.22,5.25-5.75,6,0-.09-.19-.33-.25-.45,3.48-.66,5.52-2.36,5.52-5.52,0-2.5-1.51-5.17-5.55-5.17h-.24Zm-.78-.13a6.09,6.09,0,0,0-5.71,6.12c0,1.85.9,2.92,1.67,2.92C152.38,343.87,153.91,339.36,154.37,334.83Z"/><path class="cls-1" d="M168,342.76a31.42,31.42,0,0,1,3.5,3.4l-.43.42a31.21,31.21,0,0,0-3.44-3.47Z"/><path class="cls-1" d="M192.22,345.1a14.9,14.9,0,0,0-5.08-2.61c0,.44,0,1.28,0,1.67,0,1.38-1,2.08-2.66,2.08-1.79,0-3.25-.81-3.25-2.32,0-1.26,1.42-2.21,3.32-2.24a9.69,9.69,0,0,1,2.05.2c0-.53-.09-1-.12-1.41-.12-1.92-.21-4.83-.21-7.29l.95.08c0,.15-.14.29-.41.32v3a38,38,0,0,0,5.26-.46l.06.51a45.1,45.1,0,0,1-5.32.44c0,1.15.08,2.11.15,3.33,0,.47.11,1.05.14,1.58a16.69,16.69,0,0,1,5.41,2.71Zm-5.55-1.82c0-.31,0-.64,0-.9a7.44,7.44,0,0,0-1.91-.23c-2,0-3,.84-3,1.76,0,1.23,1.33,1.84,2.73,1.84s2.23-.6,2.23-1.59Z"/><path class="cls-1" d="M200.92,341.61a7.22,7.22,0,0,1-.44-2.52,27.21,27.21,0,0,1,.54-5.24l.92.21c-.06.21-.24.24-.46.26A23.72,23.72,0,0,0,201,339a5.93,5.93,0,0,0,.08,1.15c.33-.79.92-1.95,1.21-2.53a3.65,3.65,0,0,0,.39.28,21,21,0,0,0-1.21,2.6,1.72,1.72,0,0,0-.11.58,1.26,1.26,0,0,0,.06.4Zm7.65-8.14c0,.2-.15.25-.42.32.1,1.39.25,3.69.25,5.28,0,2.91-1.14,5.45-5.49,7.25a4.4,4.4,0,0,0-.32-.42c4.08-1.54,5.33-4,5.33-6.81,0-1.68-.17-3.91-.33-5.67Z"/><path class="cls-1" d="M219,336.48c0,.09-.12.12-.27.12a12.46,12.46,0,0,1-2.36,3.11,3.73,3.73,0,0,0-.36-.29,10.61,10.61,0,0,0,2.34-3.17Zm4.74-1.46v.45h-7.58V335h3.6v-2.23l.67.06c0,.08-.08.14-.23.15v2Zm-1.83,4.07c0,.09-.13.13-.29.12a15.52,15.52,0,0,1-1.15,2.7,22.13,22.13,0,0,1,1.86,2.57l-.39.3a21,21,0,0,0-1.71-2.45,11.76,11.76,0,0,1-3.65,4,1.69,1.69,0,0,0-.34-.3,11.33,11.33,0,0,0,3.69-4c-.66-.81-1.38-1.63-2.07-2.32l.36-.24c.64.64,1.32,1.39,1.95,2.14a15.42,15.42,0,0,0,1.08-2.64Zm-.48-2.78a12.35,12.35,0,0,1,2,3l-.39.25a12.82,12.82,0,0,0-2-3Zm8.07.14h.25a.74.74,0,0,0,0,.18c-.2,6.79-.36,8.88-.86,9.5-.29.36-.64.39-1.16.39s-1.11,0-1.74-.08a1,1,0,0,0-.15-.45c1,.08,1.82.08,2.17.08a.54.54,0,0,0,.46-.19c.42-.48.63-2.67.79-9H226c-.2,3.87-.9,7.63-3.74,9.75a1.65,1.65,0,0,0-.4-.29c2.74-1.93,3.48-5.62,3.69-9.46h-2.37v-.45h2.38c0-1.17.06-2.36.06-3.51l.76,0c0,.12-.12.18-.31.21,0,1.06,0,2.16-.06,3.25Z"/><path class="cls-1" d="M249.48,342.72v.45H242.9v3.51h-.45v-3.51H236v-.45h6.48v-1.38l.67.06c0,.08-.07.13-.22.15v1.17ZM236,341.08c1-.41,2.42-1.07,3.84-1.71l.11.39-3.46,1.62a.27.27,0,0,1-.12.22Zm4.5-.36c.51-.48,1.06-1.08,1.62-1.7a14.7,14.7,0,0,0-2.36-1.8l.3-.29.45.29a19.54,19.54,0,0,0,1.54-2h-5.68v-.45h6.06v-2l.67.06c0,.08-.07.14-.22.15v1.75h6.18v.45h-6.88l.5.24a.27.27,0,0,1-.25.11,18.67,18.67,0,0,1-1.58,1.89,14.3,14.3,0,0,1,1.59,1.25c.69-.79,1.33-1.62,1.82-2.29l.54.33c0,.06-.12.09-.24.09a39.25,39.25,0,0,1-3.5,3.9l3.88-.09a18.44,18.44,0,0,0-1.42-1.62l.38-.23a14.43,14.43,0,0,1,2.24,2.76l-.39.27c-.13-.24-.3-.51-.51-.81-2,.09-4,.17-5.25.21a.22.22,0,0,1-.18.18l-.27-.65Zm-3.57-4.59a12.84,12.84,0,0,1,2.52,1.7l-.32.33a14.37,14.37,0,0,0-2.52-1.74Zm8.7,3a23.63,23.63,0,0,1,3.75,2.21l-.36.34a23.08,23.08,0,0,0-3.75-2.25Zm3.09-2.92c0,.06-.12.08-.23.08a26,26,0,0,1-2.64,1.78s-.33-.27-.33-.27a20.53,20.53,0,0,0,2.69-2Z"/><path class="cls-1" d="M257.63,335.4a19.64,19.64,0,0,0,.85-2.61l.66.2q0,.13-.27.13a20.91,20.91,0,0,1-.79,2.28h2.7v8.68h-4.32v1.38H256V335.4Zm2.7,4v-3.57h-3.87v3.57Zm-3.87,4.21h3.87v-3.76h-3.87Zm12-8.24.24,0a.63.63,0,0,0,0,.17c-.23,7.5-.42,9.91-1,10.6-.33.39-.69.42-1.35.42s-1.37,0-2.16-.09a1.13,1.13,0,0,0-.15-.45c1.17.09,2.25.09,2.67.09a.68.68,0,0,0,.57-.21c.51-.55.78-3,1-10.09h-5a16,16,0,0,1-1.81,3.58l-.36-.27a19.08,19.08,0,0,0,2.64-6.41l.68.18c0,.11-.12.15-.29.14-.2.78-.44,1.56-.69,2.32Zm-4.81,3.17a15.57,15.57,0,0,1,2.34,3.9l-.41.24a15.87,15.87,0,0,0-2.32-3.94Z"/><path class="cls-1" d="M279.74,339.69a1.27,1.27,0,1,1-1.27-1.27A1.27,1.27,0,0,1,279.74,339.69Z"/><path class="cls-1" d="M290.57,336.48c0,.09-.12.12-.27.12a12.46,12.46,0,0,1-2.36,3.11,3.73,3.73,0,0,0-.36-.29,10.61,10.61,0,0,0,2.34-3.17Zm4.74-1.46v.45h-7.58V335h3.6v-2.23l.67.06c0,.08-.08.14-.23.15v2Zm-1.83,4.07c0,.09-.13.13-.29.12a15.52,15.52,0,0,1-1.15,2.7,22.13,22.13,0,0,1,1.86,2.57l-.39.3a21,21,0,0,0-1.71-2.45,11.76,11.76,0,0,1-3.65,4,1.69,1.69,0,0,0-.34-.3,11.33,11.33,0,0,0,3.69-4c-.66-.81-1.38-1.63-2.07-2.32l.36-.24c.64.64,1.32,1.39,1.95,2.14a15.42,15.42,0,0,0,1.08-2.64Zm-.48-2.78a12.36,12.36,0,0,1,2,3l-.39.25a12.82,12.82,0,0,0-2-3Zm8.07.14h.25a.74.74,0,0,0,0,.18c-.2,6.79-.36,8.88-.86,9.5-.29.36-.64.39-1.16.39s-1.11,0-1.74-.08a1,1,0,0,0-.15-.45c1,.08,1.82.08,2.17.08a.54.54,0,0,0,.46-.19c.42-.48.63-2.67.79-9h-3.24c-.2,3.87-.9,7.63-3.74,9.75a1.65,1.65,0,0,0-.4-.29c2.74-1.93,3.48-5.62,3.69-9.46h-2.37v-.45h2.38c0-1.17.06-2.36.06-3.51l.76,0c0,.12-.12.18-.31.21,0,1.06,0,2.16-.06,3.25Z"/><path class="cls-1" d="M320.84,341.44h-5.68a16.43,16.43,0,0,0,6.09,4.19,2,2,0,0,0-.33.37,17.6,17.6,0,0,1-6.3-4.56h-.17v5.15H314v-5.15h-.12a15.75,15.75,0,0,1-6.25,4.54,2,2,0,0,0-.33-.37,14.67,14.67,0,0,0,6-4.17h-5.65V341H314V339.3h-4.86v-5.73h10.3v5.73h-5V341h6.39ZM309.59,334v2.17H314V334Zm0,4.83H314v-2.21h-4.41Zm9.4-2.66V334h-4.54v2.17Zm0,2.66v-2.21h-4.54v2.21Z"/><path class="cls-1" d="M329.28,335.4a19.64,19.64,0,0,0,.85-2.61l.66.2c0,.09-.12.13-.27.13a20.91,20.91,0,0,1-.79,2.28h2.7v8.68h-4.32v1.38h-.45V335.4Zm2.7,4v-3.57h-3.87v3.57Zm-3.87,4.21H332v-3.76h-3.87Zm12-8.24.24,0a.63.63,0,0,0,0,.17c-.23,7.5-.42,9.91-1,10.6-.33.39-.69.42-1.35.42s-1.37,0-2.16-.09a1.13,1.13,0,0,0-.15-.45c1.17.09,2.25.09,2.67.09a.68.68,0,0,0,.57-.21c.51-.55.78-3,1-10.09h-5a16,16,0,0,1-1.81,3.58l-.36-.27a19.08,19.08,0,0,0,2.64-6.41l.68.18c0,.11-.12.15-.29.14-.2.78-.44,1.56-.69,2.32Zm-4.81,3.17a15.57,15.57,0,0,1,2.34,3.9l-.41.24a15.87,15.87,0,0,0-2.32-3.94Z"/><path class="cls-1" d="M351.82,333.21c0,.12-.2.21-.46.22-.12.75-.25,1.54-.42,2.24a23.36,23.36,0,0,0,4.92-.76l.1.49a31.26,31.26,0,0,1-5.13.77,20.84,20.84,0,0,1-3.36,7.53l-.42-.22a20.44,20.44,0,0,0,3.25-7.29H347v-.48h1.88l1.5,0c.2-.83.34-1.71.48-2.67Zm4.09,6.3c0,1.42.13,2.22.22,3.38a15.56,15.56,0,0,1,3.41,1.89l-.3.42a15.43,15.43,0,0,0-3.09-1.79v.65c0,1.42-1,2.31-2.61,2.31s-2.91-.71-2.91-2c0-1.47,1.59-2.05,2.91-2.05a6.8,6.8,0,0,1,2.07.38c-.08-1.14-.2-2.26-.2-3.12Zm-.27,3.71a6,6,0,0,0-2.12-.42c-1,0-2.4.38-2.4,1.56s1,1.51,2.42,1.51,2.12-.6,2.12-1.81C355.66,343.73,355.66,343.47,355.65,343.21Zm3.84-5.58a19.18,19.18,0,0,0-5.36.81L354,338a20.25,20.25,0,0,1,5.46-.84Z"/><path class="cls-1" d="M372.64,334.53h-3.78v10.86h-.53V334.53h-3.79v-.47h8.1Z"/><path class="cls-1" d="M386.54,334.06l-4.25,11.33h-.48L378,334.06h.58l2.1,6.29c.57,1.7,1,3.09,1.37,4.33h0c.34-1.26.87-2.71,1.48-4.33l2.36-6.29Z"/><path class="cls-1" d="M399.87,345a7.26,7.26,0,0,1-3.09.58c-2.6,0-5.27-1.63-5.27-5.78,0-3.28,2-5.89,5.69-5.89a5.7,5.7,0,0,1,2.59.5l-.21.43a5.11,5.11,0,0,0-2.34-.51c-3.21,0-5.17,2.15-5.17,5.52,0,3.2,1.84,5.29,5,5.29a5.9,5.9,0,0,0,2.61-.55Z"/><path class="cls-1" d="M416.93,345.39h-.52l-.35-5.52c-.13-2-.27-3.95-.25-5.07h0c-.42,1.18-.87,2.45-1.56,4.18l-2.54,6.43h-.34l-2.38-6.27c-.69-1.84-1.17-3.13-1.52-4.35h0c0,1.3-.12,3.29-.27,5.23l-.37,5.36h-.54l.83-11.33h.55l2.64,6.95c.54,1.47.95,2.55,1.29,3.6h0c.3-1,.71-2,1.3-3.54l2.73-7h.6Z"/><path class="cls-1" d="M423.13,339.33a19.84,19.84,0,0,0,6.57-6.6l.81.06c0,.1-.13.13-.25.17a22.76,22.76,0,0,0,6.67,6.19,1.84,1.84,0,0,0-.3.38,23.24,23.24,0,0,1-6.69-6.25,21.25,21.25,0,0,1-6.52,6.39Zm7.18,1.77v4.58h6.24v.45h-13v-.45h2.22v-6l.67.06c0,.07-.08.13-.23.15v5.82h3.67v-8.91l.68.06c0,.07-.08.13-.23.15v3.67h4.75v.45Z"/><path class="cls-1" d="M443,333.88h13.3v.45h-6.48v2.19h3.51v6.78h-7.46v-6.78h3.5v-2.19H443Zm12.45,11.23v-8.73l.68.06c0,.07-.08.13-.23.15v9.93h-.45v-1H443.88v1h-.45v-10.2l.67.06c0,.07-.08.13-.23.15v8.52ZM446.28,337v2.7h3V337Zm0,3.15v2.73h3v-2.73Zm6.55-.45V337h-3.06v2.7Zm0,3.18v-2.73h-3.06v2.73Z"/><path class="cls-1" d="M467.06,339.69a1.27,1.27,0,1,1-1.27-1.27A1.27,1.27,0,0,1,467.06,339.69Z"/><path class="cls-1" d="M479.55,335.7v2.25h4v.45h-4v1.88h3.21v4.49c0,.31-.08.46-.34.55a10.09,10.09,0,0,1-1.86.08,1.57,1.57,0,0,0-.18-.41h.95c.88,0,1,0,1-.22v-4h-2.76v5.87h-.45v-5.87h-2.65v4.69H476v-5.14h3.1V338.4h-4v-.45h4V335.7h-2.46a10.06,10.06,0,0,1-.73,2,3.51,3.51,0,0,0-.41-.17,16.34,16.34,0,0,0,1.23-4.29l.67.18c0,.09-.11.13-.29.13a16.86,16.86,0,0,1-.36,1.7h2.34v-2.43l.68.06c0,.08-.08.13-.23.15v2.22h3.33v.45Zm4.88-1.08.67.06c0,.08-.08.13-.22.15v8.1h-.45Zm3.21-1.54.67.06c0,.09-.08.13-.22.15v12.51c0,.48-.18.65-.51.74a11.59,11.59,0,0,1-2.28.08c0-.11-.12-.3-.2-.44l1.2,0c1.25,0,1.33,0,1.33-.37Z"/><path class="cls-1" d="M497.06,337.29a17.39,17.39,0,0,1-2.28,3.15c-.08-.09-.21-.25-.3-.34a19.67,19.67,0,0,0,4.08-7.16l.65.2a.28.28,0,0,1-.29.13,22.65,22.65,0,0,1-1.5,3.38l.32.09c0,.08-.08.12-.23.14v9.73h-.45Zm11.58-1.41h-5.19v2.82h4.83v.45h-4.83v2.92h5v.45h-5v4H503V335.88h-1.82a16.89,16.89,0,0,1-2.23,3.58l-.36-.29a18.86,18.86,0,0,0,3.24-6.15l.67.21c0,.09-.13.13-.3.13-.24.69-.51,1.38-.81,2.05h7.25Z"/><path class="cls-1" d="M4.71,367a4.32,4.32,0,0,1,2.66-1.12c1.13,0,1.69.81,1.86,2.07,1.33-.62,3-1.31,4.33-1.8l.32.63h-.09a.43.43,0,0,1-.23-.09c-1.16.4-2.92,1.11-4.27,1.74a11.64,11.64,0,0,1,.06,1.33c0,.56,0,1.19-.06,1.85H8.75c0-.58.08-1.38.08-2.07a8,8,0,0,0,0-.9c-2,1-3.79,2.16-3.79,3.3s1.18,1.54,3.52,1.54a33.64,33.64,0,0,0,3.79-.15v.51c-1,.09-2.35.12-3.79.12-2.88,0-4-.72-4-2s1.88-2.61,4.21-3.78c-.12-1.29-.67-1.8-1.38-1.8-1.17,0-2.37.69-3.81,2.26a22.68,22.68,0,0,1-1.71,1.63l-.33-.34a10.92,10.92,0,0,0,4-6l-1,0H1.8v-.48H5.58A21.64,21.64,0,0,0,6,361.15l.88.15c0,.15-.13.24-.36.25a18.94,18.94,0,0,1-.44,1.86,21.74,21.74,0,0,0,5.58-.92l.1.5a22.36,22.36,0,0,1-5.82.9A11.88,11.88,0,0,1,4.7,367Z"/><path class="cls-1" d="M31.16,366.83l.34.21a.19.19,0,0,1-.17.09A11.18,11.18,0,0,1,27,372a17.06,17.06,0,0,0,6.5,2.25,2,2,0,0,0-.29.41,17.36,17.36,0,0,1-6.61-2.42A21.85,21.85,0,0,1,20,374.59a1.47,1.47,0,0,0-.27-.41A21.4,21.4,0,0,0,26.19,372a11.1,11.1,0,0,1-3.78-4.46l.39-.17a10.69,10.69,0,0,0,3.79,4.38,10.43,10.43,0,0,0,4.15-4.41H20.88v-.45h5.47v-3H20.1v-.45h6.25V360.8l.67.06c0,.07-.08.13-.22.15v2.45h6.33v.45H26.81v3h4.24Z"/><path class="cls-1" d="M43.79,368.15l-1.53.56v5.13c0,.42-.15.58-.45.67a9.08,9.08,0,0,1-1.94.09,1.61,1.61,0,0,0-.19-.45h1c1.08,0,1.13,0,1.13-.33v-5l-2,.73a.25.25,0,0,1-.13.21l-.31-.58c.67-.21,1.53-.51,2.46-.83v-3.87H39.46v-.45h2.36V360.8l.67.06c0,.09-.08.13-.23.15v3.08h1.86v.45H42.26v3.7l1.46-.51Zm7.63,1.2.3.18a.21.21,0,0,1-.1.09,7.2,7.2,0,0,1-2.22,3.15,11.2,11.2,0,0,0,3.72,1.41,2,2,0,0,0-.32.41A11.46,11.46,0,0,1,49,373a10.34,10.34,0,0,1-3.45,1.56,1.5,1.5,0,0,0-.3-.39,10.25,10.25,0,0,0,3.36-1.43,7.61,7.61,0,0,1-2.23-2.43l.38-.15A6.91,6.91,0,0,0,49,372.52a6.33,6.33,0,0,0,2-2.68H46.22a9.84,9.84,0,0,1-2.71,4.68,3.12,3.12,0,0,0-.34-.27c1.6-1.36,2.55-3.64,3.1-6.46H44v-.45h2.35c.11-.56.18-1.12.26-1.71h-2.4v-.45H49.9l-.1,0a17.53,17.53,0,0,0,1.69-2.83l.63.24c0,.07-.12.12-.25.12a20.33,20.33,0,0,1-1.62,2.52h2v.45H47.08q-.11.88-.27,1.71h6.25v.45H46.72a16.44,16.44,0,0,1-.37,1.61h5Zm.72-8.13s0,0-.09,0l-.13,0a52.23,52.23,0,0,1-7.87,1,1.2,1.2,0,0,0-.13-.39,50,50,0,0,0,7.8-1Zm-7,1.4a7.33,7.33,0,0,1,.87,2.05l-.42.17a7.38,7.38,0,0,0-.86-2.08Zm2.88-.29a8.42,8.42,0,0,1,.53,2.17l-.42.09a10.11,10.11,0,0,0-.51-2.22Z"/><path class="cls-1" d="M61.91,361.4c0,.17-.17.27-.46.3-.12,1.58-.27,5.86-.27,8.1,0,2.46,1.2,3.66,3.3,3.66a7.44,7.44,0,0,0,5.79-3.12,1.55,1.55,0,0,0,.38.33,8,8,0,0,1-6.18,3.27c-2.32,0-3.78-1.41-3.78-4.17,0-1.8.15-6.66.27-8.53Z"/><path class="cls-1" d="M77.07,363.29c.94.06,2.05.06,3,.06.81,0,1.75,0,2.52,0,0-.76,0-1.68,0-2.25l.93.06c0,.18-.13.25-.42.3,0,.51,0,1.26,0,1.86a27.73,27.73,0,0,0,5.28-.65l.1.48a28.05,28.05,0,0,1-5.4.64l.09,3.22a23.12,23.12,0,0,0,4.53-.63l.11.5a28.57,28.57,0,0,1-4.62.58l.12,2.89a17.79,17.79,0,0,1,4.67,2.5l-.32.42a16.13,16.13,0,0,0-4.32-2.42c0,.31,0,.66,0,.9A2.1,2.1,0,0,1,81,374.12c-1.86,0-3.27-.66-3.27-2.05s1.65-2.1,3.22-2.1a7.22,7.22,0,0,1,1.89.22c0-.76-.06-1.72-.09-2.73l-1.64,0c-2.14,0-3.28-.14-3.28-1.14,0-.52.4-.93,1.27-1.53l.34.34c-1,.57-1.12.92-1.12,1.21,0,.51,1,.64,2.79.64l1.61,0-.09-3.21c-1.1,0-2.08,0-3.5,0-.71,0-1.47,0-2.05,0Zm5.82,7.39a6.89,6.89,0,0,0-1.92-.25c-1.27,0-2.75.53-2.75,1.63s1.26,1.61,2.79,1.61,1.89-.63,1.89-1.92Z"/><path class="cls-1" d="M95.24,363.67c1.23,0,5.5-.17,7.35-.24,0-.25-.09-2.47-.09-2.5l.9,0c0,.13-.1.25-.39.3,0,.48,0,1.37.06,2.16,1.76-.06,3.66-.11,5-.12v.51c-1.41,0-3.25,0-5,.09,0,1.28,0,2,.12,3.36a5.22,5.22,0,0,1,.17,1.56c0,1.42-.12,3.95-4.42,5.71l-.32-.41c2.76-1,4-2.58,4.26-4.35h0a2.34,2.34,0,0,1-2.05,1.14,2.46,2.46,0,0,1-2.42-2.55,2.7,2.7,0,0,1,2.58-2.73,2.36,2.36,0,0,1,1.69.63c0-.09,0-.17,0-.22,0-.33,0-1.21-.06-2.13-2.07.06-5.77.18-7.35.25Zm7.59,4.77c0-1-.2-2.31-1.8-2.31a2.13,2.13,0,0,0-2.13,2.25,2,2,0,1,0,3.93.06Z"/><path class="cls-1" d="M118.76,372.48a2.1,2.1,0,1,1-2.1-2.1A2.11,2.11,0,0,1,118.76,372.48Zm-.45,0a1.65,1.65,0,1,0-1.65,1.65A1.64,1.64,0,0,0,118.31,372.48Z"/><path class="cls-1" d="M262.34,1.49l.11-.16h.73V53.65H264V0h-1.22c-1.09,1.24-2.15,2.36-3.15,3.33a28.27,28.27,0,0,1-3.28,2.76,27.28,27.28,0,0,1-3.65,2.19,31.4,31.4,0,0,1-4.19,1.7v.83A29.59,29.59,0,0,0,256,7.35,22.87,22.87,0,0,0,262.34,1.49Z"/></g></g></svg>