<svg xmlns="http://www.w3.org/2000/svg" viewBox="0 0 508.92 377.16"><defs><style>.cls-1{fill:#fff;}</style></defs><title>Asset 1</title><g id="Layer_2" data-name="Layer 2"><g id="レイヤー_1" data-name="レイヤー 1"><path class="cls-1" d="M78.69,119.69a1.64,1.64,0,0,1-.32.35c-3.16,10.27-8.55,17.13-17.52,21.7a3.23,3.23,0,0,0-.67-.8c8.65-4.31,14.17-11.23,17-20.58H64.37a32.64,32.64,0,0,1-7.37,8.3,5.86,5.86,0,0,0-.8-.67,33.73,33.73,0,0,0,10.3-14.07l1.56.61c-.1.32-.51.35-.83.32a42.06,42.06,0,0,1-2.27,4.5H77.7l.22-.1Z"/><path class="cls-1" d="M93.27,131.47V116.15l1.69.13c0,.22-.26.45-.67.48v14.71Zm17-16.5c0,.29-.26.45-.67.48v10.27c0,6.64-2.33,12.63-11.65,16a3.81,3.81,0,0,0-.67-.83c9.12-3.32,11.29-8.9,11.29-15.22V114.84Z"/><path class="cls-1" d="M124.06,118.83h21.86v1H135.45V137h12.79v1H121.83v-1h12.6V119.85H124.06Z"/><path class="cls-1" d="M181.86,115.42a.68.68,0,0,1-.48.22,1.1,1.1,0,0,1-.41-.1,74.85,74.85,0,0,1-9.38,7.91c.19.1.54.32.54.32,0,.16-.29.29-.51.32v17.45h-1V124.16a93,93,0,0,1-13.24,7.95,8,8,0,0,0-.61-.83c9-4.24,18.5-11.2,23.8-16.85Z"/><path class="cls-1" d="M217.55,125.72H206.22l.48.13c0,.19-.25.32-.57.35-.83,6.45-3.09,11.84-10,15.16a5.52,5.52,0,0,0-.73-.8c6.86-3.19,8.93-8.2,9.76-14.84H192v-1h25.56Zm-3.1-9.06H194.87v-1h19.59Z"/><path class="cls-1" d="M246.84,121.1a.6.6,0,0,1-.48.19,1.46,1.46,0,0,1-.51-.1,52.49,52.49,0,0,1-7.18,6.09l.61.26a.78.78,0,0,1-.41.25v14h-1v-14a88.13,88.13,0,0,1-11.39,6.67c-.13-.19-.38-.64-.54-.83A78.27,78.27,0,0,0,238,126.62a50.32,50.32,0,0,0,7.5-6.51Z"/><path class="cls-1" d="M280.18,118.48a.47.47,0,0,1-.29.19c-2.23,12.09-8.93,19.56-19.3,23a8.42,8.42,0,0,0-.61-.86c10.18-3.25,16.72-10.62,18.73-21.63H257.24v-1H279.1l.22-.13Zm-2.42-4.56a25,25,0,0,1,4.28,4.85l-.8.57a24.6,24.6,0,0,0-4.18-4.79Zm3.51-1.92a24.1,24.1,0,0,1,4.12,4.85l-.83.54a21.38,21.38,0,0,0-4.08-4.79Z"/><path class="cls-1" d="M320.34,122.85h-7.21v2.74c0,5.74-1.63,12.16-10.37,16a5.52,5.52,0,0,0-.73-.77c8.65-3.67,10.08-9.92,10.08-15.16v-2.81H300.33v8.49h-1v-8.49h-6.77v-1h6.77v-7.27l1.72.13c0,.29-.29.51-.7.54v6.6h11.77v-7.69l1.69.13a.67.67,0,0,1-.67.51v7.05h7.21Z"/><path class="cls-1" d="M337.29,127.7a26.29,26.29,0,0,1-6.32,9.57l-.8-.64a23,23,0,0,0,6.13-9.32Zm6.7-5.17v16.3a2.19,2.19,0,0,1-2,2.46,35.87,35.87,0,0,1-5,.16,5.69,5.69,0,0,0-.35-1.05c2.11.06,4.44,0,4.91,0a1.42,1.42,0,0,0,1.44-1.5V122.53H331.55v-1H343V114.4l1.63.13c0,.25-.22.45-.61.48v6.51h11.33v1Zm5.74,4.63a61.79,61.79,0,0,1,7.11,9.6l-.92.54a62.18,62.18,0,0,0-7-9.6Zm4.47-14.74a3.65,3.65,0,1,1-3.67,3.67A3.64,3.64,0,0,1,354.2,112.42Zm2.68,3.67a2.7,2.7,0,1,0-2.68,2.71A2.71,2.71,0,0,0,356.88,116.09Z"/><path class="cls-1" d="M365.25,126.71h26.64v1.05H366.37a1.21,1.21,0,0,1-.93.57Z"/><path class="cls-1" d="M420.28,130.35a126,126,0,0,0-12-5.49v16.69H407.2V114l1.82.13c0,.32-.29.48-.77.57v9.57l.26-.42a122.06,122.06,0,0,1,12.38,5.55Z"/><path class="cls-1" d="M457.67,115.58v24.85c0,1.12-.35,1.56-1.21,1.75a36.65,36.65,0,0,1-5.87.16,5.07,5.07,0,0,0-.42-1c1.15,0,2.23,0,3.13,0,3.38,0,3.41,0,3.41-.92v-8.39H446v10.24h-1V132.07h-9.7c-.38,3.7-1.44,7.59-4.05,10.59a2.43,2.43,0,0,0-.7-.7c3.64-4.15,4-9.89,4-14.49v-11.9Zm-22.08,11.9c0,1.15,0,2.36-.13,3.64h9.6v-6.73h-9.48Zm9.48-10.94h-9.48v6.89h9.48Zm11.64,0H446v6.89h10.69ZM446,131.12h10.69v-6.73H446Z"/><path class="cls-1" d="M149.4,183.89l1.21,10.53-1,.13L148.41,184l-12.51,1.59-.19-1,12.57-1.6-.92-8.26-10.62,1.37-.16-1,10.66-1.37-.73-6.67,1.75-.06c0,.29-.29.51-.67.61l.67,6,10.27-1.34.13,1-10.27,1.34.92,8.26,12.54-1.59.16,1Z"/><path class="cls-1" d="M172.69,179.71h26.64v1.05H173.81a1.21,1.21,0,0,1-.93.57Z"/><path class="cls-1" d="M233.87,170.37a.56.56,0,0,1-.29.19c-1.21,12.83-5.84,19.4-16.21,23.55a8.28,8.28,0,0,0-.7-.8c10.21-4.12,14.68-10.43,15.83-22.3H212.17v9.25h-1V170h21.57l.29-.22Z"/><path class="cls-1" d="M244.47,179.71h26.64v1.05H245.58a1.21,1.21,0,0,1-.92.57Z"/><path class="cls-1" d="M299.5,183.35a125.91,125.91,0,0,0-12-5.49v16.69h-1.05V167l1.82.13c0,.32-.29.48-.77.57v9.57l.25-.42a122.1,122.1,0,0,1,12.38,5.55ZM295.6,169A28.22,28.22,0,0,1,300.3,174l-.73.61a29.12,29.12,0,0,0-4.66-4.88Zm4.21-2.65a29.11,29.11,0,0,1,4.66,4.91l-.7.61a29.25,29.25,0,0,0-4.69-4.88Z"/><path class="cls-1" d="M318.64,181.12c1.47,1.95,4.34,2.9,7.56,3,1,0,2.33,0,3.86,0,4,0,9.19-.06,11.93-.19a3.26,3.26,0,0,0-.35,1c-1.56.06-3.92.1-6.38.1-.06.16-.19.22-.48.29v2.33H342v1h-7.18V194c0,.8-.22,1.15-1,1.34a29.51,29.51,0,0,1-5.3.16,4.29,4.29,0,0,0-.41-.86c1.08,0,2,0,2.84,0,2.87,0,2.87,0,2.87-.64v-5.42H312.67v-1h21.15v-2.58c-2.9,0-5.78,0-7.56-.06-3.54-.1-6.29-1.05-8-3-1.63,1.15-3.22,2.26-4.59,3.16,0,.22-.06.32-.22.38l-.67-1.15a54.81,54.81,0,0,0,4.95-3.16V176h-4.85v-1h5.81Zm-4.24-14a18.77,18.77,0,0,1,4.37,4.08l-.77.67a18.89,18.89,0,0,0-4.34-4.21ZM323.56,194a20.78,20.78,0,0,0-5.23-4l.67-.64a21.43,21.43,0,0,1,5.26,3.86Zm-.35-21.35h6.29c.22-.67.45-1.5.64-2.23h-9.57v-1h6.67a13.1,13.1,0,0,0-2.42-2.81l.8-.48a12.23,12.23,0,0,1,2.65,3.13l-.22.16h5.74a26.49,26.49,0,0,0,2-3.29l1.24.51a.45.45,0,0,1-.51.22c-.45.7-1.12,1.72-1.75,2.55h6.89v1H331.05c-.19.64-.42,1.5-.64,2.23h8.52v9.51H323.2ZM338,175.44v-1.85H324.16v1.85Zm0,2.84V176.4H324.16v1.88Zm0,2.9v-1.95H324.16v1.95Z"/><path class="cls-1" d="M376.33,182.33l1.44.13c0,.16-.16.29-.48.32v12.63h-1v-2.11H353.62v2.23h-1V182.33l1.44.13c0,.16-.16.29-.48.32v9.57h10.66V179.91h-10.4V169.31l1.44.13c0,.16-.16.29-.48.32v9.19h9.44V166.19l1.44.13c0,.16-.16.29-.48.32v12.32H375v-9.64l1.44.13c0,.16-.16.29-.48.32v10.15H365.23v12.44h11.1Z"/><path class="cls-1" d="M8.1,253.1H4.32V264H3.79V253.1H0v-.46H8.1Z"/><path class="cls-1" d="M22.12,252.64,17.87,264h-.48l-3.78-11.32h.58l2.1,6.28c.57,1.7,1,3.09,1.37,4.33h0c.34-1.26.87-2.71,1.48-4.33l2.36-6.28Z"/><path class="cls-1" d="M35.56,263.54a7.26,7.26,0,0,1-3.09.58c-2.6,0-5.27-1.63-5.27-5.77,0-3.29,2-5.9,5.69-5.9a5.7,5.7,0,0,1,2.59.5l-.21.44a5.09,5.09,0,0,0-2.34-.51c-3.21,0-5.17,2.15-5.17,5.52,0,3.19,1.84,5.29,5,5.29a5.9,5.9,0,0,0,2.61-.56Z"/><path class="cls-1" d="M52.75,264h-.52l-.35-5.52c-.13-2-.27-3.95-.25-5.07h0c-.42,1.19-.87,2.45-1.56,4.19L47.48,264h-.34l-2.38-6.27c-.69-1.84-1.17-3.13-1.52-4.35h0c0,1.31-.12,3.29-.27,5.24L42.55,264H42l.83-11.32h.55L46,259.58c.54,1.47.95,2.55,1.29,3.6h0c.3-1,.71-2,1.3-3.54l2.73-7H52Z"/><path class="cls-1" d="M66.41,253.54a.31.31,0,0,1-.33.23c-.48,4.35-2.08,9.18-4.5,9.18-1,0-2.11-1.2-2.11-3.42a6.52,6.52,0,0,1,6.66-6.6c4.39,0,6,2.92,6,5.61,0,3.6-2.22,5.25-5.75,6,0-.09-.19-.33-.25-.45,3.48-.66,5.52-2.36,5.52-5.52,0-2.5-1.51-5.17-5.55-5.17H65.9Zm-.78-.13a6.09,6.09,0,0,0-5.71,6.12c0,1.84.9,2.92,1.67,2.92C63.63,262.45,65.16,257.93,65.63,253.4Z"/><path class="cls-1" d="M89.75,254.23a.17.17,0,0,1-.13.1,18.69,18.69,0,0,1-2.29,5.15,24.73,24.73,0,0,1,2.13,1.36l-.3.41a20,20,0,0,0-2.08-1.37,14.54,14.54,0,0,1-5.67,4.93,1.32,1.32,0,0,0-.36-.34,14.54,14.54,0,0,0,5.59-4.83,26.6,26.6,0,0,0-3.85-1.75l.24-.42a28.62,28.62,0,0,1,3.88,1.77,17.17,17.17,0,0,0,2.14-4.7H83.29a15.7,15.7,0,0,1-3.63,4.4,3.87,3.87,0,0,0-.36-.33,17.06,17.06,0,0,0,4.84-7l.73.21c-.06.13-.18.17-.36.15-.24.57-.63,1.42-1,2.05h5.67l.12,0Z"/><path class="cls-1" d="M96.72,257.74h12.52v.5h-12a.57.57,0,0,1-.43.27Z"/><path class="cls-1" d="M128.39,255.56V256H124.3a.32.32,0,0,1-.25.17c-.41,3.66-1.91,6.74-5.14,8.58a2.92,2.92,0,0,0-.41-.33c3.24-1.74,4.71-4.65,5.08-8.42h-4.75a12.79,12.79,0,0,1-2.5,3.25,1.37,1.37,0,0,0-.41-.27,15.81,15.81,0,0,0,4.17-7.17l.84.22a.37.37,0,0,1-.39.2,23.89,23.89,0,0,1-1.46,3.29Zm-3.3-3.57a11,11,0,0,1,2,2.26l-.36.27a10.38,10.38,0,0,0-2-2.24Zm2-.88a10.92,10.92,0,0,1,2,2.26l-.36.27a10.36,10.36,0,0,0-2-2.24Z"/><path class="cls-1" d="M136.46,255.82a16.85,16.85,0,0,1,1.17,3.27l-.42.11a16.4,16.4,0,0,0-1.15-3.21Zm9.11,0c0,.1-.14.12-.27.12-1.14,4.35-3.24,7.08-7,8.61-.06-.09-.2-.27-.27-.36,3.84-1.54,5.75-4.06,6.92-8.55Zm-5.42-.72a20.73,20.73,0,0,1,.67,3.46l-.42.06a18.6,18.6,0,0,0-.69-3.42Z"/><path class="cls-1" d="M161.53,259.45a59.27,59.27,0,0,0-5.65-2.58v7.84h-.5V251.78l.85.06c0,.15-.13.22-.36.27v4.5l.12-.2a57.38,57.38,0,0,1,5.82,2.61Z"/><path class="cls-1" d="M172,266a10.16,10.16,0,0,1-2.43-6.85,10.43,10.43,0,0,1,2.43-6.95h.58a10.27,10.27,0,0,0-2.45,7,10.42,10.42,0,0,0,2.45,6.84Z"/><path class="cls-1" d="M191.19,261.09v.45h-5.91v3.63h-.45v-3.63h-7.29v-.45h2.61v-4.23h4.68v-2.92h-4.25a13.79,13.79,0,0,1-2.54,3.17,2.29,2.29,0,0,0-.37-.25,14.57,14.57,0,0,0,3.69-5.54l.64.21c0,.11-.15.13-.29.12a17.26,17.26,0,0,1-.88,1.84h9.72v.45h-5.28v2.92h5v.45h-5v3.78Zm-10.59,0h4.23v-3.78H180.6Z"/><path class="cls-1" d="M204.54,255.43v.45h-7.36v-.45h1.29v-3.12l.67.06c0,.08-.08.13-.23.15v2.91h1.92v-4.05l.68.06c0,.08-.08.13-.23.15V253H204v.45h-2.71v2Zm-.5,1.09a13.3,13.3,0,0,0,3.18-5.16l.73,0a.23.23,0,0,1-.17.17,17,17,0,0,0,3.17,4.72c-.09.11-.24.27-.32.38a18.35,18.35,0,0,1-3.16-4.77,14.75,14.75,0,0,1-3.12,5,.79.79,0,0,0-.15-.18.26.26,0,0,1-.19.09V265h-.45v-1h-5.31v1.13h-.45v-8.58l.67.06c0,.08-.08.13-.22.15v6.79h5.31v-7l.58,0Zm-.87,3.34h-2v.38c.42.31,1.68,1.32,2,1.59l-.29.36c-.32-.32-1.16-1-1.71-1.46v2.46h-.45v-3a8.63,8.63,0,0,1-1.93,2.5,2.26,2.26,0,0,0-.29-.37,7.89,7.89,0,0,0,1.93-2.49h-1.77v-.45h2.05V256.7l.67.06c0,.07-.07.13-.22.15v2.5h2Zm-3.52-1a5.09,5.09,0,0,0-.75-1.74l.38-.13a5,5,0,0,1,.79,1.72Zm2.08-.09a12.32,12.32,0,0,0,.84-1.82l.57.23a.24.24,0,0,1-.24.12c-.21.46-.53,1.14-.81,1.63Zm8.56-.25v4.15c0,.33-.08.5-.36.58a6.59,6.59,0,0,1-1.79.09,2.26,2.26,0,0,0-.2-.45l1.21,0c.6,0,.67,0,.67-.24V259h-2.64v6.15h-.45V259h-1.9v-.45Zm-4.83-2.48h4v.45h-4Z"/><path class="cls-1" d="M221.62,258.26a1.27,1.27,0,1,1-1.27-1.27A1.27,1.27,0,0,1,221.62,258.26Z"/><path class="cls-1" d="M231,254.32a8.31,8.31,0,0,1-.86,3.83l-.41-.2a8.32,8.32,0,0,0,.83-3.71Zm1,10.81V251.36l.67.06c0,.07-.08.13-.22.15v13.56Zm1.49-11.37a12.26,12.26,0,0,1,1.14,2.43l-.37.25a13.3,13.3,0,0,0-1.14-2.5Zm5.61,10.35h4.38v.45h-9.46v-.45h4.63v-4.23h-3.49v-.45h3.49v-3.82h-2.82a13,13,0,0,1-1.23,2.7,2.14,2.14,0,0,0-.37-.2,19,19,0,0,0,2.1-6l.67.18c0,.09-.12.13-.29.13a24.8,24.8,0,0,1-.74,2.76h2.67v-3.79l.67.06c0,.07-.07.13-.22.15v3.58h3.9v.45h-3.9v3.82h3.48v.45h-3.48Z"/><path class="cls-1" d="M250.65,256.76v-4.7h5.82v4.7H253c-.06.64-.12,1.36-.22,2.11h3.43l.25,0c0,.06,0,.12,0,.2-.2,4-.36,5.32-.75,5.76s-.54.3-1.16.3c-.42,0-1,0-1.62-.06a1.12,1.12,0,0,0-.13-.43c.87.08,1.73.08,2,.08s.43,0,.54-.15c.31-.33.51-1.65.67-5.26H252.7c-.34,2.17-1,4.48-2.56,5.82a2,2,0,0,0-.34-.24c2-1.74,2.55-5.45,2.73-8.14Zm.45-4.25v3.79H256v-3.79Zm7.32,9v-8.31l.68.06c0,.08-.08.14-.23.15v8.1Zm3.9-9.85.67.06c0,.09-.08.14-.22.15v12.48c0,.5-.2.67-.54.76a13.53,13.53,0,0,1-2.48.08,2.84,2.84,0,0,0-.21-.43h1.32c1.35,0,1.46,0,1.46-.41Z"/><path class="cls-1" d="M269.71,252.25a11,11,0,0,1,0,13.8h-.58a10.52,10.52,0,0,0,2.44-6.92,10.31,10.31,0,0,0-2.44-6.88Z"/><path class="cls-1" d="M288,254.59l.57,0c1.92,0,3.18,1.14,3.18,2.82,0,1.92-1.37,2.91-3.21,2.91a5.52,5.52,0,0,1-3.15-1.09,2.39,2.39,0,0,0,.19-.45,5.11,5.11,0,0,0,3,1.06c1.36,0,2.7-.63,2.7-2.46,0-1.44-1-2.31-2.67-2.31a21.88,21.88,0,0,0-5.52,1.4c.63,2.19,1.63,5.91,2.28,8.32l-.53.12c-.52-2.26-1.6-6.17-2.22-8.28l-3.33,1.12a.42.42,0,0,1-.24.33l-.3-.66c1-.33,2.64-.87,3.74-1.25-.5-1.68-.93-3.12-1.16-3.86l.95-.19c0,.19-.06.27-.33.4.42,1.46.69,2.34,1,3.48a27.68,27.68,0,0,1,4.89-1.38,13.71,13.71,0,0,0-2.91-2.67l.32-.34a13.5,13.5,0,0,1,3.06,2.8Z"/><path class="cls-1" d="M298.88,261.34a31.42,31.42,0,0,1,3.5,3.41l-.43.42a31.12,31.12,0,0,0-3.44-3.46Z"/><path class="cls-1" d="M311.63,251.54a9,9,0,0,1,1.64,2.1,12.88,12.88,0,0,0,1.54-2.25l.55.3a.23.23,0,0,1-.24.08,13.67,13.67,0,0,1-1.65,2.26,12.15,12.15,0,0,1,1,5.52c0,2.31-.15,4.49-.68,5.19-.25.34-.58.42-1.54.42-.22,0-.46,0-.69,0a1.11,1.11,0,0,0-.18-.46l.92,0c.58,0,1,0,1.14-.25.43-.55.58-2.8.58-4.91,0-.61,0-1.21-.06-1.81a12.2,12.2,0,0,1-2.74,3.57,1.61,1.61,0,0,0-.33-.39,10.52,10.52,0,0,0,3-4,9.37,9.37,0,0,0-.72-2.56,19.59,19.59,0,0,1-1.89,1.81,2.83,2.83,0,0,0-.33-.25,17.68,17.68,0,0,0,2-2,8.5,8.5,0,0,0-1.67-2.2Zm4.79,8.66V256a9.76,9.76,0,0,1-1.33,1.53,2.23,2.23,0,0,0-.34-.29,10.71,10.71,0,0,0,2.5-3.6l.63.21c0,.09-.12.12-.27.12-.17.36-.36.72-.57,1.08h2.76a12.06,12.06,0,0,0,.67-1.3l.63.21c0,.08-.12.12-.25.12a8.68,8.68,0,0,1-.57,1h4.16v.45h-4v1.08h3.46V257h-3.46v1.14h3.46v.45h-3.46v1.17h4.42v.45Zm6.94.9.36.24a.25.25,0,0,1-.15.09,7.66,7.66,0,0,1-3.12,2.33,17.5,17.5,0,0,0,4.56,1,1.62,1.62,0,0,0-.29.4,17.46,17.46,0,0,1-4.8-1.21,22.24,22.24,0,0,1-4.84,1.23,1.85,1.85,0,0,0-.29-.42,22.06,22.06,0,0,0,4.59-1,6.87,6.87,0,0,1-2.52-2l.34-.15h-1.46v-.45h7.5Zm-8.16-8.49h2.71v-1.25l.67.06c0,.07-.08.13-.22.15v1h3.06v-1.25l.67.06c0,.07-.08.13-.22.15v1h3v.45h-3v1.14h-.45v-1.14h-3.06v1.14h-.45v-1.14H315.2Zm4.79,3.93v-1.08h-3.12v1.08Zm0,1.59V257h-3.12v1.14Zm0,1.62v-1.17h-3.12v1.17Zm-2.7,1.83a6.52,6.52,0,0,0,2.63,2,7.76,7.76,0,0,0,2.92-2Z"/><path class="cls-1" d="M333.39,257.51a20.15,20.15,0,0,1-2,2.25,2.38,2.38,0,0,0-.34-.31,20.25,20.25,0,0,0,3.76-4.79l.62.24c0,.09-.14.12-.29.12q-.56.94-1.26,1.89l.22.08a.27.27,0,0,1-.24.13v8h-.45Zm1.69-5.89c0,.11-.18.12-.27.11A23.85,23.85,0,0,1,331.4,255a1.55,1.55,0,0,0-.32-.31,17.71,17.71,0,0,0,3.39-3.3ZM345,260.3v.45h-2.49v3.71c0,.39-.1.55-.45.64a12.8,12.8,0,0,1-2.28.09,2.26,2.26,0,0,0-.2-.45H341c1.06,0,1.08,0,1.08-.3v-3.71h-6.72v-.45H342v-1.75h-6.41v-.45h9.12v.45h-2c0,.06-.09.11-.23.14v1.62Zm-1.35-8.43v4.77h-7v-4.77Zm-4.65,12a13.63,13.63,0,0,0-2-2.33l.36-.22a13,13,0,0,1,2,2.26Zm4.2-9.87v-1.7H337.1V254Zm0,2.17v-1.72H337.1v1.72Z"/><path class="cls-1" d="M354,252c0,.17-.17.27-.46.3-.12,1.58-.27,5.87-.27,8.1,0,2.46,1.2,3.66,3.3,3.66a7.43,7.43,0,0,0,5.79-3.12,1.53,1.53,0,0,0,.38.33,8,8,0,0,1-6.18,3.27c-2.32,0-3.78-1.41-3.78-4.17,0-1.8.15-6.66.27-8.53Z"/><path class="cls-1" d="M373.46,251.74c0,.15-.25.27-.45.27-.1.73-.25,1.54-.42,2.62a17.82,17.82,0,0,0,4.72-.9l.17.46a19.48,19.48,0,0,1-5,.93,35.77,35.77,0,0,1-2.85,9.6l-.46-.19a34.15,34.15,0,0,0,2.8-9.39h-3v-.5c.24,0,.56,0,.9,0s1.72,0,2.14,0c.17-1,.33-2.1.45-3Zm8,12.78-1.28,0a13.81,13.81,0,0,1-3.82-.39,1.94,1.94,0,0,1-1.42-1.91,3.51,3.51,0,0,1,.91-2.16l.39.25a3.2,3.2,0,0,0-.84,1.91c0,1.35,1.23,1.82,4.44,1.82.51,0,1,0,1.61-.06Zm-.46-7.3a16.21,16.21,0,0,0-5.36.75l-.15-.43a17.54,17.54,0,0,1,5.52-.79Z"/><path class="cls-1" d="M389.35,253.34c0,.15-.19.22-.43.24a24,24,0,0,0-.21,3.33c0,.72,0,1.41.08,2,.21,2.91,1.46,4.59,2.79,4.57.66,0,1.56-1.56,2.23-3.52a2.39,2.39,0,0,0,.42.24c-.76,2.05-1.63,3.76-2.68,3.78-1.58,0-3-1.87-3.24-5-.06-.6-.08-1.29-.08-2,0-1.28.08-2.64.2-3.83Zm11,6.79a7.75,7.75,0,0,0-3.95-5.8l.29-.39a8.1,8.1,0,0,1,4.15,6.07Z"/><path class="cls-1" d="M408.19,257.59V262h5.07v.45h-5.07v1.29h-.45V253l.42.18a27.82,27.82,0,0,0,4.47-1.8l.54.39a.21.21,0,0,1-.14,0l-.1,0a37.11,37.11,0,0,1-4.74,1.79v3.52H413v.45Zm11.7-4.71v9c0,.42-.14.62-.48.71a17.86,17.86,0,0,1-2.52.08,2.61,2.61,0,0,0-.2-.42H418c1.33,0,1.41,0,1.41-.36v-8.54h-5v11.85H414v-12.3Z"/><path class="cls-1" d="M434,257.65a11.48,11.48,0,0,0,1.35,2.91,27.91,27.91,0,0,0,3.9-2.61l.5.36a.29.29,0,0,1-.24.07,33.72,33.72,0,0,1-4,2.46,8.82,8.82,0,0,0,4.73,3.46,1.82,1.82,0,0,0-.3.38,10.18,10.18,0,0,1-6.37-7,13.6,13.6,0,0,1-1.87.94c2.22,1.35,3.22,3.2,3.22,4.56a1.87,1.87,0,0,1-2.05,2c-.34,0-.79,0-1.32,0a1.47,1.47,0,0,0-.13-.43c.53,0,1,0,1.37,0a1.48,1.48,0,0,0,1.68-1.59,3.63,3.63,0,0,0-.53-1.77,19.54,19.54,0,0,1-6.79,3.57,2.68,2.68,0,0,0-.32-.41,18,18,0,0,0,6.88-3.54,6.62,6.62,0,0,0-.93-1.07,18.73,18.73,0,0,1-5.43,2.43,2.14,2.14,0,0,0-.35-.4,17.59,17.59,0,0,0,5.46-2.31,8.44,8.44,0,0,0-1.2-.85,35.42,35.42,0,0,1-4.06,1.3,3.11,3.11,0,0,0-.29-.39,24.45,24.45,0,0,0,5.85-2.08h-4.53v-2.82c-.39.29-.81.57-1.26.84a1,1,0,0,0-.33-.29,13.83,13.83,0,0,0,4.45-4l.66.09c0,.09-.1.15-.27.15q-.31.43-.72.9h4.06l.09,0,.33.25a.13.13,0,0,1-.12.08,8.21,8.21,0,0,1-1.25,1.62h4.71v3.25Zm-5.29-2.8v2.35h4.41v-2.35Zm4.63-.45a8,8,0,0,0,1.18-1.47h-4.14a19,19,0,0,1-1.58,1.47Zm4.83,2.8v-2.35h-4.6v2.35Z"/><path class="cls-1" d="M449,266a10.16,10.16,0,0,1-2.43-6.85,10.43,10.43,0,0,1,2.43-6.95h.58a10.27,10.27,0,0,0-2.45,7,10.42,10.42,0,0,0,2.45,6.84Z"/><path class="cls-1" d="M460.33,254.62l.3.11a.34.34,0,0,1-.08.12A19.09,19.09,0,0,1,459,261.4a11.81,11.81,0,0,1,1.86,1.66l-.29.38a11.54,11.54,0,0,0-1.79-1.62,8.11,8.11,0,0,1-3.12,3.36,1.93,1.93,0,0,0-.33-.39,7.64,7.64,0,0,0,3.08-3.25,19.23,19.23,0,0,0-2.34-1.49l-.21.77-.42-.23c.41-1.37.95-3.45,1.42-5.49h-1.74v-.45H457c.27-1.17.52-2.31.72-3.27l.67.11c0,.09-.09.13-.24.13-.19.88-.43,1.94-.69,3h2.82Zm-3,.48c-.37,1.57-.78,3.19-1.14,4.53a23,23,0,0,1,2.43,1.49,17.71,17.71,0,0,0,1.47-6Zm11.59,3.06v.45h-3.84v5.74c0,.46-.13.65-.51.74a13.82,13.82,0,0,1-2.45.08,2.89,2.89,0,0,0-.19-.46l1.71,0c.93,0,1,0,1-.36v-5.76h-4v-.45h4v-2.71l.42,0a14.52,14.52,0,0,0,2.82-2.87h-6.58v-.45h6.94l.11,0,.38.25a.31.31,0,0,1-.15.09,16.62,16.62,0,0,1-3.48,3.48v2.19Z"/><path class="cls-1" d="M476.6,253.51v1.81A9.32,9.32,0,0,1,475,261a1,1,0,0,0-.34-.3,8.79,8.79,0,0,0,1.5-5.42v-2.26h6.21a13.22,13.22,0,0,1-.21-1.7l.74,0c0,.1-.09.15-.24.17,0,.5.09,1,.17,1.5h5.59v.45h-5.5a15.11,15.11,0,0,0,1.54,4.14,12.45,12.45,0,0,0,1.67-3l.65.19c0,.09-.14.14-.29.14a12.42,12.42,0,0,1-1.79,3.13c.88,1.41,1.89,2.35,2.75,2.34.45,0,.61-.55.71-2a1.27,1.27,0,0,0,.42.22c-.12,1.71-.39,2.28-1.12,2.28-1,0-2.1-1-3-2.45a11.41,11.41,0,0,1-2.67,2.33,1.72,1.72,0,0,0-.34-.3,10.68,10.68,0,0,0,2.76-2.42,15.62,15.62,0,0,1-1.7-4.53Zm.72,8.1a4,4,0,0,1-2.25,3.06l-.35-.27a3.81,3.81,0,0,0,2.19-2.89Zm-.11-6.37v-.45h4.86v.45Zm4.38,4.14h-3.46V260h-.45V256.4h3.92Zm-.45-2.52h-3v2.07h3Zm-2,7.2c0,.34.15.42,1.05.42h3.4c.74,0,.84-.19.9-1.75a1.47,1.47,0,0,0,.45.2c-.08,1.65-.27,2-1.32,2h-3.39c-1.21,0-1.54-.12-1.54-.88v-2.57l.67.06c0,.08-.08.13-.23.15Zm3.39-1.5a9.91,9.91,0,0,0-2.9-1.83l.3-.31a9.34,9.34,0,0,1,2.91,1.79Zm2.08-11.22a7.41,7.41,0,0,1,2.26,1.1l-.27.39a7.59,7.59,0,0,0-2.26-1.14Zm3.48,13.29a10.65,10.65,0,0,0-2.92-2.94l.34-.25a10.47,10.47,0,0,1,2.94,2.92Z"/><path class="cls-1" d="M508.54,260.24h-3.15a6,6,0,0,1-2.54,2.94,36.63,36.63,0,0,1,5.29,1.61l-.3.39a37.83,37.83,0,0,0-5.55-1.7,18.46,18.46,0,0,1-7.18,1.64,1.37,1.37,0,0,0-.21-.45,19.87,19.87,0,0,0,6.71-1.33c-1.28-.29-2.62-.54-4-.76-.15.21-.3.4-.45.58l-.41-.21c.58-.72,1.32-1.71,2-2.7h-4v-.45h4.32c.44-.62.84-1.2,1.19-1.72l.63.21c0,.08-.14.1-.29.09l-1,1.42h8.91Zm-8.94-5.89v-1.74H494.9v-.45h13.51v.45h-4.77v1.74h3.62V258H496.09v-3.61Zm-3.06.45v2.71h3.06v-2.71Zm2.78,5.45c-.48.67-1,1.35-1.44,2,1.49.22,3,.51,4.33.83a6,6,0,0,0,2.67-2.79Zm3.88-5.89v-1.74H500v1.74Zm-3.15.45v2.71h3.15v-2.71Zm6.76,0h-3.17v2.71h3.17Z"/><path class="cls-1" d="M1.5,280.14H14v13h-.45v-.76H2v.76H1.5ZM2,292H13.57V280.59H2Zm10.48-7.12H8.17c.6,2.79,2,4.67,4.38,5.5a1.38,1.38,0,0,0-.33.39c-2.46-1-3.88-2.9-4.5-5.9h0c-.41,2.76-1.42,4.83-4.41,6a1.37,1.37,0,0,0-.31-.35c2.83-1.06,3.85-3,4.27-5.64H3v-.45H7.32c.12-.89.17-1.85.21-2.87l.71,0c0,.1-.11.17-.27.2,0,.93-.09,1.8-.2,2.63h4.67Z"/><path class="cls-1" d="M20.92,280.25a11,11,0,0,1,0,13.8h-.58a10.52,10.52,0,0,0,2.44-6.92,10.31,10.31,0,0,0-2.44-6.88Z"/><path class="cls-1" d="M33.46,285.54a4.32,4.32,0,0,1,2.66-1.12c1.13,0,1.69.81,1.86,2.07,1.33-.62,3-1.3,4.33-1.8l.32.63h-.09a.43.43,0,0,1-.23-.09c-1.16.41-2.92,1.11-4.27,1.74a11.63,11.63,0,0,1,.06,1.33c0,.55,0,1.18-.06,1.84h-.54c0-.58.08-1.38.08-2.07a7.93,7.93,0,0,0,0-.9c-2,1-3.79,2.16-3.79,3.3S34.92,292,37.26,292a33.64,33.64,0,0,0,3.79-.15v.51c-1,.09-2.35.12-3.79.12-2.88,0-4-.72-4-2s1.88-2.61,4.21-3.78c-.12-1.29-.67-1.8-1.38-1.8-1.17,0-2.37.69-3.81,2.26a22.87,22.87,0,0,1-1.71,1.64l-.33-.35a10.92,10.92,0,0,0,4-6H30.54V282h3.78a21.63,21.63,0,0,0,.46-2.26l.88.15c0,.15-.13.24-.36.25a18.88,18.88,0,0,1-.44,1.86,21.7,21.7,0,0,0,5.58-.92l.1.5a22.37,22.37,0,0,1-5.82.9,11.87,11.87,0,0,1-1.3,3.07Z"/><path class="cls-1" d="M55.09,280.38h.43a13.54,13.54,0,0,0,6.69,12.39,2,2,0,0,0-.37.35,13.47,13.47,0,0,1-6.54-9.76c-1.08,4.57-3.09,7.87-6.6,9.76a3.89,3.89,0,0,0-.36-.33c3.5-1.83,5.49-5.13,6.54-9.76l.39.1a20.08,20.08,0,0,1-.18-2.28H51v-.45h4.08Z"/><path class="cls-1" d="M80.89,282.87h.21l.25,0v.15c-.27,6.79-.5,9-1.09,9.66-.33.38-.69.41-1.31.41s-1.35,0-2.14-.09a.93.93,0,0,0-.15-.45c1.13.09,2.16.1,2.52.1a.78.78,0,0,0,.67-.21c.51-.52.79-2.79,1-9.15H74.73a11.78,11.78,0,0,1-5.8,9.88,1.3,1.3,0,0,0-.33-.32,11.38,11.38,0,0,0,5.69-9.57H69v-.45h5.28c0-.45,0-.9,0-1.32v-2.16l.67.06c0,.08-.08.14-.23.15v2c0,.42,0,.87,0,1.32Z"/><path class="cls-1" d="M88.33,282.24c1.23,0,5.5-.17,7.35-.24,0-.25-.09-2.47-.09-2.5l.9,0c0,.13-.1.25-.39.3,0,.48,0,1.37.06,2.16,1.76-.06,3.66-.11,5-.12v.51c-1.41,0-3.25,0-5,.09,0,1.27,0,2,.12,3.36a5.22,5.22,0,0,1,.17,1.56c0,1.43-.12,3.95-4.42,5.71l-.32-.4c2.76-1,4-2.58,4.26-4.35h0a2.34,2.34,0,0,1-2.05,1.14,2.46,2.46,0,0,1-2.42-2.55,2.7,2.7,0,0,1,2.58-2.73,2.36,2.36,0,0,1,1.69.63c0-.09,0-.17,0-.22,0-.33,0-1.21-.06-2.13-2.07.06-5.77.18-7.35.25ZM95.92,287c0-1-.2-2.31-1.8-2.31A2.13,2.13,0,0,0,92,287a2,2,0,1,0,3.93.06Z"/><path class="cls-1" d="M110.5,286.17a10,10,0,0,1,4.32-1.08c2.46,0,3.9,1.38,3.9,3.5,0,2.73-2.41,4.2-5.23,4.2-2,0-3.29-.71-3.29-1.91a2.11,2.11,0,0,1,2.34-1.86,3.28,3.28,0,0,1,3.06,3,3.53,3.53,0,0,0,2.64-3.37c0-1.86-1.29-3-3.43-3a9.3,9.3,0,0,0-5.78,2.05c-.5.48-1.06,1.13-1.48,1.62l-.36-.36c1.53-1.67,6.18-6.12,8.23-8.05-1,.13-4.24.24-6.31.3a.42.42,0,0,1-.27.23l-.11-.71c2.12,0,5.75-.15,6.9-.32l.21-.1.53.57a.76.76,0,0,1-.32.14c-1.26,1.06-4.42,4.11-5.55,5.23Zm3,6.15a6.77,6.77,0,0,0,1.67-.21,2.85,2.85,0,0,0-2.62-2.64c-1,0-1.85.53-1.85,1.4C110.66,292,112.21,292.32,113.47,292.32Z"/><path class="cls-1" d="M136.53,291.51a26.65,26.65,0,0,1-4.67.39,15,15,0,0,1-2.76-.2,2.72,2.72,0,0,1-2.47-2.71,4.94,4.94,0,0,1,1.59-3.24l.38.27a4.65,4.65,0,0,0-1.49,3c0,1,.67,1.84,2.13,2.19a12.84,12.84,0,0,0,2.58.2,24.55,24.55,0,0,0,4.67-.42Zm-3.17-9.45c-1.39.15-4.35.21-6.28.21v-.5c.52,0,6.36.06,8.44-.51l.12.51a5,5,0,0,0-1.67.5,20.18,20.18,0,0,0-3.48,2.19l-.31-.34a21.29,21.29,0,0,1,3.18-2Z"/><path class="cls-1" d="M154.42,284.24h-.12a.57.57,0,0,1-.29-.08c-4.41,1.37-8.91,3.57-8.91,5.87,0,1.67,1.9,2.19,4.6,2.19a42.35,42.35,0,0,0,5.25-.3l0,.51a45.61,45.61,0,0,1-5.28.25c-3,0-5.1-.66-5.1-2.64,0-1.62,1.74-3.07,4.17-4.3-.47-.78-.68-2.58-.68-6.07l.95.09c0,.17-.17.3-.45.33,0,3,.12,4.69.62,5.44a39.57,39.57,0,0,1,5-1.92Z"/><path class="cls-1" d="M161.47,281.52c1.19,0,10.47-.79,12.3-.74v.51l-.63,0a4.49,4.49,0,0,0-2.38.66c-2.66,1.53-4.94,4.18-4.94,6.27,0,2.37,1.44,3.79,5.46,4.38l-.19.46c-4.26-.67-5.78-2.13-5.78-4.84,0-2.31,2.36-5,5.45-6.84-1.5.09-6.58.45-8.92.66a.45.45,0,0,1-.3.22Zm9.51,2.54a11.68,11.68,0,0,1,2.17,2.11l-.34.29a10.46,10.46,0,0,0-2.13-2.1Zm1.5-1.31a10.85,10.85,0,0,1,2.17,2.12l-.34.29a10.9,10.9,0,0,0-2.13-2.1Z"/><path class="cls-1" d="M181.28,289.34a31.42,31.42,0,0,1,3.5,3.41l-.43.42a31.12,31.12,0,0,0-3.44-3.46Z"/><path class="cls-1" d="M194.15,279.57a9.66,9.66,0,0,1,1.86,2,12.48,12.48,0,0,0,1.69-2.22l.54.3a.21.21,0,0,1-.22.08,14.86,14.86,0,0,1-1.79,2.22,10.62,10.62,0,0,1,1.2,5.59c0,2.37-.17,4.33-.75,5.12-.24.33-.51.46-1.82.46-.24,0-.49,0-.75,0a1.2,1.2,0,0,0-.19-.48c.4,0,.81,0,1.14,0,.86,0,1.08-.06,1.28-.32.48-.61.64-2.62.64-4.81a16.26,16.26,0,0,0-.09-1.92,12.71,12.71,0,0,1-3.22,3.69,1.53,1.53,0,0,0-.32-.39,11,11,0,0,0,3.45-4,8,8,0,0,0-.9-2.64,22.6,22.6,0,0,1-2.13,1.83,3,3,0,0,0-.31-.27,17.9,17.9,0,0,0,2.23-1.93,9.09,9.09,0,0,0-1.86-2.1ZM206,292.25h1.3v.45h-9.66v-.45h1.91v-12.1H206Zm-.45-11.65H200v3.48h5.55Zm0,7.53v-3.6H200v3.6Zm-5.55.45v3.67h5.55v-3.67Z"/><path class="cls-1" d="M213.77,285.39c.21,0,.79-.23,1.23-.36a21.6,21.6,0,0,1,5.44-1.14c2,0,3.76,1.08,3.76,3.48,0,3.2-3.4,4.42-7.15,4.72a3.34,3.34,0,0,0-.12-.42c3.45-.27,6.79-1.35,6.79-4.29,0-2.11-1.51-3-3.29-3a20.4,20.4,0,0,0-5.28,1.13c-.39.12-.78.27-1,.33a.26.26,0,0,1-.18.23Z"/><path class="cls-1" d="M235.37,279.74c0,.15-.25.27-.45.27-.1.73-.25,1.54-.42,2.62a17.82,17.82,0,0,0,4.72-.9l.17.46a19.48,19.48,0,0,1-5,.93,35.77,35.77,0,0,1-2.85,9.6l-.46-.19a34.15,34.15,0,0,0,2.8-9.39h-3v-.5c.24,0,.56,0,.9,0s1.72,0,2.14,0c.17-1,.33-2.1.45-3Zm8,12.78-1.28,0a13.81,13.81,0,0,1-3.82-.39,1.94,1.94,0,0,1-1.42-1.91,3.51,3.51,0,0,1,.91-2.16l.39.25a3.2,3.2,0,0,0-.84,1.91c0,1.35,1.23,1.82,4.44,1.82.51,0,1,0,1.61-.06Zm-.46-7.3a16.21,16.21,0,0,0-5.36.75l-.15-.43a17.54,17.54,0,0,1,5.52-.79Z"/><path class="cls-1" d="M255.07,282.62l.3.11a.34.34,0,0,1-.08.12,19.09,19.09,0,0,1-1.58,6.55,11.81,11.81,0,0,1,1.86,1.66l-.29.38a11.54,11.54,0,0,0-1.79-1.62,8.11,8.11,0,0,1-3.12,3.36,1.93,1.93,0,0,0-.33-.39,7.64,7.64,0,0,0,3.08-3.25,19.23,19.23,0,0,0-2.34-1.49l-.21.77-.42-.23c.41-1.37.95-3.45,1.42-5.49h-1.74v-.45h1.85c.27-1.17.52-2.31.72-3.27l.67.11c0,.09-.09.13-.24.13-.19.88-.43,1.94-.69,3H255Zm-3,.48c-.37,1.57-.78,3.19-1.14,4.53a23,23,0,0,1,2.43,1.49,17.71,17.71,0,0,0,1.47-6Zm11.59,3.06v.45h-3.84v5.74c0,.46-.13.65-.51.74a13.82,13.82,0,0,1-2.45.08,2.89,2.89,0,0,0-.19-.46l1.71,0c.93,0,1,0,1-.36v-5.76h-4v-.45h4v-2.71l.42,0a14.52,14.52,0,0,0,2.82-2.87H256v-.45H263l.11,0,.38.25a.31.31,0,0,1-.15.09,16.62,16.62,0,0,1-3.48,3.48v2.19Z"/><path class="cls-1" d="M271.39,281.51v1.81a9.32,9.32,0,0,1-1.6,5.71,1,1,0,0,0-.34-.3,8.79,8.79,0,0,0,1.5-5.42v-2.26h6.21a13.22,13.22,0,0,1-.21-1.7l.74,0c0,.1-.09.15-.24.17,0,.5.09,1,.17,1.5h5.59v.45h-5.5a15.11,15.11,0,0,0,1.54,4.14,12.45,12.45,0,0,0,1.67-3l.65.19c0,.09-.14.14-.29.14a12.42,12.42,0,0,1-1.79,3.13c.88,1.41,1.89,2.35,2.75,2.34.45,0,.62-.55.71-2a1.27,1.27,0,0,0,.42.22c-.12,1.71-.39,2.28-1.12,2.28-1,0-2.1-1-3-2.45a11.41,11.41,0,0,1-2.67,2.33,1.72,1.72,0,0,0-.34-.3,10.68,10.68,0,0,0,2.76-2.42,15.62,15.62,0,0,1-1.7-4.53Zm.72,8.1a4,4,0,0,1-2.25,3.06l-.35-.27a3.81,3.81,0,0,0,2.19-2.89Zm-.11-6.37v-.45h4.86v.45Zm4.38,4.14h-3.46V288h-.45V284.4h3.92Zm-.45-2.52h-3v2.07h3Zm-2,7.2c0,.34.15.42,1.05.42h3.4c.74,0,.84-.19.9-1.75a1.47,1.47,0,0,0,.45.2c-.08,1.65-.27,2-1.32,2h-3.39c-1.21,0-1.54-.12-1.54-.88v-2.57l.67.06c0,.08-.08.13-.23.15Zm3.39-1.5a9.91,9.91,0,0,0-2.9-1.83l.3-.31a9.34,9.34,0,0,1,2.91,1.79Zm2.08-11.22a7.41,7.41,0,0,1,2.26,1.1l-.27.39a7.59,7.59,0,0,0-2.26-1.14Zm3.48,13.29a10.65,10.65,0,0,0-2.92-2.94l.34-.25a10.47,10.47,0,0,1,2.94,2.92Z"/><path class="cls-1" d="M303.37,288.24h-3.15a6,6,0,0,1-2.54,2.94,36.63,36.63,0,0,1,5.29,1.61l-.3.39a37.83,37.83,0,0,0-5.55-1.7,18.46,18.46,0,0,1-7.18,1.64,1.37,1.37,0,0,0-.21-.45,19.87,19.87,0,0,0,6.71-1.33c-1.28-.29-2.62-.54-4-.76-.15.21-.3.4-.45.58l-.41-.21c.58-.72,1.32-1.71,2-2.7h-4v-.45h4.32c.44-.62.84-1.2,1.19-1.72l.63.21c0,.08-.14.1-.29.09l-1,1.42h8.91Zm-8.94-5.89v-1.74h-4.69v-.45h13.51v.45h-4.77v1.74h3.62V286H290.92v-3.61Zm-3.06.45v2.71h3.06v-2.71Zm2.78,5.45c-.48.67-1,1.35-1.44,2,1.49.22,3,.51,4.33.83a6,6,0,0,0,2.67-2.79Zm3.88-5.89v-1.74h-3.15v1.74Zm-3.15.45v2.71H298v-2.71Zm6.76,0h-3.17v2.71h3.17Z"/><path class="cls-1" d="M310,280.14h12.52v13h-.45v-.76H310.48v.76H310Zm.45,11.82h11.62V280.59H310.48ZM321,284.84h-4.26c.6,2.79,2,4.67,4.38,5.5a1.38,1.38,0,0,0-.33.39c-2.46-1-3.88-2.9-4.5-5.9h0c-.41,2.76-1.42,4.83-4.41,6a1.37,1.37,0,0,0-.31-.35c2.83-1.06,3.85-3,4.27-5.64h-4.21v-.45h4.28c.12-.89.17-1.85.21-2.87l.71,0c0,.1-.11.17-.27.2,0,.93-.09,1.8-.2,2.63H321Z"/><path class="cls-1" d="M332.74,285.54a4.32,4.32,0,0,1,2.66-1.12c1.13,0,1.69.81,1.86,2.07,1.33-.62,3-1.3,4.33-1.8l.32.63h-.09a.43.43,0,0,1-.23-.09c-1.16.41-2.92,1.11-4.27,1.74a11.63,11.63,0,0,1,.06,1.33c0,.55,0,1.18-.06,1.84h-.54c0-.58.08-1.38.08-2.07a7.93,7.93,0,0,0,0-.9c-2,1-3.79,2.16-3.79,3.3s1.18,1.54,3.52,1.54a33.64,33.64,0,0,0,3.79-.15v.51c-1,.09-2.35.12-3.79.12-2.88,0-4-.72-4-2s1.88-2.61,4.21-3.78c-.12-1.29-.67-1.8-1.38-1.8-1.17,0-2.37.69-3.81,2.26a22.87,22.87,0,0,1-1.71,1.64l-.33-.35a10.92,10.92,0,0,0,4-6h-3.65V282h3.78a21.64,21.64,0,0,0,.46-2.26l.88.15c0,.15-.13.24-.36.25a18.88,18.88,0,0,1-.44,1.86,21.7,21.7,0,0,0,5.58-.92l.1.5a22.37,22.37,0,0,1-5.82.9,11.87,11.87,0,0,1-1.3,3.07Z"/><path class="cls-1" d="M351,286.4a4.56,4.56,0,0,0,3.55,1.41c.46,0,1.09,0,1.82,0,1.88,0,4.32,0,5.61-.09a1.56,1.56,0,0,0-.17.46c-.74,0-1.84,0-3,0,0,.08-.09.1-.22.13v1.09H362v.45h-3.37v2.54c0,.38-.11.54-.45.63a13.9,13.9,0,0,1-2.49.08,2,2,0,0,0-.19-.41h1.33c1.35,0,1.35,0,1.35-.3v-2.55h-9.94v-.45h9.94v-1.21c-1.37,0-2.71,0-3.55,0a5.07,5.07,0,0,1-3.78-1.41c-.76.54-1.51,1.06-2.16,1.48,0,.11,0,.15-.11.18l-.32-.54a25.79,25.79,0,0,0,2.33-1.49V284h-2.28v-.45H351Zm-2-6.58a8.82,8.82,0,0,1,2.05,1.92l-.36.31a8.89,8.89,0,0,0-2-2Zm4.3,12.63a9.75,9.75,0,0,0-2.46-1.86l.32-.3a10.07,10.07,0,0,1,2.47,1.81Zm-.17-10h3c.11-.31.21-.71.3-1h-4.5v-.45H355a6.11,6.11,0,0,0-1.14-1.32l.38-.23a5.75,5.75,0,0,1,1.25,1.47l-.1.08h2.7a12.25,12.25,0,0,0,1-1.54l.58.24a.21.21,0,0,1-.24.1c-.21.33-.53.81-.83,1.2h3.24v.45h-5c-.09.3-.2.71-.3,1h4v4.47h-7.4Zm6.95,1.32v-.87h-6.5v.87Zm0,1.33v-.89h-6.5v.89Zm0,1.36v-.92h-6.5v.92Z"/><path class="cls-1" d="M376,293a48.77,48.77,0,0,0-5.94-5.77c-.66-.53-1-.95-1-1.35s.3-.78.86-1.29c1.27-1.17,3.75-3.43,5.38-5.1l.69.46a.33.33,0,0,1-.28.12.51.51,0,0,1-.2,0c-1.59,1.56-4.08,3.75-5.31,4.91-.37.36-.63.64-.63.9s.21.57.73,1a50.65,50.65,0,0,1,6.08,5.85Z"/><path class="cls-1" d="M389.51,287.7l.57,5-.48.06-.55-5-5.88.75-.09-.46,5.91-.75-.44-3.88-5,.65-.07-.47,5-.64-.35-3.13.83,0c0,.13-.13.24-.31.29l.31,2.8,4.83-.63.06.48-4.83.63.43,3.88,5.89-.75.08.46Z"/><path class="cls-1" d="M402.35,285.74h12.52v.5h-12a.57.57,0,0,1-.43.27Z"/><path class="cls-1" d="M433,281.34a.27.27,0,0,1-.13.09c-.57,6-2.75,9.12-7.62,11.07a4,4,0,0,0-.33-.37c4.8-1.93,6.9-4.91,7.44-10.48h-9.55V286h-.46v-4.83h10.14l.13-.1Z"/><path class="cls-1" d="M439.91,285.74h12.52v.5h-12a.57.57,0,0,1-.43.27Z"/><path class="cls-1" d="M467.73,287.45a59.27,59.27,0,0,0-5.65-2.58v7.84h-.5V279.78l.85.06c0,.15-.13.22-.36.27v4.5l.12-.2A57.38,57.38,0,0,1,468,287Zm-1.83-6.74a13.27,13.27,0,0,1,2.21,2.33l-.34.29a13.67,13.67,0,0,0-2.19-2.29Zm2-1.24a13.61,13.61,0,0,1,2.19,2.31l-.33.29a13.77,13.77,0,0,0-2.21-2.29Z"/><path class="cls-1" d="M479.92,285.54a4.32,4.32,0,0,1,2.66-1.12c1.13,0,1.69.81,1.86,2.07,1.33-.62,3-1.3,4.33-1.8l.32.63H489a.43.43,0,0,1-.23-.09c-1.16.41-2.92,1.11-4.27,1.74a11.63,11.63,0,0,1,.06,1.33c0,.55,0,1.18-.06,1.84H484c0-.58.08-1.38.08-2.07a7.93,7.93,0,0,0,0-.9c-2,1-3.79,2.16-3.79,3.3s1.18,1.54,3.52,1.54a33.64,33.64,0,0,0,3.79-.15v.51c-1,.09-2.35.12-3.79.12-2.88,0-4-.72-4-2s1.88-2.61,4.21-3.78c-.12-1.29-.67-1.8-1.38-1.8-1.17,0-2.37.69-3.81,2.26a22.87,22.87,0,0,1-1.71,1.64l-.33-.35a10.92,10.92,0,0,0,4-6H477V282h3.78a21.64,21.64,0,0,0,.46-2.26l.88.15c0,.15-.13.24-.36.25a18.88,18.88,0,0,1-.44,1.86,21.7,21.7,0,0,0,5.58-.92l.1.5a22.37,22.37,0,0,1-5.82.9,11.87,11.87,0,0,1-1.3,3.07Z"/><path class="cls-1" d="M502.24,280c0,.09-.09.15-.25.18,0,.06.25,9.49,6.94,12.49a2,2,0,0,0-.34.36c-4.75-2.18-6.27-7.56-6.76-10.68h0c-.39,3.15-1.68,8.29-6.67,10.65a2,2,0,0,0-.31-.3c6.38-3,6.6-10.7,6.71-12.75Z"/><path class="cls-1" d="M7.93,319.42H14.5v.45H1v-.45h6.5v-9.73H1.74v-.45H13.83v.45H7.93Z"/><path class="cls-1" d="M24.46,310v2.92c0,.29,0,.6,0,.9h3.08v.45h-3.1a12.23,12.23,0,0,1-.27,1.73c.66.64,2.59,2.75,3.06,3.27l-.31.38c-.51-.63-2.08-2.4-2.87-3.21a8.2,8.2,0,0,1-3.3,4.46,1.29,1.29,0,0,0-.3-.34A7.93,7.93,0,0,0,24,314.26H20.49v-.45H24c0-.32,0-.62,0-.92V310H22.28a11.19,11.19,0,0,1-1.38,2.88,4.26,4.26,0,0,0-.37-.24,14,14,0,0,0,2-5.28l.67.18q0,.13-.27.13c-.14.63-.3,1.26-.48,1.88H27V310Zm3.81-1.28H33.6V320.6h-.45v-1.2H28.72v1.32h-.45ZM28.72,319h4.42v-9.79H28.72Z"/><path class="cls-1" d="M46.23,311A17,17,0,0,0,44.8,309l.33-.17a16,16,0,0,1,2.19,3.29l-.33.21a10.93,10.93,0,0,0-.52-1c-2.22.12-4.56.22-6,.29,0,.1-.09.15-.18.18l-.21-.65,1.25,0a27.2,27.2,0,0,0,1.77-3.72l.63.19q0,.11-.27.13a36.79,36.79,0,0,1-1.67,3.38Zm.06,2.16v7.3c0,.74-.29.75-2.36.75a1.7,1.7,0,0,0-.2-.5l1.33,0c.71,0,.77,0,.77-.29v-2.23H41.62v3h-.45v-8.1Zm-.45.45H41.62v1.81h4.21Zm-4.21,4.17h4.21v-1.91H41.62Zm10.95-4.28c.69,0,.81-.28.87-2a1.23,1.23,0,0,0,.45.21c-.08,1.75-.25,2.21-1.31,2.21H49.44c-1.14,0-1.47-.17-1.47-1v-5.55l.67.06c0,.07-.08.13-.22.15v2.71a38,38,0,0,0,4.33-1.58l.45.44a.12.12,0,0,1-.1,0l-.14,0a43.69,43.69,0,0,1-4.54,1.54v2.21c0,.45.15.55,1,.55ZM48.42,320c0,.47.17.58,1,.58h3.29c.76,0,.88-.31.95-2.2a1.44,1.44,0,0,0,.45.19c-.09,2-.27,2.45-1.38,2.45H49.48c-1.17,0-1.51-.17-1.51-1v-5.52l.67.06c0,.07-.08.13-.22.15v2.54A19.57,19.57,0,0,0,53,315.48l.4.45a.12.12,0,0,1-.1,0h-.12a21.59,21.59,0,0,1-4.77,1.68Z"/><path class="cls-1" d="M65.48,308.07c0,.18-.2.25-.5.25-.18.92-.48,2.47-.67,3.39a20.59,20.59,0,0,1,2.08-.17c2.07,0,2.82,1.35,2.82,3.5a11.44,11.44,0,0,1-.6,3.64,2.56,2.56,0,0,1-2.49,2c-.63,0-1.39-.24-2.74-1.37a1.82,1.82,0,0,0,.24-.4c1.33,1.06,2,1.29,2.52,1.29a2,2,0,0,0,2-1.59,12.1,12.1,0,0,0,.58-3.51c0-1.83-.63-3-2.38-3a21.62,21.62,0,0,0-2.16.17,25.94,25.94,0,0,1-3.3,8.29l-.45-.21a24.32,24.32,0,0,0,3.25-8c-.93.11-2,.23-2.94.36l-.06-.48c.79-.1,2-.24,3.12-.36.24-1.09.51-2.52.71-3.88Zm3.85-.43a11.65,11.65,0,0,1,2.17,2.11l-.34.29a11.37,11.37,0,0,0-2.14-2.1Zm3.74,8.74a9.62,9.62,0,0,0-3.45-5.23l.36-.3a9.81,9.81,0,0,1,3.55,5.34ZM71.56,307a11.62,11.62,0,0,1,2.17,2.11l-.34.29a11.37,11.37,0,0,0-2.14-2.1Z"/><path class="cls-1" d="M84.94,314.54l-2,.75v5.13c0,.42-.13.57-.42.66a8,8,0,0,1-1.75.08,2.65,2.65,0,0,0-.2-.44l1,0c.83,0,.87,0,.87-.3v-5c-.84.31-1.62.61-2.22.82a.23.23,0,0,1-.13.23l-.32-.58c.72-.24,1.67-.58,2.67-.95v-4H80v-.45h2.52v-3.2l.67.06c0,.09-.07.13-.22.15v3h1.89V311H83v3.81l1.86-.69Zm4.59,5.64a8.59,8.59,0,0,0,1.69.14h2.69a1.63,1.63,0,0,0-.2.45H91.22c-2.29,0-3.87-.45-4.78-2.73a6.7,6.7,0,0,1-1.91,3.17,3.42,3.42,0,0,0-.34-.27c1.26-1,2-3,2.29-5.28l.67.13c0,.09-.09.13-.25.13a14.46,14.46,0,0,1-.29,1.49,3.58,3.58,0,0,0,2.46,2.66v-5.19H85.22v-.45H93.8v.45H89.53v2.26h3.58v.45H89.53Zm3.3-12.25v5H86.06v-5Zm-.45,2.28v-1.83H86.51v1.83Zm0,2.31v-1.86H86.51v1.86Z"/><path class="cls-1" d="M103.43,315c0,.09-.12.12-.29.12a13.49,13.49,0,0,1-3.13,4.74,2.23,2.23,0,0,0-.34-.29,12.7,12.7,0,0,0,3.12-4.78Zm10-2.13H107v7.48c0,.45-.14.62-.51.71a15.75,15.75,0,0,1-2.54.09,1.73,1.73,0,0,0-.2-.46l1.77,0c.95,0,1,0,1-.36v-7.48h-6.42v-.45h13.3Zm-1.28-4.26V309H101.5v-.45Zm1.13,11.14a18.8,18.8,0,0,0-3-4.77l.38-.17a19.33,19.33,0,0,1,3,4.74Z"/><path class="cls-1" d="M122.54,308c0,.17-.17.27-.46.3-.12,1.58-.27,5.87-.27,8.1,0,2.46,1.2,3.66,3.3,3.66a7.43,7.43,0,0,0,5.79-3.12,1.53,1.53,0,0,0,.38.33,8,8,0,0,1-6.18,3.27c-2.32,0-3.78-1.41-3.78-4.17,0-1.8.15-6.66.27-8.53Z"/><path class="cls-1" d="M137.89,309.87c.94.06,2.05.06,3,.06.81,0,1.75,0,2.52,0,0-.76,0-1.68,0-2.25l.93.06c0,.18-.13.25-.42.3,0,.51,0,1.26,0,1.86a27.58,27.58,0,0,0,5.28-.65l.1.48a28.05,28.05,0,0,1-5.4.64l.09,3.23a23.2,23.2,0,0,0,4.53-.63l.11.5A28.46,28.46,0,0,1,144,314l.12,2.9a17.73,17.73,0,0,1,4.67,2.5l-.32.42a16.15,16.15,0,0,0-4.32-2.42c0,.31,0,.66,0,.9a2.1,2.1,0,0,1-2.37,2.39c-1.86,0-3.27-.66-3.27-2.06s1.65-2.1,3.22-2.1a7.22,7.22,0,0,1,1.89.22c0-.76-.06-1.72-.09-2.73l-1.64,0c-2.14,0-3.28-.13-3.28-1.14,0-.52.4-.93,1.27-1.53l.34.34c-1,.57-1.12.92-1.12,1.21,0,.51,1,.65,2.79.65l1.61,0-.09-3.21c-1.1,0-2.08,0-3.5,0-.71,0-1.47,0-2.05,0Zm5.82,7.39a6.93,6.93,0,0,0-1.92-.25c-1.27,0-2.75.53-2.75,1.63s1.26,1.61,2.79,1.61,1.89-.63,1.89-1.92Z"/><path class="cls-1" d="M156.25,310.24c1.23,0,5.5-.17,7.35-.24,0-.25-.09-2.47-.09-2.5l.9,0c0,.13-.1.25-.39.3,0,.48,0,1.37.06,2.16,1.76-.06,3.66-.11,5-.12v.51c-1.41,0-3.25,0-5,.09,0,1.27,0,2,.12,3.36a5.22,5.22,0,0,1,.17,1.56c0,1.43-.12,3.95-4.42,5.71l-.32-.4c2.76-1,4-2.58,4.26-4.35h0a2.34,2.34,0,0,1-2.05,1.14,2.46,2.46,0,0,1-2.42-2.55,2.7,2.7,0,0,1,2.58-2.73,2.36,2.36,0,0,1,1.69.63c0-.09,0-.17,0-.22,0-.33,0-1.21-.06-2.13-2.07.06-5.77.18-7.35.25Zm7.59,4.77c0-1-.2-2.31-1.8-2.31a2.13,2.13,0,0,0-2.13,2.25,2,2,0,1,0,3.93.06Z"/><path class="cls-1" d="M180,319.06a2.1,2.1,0,1,1-2.1-2.1A2.11,2.11,0,0,1,180,319.06Zm-.45,0a1.65,1.65,0,1,0-1.65,1.65A1.64,1.64,0,0,0,179.51,319.06Z"/><path class="cls-1" d="M200.06,310.44a.8.8,0,0,1-.15.17c-1.49,4.83-4,8.05-8.24,10.2a1.49,1.49,0,0,0-.31-.37,15.14,15.14,0,0,0,8-9.67h-6a15.37,15.37,0,0,1-3.46,3.9,2.83,2.83,0,0,0-.37-.32,15.86,15.86,0,0,0,4.84-6.61l.74.29c0,.15-.24.17-.39.15a20,20,0,0,1-1.06,2.12h6l.11,0Z"/><path class="cls-1" d="M208.76,316v-7.2l.79.06c0,.11-.12.21-.31.23V316Zm8-7.75c0,.13-.12.21-.32.22v4.83c0,3.12-1.09,5.94-5.47,7.54a1.83,1.83,0,0,0-.31-.39c4.29-1.56,5.31-4.18,5.31-7.15v-5.12Z"/><path class="cls-1" d="M225.07,310h10.28v.48h-4.92v8.05h6V319H224v-.48h5.92v-8.05h-4.87Z"/><path class="cls-1" d="M254.07,308.43a.32.32,0,0,1-.23.1.51.51,0,0,1-.19,0,35.16,35.16,0,0,1-4.41,3.72l.25.15c0,.08-.13.13-.24.15v8.21h-.48v-8.17a43.86,43.86,0,0,1-6.22,3.74,3.81,3.81,0,0,0-.29-.39A40.74,40.74,0,0,0,253.45,308Z"/><path class="cls-1" d="M269.7,310.23a.17.17,0,0,1-.13.1,18.69,18.69,0,0,1-2.29,5.15,24.73,24.73,0,0,1,2.13,1.36l-.3.41a20,20,0,0,0-2.08-1.37,14.54,14.54,0,0,1-5.67,4.93,1.32,1.32,0,0,0-.36-.34,14.54,14.54,0,0,0,5.59-4.83,26.6,26.6,0,0,0-3.85-1.75l.24-.42a28.62,28.62,0,0,1,3.88,1.77,17.17,17.17,0,0,0,2.14-4.7h-5.76a15.7,15.7,0,0,1-3.63,4.4,3.87,3.87,0,0,0-.36-.33,17.06,17.06,0,0,0,4.84-7l.73.21c-.06.13-.18.17-.36.15-.24.57-.63,1.42-1,2.05h5.67l.12,0Z"/><path class="cls-1" d="M276.62,313.74h12.52v.5h-12a.57.57,0,0,1-.43.27Z"/><path class="cls-1" d="M296.83,320.34a13.37,13.37,0,0,1-.69-5,39,39,0,0,1,.86-7.16l.84.2c0,.13-.15.24-.39.24a32.42,32.42,0,0,0-.82,6.72,15.31,15.31,0,0,0,.19,3.13c.41-1.12,1.11-2.71,1.47-3.51l.46.19a23.83,23.83,0,0,0-1.67,4.3,1.57,1.57,0,0,0,.21.74Zm6.09-8.55c.5,0,1.2,0,1.69-.06-.06-1.38-.1-2.57-.13-3.67l.9,0c0,.15-.17.25-.39.3,0,1,.06,2,.11,3.3a12.53,12.53,0,0,0,3.18-.66l.12.5a13.4,13.4,0,0,1-3.27.63c.08,1.89.17,3.9.2,4.84a11.72,11.72,0,0,1,3.24,2l-.32.41a10,10,0,0,0-2.91-1.92c.06,1.56-.11,3-2.25,3-1.7,0-2.9-.72-2.9-2,0-1.49,1.59-2,2.88-2a6.14,6.14,0,0,1,1.79.29c0-1.05-.15-2.9-.22-4.62-.5,0-1.2.06-1.7.06h-2.43v-.46Zm1.95,5.55a5.69,5.69,0,0,0-1.8-.33c-1,0-2.4.38-2.4,1.54s1.08,1.53,2.42,1.53,1.8-.6,1.8-2.16Z"/><path class="cls-1" d="M315.64,317.34a31.42,31.42,0,0,1,3.5,3.41l-.43.42a31.12,31.12,0,0,0-3.44-3.46Z"/><path class="cls-1" d="M339.59,319.51a26.65,26.65,0,0,1-4.67.39,15,15,0,0,1-2.76-.2,2.72,2.72,0,0,1-2.47-2.71,4.94,4.94,0,0,1,1.59-3.24l.38.27a4.65,4.65,0,0,0-1.49,3c0,1,.67,1.84,2.13,2.19a12.84,12.84,0,0,0,2.58.2,24.55,24.55,0,0,0,4.67-.42Zm-3.17-9.45c-1.39.15-4.35.21-6.28.21v-.5c.52,0,6.36.06,8.44-.51l.12.51a5,5,0,0,0-1.67.5,20.18,20.18,0,0,0-3.48,2.19l-.31-.34a21.29,21.29,0,0,1,3.18-2Z"/><path class="cls-1" d="M353.31,309.54a.31.31,0,0,1-.33.23c-.48,4.35-2.08,9.18-4.5,9.18-1,0-2.11-1.2-2.11-3.42a6.52,6.52,0,0,1,6.66-6.6c4.39,0,6,2.92,6,5.61,0,3.6-2.22,5.25-5.75,6,0-.09-.19-.33-.25-.45,3.48-.66,5.52-2.36,5.52-5.52,0-2.5-1.51-5.17-5.55-5.17h-.24Zm-.78-.13a6.09,6.09,0,0,0-5.71,6.12c0,1.84.9,2.92,1.67,2.92C350.54,318.45,352.07,313.93,352.53,309.4Z"/><path class="cls-1" d="M372.32,315.7l.57,5-.48.06-.55-5-5.88.75-.09-.46,5.91-.75-.44-3.88-5,.65-.07-.47,5-.64-.35-3.13.83,0c0,.13-.13.24-.31.29l.31,2.8,4.83-.63.06.48-4.83.63.43,3.88,5.89-.75.08.46Z"/><path class="cls-1" d="M385.06,313.74h12.52v.5h-12a.57.57,0,0,1-.43.27Z"/><path class="cls-1" d="M415.62,309.34a.27.27,0,0,1-.13.09c-.57,6-2.75,9.12-7.62,11.07a4,4,0,0,0-.33-.37c4.8-1.93,6.9-4.91,7.44-10.48h-9.55V314H405v-4.83H415.1l.13-.1Z"/><path class="cls-1" d="M422.42,313.74h12.52v.5h-12a.57.57,0,0,1-.43.27Z"/><path class="cls-1" d="M450.14,315.45a59.27,59.27,0,0,0-5.65-2.58v7.84H444V307.78l.85.06c0,.15-.13.22-.36.27v4.5l.12-.2a57.38,57.38,0,0,1,5.82,2.61Zm-1.83-6.74a13.27,13.27,0,0,1,2.21,2.33l-.34.29A13.67,13.67,0,0,0,448,309Zm2-1.24a13.61,13.61,0,0,1,2.19,2.31l-.33.29a13.77,13.77,0,0,0-2.21-2.29Z"/><path class="cls-1" d="M462.23,313.54a4.32,4.32,0,0,1,2.66-1.12c1.13,0,1.69.81,1.86,2.07,1.33-.62,3-1.3,4.33-1.8l.32.63h-.09a.43.43,0,0,1-.23-.09c-1.16.41-2.92,1.11-4.27,1.74a11.63,11.63,0,0,1,.06,1.33c0,.55,0,1.18-.06,1.84h-.54c0-.58.08-1.38.08-2.07a7.93,7.93,0,0,0,0-.9c-2,1-3.79,2.16-3.79,3.3S463.7,320,466,320a33.64,33.64,0,0,0,3.79-.15v.51c-1,.09-2.35.12-3.79.12-2.88,0-4-.72-4-2s1.88-2.61,4.21-3.78c-.12-1.29-.67-1.8-1.38-1.8-1.17,0-2.37.69-3.81,2.26a22.87,22.87,0,0,1-1.71,1.64l-.33-.35a10.92,10.92,0,0,0,4-6h-3.65V310h3.78a21.64,21.64,0,0,0,.46-2.26l.88.15c0,.15-.13.24-.36.25a18.88,18.88,0,0,1-.44,1.86,21.7,21.7,0,0,0,5.58-.92l.1.5a22.37,22.37,0,0,1-5.82.9,11.87,11.87,0,0,1-1.3,3.07Z"/><path class="cls-1" d="M486.23,311.13c-.51,0-1.07.06-1.61.06s-1.21,0-1.8-.08c-.17,1.28-.33,2.63-.45,3.79a32.41,32.41,0,0,0,3.81-.21l0,.5c-1,.1-2.52.19-3.88.19-.08.78-.12,1.25-.12,1.7,0,2.79,1.77,3,3.39,3,1.33,0,3.93-.2,3.93-2.29a5.06,5.06,0,0,0-1.32-3,1.78,1.78,0,0,0,.41-.24,5.27,5.27,0,0,1,1.41,3.21c0,2-1.84,2.75-4.35,2.75-1.27,0-3.94,0-3.94-3.48,0-.39,0-.83.12-1.74-1.33,0-3.39-.06-3.39-1.47a2.38,2.38,0,0,1,1.32-1.82l.33.35c-.71.45-1.12,1-1.12,1.44,0,1,1.44,1,2.91,1,.12-1.14.29-2.52.45-3.84a10.94,10.94,0,0,1-3.31-.89l.2-.45a10.2,10.2,0,0,0,3.18.87c.13-1,.25-2.05.36-2.86l.9.12c0,.17-.21.25-.45.25l-.33,2.55c.54,0,1.08.08,1.62.08s1.17,0,1.73-.08Z"/><path class="cls-1" d="M507.54,312.24h-.12a.57.57,0,0,1-.29-.08c-4.41,1.37-8.91,3.57-8.91,5.87,0,1.67,1.9,2.19,4.6,2.19a42.35,42.35,0,0,0,5.25-.3l0,.51a45.61,45.61,0,0,1-5.28.25c-3,0-5.1-.66-5.1-2.64,0-1.62,1.74-3.07,4.17-4.3-.47-.78-.68-2.58-.68-6.07l.95.09c0,.17-.17.3-.45.33,0,3,.12,4.69.62,5.44a39.57,39.57,0,0,1,5-1.92Z"/><path class="cls-1" d="M3.69,336.43c-.06.17-.21.24-.53.21a37.25,37.25,0,0,0-.78,6.87,19.68,19.68,0,0,0,.26,3.55c.36-.94,1-2.71,1.26-3.28l.45.17c-.69,1.83-1.09,2.71-1.29,3.34a2.46,2.46,0,0,0-.12.69,1.33,1.33,0,0,0,.07.44l-.48.13a15.2,15.2,0,0,1-.64-5,40.23,40.23,0,0,1,.85-7.3Zm9.94,10.8c-.53,0-1.07,0-1.59,0a20.05,20.05,0,0,1-3-.18c-1.68-.25-2.55-1.21-2.55-2.37A4.54,4.54,0,0,1,8,341.9l.4.27A3.93,3.93,0,0,0,7,344.71c0,.87.72,1.7,2.19,1.92a17.58,17.58,0,0,0,2.59.17c.58,0,1.2,0,1.8-.06Zm-7-8.79a45.74,45.74,0,0,0,6.66-.58l.06.5a54.1,54.1,0,0,1-6.71.58Z"/><path class="cls-1" d="M20.17,341.9a19.84,19.84,0,0,0,6.57-6.6l.81.06c0,.11-.13.13-.25.17A22.76,22.76,0,0,0,34,341.72a1.84,1.84,0,0,0-.3.38A23.25,23.25,0,0,1,27,335.84a21.26,21.26,0,0,1-6.52,6.39Zm7.18,1.77v4.58h6.24v.45h-13v-.45h2.22v-6l.67.06c0,.08-.08.13-.23.15v5.82H26.9v-8.91l.68.06c0,.08-.08.13-.23.15v3.67h4.75v.45Z"/><path class="cls-1" d="M40.39,336.46h13.3v.45H47.21v2.19h3.51v6.78H43.27V339.1h3.5v-2.19H40.39Zm12.45,11.24V339l.68.06c0,.08-.08.13-.23.15v9.93h-.45v-1H41.32v1h-.45V339l.67.06c0,.08-.08.13-.23.15v8.52Zm-9.12-8.15v2.7h3v-2.7Zm0,3.15v2.73h3V342.7Zm6.55-.45v-2.7H47.21v2.7Zm0,3.18V342.7H47.21v2.73Z"/><path class="cls-1" d="M63.73,341.54a4.32,4.32,0,0,1,2.66-1.12c1.13,0,1.69.81,1.86,2.07,1.33-.62,3-1.3,4.33-1.8l.32.63H72.8a.43.43,0,0,1-.23-.09c-1.16.41-2.92,1.11-4.27,1.74a11.63,11.63,0,0,1,.06,1.33c0,.55,0,1.18-.06,1.84h-.54c0-.58.08-1.38.08-2.07a7.93,7.93,0,0,0,0-.9c-2,1-3.79,2.16-3.79,3.3S65.2,348,67.54,348a33.64,33.64,0,0,0,3.79-.15v.51c-1,.09-2.35.12-3.79.12-2.88,0-4-.72-4-2s1.88-2.61,4.21-3.78c-.12-1.29-.67-1.8-1.38-1.8-1.17,0-2.37.69-3.81,2.26a22.87,22.87,0,0,1-1.71,1.64l-.33-.35a10.92,10.92,0,0,0,4-6H60.82V338H64.6a21.64,21.64,0,0,0,.46-2.26l.88.15c0,.15-.13.24-.36.25a18.88,18.88,0,0,1-.44,1.86,21.7,21.7,0,0,0,5.58-.92l.1.5a22.37,22.37,0,0,1-5.82.9,11.87,11.87,0,0,1-1.3,3.07Z"/><path class="cls-1" d="M79.12,338.24c1.23,0,5.5-.17,7.35-.24,0-.25-.09-2.47-.09-2.5l.9,0c0,.13-.1.25-.39.3,0,.48,0,1.37.06,2.16,1.76-.06,3.66-.11,5-.12v.51c-1.41,0-3.25,0-5,.09,0,1.27,0,2,.12,3.36a5.22,5.22,0,0,1,.17,1.56c0,1.43-.12,3.95-4.42,5.71l-.32-.4c2.76-1,4-2.58,4.26-4.35h0a2.34,2.34,0,0,1-2.05,1.14,2.46,2.46,0,0,1-2.42-2.55,2.7,2.7,0,0,1,2.58-2.73,2.36,2.36,0,0,1,1.69.63c0-.09,0-.17,0-.22,0-.33,0-1.21-.06-2.13-2.07.06-5.77.18-7.35.25ZM86.71,343c0-1-.2-2.31-1.8-2.31A2.13,2.13,0,0,0,82.78,343a2,2,0,1,0,3.93.06Z"/><path class="cls-1" d="M101.52,342.17a10,10,0,0,1,4.32-1.08c2.46,0,3.9,1.38,3.9,3.5,0,2.73-2.41,4.2-5.23,4.2-2,0-3.29-.71-3.29-1.91a2.11,2.11,0,0,1,2.34-1.86,3.28,3.28,0,0,1,3.06,3,3.53,3.53,0,0,0,2.64-3.37c0-1.86-1.29-3-3.43-3a9.3,9.3,0,0,0-5.78,2.05c-.5.48-1.06,1.13-1.48,1.62l-.36-.36c1.53-1.67,6.18-6.12,8.23-8.05-1,.13-4.24.24-6.31.3a.42.42,0,0,1-.27.23l-.11-.71c2.12,0,5.75-.15,6.9-.32l.21-.1.53.57a.76.76,0,0,1-.32.14c-1.26,1.06-4.42,4.11-5.55,5.23Zm3,6.15a6.77,6.77,0,0,0,1.67-.21,2.85,2.85,0,0,0-2.62-2.64c-1,0-1.85.53-1.85,1.4C101.69,348,103.23,348.32,104.49,348.32Z"/><path class="cls-1" d="M127.79,347.51a26.65,26.65,0,0,1-4.67.39,15,15,0,0,1-2.76-.2,2.72,2.72,0,0,1-2.47-2.71,4.94,4.94,0,0,1,1.59-3.24l.38.27a4.65,4.65,0,0,0-1.49,3c0,1,.67,1.84,2.13,2.19a12.84,12.84,0,0,0,2.58.2,24.55,24.55,0,0,0,4.67-.42Zm-3.17-9.45c-1.39.15-4.35.21-6.28.21v-.5c.52,0,6.36.06,8.44-.51l.12.51a5,5,0,0,0-1.67.5,20.18,20.18,0,0,0-3.48,2.19l-.31-.34a21.29,21.29,0,0,1,3.18-2Z"/><path class="cls-1" d="M145.91,340.24h-.12a.57.57,0,0,1-.29-.08c-4.41,1.37-8.91,3.57-8.91,5.87,0,1.67,1.9,2.19,4.6,2.19a42.35,42.35,0,0,0,5.25-.3l0,.51a45.61,45.61,0,0,1-5.28.25c-3,0-5.1-.66-5.1-2.64,0-1.62,1.74-3.07,4.17-4.3-.47-.78-.68-2.58-.68-6.07l.95.09c0,.17-.17.3-.45.33,0,3,.12,4.69.62,5.44a39.57,39.57,0,0,1,5-1.92Z"/><path class="cls-1" d="M153.19,337.52c1.19,0,10.47-.79,12.3-.74v.51l-.63,0a4.49,4.49,0,0,0-2.38.66c-2.66,1.53-4.94,4.18-4.94,6.27,0,2.37,1.44,3.79,5.46,4.38l-.19.46c-4.26-.67-5.78-2.13-5.78-4.84,0-2.31,2.36-5,5.45-6.84-1.5.09-6.58.45-8.92.66a.45.45,0,0,1-.3.22Zm9.51,2.54a11.68,11.68,0,0,1,2.17,2.11l-.34.29a10.46,10.46,0,0,0-2.13-2.1Zm1.5-1.31a10.85,10.85,0,0,1,2.17,2.12l-.34.29a10.9,10.9,0,0,0-2.13-2.1Z"/><path class="cls-1" d="M173.22,345.34a31.42,31.42,0,0,1,3.5,3.41l-.43.42a31.12,31.12,0,0,0-3.44-3.46Z"/><path class="cls-1" d="M186.33,335.57a9.66,9.66,0,0,1,1.86,2,12.48,12.48,0,0,0,1.69-2.22l.54.3a.21.21,0,0,1-.22.08,14.86,14.86,0,0,1-1.79,2.22,10.62,10.62,0,0,1,1.2,5.59c0,2.37-.17,4.33-.75,5.12-.24.33-.51.46-1.82.46-.24,0-.49,0-.75,0a1.2,1.2,0,0,0-.19-.48c.41,0,.81,0,1.14,0,.86,0,1.08-.06,1.28-.32.48-.61.64-2.62.64-4.81a16.26,16.26,0,0,0-.09-1.92,12.71,12.71,0,0,1-3.22,3.69,1.53,1.53,0,0,0-.32-.39,11,11,0,0,0,3.45-4,8,8,0,0,0-.9-2.64,22.6,22.6,0,0,1-2.13,1.83,3,3,0,0,0-.31-.27,17.9,17.9,0,0,0,2.23-1.93,9.09,9.09,0,0,0-1.86-2.1Zm11.85,12.67h1.3v.45h-9.66v-.45h1.91v-12.1h6.45Zm-.45-11.65h-5.55v3.48h5.55Zm0,7.53v-3.6h-5.55v3.6Zm-5.55.45v3.67h5.55v-3.67Z"/><path class="cls-1" d="M207.13,337.34c0,.15-.19.22-.43.24a24,24,0,0,0-.21,3.33c0,.72,0,1.41.08,2,.21,2.91,1.46,4.59,2.79,4.57.66,0,1.56-1.56,2.23-3.52a2.39,2.39,0,0,0,.42.24c-.76,2.05-1.63,3.76-2.68,3.78-1.58,0-3-1.87-3.24-5-.06-.6-.08-1.29-.08-2,0-1.28.08-2.64.2-3.83Zm11,6.79a7.75,7.75,0,0,0-3.95-5.8l.29-.39a8.1,8.1,0,0,1,4.15,6.07Z"/><path class="cls-1" d="M228.1,341.48v5c1.35,2,3.9,2,6.45,2,1.59,0,3.51,0,4.58-.09a1.44,1.44,0,0,0-.18.46c-1,0-2.7,0-4.21,0-3,0-5.25,0-6.84-2-.86.74-1.76,1.47-2.49,2a.16.16,0,0,1-.09.2l-.35-.51a32.12,32.12,0,0,0,2.69-2.08v-4.59h-2.5v-.45Zm-2.31-5.73a10.34,10.34,0,0,1,2.55,2.58l-.36.29a10.36,10.36,0,0,0-2.54-2.62Zm9.48,3.46a33.72,33.72,0,0,0-3.76-1.68l.3-.31c.75.27,1.59.6,2.37,1a12.08,12.08,0,0,0,3.13-1.61h-7.45v-.45h8l.09,0,.39.29a.48.48,0,0,1-.15.07,13.39,13.39,0,0,1-3.51,2,16.13,16.13,0,0,1,1.54.79h2v7.23c0,.38-.1.54-.4.63a10.79,10.79,0,0,1-2.08.09,1.93,1.93,0,0,0-.18-.45l1.41,0c.74,0,.81,0,.81-.3v-2.1h-3.53v2.75h-.45v-2.75h-3.39v2.81H230v-7.94Zm-1.46.45h-3.39v1.86h3.39Zm-3.39,4.23h3.39V342h-3.39Zm7.37-2.37v-1.86h-3.53v1.86Zm-3.53,2.37h3.53V342h-3.53Z"/><path class="cls-1" d="M247,344.18a7.22,7.22,0,0,1-.44-2.52,27.21,27.21,0,0,1,.54-5.23l.92.21c-.06.21-.24.24-.46.25a23.73,23.73,0,0,0-.51,4.68,6,6,0,0,0,.08,1.16c.33-.79.92-2,1.21-2.54a3.8,3.8,0,0,0,.39.29,21,21,0,0,0-1.21,2.59,1.72,1.72,0,0,0-.11.58,1.27,1.27,0,0,0,.06.41Zm7.65-8.14c0,.2-.15.25-.42.32.1,1.39.25,3.69.25,5.28,0,2.91-1.14,5.45-5.49,7.25a4.66,4.66,0,0,0-.32-.42c4.08-1.54,5.33-4,5.33-6.81,0-1.68-.17-3.92-.33-5.67Z"/><path class="cls-1" d="M269.69,337.54a.31.31,0,0,1-.33.23c-.48,4.35-2.08,9.18-4.5,9.18-1,0-2.11-1.2-2.11-3.42a6.52,6.52,0,0,1,6.66-6.6c4.39,0,6,2.92,6,5.61,0,3.6-2.22,5.25-5.75,6,0-.09-.19-.33-.25-.45,3.48-.66,5.52-2.36,5.52-5.52,0-2.5-1.51-5.17-5.55-5.17h-.24Zm-.78-.13a6.09,6.09,0,0,0-5.71,6.12c0,1.84.9,2.92,1.67,2.92C266.91,346.45,268.44,341.93,268.91,337.4Z"/><path class="cls-1" d="M288.68,337.1H284.9V348h-.53V337.1h-3.79v-.46h8.1Z"/><path class="cls-1" d="M303,336.64,298.74,348h-.48l-3.78-11.32h.58l2.1,6.28c.57,1.7,1,3.09,1.37,4.33h0c.34-1.26.87-2.71,1.48-4.33l2.36-6.28Z"/><path class="cls-1" d="M316.71,347.54a7.26,7.26,0,0,1-3.09.58c-2.6,0-5.27-1.63-5.27-5.77,0-3.29,2-5.9,5.69-5.9a5.7,5.7,0,0,1,2.59.5l-.21.44a5.09,5.09,0,0,0-2.34-.51c-3.21,0-5.17,2.15-5.17,5.52,0,3.19,1.84,5.29,5,5.29a5.9,5.9,0,0,0,2.61-.56Z"/><path class="cls-1" d="M334.18,348h-.52l-.35-5.52c-.13-2-.27-3.95-.25-5.07h0c-.42,1.19-.87,2.45-1.56,4.19L328.91,348h-.34l-2.38-6.27c-.69-1.84-1.17-3.13-1.52-4.35h0c0,1.31-.12,3.29-.27,5.24L324,348h-.54l.83-11.32h.55l2.64,6.94c.54,1.47.95,2.55,1.29,3.6h0c.3-1,.71-2,1.3-3.54l2.73-7h.6Z"/><path class="cls-1" d="M348.12,337.54a.31.31,0,0,1-.33.23c-.48,4.35-2.08,9.18-4.5,9.18-1,0-2.11-1.2-2.11-3.42a6.52,6.52,0,0,1,6.66-6.6c4.39,0,6,2.92,6,5.61,0,3.6-2.22,5.25-5.75,6,0-.09-.19-.33-.25-.45,3.48-.66,5.52-2.36,5.52-5.52,0-2.5-1.51-5.17-5.55-5.17h-.24Zm-.78-.13a6.09,6.09,0,0,0-5.71,6.12c0,1.84.9,2.92,1.67,2.92C345.34,346.45,346.87,341.93,347.34,337.4Z"/><path class="cls-1" d="M365.16,338.27v2.25h4V341h-4v1.87h3.21v4.49c0,.31-.08.46-.34.55a10.09,10.09,0,0,1-1.86.08,1.57,1.57,0,0,0-.18-.41l.95,0c.88,0,1,0,1-.23v-4h-2.76v5.87h-.45v-5.87h-2.65V348h-.45v-5.15h3.1V341h-4v-.45h4v-2.25h-2.46a10.07,10.07,0,0,1-.73,2,3.2,3.2,0,0,0-.41-.17,16.35,16.35,0,0,0,1.23-4.29l.67.18c0,.09-.11.13-.29.13a16.86,16.86,0,0,1-.36,1.7h2.34v-2.43l.68.06c0,.08-.08.14-.23.15v2.22h3.33v.45Zm4.88-1.08.67.06c0,.08-.08.14-.22.15v8.1H370Zm3.21-1.54.67.06c0,.09-.08.14-.22.15v12.51c0,.48-.18.64-.51.73a11.59,11.59,0,0,1-2.28.08c0-.1-.12-.3-.2-.43h1.2c1.25,0,1.33,0,1.33-.37Z"/><path class="cls-1" d="M383.08,339.86A17.32,17.32,0,0,1,380.8,343c-.08-.09-.21-.25-.3-.34a19.66,19.66,0,0,0,4.08-7.15l.65.19a.28.28,0,0,1-.29.14,22.68,22.68,0,0,1-1.5,3.37l.32.09c0,.07-.08.12-.23.13v9.73h-.45Zm11.58-1.41h-5.19v2.82h4.83v.45h-4.83v2.93h5v.45h-5v4H389V338.45H387.2A16.89,16.89,0,0,1,385,342l-.36-.29a18.86,18.86,0,0,0,3.24-6.15l.67.21c0,.09-.13.13-.3.13-.24.69-.51,1.38-.81,2.05h7.25Z"/><path class="cls-1" d="M405.81,336.07c0,.18-.2.25-.5.25-.18.92-.48,2.47-.67,3.39a20.59,20.59,0,0,1,2.08-.17c2.07,0,2.82,1.35,2.82,3.5a11.44,11.44,0,0,1-.6,3.64,2.56,2.56,0,0,1-2.49,2c-.63,0-1.39-.24-2.74-1.37a1.82,1.82,0,0,0,.24-.4c1.33,1.06,2,1.29,2.52,1.29a2,2,0,0,0,2-1.59,12.1,12.1,0,0,0,.58-3.51c0-1.83-.63-3-2.38-3a21.62,21.62,0,0,0-2.16.17,25.94,25.94,0,0,1-3.3,8.29l-.45-.21a24.32,24.32,0,0,0,3.25-8c-.93.11-2,.23-2.94.36l-.06-.48c.79-.1,2-.24,3.12-.36.24-1.09.51-2.52.71-3.88Zm3.85-.43a11.65,11.65,0,0,1,2.17,2.11l-.34.29a11.37,11.37,0,0,0-2.14-2.1Zm3.74,8.74a9.62,9.62,0,0,0-3.45-5.23l.36-.3a9.81,9.81,0,0,1,3.55,5.34ZM411.89,335a11.62,11.62,0,0,1,2.17,2.11l-.34.29a11.37,11.37,0,0,0-2.14-2.1Z"/><path class="cls-1" d="M434.22,336.52V337h-2v11.2c0,.55-.15.79-.6.88a20.4,20.4,0,0,1-2.94.08c0-.13-.13-.36-.21-.53l1.83,0c1.42,0,1.47,0,1.47-.46V337h-11v-.45Zm-5.73,8.71h-5.75v1.29h-.45v-6.77h6.19Zm-.45-5h-5.29v4.58H428Z"/><path class="cls-1" d="M446,339a17,17,0,0,0-1.42-1.93l.33-.17a16,16,0,0,1,2.19,3.29l-.33.21a10.93,10.93,0,0,0-.52-1c-2.22.12-4.56.22-6,.29,0,.1-.09.15-.18.18l-.21-.65,1.25,0a27.2,27.2,0,0,0,1.77-3.72l.63.19q0,.11-.27.13a36.79,36.79,0,0,1-1.67,3.38Zm.06,2.16v7.3c0,.74-.29.75-2.36.75a1.7,1.7,0,0,0-.2-.5l1.33,0c.71,0,.77,0,.77-.29v-2.23h-4.21v3H441v-8.1Zm-.45.45h-4.21v1.81h4.21Zm-4.21,4.17h4.21v-1.91h-4.21Zm10.95-4.28c.69,0,.81-.28.87-2a1.23,1.23,0,0,0,.45.21c-.08,1.75-.25,2.21-1.31,2.21h-3.15c-1.14,0-1.47-.17-1.47-1v-5.55l.67.06c0,.07-.08.13-.22.15v2.71a38,38,0,0,0,4.33-1.58l.45.44a.12.12,0,0,1-.1,0l-.14,0a43.69,43.69,0,0,1-4.54,1.54v2.21c0,.45.15.55,1,.55ZM448.22,348c0,.47.17.58,1,.58h3.29c.76,0,.88-.31.95-2.2a1.44,1.44,0,0,0,.45.19c-.09,2-.27,2.45-1.38,2.45h-3.27c-1.17,0-1.51-.17-1.51-1v-5.52l.67.06c0,.07-.08.13-.22.15v2.54a19.57,19.57,0,0,0,4.59-1.72l.4.45a.12.12,0,0,1-.1,0H453a21.59,21.59,0,0,1-4.77,1.68Z"/><path class="cls-1" d="M471.09,340.24H471a.57.57,0,0,1-.29-.08c-4.41,1.37-8.91,3.57-8.91,5.87,0,1.67,1.9,2.19,4.6,2.19a42.35,42.35,0,0,0,5.25-.3l0,.51a45.61,45.61,0,0,1-5.28.25c-3,0-5.1-.66-5.1-2.64,0-1.62,1.74-3.07,4.17-4.3-.47-.78-.68-2.58-.68-6.07l.95.09c0,.17-.17.3-.45.33,0,3,.12,4.69.62,5.44a39.57,39.57,0,0,1,5-1.92Z"/><path class="cls-1" d="M483.4,335.78c0,.12-.2.21-.46.23-.12.75-.25,1.54-.42,2.23a23.29,23.29,0,0,0,4.92-.76l.1.5a31.26,31.26,0,0,1-5.13.76,20.84,20.84,0,0,1-3.36,7.53l-.42-.22a20.43,20.43,0,0,0,3.25-7.29c-.48,0-1,0-1.41,0h-1.86v-.48h1.88l1.5,0c.2-.82.34-1.71.48-2.67Zm4.09,6.3c0,1.42.13,2.22.22,3.38a15.6,15.6,0,0,1,3.41,1.89l-.3.42a15.37,15.37,0,0,0-3.09-1.78v.64c0,1.42-1,2.31-2.61,2.31s-2.91-.71-2.91-2c0-1.47,1.59-2.06,2.91-2.06a6.83,6.83,0,0,1,2.07.38c-.08-1.14-.2-2.26-.2-3.12Zm-.27,3.71a6,6,0,0,0-2.12-.42c-1,0-2.4.38-2.4,1.56s1,1.52,2.42,1.52,2.12-.6,2.12-1.82C487.24,346.31,487.24,346,487.23,345.79Zm3.84-5.58a19.14,19.14,0,0,0-5.36.81l-.12-.47a20.25,20.25,0,0,1,5.46-.84Z"/><path class="cls-1" d="M499.85,344.18a7.22,7.22,0,0,1-.44-2.52,27.21,27.21,0,0,1,.54-5.23l.92.21c-.06.21-.24.24-.46.25a23.73,23.73,0,0,0-.51,4.68,6,6,0,0,0,.08,1.16c.33-.79.92-2,1.21-2.54a3.8,3.8,0,0,0,.39.29,21,21,0,0,0-1.21,2.59,1.72,1.72,0,0,0-.11.58,1.27,1.27,0,0,0,.06.41ZM507.5,336c0,.2-.15.25-.42.32.1,1.39.25,3.69.25,5.28,0,2.91-1.14,5.45-5.49,7.25a4.66,4.66,0,0,0-.32-.42c4.08-1.54,5.33-4,5.33-6.81,0-1.68-.17-3.92-.33-5.67Z"/><path class="cls-1" d="M2,365.87c.94.06,2.05.06,3,.06.81,0,1.75,0,2.52,0,0-.76,0-1.68,0-2.25l.93.06c0,.18-.13.25-.42.3,0,.51,0,1.26,0,1.86a27.58,27.58,0,0,0,5.28-.65l.1.48a28.05,28.05,0,0,1-5.4.64l.09,3.23a23.2,23.2,0,0,0,4.53-.63l.11.5A28.46,28.46,0,0,1,8.1,370l.12,2.9a17.73,17.73,0,0,1,4.67,2.5l-.32.42a16.15,16.15,0,0,0-4.32-2.42c0,.31,0,.66,0,.9a2.1,2.1,0,0,1-2.37,2.39c-1.86,0-3.27-.66-3.27-2.06s1.65-2.1,3.22-2.1a7.22,7.22,0,0,1,1.89.22c0-.76-.06-1.72-.09-2.73l-1.64,0c-2.14,0-3.28-.13-3.28-1.14,0-.52.4-.93,1.27-1.53l.34.34c-1,.57-1.12.92-1.12,1.21,0,.51,1,.65,2.79.65l1.61,0-.09-3.21c-1.1,0-2.08,0-3.5,0-.71,0-1.47,0-2.05,0Zm5.82,7.39A6.93,6.93,0,0,0,5.88,373c-1.27,0-2.75.53-2.75,1.63s1.26,1.61,2.79,1.61,1.89-.63,1.89-1.92Z"/><path class="cls-1" d="M20.15,366.24c1.23,0,5.5-.17,7.35-.24,0-.25-.09-2.47-.09-2.5l.9,0c0,.13-.1.25-.39.3,0,.48,0,1.37.06,2.16,1.76-.06,3.66-.11,5-.12v.51c-1.41,0-3.25,0-5,.09,0,1.27,0,2,.12,3.36a5.22,5.22,0,0,1,.17,1.56c0,1.43-.12,3.95-4.42,5.71l-.32-.4c2.76-1,4-2.58,4.26-4.35h0a2.34,2.34,0,0,1-2.05,1.14,2.46,2.46,0,0,1-2.42-2.55,2.7,2.7,0,0,1,2.58-2.73,2.36,2.36,0,0,1,1.69.63c0-.09,0-.17,0-.22,0-.33,0-1.21-.06-2.13-2.07.06-5.77.18-7.35.25ZM27.74,371c0-1-.2-2.31-1.8-2.31A2.13,2.13,0,0,0,23.81,371a2,2,0,1,0,3.93.06Z"/><path class="cls-1" d="M43.67,375.06a2.1,2.1,0,1,1-2.1-2.1A2.11,2.11,0,0,1,43.67,375.06Zm-.45,0a1.65,1.65,0,1,0-1.65,1.65A1.64,1.64,0,0,0,43.22,375.06Z"/><path class="cls-1" d="M266.79,30.4c-2,1.48-4,3-6.09,4.41l-6.12,4.36a46.07,46.07,0,0,0-5.52,4.6,22,22,0,0,0-3.93,5.15,11.84,11.84,0,0,0-1.4,5.69h35.89v-.85H244.55l0-.41a11.7,11.7,0,0,1,3.05-6.73,44.55,44.55,0,0,1,6.41-5.89c2.48-1.9,5.17-3.81,8-5.69a75.69,75.69,0,0,0,7.84-6,33.5,33.5,0,0,0,6-6.8,14.32,14.32,0,0,0,2.34-8A14.21,14.21,0,0,0,276.9,8a13.05,13.05,0,0,0-3.46-4.43A14.78,14.78,0,0,0,268.29.9a22.27,22.27,0,0,0-6.45-.9c-5.67,0-10,1.61-12.8,4.79S244.81,12.38,244.7,18h.85a26,26,0,0,1,.89-6.65,14.7,14.7,0,0,1,2.87-5.58,13.32,13.32,0,0,1,5.1-3.66A19.17,19.17,0,0,1,261.84.85a21.14,21.14,0,0,1,6.15.86,14.15,14.15,0,0,1,4.89,2.55,12.12,12.12,0,0,1,3.26,4.21,13.44,13.44,0,0,1,1.2,5.8,13.43,13.43,0,0,1-1.44,6.13,22.5,22.5,0,0,1-3.78,5.29A44.09,44.09,0,0,1,266.79,30.4Z"/></g></g></svg>