<?xml version="1.0" encoding="utf-8"?>
<!-- Generator: Adobe Illustrator 20.1.0, SVG Export Plug-In . SVG Version: 6.00 Build 0)  -->
<svg version="1.1" id="Layer_1" xmlns="http://www.w3.org/2000/svg" xmlns:xlink="http://www.w3.org/1999/xlink" x="0px" y="0px"
	 viewBox="0 0 222.4 175.5" style="enable-background:new 0 0 222.4 175.5;" xml:space="preserve">
<style type="text/css">
	.st0{fill:#FFFFFF;}
	.st1{fill:none;stroke:#FFFFFF;stroke-width:0.9341;stroke-miterlimit:10;}
</style>
<title>pro2_main_right</title>
<g id="Layer_2">
	<g id="レイヤー_1">
		<path class="st0" d="M15.9,160c0.7,0.2,1.4,0.4,2.1,0.7l-0.1,0.2c-0.7-0.3-1.4-0.5-2.1-0.6L15.9,160z M16.5,163.7
			c2.3-0.6,4.2-2.2,5.1-4.4c0.1,0,0.1,0.1,0.2,0.1c-1,2.2-2.8,3.8-5.1,4.5c0,0.1,0,0.1-0.1,0.2L16.5,163.7z M16.7,158.1
			c0.7,0.2,1.4,0.4,2.1,0.7l-0.1,0.2c-0.7-0.3-1.3-0.5-2-0.7L16.7,158.1z"/>
		<path class="st0" d="M28.7,158.5C28.7,158.5,28.7,158.5,28.7,158.5c-0.5,1-1,1.9-1.6,2.7c1,0.8,2,1.7,2.9,2.7l-0.2,0.2
			c-0.9-1-1.8-1.8-2.9-2.6c-0.8,1.1-1.9,2-3,2.7c0-0.1-0.1-0.1-0.2-0.2c2-1.2,3.7-3.1,4.6-5.2h-3.9v-0.3h4h0.1L28.7,158.5z"/>
		<path class="st0" d="M38.2,160.5h-2.7h0.1c0,0-0.1,0.1-0.1,0.1c-0.1,1.5-1,2.9-2.4,3.5c-0.1-0.1-0.1-0.1-0.2-0.2
			c1.4-0.6,2.3-2,2.3-3.5h-3.1v-0.3h6V160.5z M37.4,158.4h-4.6v-0.2h4.6L37.4,158.4z"/>
		<path class="st0" d="M46,164c-0.1-0.2-0.2-0.5-0.4-0.8c-1.5,0.1-4.4,0.3-5.6,0.4c0,0.1-0.1,0.1-0.1,0.1l-0.1-0.4h0.8
			c0.5-1.5,1.3-3.7,1.7-5.3l0.4,0.1c0,0.1-0.1,0.1-0.2,0.1c-0.4,1.4-1.1,3.6-1.7,5.1c1.5-0.1,3.5-0.2,4.6-0.3
			c-0.5-0.7-1-1.4-1.6-2.1l0.2-0.1c0.8,0.9,1.6,2,2.1,3.1L46,164z"/>
		<path class="st0" d="M51.1,157.9c0,0.1-0.1,0.1-0.2,0.1c-0.1,0.5-0.2,1.2-0.3,1.7c0.3,0,0.7-0.1,1-0.1c1,0,1.4,0.7,1.4,1.7
			c0,0.6-0.1,1.2-0.3,1.8c-0.2,0.6-0.7,0.9-1.2,0.9c-0.5-0.1-1-0.3-1.4-0.7c0-0.1,0.1-0.1,0.1-0.2c0.7,0.5,1,0.6,1.3,0.6
			c0.5,0,0.9-0.3,1-0.8c0.2-0.6,0.3-1.2,0.3-1.7c0-0.9-0.3-1.5-1.2-1.5c-0.4,0-0.7,0-1.1,0.1c-0.3,1.5-0.9,2.9-1.6,4.1l-0.2-0.1
			c0.8-1.2,1.3-2.6,1.6-4c-0.5,0.1-1,0.1-1.5,0.2v-0.2l1.6-0.2c0.1-0.5,0.3-1.3,0.4-1.9L51.1,157.9z M53,157.7
			c0.4,0.3,0.8,0.7,1.1,1l-0.2,0.1c-0.3-0.4-0.7-0.7-1.1-1L53,157.7z M54.8,162.1c-0.3-1-0.9-2-1.7-2.6l0.2-0.1
			c0.9,0.7,1.5,1.6,1.8,2.7L54.8,162.1z M54.1,157.4c0.4,0.3,0.8,0.7,1.1,1.1l-0.2,0.1c-0.3-0.4-0.7-0.7-1.1-1L54.1,157.4z"/>
		<path class="st0" d="M57.5,157.7c0.4,0.3,0.7,0.6,0.9,1c0.3-0.3,0.6-0.7,0.8-1.1l0.3,0.1c0,0-0.1,0-0.1,0
			c-0.3,0.4-0.6,0.8-0.9,1.1c0.7,1.7,0.8,3.6,0.2,5.3c-0.1,0.2-0.3,0.2-0.9,0.2h-0.4c0-0.1,0-0.2-0.1-0.2h0.6c0.4,0,0.5,0,0.6-0.2
			c0.3-0.8,0.4-1.6,0.3-2.4c0-0.3,0-0.6,0-0.9c-0.4,0.7-1,1.4-1.6,1.9c0-0.1-0.1-0.1-0.2-0.2c0.7-0.5,1.3-1.2,1.7-2
			c-0.1-0.5-0.2-0.9-0.4-1.3c-0.3,0.3-0.7,0.6-1.1,0.9l-0.2-0.1c0.4-0.3,0.8-0.6,1.1-0.9c-0.3-0.4-0.6-0.7-0.9-1L57.5,157.7z
			 M63.4,164H64v0.2h-4.8V164h0.9v-6h3.2V164z M63.1,158.2h-2.8v1.7h2.8V158.2z M63.1,161.9v-1.8h-2.8v1.8L63.1,161.9z M60.3,162.1
			v1.9h2.8v-1.9H60.3z"/>
		<path class="st0" d="M66.3,160.6l0.6-0.2c0.9-0.3,1.8-0.5,2.7-0.6c0.9-0.1,1.8,0.6,1.9,1.5c0,0.1,0,0.2,0,0.3
			c0,1.6-1.7,2.2-3.6,2.4c0-0.1,0-0.1-0.1-0.2c1.7-0.1,3.4-0.7,3.4-2.1c0-0.8-0.6-1.5-1.4-1.5c-0.1,0-0.2,0-0.2,0
			c-0.9,0.1-1.8,0.3-2.6,0.6l-0.5,0.2c0,0.1,0,0.1-0.1,0.1L66.3,160.6z"/>
		<path class="st0" d="M76,157.8c0,0.1-0.1,0.1-0.2,0.1c-0.1,0.4-0.1,0.8-0.2,1.3c0.8,0,1.6-0.2,2.4-0.4L78,159
			c-0.8,0.3-1.6,0.4-2.5,0.5c-0.2,1.7-0.7,3.3-1.4,4.8l-0.2-0.1c0.7-1.5,1.2-3.1,1.4-4.7h-1.5v-0.2h1.5c0.1-0.5,0.2-1,0.2-1.5
			L76,157.8z M80,164.1h-0.6c-0.6,0-1.3,0-1.9-0.2c-0.4-0.1-0.7-0.5-0.7-0.9c0-0.4,0.2-0.8,0.5-1.1l0.2,0.1
			c-0.2,0.3-0.4,0.6-0.4,0.9c0,0.7,0.6,0.9,2.2,0.9c0.3,0,0.5,0,0.8,0L80,164.1z M79.8,160.5c-0.9,0-1.8,0.1-2.7,0.4l-0.1-0.2
			c0.9-0.3,1.8-0.4,2.7-0.4L79.8,160.5z"/>
		<path class="st0" d="M84.8,159.2l0.1,0.1v0.1c-0.1,1.1-0.3,2.2-0.8,3.3c0.3,0.2,0.7,0.5,0.9,0.8l-0.1,0.2
			c-0.3-0.3-0.6-0.6-0.9-0.8c-0.3,0.7-0.9,1.3-1.6,1.7c0-0.1-0.1-0.1-0.2-0.2c0.7-0.4,1.2-0.9,1.5-1.6c-0.4-0.3-0.8-0.5-1.2-0.7
			l-0.1,0.4l-0.2-0.1c0.2-0.7,0.5-1.7,0.7-2.7h-0.9v-0.2h0.9c0.1-0.6,0.3-1.1,0.4-1.6l0.3,0c0,0,0,0.1-0.1,0.1
			c-0.1,0.4-0.2,0.9-0.3,1.5L84.8,159.2L84.8,159.2z M83.3,159.4c-0.2,0.8-0.4,1.6-0.6,2.3c0.4,0.2,0.8,0.5,1.2,0.7
			c0.4-0.9,0.7-2,0.7-3L83.3,159.4z M89.1,161v0.2h-1.9v2.9c0,0.2-0.1,0.3-0.3,0.4c-0.4,0-0.8,0-1.2,0c0-0.1-0.1-0.2-0.1-0.2h0.9
			c0.5,0,0.5,0,0.5-0.2v-2.8h-2.1v-0.2h2v-1.4h0.2c0.5-0.4,1-0.9,1.4-1.4h-3.3v-0.2h3.5h0.1l0.2,0.1c0,0-0.1,0-0.1,0
			c-0.5,0.7-1.1,1.2-1.7,1.7v1.1L89.1,161z"/>
		<path class="st0" d="M91.9,158.6v0.9c0,1-0.2,2-0.8,2.8c0-0.1-0.1-0.1-0.2-0.1c0.5-0.8,0.8-1.7,0.7-2.7v-1.1h3.1
			c-0.1-0.3-0.1-0.6-0.1-0.8H95c0,0,0,0.1-0.1,0.1c0,0.2,0,0.5,0.1,0.7h2.8v0.2H95c0.2,0.7,0.4,1.4,0.8,2.1c0.3-0.5,0.6-1,0.8-1.5
			l0.3,0.1c0,0-0.1,0.1-0.1,0.1c-0.2,0.6-0.5,1.1-0.9,1.6c0.4,0.7,0.9,1.2,1.4,1.2c0.2,0,0.3-0.3,0.4-1c0.1,0,0.1,0.1,0.2,0.1
			c-0.1,0.9-0.2,1.1-0.6,1.1s-1-0.5-1.5-1.2c-0.4,0.5-0.8,0.8-1.3,1.2c0-0.1-0.1-0.1-0.2-0.1c0.5-0.3,1-0.7,1.4-1.2
			c-0.4-0.7-0.7-1.5-0.8-2.3L91.9,158.6z M92.2,162.7c-0.1,0.7-0.5,1.2-1.1,1.5l-0.2-0.1c0.6-0.3,1-0.8,1.1-1.4L92.2,162.7z
			 M92.2,159.5v-0.2h2.4v0.2L92.2,159.5z M94.4,161.6h-1.7v0.3h-0.2v-1.8h2L94.4,161.6z M94.2,160.3h-1.5v1h1.5V160.3z M93.3,163.9
			c0,0.2,0.1,0.2,0.5,0.2h1.7c0.4,0,0.4-0.1,0.4-0.9c0.1,0,0.1,0.1,0.2,0.1c0,0.8-0.1,1-0.7,1h-1.8c-0.6,0-0.8-0.1-0.8-0.4v-1.3h0.3
			c0,0,0,0.1-0.1,0.1L93.3,163.9z M95,163.1c-0.4-0.4-0.9-0.7-1.4-0.9l0.1-0.2c0.5,0.2,1,0.5,1.4,0.9L95,163.1z M96,157.5
			c0.4,0.1,0.8,0.3,1.1,0.5l-0.1,0.2c-0.3-0.3-0.7-0.4-1.1-0.6L96,157.5z M97.7,164.2c-0.4-0.6-0.9-1.1-1.5-1.5l0.2-0.1
			c0.6,0.4,1.1,0.9,1.5,1.5L97.7,164.2z"/>
		<path class="st0" d="M106.8,162h-1.6c-0.2,0.6-0.7,1.1-1.3,1.5c0.9,0.2,1.8,0.5,2.6,0.8l-0.1,0.2c-0.9-0.4-1.8-0.6-2.8-0.8
			c-1.1,0.5-2.3,0.8-3.6,0.8c0-0.1-0.1-0.2-0.1-0.2c1.1,0,2.3-0.3,3.3-0.7c-0.6-0.1-1.3-0.3-2-0.4l-0.2,0.3l-0.2-0.1
			c0.3-0.4,0.7-0.9,1-1.3h-2v-0.2h2.1c0.2-0.3,0.4-0.6,0.6-0.9l0.3,0.1c0,0-0.1,0-0.1,0l-0.5,0.7h4.4L106.8,162z M102.3,159.1v-0.9
			H100V158h6.7v0.2h-2.4v0.9h1.8v1.8h-5.6v-1.8H102.3z M100.8,159.3v1.4h1.5v-1.3L100.8,159.3z M102.2,162c-0.2,0.3-0.5,0.7-0.7,0.9
			c0.7,0.1,1.5,0.3,2.2,0.4c0.6-0.3,1-0.8,1.3-1.4L102.2,162z M104.1,159.1v-0.9h-1.6v0.9H104.1z M102.5,159.3v1.4h1.6v-1.3
			L102.5,159.3z M105.9,159.3h-1.6v1.4h1.6V159.3z"/>
		<path class="st0" d="M109.1,158h6.2v6.5h-0.2v-0.4h-5.8v0.4h-0.2V158z M109.3,163.8h5.8v-5.7h-5.8V163.8z M114.5,160.3h-2.1
			c0.2,1.2,1,2.3,2.2,2.7c-0.1,0.1-0.1,0.1-0.2,0.2c-1.2-0.5-2.1-1.6-2.2-2.9l0,0c-0.1,1.3-0.9,2.5-2.2,3c0-0.1-0.1-0.1-0.2-0.2
			c1.2-0.4,2.1-1.5,2.1-2.8h-2.1v-0.2h2.1c0.1-0.4,0.1-0.9,0.1-1.4h0.4c0,0.1-0.1,0.1-0.1,0.1c0,0.5,0,0.9-0.1,1.3h2.3L114.5,160.3z
			"/>
		<path class="st0" d="M119.3,160.6c0.4-0.3,0.8-0.5,1.3-0.6c0.6,0,0.8,0.4,0.9,1c0.7-0.3,1.5-0.7,2.2-0.9l0.2,0.3l0,0
			c0,0-0.1,0-0.1,0c-0.6,0.2-1.5,0.6-2.1,0.9c0,0.2,0,0.4,0,0.7c0,0.3,0,0.6,0,0.9h-0.3c0-0.3,0-0.7,0-1c0-0.1,0-0.3,0-0.4
			c-1,0.5-1.9,1.1-1.9,1.6s0.6,0.8,1.8,0.8c0.6,0,1.2,0,1.9-0.1v0.3c-0.5,0-1.2,0.1-1.9,0.1c-1.4,0-2-0.4-2-1s0.9-1.3,2.1-1.9
			c-0.1-0.6-0.3-0.9-0.7-0.9c-0.8,0.1-1.4,0.5-1.9,1.1c-0.3,0.3-0.6,0.6-0.9,0.8l-0.2-0.2c1-0.7,1.7-1.8,2-3H118v-0.2h1.9
			c0.1-0.4,0.2-0.7,0.2-1.1l0.4,0.1c0,0.1-0.1,0.1-0.2,0.1c-0.1,0.3-0.1,0.6-0.2,0.9c1,0,1.9-0.2,2.8-0.5l0.1,0.2
			c-0.9,0.3-1.9,0.4-2.9,0.4C119.9,159.6,119.7,160.1,119.3,160.6L119.3,160.6z"/>
		<path class="st0" d="M127.4,161.1c0.5,0.5,1.1,0.7,1.8,0.7h0.9c0.9,0,2.1,0,2.8,0c0,0.1-0.1,0.2-0.1,0.2h-1.5c0,0,0,0.1-0.1,0.1
			v0.5h1.7v0.2h-1.7v1.3c0,0.2-0.1,0.3-0.2,0.3c-0.4,0-0.8,0-1.2,0c0-0.1-0.1-0.1-0.1-0.2h0.7c0.7,0,0.7,0,0.7-0.1v-1.3h-5v-0.2h5
			V162h-1.8c-0.7,0-1.4-0.2-1.9-0.7c-0.4,0.3-0.8,0.5-1.1,0.7c0,0.1,0,0.1-0.1,0.1l-0.2-0.3c0.4-0.2,0.8-0.5,1.2-0.7v-1.2H126v-0.2
			h1.4L127.4,161.1z M126.4,157.8c0.4,0.3,0.7,0.6,1,0.9l-0.2,0.2c-0.3-0.4-0.6-0.7-1-1L126.4,157.8z M128.5,164.1
			c-0.4-0.4-0.8-0.7-1.2-0.9l0.2-0.1c0.5,0.2,0.9,0.6,1.2,0.9L128.5,164.1z M128.5,159.1h1.5c0.1-0.2,0.1-0.4,0.1-0.5h-2.3v-0.2h1.6
			c-0.2-0.2-0.3-0.5-0.6-0.7l0.2-0.1c0.2,0.2,0.5,0.5,0.6,0.7h-0.1h1.3c0.2-0.2,0.3-0.5,0.5-0.8l0.3,0.1c0,0-0.1,0.1-0.1,0.1
			c-0.1,0.2-0.3,0.4-0.4,0.6h1.6v0.2h-2.5l-0.1,0.5h2v2.2h-3.7L128.5,159.1z M131.9,159.7v-0.4h-3.2v0.4L131.9,159.7z M131.9,160.4
			V160h-3.2v0.4H131.9z M131.9,161.1v-0.5h-3.2v0.5H131.9z"/>
		<path class="st0" d="M138.8,164.4c-0.9-1-1.9-2-3-2.9c-0.3-0.3-0.5-0.5-0.5-0.7s0.1-0.4,0.4-0.6c0.6-0.6,1.9-1.7,2.7-2.5l0.3,0.2
			c0,0-0.1,0.1-0.1,0.1h-0.1c-0.8,0.8-2,1.9-2.6,2.4c-0.2,0.2-0.3,0.3-0.3,0.4s0.1,0.3,0.4,0.5c1.1,0.9,2.1,1.9,3,2.9L138.8,164.4z"
			/>
		<path class="st0" d="M144.7,161.7l0.3,2.5h-0.2l-0.3-2.5l-2.9,0.4v-0.2l2.9-0.4l-0.2-1.9l-2.5,0.3v-0.2l2.5-0.3l-0.2-1.6h0.4
			c0,0.1-0.1,0.1-0.2,0.1l0.2,1.4l2.4-0.3v0.2l-2.4,0.3l0.2,1.9l2.9-0.4v0.2L144.7,161.7z"/>
		<path class="st0" d="M150.1,160.7h6.2v0.2h-6c0,0.1-0.1,0.1-0.2,0.1L150.1,160.7z"/>
		<path class="st0" d="M164.3,158.6C164.3,158.6,164.3,158.6,164.3,158.6c-0.3,3-1.4,4.5-3.9,5.5l-0.2-0.2c2.4-0.9,3.4-2.4,3.7-5.2
			h-4.8v2.2H159v-2.4h5l0.1-0.1L164.3,158.6z"/>
		<path class="st0" d="M166.7,160.7h6.2v0.2h-5.9c0,0.1-0.1,0.1-0.2,0.1L166.7,160.7z"/>
		<path class="st0" d="M179.6,161.6c-0.9-0.5-1.8-0.9-2.8-1.3v3.9h-0.2v-6.4h0.4c0,0.1-0.1,0.1-0.2,0.1v2.3l0.1-0.1
			c1,0.4,2,0.8,2.9,1.3L179.6,161.6z M178.7,158.2c0.4,0.3,0.8,0.7,1.1,1.2l-0.2,0.1c-0.3-0.4-0.7-0.8-1.1-1.1L178.7,158.2z
			 M179.7,157.6c0.4,0.3,0.8,0.7,1.1,1.1l-0.2,0.1c-0.3-0.4-0.7-0.8-1.1-1.1L179.7,157.6z"/>
		<path class="st0" d="M184.7,160.6c0.4-0.3,0.8-0.5,1.3-0.6c0.6,0,0.8,0.4,0.9,1c0.7-0.3,1.5-0.7,2.2-0.9l0.2,0.3l0,0
			c0,0-0.1,0-0.1,0c-0.6,0.2-1.5,0.6-2.1,0.9c0,0.2,0,0.4,0,0.7c0,0.3,0,0.6,0,0.9h-0.4c0-0.3,0-0.7,0-1c0-0.1,0-0.3,0-0.4
			c-1,0.5-1.9,1.1-1.9,1.6s0.6,0.8,1.8,0.8c0.6,0,1.2,0,1.9-0.1v0.3c-0.5,0-1.2,0.1-1.9,0.1c-1.4,0-2-0.4-2-1s0.9-1.3,2.1-1.9
			c-0.1-0.6-0.3-0.9-0.7-0.9c-0.8,0.1-1.4,0.5-1.9,1.1c-0.3,0.3-0.6,0.6-0.9,0.8l-0.2-0.2c1-0.7,1.7-1.8,2-3h-1.8v-0.2h1.9
			c0.1-0.4,0.2-0.7,0.2-1.1l0.4,0.1c0,0.1-0.1,0.1-0.2,0.1c-0.1,0.3-0.1,0.6-0.2,0.9c1,0,1.9-0.2,2.8-0.5l0.1,0.2
			c-0.9,0.3-1.9,0.4-2.9,0.4C185.2,159.6,185,160.1,184.7,160.6L184.7,160.6z"/>
		<path class="st0" d="M193.6,161.2l-0.9,0.4v2.6c0,0.2-0.1,0.3-0.2,0.3c-0.3,0-0.6,0-0.9,0c0-0.1-0.1-0.1-0.1-0.2h0.5
			c0.4,0,0.4,0,0.4-0.1v-2.5l-1.1,0.4c0,0,0,0.1-0.1,0.1l-0.2-0.3l1.3-0.5v-2h-1.3v-0.2h1.3v-1.6h0.3c0,0,0,0.1-0.1,0.1v1.5h0.9v0.2
			h-0.9v1.9l0.9-0.3V161.2z M195.9,164c0.3,0,0.6,0.1,0.8,0.1h1.3c0,0.1-0.1,0.1-0.1,0.2h-1.2c-1.1,0-1.9-0.2-2.4-1.4
			c-0.2,0.6-0.5,1.2-0.9,1.6l-0.2-0.1c0.7-0.7,1.1-1.6,1.1-2.6l0.3,0.1c0,0,0,0.1-0.1,0.1c0,0.2-0.1,0.5-0.1,0.7
			c0.1,0.6,0.6,1.1,1.2,1.3v-2.6h-1.9v-0.2h4.3v0.2h-2.1v1.1h1.8v0.2h-1.8L195.9,164z M197.6,157.9v2.5h-3.4v-2.5H197.6z M197.3,159
			v-0.9h-2.9v0.9H197.3z M197.3,160.1v-0.9h-2.9v0.9H197.3z"/>
		<path class="st0" d="M201.8,161.4c0,0-0.1,0.1-0.1,0.1c-0.3,0.9-0.9,1.7-1.6,2.4c-0.1-0.1-0.1-0.1-0.2-0.1
			c0.7-0.7,1.2-1.5,1.6-2.4L201.8,161.4z M206.8,160.3h-3.2v3.7c0,0.2-0.1,0.3-0.3,0.4c-0.4,0-0.8,0-1.3,0c0-0.1-0.1-0.2-0.1-0.2
			h0.9c0.5,0,0.5,0,0.5-0.2v-3.7h-3.2V160h6.6L206.8,160.3z M206.2,158.2v0.2h-5.3v-0.2L206.2,158.2z M206.7,163.7
			c-0.4-0.9-0.9-1.7-1.5-2.4l0.2-0.1c0.6,0.7,1.1,1.5,1.5,2.4L206.7,163.7z"/>
		<rect x="7.8" y="11.3" class="st1" width="206.8" height="128.1"/>
		
			<image style="overflow:visible;enable-background:new    ;" width="1580" height="1108" xlink:href="../../Downloads/COLLAGE_ZERO_fix/26972427_1706521512738208_603565730_o.png"  transform="matrix(0.1214 0 0 0.1214 15.2123 0.5)">
		</image>
	</g>
</g>
</svg>
