<svg xmlns="http://www.w3.org/2000/svg" viewBox="0 0 204.6 7.55"><defs><style>.cls-1{fill:#fff;}</style></defs><title>pro2_main_right_des</title><g id="Layer_2" data-name="Layer 2"><g id="レイヤー_1" data-name="レイヤー 1"><path class="cls-1" d="M.1,2.73a12.63,12.63,0,0,1,2.22.7l-.1.25A13,13,0,0,0,0,3Zm.66,4A8.57,8.57,0,0,0,6.27,2a1.71,1.71,0,0,0,.22.14A8.74,8.74,0,0,1,1.07,6.94.17.17,0,0,1,1,7.12Zm.16-6a12.78,12.78,0,0,1,2.2.78L3,1.76A12.87,12.87,0,0,0,.83,1Z"/><path class="cls-1" d="M13.82,1.15a.1.1,0,0,1-.08.06A12.76,12.76,0,0,1,12.07,4a29.68,29.68,0,0,1,3.11,2.88L15,7.08A27.85,27.85,0,0,0,11.9,4.24,12.26,12.26,0,0,1,8.65,7.09a1.33,1.33,0,0,0-.18-.2,12.23,12.23,0,0,0,4.93-5.6H9.25V1h4.27l.06,0Z"/><path class="cls-1" d="M23.86,3.32H21l.12,0s-.06.08-.14.09a4.36,4.36,0,0,1-2.52,3.8A1.5,1.5,0,0,0,18.3,7a4.12,4.12,0,0,0,2.45-3.72H17.46V3.06h6.4ZM23.09,1H18.18V.79h4.91Z"/><path class="cls-1" d="M32.31,7c-.11-.24-.26-.53-.45-.84-1.61.16-4.7.32-6,.39a.22.22,0,0,1-.14.15l-.13-.4.86,0c.55-1.58,1.38-4,1.86-5.69l.42.12c0,.07-.1.1-.21.1-.48,1.55-1.22,3.86-1.79,5.46,1.58-.07,3.73-.21,4.95-.33a16.43,16.43,0,0,0-1.66-2.21l.22-.14a15.59,15.59,0,0,1,2.29,3.33Z"/><path class="cls-1" d="M37.71.54c0,.1-.1.14-.26.14-.1.49-.26,1.32-.36,1.81A10.83,10.83,0,0,1,38.2,2.4c1.1,0,1.5.72,1.5,1.86a6.12,6.12,0,0,1-.32,1.94,1.36,1.36,0,0,1-1.33,1,2.32,2.32,0,0,1-1.46-.73,1,1,0,0,0,.13-.22c.71.57,1.06.69,1.34.69a1.09,1.09,0,0,0,1.07-.85,6.44,6.44,0,0,0,.31-1.87c0-1-.34-1.62-1.27-1.62A11.4,11.4,0,0,0,37,2.74a13.83,13.83,0,0,1-1.76,4.42L35,7.05a13,13,0,0,0,1.73-4.28c-.5.06-1.09.12-1.57.19l0-.26,1.66-.19c.13-.58.27-1.34.38-2.07ZM39.76.31a6.28,6.28,0,0,1,1.16,1.13l-.18.15A6.07,6.07,0,0,0,39.6.47Zm2,4.66a5.13,5.13,0,0,0-1.84-2.79L40.11,2A5.23,5.23,0,0,1,42,4.87Zm-.81-5a6.19,6.19,0,0,1,1.16,1.13l-.18.15A6.1,6.1,0,0,0,40.78.16Z"/><path class="cls-1" d="M44.59.28a5.1,5.1,0,0,1,1,1.09,6.69,6.69,0,0,0,.9-1.18l.29.16a.11.11,0,0,1-.12,0,7.94,7.94,0,0,1-1,1.18,5.66,5.66,0,0,1,.64,3,5.67,5.67,0,0,1-.4,2.73c-.13.18-.27.25-1,.25h-.4a.64.64,0,0,0-.1-.26l.61,0c.46,0,.58,0,.68-.17a5.87,5.87,0,0,0,.34-2.57,8.68,8.68,0,0,0,0-1,6.77,6.77,0,0,1-1.72,2,.78.78,0,0,0-.17-.21A5.89,5.89,0,0,0,46,3.15a4.26,4.26,0,0,0-.48-1.41,12,12,0,0,1-1.14,1l-.17-.14a9.72,9.72,0,0,0,1.19-1,4.82,4.82,0,0,0-1-1.12ZM50.9,7h.7v.24H46.45V7h1V.58H50.9ZM50.66.82h-3V2.68h3Zm0,4V2.92h-3V4.84Zm-3,.24V7h3v-2Z"/><path class="cls-1" d="M54,3.38l.66-.19a11.53,11.53,0,0,1,2.9-.61,1.8,1.8,0,0,1,2,1.86c0,1.7-1.81,2.36-3.81,2.52a1.72,1.72,0,0,0-.06-.22c1.84-.14,3.62-.72,3.62-2.29a1.57,1.57,0,0,0-1.75-1.62,10.87,10.87,0,0,0-2.81.6l-.53.18a.14.14,0,0,1-.1.12Z"/><path class="cls-1" d="M64.44.37c0,.08-.14.14-.24.14-.06.39-.14.82-.22,1.4a9.47,9.47,0,0,0,2.52-.48l.09.25a10.41,10.41,0,0,1-2.65.5,19.09,19.09,0,0,1-1.52,5.12l-.25-.1a18.22,18.22,0,0,0,1.5-5H62.08V1.93h1.62c.09-.54.18-1.12.24-1.62Zm4.27,6.81L68,7.2A7.32,7.32,0,0,1,66,7a1,1,0,0,1-.76-1,1.87,1.87,0,0,1,.49-1.15l.21.14a1.71,1.71,0,0,0-.45,1c0,.72.66,1,2.37,1,.27,0,.56,0,.86,0Zm-.25-3.89a8.61,8.61,0,0,0-2.85.4l-.08-.23A9.38,9.38,0,0,1,68.47,3Z"/><path class="cls-1" d="M73.83,1.9,74,2,74,2a10.17,10.17,0,0,1-.84,3.49,6.25,6.25,0,0,1,1,.89L74,6.6a6.16,6.16,0,0,0-1-.86,4.32,4.32,0,0,1-1.66,1.79,1.05,1.05,0,0,0-.18-.21A4.07,4.07,0,0,0,72.8,5.59a10.24,10.24,0,0,0-1.25-.79l-.11.41-.22-.12c.22-.73.5-1.84.76-2.93h-.93V1.92h1c.14-.62.28-1.23.38-1.74l.36.05s0,.07-.13.07c-.1.47-.23,1-.37,1.62h1.5Zm-1.61.26c-.2.84-.42,1.7-.61,2.41a12.49,12.49,0,0,1,1.29.79,9.45,9.45,0,0,0,.78-3.21Zm6.18,1.63V4h-2V7.09c0,.25-.07.34-.27.39a7.24,7.24,0,0,1-1.3,0,1.45,1.45,0,0,0-.1-.25l.91,0c.5,0,.53,0,.53-.19V4H74V3.79h2.14V2.34l.22,0A7.75,7.75,0,0,0,77.85.84H74.34V.6H78l.06,0,.2.14a.18.18,0,0,1-.08,0,8.85,8.85,0,0,1-1.85,1.85V3.79Z"/><path class="cls-1" d="M81.43,1.31v1a5,5,0,0,1-.86,3,.5.5,0,0,0-.18-.16,4.68,4.68,0,0,0,.8-2.89V1.07H84.5a7.12,7.12,0,0,1-.11-.9l.39,0c0,.05,0,.08-.13.09,0,.26,0,.54.09.8h3v.24H84.79a8.08,8.08,0,0,0,.82,2.21,6.64,6.64,0,0,0,.89-1.62l.34.1s-.07.07-.15.07a6.57,6.57,0,0,1-1,1.67c.47.75,1,1.26,1.46,1.25.24,0,.33-.29.38-1.09A.71.71,0,0,0,87.8,4c-.06.91-.21,1.21-.6,1.21s-1.12-.51-1.62-1.3a6.15,6.15,0,0,1-1.42,1.24A1,1,0,0,0,84,5a5.69,5.69,0,0,0,1.47-1.29,8.32,8.32,0,0,1-.9-2.41Zm.38,4.32a2.14,2.14,0,0,1-1.2,1.63l-.18-.14A2,2,0,0,0,81.6,5.57Zm-.06-3.4V2h2.59v.24Zm2.33,2.21H82.24v.33H82V2.85h2.09Zm-.24-1.34H82.24V4.2h1.61Zm-1,3.84c0,.18.08.22.56.22h1.82c.39,0,.45-.1.48-.94a.76.76,0,0,0,.24.11c0,.88-.14,1.07-.7,1.07H83.39c-.65,0-.82-.06-.82-.47V5.56l.36,0s0,.07-.12.08Zm1.81-.8a5.33,5.33,0,0,0-1.54-1L83.23,5a5,5,0,0,1,1.55,1Zm1.11-6a4,4,0,0,1,1.21.58l-.14.21A4,4,0,0,0,85.58.33Zm1.85,7.08A5.67,5.67,0,0,0,86,5.67l.18-.14a5.58,5.58,0,0,1,1.57,1.56Z"/><path class="cls-1" d="M97.35,4.9H95.67a3.19,3.19,0,0,1-1.35,1.57,19.67,19.67,0,0,1,2.82.86L97,7.53a20.25,20.25,0,0,0-3-.9,9.82,9.82,0,0,1-3.83.87.7.7,0,0,0-.11-.24,10.57,10.57,0,0,0,3.57-.71c-.68-.15-1.4-.29-2.13-.41l-.24.31-.22-.11c.31-.38.7-.91,1.08-1.44H90V4.66h2.3c.23-.33.45-.64.63-.92l.33.11s-.07.05-.15,0l-.53.76h4.75ZM92.59,1.76V.83h-2.5V.59h7.2V.83H94.75v.93h1.93V3.69h-6V1.76ZM91,2V3.45h1.63V2Zm1.48,2.9c-.26.36-.52.72-.77,1,.79.12,1.57.27,2.31.44A3.2,3.2,0,0,0,95.4,4.9Zm2.07-3.14V.83H92.83v.93ZM92.83,2V3.45h1.68V2Zm3.61,0H94.75V3.45h1.69Z"/><path class="cls-1" d="M99.8.58h6.68V7.53h-.24V7.12H100v.41H99.8Zm.24,6.3h6.2V.82H100Zm5.59-3.8h-2.27A3.6,3.6,0,0,0,105.69,6a.74.74,0,0,0-.18.21,3.89,3.89,0,0,1-2.4-3.14h0a3.54,3.54,0,0,1-2.35,3.19.68.68,0,0,0-.17-.18,3.38,3.38,0,0,0,2.28-3h-2.25V2.85h2.28c.06-.47.09-1,.11-1.53l.38,0c0,.06-.06.09-.14.11,0,.49,0,1-.1,1.4h2.49Z"/><path class="cls-1" d="M110.8,3.46a2.3,2.3,0,0,1,1.42-.6c.6,0,.9.43,1,1.1.71-.33,1.62-.7,2.31-1l.17.34h0a.22.22,0,0,1-.12,0c-.62.22-1.56.59-2.28.93a6.07,6.07,0,0,1,0,.71c0,.3,0,.63,0,1H113c0-.31,0-.74,0-1.1a4.4,4.4,0,0,0,0-.48c-1.09.53-2,1.15-2,1.76s.63.82,1.88.82a17.83,17.83,0,0,0,2-.08v.27c-.51,0-1.25.06-2,.06-1.54,0-2.15-.38-2.15-1.08s1-1.39,2.25-2c-.06-.69-.36-1-.74-1a2.92,2.92,0,0,0-2,1.21,12.6,12.6,0,0,1-.91.87L109.07,5a5.82,5.82,0,0,0,2.12-3.2h-1.94V1.57h2a11.71,11.71,0,0,0,.25-1.21l.47.08c0,.08-.07.13-.19.13a9.92,9.92,0,0,1-.23,1,11.52,11.52,0,0,0,3-.49l.06.26a11.94,11.94,0,0,1-3.1.48,6.34,6.34,0,0,1-.7,1.64Z"/><path class="cls-1" d="M119.43,3.92a2.42,2.42,0,0,0,1.89.75h1c1,0,2.3,0,3,0a.82.82,0,0,0-.09.25l-1.6,0s0,.06-.12.07v.58h1.8V5.8h-1.8V7.15c0,.2-.06.29-.24.34a7.28,7.28,0,0,1-1.33,0,1,1,0,0,0-.1-.22h.71c.72,0,.72,0,.72-.16V5.8h-5.3V5.56h5.3V4.91l-1.89,0a2.7,2.7,0,0,1-2-.75c-.41.29-.81.57-1.15.79,0,.06,0,.08-.06.1L118,4.74a13.56,13.56,0,0,0,1.24-.79V2.65H118V2.41h1.46ZM118.37.41a4.73,4.73,0,0,1,1.09,1l-.19.17A4.75,4.75,0,0,0,118.19.54Zm2.29,6.73a5.25,5.25,0,0,0-1.31-1l.17-.16a5.42,5.42,0,0,1,1.32,1Zm-.09-5.35h1.58c.06-.17.11-.38.16-.56h-2.4V1h1.67a3.29,3.29,0,0,0-.61-.7l.2-.12a3,3,0,0,1,.66.78l-.06,0h1.44a6.77,6.77,0,0,0,.51-.82l.31.13a.12.12,0,0,1-.13.06c-.11.18-.28.43-.44.64h1.73v.24h-2.66l-.16.56h2.13V4.17h-3.94Zm3.7.7V2h-3.46v.46Zm0,.71V2.73h-3.46v.47Zm0,.73V3.45h-3.46v.49Z"/><path class="cls-1" d="M131.7,7.46a26,26,0,0,0-3.17-3.08c-.35-.28-.51-.5-.51-.72s.16-.41.46-.69c.68-.62,2-1.83,2.87-2.72l.37.25a.17.17,0,0,1-.15.06l-.1,0c-.85.83-2.17,2-2.83,2.62-.2.19-.34.34-.34.48s.11.3.39.53a27,27,0,0,1,3.24,3.12Z"/><path class="cls-1" d="M137.95,4.61l.3,2.64-.26,0-.3-2.64-3.13.4,0-.25,3.15-.4-.23-2.07-2.66.34,0-.25,2.67-.34L137.22.41l.44,0c0,.07-.07.13-.17.15L137.66,2l2.57-.33,0,.26-2.57.33.23,2.07,3.14-.4,0,.25Z"/><path class="cls-1" d="M143.69,3.56h6.68v.26H144a.3.3,0,0,1-.23.14Z"/><path class="cls-1" d="M159,1.22a.14.14,0,0,1-.07,0c-.3,3.21-1.46,4.86-4.06,5.9l-.18-.2c2.56-1,3.68-2.61,4-5.59h-5.09V3.7h-.25V1.13h5.4l.07-.06Z"/><path class="cls-1" d="M161.57,3.56h6.68v.26h-6.4a.3.3,0,0,1-.23.14Z"/><path class="cls-1" d="M175.38,4.48a31.39,31.39,0,0,0-3-1.37V7.28h-.26V.39l.46,0c0,.08-.07.12-.19.14V3l.06-.1a30.56,30.56,0,0,1,3.1,1.39Zm-1-3.59a7.12,7.12,0,0,1,1.17,1.24l-.18.15a7.34,7.34,0,0,0-1.17-1.22Zm1.06-.66a7.27,7.27,0,0,1,1.17,1.23l-.18.15A7.45,7.45,0,0,0,175.28.38Z"/><path class="cls-1" d="M180.78,3.46a2.3,2.3,0,0,1,1.42-.6c.6,0,.9.43,1,1.1.71-.33,1.62-.7,2.31-1l.17.34h0a.21.21,0,0,1-.12,0c-.62.22-1.56.59-2.28.93a6.07,6.07,0,0,1,0,.71c0,.3,0,.63,0,1h-.29c0-.31,0-.74,0-1.1a4.41,4.41,0,0,0,0-.48c-1.09.53-2,1.15-2,1.76s.63.82,1.88.82a17.84,17.84,0,0,0,2-.08v.27c-.51,0-1.26.06-2,.06-1.54,0-2.15-.38-2.15-1.08s1-1.39,2.25-2c-.06-.69-.36-1-.74-1a2.92,2.92,0,0,0-2,1.21,12.43,12.43,0,0,1-.91.87L179,5a5.82,5.82,0,0,0,2.12-3.2h-1.94V1.57h2a11.71,11.71,0,0,0,.25-1.21l.47.08c0,.08-.07.13-.19.13a9.92,9.92,0,0,1-.23,1,11.52,11.52,0,0,0,3-.49l.06.26a11.94,11.94,0,0,1-3.1.48,6.34,6.34,0,0,1-.7,1.64Z"/><path class="cls-1" d="M190.33,4l-1,.4V7.13c0,.22-.07.3-.22.35a4.17,4.17,0,0,1-.94,0,1.35,1.35,0,0,0-.1-.23h.56c.44,0,.46,0,.46-.16V4.49l-1.18.44a.12.12,0,0,1-.07.12l-.17-.31,1.42-.5V2.12h-1.34V1.88h1.34V.18l.36,0s0,.07-.12.08V1.88h1v.24h-1v2l1-.37Zm2.45,3a4.7,4.7,0,0,0,.9.07h1.43a.89.89,0,0,0-.1.24h-1.33c-1.22,0-2.06-.24-2.55-1.46a3.57,3.57,0,0,1-1,1.69l-.18-.14a4.33,4.33,0,0,0,1.22-2.81l.36.07s0,.07-.14.07a7.89,7.89,0,0,1-.15.79,1.91,1.91,0,0,0,1.31,1.42V4.17h-2.05V3.93h4.57v.24h-2.28V5.38h1.91v.24h-1.91ZM194.54.47V3.16h-3.61V.47Zm-.24,1.21v-1h-3.13v1Zm0,1.23v-1h-3.13v1Z"/><path class="cls-1" d="M199.12,4.23s-.06.06-.15.06a7.22,7.22,0,0,1-1.67,2.53,1.06,1.06,0,0,0-.18-.15,6.77,6.77,0,0,0,1.66-2.55Zm5.34-1.13H201v4c0,.24-.07.33-.27.38a8.24,8.24,0,0,1-1.35,0,.9.9,0,0,0-.1-.25l.94,0c.5,0,.54,0,.54-.19v-4h-3.42V2.85h7.09ZM203.79.82v.24h-5.69V.82Zm.6,5.94a10,10,0,0,0-1.59-2.54l.2-.09a10.29,10.29,0,0,1,1.61,2.53Z"/></g></g></svg>