<svg xmlns="http://www.w3.org/2000/svg" viewBox="0 0 222.38 164.47"><defs><style>.cls-1{fill:#fff;}.cls-2{fill:none;stroke:#fff;stroke-miterlimit:10;}</style></defs><title>pro2_main_left_1</title><g id="Layer_2" data-name="Layer 2"><g id="レイヤー_1" data-name="レイヤー 1"><path class="cls-1" d="M15.15,157.18a5.1,5.1,0,0,1,1,1.09,6.69,6.69,0,0,0,.9-1.18l.29.16a.11.11,0,0,1-.12,0,7.94,7.94,0,0,1-1,1.18,8.17,8.17,0,0,1,.24,5.71c-.13.18-.27.25-1,.25h-.4a.63.63,0,0,0-.1-.26l.61,0c.46,0,.58,0,.68-.17a5.87,5.87,0,0,0,.34-2.57,8.68,8.68,0,0,0,0-1,6.77,6.77,0,0,1-1.72,2,.82.82,0,0,0-.17-.21A5.86,5.86,0,0,0,16.56,160a4.26,4.26,0,0,0-.48-1.41,12,12,0,0,1-1.14,1l-.17-.14a9.72,9.72,0,0,0,1.19-1,4.87,4.87,0,0,0-1-1.12Zm6.32,6.76h.7v.24H17v-.24h1v-6.45h3.44Zm-.24-6.21h-3v1.86h3Zm0,4v-1.92h-3v1.92Zm-3,.24v2h3v-2Z"/><path class="cls-1" d="M25,158.12c0,.08-.1.12-.23.13a12.82,12.82,0,0,0-.11,1.78c0,.38,0,.75,0,1.08.11,1.55.78,2.45,1.49,2.44.35,0,.83-.83,1.19-1.88a1.19,1.19,0,0,0,.22.13c-.41,1.1-.87,2-1.43,2-.84,0-1.6-1-1.73-2.68,0-.32,0-.69,0-1.07,0-.68,0-1.41.1-2Zm5.88,3.62a4.13,4.13,0,0,0-2.1-3.09l.15-.21a4.31,4.31,0,0,1,2.21,3.24Z"/><path class="cls-1" d="M35.62,157.26c0,.08-.14.14-.24.14-.06.39-.14.82-.22,1.4a9.54,9.54,0,0,0,2.52-.48l.09.25a10.41,10.41,0,0,1-2.65.5,19.09,19.09,0,0,1-1.52,5.12l-.25-.1a18.22,18.22,0,0,0,1.5-5H33.26v-.26h1.62c.09-.54.18-1.12.24-1.62Zm4.27,6.81-.68,0a7.33,7.33,0,0,1-2-.21,1,1,0,0,1-.76-1,1.87,1.87,0,0,1,.49-1.15l.21.14a1.71,1.71,0,0,0-.45,1c0,.72.66,1,2.37,1,.27,0,.56,0,.86,0Zm-.25-3.89a8.61,8.61,0,0,0-2.85.4l-.08-.23a9.39,9.39,0,0,1,2.94-.42Z"/><path class="cls-1" d="M43,158.12c0,.08-.1.12-.23.13a12.82,12.82,0,0,0-.11,1.78c0,.38,0,.75,0,1.08.11,1.55.78,2.45,1.49,2.44.35,0,.83-.83,1.19-1.88a1.19,1.19,0,0,0,.22.13c-.41,1.1-.87,2-1.43,2-.84,0-1.6-1-1.73-2.68,0-.32,0-.69,0-1.07,0-.68,0-1.41.1-2Zm5.88,3.62a4.13,4.13,0,0,0-2.1-3.09l.15-.21a4.31,4.31,0,0,1,2.21,3.24Z"/><path class="cls-1" d="M54.2,158.8l.16.05a.16.16,0,0,1,0,.06,10.17,10.17,0,0,1-.84,3.49,6.25,6.25,0,0,1,1,.89l-.15.2a6.16,6.16,0,0,0-1-.86,4.32,4.32,0,0,1-1.66,1.79,1.05,1.05,0,0,0-.18-.21,4.07,4.07,0,0,0,1.64-1.73,10.24,10.24,0,0,0-1.25-.79l-.11.41-.22-.12c.22-.73.5-1.84.76-2.93h-.93v-.24h1c.14-.62.28-1.23.38-1.74l.36.05s0,.07-.13.07c-.1.47-.23,1-.37,1.62h1.5Zm-1.61.26c-.2.84-.42,1.7-.61,2.41a12.49,12.49,0,0,1,1.29.79,9.45,9.45,0,0,0,.78-3.21Zm6.18,1.63v.24h-2V164c0,.25-.07.34-.27.39a7.24,7.24,0,0,1-1.3,0,1.45,1.45,0,0,0-.1-.25l.91,0c.5,0,.53,0,.53-.19v-3.07H54.34v-.24h2.14v-1.45l.22,0a7.8,7.8,0,0,0,1.5-1.53H54.7v-.24h3.7l.06,0,.2.14a.19.19,0,0,1-.08,0,8.88,8.88,0,0,1-1.86,1.85v1.17Z"/><path class="cls-1" d="M61.79,158.21v1a5,5,0,0,1-.86,3,.5.5,0,0,0-.18-.16,4.68,4.68,0,0,0,.8-2.89V158h3.31a7.1,7.1,0,0,1-.11-.9l.39,0c0,.05,0,.08-.13.09,0,.26,0,.54.09.8h3v.24H65.15a8.08,8.08,0,0,0,.82,2.21,6.64,6.64,0,0,0,.89-1.62l.34.1s-.07.07-.15.07a6.57,6.57,0,0,1-1,1.67c.47.75,1,1.26,1.46,1.25.24,0,.33-.29.38-1.09a.71.71,0,0,0,.22.12c-.06.91-.21,1.21-.6,1.21s-1.12-.51-1.62-1.3a6.15,6.15,0,0,1-1.42,1.24,1,1,0,0,0-.18-.16,5.69,5.69,0,0,0,1.47-1.29,8.32,8.32,0,0,1-.9-2.41Zm.38,4.32a2.14,2.14,0,0,1-1.2,1.63l-.18-.14A2,2,0,0,0,62,162.47Zm-.06-3.4v-.24h2.59v.24Zm2.33,2.21H62.61v.33h-.24v-1.91h2.09ZM64.21,160H62.61v1.1h1.61Zm-1,3.84c0,.18.08.22.56.22h1.82c.39,0,.45-.1.48-.94a.81.81,0,0,0,.24.11c0,.88-.14,1.07-.7,1.07H63.76c-.65,0-.82-.06-.82-.47v-1.37l.36,0s0,.07-.12.08ZM65,163a5.33,5.33,0,0,0-1.54-1l.16-.17a5,5,0,0,1,1.55,1Zm1.11-6a4,4,0,0,1,1.21.58l-.14.21a4,4,0,0,0-1.21-.61Zm1.85,7.08a5.67,5.67,0,0,0-1.56-1.57l.18-.14A5.58,5.58,0,0,1,68.14,164Z"/><path class="cls-1" d="M77.67,158.19h-6.4v2.17a8.93,8.93,0,0,1-.76,4.11.72.72,0,0,0-.2-.14,8.51,8.51,0,0,0,.72-4V158h3.11v-.88l.36,0s0,.07-.12.08V158h3.29Zm-1.06,3.53.18.1a.18.18,0,0,1-.06.06,4.23,4.23,0,0,1-1.82,1.61,9.67,9.67,0,0,0,2.82.73.81.81,0,0,0-.14.22,10,10,0,0,1-2.93-.82,10.82,10.82,0,0,1-3.07.81.85.85,0,0,0-.12-.22,10.58,10.58,0,0,0,2.94-.72,4.3,4.3,0,0,1-1.62-1.39L73,162a4.08,4.08,0,0,0,1.66,1.38A4.09,4.09,0,0,0,76.38,162H71.76v-.24h4.81ZM76,161h-2.9v-1.41H71.68v-.24h1.46v-.84l.36,0s0,.07-.12.08v.73h2.42v-.84l.36,0s0,.07-.12.08v.73h1.58v.24H76Zm-.24-1.41H73.37v1.17h2.42Z"/><path class="cls-1" d="M84.71,158.78l.3,0a1.54,1.54,0,1,1,0,3.05,2.94,2.94,0,0,1-1.68-.58,1.3,1.3,0,0,0,.1-.24,2.73,2.73,0,0,0,1.58.57,1.27,1.27,0,0,0,1.44-1.31c0-.77-.56-1.23-1.42-1.23a11.66,11.66,0,0,0-2.94.74c.34,1.17.87,3.15,1.22,4.44l-.28.06c-.28-1.21-.86-3.29-1.18-4.41l-1.77.6a.22.22,0,0,1-.13.18l-.16-.35,2-.66c-.26-.89-.5-1.66-.62-2.05l.5-.1c0,.1,0,.14-.18.22.22.78.37,1.25.54,1.85a14.69,14.69,0,0,1,2.61-.73,7.29,7.29,0,0,0-1.55-1.42l.17-.18a7.19,7.19,0,0,1,1.63,1.49Z"/><path class="cls-1" d="M89.25,162.38a16.81,16.81,0,0,1,1.86,1.81l-.23.22a16.48,16.48,0,0,0-1.83-1.85Z"/><path class="cls-1" d="M100.67,158.59a.09.09,0,0,1-.07.06,10,10,0,0,1-1.22,2.74,13.32,13.32,0,0,1,1.14.73l-.16.21a10.56,10.56,0,0,0-1.11-.73,7.76,7.76,0,0,1-3,2.63.71.71,0,0,0-.19-.19,7.74,7.74,0,0,0,3-2.57,14.2,14.2,0,0,0-2.05-.94l.13-.22a15.12,15.12,0,0,1,2.07.94,9.2,9.2,0,0,0,1.14-2.5H97.23a8.41,8.41,0,0,1-1.94,2.34,1.88,1.88,0,0,0-.19-.18,9.09,9.09,0,0,0,2.58-3.71l.39.11c0,.07-.1.09-.19.08-.13.3-.34.76-.51,1.09h3l.06,0Z"/><path class="cls-1" d="M103.37,160.46H110v.26h-6.4a.3.3,0,0,1-.23.14Z"/><path class="cls-1" d="M119.19,159.3v.26H117a.18.18,0,0,1-.14.09,5.62,5.62,0,0,1-2.74,4.57,1.72,1.72,0,0,0-.22-.18,5.26,5.26,0,0,0,2.71-4.48h-2.53a6.85,6.85,0,0,1-1.34,1.73.73.73,0,0,0-.22-.14,8.41,8.41,0,0,0,2.22-3.82l.45.12a.2.2,0,0,1-.21.1,12.76,12.76,0,0,1-.78,1.75Zm-1.76-1.9a5.81,5.81,0,0,1,1.08,1.21l-.19.14a5.53,5.53,0,0,0-1.06-1.19Zm1.06-.47a5.85,5.85,0,0,1,1.08,1.21l-.19.14a5.53,5.53,0,0,0-1.06-1.19Z"/><path class="cls-1" d="M122.45,159.44a9,9,0,0,1,.62,1.74l-.22.05a8.73,8.73,0,0,0-.62-1.71Zm4.85,0c0,.06-.07.06-.14.06a6.1,6.1,0,0,1-3.75,4.59l-.14-.19c2-.82,3.06-2.17,3.69-4.56Zm-2.89-.38a11,11,0,0,1,.36,1.85l-.22,0a9.9,9.9,0,0,0-.37-1.82Z"/><path class="cls-1" d="M134.85,161.37a31.39,31.39,0,0,0-3-1.37v4.18h-.26v-6.89l.46,0c0,.08-.07.12-.19.14v2.4l.06-.1a30.56,30.56,0,0,1,3.1,1.39Z"/><path class="cls-1" d="M139.59,160.36a2.3,2.3,0,0,1,1.42-.6c.6,0,.9.43,1,1.1.71-.33,1.62-.7,2.31-1l.17.34h0a.21.21,0,0,1-.12,0c-.62.22-1.56.59-2.28.93a6.07,6.07,0,0,1,0,.71c0,.3,0,.63,0,1h-.29c0-.31,0-.74,0-1.1a4.4,4.4,0,0,0,0-.48c-1.09.53-2,1.15-2,1.76s.63.82,1.88.82a17.84,17.84,0,0,0,2-.08V164c-.51,0-1.26.06-2,.06-1.54,0-2.15-.38-2.15-1.08s1-1.39,2.25-2c-.06-.69-.36-1-.74-1a2.91,2.91,0,0,0-2,1.21,12.43,12.43,0,0,1-.91.87l-.18-.19a5.82,5.82,0,0,0,2.12-3.2H138v-.26h2a11.71,11.71,0,0,0,.25-1.21l.47.08c0,.08-.07.13-.19.13a9.92,9.92,0,0,1-.23,1,11.61,11.61,0,0,0,3-.49l.06.26a11.94,11.94,0,0,1-3.1.48,6.34,6.34,0,0,1-.7,1.64Z"/><path class="cls-1" d="M147.2,159.63a12.63,12.63,0,0,1,2.22.7l-.1.25a13.17,13.17,0,0,0-2.21-.71Zm.66,4a8.57,8.57,0,0,0,5.51-4.81,1.71,1.71,0,0,0,.22.14,8.74,8.74,0,0,1-5.42,4.83.17.17,0,0,1-.07.18Zm.16-6a12.78,12.78,0,0,1,2.2.78l-.1.24a12.87,12.87,0,0,0-2.18-.78Z"/><path class="cls-1" d="M160.92,158a.1.1,0,0,1-.08.06,12.76,12.76,0,0,1-1.67,2.83,29.27,29.27,0,0,1,3.11,2.88l-.22.17a27.85,27.85,0,0,0-3.06-2.85,12.26,12.26,0,0,1-3.25,2.86,1.38,1.38,0,0,0-.18-.2,12.22,12.22,0,0,0,4.93-5.6h-4.15v-.26h4.27l.06,0Z"/><path class="cls-1" d="M171,160.21h-2.84l.12,0s-.06.08-.14.09a4.36,4.36,0,0,1-2.52,3.8,1.5,1.5,0,0,0-.18-.2,4.12,4.12,0,0,0,2.45-3.72h-3.29V160H171Zm-.78-2.27h-4.91v-.26h4.91Z"/><path class="cls-1" d="M179.41,163.94c-.11-.24-.26-.53-.45-.84-1.61.16-4.7.32-6,.39a.22.22,0,0,1-.14.15l-.13-.4.86,0c.55-1.58,1.38-4,1.86-5.69l.42.12c0,.07-.1.1-.21.1-.48,1.55-1.22,3.86-1.79,5.46,1.58-.07,3.73-.21,4.95-.33a16.43,16.43,0,0,0-1.66-2.21l.22-.14a15.67,15.67,0,0,1,2.29,3.33Z"/><path class="cls-1" d="M183.16,157.63c0,.09-.11.13-.28.11a19.87,19.87,0,0,0-.42,3.66,10.57,10.57,0,0,0,.14,1.9l.67-1.75.24.09c-.37,1-.58,1.45-.69,1.78a1.32,1.32,0,0,0-.06.37.7.7,0,0,0,0,.23l-.26.07a8.11,8.11,0,0,1-.34-2.68,21.52,21.52,0,0,1,.46-3.89Zm5.3,5.76-.85,0a10.62,10.62,0,0,1-1.58-.1c-.9-.14-1.36-.65-1.36-1.26a2.42,2.42,0,0,1,.79-1.5l.22.14a2.09,2.09,0,0,0-.74,1.35c0,.46.38.9,1.17,1a9.33,9.33,0,0,0,1.38.09c.31,0,.64,0,1,0Zm-3.73-4.69a24.67,24.67,0,0,0,3.55-.31l0,.26a28.79,28.79,0,0,1-3.57.31Z"/><path class="cls-1" d="M194.26,157.61h.23a7.21,7.21,0,0,0,3.57,6.6,1.16,1.16,0,0,0-.2.18,7.17,7.17,0,0,1-3.49-5.21c-.58,2.44-1.65,4.2-3.52,5.21l-.19-.18c1.86-1,2.93-2.73,3.49-5.21l.21.06a10.61,10.61,0,0,1-.1-1.21h-2.17v-.24h2.17Z"/><path class="cls-1" d="M206.9,158.93H207l.14,0V159c-.14,3.62-.26,4.8-.58,5.15-.18.2-.37.21-.7.21s-.72,0-1.14,0a.52.52,0,0,0-.08-.24c.6,0,1.15.06,1.34.06s.27,0,.36-.11c.27-.28.42-1.49.55-4.88h-3.28a6.28,6.28,0,0,1-3.09,5.27.68.68,0,0,0-.18-.17,6.06,6.06,0,0,0,3-5.1h-2.81v-.24h2.81c0-.24,0-.48,0-.7v-1.15l.36,0s0,.07-.12.08v1c0,.22,0,.46,0,.7Z"/><rect class="cls-2" x="0.5" y="0.5" width="221.38" height="137.09"/></g></g></svg>