<svg xmlns="http://www.w3.org/2000/svg" viewBox="0 0 507.51 165.79"><defs><style>.cls-1{fill:#fff;}.cls-2,.cls-3,.cls-5{fill:none;stroke-miterlimit:10;}.cls-2,.cls-3{stroke:#fff;}.cls-2{stroke-width:0.5px;}.cls-4{fill:#231f20;}.cls-5{stroke:#231f20;}</style></defs><title>Asset 4</title><g id="Layer_2" data-name="Layer 2"><g id="レイヤー_1" data-name="レイヤー 1"><path class="cls-1" d="M66.09,163v.24h-3.5v2.16c0,.21-.06.3-.25.34a6.66,6.66,0,0,1-1.22,0,1.17,1.17,0,0,0-.12-.22h.77c.54,0,.58,0,.58-.17v-2.17H58.81V163h3.53v-.82l.24,0A8,8,0,0,0,64.12,161H60.29v-.24h4.08l0,0,.21.15a.11.11,0,0,1-.08,0,8.79,8.79,0,0,1-2,1.45V163Zm-6.66-3.25v1.48h-.24v-1.72h3.13v-1.1l.36,0s0,.07-.12.08v1h3.19v1.72H65.5v-1.48Z"/><path class="cls-1" d="M74.13,159.76v5.32h-.26v-.46H68.57v-.26h5.31V160H68.66v-.26Z"/><path class="cls-1" d="M77.29,159.35a9.3,9.3,0,0,1,2.41,1.11l-.14.22a9.46,9.46,0,0,0-2.37-1.12Zm.14,5.64a8.81,8.81,0,0,0,5.83-4.75,1.17,1.17,0,0,0,.22.14,9.08,9.08,0,0,1-5.73,4.78.27.27,0,0,1-.1.17Z"/><path class="cls-1" d="M92.37,161.55H89.53l.12,0s-.06.08-.14.09a4.36,4.36,0,0,1-2.52,3.8,1.39,1.39,0,0,0-.18-.2,4.13,4.13,0,0,0,2.45-3.72H86v-.26h6.4Zm-.78-2.27H86.68V159h4.91Z"/><path class="cls-1" d="M96.22,161.69a2.3,2.3,0,0,1,1.42-.6c.6,0,.9.43,1,1.1.71-.33,1.62-.7,2.31-1l.17.34h0a.22.22,0,0,1-.12,0c-.62.22-1.56.59-2.28.93a6.07,6.07,0,0,1,0,.71c0,.3,0,.63,0,1h-.29c0-.31,0-.74,0-1.1a4.38,4.38,0,0,0,0-.48c-1.09.53-2,1.15-2,1.76s.63.82,1.88.82a17.84,17.84,0,0,0,2-.08v.27c-.51,0-1.26.06-2,.06-1.54,0-2.15-.38-2.15-1.08s1-1.39,2.25-2c-.06-.69-.36-1-.74-1a2.91,2.91,0,0,0-2,1.21,12.23,12.23,0,0,1-.91.87l-.18-.18a5.82,5.82,0,0,0,2.12-3.2H94.67v-.26h2a11.61,11.61,0,0,0,.25-1.21l.47.08c0,.08-.07.13-.19.14a9.9,9.9,0,0,1-.23,1,11.6,11.6,0,0,0,3-.49l.06.26a11.94,11.94,0,0,1-3.1.48,6.33,6.33,0,0,1-.7,1.64Z"/><path class="cls-1" d="M103.84,161a12.79,12.79,0,0,1,2.22.7l-.1.25a13.17,13.17,0,0,0-2.21-.7Zm.66,4A8.57,8.57,0,0,0,110,160.2a1.72,1.72,0,0,0,.22.14,8.74,8.74,0,0,1-5.42,4.83.17.17,0,0,1-.07.18Zm.16-6a12.78,12.78,0,0,1,2.2.78l-.1.24a12.78,12.78,0,0,0-2.18-.78Z"/><path class="cls-1" d="M117.56,159.38a.1.1,0,0,1-.08.06,12.74,12.74,0,0,1-1.67,2.83,29.48,29.48,0,0,1,3.11,2.88l-.22.17a27.84,27.84,0,0,0-3.06-2.85,12.26,12.26,0,0,1-3.25,2.85,1.38,1.38,0,0,0-.18-.2,12.23,12.23,0,0,0,4.93-5.6H113v-.26h4.27l.06,0Z"/><path class="cls-1" d="M127.6,161.55h-2.84l.12,0s-.06.08-.14.09a4.36,4.36,0,0,1-2.52,3.8,1.39,1.39,0,0,0-.18-.2,4.13,4.13,0,0,0,2.45-3.72H121.2v-.26h6.4Zm-.78-2.27h-4.91V159h4.91Z"/><path class="cls-1" d="M136,165.27c-.11-.24-.26-.53-.45-.84-1.61.16-4.7.32-6,.39a.22.22,0,0,1-.14.15l-.13-.4.86,0c.55-1.58,1.38-4,1.86-5.69l.42.12c0,.07-.1.1-.21.1-.48,1.55-1.22,3.86-1.79,5.46,1.58-.07,3.73-.22,4.95-.33A16.43,16.43,0,0,0,133.8,162l.22-.14a15.65,15.65,0,0,1,2.29,3.33Z"/><path class="cls-1" d="M139.8,159c0,.09-.11.13-.28.11a19.85,19.85,0,0,0-.42,3.66,10.56,10.56,0,0,0,.14,1.9l.67-1.75.24.09c-.37,1-.58,1.45-.69,1.78a1.31,1.31,0,0,0-.06.37.7.7,0,0,0,0,.23l-.26.07a8.08,8.08,0,0,1-.34-2.68,21.52,21.52,0,0,1,.46-3.89Zm5.3,5.76-.85,0a10.62,10.62,0,0,1-1.58-.1c-.9-.14-1.36-.65-1.36-1.26a2.42,2.42,0,0,1,.79-1.5l.22.14a2.09,2.09,0,0,0-.74,1.35c0,.46.38.9,1.17,1a9.33,9.33,0,0,0,1.38.09c.31,0,.64,0,1,0ZM141.37,160a24.53,24.53,0,0,0,3.55-.31l0,.26a28.78,28.78,0,0,1-3.57.31Z"/><path class="cls-1" d="M150.9,158.94h.23a7.22,7.22,0,0,0,3.57,6.6,1.09,1.09,0,0,0-.2.18,7.18,7.18,0,0,1-3.49-5.21c-.58,2.44-1.65,4.2-3.52,5.21a2.13,2.13,0,0,0-.19-.18c1.86-1,2.93-2.73,3.49-5.21l.21.06a10.64,10.64,0,0,1-.1-1.22h-2.17v-.24h2.17Z"/><path class="cls-1" d="M163.53,160.27h.11l.14,0v.08c-.14,3.62-.26,4.8-.58,5.15-.18.2-.37.22-.7.22s-.72,0-1.14,0a.51.51,0,0,0-.08-.24c.6,0,1.15.06,1.34.06a.42.42,0,0,0,.36-.11c.27-.28.42-1.49.55-4.88h-3.28a6.28,6.28,0,0,1-3.09,5.27.68.68,0,0,0-.18-.17,6.07,6.07,0,0,0,3-5.1H157.2v-.24H160c0-.24,0-.48,0-.7v-1.15l.36,0s0,.07-.12.08v1c0,.22,0,.46,0,.7Z"/><path class="cls-1" d="M336.11,161a12.79,12.79,0,0,1,2.22.7l-.1.25a13.08,13.08,0,0,0-2.21-.7Zm.66,4a8.57,8.57,0,0,0,5.51-4.81,1.72,1.72,0,0,0,.22.14,8.74,8.74,0,0,1-5.42,4.83.17.17,0,0,1-.07.18Zm.16-6a12.78,12.78,0,0,1,2.2.78l-.1.24a12.78,12.78,0,0,0-2.18-.78Z"/><path class="cls-1" d="M349.83,159.38a.1.1,0,0,1-.08.06,12.74,12.74,0,0,1-1.67,2.83,29.68,29.68,0,0,1,3.11,2.88l-.22.17a27.84,27.84,0,0,0-3.06-2.85,12.26,12.26,0,0,1-3.25,2.85,1.38,1.38,0,0,0-.18-.2,12.23,12.23,0,0,0,4.93-5.6h-4.15v-.26h4.27l.06,0Z"/><path class="cls-1" d="M359.87,161.55H357l.12,0s-.06.08-.14.09a4.36,4.36,0,0,1-2.52,3.8,1.39,1.39,0,0,0-.18-.2,4.13,4.13,0,0,0,2.45-3.72h-3.29v-.26h6.4Zm-.78-2.27h-4.91V159h4.91Z"/><path class="cls-1" d="M368.32,165.27c-.11-.24-.26-.53-.45-.84-1.61.16-4.7.32-6,.39a.22.22,0,0,1-.14.15l-.13-.4.86,0c.55-1.58,1.38-4,1.86-5.69l.42.12c0,.07-.1.1-.21.1-.48,1.55-1.22,3.86-1.79,5.46,1.58-.07,3.73-.22,4.95-.33a16.43,16.43,0,0,0-1.66-2.21l.22-.14a15.62,15.62,0,0,1,2.29,3.33Z"/><path class="cls-1" d="M373.72,158.77c0,.1-.1.14-.26.14-.1.49-.26,1.32-.36,1.81a10.83,10.83,0,0,1,1.11-.09c1.1,0,1.5.72,1.5,1.86a6.12,6.12,0,0,1-.32,1.94,1.36,1.36,0,0,1-1.33,1,2.32,2.32,0,0,1-1.46-.73.93.93,0,0,0,.13-.22c.71.57,1.06.69,1.34.69a1.09,1.09,0,0,0,1.07-.85,6.44,6.44,0,0,0,.31-1.87c0-1-.34-1.62-1.27-1.62A11.4,11.4,0,0,0,373,161a13.82,13.82,0,0,1-1.76,4.42l-.24-.11a13,13,0,0,0,1.73-4.28c-.5.06-1.09.12-1.57.19l0-.26,1.66-.19c.13-.58.27-1.34.38-2.07Zm2.05-.23a6.24,6.24,0,0,1,1.16,1.13l-.18.15a6.07,6.07,0,0,0-1.14-1.12Zm2,4.66a5.13,5.13,0,0,0-1.84-2.79l.19-.16A5.23,5.23,0,0,1,378,163.1Zm-.81-5a6.19,6.19,0,0,1,1.16,1.13l-.18.15a6.1,6.1,0,0,0-1.14-1.12Z"/><path class="cls-1" d="M382,162v-1.58a4.91,4.91,0,0,1-1.52,1.52,1.23,1.23,0,0,0-.17-.18,4.33,4.33,0,0,0,1.55-1.52h-1.45V160H382v-1.6l.36,0s0,.07-.12.08V160h1.56v.24h-1.56v.2c.33.21,1.34.9,1.57,1.08l-.16.21a16.14,16.14,0,0,0-1.41-1V162Zm.23,1.29a2.6,2.6,0,0,1-.06.5c.52.38,1.15.89,1.5,1.19l-.19.17a17,17,0,0,0-1.37-1.13,2.74,2.74,0,0,1-1.62,1.54,1.14,1.14,0,0,0-.14-.2c1.35-.62,1.62-1.37,1.66-2.07h-1.58v-.24H382v-.83l.36,0s0,.07-.12.08v.72h1.6v.24Zm-1.37-4.61a3.38,3.38,0,0,1,.54.94l-.22.11a3.8,3.8,0,0,0-.53-1Zm2,1a7.25,7.25,0,0,0,.55-1l.33.15a.14.14,0,0,1-.14.06,8.94,8.94,0,0,1-.54.9Zm2.44,5a.21.21,0,0,1-.15.06,5,5,0,0,1-1.63,1,1.07,1.07,0,0,0-.18-.19,4.58,4.58,0,0,0,1.65-1Zm-1.11-4.6h1.15c.09-.3.19-.7.26-1h-1.72v-.24h3.85v.24h-1.88c-.06.28-.17.69-.26,1h1.85v4.18h-3.25Zm3,1.3v-1.06h-2.77v1.06Zm0,1.31v-1.07h-2.77v1.07Zm0,1.33V163h-2.77V164Zm-.76.56a8.71,8.71,0,0,1,1.44,1l-.21.15a8.51,8.51,0,0,0-1.43-1Z"/><path class="cls-1" d="M390.93,160.78a10.8,10.8,0,0,1-1.1,1.66l-.16-.18a11.49,11.49,0,0,0,2-3.78l.34.1s-.07.07-.15.07a13.75,13.75,0,0,1-.7,1.67l.12,0s0,.06-.12.07v5.34h-.24Zm1.88,3.18,2-.73,0,.21c-1,.4-2.11.81-2.81,1.06a.12.12,0,0,1-.07.11l-.18-.31.76-.26-.06-5.2.36,0s0,.07-.12.08Zm4.12-5.19s0,.08-.14.08a11.13,11.13,0,0,1-1,4.7c.58.67,1.24,1.53,1.58,2l-.18.18c-.33-.5-1-1.33-1.51-2a4.82,4.82,0,0,1-3,2,1.16,1.16,0,0,0-.15-.2c3.13-.91,3.74-2.85,3.94-6.87Zm-3,.71a8.93,8.93,0,0,1,1.27,1.93l-.21.14a9.37,9.37,0,0,0-1.26-2Z"/><path class="cls-1" d="M400.8,158.72c0,.09-.09.14-.25.16-.06.84-.14,3.13-.14,4.32s.64,2,1.76,2a4,4,0,0,0,3.09-1.66.81.81,0,0,0,.2.18,4.27,4.27,0,0,1-3.29,1.74c-1.24,0-2-.75-2-2.22,0-1,.08-3.55.14-4.55Z"/><path class="cls-1" d="M410.13,158.6c0,.08-.14.14-.24.14-.06.39-.14.82-.22,1.4a9.47,9.47,0,0,0,2.52-.48l.09.25a10.41,10.41,0,0,1-2.65.5,19.1,19.1,0,0,1-1.52,5.12l-.25-.1a18.22,18.22,0,0,0,1.5-5h-1.58v-.26h1.62c.09-.54.18-1.12.24-1.62Zm4.27,6.81-.68,0a7.33,7.33,0,0,1-2-.21,1,1,0,0,1-.76-1,1.87,1.87,0,0,1,.49-1.15l.21.14a1.71,1.71,0,0,0-.45,1c0,.72.66,1,2.37,1,.27,0,.56,0,.86,0Zm-.25-3.89a8.61,8.61,0,0,0-2.85.4l-.08-.23a9.33,9.33,0,0,1,2.94-.42Z"/><path class="cls-1" d="M421.16,164.89a3.86,3.86,0,0,1-1.65.31,2.75,2.75,0,0,1-2.81-3.08,2.92,2.92,0,0,1,3-3.14,3,3,0,0,1,1.38.26l-.11.23a2.72,2.72,0,0,0-1.25-.27,2.65,2.65,0,0,0-2.76,2.94,2.55,2.55,0,0,0,2.65,2.82,3.15,3.15,0,0,0,1.39-.3Z"/><path class="cls-1" d="M429.23,165.11H429l-.18-2.94c-.07-1.06-.14-2.1-.14-2.7h0c-.22.63-.46,1.3-.83,2.23l-1.35,3.43h-.18L425,161.79c-.37-1-.62-1.67-.81-2.32h0c0,.7-.06,1.75-.14,2.79l-.2,2.85h-.29l.44-6h.3l1.41,3.7c.29.78.5,1.36.69,1.92h0c.16-.54.38-1.06.7-1.89l1.46-3.73h.32Z"/><path class="cls-1" d="M433.46,161.69a2.3,2.3,0,0,1,1.42-.6c.6,0,.9.43,1,1.1.71-.33,1.62-.7,2.31-1l.17.34h0a.22.22,0,0,1-.12,0c-.62.22-1.56.59-2.28.93a6.07,6.07,0,0,1,0,.71c0,.3,0,.63,0,1h-.29c0-.31,0-.74,0-1.1a4.38,4.38,0,0,0,0-.48c-1.09.53-2,1.15-2,1.76s.63.82,1.88.82a17.83,17.83,0,0,0,2-.08v.27c-.51,0-1.25.06-2,.06-1.54,0-2.15-.38-2.15-1.08s1-1.39,2.25-2c-.06-.69-.36-1-.74-1a2.91,2.91,0,0,0-2,1.21,12.6,12.6,0,0,1-.91.87l-.18-.18a5.82,5.82,0,0,0,2.12-3.2h-1.94v-.26h2a11.61,11.61,0,0,0,.25-1.21l.47.08c0,.08-.07.13-.19.14a9.9,9.9,0,0,1-.23,1,11.55,11.55,0,0,0,3-.49l.06.26a11.94,11.94,0,0,1-3.1.48,6.33,6.33,0,0,1-.7,1.64Z"/><path class="cls-1" d="M443,162l0,.22-1,.4v2.73c0,.22-.07.3-.22.35a4.26,4.26,0,0,1-.94,0,1.34,1.34,0,0,0-.1-.23h.56c.44,0,.46,0,.46-.16v-2.65l-1.18.44a.12.12,0,0,1-.07.12l-.17-.31,1.42-.5v-2.12h-1.34v-.24h1.34v-1.7l.36,0s0,.07-.12.08v1.59h1v.24h-1v2Zm2.55-1.65h1.91v5.33h-.24v-.5h-3.47v.56h-.24v-5.39h1.8v-2l.36,0s0,.07-.12.08Zm-.24.24h-1.56v2h1.56Zm-1.56,2.25V165h1.56v-2.09Zm3.47-2.25h-1.67v2h1.67ZM445.51,165h1.67v-2.09h-1.67Z"/><path class="cls-1" d="M456.25,162.45l.36,0s0,.07-.12.08v3.17h-.24v-.53h-5.69v.56h-.24v-3.31l.36,0s0,.07-.12.08V165h2.67v-3.12h-2.61v-2.65l.36,0s0,.07-.12.08v2.3h2.37v-3.2l.36,0s0,.07-.12.08v3.09h2.45v-2.42l.36,0s0,.07-.12.08v2.54h-2.69V165h2.78Z"/><line class="cls-2" x1="239.35" y1="61.04" x2="257.53" y2="61.04"/><polyline class="cls-2" points="246.67 38.44 268.4 61.05 246.67 83.65"/><path class="cls-3" d="M500,.5H292.63a7,7,0,0,0-7,7V130.59a7,7,0,0,0,7,7h81.32l-2,5.69h48.75l-2-5.69H500a7,7,0,0,0,7-7V7.5A7,7,0,0,0,500,.5Z"/><rect class="cls-1" x="298.14" y="13.51" width="196.37" height="111.08"/><path class="cls-4" d="M380.88,77.48a16,16,0,0,1-3.29,4.77,14.47,14.47,0,0,1-4.77,3.11,16.36,16.36,0,0,1-6.22,1.12,15.67,15.67,0,0,1-6.66-1.4,15.43,15.43,0,0,1-5.2-3.88,18,18,0,0,1-3.39-5.92,22.29,22.29,0,0,1-1.22-7.52,25.47,25.47,0,0,1,.94-6.76,19.11,19.11,0,0,1,3-6.25,15.85,15.85,0,0,1,5.3-4.59,16.27,16.27,0,0,1,7.91-1.79,15.51,15.51,0,0,1,6.32,1.2,14.79,14.79,0,0,1,4.51,3,13,13,0,0,1,2.73,3.85,9.92,9.92,0,0,1,1,3.72h-1a9.83,9.83,0,0,0-1.17-3.9,12.12,12.12,0,0,0-2.78-3.44,14.11,14.11,0,0,0-4.18-2.47,16.34,16.34,0,0,0-13,.87,15.43,15.43,0,0,0-5,4.54A18.67,18.67,0,0,0,352,61.7a24,24,0,0,0-.84,6.07,21.92,21.92,0,0,0,1,6.68,17,17,0,0,0,3,5.66A15,15,0,0,0,360,84a14.14,14.14,0,0,0,6.55,1.48,15.27,15.27,0,0,0,5.87-1.07,13.57,13.57,0,0,0,4.49-3A15,15,0,0,0,380,77a20.2,20.2,0,0,0,1.58-5.61h1A21.65,21.65,0,0,1,380.88,77.48Z"/><path class="cls-4" d="M435.1,49.25V85.67h-1V50.53H434L418.52,85.67H417.4L401.95,50.53h-.1V85.67h-1V49.25h1.68l15.4,35.09h.1l15.4-35.09Z"/><rect class="cls-3" x="0.5" y="0.5" width="221.38" height="137.09"/><rect class="cls-1" x="9.5" y="9.5" width="203.38" height="119.09" rx="8.5" ry="8.5"/><path class="cls-4" d="M51.69,38.29v1.25H46.18v2.4c0,1.29-.62,1.47-3.24,1.47a5,5,0,0,0-.55-1.25l1.45,0c.91,0,1,0,1-.28V39.54H39.33V38.29H44.8V37.12l.44,0A12.4,12.4,0,0,0,47,35.86h-5v-1.2h6.37l.22-.07,1,.62a.43.43,0,0,1-.26.17,15.56,15.56,0,0,1-3.11,2.36v.55ZM41,33.4v2.18H39.73V32.16h5V30.49l1.72.11c0,.13-.11.19-.33.22v1.34h5.15v3.42H50V33.4Z"/><path class="cls-4" d="M67.16,32.82v9.47H65.74v-.73H57.39V40.24h8.35V34.13H57.53V32.82Z"/><path class="cls-4" d="M74.35,32a16.94,16.94,0,0,1,4.06,1.83L77.7,35a18.82,18.82,0,0,0-4-1.9Zm-.26,9.42c4.75-1.46,8-4.19,9.6-8a9.25,9.25,0,0,0,1.27.8,15.87,15.87,0,0,1-9.66,8.29.45.45,0,0,1-.22.33Z"/><path class="cls-4" d="M101.66,36.62H97.17l.26.07a.29.29,0,0,1-.3.18A7.36,7.36,0,0,1,92.94,43a9.83,9.83,0,0,0-1-.94,6.16,6.16,0,0,0,3.79-5.43H90.55V35.34h11.11Zm-1.38-3.86H91.81V31.48h8.47Z"/><path class="cls-4" d="M118.43,36.77h-.08a.45.45,0,0,1-.23-.07c-1,.32-2.47.81-3.56,1.25,0,.3,0,.65,0,1s0,.79,0,1.24l-1.39.1a14.13,14.13,0,0,0,.06-1.83c-1.3.65-2.32,1.45-2.32,2.12s.85,1,2.58,1a30.36,30.36,0,0,0,3.44-.17v1.28c-.77.08-2,.11-3.47.11-2.65,0-3.9-.61-3.9-2.18,0-1.16,1.52-2.37,3.51-3.39-.07-.62-.34-1-.83-1-1,0-2,.52-3.14,1.85-.36.4-.88.94-1.49,1.5l-1-.94a16,16,0,0,0,1.82-1.79,9.48,9.48,0,0,0,1.52-3h-2.85V32.69c.81,0,1.79,0,2.37,0h.84c.12-.59.23-1.17.33-1.9l1.74.19c0,.14-.15.22-.33.25-.1.5-.21,1-.33,1.4a16.93,16.93,0,0,0,4.45-.79l.23,1.31a21,21,0,0,1-5,.7,7.88,7.88,0,0,1-.83,2h0a3.43,3.43,0,0,1,2.05-.77c.85,0,1.5.61,1.7,1.7,1.12-.5,2.48-1,3.54-1.42Z"/><path class="cls-4" d="M40.32,67.82a20.49,20.49,0,0,1,3.62,1.25l-.59,1.2A22.45,22.45,0,0,0,39.74,69Zm.61,6.59c4.34-1.42,7.43-3.72,9.27-7.83a11.93,11.93,0,0,0,1.2.88,15.26,15.26,0,0,1-9.25,8,.33.33,0,0,1-.18.36Zm1-10a23.74,23.74,0,0,1,3.61,1.35l-.65,1.17a19.62,19.62,0,0,0-3.57-1.42Z"/><path class="cls-4" d="M65.81,65.43a.4.4,0,0,1-.23.19,21.4,21.4,0,0,1-2.66,4.64,52.4,52.4,0,0,1,4.82,4.45l-1.21,1A42.48,42.48,0,0,0,62,71.34a21.82,21.82,0,0,1-5.08,4.42,8.08,8.08,0,0,0-1-1.06,18.85,18.85,0,0,0,7.76-8.49H57.22V64.91h7.23l.25-.08Z"/><path class="cls-4" d="M84,69.62H79.48l.26.07a.29.29,0,0,1-.3.18A7.36,7.36,0,0,1,75.25,76a9.83,9.83,0,0,0-1-.94A6.16,6.16,0,0,0,78,69.62H72.87V68.34H84ZM82.6,65.76H74.13V64.48H82.6Z"/><path class="cls-4" d="M99.16,75.71q-.31-.74-.7-1.49c-2.94.33-7.18.62-9.26.73a.37.37,0,0,1-.28.29l-.48-1.67,1.43,0c.88-2.62,2.11-6.63,2.81-9.33l1.79.47c0,.15-.19.22-.41.23-.7,2.41-1.82,5.91-2.74,8.57,1.93-.08,4.86-.29,6.5-.45a24,24,0,0,0-2.16-3l1.16-.63a27.63,27.63,0,0,1,3.71,5.71Z"/><path class="cls-4" d="M108.67,64.59c0,.15-.17.23-.44.25a33.43,33.43,0,0,0-.72,6.12,15.53,15.53,0,0,0,.12,2.33c.22-.54.79-1.83,1-2.3l.7,1c-.51,1.17-1,1.94-1.16,2.58a2.3,2.3,0,0,0-.11.65,1.77,1.77,0,0,0,.07.47l-1.36.22a15.32,15.32,0,0,1-.62-4.84,43.22,43.22,0,0,1,.68-6.7Zm8.52,10.18c-.48,0-1,0-1.5,0a18.52,18.52,0,0,1-2.49-.14c-1.8-.25-2.59-1.23-2.59-2.37a4.33,4.33,0,0,1,1.24-2.7l1.29.47a3,3,0,0,0-1.1,2.05c0,1.28,1.72,1.36,3.31,1.36a17.1,17.1,0,0,0,1.89-.1Zm-6.34-8.67a46.37,46.37,0,0,0,5.91-.52l.14,1.35a47.57,47.57,0,0,1-6,.5Z"/><path class="cls-4" d="M45,97.34h1.34c0,2.55.33,7.76,5.68,10.93a6.26,6.26,0,0,0-1,1.12A12,12,0,0,1,45.6,102c-1,3.35-2.74,5.91-5.44,7.44a7.64,7.64,0,0,0-1.07-1c2.91-1.49,4.63-4.37,5.46-8.2l.72.17c-.1-.61-.15-1.17-.19-1.7H41.73V97.36H45Z"/><path class="cls-4" d="M67.82,99.51h.63l.76.07c0,.11,0,.3,0,.44-.19,5.91-.39,8-.94,8.65s-.92.7-2.16.7l-1.32,0A3.05,3.05,0,0,0,64.3,108c.92.07,1.76.07,2.12.07a.73.73,0,0,0,.61-.21c.41-.43.61-2.33.77-7H63.37a10.16,10.16,0,0,1-5.15,8.67,5.68,5.68,0,0,0-1-1A9.07,9.07,0,0,0,62,100.83H57.63V99.51H62V96.56l1.71.1c0,.11-.1.21-.33.23v2.62Z"/><path class="cls-4" d="M83,96.48h1.2v15.64H83Z"/><line class="cls-5" x1="24.48" y1="52.5" x2="200.26" y2="52.5"/><line class="cls-5" x1="24.48" y1="87.59" x2="200.26" y2="87.59"/></g></g></svg>