<svg xmlns="http://www.w3.org/2000/svg" viewBox="0 0 508.57 518.09"><defs><style>.cls-1{fill:#fff;}.cls-2,.cls-3,.cls-5{fill:none;stroke-miterlimit:10;}.cls-2,.cls-3{stroke:#fff;}.cls-2{stroke-width:0.5px;}.cls-4{fill:#231f20;}.cls-5{stroke:#231f20;}</style></defs><title>Asset 2</title><g id="Layer_2" data-name="Layer 2"><g id="レイヤー_1" data-name="レイヤー 1"><path class="cls-1" d="M160.28,129.81v-6.32a19.61,19.61,0,0,1-6.06,6.06,4.86,4.86,0,0,0-.67-.73,17.26,17.26,0,0,0,6.19-6.06H154v-1h6.32v-6.38l1.44.13c0,.16-.16.29-.48.32v5.93h6.22v1h-6.22v.8c1.31.83,5.33,3.57,6.25,4.31l-.64.83a64.45,64.45,0,0,0-5.62-4.18v5.3Zm.93,5.14a10.56,10.56,0,0,1-.26,2c2.07,1.5,4.59,3.54,6,4.75l-.77.67a68.84,68.84,0,0,0-5.46-4.5c-.77,2.2-2.52,4.34-6.48,6.16a4.58,4.58,0,0,0-.57-.8c5.39-2.46,6.45-5.46,6.61-8.26H154v-1h6.32v-3.32l1.44.13c0,.16-.16.29-.48.32V134h6.38v1Zm-5.46-18.38a13.51,13.51,0,0,1,2.14,3.76l-.86.45a15,15,0,0,0-2.11-3.86Zm7.79,3.89a28.52,28.52,0,0,0,2.2-4l1.31.61a.59.59,0,0,1-.54.22,35.71,35.71,0,0,1-2.17,3.57Zm9.73,20a.83.83,0,0,1-.61.25,19.87,19.87,0,0,1-6.51,4,4.26,4.26,0,0,0-.73-.77A18.22,18.22,0,0,0,172,140Zm-4.44-18.35h4.59c.35-1.18.77-2.78,1.05-4h-6.86v-1H183v1h-7.5c-.26,1.12-.67,2.74-1.05,4h7.37v16.69h-13Zm12,5.2v-4.24H169.79v4.24Zm0,5.23v-4.28H169.79v4.28Zm0,5.3v-4.34H169.79v4.34Zm-3,2.23a34.6,34.6,0,0,1,5.74,4.05c-.26.19-.54.38-.83.61a33.87,33.87,0,0,0-5.71-4.12Z"/><path class="cls-1" d="M196.51,124.86a43.29,43.29,0,0,1-4.4,6.6,7.17,7.17,0,0,0-.64-.73c3.09-3.54,6.13-9.28,8-15.09l1.37.41c-.06.19-.29.29-.61.29a55.41,55.41,0,0,1-2.78,6.67l.48.13c0,.16-.16.25-.48.29v21.31h-1Zm7.5,12.7,8-2.9.16.83c-4.12,1.59-8.42,3.22-11.2,4.21a.47.47,0,0,1-.29.45l-.7-1.25c.89-.29,1.91-.64,3-1l-.22-20.74,1.44.13c0,.16-.16.29-.48.32Zm16.43-20.71c0,.19-.19.32-.54.32-.45,8.2-1.34,14.26-3.83,18.76,2.3,2.68,4.95,6.09,6.29,8.07l-.73.7c-1.31-2-3.83-5.33-6-8-2.36,3.83-6,6.41-11.81,8.14a4.39,4.39,0,0,0-.61-.8c12.51-3.64,14.93-11.36,15.73-27.41Zm-12,2.84a35.61,35.61,0,0,1,5.07,7.69l-.83.54a37.58,37.58,0,0,0-5-7.79Z"/><path class="cls-1" d="M247.68,141.26a15.43,15.43,0,0,1-6.57,1.24c-5.52,0-11.2-3.48-11.2-12.28,0-7,4.31-12.54,12.09-12.54a12.12,12.12,0,0,1,5.52,1.05l-.45.92a10.86,10.86,0,0,0-5-1.08c-6.83,0-11,4.56-11,11.74,0,6.8,3.92,11.26,10.59,11.26a12.54,12.54,0,0,0,5.55-1.18Z"/><path class="cls-1" d="M280.36,142.16h-1.12l-.73-11.74c-.29-4.21-.57-8.39-.54-10.78h-.1c-.89,2.52-1.85,5.2-3.32,8.9l-5.39,13.69h-.73l-5.07-13.34c-1.47-3.92-2.49-6.67-3.22-9.25H260c-.06,2.78-.26,7-.57,11.13l-.8,11.39h-1.15l1.76-24.09h1.18l5.62,14.77c1.15,3.13,2,5.42,2.74,7.66h.06c.64-2.14,1.5-4.21,2.78-7.53l5.81-14.9h1.28Z"/><path class="cls-1" d="M296.78,127c1,1.15,3.64,4.85,4.24,5.78l-.7.83c-.57-1-2.39-3.76-3.54-5.36v16.43h-1V126.36c-1.24,4.47-3.22,9.19-5.1,11.81a4.24,4.24,0,0,0-.73-.77c2.14-2.94,4.53-8.77,5.62-13.82h-4.95v-1h5.17v-7.27l1.44.13c0,.16-.16.29-.48.32v6.83h4.08v.92a23.73,23.73,0,0,0,8.71-8.17l1.63.1c0,.16-.19.26-.38.32a27.79,27.79,0,0,0,9.45,7.82,4.4,4.4,0,0,0-.61.8,30.71,30.71,0,0,1-9.57-8,27.74,27.74,0,0,1-9.22,8.2,4.45,4.45,0,0,0-.61-.73l.54-.29h-4Zm21.38,9h-7.08c1.76,4.47,4.56,6.45,9,8a2.66,2.66,0,0,0-.64.93c-4.66-1.82-7.56-4.12-9.32-9-.77,3.41-3.19,6.64-9.86,8.9a2.9,2.9,0,0,0-.64-.77c6.38-2.11,8.74-5,9.51-8.14h-7.18v-7.79h7.53v-3.92h-5.84v-1h13v1h-6.16v3.92h7.72Zm-15.25-1h6.41a14.37,14.37,0,0,0,.16-2.33v-3.54H302.9Zm14.29-5.87h-6.77v3.57a14,14,0,0,1-.16,2.3h6.92Z"/><path class="cls-1" d="M339.16,138.49c-.1.16-.29.22-.61.19a35.46,35.46,0,0,1-8.33,5.55,8.62,8.62,0,0,0-.8-.64,31,31,0,0,0,8.46-5.68Zm9.57-7.31a52.3,52.3,0,0,1,8.84,6.06l-.7.73a29.56,29.56,0,0,0-2.36-2l-10.12.29v8.55h-1v-8.55c-4.91.13-9.44.22-12.63.29a.44.44,0,0,1-.41.38l-.45-1.4c1.95,0,4.44,0,7.21-.06,1-.58,1.95-1.21,3-1.92a40.24,40.24,0,0,0-6.7-4.18l.7-.61q1,.48,2,1.05a46.69,46.69,0,0,0,5.58-4.85H331.32v4.82h-1V124h13.08v-4.5H330.26v-1h13.18v-3.29l1.44.13c0,.16-.16.29-.48.32v2.84h13.18v1H344.4V124H357.7v5.78h-1V125H342.29l.93.48a.69.69,0,0,1-.57.19,53.32,53.32,0,0,1-5.58,4.66,37,37,0,0,1,4,2.65,75.18,75.18,0,0,0,7.88-6.06l1.28.7a.67.67,0,0,1-.61.16A102.23,102.23,0,0,1,339,135.46c4.44-.06,9.48-.16,14.39-.29a52.85,52.85,0,0,0-5.3-3.38Zm8.42,13a36.15,36.15,0,0,0-8.36-5.49l.77-.61a36.2,36.2,0,0,1,8.42,5.39Z"/><path class="cls-1" d="M3.78,222c.58.45,2.32,1.94,2.73,2.31l-.32.4a31.51,31.51,0,0,0-2.41-2.23v4.63H3.33V222a13.28,13.28,0,0,1-3,3.74,1.81,1.81,0,0,0-.33-.35,11.37,11.37,0,0,0,3.13-4H.25V221H3.33v-1.94H.06v-.45H7.29v.45H3.78V221h3.3v.45H3.78ZM7,215.16v.45H.36v-.45h3v-1.79l.67.06c0,.08-.08.13-.22.15v1.57Zm-5.16.66a9.18,9.18,0,0,1,.75,2.54l-.43.12a9.83,9.83,0,0,0-.72-2.57ZM6,216c0,.08-.12.12-.25.12a20.7,20.7,0,0,1-.92,2.37l-.37-.17a18.13,18.13,0,0,0,.93-2.58Zm7.88,2.6v.45h-2v8.08h-.45v-8.08h-3v1c0,2.27-.29,5-2.5,7.09a1.2,1.2,0,0,0-.33-.34C7.74,224.91,8,222.29,8,220.09v-5.26l.54.21a23.16,23.16,0,0,0,4.61-1.6l.54.39a.18.18,0,0,1-.14,0h-.1a30.17,30.17,0,0,1-5,1.62v3.17Z"/><path class="cls-1" d="M24.69,213.74c0,.15-.25.27-.45.27-.1.73-.25,1.54-.42,2.62a17.82,17.82,0,0,0,4.72-.9l.17.46a19.48,19.48,0,0,1-5,.93,35.77,35.77,0,0,1-2.85,9.6l-.46-.19a34.15,34.15,0,0,0,2.8-9.39h-3v-.5c.24,0,.56,0,.9,0s1.72,0,2.14,0c.17-1,.33-2.1.45-3Zm8,12.78-1.28,0a13.81,13.81,0,0,1-3.82-.39,1.94,1.94,0,0,1-1.42-1.91,3.51,3.51,0,0,1,.91-2.16l.39.25a3.2,3.2,0,0,0-.84,1.91c0,1.35,1.23,1.82,4.44,1.82.51,0,1,0,1.61-.06Zm-.46-7.3a16.21,16.21,0,0,0-5.36.75l-.15-.43a17.54,17.54,0,0,1,5.52-.79Z"/><path class="cls-1" d="M41.75,214.43c-.06.17-.21.24-.53.21a37.25,37.25,0,0,0-.78,6.87,19.78,19.78,0,0,0,.25,3.55c.36-.94,1-2.71,1.26-3.28l.45.17c-.69,1.83-1.09,2.71-1.29,3.34A2.46,2.46,0,0,0,41,226a1.33,1.33,0,0,0,.07.44l-.48.13a15.2,15.2,0,0,1-.64-5,40.23,40.23,0,0,1,.85-7.3Zm9.94,10.8c-.53,0-1.07,0-1.59,0a20.05,20.05,0,0,1-3-.18c-1.68-.25-2.55-1.21-2.55-2.37a4.54,4.54,0,0,1,1.49-2.82l.4.27a3.93,3.93,0,0,0-1.39,2.54c0,.87.72,1.7,2.19,1.92a17.58,17.58,0,0,0,2.59.17c.58,0,1.2,0,1.8-.06Zm-7-8.79a45.74,45.74,0,0,0,6.66-.58l.06.5a54.1,54.1,0,0,1-6.71.58Z"/><path class="cls-1" d="M58.33,219.9a19.83,19.83,0,0,0,6.57-6.6l.81.06c0,.11-.13.13-.25.17a22.76,22.76,0,0,0,6.67,6.19,1.84,1.84,0,0,0-.3.38,23.25,23.25,0,0,1-6.69-6.25,21.26,21.26,0,0,1-6.52,6.39Zm7.18,1.77v4.58h6.24v.45h-13v-.45h2.22v-6l.67.06c0,.08-.08.13-.23.15v5.82h3.67v-8.91l.68.06c0,.08-.08.13-.23.15v3.67h4.75v.45Z"/><path class="cls-1" d="M78.64,214.46h13.3v.45H85.46v2.19H89v6.78H81.52V217.1H85v-2.19H78.64Zm12.45,11.24V217l.68.06c0,.08-.08.13-.23.15v9.93h-.45v-1H79.57v1h-.45V217l.67.06c0,.08-.08.13-.23.15v8.52ZM82,217.54v2.7h3v-2.7Zm0,3.15v2.73h3V220.7Zm6.55-.45v-2.7H85.46v2.7Zm0,3.18V220.7H85.46v2.73Z"/><path class="cls-1" d="M101.55,214c0,.17-.17.27-.46.3-.12,1.58-.27,5.87-.27,8.1,0,2.46,1.2,3.66,3.3,3.66a7.43,7.43,0,0,0,5.79-3.12,1.53,1.53,0,0,0,.38.33,8,8,0,0,1-6.18,3.27c-2.32,0-3.78-1.41-3.78-4.17,0-1.8.15-6.66.27-8.53Z"/><path class="cls-1" d="M121.37,213.74c0,.15-.25.27-.45.27-.1.73-.25,1.54-.42,2.62a17.82,17.82,0,0,0,4.72-.9l.17.46a19.48,19.48,0,0,1-5,.93,35.77,35.77,0,0,1-2.85,9.6l-.46-.19a34.15,34.15,0,0,0,2.8-9.39h-3v-.5c.24,0,.56,0,.9,0s1.72,0,2.14,0c.17-1,.33-2.1.45-3Zm8,12.78-1.28,0a13.81,13.81,0,0,1-3.82-.39,1.94,1.94,0,0,1-1.42-1.91,3.51,3.51,0,0,1,.92-2.16l.39.25a3.2,3.2,0,0,0-.84,1.91c0,1.35,1.23,1.82,4.44,1.82.51,0,1,0,1.61-.06Zm-.46-7.3a16.21,16.21,0,0,0-5.36.75l-.15-.43a17.54,17.54,0,0,1,5.52-.79Z"/><path class="cls-1" d="M142.25,215.1h-3.78V226h-.53V215.1h-3.79v-.46h8.1Z"/><path class="cls-1" d="M156.64,214.64,152.39,226h-.48l-3.78-11.32h.58l2.1,6.28c.57,1.7,1,3.09,1.37,4.33h0c.34-1.26.87-2.71,1.48-4.33l2.36-6.28Z"/><path class="cls-1" d="M170.45,225.54a7.26,7.26,0,0,1-3.09.58c-2.6,0-5.27-1.63-5.27-5.77,0-3.29,2-5.9,5.69-5.9a5.7,5.7,0,0,1,2.59.5l-.21.44a5.09,5.09,0,0,0-2.34-.51c-3.21,0-5.17,2.15-5.17,5.52,0,3.19,1.84,5.29,5,5.29a5.9,5.9,0,0,0,2.61-.56Z"/><path class="cls-1" d="M188,226h-.52l-.35-5.52c-.13-2-.27-3.95-.25-5.07h0c-.42,1.19-.87,2.45-1.56,4.19L182.75,226h-.34L180,219.72c-.69-1.84-1.17-3.13-1.52-4.35h0c0,1.31-.12,3.29-.27,5.24l-.37,5.35h-.54l.83-11.32h.55l2.64,6.94c.54,1.47.95,2.55,1.29,3.6h0c.3-1,.71-2,1.3-3.54l2.73-7h.6Z"/><path class="cls-1" d="M202,215.54a.31.31,0,0,1-.33.23c-.48,4.35-2.08,9.18-4.5,9.18-1,0-2.11-1.2-2.11-3.42a6.52,6.52,0,0,1,6.66-6.6c4.39,0,6,2.92,6,5.61,0,3.6-2.22,5.25-5.75,6,0-.09-.19-.33-.25-.45,3.48-.66,5.52-2.36,5.52-5.52,0-2.5-1.51-5.17-5.55-5.17h-.24Zm-.78-.13a6.09,6.09,0,0,0-5.71,6.12c0,1.84.9,2.92,1.67,2.92C199.27,224.45,200.8,219.93,201.26,215.4Z"/><path class="cls-1" d="M228.39,221.91v.45h-6.57v4c0,.39-.12.55-.46.64a12.5,12.5,0,0,1-2.29.09,2.39,2.39,0,0,0-.23-.42l1.44,0c1,0,1.09,0,1.09-.32v-4.06h-6.63v-.45h6.63v-1.53l.45,0a15,15,0,0,0,2.88-2.14h-7.18v-.45h7.65l.09,0,.39.29a.21.21,0,0,1-.15.08,16.58,16.58,0,0,1-3.67,2.71v1Zm-12.49-6.09v2.78h-.45v-3.23h5.87V213.3l.67.06c0,.08-.08.13-.23.15v1.86h6v3.23h-.45v-2.78Z"/><path class="cls-1" d="M245.83,215.93v10h-.48V225h-10v-.48h10v-8.16h-9.78v-.48Z"/><path class="cls-1" d="M254.06,215.15a17.42,17.42,0,0,1,4.51,2.08l-.27.41a17.82,17.82,0,0,0-4.46-2.1Zm.25,10.57c5.49-1.72,9.09-4.74,10.93-8.91a2.15,2.15,0,0,0,.42.25c-1.87,4.13-5.59,7.32-10.75,9a.51.51,0,0,1-.18.31Z"/><path class="cls-1" d="M284.69,219.27h-5.32l.22.06c0,.09-.12.15-.27.17-.39,3-1.46,5.56-4.72,7.13a2.55,2.55,0,0,0-.35-.37c3.23-1.5,4.2-3.86,4.59-7h-6.16v-.48h12ZM283.24,215H274v-.48h9.21Z"/><path class="cls-1" d="M296.88,214.07c0,.18-.2.25-.5.25-.18.92-.48,2.47-.67,3.39a20.59,20.59,0,0,1,2.08-.17c2.07,0,2.82,1.35,2.82,3.5a11.44,11.44,0,0,1-.6,3.64,2.56,2.56,0,0,1-2.49,2c-.63,0-1.39-.24-2.74-1.37a1.82,1.82,0,0,0,.24-.4c1.33,1.06,2,1.29,2.52,1.29a2,2,0,0,0,2-1.59,12.1,12.1,0,0,0,.58-3.51c0-1.83-.63-3-2.38-3a21.62,21.62,0,0,0-2.16.17,25.94,25.94,0,0,1-3.3,8.29l-.45-.21a24.32,24.32,0,0,0,3.25-8c-.93.11-2,.23-2.94.36l-.06-.48c.79-.1,2-.24,3.12-.36.24-1.09.51-2.52.71-3.88Zm7.75,7.09a9.15,9.15,0,0,0-3.66-5.25l.34-.34a9.53,9.53,0,0,1,3.78,5.4Z"/><path class="cls-1" d="M314.28,216.45a.47.47,0,0,1-.41.27,23.45,23.45,0,0,1-.6,4.93h0a10.68,10.68,0,0,1,6-2.05c2.33,0,3.64,1.11,3.64,3.06,0,2.79-2.43,3.9-8.08,4.14a4.31,4.31,0,0,0-.15-.46c5.37-.25,7.74-1.18,7.74-3.63,0-1.68-1.17-2.62-3.18-2.62-3.1,0-5.94,2-6.17,2.49l-.51-.3c.29-.33.79-2.85.83-5.92Zm.64-2.75a24.42,24.42,0,0,1,5.83,1.43l-.2.46a24.19,24.19,0,0,0-5.79-1.42Z"/><path class="cls-1" d="M331.5,223.34a31.42,31.42,0,0,1,3.5,3.41l-.43.42a31.12,31.12,0,0,0-3.44-3.46Z"/><path class="cls-1" d="M346.68,214.53c1.2,0,5.88-.18,7.06-.66l.31.42a3.61,3.61,0,0,0-.79.65,53.18,53.18,0,0,1-6,4.63,57,57,0,0,1,10-1.14V219c-.32,0-.63,0-1,0a8.58,8.58,0,0,0-1.91.18c-1.33.34-5,2.38-5,4.79a1.75,1.75,0,0,0,.83,1.56,10.4,10.4,0,0,0,4,.92l-.15.5c-3.69-.37-5.15-1.12-5.15-2.94,0-2.62,3.44-4.44,4.17-4.78a55.76,55.76,0,0,0-8.41,1.53l-.13-.48a6.62,6.62,0,0,0,1.93-.66,57.64,57.64,0,0,0,6.49-5c-1.06.18-3.36.35-4.26.39L347,215a.32.32,0,0,1-.27.15Z"/><path class="cls-1" d="M371.16,215.54a.31.31,0,0,1-.33.23c-.48,4.35-2.08,9.18-4.5,9.18-1,0-2.11-1.2-2.11-3.42a6.52,6.52,0,0,1,6.66-6.6c4.39,0,6,2.92,6,5.61,0,3.6-2.22,5.25-5.75,6,0-.09-.19-.33-.25-.45,3.48-.66,5.52-2.36,5.52-5.52,0-2.5-1.51-5.17-5.55-5.17h-.24Zm-.78-.13a6.09,6.09,0,0,0-5.71,6.12c0,1.84.9,2.92,1.67,2.92C368.39,224.45,369.92,219.93,370.38,215.4Z"/><path class="cls-1" d="M392.24,225.54a7.26,7.26,0,0,1-3.09.58c-2.6,0-5.27-1.63-5.27-5.77,0-3.29,2-5.9,5.69-5.9a5.7,5.7,0,0,1,2.59.5l-.21.44a5.09,5.09,0,0,0-2.34-.51c-3.21,0-5.17,2.15-5.17,5.52,0,3.19,1.84,5.29,5,5.29a5.9,5.9,0,0,0,2.61-.56Z"/><path class="cls-1" d="M409.8,226h-.52l-.35-5.52c-.13-2-.27-3.95-.25-5.07h0c-.42,1.19-.87,2.45-1.56,4.19L404.53,226h-.34l-2.38-6.27c-.69-1.84-1.17-3.13-1.52-4.35h0c0,1.31-.12,3.29-.27,5.24L399.6,226h-.54l.83-11.32h.55l2.64,6.94c.54,1.47.95,2.55,1.29,3.6h0c.3-1,.71-2,1.3-3.54l2.73-7h.6Z"/><path class="cls-1" d="M419.22,214.43c-.06.17-.21.24-.53.21a37.25,37.25,0,0,0-.78,6.87,19.68,19.68,0,0,0,.26,3.55c.36-.94,1-2.71,1.26-3.28l.45.17c-.69,1.83-1.09,2.71-1.29,3.34a2.46,2.46,0,0,0-.12.69,1.33,1.33,0,0,0,.07.44l-.48.13a15.2,15.2,0,0,1-.64-5,40.23,40.23,0,0,1,.85-7.3Zm9.94,10.8c-.53,0-1.07,0-1.59,0a20.05,20.05,0,0,1-3-.18c-1.68-.25-2.55-1.21-2.55-2.37a4.54,4.54,0,0,1,1.49-2.82l.4.27a3.93,3.93,0,0,0-1.39,2.54c0,.87.72,1.7,2.19,1.92a17.58,17.58,0,0,0,2.59.17c.58,0,1.2,0,1.8-.06Zm-7-8.79a45.74,45.74,0,0,0,6.66-.58l.06.5a54.1,54.1,0,0,1-6.71.58Z"/><path class="cls-1" d="M439.22,220.16v-3a9.21,9.21,0,0,1-2.85,2.85,2.31,2.31,0,0,0-.31-.34,8.12,8.12,0,0,0,2.91-2.85h-2.71v-.45h3v-3l.68.06c0,.08-.08.14-.23.15v2.79h2.92v.45h-2.92v.37c.62.39,2.5,1.68,2.94,2l-.3.39a30.58,30.58,0,0,0-2.64-2v2.49Zm.44,2.42a4.89,4.89,0,0,1-.12.93c1,.71,2.16,1.67,2.8,2.24L442,226a32.52,32.52,0,0,0-2.57-2.12,5.14,5.14,0,0,1-3,2.9,2.12,2.12,0,0,0-.27-.37c2.53-1.16,3-2.57,3.1-3.88h-3v-.45h3v-1.56l.68.06c0,.08-.08.13-.23.15v1.35h3v.45Zm-2.57-8.64a6.34,6.34,0,0,1,1,1.77l-.41.21a7.06,7.06,0,0,0-1-1.81Zm3.66,1.83a13.53,13.53,0,0,0,1-1.87l.62.29a.28.28,0,0,1-.25.1,16.85,16.85,0,0,1-1,1.68Zm4.58,9.42a.39.39,0,0,1-.29.12,9.35,9.35,0,0,1-3.06,1.88,2,2,0,0,0-.35-.36,8.56,8.56,0,0,0,3.09-1.84Zm-2.08-8.62h2.16c.17-.56.36-1.31.49-1.89h-3.22v-.45h7.23v.45h-3.52c-.12.53-.32,1.29-.5,1.89h3.46v7.84h-6.1ZM448.9,219v-2h-5.2v2Zm0,2.46v-2h-5.2v2Zm0,2.49v-2h-5.2v2Zm-1.42,1a16.27,16.27,0,0,1,2.7,1.91l-.39.28a15.94,15.94,0,0,0-2.68-1.93Z"/><path class="cls-1" d="M458.45,217.83a20.29,20.29,0,0,1-2.07,3.11,3.27,3.27,0,0,0-.3-.35,21.56,21.56,0,0,0,3.77-7.09l.64.2c0,.09-.13.13-.29.13a25.89,25.89,0,0,1-1.3,3.13l.22.06c0,.08-.07.12-.22.13v10h-.45Zm3.53,6,3.78-1.36.08.39c-1.93.75-4,1.51-5.26,2a.22.22,0,0,1-.13.21l-.33-.58,1.42-.48-.11-9.75.68.06c0,.07-.08.13-.23.15Zm7.72-9.73c0,.09-.09.15-.25.15-.21,3.85-.63,6.7-1.8,8.82,1.08,1.26,2.33,2.87,3,3.79l-.34.33c-.62-.95-1.8-2.5-2.83-3.75a9,9,0,0,1-5.55,3.83,2,2,0,0,0-.29-.37c5.88-1.71,7-5.34,7.39-12.88ZM464,215.4a16.74,16.74,0,0,1,2.38,3.62l-.39.25a17.6,17.6,0,0,0-2.37-3.66Z"/><path class="cls-1" d="M479.26,214c0,.17-.17.27-.46.3-.12,1.58-.27,5.87-.27,8.1,0,2.46,1.2,3.66,3.3,3.66a7.43,7.43,0,0,0,5.79-3.12,1.53,1.53,0,0,0,.38.33,8,8,0,0,1-6.18,3.27c-2.32,0-3.78-1.41-3.78-4.17,0-1.8.15-6.66.27-8.53Z"/><path class="cls-1" d="M499.08,213.74c0,.15-.25.27-.45.27-.1.73-.25,1.54-.42,2.62a17.82,17.82,0,0,0,4.72-.9l.17.46a19.48,19.48,0,0,1-5,.93,35.77,35.77,0,0,1-2.85,9.6l-.46-.19a34.15,34.15,0,0,0,2.8-9.39h-3v-.5c.24,0,.56,0,.9,0s1.72,0,2.14,0c.17-1,.33-2.1.45-3Zm8,12.78-1.28,0a13.81,13.81,0,0,1-3.82-.39,1.94,1.94,0,0,1-1.42-1.91,3.51,3.51,0,0,1,.91-2.16l.39.25a3.2,3.2,0,0,0-.84,1.91c0,1.35,1.23,1.82,4.44,1.82.51,0,1,0,1.61-.06Zm-.46-7.3a16.21,16.21,0,0,0-5.36.75l-.15-.43a17.54,17.54,0,0,1,5.52-.79Z"/><path class="cls-1" d="M2.76,247.48v5c1.35,2,3.93,2,6.5,2,1.62,0,3.54,0,4.6-.09a1.14,1.14,0,0,0-.17.46c-1,0-2.75,0-4.26,0-3,0-5.29,0-6.87-2-.73.72-1.5,1.46-2.11,2a.18.18,0,0,1-.09.2l-.36-.5c.69-.55,1.56-1.35,2.31-2.1v-4.59H.12v-.45Zm-2-5.73a10.34,10.34,0,0,1,2.55,2.58l-.36.29A10.36,10.36,0,0,0,.38,242Zm4.37,5.45v6.18H4.63v-6.63H5.88V242h6v4.77h1.24v5.89c0,.35-.07.51-.37.58a8.36,8.36,0,0,1-1.84.09,2.06,2.06,0,0,0-.18-.44l1.23,0c.65,0,.72,0,.72-.25V247.2Zm1.25-4.77v4.32H8.4V244h3v-1.57Zm4.48,6.12v3.11H7.33v.75H6.88v-3.86Zm-.45,2.66V249h-3v2.21Zm-1.51-4.46h2.58v-2.29H8.85Z"/><path class="cls-1" d="M33.32,248v.45H25.58l.24.08a.29.29,0,0,1-.29.14,54.16,54.16,0,0,1-2.64,5.14c2.5,0,5.64-.13,8.67-.24a32.35,32.35,0,0,0-2.62-3.2l.38-.21A26.31,26.31,0,0,1,33,255l-.41.27a15.14,15.14,0,0,0-.82-1.3c-4,.18-8.46.33-11.1.39,0,.12-.09.17-.2.2l-.21-.66,2,0a42,42,0,0,0,2.73-5.37H19.8V248h6.48v-3.6H21V244h5.28v-2.61l.67.06c0,.07-.08.13-.22.15V244h5.41v.45H26.73V248Z"/><path class="cls-1" d="M46.69,243.54a.31.31,0,0,1-.33.23c-.48,4.35-2.08,9.18-4.5,9.18-1,0-2.11-1.2-2.11-3.42a6.52,6.52,0,0,1,6.66-6.6c4.39,0,6,2.92,6,5.61,0,3.6-2.22,5.25-5.75,6,0-.09-.19-.33-.25-.45,3.48-.66,5.52-2.36,5.52-5.52,0-2.5-1.51-5.17-5.55-5.17h-.24Zm-.78-.13a6.09,6.09,0,0,0-5.71,6.12c0,1.84.9,2.92,1.67,2.92C43.92,252.45,45.45,247.93,45.91,243.4Z"/><path class="cls-1" d="M67.27,253.54a7.26,7.26,0,0,1-3.09.58c-2.6,0-5.27-1.63-5.27-5.77,0-3.29,2-5.9,5.69-5.9a5.7,5.7,0,0,1,2.59.5l-.21.44a5.09,5.09,0,0,0-2.34-.51c-3.21,0-5.17,2.15-5.17,5.52,0,3.19,1.84,5.29,5,5.29a5.9,5.9,0,0,0,2.61-.56Z"/><path class="cls-1" d="M84.32,254h-.52l-.35-5.52c-.13-2-.27-3.95-.25-5.07h0c-.42,1.19-.87,2.45-1.56,4.19L79.05,254h-.34l-2.38-6.27c-.69-1.84-1.17-3.13-1.52-4.35h0c0,1.31-.12,3.29-.27,5.24L74.12,254h-.54l.83-11.32H75l2.64,6.94c.54,1.47.95,2.55,1.29,3.6h0c.3-1,.71-2,1.3-3.54l2.73-7h.6Z"/><path class="cls-1" d="M94.13,247.54a4.32,4.32,0,0,1,2.66-1.12c1.13,0,1.69.81,1.86,2.07,1.33-.62,3-1.3,4.33-1.8l.32.63h-.09a.43.43,0,0,1-.23-.09c-1.16.41-2.92,1.11-4.27,1.74a11.63,11.63,0,0,1,.06,1.33c0,.55,0,1.18-.06,1.84h-.54c0-.58.08-1.38.08-2.07a7.93,7.93,0,0,0,0-.9c-2,1-3.79,2.16-3.79,3.3S95.6,254,97.94,254a33.64,33.64,0,0,0,3.79-.15v.51c-1,.09-2.35.12-3.79.12-2.88,0-4-.72-4-2s1.88-2.61,4.21-3.78c-.12-1.29-.67-1.8-1.38-1.8-1.17,0-2.37.69-3.81,2.26a22.87,22.87,0,0,1-1.71,1.64l-.33-.35a10.92,10.92,0,0,0,4-6H91.22V244H95a21.64,21.64,0,0,0,.46-2.26l.88.15c0,.15-.13.24-.36.25a18.88,18.88,0,0,1-.44,1.86,21.7,21.7,0,0,0,5.58-.92l.1.5a22.37,22.37,0,0,1-5.82.9,11.87,11.87,0,0,1-1.3,3.07Z"/><path class="cls-1" d="M112,246.82c.46.54,1.71,2.28,2,2.71l-.33.39c-.27-.48-1.12-1.77-1.67-2.52v7.72h-.45v-8.59a19.62,19.62,0,0,1-2.4,5.55,2,2,0,0,0-.35-.36,19.74,19.74,0,0,0,2.64-6.49h-2.33v-.45h2.43v-3.42l.67.06c0,.07-.07.13-.22.15v3.21H114v.43a11.14,11.14,0,0,0,4.09-3.84l.76,0c0,.07-.09.12-.18.15a13.07,13.07,0,0,0,4.44,3.67,2.1,2.1,0,0,0-.28.38,14.45,14.45,0,0,1-4.5-3.76,13,13,0,0,1-4.33,3.85,2,2,0,0,0-.29-.34l.25-.13H112Zm10,4.21h-3.33a6.15,6.15,0,0,0,4.23,3.78,1.26,1.26,0,0,0-.3.44,6.61,6.61,0,0,1-4.38-4.21c-.36,1.6-1.5,3.12-4.63,4.18a1.36,1.36,0,0,0-.3-.36c3-1,4.11-2.36,4.47-3.83h-3.37v-3.66H118v-1.84h-2.75v-.45h6.09v.45h-2.89v1.84h3.63Zm-7.17-.45h3a6.65,6.65,0,0,0,.08-1.09v-1.67h-3.09Zm6.72-2.76h-3.18v1.68a6.58,6.58,0,0,1-.08,1.08h3.25Z"/><path class="cls-1" d="M133.66,252.24c0,.07-.13.1-.29.09a16.66,16.66,0,0,1-3.92,2.61,4.23,4.23,0,0,0-.37-.3,14.56,14.56,0,0,0,4-2.67Zm4.5-3.44a24.61,24.61,0,0,1,4.15,2.85L142,252a13.8,13.8,0,0,0-1.11-.93l-4.75.13v4h-.45v-4l-5.94.13a.21.21,0,0,1-.2.18l-.21-.66,3.39,0c.45-.27.92-.57,1.41-.9a18.91,18.91,0,0,0-3.15-2l.33-.29.95.5a21.9,21.9,0,0,0,2.63-2.28H130v2.26h-.45v-2.71h6.15v-2.12h-6.19v-.45h6.19v-1.54l.67.06c0,.08-.08.13-.22.15v1.33h6.19v.45h-6.19v2.12h6.25v2.71h-.45v-2.26h-6.79l.43.22a.32.32,0,0,1-.27.09,25,25,0,0,1-2.62,2.19,17.52,17.52,0,0,1,1.86,1.24,35.22,35.22,0,0,0,3.7-2.85l.6.33a.31.31,0,0,1-.29.08,48.19,48.19,0,0,1-5,3.62c2.08,0,4.45-.08,6.76-.14a25.06,25.06,0,0,0-2.49-1.59Zm4,6.11a16.94,16.94,0,0,0-3.93-2.58l.36-.29a17,17,0,0,1,4,2.54Z"/><path class="cls-1" d="M148.76,244.24c1.23,0,5.5-.17,7.35-.24,0-.25-.09-2.47-.09-2.5l.9,0c0,.13-.1.25-.39.3,0,.48,0,1.37.06,2.16,1.76-.06,3.66-.11,5-.12v.51c-1.41,0-3.25,0-5,.09,0,1.27,0,2,.12,3.36a5.22,5.22,0,0,1,.17,1.56c0,1.43-.12,3.95-4.42,5.71l-.32-.4c2.76-1,4-2.58,4.26-4.35h0a2.34,2.34,0,0,1-2.05,1.14,2.46,2.46,0,0,1-2.42-2.55,2.7,2.7,0,0,1,2.58-2.73,2.36,2.36,0,0,1,1.69.63c0-.09,0-.17,0-.22,0-.33,0-1.21-.06-2.13-2.07.06-5.77.18-7.35.25Zm7.59,4.77c0-1-.2-2.31-1.8-2.31a2.13,2.13,0,0,0-2.13,2.25,2,2,0,1,0,3.93.06Z"/><path class="cls-1" d="M170.76,248.17a10,10,0,0,1,4.32-1.08c2.46,0,3.9,1.38,3.9,3.5,0,2.73-2.41,4.2-5.23,4.2-2,0-3.29-.71-3.29-1.91A2.11,2.11,0,0,1,172.8,251a3.28,3.28,0,0,1,3.06,3,3.53,3.53,0,0,0,2.64-3.37c0-1.86-1.29-3-3.43-3a9.3,9.3,0,0,0-5.78,2.05c-.5.48-1.06,1.13-1.48,1.62l-.36-.36c1.53-1.67,6.18-6.12,8.23-8.05-1,.13-4.24.24-6.31.3a.42.42,0,0,1-.27.23l-.11-.71c2.12,0,5.75-.15,6.9-.32l.21-.1.53.57a.76.76,0,0,1-.32.14c-1.26,1.06-4.42,4.11-5.55,5.23Zm3,6.15a6.77,6.77,0,0,0,1.67-.21,2.85,2.85,0,0,0-2.62-2.64c-1,0-1.85.53-1.85,1.4C170.92,254,172.47,254.32,173.73,254.32Z"/><path class="cls-1" d="M196.61,253.51a26.65,26.65,0,0,1-4.67.39,15,15,0,0,1-2.76-.2,2.72,2.72,0,0,1-2.47-2.71,4.94,4.94,0,0,1,1.59-3.24l.38.27a4.65,4.65,0,0,0-1.49,3c0,1,.67,1.84,2.13,2.19a12.84,12.84,0,0,0,2.58.2,24.55,24.55,0,0,0,4.67-.42Zm-3.17-9.45c-1.39.15-4.35.21-6.28.21v-.5c.52,0,6.36.06,8.44-.51l.12.51a5,5,0,0,0-1.67.5,20.18,20.18,0,0,0-3.48,2.19l-.31-.34a21.29,21.29,0,0,1,3.18-2Z"/><path class="cls-1" d="M214.32,246.24h-.12a.57.57,0,0,1-.29-.08c-4.41,1.37-8.91,3.57-8.91,5.87,0,1.67,1.9,2.19,4.6,2.19a42.35,42.35,0,0,0,5.25-.3l0,.51a45.61,45.61,0,0,1-5.28.25c-3,0-5.1-.66-5.1-2.64,0-1.62,1.74-3.07,4.17-4.3-.47-.78-.68-2.58-.68-6.07l.95.09c0,.17-.17.3-.45.33,0,3,.12,4.69.62,5.44a39.57,39.57,0,0,1,5-1.92Z"/><path class="cls-1" d="M227.12,242.07c0,.18-.2.25-.5.25-.18.92-.48,2.47-.67,3.39a20.59,20.59,0,0,1,2.08-.17c2.07,0,2.82,1.35,2.82,3.5a11.44,11.44,0,0,1-.6,3.64,2.56,2.56,0,0,1-2.49,2c-.63,0-1.39-.24-2.74-1.37a1.82,1.82,0,0,0,.24-.4c1.33,1.06,2,1.29,2.52,1.29a2,2,0,0,0,2-1.59,12.1,12.1,0,0,0,.58-3.51c0-1.83-.63-3-2.38-3a21.62,21.62,0,0,0-2.16.17,25.94,25.94,0,0,1-3.3,8.29l-.45-.21a24.32,24.32,0,0,0,3.25-8c-.93.11-2,.23-2.94.36l-.06-.48c.79-.1,2-.24,3.12-.36.24-1.09.51-2.52.71-3.88Zm3.85-.43a11.65,11.65,0,0,1,2.17,2.11l-.34.29a11.37,11.37,0,0,0-2.14-2.1Zm3.74,8.74a9.62,9.62,0,0,0-3.45-5.23l.36-.3a9.81,9.81,0,0,1,3.55,5.34ZM233.19,241a11.62,11.62,0,0,1,2.17,2.11l-.34.29a11.37,11.37,0,0,0-2.14-2.1Z"/><path class="cls-1" d="M241.85,243.52c1.19,0,10.47-.79,12.3-.74v.51l-.63,0a4.49,4.49,0,0,0-2.38.66c-2.66,1.53-4.94,4.18-4.94,6.27,0,2.37,1.44,3.79,5.46,4.38l-.19.46c-4.26-.67-5.78-2.13-5.78-4.84,0-2.31,2.36-5,5.45-6.84-1.5.09-6.58.45-8.92.66a.45.45,0,0,1-.3.22Zm9.51,2.54a11.68,11.68,0,0,1,2.17,2.11l-.34.29a10.46,10.46,0,0,0-2.13-2.1Zm1.5-1.31a10.85,10.85,0,0,1,2.17,2.12l-.34.29a10.9,10.9,0,0,0-2.13-2.1Z"/><path class="cls-1" d="M273.41,246.34a25.2,25.2,0,0,1-4.78,1,5.67,5.67,0,0,0,2.64,2.7l-.27.42a5.46,5.46,0,0,1-.86-.42,7,7,0,0,0-2-.27h-.47l0-.43a11.1,11.1,0,0,1,1.92.09,7.84,7.84,0,0,1-1.44-2,38.06,38.06,0,0,1-4.08.17c-.81,0-1.71,0-2.39,0v-.48c.57,0,1.31,0,2,0a42.23,42.23,0,0,0,4.27-.15c-.2-.54-.48-1.54-.69-2.35a29.56,29.56,0,0,1-3.13.12c-.55,0-1.14,0-1.54,0v-.48c.62,0,1.29,0,1.86,0a24,24,0,0,0,2.73-.1c-.17-.74-.33-1.58-.46-2.52h.95c0,.17-.12.25-.39.3.11.76.24,1.5.39,2.16a15.5,15.5,0,0,0,4.18-1l.2.45a17,17,0,0,1-4.28,1,17.08,17.08,0,0,0,.71,2.34,23,23,0,0,0,4.83-1Zm-2.64,8.16c-.87,0-1.79.09-3.13.09-2.29,0-4.23-.69-4.23-2.31a3.18,3.18,0,0,1,1.88-2.42l.27.36c-1,.57-1.67,1.32-1.67,2,0,1.28,1.56,1.86,3.75,1.86,1.17,0,2.07-.06,3.12-.11Z"/><path class="cls-1" d="M280.22,243.87c.94.06,2.05.06,3,.06.81,0,1.75,0,2.52,0,0-.76,0-1.68,0-2.25l.93.06c0,.18-.13.25-.42.3,0,.51,0,1.26,0,1.86a27.58,27.58,0,0,0,5.28-.65l.1.48a28.05,28.05,0,0,1-5.4.64l.09,3.23a23.2,23.2,0,0,0,4.53-.63l.11.5a28.46,28.46,0,0,1-4.62.58l.12,2.9a17.73,17.73,0,0,1,4.67,2.5l-.32.42a16.15,16.15,0,0,0-4.32-2.42c0,.31,0,.66,0,.9a2.1,2.1,0,0,1-2.37,2.39c-1.86,0-3.27-.66-3.27-2.06s1.65-2.1,3.22-2.1a7.22,7.22,0,0,1,1.89.22c0-.76-.06-1.72-.09-2.73l-1.64,0c-2.14,0-3.28-.13-3.28-1.14,0-.52.4-.93,1.27-1.53l.34.34c-1,.57-1.12.92-1.12,1.21,0,.51,1,.65,2.79.65l1.61,0-.09-3.21c-1.1,0-2.08,0-3.5,0-.71,0-1.47,0-2.05,0Zm5.82,7.39a6.93,6.93,0,0,0-1.92-.25c-1.27,0-2.75.53-2.75,1.63s1.26,1.61,2.79,1.61,1.89-.63,1.89-1.92Z"/><path class="cls-1" d="M298.51,244.24c1.23,0,5.5-.17,7.35-.24,0-.25-.09-2.47-.09-2.5l.9,0c0,.13-.1.25-.39.3,0,.48,0,1.37.06,2.16,1.76-.06,3.66-.11,5-.12v.51c-1.41,0-3.25,0-5,.09,0,1.27,0,2,.12,3.36a5.22,5.22,0,0,1,.17,1.56c0,1.43-.12,3.95-4.42,5.71l-.32-.4c2.76-1,4-2.58,4.26-4.35h0a2.34,2.34,0,0,1-2.05,1.14,2.46,2.46,0,0,1-2.42-2.55,2.7,2.7,0,0,1,2.58-2.73,2.36,2.36,0,0,1,1.69.63c0-.09,0-.17,0-.22,0-.33,0-1.21-.06-2.13-2.07.06-5.77.18-7.35.25ZM306.1,249c0-1-.2-2.31-1.8-2.31a2.13,2.13,0,0,0-2.13,2.25,2,2,0,1,0,3.93.06Z"/><path class="cls-1" d="M322.14,253.06A2.1,2.1,0,1,1,320,251,2.11,2.11,0,0,1,322.14,253.06Zm-.45,0a1.65,1.65,0,1,0-1.65,1.65A1.64,1.64,0,0,0,321.69,253.06Z"/><path class="cls-1" d="M344.07,244.09H332.21v3.84c0,2.17-.2,5.19-1.61,7.3a1.39,1.39,0,0,0-.37-.26c1.38-2.08,1.53-4.93,1.53-7v-4.28h5.66v-2.27l.67.06c0,.08-.08.13-.23.15v2.05h6.21Zm-3.54,5.41a27.17,27.17,0,0,1,3.66,5.49l-.39.24c-.2-.44-.46-.95-.78-1.5-3.64.19-7.59.39-10,.49a.21.21,0,0,1-.18.18l-.25-.65,1.88-.07a64.4,64.4,0,0,0,2.87-8.36l.67.23a.33.33,0,0,1-.29.15,79.76,79.76,0,0,1-2.8,8c2.25-.09,5.08-.21,7.83-.34a32.67,32.67,0,0,0-2.61-3.63Z"/><path class="cls-1" d="M356.14,247.3h6.55v.45H349.26v-.45h6.44v-3H351.9a13.18,13.18,0,0,1-1.41,2.45,2.36,2.36,0,0,0-.37-.26,15.24,15.24,0,0,0,2.31-4.9l.66.2c0,.09-.12.13-.29.13a18.47,18.47,0,0,1-.71,1.93h3.6v-2.5l.67.06c0,.07-.08.13-.23.15v2.29h5.43v.45h-5.43Zm-4.54,7.86v-5.64h8.76v5.64h-.45v-.69H352v.69Zm8.31-5.19H352v4h7.86Z"/><path class="cls-1" d="M374.82,254.16h6.58v.45H367.89v-.45h6.48v-4.41h-5.08v-.45h5.08v-4.11h-5.68v-.45h12v.45h-5.82v4.11h5.26v.45h-5.26Zm-2.58-12.85a23.5,23.5,0,0,1,4.58,2.4l-.3.38a23,23,0,0,0-4.58-2.46Z"/><path class="cls-1" d="M392.29,241.78c0,.12-.2.21-.46.23-.12.75-.25,1.54-.42,2.23a23.29,23.29,0,0,0,4.92-.76l.1.5a31.26,31.26,0,0,1-5.13.76,20.84,20.84,0,0,1-3.36,7.53l-.42-.22a20.43,20.43,0,0,0,3.25-7.29c-.48,0-1,0-1.41,0h-1.86v-.48h1.88l1.5,0c.2-.82.34-1.71.48-2.67Zm4.09,6.3c0,1.42.13,2.22.22,3.38a15.6,15.6,0,0,1,3.41,1.89l-.3.42a15.37,15.37,0,0,0-3.09-1.78v.64c0,1.42-1,2.31-2.61,2.31s-2.91-.71-2.91-2c0-1.47,1.59-2.06,2.91-2.06a6.83,6.83,0,0,1,2.07.38c-.08-1.14-.2-2.26-.2-3.12Zm-.27,3.71a6,6,0,0,0-2.12-.42c-1,0-2.4.38-2.4,1.56s1,1.52,2.42,1.52,2.12-.6,2.12-1.82C396.13,252.31,396.13,252,396.12,251.79Zm3.84-5.58a19.14,19.14,0,0,0-5.36.81l-.12-.47a20.25,20.25,0,0,1,5.46-.84Z"/><path class="cls-1" d="M408.78,244.45a.47.47,0,0,1-.41.27,23.45,23.45,0,0,1-.6,4.93h0a10.68,10.68,0,0,1,6-2.05c2.33,0,3.64,1.11,3.64,3.06,0,2.79-2.43,3.9-8.08,4.14a4.32,4.32,0,0,0-.15-.46c5.37-.25,7.74-1.18,7.74-3.63,0-1.68-1.17-2.62-3.18-2.62-3.1,0-5.94,2-6.17,2.49l-.51-.3c.29-.33.79-2.85.83-5.92Zm.64-2.75a24.42,24.42,0,0,1,5.83,1.43l-.2.46a24.19,24.19,0,0,0-5.79-1.42Z"/><path class="cls-1" d="M424,243.54a21.44,21.44,0,0,0,4.23-.64,4.18,4.18,0,0,0,1.27-.58l.33.34c-1.08.62-4.38,4-4.38,7.67,0,3,2.18,3.76,4.2,3.76,4.16,0,4.16-3.24,4.16-4.5a15.59,15.59,0,0,0-1.14-6.18l.48-.2a7.84,7.84,0,0,0,4.29,4.59l-.23.46a7.16,7.16,0,0,1-3.36-2.83h0a20.56,20.56,0,0,1,.46,4.3c0,.25,0,.5,0,.71-.12,2.53-1.77,4.12-4.62,4.12-2.29,0-4.69-.94-4.69-4.15a10.62,10.62,0,0,1,3.29-7.06,19.92,19.92,0,0,1-3.93.64.3.3,0,0,1-.24.24Zm11.58.74a8.84,8.84,0,0,0-2.1-2.16l.3-.3a9.24,9.24,0,0,1,2.16,2.17Zm1.83-.9a8.94,8.94,0,0,0-2.08-2.1l.3-.33a8.74,8.74,0,0,1,2.13,2.14Z"/><path class="cls-1" d="M445.91,242.43c-.06.17-.21.24-.53.21a37.25,37.25,0,0,0-.78,6.87,19.78,19.78,0,0,0,.25,3.55c.36-.94,1-2.71,1.26-3.28l.45.17c-.69,1.83-1.09,2.71-1.29,3.34a2.46,2.46,0,0,0-.12.69,1.33,1.33,0,0,0,.07.44l-.48.13a15.2,15.2,0,0,1-.64-5,40.23,40.23,0,0,1,.85-7.3Zm9.94,10.8c-.53,0-1.07,0-1.59,0a20.05,20.05,0,0,1-3-.18c-1.68-.25-2.55-1.21-2.55-2.37a4.54,4.54,0,0,1,1.49-2.82l.4.27a3.93,3.93,0,0,0-1.39,2.54c0,.87.72,1.7,2.19,1.92a17.58,17.58,0,0,0,2.59.17c.58,0,1.2,0,1.8-.06Zm-7-8.79a45.74,45.74,0,0,0,6.66-.58l.06.5a54.1,54.1,0,0,1-6.71.58Z"/><path class="cls-1" d="M472.31,244.44a.8.8,0,0,1-.15.17c-1.49,4.83-4,8.05-8.24,10.2a1.49,1.49,0,0,0-.31-.37,15.14,15.14,0,0,0,8-9.67h-6a15.37,15.37,0,0,1-3.46,3.9,2.83,2.83,0,0,0-.37-.32,15.86,15.86,0,0,0,4.84-6.61l.74.29c0,.15-.24.17-.39.15a20,20,0,0,1-1.06,2.12h6l.11,0Z"/><path class="cls-1" d="M480.92,250v-7.2l.79.06c0,.11-.12.21-.31.23V250Zm8-7.75c0,.13-.12.21-.32.22v4.83c0,3.12-1.09,5.94-5.47,7.54a1.83,1.83,0,0,0-.31-.39c4.29-1.56,5.31-4.18,5.31-7.15v-5.12Z"/><path class="cls-1" d="M497.16,244h10.28v.48h-4.92v8.05h6V253H496.11v-.48H502v-8.05h-4.87Z"/><path class="cls-1" d="M12.55,270.43a.32.32,0,0,1-.23.1.51.51,0,0,1-.19,0,35.16,35.16,0,0,1-4.41,3.72l.25.15c0,.08-.13.13-.24.15v8.21H7.26v-8.17A43.86,43.86,0,0,1,1,278.27a3.81,3.81,0,0,0-.29-.39A40.74,40.74,0,0,0,11.94,270Z"/><path class="cls-1" d="M28.54,272.23a.17.17,0,0,1-.13.1,18.69,18.69,0,0,1-2.29,5.15,24.73,24.73,0,0,1,2.13,1.36l-.3.41a20,20,0,0,0-2.08-1.37,14.54,14.54,0,0,1-5.67,4.93,1.32,1.32,0,0,0-.36-.34,14.54,14.54,0,0,0,5.59-4.83,26.6,26.6,0,0,0-3.85-1.75l.24-.42a28.62,28.62,0,0,1,3.88,1.77,17.17,17.17,0,0,0,2.14-4.7H22.07a15.7,15.7,0,0,1-3.63,4.4,3.87,3.87,0,0,0-.36-.33,17.06,17.06,0,0,0,4.84-7l.73.21c-.06.13-.18.17-.36.15-.24.57-.63,1.42-1,2.05H28l.12,0Z"/><path class="cls-1" d="M35.8,275.74H48.32v.5h-12a.57.57,0,0,1-.43.27Z"/><path class="cls-1" d="M56.36,282.34a13.37,13.37,0,0,1-.69-5,39,39,0,0,1,.86-7.16l.84.2c0,.13-.15.24-.39.24a32.42,32.42,0,0,0-.82,6.72,15.31,15.31,0,0,0,.19,3.13c.41-1.12,1.11-2.71,1.47-3.51l.46.19a23.83,23.83,0,0,0-1.67,4.3,1.57,1.57,0,0,0,.21.74Zm6.09-8.55c.5,0,1.2,0,1.69-.06-.06-1.38-.1-2.57-.13-3.67l.9,0c0,.15-.17.25-.39.3,0,1,.06,2,.11,3.3A12.53,12.53,0,0,0,67.8,273l.12.5a13.4,13.4,0,0,1-3.27.63c.08,1.89.17,3.9.2,4.84a11.72,11.72,0,0,1,3.24,2l-.32.41a10,10,0,0,0-2.91-1.92c.06,1.56-.11,3-2.25,3-1.7,0-2.9-.72-2.9-2,0-1.49,1.59-2,2.88-2a6.14,6.14,0,0,1,1.79.29c0-1.05-.15-2.9-.22-4.62-.5,0-1.2.06-1.7.06H60v-.46Zm1.95,5.55a5.69,5.69,0,0,0-1.8-.33c-1,0-2.4.38-2.4,1.54s1.08,1.53,2.42,1.53,1.8-.6,1.8-2.16Z"/><path class="cls-1" d="M75.51,279.34a31.42,31.42,0,0,1,3.5,3.41l-.43.42a31.12,31.12,0,0,0-3.44-3.46Z"/><path class="cls-1" d="M91.1,276.16v-3A9.21,9.21,0,0,1,88.25,276a2.31,2.31,0,0,0-.31-.34,8.12,8.12,0,0,0,2.91-2.85H88.13v-.45h3v-3l.68.06c0,.08-.08.14-.23.15v2.79h2.92v.45H91.55v.37c.62.39,2.5,1.68,2.94,2l-.3.39a30.58,30.58,0,0,0-2.64-2v2.49Zm.44,2.42a4.89,4.89,0,0,1-.12.93c1,.71,2.16,1.67,2.8,2.24l-.36.31a32.52,32.52,0,0,0-2.57-2.12,5.14,5.14,0,0,1-3,2.9,2.12,2.12,0,0,0-.27-.37c2.53-1.16,3-2.57,3.1-3.88h-3v-.45h3v-1.56l.68.06c0,.08-.08.13-.23.15v1.35h3v.45ZM89,269.93a6.34,6.34,0,0,1,1,1.77l-.41.21a7.06,7.06,0,0,0-1-1.81Zm3.66,1.83a13.53,13.53,0,0,0,1-1.87l.62.29a.28.28,0,0,1-.25.1A16.85,16.85,0,0,1,93,272Zm4.58,9.42a.39.39,0,0,1-.29.12,9.35,9.35,0,0,1-3.06,1.88,2,2,0,0,0-.35-.36A8.56,8.56,0,0,0,96.61,281Zm-2.08-8.62h2.16c.17-.56.36-1.31.49-1.89H94.55v-.45h7.23v.45H98.26c-.12.53-.32,1.29-.5,1.89h3.46v7.84h-6.1Zm5.65,2.44v-2h-5.2v2Zm0,2.46v-2h-5.2v2Zm0,2.49v-2h-5.2v2Zm-1.42,1a16.27,16.27,0,0,1,2.7,1.91l-.39.28A15.94,15.94,0,0,0,99,281.25Z"/><path class="cls-1" d="M110.25,273.83a20.29,20.29,0,0,1-2.07,3.11,3.27,3.27,0,0,0-.3-.35,21.56,21.56,0,0,0,3.77-7.09l.64.2c0,.09-.13.13-.29.13a25.89,25.89,0,0,1-1.3,3.13l.22.06c0,.08-.07.12-.22.13v10h-.45Zm3.53,6,3.78-1.36.08.39c-1.93.75-4,1.51-5.26,2a.22.22,0,0,1-.13.21l-.33-.58,1.42-.48-.11-9.75.68.06c0,.07-.08.13-.23.15Zm7.72-9.73c0,.09-.09.15-.25.15-.21,3.85-.63,6.7-1.8,8.82,1.08,1.26,2.33,2.87,3,3.79l-.34.33c-.62-.95-1.8-2.5-2.83-3.75a9,9,0,0,1-5.55,3.83,2,2,0,0,0-.29-.37c5.88-1.71,7-5.34,7.39-12.88Zm-5.66,1.33a16.74,16.74,0,0,1,2.38,3.62l-.39.25a17.6,17.6,0,0,0-2.37-3.66Z"/><path class="cls-1" d="M136.45,281.54a7.26,7.26,0,0,1-3.09.58c-2.6,0-5.27-1.63-5.27-5.77,0-3.29,2-5.9,5.69-5.9a5.7,5.7,0,0,1,2.59.5l-.21.44a5.09,5.09,0,0,0-2.34-.51c-3.21,0-5.17,2.15-5.17,5.52,0,3.19,1.84,5.29,5,5.29a5.9,5.9,0,0,0,2.61-.56Z"/><path class="cls-1" d="M153.93,282h-.52l-.35-5.52c-.13-2-.27-3.95-.25-5.07h0c-.42,1.19-.87,2.45-1.56,4.19L148.67,282h-.34l-2.38-6.27c-.69-1.84-1.17-3.13-1.52-4.35h0c0,1.31-.12,3.29-.27,5.24l-.37,5.35h-.54l.83-11.32h.55l2.64,6.94c.54,1.47.95,2.55,1.29,3.6h0c.3-1,.71-2,1.3-3.54l2.73-7h.6Z"/><path class="cls-1" d="M168.78,273.13c-.51,0-1.07.06-1.61.06s-1.21,0-1.8-.08c-.17,1.28-.33,2.63-.45,3.79a32.41,32.41,0,0,0,3.81-.21l0,.5c-1,.1-2.52.19-3.88.19-.08.78-.12,1.25-.12,1.7,0,2.79,1.77,3,3.39,3,1.33,0,3.93-.2,3.93-2.29a5.06,5.06,0,0,0-1.32-3,1.78,1.78,0,0,0,.41-.24,5.27,5.27,0,0,1,1.41,3.21c0,2-1.84,2.75-4.35,2.75-1.27,0-3.94,0-3.94-3.48,0-.39,0-.83.12-1.74-1.33,0-3.39-.06-3.39-1.47a2.38,2.38,0,0,1,1.32-1.82l.33.35c-.71.45-1.12,1-1.12,1.44,0,1,1.44,1,2.91,1,.12-1.14.28-2.52.45-3.84a10.94,10.94,0,0,1-3.31-.89l.2-.45a10.2,10.2,0,0,0,3.18.87c.13-1,.25-2.05.36-2.86l.9.12c0,.17-.21.25-.45.25l-.33,2.55c.54,0,1.08.08,1.62.08s1.17,0,1.73-.08Z"/><path class="cls-1" d="M193.41,274.81H189a11.62,11.62,0,0,0,4.69,3.42,1.56,1.56,0,0,0-.33.38,12.88,12.88,0,0,1-4.9-3.79h-3.63a12.6,12.6,0,0,1-5,3.81,2.29,2.29,0,0,0-.33-.33,12.1,12.1,0,0,0,4.77-3.48H179.9v-.45h4.75a10,10,0,0,0,1-1.77c-1.82,0-3.45.09-4.7.11a.24.24,0,0,1-.18.2l-.27-.66,2.52,0a24.35,24.35,0,0,0,1.93-2.83l.6.25c0,.08-.12.11-.26.11a27.18,27.18,0,0,1-1.75,2.46c2.19,0,4.82-.09,7.37-.17a20.85,20.85,0,0,0-2.45-1.62l.33-.29a18.41,18.41,0,0,1,4.13,3l-.34.33a11,11,0,0,0-1.19-1.09c-1.68.08-3.43.12-5.08.18h.06c0,.09-.13.12-.29.12a9.37,9.37,0,0,1-.93,1.65h8.22Zm-1.68,5a.21.21,0,0,1-.23.07c-1.69,1.71-5.26,2.91-9.15,3.45a2.27,2.27,0,0,0-.24-.41c3.87-.5,7.38-1.62,9.1-3.37ZM187.85,276c0,.07-.12.1-.22.1a16.75,16.75,0,0,1-4.44,2.15,3.52,3.52,0,0,0-.35-.33,14.29,14.29,0,0,0,4.46-2.15Zm1.75,1.9a.22.22,0,0,1-.22.08,18.55,18.55,0,0,1-6.24,2.67,2.3,2.3,0,0,0-.3-.36,17,17,0,0,0,6.23-2.64Z"/><path class="cls-1" d="M213.88,274.6h-5.82a36.33,36.33,0,0,1-3.3,2l-.09.4a48.2,48.2,0,0,0,6.84-1.06l.42.42a.13.13,0,0,1-.1,0l-.12,0a52.08,52.08,0,0,1-7.14,1c-.12.5-.24,1-.37,1.5h7.09l.12,0,.29.09a.82.82,0,0,1-.06.18c-.34,2.44-.66,3.42-1.12,3.81a1.31,1.31,0,0,1-.9.25c-.4,0-1.35,0-2.34-.09a1.06,1.06,0,0,0-.15-.45c1,.11,2.07.12,2.4.12s.53,0,.66-.13c.39-.32.67-1.2,1-3.32h-7.08c-.09.3-.17.58-.24.83l-.46-.09c.27-.83.6-2.07.85-3.21a38.18,38.18,0,0,1-3.69,1.62,2.2,2.2,0,0,0-.32-.34,37,37,0,0,0,4.13-1.82l.09-.42.56.09c.78-.43,1.54-.88,2.29-1.36h-6.92v-.45h5.58v-2.24h-4.33v-.45h4.33v-2.1l.67.06c0,.07-.08.13-.23.15v1.89h4.41v.44a18.81,18.81,0,0,0,1.86-1.94l.55.36a.3.3,0,0,1-.21.08h-.13a23.44,23.44,0,0,1-4.17,3.76h5.17Zm-7.49-.45H208a26.28,26.28,0,0,0,2.83-2.24h-4.4Z"/><path class="cls-1" d="M223.24,270c0,.17-.17.27-.46.3-.12,1.58-.27,5.87-.27,8.1,0,2.46,1.2,3.66,3.3,3.66a7.43,7.43,0,0,0,5.79-3.12,1.53,1.53,0,0,0,.38.33,8,8,0,0,1-6.18,3.27c-2.32,0-3.78-1.41-3.78-4.17,0-1.8.15-6.66.27-8.53Z"/><path class="cls-1" d="M243.78,269.78c0,.12-.2.21-.46.23-.12.75-.25,1.54-.42,2.23a23.29,23.29,0,0,0,4.92-.76l.1.5a31.26,31.26,0,0,1-5.13.76,20.84,20.84,0,0,1-3.36,7.53L239,280a20.43,20.43,0,0,0,3.25-7.29c-.48,0-1,0-1.41,0H239v-.48h1.88l1.5,0c.2-.82.34-1.71.48-2.67Zm4.09,6.3c0,1.42.13,2.22.22,3.38a15.6,15.6,0,0,1,3.41,1.89l-.3.42a15.37,15.37,0,0,0-3.09-1.78v.64c0,1.42-1,2.31-2.61,2.31s-2.91-.71-2.91-2c0-1.47,1.59-2.06,2.91-2.06a6.83,6.83,0,0,1,2.07.38c-.08-1.14-.2-2.26-.2-3.12Zm-.27,3.71a6,6,0,0,0-2.12-.42c-1,0-2.4.38-2.4,1.56s1,1.52,2.42,1.52,2.12-.6,2.12-1.82C247.62,280.31,247.62,280,247.6,279.79Zm3.84-5.58a19.14,19.14,0,0,0-5.36.81l-.12-.47a20.25,20.25,0,0,1,5.46-.84Z"/><path class="cls-1" d="M263.53,270.07c0,.18-.2.25-.5.25-.18.92-.48,2.47-.67,3.39a20.59,20.59,0,0,1,2.08-.17c2.07,0,2.82,1.35,2.82,3.5a11.44,11.44,0,0,1-.6,3.64,2.56,2.56,0,0,1-2.49,2c-.63,0-1.39-.24-2.74-1.37a1.82,1.82,0,0,0,.24-.4c1.33,1.06,2,1.29,2.52,1.29a2,2,0,0,0,2-1.59,12.1,12.1,0,0,0,.58-3.51c0-1.83-.63-3-2.38-3a21.62,21.62,0,0,0-2.16.17,25.94,25.94,0,0,1-3.3,8.29l-.45-.21a24.32,24.32,0,0,0,3.25-8c-.93.11-2,.23-2.94.36l-.06-.48c.79-.1,2-.24,3.12-.36.24-1.09.51-2.52.71-3.88Zm3.85-.43a11.65,11.65,0,0,1,2.17,2.11l-.34.29a11.37,11.37,0,0,0-2.14-2.1Zm3.74,8.74a9.62,9.62,0,0,0-3.45-5.23l.36-.3a9.81,9.81,0,0,1,3.55,5.34ZM269.6,269a11.62,11.62,0,0,1,2.17,2.11l-.34.29a11.37,11.37,0,0,0-2.14-2.1Z"/><path class="cls-1" d="M280.95,272.45a.47.47,0,0,1-.41.27,23.45,23.45,0,0,1-.6,4.93h0a10.68,10.68,0,0,1,6-2.05c2.33,0,3.64,1.11,3.64,3.06,0,2.79-2.43,3.9-8.08,4.14a4.31,4.31,0,0,0-.15-.46c5.37-.25,7.74-1.18,7.74-3.63,0-1.68-1.17-2.62-3.18-2.62-3.1,0-5.94,2-6.17,2.49l-.51-.3c.29-.33.79-2.85.83-5.92Zm.64-2.75a24.42,24.42,0,0,1,5.83,1.43l-.2.46a24.19,24.19,0,0,0-5.79-1.42Z"/><path class="cls-1" d="M298.09,279.34a31.42,31.42,0,0,1,3.5,3.41l-.43.42a31.12,31.12,0,0,0-3.44-3.46Z"/><path class="cls-1" d="M318.95,281.54a7.26,7.26,0,0,1-3.09.58c-2.6,0-5.27-1.63-5.27-5.77,0-3.29,2-5.9,5.69-5.9a5.7,5.7,0,0,1,2.59.5l-.21.44a5.09,5.09,0,0,0-2.34-.51c-3.21,0-5.17,2.15-5.17,5.52,0,3.19,1.84,5.29,5,5.29a5.9,5.9,0,0,0,2.61-.56Z"/><path class="cls-1" d="M336.43,282h-.52l-.35-5.52c-.13-2-.27-3.95-.25-5.07h0c-.42,1.19-.87,2.45-1.56,4.19L331.17,282h-.34l-2.38-6.27c-.69-1.84-1.17-3.13-1.52-4.35h0c0,1.31-.12,3.29-.27,5.24l-.37,5.35h-.54l.83-11.32h.55l2.64,6.94c.54,1.47.95,2.55,1.29,3.6h0c.3-1,.71-2,1.3-3.54l2.73-7h.6Z"/><path class="cls-1" d="M350.39,271.54a.31.31,0,0,1-.33.23c-.48,4.35-2.08,9.18-4.5,9.18-1,0-2.11-1.2-2.11-3.42a6.52,6.52,0,0,1,6.66-6.6c4.39,0,6,2.92,6,5.61,0,3.6-2.22,5.25-5.75,6,0-.09-.19-.33-.25-.45,3.48-.66,5.52-2.36,5.52-5.52,0-2.5-1.51-5.17-5.55-5.17h-.24Zm-.78-.13a6.09,6.09,0,0,0-5.71,6.12c0,1.84.9,2.92,1.67,2.92C347.61,280.45,349.14,275.93,349.61,271.4Z"/><path class="cls-1" d="M363,275.9a19.83,19.83,0,0,0,6.57-6.6l.81.06c0,.11-.13.13-.25.17a22.76,22.76,0,0,0,6.67,6.19,1.84,1.84,0,0,0-.3.38,23.25,23.25,0,0,1-6.69-6.25,21.26,21.26,0,0,1-6.52,6.39Zm7.18,1.77v4.58h6.24v.45h-13v-.45h2.22v-6l.67.06c0,.08-.08.13-.23.15v5.82h3.67v-8.91l.68.06c0,.08-.08.13-.23.15v3.67H375v.45Z"/><path class="cls-1" d="M383.25,270.46h13.3v.45h-6.48v2.19h3.51v6.78h-7.46V273.1h3.5v-2.19h-6.37Zm12.45,11.24V273l.68.06c0,.08-.08.13-.23.15v9.93h-.45v-1H384.18v1h-.45V273l.67.06c0,.08-.08.13-.23.15v8.52Zm-9.12-8.15v2.7h3v-2.7Zm0,3.15v2.73h3V276.7Zm6.55-.45v-2.7h-3.06v2.7Zm0,3.18V276.7h-3.06v2.73Z"/><path class="cls-1" d="M406.61,275.54a4.32,4.32,0,0,1,2.66-1.12c1.13,0,1.69.81,1.86,2.07,1.33-.62,3-1.3,4.33-1.8l.32.63h-.09a.43.43,0,0,1-.23-.09c-1.16.41-2.92,1.11-4.27,1.74a11.63,11.63,0,0,1,.06,1.33c0,.55,0,1.18-.06,1.84h-.54c0-.58.08-1.38.08-2.07a7.93,7.93,0,0,0,0-.9c-2,1-3.79,2.16-3.79,3.3s1.18,1.54,3.52,1.54a33.64,33.64,0,0,0,3.79-.15v.51c-1,.09-2.35.12-3.79.12-2.88,0-4-.72-4-2s1.88-2.61,4.21-3.78c-.12-1.29-.67-1.8-1.38-1.8-1.17,0-2.37.69-3.81,2.26a22.87,22.87,0,0,1-1.71,1.64l-.33-.35a10.92,10.92,0,0,0,4-6H403.7V272h3.78a21.64,21.64,0,0,0,.46-2.26l.88.15c0,.15-.13.24-.36.25A18.88,18.88,0,0,1,408,272a21.7,21.7,0,0,0,5.58-.92l.1.5a22.37,22.37,0,0,1-5.82.9,11.87,11.87,0,0,1-1.3,3.07Z"/><path class="cls-1" d="M433,271.87a.21.21,0,0,1-.13.09c-1,5.68-4.2,9.2-9.07,10.8a4,4,0,0,0-.29-.41,12.39,12.39,0,0,0,8.8-10.17H422.26v-.48h10.27l.11-.06Zm-1.14-2.14a11.71,11.71,0,0,1,2,2.28l-.37.27a11.55,11.55,0,0,0-2-2.25Zm1.65-.9a11.35,11.35,0,0,1,1.93,2.28l-.39.25a10.06,10.06,0,0,0-1.92-2.25Z"/><path class="cls-1" d="M452.81,274.61a.22.22,0,0,1-.13.09c-1.14,4.5-3.79,6.72-8.26,7.92a3,3,0,0,0-.25-.44c4.29-1.08,6.87-3.22,8-7.29H441.61v-.48h10.72l.09-.06ZM451.58,271h-8.52v-.48h8.52Z"/><path class="cls-1" d="M461.46,273.82a16.85,16.85,0,0,1,1.17,3.27l-.42.11a16.4,16.4,0,0,0-1.15-3.21Zm9.11,0c0,.1-.14.12-.27.12-1.14,4.35-3.24,7.08-7,8.61-.06-.09-.2-.27-.27-.36,3.84-1.54,5.75-4.06,6.92-8.55Zm-5.42-.72a20.73,20.73,0,0,1,.67,3.46l-.42.06a18.6,18.6,0,0,0-.69-3.42Z"/><path class="cls-1" d="M478.65,274.17a24,24,0,0,1,4.17,1.32l-.2.46a24.53,24.53,0,0,0-4.15-1.32Zm1.25,7.59c5.05-1.8,8.38-4.5,10.33-9a3.1,3.1,0,0,0,.42.27c-2,4.56-5.38,7.3-10.17,9.06a.32.32,0,0,1-.13.34Zm.3-11.32a23.91,23.91,0,0,1,4.13,1.46l-.2.45a24,24,0,0,0-4.09-1.46Z"/><path class="cls-1" d="M507.91,281.08v.45h-10.2v-.45H504c.25-1.62.74-5.05.88-6.72h-6v-.45h6.13l.09,0,.42.24a.18.18,0,0,1-.15.08c-.2,1.68-.69,5.16-1,6.88Z"/><path class="cls-1" d="M13.17,299.06s-.09.08-.13.09a11.33,11.33,0,0,1-3.82,4.75,2,2,0,0,0-.37-.33,9.68,9.68,0,0,0,3.52-4.25H.9v-.48H12.57l.12-.06Zm-5.94,2.61c0,.11-.13.2-.3.23-.48,3.7-1.67,7.06-4.81,8.83a2.76,2.76,0,0,0-.36-.34c3.2-1.77,4.26-5,4.71-8.8Z"/><path class="cls-1" d="M20.13,301.82a16.85,16.85,0,0,1,1.17,3.27l-.42.11A16.4,16.4,0,0,0,19.72,302Zm9.11,0c0,.1-.14.12-.27.12-1.14,4.35-3.24,7.08-7,8.61-.06-.09-.2-.27-.27-.36,3.84-1.54,5.75-4.06,6.92-8.55Zm-5.42-.72a20.73,20.73,0,0,1,.67,3.46l-.42.06a18.6,18.6,0,0,0-.69-3.42Z"/><path class="cls-1" d="M34.1,299.64h9.64l.08,0,.57.5a.19.19,0,0,1-.12.09c-1.12,5.64-3.78,8.75-8.38,10.44a3.91,3.91,0,0,0-.29-.41c4.56-1.67,7.08-4.58,8.17-10.12H34.1Zm11.38-2.8a1.66,1.66,0,1,1-1.67,1.66A1.65,1.65,0,0,1,45.49,296.84Zm1.2,1.66a1.21,1.21,0,1,0-1.2,1.22A1.21,1.21,0,0,0,46.69,298.5Z"/><path class="cls-1" d="M52.74,300.24c1.23,0,5.5-.17,7.35-.24,0-.25-.09-2.47-.09-2.5l.9,0c0,.13-.1.25-.39.3,0,.48,0,1.37.06,2.16,1.76-.06,3.66-.11,5-.12v.51c-1.41,0-3.25,0-5,.09,0,1.27,0,2,.12,3.36a5.22,5.22,0,0,1,.17,1.56c0,1.43-.12,3.95-4.42,5.71l-.32-.4c2.76-1,4-2.58,4.26-4.35h0a2.34,2.34,0,0,1-2.05,1.14,2.46,2.46,0,0,1-2.42-2.55,2.7,2.7,0,0,1,2.58-2.73,2.36,2.36,0,0,1,1.69.63c0-.09,0-.17,0-.22,0-.33,0-1.21-.06-2.13-2.07.06-5.77.18-7.35.25ZM60.33,305c0-1-.2-2.31-1.8-2.31A2.13,2.13,0,0,0,56.4,305a2,2,0,1,0,3.93.06Z"/><path class="cls-1" d="M74.63,304.17a10,10,0,0,1,4.32-1.08c2.46,0,3.9,1.38,3.9,3.5,0,2.73-2.41,4.2-5.23,4.2-2,0-3.29-.71-3.29-1.91A2.11,2.11,0,0,1,76.67,307a3.28,3.28,0,0,1,3.06,3,3.53,3.53,0,0,0,2.64-3.37c0-1.86-1.29-3-3.43-3a9.3,9.3,0,0,0-5.78,2.05c-.5.48-1.06,1.13-1.48,1.62l-.36-.36c1.53-1.67,6.18-6.12,8.23-8.05-1,.13-4.24.24-6.31.3a.42.42,0,0,1-.27.23l-.11-.71c2.12,0,5.75-.15,6.9-.32l.21-.1.53.57a.76.76,0,0,1-.32.14c-1.26,1.06-4.42,4.11-5.55,5.23Zm3,6.15a6.77,6.77,0,0,0,1.67-.21,2.85,2.85,0,0,0-2.62-2.64c-1,0-1.85.53-1.85,1.4C74.79,310,76.34,310.32,77.6,310.32Z"/><path class="cls-1" d="M100.37,309.51a26.65,26.65,0,0,1-4.67.39,15,15,0,0,1-2.76-.2A2.72,2.72,0,0,1,90.47,307a4.94,4.94,0,0,1,1.59-3.24l.38.27a4.65,4.65,0,0,0-1.49,3c0,1,.67,1.84,2.13,2.19a12.84,12.84,0,0,0,2.58.2,24.55,24.55,0,0,0,4.67-.42Zm-3.17-9.45c-1.39.15-4.35.21-6.28.21v-.5c.52,0,6.36.06,8.44-.51l.12.51a5,5,0,0,0-1.67.5,20.18,20.18,0,0,0-3.48,2.19l-.31-.34a21.29,21.29,0,0,1,3.18-2Z"/><path class="cls-1" d="M118,302.24h-.12a.57.57,0,0,1-.29-.08c-4.41,1.37-8.91,3.57-8.91,5.87,0,1.67,1.9,2.19,4.6,2.19a42.35,42.35,0,0,0,5.25-.3l0,.51a45.61,45.61,0,0,1-5.28.25c-3,0-5.1-.66-5.1-2.64,0-1.62,1.74-3.07,4.17-4.3-.47-.78-.68-2.58-.68-6.07l.95.09c0,.17-.17.3-.45.33,0,3,.12,4.69.62,5.44a39.57,39.57,0,0,1,5-1.92Z"/><path class="cls-1" d="M130.66,298.07c0,.18-.2.25-.5.25-.18.92-.48,2.47-.67,3.39a20.59,20.59,0,0,1,2.08-.17c2.07,0,2.82,1.35,2.82,3.5a11.44,11.44,0,0,1-.6,3.64,2.56,2.56,0,0,1-2.49,2c-.63,0-1.39-.24-2.74-1.37a1.82,1.82,0,0,0,.24-.4c1.33,1.06,2,1.29,2.52,1.29a2,2,0,0,0,2-1.59,12.1,12.1,0,0,0,.58-3.51c0-1.83-.63-3-2.38-3a21.62,21.62,0,0,0-2.16.17,25.94,25.94,0,0,1-3.3,8.29l-.45-.21a24.32,24.32,0,0,0,3.25-8c-.93.11-2,.23-2.94.36l-.06-.48c.79-.1,2-.24,3.12-.36.24-1.09.51-2.52.71-3.88Zm3.85-.43a11.65,11.65,0,0,1,2.17,2.11l-.34.29a11.37,11.37,0,0,0-2.14-2.1Zm3.74,8.74a9.62,9.62,0,0,0-3.45-5.23l.36-.3a9.81,9.81,0,0,1,3.55,5.34ZM136.73,297a11.62,11.62,0,0,1,2.17,2.11l-.34.29a11.37,11.37,0,0,0-2.14-2.1Z"/><path class="cls-1" d="M158.54,298.52V299h-2v11.2c0,.55-.15.79-.6.88a20.4,20.4,0,0,1-2.94.08c0-.13-.13-.36-.21-.53l1.83,0c1.42,0,1.47,0,1.47-.46V299h-11v-.45Zm-5.73,8.71h-5.75v1.29h-.45v-6.77h6.19Zm-.45-5h-5.29v4.58h5.29Z"/><path class="cls-1" d="M169.84,301a17,17,0,0,0-1.42-1.93l.33-.17a16,16,0,0,1,2.19,3.29l-.33.21a10.93,10.93,0,0,0-.52-1c-2.22.12-4.56.22-6,.29,0,.1-.09.15-.18.18l-.21-.65,1.25,0a27.2,27.2,0,0,0,1.77-3.72l.63.19q0,.11-.27.13a36.79,36.79,0,0,1-1.67,3.38Zm.06,2.16v7.3c0,.74-.29.75-2.36.75a1.7,1.7,0,0,0-.2-.5l1.33,0c.71,0,.77,0,.77-.29v-2.23h-4.21v3h-.45v-8.1Zm-.45.45h-4.21v1.81h4.21Zm-4.21,4.17h4.21v-1.91h-4.21Zm10.95-4.28c.69,0,.81-.28.87-2a1.23,1.23,0,0,0,.45.21c-.08,1.75-.25,2.21-1.31,2.21H173c-1.14,0-1.47-.17-1.47-1v-5.55l.67.06c0,.07-.08.13-.22.15v2.71a38,38,0,0,0,4.33-1.58l.45.44a.12.12,0,0,1-.1,0l-.14,0a43.69,43.69,0,0,1-4.54,1.54v2.21c0,.45.15.55,1,.55ZM172,310c0,.47.17.58,1,.58h3.29c.76,0,.88-.31.95-2.2a1.44,1.44,0,0,0,.45.19c-.09,2-.27,2.45-1.38,2.45h-3.27c-1.17,0-1.51-.17-1.51-1v-5.52l.67.06c0,.07-.08.13-.22.15v2.54a19.57,19.57,0,0,0,4.59-1.72l.4.45a.12.12,0,0,1-.1,0h-.12a21.59,21.59,0,0,1-4.77,1.68Z"/><path class="cls-1" d="M186,298.43c-.06.17-.21.24-.53.21a37.25,37.25,0,0,0-.78,6.87,19.68,19.68,0,0,0,.26,3.55c.36-.94,1-2.71,1.26-3.28l.45.17c-.69,1.83-1.09,2.71-1.29,3.34a2.46,2.46,0,0,0-.12.69,1.33,1.33,0,0,0,.07.44l-.48.13a15.2,15.2,0,0,1-.64-5,40.23,40.23,0,0,1,.85-7.3Zm9.94,10.8c-.53,0-1.07,0-1.59,0a20.05,20.05,0,0,1-3-.18c-1.68-.25-2.55-1.21-2.55-2.37a4.54,4.54,0,0,1,1.49-2.82l.4.27a3.93,3.93,0,0,0-1.39,2.54c0,.87.72,1.7,2.19,1.92a17.58,17.58,0,0,0,2.59.17c.58,0,1.2,0,1.8-.06Zm-7-8.79a45.74,45.74,0,0,0,6.66-.58l.06.5a54.1,54.1,0,0,1-6.71.58Z"/><path class="cls-1" d="M207.37,297.78c0,.12-.2.21-.46.23-.12.75-.25,1.54-.42,2.23a23.29,23.29,0,0,0,4.92-.76l.1.5a31.26,31.26,0,0,1-5.13.76,20.84,20.84,0,0,1-3.36,7.53l-.42-.22a20.43,20.43,0,0,0,3.25-7.29c-.48,0-1,0-1.41,0h-1.86v-.48h1.88l1.5,0c.2-.82.34-1.71.48-2.67Zm4.09,6.3c0,1.42.13,2.22.22,3.38a15.6,15.6,0,0,1,3.41,1.89l-.3.42A15.37,15.37,0,0,0,211.7,308v.64c0,1.42-1,2.31-2.61,2.31s-2.91-.71-2.91-2c0-1.47,1.59-2.06,2.91-2.06a6.83,6.83,0,0,1,2.07.38c-.08-1.14-.2-2.26-.2-3.12Zm-.27,3.71a6,6,0,0,0-2.12-.42c-1,0-2.4.38-2.4,1.56s1,1.52,2.42,1.52,2.12-.6,2.12-1.82C211.21,308.31,211.21,308,211.19,307.79Zm3.84-5.58a19.14,19.14,0,0,0-5.36.81l-.12-.47a20.25,20.25,0,0,1,5.46-.84Z"/><path class="cls-1" d="M223.3,306.18a7.22,7.22,0,0,1-.44-2.52,27.21,27.21,0,0,1,.54-5.23l.92.21c-.06.21-.24.24-.46.25a23.73,23.73,0,0,0-.51,4.68,6,6,0,0,0,.08,1.16c.33-.79.92-2,1.21-2.54a3.8,3.8,0,0,0,.39.29,21,21,0,0,0-1.21,2.59,1.72,1.72,0,0,0-.11.58,1.27,1.27,0,0,0,.06.41Zm7.65-8.14c0,.2-.15.25-.42.32.1,1.39.25,3.69.25,5.28,0,2.91-1.14,5.45-5.49,7.25a4.66,4.66,0,0,0-.32-.42c4.08-1.54,5.33-4,5.33-6.81,0-1.68-.17-3.92-.33-5.67Z"/><path class="cls-1" d="M238.84,299.87c.94.06,2.05.06,3,.06.81,0,1.75,0,2.52,0,0-.76,0-1.68,0-2.25l.93.06c0,.18-.13.25-.42.3,0,.51,0,1.26,0,1.86a27.58,27.58,0,0,0,5.28-.65l.1.48a28.05,28.05,0,0,1-5.4.64l.09,3.23a23.2,23.2,0,0,0,4.53-.63l.11.5A28.46,28.46,0,0,1,245,304l.12,2.9a17.73,17.73,0,0,1,4.67,2.5l-.32.42a16.15,16.15,0,0,0-4.32-2.42c0,.31,0,.66,0,.9a2.1,2.1,0,0,1-2.37,2.39c-1.86,0-3.27-.66-3.27-2.06s1.65-2.1,3.22-2.1a7.22,7.22,0,0,1,1.89.22c0-.76-.06-1.72-.09-2.73l-1.64,0c-2.14,0-3.28-.13-3.28-1.14,0-.52.4-.93,1.27-1.53l.34.34c-1,.57-1.12.92-1.12,1.21,0,.51,1,.65,2.79.65l1.61,0-.09-3.21c-1.1,0-2.08,0-3.5,0-.71,0-1.47,0-2.05,0Zm5.82,7.39a6.93,6.93,0,0,0-1.92-.25c-1.27,0-2.75.53-2.75,1.63s1.26,1.61,2.79,1.61,1.89-.63,1.89-1.92Z"/><path class="cls-1" d="M257,300.24c1.23,0,5.5-.17,7.35-.24,0-.25-.09-2.47-.09-2.5l.9,0c0,.13-.1.25-.39.3,0,.48,0,1.37.06,2.16,1.76-.06,3.66-.11,5-.12v.51c-1.41,0-3.25,0-5,.09,0,1.27,0,2,.12,3.36a5.22,5.22,0,0,1,.17,1.56c0,1.43-.12,3.95-4.42,5.71l-.32-.4c2.76-1,4-2.58,4.26-4.35h0a2.34,2.34,0,0,1-2.05,1.14,2.46,2.46,0,0,1-2.42-2.55,2.7,2.7,0,0,1,2.58-2.73,2.36,2.36,0,0,1,1.69.63c0-.09,0-.17,0-.22,0-.33,0-1.21-.06-2.13-2.07.06-5.77.18-7.35.25ZM264.6,305c0-1-.2-2.31-1.8-2.31a2.13,2.13,0,0,0-2.13,2.25,2,2,0,1,0,3.93.06Z"/><path class="cls-1" d="M280.53,309.06a2.1,2.1,0,1,1-2.1-2.1A2.11,2.11,0,0,1,280.53,309.06Zm-.45,0a1.65,1.65,0,1,0-1.65,1.65A1.64,1.64,0,0,0,280.08,309.06Z"/><path class="cls-1" d="M67.15,515.25v.24h-3.5v2.16c0,.21-.06.3-.25.34a6.66,6.66,0,0,1-1.22,0,1.17,1.17,0,0,0-.12-.22h.77c.54,0,.58,0,.58-.17v-2.17H59.87v-.24h3.53v-.82l.24,0a8,8,0,0,0,1.54-1.14H61.35v-.24h4.08l0,0,.21.15a.11.11,0,0,1-.08,0,8.79,8.79,0,0,1-2,1.45v.56ZM60.49,512v1.48h-.24v-1.72h3.13v-1.1l.36,0s0,.07-.12.08v1h3.19v1.72h-.24V512Z"/><path class="cls-1" d="M75.19,512.06v5.32h-.26v-.46H69.63v-.26h5.31v-4.35H69.72v-.26Z"/><path class="cls-1" d="M78.35,511.65a9.3,9.3,0,0,1,2.41,1.11l-.14.22a9.46,9.46,0,0,0-2.37-1.12Zm.14,5.64a8.81,8.81,0,0,0,5.83-4.75,1.17,1.17,0,0,0,.22.14,9.08,9.08,0,0,1-5.73,4.78.27.27,0,0,1-.1.17Z"/><path class="cls-1" d="M93.43,513.85H90.59l.12,0s-.06.08-.14.09a4.36,4.36,0,0,1-2.52,3.8,1.39,1.39,0,0,0-.18-.2,4.13,4.13,0,0,0,2.45-3.72H87v-.26h6.4Zm-.78-2.27H87.74v-.26h4.91Z"/><path class="cls-1" d="M97.29,514a2.3,2.3,0,0,1,1.42-.6c.6,0,.9.43,1,1.1.71-.33,1.62-.7,2.31-1l.17.34h0a.22.22,0,0,1-.12,0c-.62.22-1.56.59-2.28.93a6.07,6.07,0,0,1,0,.71c0,.3,0,.63,0,1h-.29c0-.31,0-.74,0-1.1a4.38,4.38,0,0,0,0-.48c-1.09.53-2,1.15-2,1.76s.63.82,1.88.82a17.84,17.84,0,0,0,2-.08v.27c-.51,0-1.26.06-2,.06-1.54,0-2.15-.38-2.15-1.08s1-1.39,2.25-2c-.06-.69-.36-1-.74-1a2.91,2.91,0,0,0-2,1.21,12.23,12.23,0,0,1-.91.87l-.18-.18a5.82,5.82,0,0,0,2.12-3.2H95.73v-.26h2a11.61,11.61,0,0,0,.25-1.21l.47.08c0,.08-.07.13-.19.14a9.9,9.9,0,0,1-.23,1,11.6,11.6,0,0,0,3-.49l.06.26a11.94,11.94,0,0,1-3.1.48,6.33,6.33,0,0,1-.7,1.64Z"/><path class="cls-1" d="M104.9,513.26a12.79,12.79,0,0,1,2.22.7l-.1.25a13.17,13.17,0,0,0-2.21-.7Zm.66,4a8.57,8.57,0,0,0,5.51-4.81,1.72,1.72,0,0,0,.22.14,8.74,8.74,0,0,1-5.42,4.83.17.17,0,0,1-.07.18Zm.16-6a12.78,12.78,0,0,1,2.2.78l-.1.24a12.78,12.78,0,0,0-2.18-.78Z"/><path class="cls-1" d="M118.62,511.68a.1.1,0,0,1-.08.06,12.74,12.74,0,0,1-1.67,2.83,29.48,29.48,0,0,1,3.11,2.88l-.22.17a27.84,27.84,0,0,0-3.06-2.85,12.26,12.26,0,0,1-3.25,2.85,1.38,1.38,0,0,0-.18-.2,12.23,12.23,0,0,0,4.93-5.6H114v-.26h4.27l.06,0Z"/><path class="cls-1" d="M128.66,513.85h-2.84l.12,0s-.06.08-.14.09a4.36,4.36,0,0,1-2.52,3.8,1.39,1.39,0,0,0-.18-.2,4.13,4.13,0,0,0,2.45-3.72h-3.29v-.26h6.4Zm-.78-2.27H123v-.26h4.91Z"/><path class="cls-1" d="M137.11,517.57c-.11-.24-.26-.53-.45-.84-1.61.16-4.7.32-6,.39a.22.22,0,0,1-.14.15l-.13-.4.86,0c.55-1.58,1.38-4,1.86-5.69l.42.12c0,.07-.1.1-.21.1-.48,1.55-1.22,3.86-1.79,5.46,1.58-.07,3.73-.22,4.95-.33a16.43,16.43,0,0,0-1.66-2.21l.22-.14a15.65,15.65,0,0,1,2.29,3.33Z"/><path class="cls-1" d="M140.86,511.26c0,.09-.11.13-.28.11a19.85,19.85,0,0,0-.42,3.66,10.56,10.56,0,0,0,.14,1.9l.67-1.75.24.09c-.37,1-.58,1.45-.69,1.78a1.31,1.31,0,0,0-.06.37.7.7,0,0,0,0,.23l-.26.07a8.08,8.08,0,0,1-.34-2.68,21.52,21.52,0,0,1,.46-3.89Zm5.3,5.76-.85,0a10.62,10.62,0,0,1-1.58-.1c-.9-.14-1.36-.65-1.36-1.26a2.42,2.42,0,0,1,.79-1.5l.22.14a2.09,2.09,0,0,0-.74,1.35c0,.46.38.9,1.17,1a9.33,9.33,0,0,0,1.38.09c.31,0,.64,0,1,0Zm-3.73-4.69A24.53,24.53,0,0,0,146,512l0,.26a28.78,28.78,0,0,1-3.57.31Z"/><path class="cls-1" d="M152,511.24h.23a7.22,7.22,0,0,0,3.57,6.6,1.09,1.09,0,0,0-.2.18,7.18,7.18,0,0,1-3.49-5.21c-.58,2.44-1.65,4.2-3.52,5.21a2.13,2.13,0,0,0-.19-.18c1.86-1,2.93-2.73,3.49-5.21l.21.06a10.64,10.64,0,0,1-.1-1.22h-2.17v-.24H152Z"/><path class="cls-1" d="M164.59,512.57h.11l.14,0v.08c-.14,3.62-.26,4.8-.58,5.15-.18.2-.37.22-.7.22s-.72,0-1.14,0a.51.51,0,0,0-.08-.24c.6,0,1.15.06,1.34.06a.42.42,0,0,0,.36-.11c.27-.28.42-1.49.55-4.88h-3.28a6.28,6.28,0,0,1-3.09,5.27.68.68,0,0,0-.18-.17,6.07,6.07,0,0,0,3-5.1h-2.81v-.24h2.81c0-.24,0-.48,0-.7v-1.15l.36,0s0,.07-.12.08v1c0,.22,0,.46,0,.7Z"/><path class="cls-1" d="M337.17,513.26a12.79,12.79,0,0,1,2.22.7l-.1.25a13.08,13.08,0,0,0-2.21-.7Zm.66,4a8.57,8.57,0,0,0,5.51-4.81,1.72,1.72,0,0,0,.22.14,8.74,8.74,0,0,1-5.42,4.83.17.17,0,0,1-.07.18Zm.16-6a12.78,12.78,0,0,1,2.2.78l-.1.24a12.78,12.78,0,0,0-2.18-.78Z"/><path class="cls-1" d="M350.89,511.68a.1.1,0,0,1-.08.06,12.74,12.74,0,0,1-1.67,2.83,29.68,29.68,0,0,1,3.11,2.88l-.22.17a27.84,27.84,0,0,0-3.06-2.85,12.26,12.26,0,0,1-3.25,2.85,1.38,1.38,0,0,0-.18-.2,12.23,12.23,0,0,0,4.93-5.6h-4.15v-.26h4.27l.06,0Z"/><path class="cls-1" d="M360.93,513.85H358.1l.12,0s-.06.08-.14.09a4.36,4.36,0,0,1-2.52,3.8,1.39,1.39,0,0,0-.18-.2,4.13,4.13,0,0,0,2.45-3.72h-3.29v-.26h6.4Zm-.78-2.27h-4.91v-.26h4.91Z"/><path class="cls-1" d="M369.38,517.57c-.11-.24-.26-.53-.45-.84-1.61.16-4.7.32-6,.39a.22.22,0,0,1-.14.15l-.13-.4.86,0c.55-1.58,1.38-4,1.86-5.69l.42.12c0,.07-.1.1-.21.1-.48,1.55-1.22,3.86-1.79,5.46,1.58-.07,3.73-.22,4.95-.33a16.43,16.43,0,0,0-1.66-2.21l.22-.14a15.62,15.62,0,0,1,2.29,3.33Z"/><path class="cls-1" d="M374.78,511.07c0,.1-.1.14-.26.14-.1.49-.26,1.32-.36,1.81a10.83,10.83,0,0,1,1.11-.09c1.1,0,1.5.72,1.5,1.86a6.12,6.12,0,0,1-.32,1.94,1.36,1.36,0,0,1-1.33,1,2.32,2.32,0,0,1-1.46-.73.93.93,0,0,0,.13-.22c.71.57,1.06.69,1.34.69a1.09,1.09,0,0,0,1.07-.85,6.44,6.44,0,0,0,.31-1.87c0-1-.34-1.62-1.27-1.62a11.4,11.4,0,0,0-1.15.09,13.82,13.82,0,0,1-1.76,4.42l-.24-.11a13,13,0,0,0,1.73-4.28c-.5.06-1.09.12-1.57.19l0-.26,1.66-.19c.13-.58.27-1.34.38-2.07Zm2.05-.23A6.24,6.24,0,0,1,378,512l-.18.15a6.07,6.07,0,0,0-1.14-1.12Zm2,4.66a5.13,5.13,0,0,0-1.84-2.79l.19-.16a5.23,5.23,0,0,1,1.89,2.85Zm-.81-5a6.19,6.19,0,0,1,1.16,1.13l-.18.15a6.1,6.1,0,0,0-1.14-1.12Z"/><path class="cls-1" d="M383,514.32v-1.58a4.91,4.91,0,0,1-1.52,1.52,1.23,1.23,0,0,0-.17-.18,4.33,4.33,0,0,0,1.55-1.52h-1.45v-.24H383v-1.6l.36,0s0,.07-.12.08v1.49h1.56v.24h-1.56v.2c.33.21,1.34.9,1.57,1.08l-.16.21a16.14,16.14,0,0,0-1.41-1v1.33Zm.23,1.29a2.6,2.6,0,0,1-.06.5c.52.38,1.15.89,1.5,1.19l-.19.17a17,17,0,0,0-1.37-1.13,2.74,2.74,0,0,1-1.62,1.54,1.14,1.14,0,0,0-.14-.2c1.35-.62,1.62-1.37,1.66-2.07h-1.58v-.24H383v-.83l.36,0s0,.07-.12.08v.72h1.6v.24ZM381.9,511a3.38,3.38,0,0,1,.54.94l-.22.11a3.8,3.8,0,0,0-.53-1Zm2,1a7.25,7.25,0,0,0,.55-1l.33.15a.14.14,0,0,1-.14.06,8.94,8.94,0,0,1-.54.9Zm2.44,5a.21.21,0,0,1-.15.06,5,5,0,0,1-1.63,1,1.07,1.07,0,0,0-.18-.19,4.58,4.58,0,0,0,1.65-1Zm-1.11-4.6h1.15c.09-.3.19-.7.26-1h-1.72v-.24h3.85v.24h-1.88c-.06.28-.17.69-.26,1h1.85v4.18h-3.25Zm3,1.3v-1.06h-2.77v1.06Zm0,1.31v-1.07h-2.77V515Zm0,1.33v-1.09h-2.77v1.09Zm-.76.56a8.71,8.71,0,0,1,1.44,1l-.21.15a8.51,8.51,0,0,0-1.43-1Z"/><path class="cls-1" d="M392,513.08a10.8,10.8,0,0,1-1.1,1.66l-.16-.18a11.49,11.49,0,0,0,2-3.78l.34.1s-.07.07-.15.07a13.75,13.75,0,0,1-.7,1.67l.12,0s0,.06-.12.07v5.34H392Zm1.88,3.18,2-.73,0,.21c-1,.4-2.11.81-2.81,1.06a.12.12,0,0,1-.07.11l-.18-.31.76-.26-.06-5.2.36,0s0,.07-.12.08Zm4.12-5.19s0,.08-.14.08a11.13,11.13,0,0,1-1,4.7c.58.67,1.24,1.53,1.58,2l-.18.18c-.33-.5-1-1.33-1.51-2a4.82,4.82,0,0,1-3,2,1.16,1.16,0,0,0-.15-.2c3.13-.91,3.74-2.85,3.94-6.87Zm-3,.71a8.93,8.93,0,0,1,1.27,1.93l-.21.14a9.37,9.37,0,0,0-1.26-2Z"/><path class="cls-1" d="M401.87,511c0,.09-.09.14-.25.16-.06.84-.14,3.13-.14,4.32s.64,2,1.76,2a4,4,0,0,0,3.09-1.66.81.81,0,0,0,.2.18,4.27,4.27,0,0,1-3.29,1.74c-1.24,0-2-.75-2-2.22,0-1,.08-3.55.14-4.55Z"/><path class="cls-1" d="M411.19,510.9c0,.08-.14.14-.24.14-.06.39-.14.82-.22,1.4a9.47,9.47,0,0,0,2.52-.48l.09.25a10.41,10.41,0,0,1-2.65.5,19.1,19.1,0,0,1-1.52,5.12l-.25-.1a18.22,18.22,0,0,0,1.5-5h-1.58v-.26h1.62c.09-.54.18-1.12.24-1.62Zm4.27,6.81-.68,0a7.33,7.33,0,0,1-2-.21,1,1,0,0,1-.76-1,1.87,1.87,0,0,1,.49-1.15l.21.14a1.71,1.71,0,0,0-.45,1c0,.72.66,1,2.37,1,.27,0,.56,0,.86,0Zm-.25-3.89a8.61,8.61,0,0,0-2.85.4l-.08-.23a9.33,9.33,0,0,1,2.94-.42Z"/><path class="cls-1" d="M422.22,517.19a3.86,3.86,0,0,1-1.65.31,2.75,2.75,0,0,1-2.81-3.08,2.92,2.92,0,0,1,3-3.14,3,3,0,0,1,1.38.26l-.11.23a2.72,2.72,0,0,0-1.25-.27,2.65,2.65,0,0,0-2.76,2.94,2.55,2.55,0,0,0,2.65,2.82,3.15,3.15,0,0,0,1.39-.3Z"/><path class="cls-1" d="M430.29,517.41H430l-.18-2.94c-.07-1.06-.14-2.1-.14-2.7h0c-.22.63-.46,1.3-.83,2.23l-1.35,3.43h-.18L426,514.09c-.37-1-.62-1.67-.81-2.32h0c0,.7-.06,1.75-.14,2.79l-.2,2.85h-.29l.44-6h.3l1.41,3.7c.29.78.5,1.36.69,1.92h0c.16-.54.38-1.06.7-1.89l1.46-3.73h.32Z"/><path class="cls-1" d="M434.52,514a2.3,2.3,0,0,1,1.42-.6c.6,0,.9.43,1,1.1.71-.33,1.62-.7,2.31-1l.17.34h0a.22.22,0,0,1-.12,0c-.62.22-1.56.59-2.28.93a6.07,6.07,0,0,1,0,.71c0,.3,0,.63,0,1h-.29c0-.31,0-.74,0-1.1a4.38,4.38,0,0,0,0-.48c-1.09.53-2,1.15-2,1.76s.63.82,1.88.82a17.83,17.83,0,0,0,2-.08v.27c-.51,0-1.25.06-2,.06-1.54,0-2.15-.38-2.15-1.08s1-1.39,2.25-2c-.06-.69-.36-1-.74-1a2.91,2.91,0,0,0-2,1.21,12.6,12.6,0,0,1-.91.87l-.18-.18a5.82,5.82,0,0,0,2.12-3.2H433v-.26h2a11.61,11.61,0,0,0,.25-1.21l.47.08c0,.08-.07.13-.19.14a9.9,9.9,0,0,1-.23,1,11.55,11.55,0,0,0,3-.49l.06.26a11.94,11.94,0,0,1-3.1.48,6.33,6.33,0,0,1-.7,1.64Z"/><path class="cls-1" d="M444,514.31l0,.22-1,.4v2.73c0,.22-.07.3-.22.35a4.26,4.26,0,0,1-.94,0,1.34,1.34,0,0,0-.1-.23h.56c.44,0,.46,0,.46-.16V515l-1.18.44a.12.12,0,0,1-.07.12l-.17-.31,1.42-.5v-2.12h-1.34v-.24h1.34v-1.7l.36,0s0,.07-.12.08v1.59h1v.24h-1v2Zm2.55-1.65h1.91V518h-.24v-.5h-3.47v.56h-.24v-5.39h1.8v-2l.36,0s0,.07-.12.08Zm-.24.24h-1.56v2h1.56Zm-1.56,2.25v2.09h1.56v-2.09Zm3.47-2.25h-1.67v2h1.67Zm-1.67,4.35h1.67v-2.09h-1.67Z"/><path class="cls-1" d="M457.31,514.75l.36,0s0,.07-.12.08V518h-.24v-.53h-5.69v.56h-.24v-3.31l.36,0s0,.07-.12.08v2.4h2.67v-3.12h-2.61v-2.65l.36,0s0,.07-.12.08v2.3h2.37v-3.2l.36,0s0,.07-.12.08v3.09H457v-2.42l.36,0s0,.07-.12.08v2.54h-2.69v3.12h2.78Z"/><line class="cls-2" x1="240.41" y1="413.34" x2="258.59" y2="413.34"/><polyline class="cls-2" points="247.73 390.74 269.46 413.34 247.73 435.94"/><path class="cls-3" d="M501.07,352.8H293.69a7,7,0,0,0-7,7V482.89a7,7,0,0,0,7,7H375l-2,5.69h48.75l-2-5.69h81.32a7,7,0,0,0,7-7V359.8A7,7,0,0,0,501.07,352.8Z"/><rect class="cls-1" x="299.2" y="365.81" width="196.37" height="111.08"/><path class="cls-4" d="M381.94,429.78a16,16,0,0,1-3.29,4.77,14.47,14.47,0,0,1-4.77,3.11,16.36,16.36,0,0,1-6.22,1.12,15.67,15.67,0,0,1-6.66-1.4,15.43,15.43,0,0,1-5.2-3.88,18,18,0,0,1-3.39-5.92,22.29,22.29,0,0,1-1.22-7.52,25.47,25.47,0,0,1,.94-6.76,19.11,19.11,0,0,1,3-6.25,15.85,15.85,0,0,1,5.3-4.59,16.27,16.27,0,0,1,7.91-1.79,15.51,15.51,0,0,1,6.32,1.2,14.79,14.79,0,0,1,4.51,3,13,13,0,0,1,2.73,3.85,9.92,9.92,0,0,1,1,3.72h-1a9.83,9.83,0,0,0-1.17-3.9,12.12,12.12,0,0,0-2.78-3.44,14.11,14.11,0,0,0-4.18-2.47,16.34,16.34,0,0,0-13,.87,15.43,15.43,0,0,0-5,4.54,18.67,18.67,0,0,0-2.73,5.94,24,24,0,0,0-.84,6.07,21.92,21.92,0,0,0,1,6.68,17,17,0,0,0,3,5.66,15,15,0,0,0,4.87,3.93,14.14,14.14,0,0,0,6.55,1.48,15.27,15.27,0,0,0,5.87-1.07,13.57,13.57,0,0,0,4.49-3,15,15,0,0,0,3.06-4.49,20.2,20.2,0,0,0,1.58-5.61h1A21.65,21.65,0,0,1,381.94,429.78Z"/><path class="cls-4" d="M436.16,401.55V438h-1V402.83H435L419.58,438h-1.12L403,402.83h-.1V438h-1V401.55h1.68L419,436.64h.1l15.4-35.09Z"/><path class="cls-1" d="M278.11,34a12.34,12.34,0,0,0-2.79-4.16,12.49,12.49,0,0,0-4-2.56,16.69,16.69,0,0,0-4.58-1.13l-.34,0v-.84l.34,0a13.2,13.2,0,0,0,8.14-3.58c2.13-2.05,3.21-5,3.21-8.69a12.07,12.07,0,0,0-1.39-6A11.69,11.69,0,0,0,273,3,16.32,16.32,0,0,0,267.69.71,27.07,27.07,0,0,0,261.46,0a24.86,24.86,0,0,0-7.61,1.1,15.45,15.45,0,0,0-5.78,3.28,14.17,14.17,0,0,0-3.62,5.42,20,20,0,0,0-1.18,7.29h.85a19,19,0,0,1,1.11-6.88A13.47,13.47,0,0,1,248.73,5a14.76,14.76,0,0,1,5.54-3.12,23.89,23.89,0,0,1,7.19-1,26.43,26.43,0,0,1,5.68.61,15.17,15.17,0,0,1,5,2.05,11.67,11.67,0,0,1,3.64,3.76A11.43,11.43,0,0,1,277.27,13a11.82,11.82,0,0,1-1.33,5.83,11.06,11.06,0,0,1-3.48,3.81,14.33,14.33,0,0,1-4.8,2.05,23.68,23.68,0,0,1-5.32.61h-3.54v.85h3.54a28.39,28.39,0,0,1,6.3,1,15.28,15.28,0,0,1,5.08,2.46,11.15,11.15,0,0,1,3.39,4.22,14.53,14.53,0,0,1,1.2,6.16,13.64,13.64,0,0,1-1.44,6.37A14.37,14.37,0,0,1,273.05,51a16.41,16.41,0,0,1-5.48,2.83,22.15,22.15,0,0,1-6.43.94,25.16,25.16,0,0,1-7.88-1.18,16.18,16.18,0,0,1-6.06-3.48,14.39,14.39,0,0,1-3.7-5.71,18.53,18.53,0,0,1-.93-7.39h-.85a19.3,19.3,0,0,0,1,7.74,14.88,14.88,0,0,0,3.86,5.89,17.36,17.36,0,0,0,6.27,3.64,25.71,25.71,0,0,0,8.28,1.26,23.32,23.32,0,0,0,7-1,17.19,17.19,0,0,0,5.72-3,14.27,14.27,0,0,0,5.34-11.51A15.29,15.29,0,0,0,278.11,34Z"/><rect class="cls-3" x="1.56" y="352.8" width="221.38" height="137.09"/><rect class="cls-1" x="10.56" y="361.8" width="203.38" height="119.09" rx="8.5" ry="8.5"/><path class="cls-4" d="M52.75,390.59v1.25H47.24v2.4c0,1.29-.62,1.47-3.24,1.47a5,5,0,0,0-.55-1.25l1.45,0c.91,0,1,0,1-.28v-2.37H40.39v-1.25h5.47v-1.17l.44,0a12.4,12.4,0,0,0,1.75-1.28H43V387h6.37l.22-.07,1,.62a.43.43,0,0,1-.26.17A15.56,15.56,0,0,1,47.24,390v.55ZM42.08,385.7v2.18H40.79v-3.42h5v-1.67l1.72.11c0,.13-.11.19-.33.22v1.34h5.15v3.42H51V385.7Z"/><path class="cls-4" d="M68.22,385.12v9.47H66.8v-.73H58.45v-1.31H66.8v-6.12H58.59v-1.31Z"/><path class="cls-4" d="M75.41,384.25a16.94,16.94,0,0,1,4.06,1.83l-.72,1.24a18.82,18.82,0,0,0-4-1.9Zm-.26,9.42c4.75-1.46,8-4.19,9.6-8a9.25,9.25,0,0,0,1.27.8,15.87,15.87,0,0,1-9.66,8.29.45.45,0,0,1-.22.33Z"/><path class="cls-4" d="M102.72,388.92H98.23l.26.07a.29.29,0,0,1-.3.18A7.36,7.36,0,0,1,94,395.29a9.83,9.83,0,0,0-1-.94,6.16,6.16,0,0,0,3.79-5.43H91.61v-1.28h11.11Zm-1.38-3.86H92.87v-1.28h8.47Z"/><path class="cls-4" d="M119.49,389.07h-.08a.45.45,0,0,1-.23-.07c-1,.32-2.47.81-3.56,1.25,0,.3,0,.65,0,1s0,.79,0,1.24l-1.39.1a14.13,14.13,0,0,0,.06-1.83c-1.3.65-2.32,1.45-2.32,2.12s.85,1,2.58,1a30.36,30.36,0,0,0,3.44-.17v1.28c-.77.08-2,.11-3.47.11-2.65,0-3.9-.61-3.9-2.18,0-1.16,1.52-2.37,3.51-3.39-.07-.62-.34-1-.83-1-1,0-2,.52-3.14,1.85-.36.4-.88.94-1.49,1.5l-1-.94a16,16,0,0,0,1.82-1.79,9.48,9.48,0,0,0,1.52-3h-2.85V385c.81,0,1.79,0,2.37,0h.84c.12-.59.23-1.17.33-1.9l1.74.19c0,.14-.15.22-.33.25-.1.5-.21,1-.33,1.4a16.93,16.93,0,0,0,4.45-.79l.23,1.31a21,21,0,0,1-5,.7,7.88,7.88,0,0,1-.83,2h0a3.43,3.43,0,0,1,2.05-.77c.85,0,1.5.61,1.7,1.7,1.12-.5,2.48-1,3.54-1.42Z"/><path class="cls-4" d="M41.38,420.12A20.49,20.49,0,0,1,45,421.37l-.59,1.2a22.45,22.45,0,0,0-3.61-1.31ZM42,426.7c4.34-1.42,7.43-3.72,9.27-7.83a11.93,11.93,0,0,0,1.2.88,15.26,15.26,0,0,1-9.25,8,.33.33,0,0,1-.18.36Zm1-10a23.74,23.74,0,0,1,3.61,1.35l-.65,1.17a19.62,19.62,0,0,0-3.57-1.42Z"/><path class="cls-4" d="M66.87,417.73a.4.4,0,0,1-.23.19A21.4,21.4,0,0,1,64,422.57,52.4,52.4,0,0,1,68.8,427l-1.21,1a42.48,42.48,0,0,0-4.49-4.42A21.82,21.82,0,0,1,58,428.06,8.08,8.08,0,0,0,57,427a18.85,18.85,0,0,0,7.76-8.49H58.28v-1.31h7.23l.25-.08Z"/><path class="cls-4" d="M85,421.92H80.54l.26.07a.29.29,0,0,1-.3.18,7.36,7.36,0,0,1-4.19,6.12,9.83,9.83,0,0,0-1-.94,6.16,6.16,0,0,0,3.79-5.43H73.93v-1.28H85Zm-1.38-3.86H75.19v-1.28h8.47Z"/><path class="cls-4" d="M100.22,428q-.31-.74-.7-1.49c-2.94.33-7.18.62-9.26.73a.37.37,0,0,1-.28.29l-.48-1.67,1.43,0c.88-2.62,2.11-6.63,2.81-9.33l1.79.47c0,.15-.19.22-.41.23-.7,2.41-1.82,5.91-2.74,8.57,1.93-.08,4.86-.29,6.5-.45a24,24,0,0,0-2.16-3l1.16-.63a27.63,27.63,0,0,1,3.71,5.71Z"/><path class="cls-4" d="M109.73,416.89c0,.15-.17.23-.44.25a33.43,33.43,0,0,0-.72,6.12,15.53,15.53,0,0,0,.12,2.33c.22-.54.79-1.83,1-2.3l.7,1c-.51,1.17-1,1.94-1.16,2.58a2.3,2.3,0,0,0-.11.65,1.77,1.77,0,0,0,.07.47l-1.36.22a15.32,15.32,0,0,1-.62-4.84,43.22,43.22,0,0,1,.68-6.7Zm8.52,10.18c-.48,0-1,0-1.5,0a18.52,18.52,0,0,1-2.49-.14c-1.8-.25-2.59-1.23-2.59-2.37a4.33,4.33,0,0,1,1.24-2.7l1.29.47a3,3,0,0,0-1.1,2.05c0,1.28,1.72,1.36,3.31,1.36a17.1,17.1,0,0,0,1.89-.1Zm-6.34-8.67a46.37,46.37,0,0,0,5.91-.52l.14,1.35a47.57,47.57,0,0,1-6,.5Z"/><path class="cls-4" d="M46.08,449.64h1.34c0,2.55.33,7.76,5.68,10.93a6.26,6.26,0,0,0-1,1.12,12,12,0,0,1-5.39-7.4c-1,3.35-2.74,5.91-5.44,7.44a7.64,7.64,0,0,0-1.07-1c2.91-1.49,4.63-4.37,5.46-8.2l.72.17c-.1-.61-.15-1.17-.19-1.7H42.79v-1.32h3.29Z"/><path class="cls-4" d="M68.88,451.81h.63l.76.07c0,.11,0,.3,0,.44-.19,5.91-.39,8-.94,8.65s-.92.7-2.16.7l-1.32,0a3.05,3.05,0,0,0-.47-1.38c.92.07,1.76.07,2.12.07a.73.73,0,0,0,.61-.21c.41-.43.61-2.33.77-7H64.43a10.16,10.16,0,0,1-5.15,8.67,5.68,5.68,0,0,0-1-1,9.07,9.07,0,0,0,4.79-7.62H58.69v-1.32h4.42v-2.95l1.71.1c0,.11-.1.21-.33.23v2.62Z"/><path class="cls-4" d="M84.06,448.78h1.2v15.64h-1.2Z"/><line class="cls-5" x1="25.54" y1="404.8" x2="201.32" y2="404.8"/><line class="cls-5" x1="25.54" y1="439.88" x2="201.32" y2="439.88"/></g></g></svg>