<svg xmlns="http://www.w3.org/2000/svg" viewBox="0 0 327.99 187.14"><defs><style>.cls-1{fill:#fff;}</style></defs><title>project1_title</title><g id="Layer_2" data-name="Layer 2"><g id="レイヤー_1" data-name="レイヤー 1"><path class="cls-1" d="M17.23,108.29h-8v23.1H8.07v-23.1H0v-1H17.23Z"/><path class="cls-1" d="M43.22,107.31l-9,24.09h-1l-8-24.09h1.24l4.47,13.37c1.21,3.61,2.2,6.57,2.9,9.22h.06c.73-2.68,1.85-5.77,3.16-9.22l5-13.37Z"/><path class="cls-1" d="M67.93,130.5a15.45,15.45,0,0,1-6.57,1.24c-5.52,0-11.2-3.48-11.2-12.28,0-7,4.31-12.54,12.09-12.54A12.12,12.12,0,0,1,67.77,108l-.45.92a10.86,10.86,0,0,0-5-1.08c-6.83,0-11,4.56-11,11.74,0,6.8,3.92,11.26,10.59,11.26a12.54,12.54,0,0,0,5.55-1.18Z"/><path class="cls-1" d="M100.6,131.4H99.49l-.73-11.74c-.29-4.21-.57-8.39-.54-10.79h-.1c-.89,2.52-1.85,5.2-3.32,8.9L89.4,131.46h-.73L83.6,118.12c-1.47-3.92-2.49-6.67-3.22-9.25h-.1c-.06,2.78-.26,7-.57,11.14l-.8,11.39H77.76l1.76-24.09h1.18l5.62,14.77c1.15,3.13,2,5.42,2.74,7.66h.06c.64-2.14,1.5-4.21,2.78-7.53l5.81-14.9H99Z"/><path class="cls-1" d="M110.15,118.5c5.68-3.48,11.36-9.19,14-14l1.72.13c-.06.22-.29.29-.54.35a48.45,48.45,0,0,0,14.2,13.18,4,4,0,0,0-.64.8c-5.17-3.16-11.13-8.55-14.23-13.3-2.62,4.43-8.17,10.05-13.88,13.59Zm15.28,3.77V132H138.7v1H111v-1h4.72V119.17l1.44.13c0,.16-.16.29-.48.32V132h7.82V113l1.44.13c0,.16-.16.29-.48.32v7.82h10.11v1Z"/><path class="cls-1" d="M148.67,106.92H177v1H163.18v4.66h7.47V127H154.79V112.54h7.43v-4.66H148.67Zm26.48,23.9V112.25l1.44.13c0,.16-.16.29-.48.32v21.12h-1v-2h-24.5v2.17h-1v-21.7l1.44.13c0,.16-.16.29-.48.32v18.12Zm-19.4-17.33v5.74h6.48V113.5Zm0,6.7V126h6.48V120.2Zm13.94-1V113.5h-6.51v5.74Zm0,6.76V120.2h-6.51V126Z"/><path class="cls-1" d="M189.8,127.22l9.67-2,.1.86c-3.38.77-6.92,1.53-9.76,2.17V134h-1V128.4l-1.75.38a.45.45,0,0,1-.32.41l-.57-1.24,2.65-.54V107.27l1.15.45a41.37,41.37,0,0,0,8.33-3.09l1.15.83a.45.45,0,0,1-.29.1.61.61,0,0,1-.22,0,55.25,55.25,0,0,1-9.16,3.13v5h8.49v1H189.8v5.26h8.78v1H189.8ZM213.13,119l.7.38a.56.56,0,0,1-.25.22,20.87,20.87,0,0,1-5.78,8.84,19.77,19.77,0,0,0,8,4.63,5,5,0,0,0-.64.8,20.88,20.88,0,0,1-8-4.82,26.67,26.67,0,0,1-9,4.88,3.66,3.66,0,0,0-.61-.83,25.2,25.2,0,0,0,8.93-4.72,22,22,0,0,1-4.75-8l.86-.29a20.74,20.74,0,0,0,4.56,7.66,19.83,19.83,0,0,0,5.26-7.75H200.14v-1h12.79Zm-10-12v4a8.94,8.94,0,0,1-3.41,7.59,2.12,2.12,0,0,0-.67-.73,7.79,7.79,0,0,0,3.13-6.86v-4.91H211v8.33c0,1.28.1,1.34,1,1.34h1.34c1.47,0,1.47-.16,1.56-3.83a2,2,0,0,0,.83.38c-.1,3.57-.1,4.31-2.26,4.31h-1.53c-1.88,0-1.88-.7-1.88-2.52v-7.05Z"/><path class="cls-1" d="M232.91,106l.19-.06.7.51c0,.1-.16.16-.26.19-.83,2.3-2,5.46-3.16,8.17,2.46,2.78,3.35,5.2,3.35,7.34,0,4.12-2.23,4-4.59,3.89a2.13,2.13,0,0,0-.38-1,12.17,12.17,0,0,0,1.47.1c1.28,0,2.55,0,2.55-3,0-2-.89-4.34-3.48-7.21,1.18-2.74,2.26-5.68,3.06-8h-5.55v27h-1V106Zm4.43,10.46c2-.48,4.21-1.05,6.45-1.6l.1.83c-3.29.86-6.73,1.75-8.87,2.3a.54.54,0,0,1-.29.45l-.7-1.21,2.36-.54V104.94l1.44.13c0,.16-.16.29-.48.32v4.12h6.06v1h-6.06Zm4.53,4.37a32.19,32.19,0,0,0,1.44-3.57l1.34.45c-.06.16-.26.26-.57.26-.29.8-.77,1.91-1.21,2.87h8.84v13h-1v-1.34H237.85v1.47h-1V120.87Zm8.87,5.23v-4.28H237.85v4.28Zm-12.89,5.42h12.89v-4.47H237.85Zm7.91-15.63c0,.73.19.89,1.4.89h4.53c1,0,1.18-.42,1.25-3.38a2.61,2.61,0,0,0,1,.45c-.13,3.13-.45,3.89-2.11,3.89H247.2c-1.88,0-2.39-.29-2.39-1.85V104.94l1.44.13c0,.16-.16.29-.48.32v5.3a30.06,30.06,0,0,0,6.29-3.29l1.12.8a.29.29,0,0,1-.22.1.71.71,0,0,1-.26,0,37.09,37.09,0,0,1-6.92,3.32Z"/><path class="cls-1" d="M263.46,109.19c2.52-.1,22.27-1.69,26.16-1.56v1.08c-.45,0-.89-.06-1.34-.06a9.58,9.58,0,0,0-5.07,1.4c-5.65,3.25-10.5,8.9-10.5,13.34,0,5,3.06,8.07,11.62,9.32l-.42,1c-9.06-1.44-12.28-4.53-12.28-10.31,0-4.91,5-10.69,11.58-14.55-3.19.19-14,1-19,1.4a1,1,0,0,1-.64.48Zm20.23,5.39a24.87,24.87,0,0,1,4.63,4.5l-.73.61a22.28,22.28,0,0,0-4.53-4.47Zm3.19-2.78a23,23,0,0,1,4.63,4.5l-.73.61a23.22,23.22,0,0,0-4.53-4.47Z"/><path class="cls-1" d="M315.74,109.22a.65.65,0,0,1-.7.48c-1,9.25-4.44,19.53-9.57,19.53-2.14,0-4.5-2.55-4.5-7.27a13.88,13.88,0,0,1,14.17-14c9.35,0,12.86,6.22,12.86,11.93,0,7.66-4.72,11.17-12.22,12.76-.1-.19-.41-.7-.54-1,7.4-1.4,11.74-5,11.74-11.74,0-5.33-3.22-11-11.8-11h-.51Zm-1.66-.29a13,13,0,0,0-12.16,13c0,3.92,1.91,6.22,3.54,6.22C309.84,128.17,313.09,118.57,314.08,108.93Z"/><path class="cls-1" d="M25,183.5a15.45,15.45,0,0,1-6.57,1.24c-5.52,0-11.2-3.48-11.2-12.28,0-7,4.31-12.54,12.09-12.54A12.12,12.12,0,0,1,24.8,161l-.45.92a10.86,10.86,0,0,0-5-1.08c-6.83,0-11,4.56-11,11.74,0,6.8,3.92,11.26,10.59,11.26a12.55,12.55,0,0,0,5.55-1.18Z"/><path class="cls-1" d="M57.64,184.4H56.52l-.73-11.74c-.29-4.21-.57-8.39-.54-10.79h-.1c-.89,2.52-1.85,5.2-3.32,8.9l-5.39,13.69h-.73l-5.07-13.34c-1.47-3.92-2.49-6.67-3.22-9.25h-.1c-.06,2.78-.25,7-.57,11.14l-.8,11.39H34.79l1.75-24.09h1.18l5.62,14.77c1.15,3.13,2,5.42,2.74,7.66h.06c.64-2.14,1.5-4.21,2.78-7.53l5.81-14.9H56Z"/><path class="cls-1" d="M78.32,164.52l.64.22a.7.7,0,0,1-.16.25,40.56,40.56,0,0,1-3.35,13.94,25.13,25.13,0,0,1,4,3.54l-.61.8a24.45,24.45,0,0,0-3.8-3.45A17.24,17.24,0,0,1,68.37,187a4.14,4.14,0,0,0-.7-.83,16.26,16.26,0,0,0,6.54-6.92,41,41,0,0,0-5-3.16l-.45,1.63-.89-.48c.86-2.9,2-7.34,3-11.68h-3.7v-1h3.93c.57-2.49,1.12-4.91,1.53-7l1.44.22c0,.19-.19.29-.51.29-.41,1.88-.92,4.12-1.47,6.45h6Zm-6.41,1c-.8,3.35-1.66,6.8-2.43,9.64a48.58,48.58,0,0,1,5.17,3.16,37.68,37.68,0,0,0,3.13-12.79ZM96.57,172v1H88.4v12.22c0,1-.29,1.37-1.08,1.56a29.35,29.35,0,0,1-5.2.16,6.13,6.13,0,0,0-.41-1c1.44,0,2.71.06,3.64.06,2,0,2.11,0,2.11-.77V173H78.9v-1h8.55v-5.78l.89.1a31,31,0,0,0,6-6.09h-14v-1H95.11l.22-.06.8.54a.67.67,0,0,1-.32.19,35.39,35.39,0,0,1-7.4,7.4V172Z"/><path class="cls-1" d="M109,162.16V166c0,3.57-.54,8.52-3.41,12.16a2,2,0,0,0-.73-.64c2.74-3.51,3.19-8.14,3.19-11.52V161.2h13.21a28,28,0,0,1-.45-3.61l1.56.06c0,.22-.19.32-.51.35.06,1.05.19,2.14.35,3.19h11.9v1H122.43a32.07,32.07,0,0,0,3.29,8.81,26.43,26.43,0,0,0,3.54-6.48l1.37.41c-.06.19-.29.29-.61.29a26.36,26.36,0,0,1-3.8,6.67c1.88,3,4,5,5.84,5,1,0,1.31-1.18,1.5-4.34a2.68,2.68,0,0,0,.89.48c-.26,3.64-.83,4.85-2.39,4.85-2.14,0-4.47-2-6.45-5.2a24.37,24.37,0,0,1-5.68,4.95,3.63,3.63,0,0,0-.73-.64,22.73,22.73,0,0,0,5.87-5.14,33.24,33.24,0,0,1-3.61-9.64Zm1.53,17.23c-.67,2.78-1.88,5.26-4.79,6.51l-.73-.57a8.1,8.1,0,0,0,4.66-6.16Zm-.22-13.56v-1h10.34v1Zm9.32,8.81h-7.37v1.31h-1v-7.63h8.33Zm-1-5.36h-6.41v4.4h6.41Zm-4.15,15.32c0,.73.32.89,2.23.89H124c1.56,0,1.79-.42,1.91-3.73a3.13,3.13,0,0,0,1,.42c-.16,3.51-.57,4.28-2.81,4.28h-7.21c-2.58,0-3.29-.26-3.29-1.88V179.1l1.44.13c0,.16-.16.29-.48.32Zm7.21-3.19a21,21,0,0,0-6.16-3.89l.64-.67a19.87,19.87,0,0,1,6.19,3.8Zm4.44-23.87a15.78,15.78,0,0,1,4.82,2.33l-.57.83a16.19,16.19,0,0,0-4.82-2.43Zm7.4,28.27a22.6,22.6,0,0,0-6.22-6.25l.73-.54a22.27,22.27,0,0,1,6.25,6.22Z"/><path class="cls-1" d="M172.9,162.09H147.35v8.65c0,4.82-.35,11.58-3,16.4a2.82,2.82,0,0,0-.8-.58c2.62-4.69,2.87-11.13,2.87-15.83v-9.6H158.8v-3.51l1.44.13c0,.16-.16.29-.48.32v3.06H172.9Zm-4.21,14.07.7.42a.81.81,0,0,1-.26.22,16.84,16.84,0,0,1-7.28,6.41,38.63,38.63,0,0,0,11.26,2.9,3.13,3.13,0,0,0-.57.86,40,40,0,0,1-11.71-3.29,43.08,43.08,0,0,1-12.25,3.22,3.26,3.26,0,0,0-.48-.86,42.22,42.22,0,0,0,11.74-2.87,17.09,17.09,0,0,1-6.48-5.55l.83-.38a16.32,16.32,0,0,0,6.64,5.49,16.29,16.29,0,0,0,6.89-5.55H149.29v-1h19.18Zm-2.33-2.87H154.78v-5.62H149v-1h5.81v-3.35l1.44.13c0,.16-.16.29-.48.32v2.9h9.67v-3.35l1.44.13c0,.16-.16.29-.48.32v2.9h6.32v1h-6.32Zm-1-5.62h-9.67v4.66h9.67Z"/><path class="cls-1" d="M211.26,176.83v1h-3.41v5.87h-1v-1.53h-9.76v3c0,1.12-.38,1.5-1.15,1.69a30.87,30.87,0,0,1-5.14.19,5.52,5.52,0,0,0-.42-1.05c1,0,1.95,0,2.71,0,3,0,3,0,3-.83v-3.06H184.93v-1h11.23v-3.38H182.38v-1h13.78v-3.16H185.28v-1h10.88V170h-9.83V164.2h9.83v-2.55h-13.3v-1h13.3v-3.1l1.44.13c0,.19-.16.29-.48.32v2.65h13.59v1H197.12v2.55h10.3V170h-10.3v2.74h10.72v4.12Zm-24-7.82h8.87v-3.86h-8.87Zm19.18-3.86h-9.35V169h9.35Zm-9.35,8.52v3.16h9.76v-3.16Zm9.76,7.5v-3.38h-9.76v3.38Z"/><path class="cls-1" d="M220.12,163.27h28.59v1H220.12Zm12.35,4.53v0h.45v17.42c0,.83-.22,1.21-.89,1.4a23.74,23.74,0,0,1-4.47.19,4.91,4.91,0,0,0-.41-1c.86,0,1.66,0,2.33,0,.92,0,1.59,0,1.88,0,.48,0,.61-.16.61-.61v-5.74h-8.58V187h-1V167.8Zm-.51,1h-8.58v4.37H232Zm-8.58,9.79H232v-4.47h-8.58Zm2.87-20.9a26.72,26.72,0,0,1,4,4.63l-.8.48a26.86,26.86,0,0,0-4-4.69Zm11.1,23.8V168.09l1.44.13c0,.16-.16.29-.48.32v12.92Zm1.44-19a36.47,36.47,0,0,0,3.73-4.95l1.31.54c-.1.16-.29.22-.57.22a42.8,42.8,0,0,1-3.67,4.59Zm7.34,22.88c0,1-.29,1.31-1,1.5a28.24,28.24,0,0,1-4.91.19,4.37,4.37,0,0,0-.42-1c1,0,1.88,0,2.62,0,2.71,0,2.78,0,2.78-.7V167l1.44.13c0,.16-.16.29-.48.32Z"/><path class="cls-1" d="M285.25,169.75l.7.26a.44.44,0,0,1-.22.25,50.54,50.54,0,0,1-7.4,7.56l-.73-.51a44.07,44.07,0,0,0,6.57-6.57H271.91v0h.35c0,.16-.16.25-.48.32v14.26c0,.92-.29,1.31-1.09,1.5s-1.5.16-5.42.16a4.7,4.7,0,0,0-.41-1c1.31,0,2.46,0,3.35,0,2.55,0,2.62,0,2.62-.73V170.74H257.2v-1h18.6a50.9,50.9,0,0,0-11.26-5.84l.67-.8a57,57,0,0,1,6.89,3.06,40.84,40.84,0,0,0,8.11-5.65h-20v-1h20.77a1.09,1.09,0,0,0,.54-.1l.89.67a.45.45,0,0,1-.35.16,49.75,49.75,0,0,1-8.9,6.45,28.19,28.19,0,0,1,3.92,2.49l-.38.51H285Z"/><path class="cls-1" d="M300.13,170.83a24.6,24.6,0,0,0-5.58-3.32l.54-.7a21.23,21.23,0,0,1,5.58,3.19Zm-4.82,15a100.29,100.29,0,0,0,4.82-10.34l.73.57a98.5,98.5,0,0,1-4.5,9.89.68.68,0,0,1,.13.38.77.77,0,0,1-.06.26Zm6-23.48a22.73,22.73,0,0,0-5.17-3.7l.61-.67a22.49,22.49,0,0,1,5.17,3.57Zm5.26,18.12a.59.59,0,0,1-.57.25,21.49,21.49,0,0,1-4.91,6.29,4.9,4.9,0,0,0-.73-.67,19.1,19.1,0,0,0,4.82-6.35Zm-3.22-21.28h9.09V179h-9.09Zm1,1v5.3h7.18v-5.3Zm0,6.25v5.3h7.18v-5.3Zm0,6.25v5.39h7.18v-5.39Zm9.09,13a39.14,39.14,0,0,0-4-5.2l.77-.45a40.11,40.11,0,0,1,4,5.07ZM315.7,161l1.44.13c0,.16-.16.29-.48.32v18h-1Zm6-3.38,1.44.13c0,.19-.16.29-.48.32v27.15c0,1-.38,1.37-1.08,1.56a26.31,26.31,0,0,1-4.85.19,8.13,8.13,0,0,0-.41-1c1,0,1.82,0,2.55,0,2.65,0,2.84,0,2.84-.8Z"/><path class="cls-1" d="M170.75,1.49l.11-.16h.73V53.65h.85V0h-1.22c-1.09,1.24-2.15,2.36-3.15,3.33a28.27,28.27,0,0,1-3.28,2.76,27.28,27.28,0,0,1-3.65,2.19,31.4,31.4,0,0,1-4.19,1.7v.83a29.59,29.59,0,0,0,7.46-3.46A22.87,22.87,0,0,0,170.75,1.49Z"/></g></g></svg>