<svg xmlns="http://www.w3.org/2000/svg" viewBox="0 0 57.68 53.05"><defs><style>.cls-1{fill:#fff;}</style></defs><title>project3_title_small</title><g id="Layer_2" data-name="Layer 2"><g id="レイヤー_1" data-name="レイヤー 1"><path class="cls-1" d="M1.9,48.8V47A5.52,5.52,0,0,1,.19,48.72,1.3,1.3,0,0,0,0,48.52a4.87,4.87,0,0,0,1.75-1.71H.12v-.27H1.9v-1.8l.41,0s0,.08-.13.09v1.67H3.93v.27H2.17V47c.37.23,1.5,1,1.76,1.21l-.18.23A18.25,18.25,0,0,0,2.17,47.3v1.5Zm.26,1.45a3,3,0,0,1-.07.56c.58.42,1.3,1,1.68,1.34l-.22.19A19.41,19.41,0,0,0,2,51.06,3.08,3.08,0,0,1,.19,52.8,1.33,1.33,0,0,0,0,52.58c1.52-.69,1.82-1.54,1.86-2.33H.12V50H1.9V49l.41,0s0,.08-.13.09V50H4v.27ZM.62,45.06a3.79,3.79,0,0,1,.6,1.06L1,46.25a4.22,4.22,0,0,0-.59-1.09Zm2.2,1.1A8.12,8.12,0,0,0,3.44,45l.37.17a.17.17,0,0,1-.15.06,10.1,10.1,0,0,1-.61,1Zm2.75,5.65a.23.23,0,0,1-.17.07A5.62,5.62,0,0,1,3.56,53a1.17,1.17,0,0,0-.21-.22A5.16,5.16,0,0,0,5.2,51.69ZM4.31,46.63h1.3c.1-.33.22-.78.3-1.13H4v-.27H8.31v.27H6.19c-.07.31-.19.77-.3,1.13H8v4.71H4.31ZM7.71,48.1V46.9H4.58v1.2Zm0,1.48V48.37H4.58v1.21Zm0,1.49V49.85H4.58v1.22Zm-.86.63a9.79,9.79,0,0,1,1.62,1.14L8.24,53a9.57,9.57,0,0,0-1.61-1.16Z"/><path class="cls-1" d="M12.11,47.4a12.27,12.27,0,0,1-1.24,1.86,1.83,1.83,0,0,0-.18-.21A12.94,12.94,0,0,0,13,44.8l.39.12c0,.05-.08.08-.17.08a15.47,15.47,0,0,1-.78,1.88l.14,0s0,.07-.14.08v6h-.27ZM14.23,51l2.27-.82,0,.23c-1.16.45-2.38.91-3.16,1.19a.13.13,0,0,1-.08.13l-.2-.35.86-.29-.06-5.85.41,0s0,.08-.13.09Zm4.64-5.84c0,.05-.05.09-.15.09a12.53,12.53,0,0,1-1.08,5.29c.65.76,1.4,1.72,1.77,2.28l-.21.2c-.37-.57-1.08-1.5-1.7-2.25A5.43,5.43,0,0,1,14.17,53a1.27,1.27,0,0,0-.17-.23c3.53-1,4.21-3.21,4.44-7.73Zm-3.39.8a10.08,10.08,0,0,1,1.43,2.17l-.23.15a10.61,10.61,0,0,0-1.42-2.2Z"/><path class="cls-1" d="M26.57,52a4.36,4.36,0,0,1-1.85.35c-1.56,0-3.16-1-3.16-3.47A3.28,3.28,0,0,1,25,45.37a3.41,3.41,0,0,1,1.56.3l-.13.26a3.07,3.07,0,0,0-1.4-.31,3,3,0,0,0-3.11,3.31,2.87,2.87,0,0,0,3,3.18,3.54,3.54,0,0,0,1.57-.33Z"/><path class="cls-1" d="M35.79,52.28h-.31L35.27,49c-.08-1.19-.16-2.37-.15-3h0c-.25.71-.52,1.47-.94,2.51L32.63,52.3h-.21L31,48.53c-.41-1.11-.7-1.88-.91-2.61h0c0,.78-.07,2-.16,3.14l-.22,3.21h-.32l.5-6.8h.33l1.58,4.17c.32.88.57,1.53.77,2.16h0c.18-.6.42-1.19.78-2.12L35,45.48h.36Z"/><path class="cls-1" d="M40.42,48c.28.32,1,1.37,1.2,1.63l-.2.23c-.16-.29-.67-1.06-1-1.51V53h-.27V47.82a11.75,11.75,0,0,1-1.44,3.33,1.15,1.15,0,0,0-.21-.22A11.86,11.86,0,0,0,40.09,47h-1.4v-.27h1.46V44.72l.41,0s0,.08-.13.09v1.93h1.15V47A6.71,6.71,0,0,0,44,44.73l.46,0s-.05.07-.11.09A7.85,7.85,0,0,0,47,47a1.23,1.23,0,0,0-.17.23A8.67,8.67,0,0,1,44.18,45a7.81,7.81,0,0,1-2.6,2.31,1.22,1.22,0,0,0-.17-.21l.15-.08H40.42Zm6,2.53h-2A3.7,3.7,0,0,0,47,52.79a.75.75,0,0,0-.18.26,4,4,0,0,1-2.63-2.53c-.22,1-.9,1.87-2.78,2.51a.81.81,0,0,0-.18-.22c1.8-.59,2.47-1.41,2.68-2.29h-2v-2.2H44V47.22H42.36v-.27H46v.27H44.28v1.11h2.18Zm-4.3-.27H44a4,4,0,0,0,0-.66v-1H42.15Zm4-1.66H44.28v1a3.91,3.91,0,0,1,0,.65h2Z"/><path class="cls-1" d="M52.37,51.24s-.08.06-.17.05a10,10,0,0,1-2.35,1.57,2.38,2.38,0,0,0-.22-.18A8.75,8.75,0,0,0,52,51.08Zm2.7-2.06a14.76,14.76,0,0,1,2.49,1.71l-.2.21a8.33,8.33,0,0,0-.67-.56l-2.85.08V53h-.27V50.62L50,50.7a.13.13,0,0,1-.12.11l-.13-.4,2,0c.27-.16.55-.34.85-.54a11.35,11.35,0,0,0-1.89-1.18l.2-.17.57.3a13.12,13.12,0,0,0,1.58-1.37H50.15V48.8h-.27V47.17h3.69V45.9H49.86v-.27h3.72V44.7l.41,0s0,.08-.14.09v.8h3.72v.27H53.84v1.27H57.6V48.8h-.27V47.44H53.25l.26.13a.19.19,0,0,1-.16.05,14.85,14.85,0,0,1-1.58,1.31,10.48,10.48,0,0,1,1.12.75A21.1,21.1,0,0,0,55.11,48l.36.2a.19.19,0,0,1-.17,0,28.8,28.8,0,0,1-3,2.17l4.06-.08a15.08,15.08,0,0,0-1.49-1Zm2.38,3.66a10.18,10.18,0,0,0-2.36-1.55l.22-.17a10.22,10.22,0,0,1,2.38,1.52Z"/><path class="cls-1" d="M39.62,17.47a6.38,6.38,0,0,0-1.45-2.15A6.46,6.46,0,0,0,36.13,14a8.61,8.61,0,0,0-2.36-.59h-.11v-.31h.11A6.83,6.83,0,0,0,38,11.22a6,6,0,0,0,1.66-4.5,6.25,6.25,0,0,0-.72-3.1A6,6,0,0,0,37,1.54,8.45,8.45,0,0,0,34.24.37,14,14,0,0,0,31,0a12.8,12.8,0,0,0-3.92.57,8,8,0,0,0-3,1.69,7.34,7.34,0,0,0-1.87,2.8,10.39,10.39,0,0,0-.61,3.83h.57a9.74,9.74,0,0,1,.56-3.57,6.82,6.82,0,0,1,1.78-2.65,7.48,7.48,0,0,1,2.81-1.58A12.18,12.18,0,0,1,31,.57a13.5,13.5,0,0,1,2.9.31,7.72,7.72,0,0,1,2.54,1,5.92,5.92,0,0,1,1.84,1.91,5.79,5.79,0,0,1,.76,2.89,6,6,0,0,1-.67,3,5.61,5.61,0,0,1-1.76,1.93,7.27,7.27,0,0,1-2.44,1,12.07,12.07,0,0,1-2.71.31H29.59v.57h1.88a14.46,14.46,0,0,1,3.21.5,7.75,7.75,0,0,1,2.58,1.25A5.64,5.64,0,0,1,39,17.41a7.38,7.38,0,0,1,.61,3.13,6.91,6.91,0,0,1-.73,3.24,7.29,7.29,0,0,1-1.94,2.36,8.34,8.34,0,0,1-2.79,1.44,11.29,11.29,0,0,1-3.28.48,12.82,12.82,0,0,1-4-.6,8.22,8.22,0,0,1-3.08-1.77,7.29,7.29,0,0,1-1.88-2.9,9.46,9.46,0,0,1-.47-3.83h-.57A10,10,0,0,0,21.37,23a7.71,7.71,0,0,0,2,3,9,9,0,0,0,3.24,1.88,13.25,13.25,0,0,0,4.26.65A12,12,0,0,0,34.46,28a8.87,8.87,0,0,0,3-1.56,7.37,7.37,0,0,0,2.76-6A7.9,7.9,0,0,0,39.62,17.47Z"/></g></g></svg>