<svg xmlns="http://www.w3.org/2000/svg" viewBox="0 0 507.51 143.78"><defs><style>.cls-1,.cls-2,.cls-5{fill:none;stroke-miterlimit:10;}.cls-1,.cls-2{stroke:#fff;}.cls-1{stroke-width:0.5px;}.cls-3{fill:#fff;}.cls-4{fill:#231f20;}.cls-5{stroke:#231f20;}</style></defs><title>project3_graph_1</title><g id="Layer_2" data-name="Layer 2"><g id="レイヤー_1" data-name="レイヤー 1"><line class="cls-1" x1="239.35" y1="61.04" x2="257.53" y2="61.04"/><polyline class="cls-1" points="246.67 38.44 268.4 61.05 246.67 83.65"/><path class="cls-2" d="M500,.5H292.63a7,7,0,0,0-7,7V130.59a7,7,0,0,0,7,7h81.32l-2,5.69h48.75l-2-5.69H500a7,7,0,0,0,7-7V7.5A7,7,0,0,0,500,.5Z"/><rect class="cls-3" x="298.14" y="13.51" width="196.37" height="111.08"/><path class="cls-4" d="M380.88,77.48a16,16,0,0,1-3.29,4.77,14.47,14.47,0,0,1-4.77,3.11,16.36,16.36,0,0,1-6.22,1.12,15.67,15.67,0,0,1-6.66-1.4,15.43,15.43,0,0,1-5.2-3.88,18,18,0,0,1-3.39-5.92,22.29,22.29,0,0,1-1.22-7.52,25.47,25.47,0,0,1,.94-6.76,19.11,19.11,0,0,1,3-6.25,15.85,15.85,0,0,1,5.3-4.59,16.27,16.27,0,0,1,7.91-1.79,15.51,15.51,0,0,1,6.32,1.2,14.79,14.79,0,0,1,4.51,3,13,13,0,0,1,2.73,3.85,9.92,9.92,0,0,1,1,3.72h-1a9.83,9.83,0,0,0-1.17-3.9,12.12,12.12,0,0,0-2.78-3.44,14.11,14.11,0,0,0-4.18-2.47,16.34,16.34,0,0,0-13,.87,15.43,15.43,0,0,0-5,4.54A18.67,18.67,0,0,0,352,61.7a24,24,0,0,0-.84,6.07,21.92,21.92,0,0,0,1,6.68,17,17,0,0,0,3,5.66A15,15,0,0,0,360,84a14.14,14.14,0,0,0,6.55,1.48,15.27,15.27,0,0,0,5.87-1.07,13.57,13.57,0,0,0,4.49-3A15,15,0,0,0,380,77a20.2,20.2,0,0,0,1.58-5.61h1A21.65,21.65,0,0,1,380.88,77.48Z"/><path class="cls-4" d="M435.1,49.25V85.67h-1V50.53H434L418.52,85.67H417.4L401.95,50.53h-.1V85.67h-1V49.25h1.68l15.4,35.09h.1l15.4-35.09Z"/><rect class="cls-2" x="0.5" y="0.5" width="221.38" height="137.09"/><rect class="cls-3" x="9.5" y="9.5" width="203.38" height="119.09" rx="8.5" ry="8.5"/><path class="cls-4" d="M51.69,38.29v1.25H46.18v2.4c0,1.29-.62,1.47-3.24,1.47a5,5,0,0,0-.55-1.25l1.45,0c.91,0,1,0,1-.28V39.54H39.33V38.29H44.8V37.12l.44,0A12.4,12.4,0,0,0,47,35.86h-5v-1.2h6.37l.22-.07,1,.62a.43.43,0,0,1-.26.17,15.56,15.56,0,0,1-3.11,2.36v.55ZM41,33.4v2.18H39.73V32.16h5V30.49l1.72.11c0,.13-.11.19-.33.22v1.34h5.15v3.42H50V33.4Z"/><path class="cls-4" d="M67.16,32.82v9.47H65.74v-.73H57.39V40.24h8.35V34.13H57.53V32.82Z"/><path class="cls-4" d="M74.35,32a16.94,16.94,0,0,1,4.06,1.83L77.7,35a18.82,18.82,0,0,0-4-1.9Zm-.26,9.42c4.75-1.46,8-4.19,9.6-8a9.25,9.25,0,0,0,1.27.8,15.87,15.87,0,0,1-9.66,8.29.45.45,0,0,1-.22.33Z"/><path class="cls-4" d="M101.66,36.62H97.17l.26.07a.29.29,0,0,1-.3.18A7.36,7.36,0,0,1,92.94,43a9.83,9.83,0,0,0-1-.94,6.16,6.16,0,0,0,3.79-5.43H90.55V35.34h11.11Zm-1.38-3.86H91.81V31.48h8.47Z"/><path class="cls-4" d="M118.43,36.77h-.08a.45.45,0,0,1-.23-.07c-1,.32-2.47.81-3.56,1.25,0,.3,0,.65,0,1s0,.79,0,1.24l-1.39.1a14.13,14.13,0,0,0,.06-1.83c-1.3.65-2.32,1.45-2.32,2.12s.85,1,2.58,1a30.36,30.36,0,0,0,3.44-.17v1.28c-.77.08-2,.11-3.47.11-2.65,0-3.9-.61-3.9-2.18,0-1.16,1.52-2.37,3.51-3.39-.07-.62-.34-1-.83-1-1,0-2,.52-3.14,1.85-.36.4-.88.94-1.49,1.5l-1-.94a16,16,0,0,0,1.82-1.79,9.48,9.48,0,0,0,1.52-3h-2.85V32.69c.81,0,1.79,0,2.37,0h.84c.12-.59.23-1.17.33-1.9l1.74.19c0,.14-.15.22-.33.25-.1.5-.21,1-.33,1.4a16.93,16.93,0,0,0,4.45-.79l.23,1.31a21,21,0,0,1-5,.7,7.88,7.88,0,0,1-.83,2h0a3.43,3.43,0,0,1,2.05-.77c.85,0,1.5.61,1.7,1.7,1.12-.5,2.48-1,3.54-1.42Z"/><path class="cls-4" d="M40.32,67.82a20.49,20.49,0,0,1,3.62,1.25l-.59,1.2A22.45,22.45,0,0,0,39.74,69Zm.61,6.59c4.34-1.42,7.43-3.72,9.27-7.83a11.93,11.93,0,0,0,1.2.88,15.26,15.26,0,0,1-9.25,8,.33.33,0,0,1-.18.36Zm1-10a23.74,23.74,0,0,1,3.61,1.35l-.65,1.17a19.62,19.62,0,0,0-3.57-1.42Z"/><path class="cls-4" d="M65.81,65.43a.4.4,0,0,1-.23.19,21.4,21.4,0,0,1-2.66,4.64,52.4,52.4,0,0,1,4.82,4.45l-1.21,1A42.48,42.48,0,0,0,62,71.34a21.82,21.82,0,0,1-5.08,4.42,8.08,8.08,0,0,0-1-1.06,18.85,18.85,0,0,0,7.76-8.49H57.22V64.91h7.23l.25-.08Z"/><path class="cls-4" d="M84,69.62H79.48l.26.07a.29.29,0,0,1-.3.18A7.36,7.36,0,0,1,75.25,76a9.83,9.83,0,0,0-1-.94A6.16,6.16,0,0,0,78,69.62H72.87V68.34H84ZM82.6,65.76H74.13V64.48H82.6Z"/><path class="cls-4" d="M99.16,75.71q-.31-.74-.7-1.49c-2.94.33-7.18.62-9.26.73a.37.37,0,0,1-.28.29l-.48-1.67,1.43,0c.88-2.62,2.11-6.63,2.81-9.33l1.79.47c0,.15-.19.22-.41.23-.7,2.41-1.82,5.91-2.74,8.57,1.93-.08,4.86-.29,6.5-.45a24,24,0,0,0-2.16-3l1.16-.63a27.63,27.63,0,0,1,3.71,5.71Z"/><path class="cls-4" d="M108.67,64.59c0,.15-.17.23-.44.25a33.43,33.43,0,0,0-.72,6.12,15.53,15.53,0,0,0,.12,2.33c.22-.54.79-1.83,1-2.3l.7,1c-.51,1.17-1,1.94-1.16,2.58a2.3,2.3,0,0,0-.11.65,1.77,1.77,0,0,0,.07.47l-1.36.22a15.32,15.32,0,0,1-.62-4.84,43.22,43.22,0,0,1,.68-6.7Zm8.52,10.18c-.48,0-1,0-1.5,0a18.52,18.52,0,0,1-2.49-.14c-1.8-.25-2.59-1.23-2.59-2.37a4.33,4.33,0,0,1,1.24-2.7l1.29.47a3,3,0,0,0-1.1,2.05c0,1.28,1.72,1.36,3.31,1.36a17.1,17.1,0,0,0,1.89-.1Zm-6.34-8.67a46.37,46.37,0,0,0,5.91-.52l.14,1.35a47.57,47.57,0,0,1-6,.5Z"/><path class="cls-4" d="M45,97.34h1.34c0,2.55.33,7.76,5.68,10.93a6.26,6.26,0,0,0-1,1.12A12,12,0,0,1,45.6,102c-1,3.35-2.74,5.91-5.44,7.44a7.64,7.64,0,0,0-1.07-1c2.91-1.49,4.63-4.37,5.46-8.2l.72.17c-.1-.61-.15-1.17-.19-1.7H41.73V97.36H45Z"/><path class="cls-4" d="M67.82,99.51h.63l.76.07c0,.11,0,.3,0,.44-.19,5.91-.39,8-.94,8.65s-.92.7-2.16.7l-1.32,0A3.05,3.05,0,0,0,64.3,108c.92.07,1.76.07,2.12.07a.73.73,0,0,0,.61-.21c.41-.43.61-2.33.77-7H63.37a10.16,10.16,0,0,1-5.15,8.67,5.68,5.68,0,0,0-1-1A9.07,9.07,0,0,0,62,100.83H57.63V99.51H62V96.56l1.71.1c0,.11-.1.21-.33.23v2.62Z"/><path class="cls-4" d="M83,96.48h1.2v15.64H83Z"/><line class="cls-5" x1="24.48" y1="52.5" x2="200.26" y2="52.5"/><line class="cls-5" x1="24.48" y1="87.59" x2="200.26" y2="87.59"/><rect class="cls-3" x="77.77" y="93.3" width="11.78" height="22.38"/></g></g></svg>