<svg xmlns="http://www.w3.org/2000/svg" viewBox="0 0 204.44 144.9"><defs><style>.cls-1{fill:#fff;}</style></defs><title>project3_title</title><g id="Layer_2" data-name="Layer 2"><g id="レイヤー_1" data-name="レイヤー 1"><path class="cls-1" d="M6.73,129.81v-6.32a19.61,19.61,0,0,1-6.06,6.06,4.86,4.86,0,0,0-.67-.73,17.26,17.26,0,0,0,6.19-6.06H.41v-1H6.73v-6.38l1.44.13c0,.16-.16.29-.48.32v5.93h6.22v1H7.69v.8c1.31.83,5.33,3.57,6.25,4.31l-.64.83a64.45,64.45,0,0,0-5.62-4.18v5.3Zm.93,5.14a10.56,10.56,0,0,1-.26,2c2.07,1.5,4.59,3.54,6,4.75l-.77.67a68.84,68.84,0,0,0-5.46-4.5C6.38,140,4.63,142.19.67,144a4.58,4.58,0,0,0-.57-.8c5.39-2.46,6.45-5.46,6.61-8.26H.41v-1H6.73v-3.32l1.44.13c0,.16-.16.29-.48.32V134h6.38v1ZM2.2,116.57a13.51,13.51,0,0,1,2.14,3.76l-.86.45a15,15,0,0,0-2.11-3.86ZM10,120.46a28.52,28.52,0,0,0,2.2-4l1.31.61a.59.59,0,0,1-.54.22,35.71,35.71,0,0,1-2.17,3.57Zm9.73,20a.83.83,0,0,1-.61.25,19.87,19.87,0,0,1-6.51,4,4.26,4.26,0,0,0-.73-.77A18.22,18.22,0,0,0,18.44,140Zm-4.44-18.35h4.59c.35-1.18.77-2.78,1.05-4H14.07v-1H29.45v1H22c-.26,1.12-.67,2.74-1.05,4h7.37v16.69h-13Zm12,5.2v-4.24H16.24v4.24Zm0,5.23v-4.28H16.24v4.28Zm0,5.3v-4.34H16.24v4.34Zm-3,2.23A34.6,34.6,0,0,1,30,144.17c-.26.19-.54.38-.83.61a33.87,33.87,0,0,0-5.71-4.12Z"/><path class="cls-1" d="M43,124.86a43.29,43.29,0,0,1-4.4,6.6,7.17,7.17,0,0,0-.64-.73c3.09-3.54,6.13-9.28,8-15.09l1.37.41c-.06.19-.29.29-.61.29A55.41,55.41,0,0,1,43.91,123l.48.13c0,.16-.16.25-.48.29v21.31H43Zm7.5,12.7,8-2.9.16.83c-4.12,1.59-8.42,3.22-11.2,4.21a.47.47,0,0,1-.29.45l-.7-1.25c.89-.29,1.91-.64,3-1l-.22-20.74,1.44.13c0,.16-.16.29-.48.32Zm16.43-20.71c0,.19-.19.32-.54.32-.45,8.2-1.34,14.26-3.83,18.76,2.3,2.68,4.95,6.09,6.29,8.07l-.73.7c-1.31-2-3.83-5.33-6-8-2.36,3.83-6,6.41-11.81,8.14a4.39,4.39,0,0,0-.61-.8c12.51-3.64,14.93-11.36,15.73-27.41Zm-12,2.84a35.61,35.61,0,0,1,5.07,7.69l-.83.54a37.58,37.58,0,0,0-5-7.79Z"/><path class="cls-1" d="M94.13,141.26a15.43,15.43,0,0,1-6.57,1.24c-5.52,0-11.2-3.48-11.2-12.28,0-7,4.31-12.54,12.09-12.54A12.12,12.12,0,0,1,94,118.74l-.45.92a10.86,10.86,0,0,0-5-1.08c-6.83,0-11,4.56-11,11.74,0,6.8,3.92,11.26,10.59,11.26a12.54,12.54,0,0,0,5.55-1.18Z"/><path class="cls-1" d="M126.8,142.16h-1.12L125,130.41c-.29-4.21-.57-8.39-.54-10.78h-.1c-.89,2.52-1.85,5.2-3.32,8.9l-5.39,13.69h-.73l-5.07-13.34c-1.47-3.92-2.49-6.67-3.22-9.25h-.1c-.06,2.78-.26,7-.57,11.13l-.8,11.39H104l1.76-24.09h1.18l5.62,14.77c1.15,3.13,2,5.42,2.74,7.66h.06c.64-2.14,1.5-4.21,2.78-7.53l5.81-14.9h1.28Z"/><path class="cls-1" d="M143.22,127c1,1.15,3.64,4.85,4.24,5.78l-.7.83c-.57-1-2.39-3.76-3.54-5.36v16.43h-1V126.36c-1.24,4.47-3.22,9.19-5.1,11.81a4.24,4.24,0,0,0-.73-.77c2.14-2.94,4.53-8.77,5.62-13.82H137.1v-1h5.17v-7.27l1.44.13c0,.16-.16.29-.48.32v6.83h4.08v.92a23.73,23.73,0,0,0,8.71-8.17l1.63.1c0,.16-.19.26-.38.32a27.79,27.79,0,0,0,9.45,7.82,4.4,4.4,0,0,0-.61.8,30.71,30.71,0,0,1-9.57-8,27.74,27.74,0,0,1-9.22,8.2,4.45,4.45,0,0,0-.61-.73l.54-.29h-4Zm21.38,9h-7.08c1.76,4.47,4.56,6.45,9,8a2.66,2.66,0,0,0-.64.93c-4.66-1.82-7.56-4.12-9.32-9-.77,3.41-3.19,6.64-9.86,8.9a2.9,2.9,0,0,0-.64-.77c6.38-2.11,8.74-5,9.51-8.14h-7.18v-7.79h7.53v-3.92h-5.84v-1h13v1h-6.16v3.92h7.72Zm-15.25-1h6.41a14.37,14.37,0,0,0,.16-2.33v-3.54h-6.57Zm14.29-5.87h-6.77v3.57a14,14,0,0,1-.16,2.3h6.92Z"/><path class="cls-1" d="M185.61,138.49c-.1.16-.29.22-.61.19a35.46,35.46,0,0,1-8.33,5.55,8.62,8.62,0,0,0-.8-.64,31,31,0,0,0,8.46-5.68Zm9.57-7.31a52.3,52.3,0,0,1,8.84,6.06l-.7.73a29.56,29.56,0,0,0-2.36-2l-10.12.29v8.55h-1v-8.55c-4.91.13-9.44.22-12.63.29a.44.44,0,0,1-.41.38l-.45-1.4c1.95,0,4.44,0,7.21-.06,1-.58,1.95-1.21,3-1.92a40.24,40.24,0,0,0-6.7-4.18l.7-.61q1,.48,2,1.05A46.69,46.69,0,0,0,188.2,125H177.77v4.82h-1V124h13.08v-4.5H176.71v-1h13.18v-3.29l1.44.13c0,.16-.16.29-.48.32v2.84H204v1H190.85V124h13.31v5.78h-1V125H188.74l.93.48a.69.69,0,0,1-.57.19,53.32,53.32,0,0,1-5.58,4.66,37,37,0,0,1,4,2.65,75.18,75.18,0,0,0,7.88-6.06l1.28.7a.67.67,0,0,1-.61.16,102.23,102.23,0,0,1-10.59,7.69c4.44-.06,9.48-.16,14.39-.29a52.85,52.85,0,0,0-5.3-3.38Zm8.42,13a36.15,36.15,0,0,0-8.36-5.49l.77-.61a36.2,36.2,0,0,1,8.42,5.39Z"/><path class="cls-1" d="M124.56,34a12.34,12.34,0,0,0-2.79-4.16,12.49,12.49,0,0,0-4-2.56,16.69,16.69,0,0,0-4.58-1.13l-.34,0v-.84l.34,0a13.2,13.2,0,0,0,8.14-3.58c2.13-2.05,3.21-5,3.21-8.69a12.07,12.07,0,0,0-1.39-6,11.69,11.69,0,0,0-3.72-4A16.32,16.32,0,0,0,114.14.71,27.07,27.07,0,0,0,107.91,0a24.86,24.86,0,0,0-7.61,1.1,15.45,15.45,0,0,0-5.78,3.28A14.17,14.17,0,0,0,90.9,9.8a20,20,0,0,0-1.18,7.29h.85a19,19,0,0,1,1.11-6.88A13.47,13.47,0,0,1,95.18,5a14.76,14.76,0,0,1,5.54-3.12,23.89,23.89,0,0,1,7.19-1,26.43,26.43,0,0,1,5.68.61,15.17,15.17,0,0,1,5,2.05,11.67,11.67,0,0,1,3.64,3.76A11.43,11.43,0,0,1,123.72,13a11.82,11.82,0,0,1-1.33,5.83,11.06,11.06,0,0,1-3.48,3.81,14.33,14.33,0,0,1-4.8,2.05,23.68,23.68,0,0,1-5.32.61h-3.54v.85h3.54a28.39,28.39,0,0,1,6.3,1,15.28,15.28,0,0,1,5.08,2.46,11.15,11.15,0,0,1,3.39,4.22,14.53,14.53,0,0,1,1.2,6.16,13.64,13.64,0,0,1-1.44,6.37A14.37,14.37,0,0,1,119.5,51,16.41,16.41,0,0,1,114,53.78a22.15,22.15,0,0,1-6.43.94,25.16,25.16,0,0,1-7.88-1.18,16.18,16.18,0,0,1-6.06-3.48A14.39,14.39,0,0,1,90,44.35,18.53,18.53,0,0,1,89,37h-.85a19.3,19.3,0,0,0,1,7.74A14.88,14.88,0,0,0,93,50.59a17.36,17.36,0,0,0,6.27,3.64,25.71,25.71,0,0,0,8.28,1.26,23.32,23.32,0,0,0,7-1,17.19,17.19,0,0,0,5.72-3,14.27,14.27,0,0,0,5.34-11.51A15.29,15.29,0,0,0,124.56,34Z"/></g></g></svg>