<svg xmlns="http://www.w3.org/2000/svg" viewBox="0 0 121.42 205.36"><defs><style>.cls-1{fill:none;stroke:#fff;stroke-miterlimit:10;stroke-width:0.5px;}.cls-2{fill:#fff;}.cls-3{fill:#231f20;}</style></defs><title>project3_graph_small</title><g id="Layer_2" data-name="Layer 2"><g id="レイヤー_1" data-name="レイヤー 1"><line class="cls-1" x1="62.91" y1="97.62" x2="62.91" y2="108.87"/><polyline class="cls-1" points="76.9 102.15 62.91 115.6 48.92 102.15"/><path class="cls-2" d="M75.21,205.36H48.3l1.07-3.05H6.11a4,4,0,0,1-4-4V132.22a4,4,0,0,1,4-4H117.4a4,4,0,0,1,4,4v66.05a4,4,0,0,1-4,4H74.14Zm-26.16-.54h25.4l-1.07-3.05h44a3.49,3.49,0,0,0,3.49-3.49V132.22a3.49,3.49,0,0,0-3.49-3.49H6.11a3.49,3.49,0,0,0-3.49,3.49v66.05a3.49,3.49,0,0,0,3.49,3.49h44Z"/><rect class="cls-2" x="9.07" y="135.45" width="105.37" height="59.61"/><path class="cls-3" d="M53.48,169.78a8.58,8.58,0,0,1-1.76,2.56A7.8,7.8,0,0,1,49.15,174a8.79,8.79,0,0,1-3.34.6,8.41,8.41,0,0,1-3.57-.75,8.29,8.29,0,0,1-2.79-2.08,9.68,9.68,0,0,1-1.82-3.18,12,12,0,0,1-.66-4,13.66,13.66,0,0,1,.51-3.63,10.27,10.27,0,0,1,1.6-3.35,8.52,8.52,0,0,1,2.85-2.46,8.73,8.73,0,0,1,4.24-1,8.33,8.33,0,0,1,3.39.64A7.92,7.92,0,0,1,52,156.42a7,7,0,0,1,1.46,2.07,5.31,5.31,0,0,1,.52,2h-.55a5.28,5.28,0,0,0-.63-2.09,6.48,6.48,0,0,0-1.49-1.85,7.58,7.58,0,0,0-2.24-1.33,8.78,8.78,0,0,0-7,.47,8.28,8.28,0,0,0-2.67,2.44A10,10,0,0,0,38,161.31a12.85,12.85,0,0,0-.45,3.26,11.76,11.76,0,0,0,.55,3.58,9.14,9.14,0,0,0,1.61,3,8.07,8.07,0,0,0,2.61,2.11,7.58,7.58,0,0,0,3.52.79,8.19,8.19,0,0,0,3.15-.58,7.29,7.29,0,0,0,2.41-1.59A8.07,8.07,0,0,0,53,169.52a10.87,10.87,0,0,0,.85-3h.55A11.61,11.61,0,0,1,53.48,169.78Z"/><path class="cls-3" d="M82.57,154.63v19.54H82V155.31H82l-8.29,18.86h-.6l-8.29-18.86h-.05v18.86h-.55V154.63h.9l8.27,18.83h.05l8.26-18.83Z"/><path class="cls-2" d="M119.34,74.1H0V0H119.34ZM.54,73.56H118.8V.54H.54Z"/><rect class="cls-2" x="5.1" y="5.1" width="109.14" height="63.91" rx="8.5" ry="8.5"/><path class="cls-3" d="M27.74,20.54v.67h-3v1.29c0,.7-.33.79-1.74.79a2.72,2.72,0,0,0-.3-.67l.78,0c.49,0,.52,0,.52-.15V21.22H21.1v-.67H24v-.63l.24,0a6.65,6.65,0,0,0,.94-.69H22.51V18.6h3.42l.12,0,.55.33a.24.24,0,0,1-.14.09,8.4,8.4,0,0,1-1.67,1.27v.29ZM22,17.92v1.17h-.7V17.25H24v-.89l.93.06c0,.07-.06.1-.18.12v.72h2.77v1.84h-.73V17.92Z"/><path class="cls-3" d="M36.23,17.61v5.08h-.76V22.3H31v-.7h4.49V18.31H31.06v-.7Z"/><path class="cls-3" d="M40.29,17.14a9.19,9.19,0,0,1,2.18,1l-.38.67a10.18,10.18,0,0,0-2.15-1Zm-.14,5.06a7.71,7.71,0,0,0,5.16-4.29,5,5,0,0,0,.68.43,8.52,8.52,0,0,1-5.19,4.46.24.24,0,0,1-.12.18Z"/><path class="cls-3" d="M55.13,19.65H52.72l.14,0a.16.16,0,0,1-.16.1,4,4,0,0,1-2.25,3.29,5.31,5.31,0,0,0-.56-.5,3.3,3.3,0,0,0,2-2.92H49.17V19h6Zm-.74-2.07H49.84v-.69h4.55Z"/><path class="cls-3" d="M64.34,19.73h0a.25.25,0,0,1-.13,0c-.55.17-1.33.44-1.91.67,0,.16,0,.35,0,.56s0,.42,0,.67l-.75.05a7.53,7.53,0,0,0,0-1c-.7.35-1.24.78-1.24,1.14s.46.55,1.38.55a16.36,16.36,0,0,0,1.85-.09v.69c-.42,0-1.06.06-1.87.06-1.42,0-2.09-.33-2.09-1.17,0-.62.81-1.27,1.89-1.82,0-.33-.19-.55-.44-.55a2.34,2.34,0,0,0-1.69,1c-.19.21-.47.5-.8.81l-.51-.5a8.55,8.55,0,0,0,1-1,5.1,5.1,0,0,0,.81-1.6H58.29v-.67l1.27,0H60c.07-.32.13-.63.18-1l.93.1c0,.07-.08.12-.18.13-.05.27-.11.51-.18.75a9.11,9.11,0,0,0,2.39-.42l.13.7a11.4,11.4,0,0,1-2.71.38,4.28,4.28,0,0,1-.44,1.05h0a1.85,1.85,0,0,1,1.1-.42c.46,0,.81.33.91.91.6-.27,1.33-.54,1.9-.76Z"/><path class="cls-3" d="M21.64,36.39a11.18,11.18,0,0,1,1.95.67l-.32.64a11.92,11.92,0,0,0-1.94-.7ZM22,39.92a7.57,7.57,0,0,0,5-4.2,6.47,6.47,0,0,0,.64.47,8.2,8.2,0,0,1-5,4.3.18.18,0,0,1-.1.19Zm.53-5.37a12.73,12.73,0,0,1,1.94.73l-.35.63a10.56,10.56,0,0,0-1.92-.76Z"/><path class="cls-3" d="M35.53,35.11a.22.22,0,0,1-.13.1A11.55,11.55,0,0,1,34,37.71a28.15,28.15,0,0,1,2.59,2.39l-.65.56a22.84,22.84,0,0,0-2.41-2.38,11.72,11.72,0,0,1-2.73,2.38,4.26,4.26,0,0,0-.54-.57,10.12,10.12,0,0,0,4.17-4.56H30.92v-.7H34.8l.13,0Z"/><path class="cls-3" d="M45.49,37.36H43.07l.14,0a.16.16,0,0,1-.16.1,4,4,0,0,1-2.25,3.29,5.42,5.42,0,0,0-.56-.5,3.3,3.3,0,0,0,2-2.92H39.52v-.69h6Zm-.74-2.07H40.19V34.6h4.55Z"/><path class="cls-3" d="M53.86,40.63q-.17-.4-.38-.8c-1.58.18-3.86.33-5,.39a.2.2,0,0,1-.15.16l-.26-.9h.77c.47-1.41,1.13-3.56,1.51-5l1,.25c0,.08-.1.12-.22.13-.38,1.3-1,3.17-1.47,4.6,1,0,2.61-.15,3.49-.24A13,13,0,0,0,52,37.56l.62-.34a14.81,14.81,0,0,1,2,3.06Z"/><path class="cls-3" d="M59.14,34.66c0,.08-.09.13-.24.13a18,18,0,0,0-.38,3.29,8.34,8.34,0,0,0,.07,1.25c.12-.29.42-1,.52-1.24l.38.51c-.27.63-.52,1-.62,1.38a1.21,1.21,0,0,0-.06.35.94.94,0,0,0,0,.25l-.73.12a8.23,8.23,0,0,1-.33-2.6,23.35,23.35,0,0,1,.36-3.6Zm4.57,5.47-.81,0a9.73,9.73,0,0,1-1.34-.07c-1-.13-1.39-.66-1.39-1.27a2.32,2.32,0,0,1,.67-1.45l.7.25a1.63,1.63,0,0,0-.59,1.1c0,.69.92.73,1.78.73a9.09,9.09,0,0,0,1-.05Zm-3.4-4.66a24.88,24.88,0,0,0,3.17-.28l.07.73a25.91,25.91,0,0,1-3.23.27Z"/><path class="cls-3" d="M24.16,52.23h.72a6.36,6.36,0,0,0,3,5.87,3.33,3.33,0,0,0-.56.6,6.42,6.42,0,0,1-2.89-4,6.5,6.5,0,0,1-2.92,4,4.14,4.14,0,0,0-.58-.55,6,6,0,0,0,2.93-4.4l.38.09c-.05-.33-.08-.63-.1-.91H22.39v-.71h1.77Z"/><path class="cls-3" d="M36.54,53.39h.34l.41,0c0,.06,0,.16,0,.24-.1,3.17-.21,4.28-.5,4.65s-.5.38-1.16.38H34.9a1.63,1.63,0,0,0-.25-.74c.5,0,.95,0,1.14,0a.39.39,0,0,0,.33-.11c.22-.23.33-1.25.42-3.75H34.15a5.46,5.46,0,0,1-2.77,4.65,3,3,0,0,0-.55-.56,4.87,4.87,0,0,0,2.58-4.09H31.07v-.71h2.38V51.81l.92.05c0,.06-.05.11-.18.13v1.41Z"/><path class="cls-3" d="M44.68,51.76h.64v8.4h-.64Z"/><rect class="cls-3" x="13.14" y="27.91" width="94.33" height="0.54"/><rect class="cls-3" x="13.14" y="46.73" width="94.33" height="0.54"/><rect class="cls-2" x="40.73" y="51.76" width="9.8" height="9.8"/></g></g></svg>