<svg xmlns="http://www.w3.org/2000/svg" viewBox="0 0 127.04 41.03"><defs><style>.cls-1{fill:#fff;}</style></defs><title>project-small-main-title</title><g id="Layer_2" data-name="Layer 2"><g id="レイヤー_1" data-name="レイヤー 1"><path class="cls-1" d="M33.33.39c0,.05-.05.09-.15.11s.15,5.7,4.17,7.5a1.2,1.2,0,0,0-.21.22c-2.85-1.31-3.76-4.54-4.06-6.41h0c-.23,1.89-1,5-4,6.39A1.21,1.21,0,0,0,28.87,8c3.83-1.78,4-6.42,4-7.65Z"/><path class="cls-1" d="M43.86,7.25H47.8v.27H39.69V7.25h3.9V1.4H40.14V1.13h7.26V1.4H43.86Z"/><path class="cls-1" d="M52.71,1.58V3.34a5.35,5.35,0,0,1,0,.54h1.85v.27H52.68a7.29,7.29,0,0,1-.16,1c.4.39,1.56,1.65,1.84,2l-.19.23c-.31-.38-1.25-1.44-1.72-1.93a4.92,4.92,0,0,1-2,2.67.79.79,0,0,0-.18-.21,4.76,4.76,0,0,0,2.13-3.76H50.33V3.88h2.1c0-.19,0-.37,0-.55V1.58h-1a6.69,6.69,0,0,1-.83,1.73,2.39,2.39,0,0,0-.23-.14A8.39,8.39,0,0,0,51.53,0l.41.11c0,.05-.07.08-.16.08-.08.38-.18.76-.29,1.13h2.77v.27ZM55,.82h3.2V8h-.27V7.24H55.27V8H55ZM55.27,7h2.66V1.09H55.27Z"/><path class="cls-1" d="M64.71,2.17A10.05,10.05,0,0,0,63.85,1l.2-.1a9.56,9.56,0,0,1,1.31,2l-.2.13a6.54,6.54,0,0,0-.31-.6l-3.59.17a.13.13,0,0,1-.11.11L61,2.3l.75,0A16.31,16.31,0,0,0,62.84,0l.38.12s-.07.07-.16.08a22.23,22.23,0,0,1-1,2Zm0,1.3V7.85c0,.44-.17.45-1.41.45a1,1,0,0,0-.12-.3L64,8c.42,0,.46,0,.46-.17V6.51H61.95V8.33h-.27V3.47Zm-.27.27H61.95V4.83h2.53Zm-2.53,2.5h2.53V5.1H61.95Zm6.57-2.57c.41,0,.49-.17.52-1.18a.75.75,0,0,0,.27.13c0,1.05-.15,1.32-.78,1.32H66.64c-.68,0-.88-.1-.88-.6V0l.4,0s0,.08-.13.09V1.76a22.86,22.86,0,0,0,2.6-.95l.27.26a.08.08,0,0,1-.06,0h-.08A26.28,26.28,0,0,1,66,2V3.34c0,.27.09.33.58.33ZM66,7.58c0,.28.1.35.62.35h2c.46,0,.53-.19.57-1.32a.88.88,0,0,0,.27.12c-.05,1.18-.16,1.47-.83,1.47h-2c-.7,0-.91-.1-.91-.61V4.27l.4,0s0,.08-.13.09V5.92a11.74,11.74,0,0,0,2.75-1l.24.27a.08.08,0,0,1-.06,0h-.07a12.94,12.94,0,0,1-2.86,1Z"/><path class="cls-1" d="M73.45.65c0,.1-.13.14-.31.13a22.34,22.34,0,0,0-.47,4.12A11.83,11.83,0,0,0,72.82,7l.76-2,.27.1c-.41,1.1-.66,1.63-.77,2a1.49,1.49,0,0,0-.07.41.81.81,0,0,0,0,.26l-.29.08a9.13,9.13,0,0,1-.39-3A24.16,24.16,0,0,1,72.89.52Zm6,6.48-1,0A12.08,12.08,0,0,1,76.69,7c-1-.15-1.53-.73-1.53-1.42a2.73,2.73,0,0,1,.89-1.69l.24.16a2.36,2.36,0,0,0-.84,1.52c0,.52.43,1,1.31,1.15a10.6,10.6,0,0,0,1.56.1c.35,0,.72,0,1.08,0Zm-4.2-5.28a27.42,27.42,0,0,0,4-.35l0,.3a32.52,32.52,0,0,1-4,.35Z"/><path class="cls-1" d="M89.36,7.4a8.92,8.92,0,0,0-3.05-1.57c0,.26,0,.77,0,1,0,.83-.62,1.25-1.59,1.25s-2-.49-2-1.4c0-.76.86-1.32,2-1.34A5.82,5.82,0,0,1,86,5.46c0-.32-.05-.59-.07-.85-.07-1.15-.13-2.9-.13-4.37l.57,0c0,.09-.08.17-.24.19V2.3A22.76,22.76,0,0,0,89.28,2l0,.31a27.12,27.12,0,0,1-3.2.26c0,.69,0,1.27.09,2,0,.28.06.63.08.95a10,10,0,0,1,3.25,1.63ZM86,6.31c0-.19,0-.39,0-.54a4.48,4.48,0,0,0-1.14-.13c-1.22,0-1.83.5-1.83,1.05,0,.74.8,1.11,1.64,1.11S86,7.44,86,6.84Z"/><path class="cls-1" d="M94.37,4.1A6,6,0,0,1,97,3.45a2.06,2.06,0,0,1,2.34,2.1c0,1.64-1.45,2.52-3.14,2.52-1.18,0-2-.42-2-1.14a1.27,1.27,0,0,1,1.4-1.12,2,2,0,0,1,1.84,1.77,2.12,2.12,0,0,0,1.58-2A1.81,1.81,0,0,0,97,3.73,5.58,5.58,0,0,0,93.49,5c-.3.29-.64.68-.89,1l-.22-.22c.92-1,3.71-3.67,4.94-4.83-.58.08-2.55.14-3.79.18a.25.25,0,0,1-.16.13L93.31.77c1.27,0,3.45-.09,4.14-.19l.13-.06.32.34a.46.46,0,0,1-.19.08c-.76.64-2.66,2.47-3.33,3.14Zm1.78,3.69a4.05,4.05,0,0,0,1-.13,1.71,1.71,0,0,0-1.58-1.58c-.58,0-1.11.32-1.11.84S95.39,7.79,96.15,7.79Z"/><path class="cls-1" d="M4.86,17.42H2.59v6.52H2.28V17.42H0v-.28H4.86Z"/><path class="cls-1" d="M12.15,17.14,9.6,23.94H9.31L7,17.14h.35l1.26,3.77c.34,1,.62,1.85.82,2.6h0c.21-.76.52-1.63.89-2.6l1.41-3.77Z"/><path class="cls-1" d="M19.13,23.69a4.35,4.35,0,0,1-1.85.35c-1.56,0-3.16-1-3.16-3.47A3.28,3.28,0,0,1,17.52,17a3.42,3.42,0,0,1,1.56.3l-.13.26a3.06,3.06,0,0,0-1.4-.31,3,3,0,0,0-3.11,3.31,2.87,2.87,0,0,0,3,3.18A3.54,3.54,0,0,0,19,23.45Z"/><path class="cls-1" d="M28.34,23.94H28l-.21-3.31c-.08-1.19-.16-2.37-.15-3h0c-.25.71-.52,1.47-.94,2.51L25.18,24H25L23.55,20.2c-.41-1.11-.7-1.88-.91-2.61h0c0,.78-.07,2-.16,3.14l-.22,3.21H21.9l.5-6.8h.33l1.58,4.17c.32.88.57,1.53.77,2.16h0c.18-.6.42-1.19.78-2.12l1.64-4.2h.36Z"/><path class="cls-1" d="M34.19,18.33l.18.06a.19.19,0,0,1,0,.07,11.43,11.43,0,0,1-.95,3.93,7.07,7.07,0,0,1,1.12,1l-.17.23a6.91,6.91,0,0,0-1.07-1,4.87,4.87,0,0,1-1.87,2,1.18,1.18,0,0,0-.2-.23,4.59,4.59,0,0,0,1.85-2,11.56,11.56,0,0,0-1.4-.89l-.13.46-.25-.13c.24-.82.57-2.07.86-3.3h-1v-.27h1.11c.16-.7.31-1.39.43-2l.41.06c0,.05-.05.08-.14.08-.12.53-.26,1.16-.42,1.82h1.69Zm-1.81.29c-.23.95-.47,1.92-.68,2.72a13.77,13.77,0,0,1,1.46.89A10.65,10.65,0,0,0,34,18.62Zm7,1.84v.27H37v3.45c0,.28-.08.39-.31.44a8.33,8.33,0,0,1-1.47,0,1.76,1.76,0,0,0-.12-.28l1,0c.56,0,.59,0,.59-.22V20.73H34.35v-.27h2.41V18.83l.25,0a8.77,8.77,0,0,0,1.69-1.72h-4v-.27h4.17l.06,0,.23.15a.19.19,0,0,1-.09.05A10,10,0,0,1,37,19.14v1.31Z"/><path class="cls-1" d="M42.86,17.67v1.09a5.59,5.59,0,0,1-1,3.43.57.57,0,0,0-.21-.18,5.28,5.28,0,0,0,.9-3.25V17.4h3.73a7.87,7.87,0,0,1-.13-1l.44,0c0,.06-.05.09-.14.1,0,.3.05.6.1.9h3.36v.27h-3.3a9.09,9.09,0,0,0,.93,2.48,7.46,7.46,0,0,0,1-1.83l.39.12c0,.05-.08.08-.17.08a7.45,7.45,0,0,1-1.07,1.88c.53.85,1.13,1.41,1.65,1.4.27,0,.37-.33.42-1.22a.76.76,0,0,0,.25.13c-.07,1-.23,1.37-.67,1.37-.6,0-1.26-.58-1.82-1.47a6.88,6.88,0,0,1-1.6,1.4,1,1,0,0,0-.21-.18,6.42,6.42,0,0,0,1.66-1.45,9.36,9.36,0,0,1-1-2.72Zm.43,4.86a2.41,2.41,0,0,1-1.35,1.84l-.21-.16a2.29,2.29,0,0,0,1.31-1.74Zm-.06-3.83v-.27h2.92v.27Zm2.63,2.48H43.78v.37h-.27V19.4h2.35Zm-.27-1.51H43.78v1.24h1.81ZM44.42,24c0,.21.09.25.63.25h2c.44,0,.5-.12.54-1.05a.88.88,0,0,0,.27.12c0,1-.16,1.21-.79,1.21h-2c-.73,0-.93-.07-.93-.53V22.45l.41,0s0,.08-.13.09Zm2-.9A5.94,5.94,0,0,0,44.72,22l.18-.19a5.63,5.63,0,0,1,1.75,1.07Zm1.25-6.73a4.44,4.44,0,0,1,1.36.66l-.16.23a4.56,4.56,0,0,0-1.36-.68Zm2.09,8A6.4,6.4,0,0,0,48,22.57l.21-.15A6.29,6.29,0,0,1,50,24.17Z"/><path class="cls-1" d="M60.88,17.65H53.67v2.44a10.07,10.07,0,0,1-.85,4.63.78.78,0,0,0-.23-.16,9.58,9.58,0,0,0,.81-4.47V17.38h3.5v-1l.41,0s0,.08-.13.09v.86h3.71Zm-1.19,4,.2.12a.24.24,0,0,1-.07.06,4.75,4.75,0,0,1-2.05,1.81,10.9,10.9,0,0,0,3.18.82.89.89,0,0,0-.16.24,11.26,11.26,0,0,1-3.3-.93,12.15,12.15,0,0,1-3.46.91.94.94,0,0,0-.13-.24,11.9,11.9,0,0,0,3.31-.81A4.82,4.82,0,0,1,55.37,22l.23-.11a4.61,4.61,0,0,0,1.87,1.55,4.59,4.59,0,0,0,1.94-1.57h-5.2v-.27h5.41ZM59,20.81H55.76V19.22H54.13V19h1.64V18l.41,0s0,.08-.13.09V19h2.73V18l.41,0s0,.08-.13.09V19h1.78v.27H59Zm-.27-1.58H56v1.31h2.73Z"/><path class="cls-1" d="M71.31,19.81l.2.07a.12.12,0,0,1-.06.07,14.27,14.27,0,0,1-2.09,2.13l-.21-.14A12.46,12.46,0,0,0,71,20.09H67.65s0,.07-.13.09v4c0,.26-.08.37-.31.42a8.72,8.72,0,0,1-1.53,0,1.33,1.33,0,0,0-.12-.27h.95c.72,0,.74,0,.74-.21V20.09H63.4v-.27h5.25a14.34,14.34,0,0,0-3.18-1.65l.19-.23a16,16,0,0,1,1.94.86,11.54,11.54,0,0,0,2.29-1.59H64.23v-.27h5.86a.31.31,0,0,0,.15,0l.25.19a.13.13,0,0,1-.1,0A14,14,0,0,1,67.89,19a7.92,7.92,0,0,1,1.11.7l-.11.14h2.42Z"/><path class="cls-1" d="M75.52,20.11a7,7,0,0,0-1.58-.94l.15-.2a6,6,0,0,1,1.58.9Zm-1.36,4.24a28.45,28.45,0,0,0,1.36-2.92l.21.16a28,28,0,0,1-1.27,2.79.19.19,0,0,1,0,.11.2.2,0,0,1,0,.07Zm1.68-6.63a6.42,6.42,0,0,0-1.46-1l.17-.19a6.37,6.37,0,0,1,1.46,1Zm1.49,5.11a.17.17,0,0,1-.16.07,6.06,6.06,0,0,1-1.39,1.77,1.38,1.38,0,0,0-.21-.19,5.39,5.39,0,0,0,1.36-1.79Zm-.91-6H79v5.59H76.42Zm.27.27V18.6h2V17.11Zm0,1.76v1.49h2V18.87Zm0,1.76v1.52h2V20.64Zm2.57,3.68a11.07,11.07,0,0,0-1.13-1.47l.22-.13a11.38,11.38,0,0,1,1.13,1.43Zm.66-7,.4,0s0,.08-.13.09v5.07h-.27Zm1.68-1,.41,0c0,.05,0,.08-.13.09v7.66c0,.29-.11.39-.31.44a7.47,7.47,0,0,1-1.37.05,2.15,2.15,0,0,0-.12-.27h.72c.75,0,.8,0,.8-.23Z"/><path class="cls-1" d="M85.09,19.27a14.39,14.39,0,0,1,2.5.79l-.12.28A14.76,14.76,0,0,0,85,19.55Zm.75,4.56A9.65,9.65,0,0,0,92,18.4a2,2,0,0,0,.25.16A9.84,9.84,0,0,1,86.19,24a.19.19,0,0,1-.08.21ZM86,17a14.4,14.4,0,0,1,2.48.87l-.12.27a14.47,14.47,0,0,0-2.46-.87Z"/><path class="cls-1" d="M100.65,17.49a.11.11,0,0,1-.09.06,14.36,14.36,0,0,1-1.88,3.19,33.42,33.42,0,0,1,3.5,3.24l-.24.19A31.52,31.52,0,0,0,98.49,21a13.8,13.8,0,0,1-3.66,3.21,1.53,1.53,0,0,0-.21-.23,13.76,13.76,0,0,0,5.55-6.3H95.5v-.29h4.81l.07,0Z"/><path class="cls-1" d="M112.08,19.93h-3.2l.13,0c0,.05-.07.09-.16.1A4.91,4.91,0,0,1,106,24.34a1.59,1.59,0,0,0-.21-.23c1.94-.9,2.52-2.31,2.75-4.19h-3.7v-.29h7.21Zm-.87-2.56h-5.53v-.29h5.53Z"/><path class="cls-1" d="M121.69,24.12c-.13-.27-.3-.59-.5-.95-1.81.18-5.29.36-6.71.44a.25.25,0,0,1-.15.17l-.14-.45,1,0c.62-1.77,1.55-4.56,2.09-6.41l.47.14c0,.08-.11.11-.23.11-.54,1.75-1.38,4.35-2,6.15,1.78-.08,4.2-.24,5.57-.37a18.57,18.57,0,0,0-1.86-2.49l.24-.15A17.62,17.62,0,0,1,122,24Z"/><path class="cls-1" d="M124.94,22.37a18.81,18.81,0,0,1,2.1,2l-.26.25a18.67,18.67,0,0,0-2.06-2.08Z"/><path class="cls-1" d="M15.93,34H14v5.64H12.78V32.75h3.15Zm-.2-1H13v6.45h.85V33.76h1.91Z"/><path class="cls-1" d="M23.49,40.06a4.36,4.36,0,0,1-1.85.35c-1.56,0-3.16-1-3.16-3.47a3.28,3.28,0,0,1,3.41-3.54,3.42,3.42,0,0,1,1.56.3l-.13.26a3.06,3.06,0,0,0-1.4-.31A3,3,0,0,0,18.81,37a2.87,2.87,0,0,0,3,3.18,3.54,3.54,0,0,0,1.57-.33Z"/><path class="cls-1" d="M28.62,37a1.74,1.74,0,0,1,1.07,1.47,7.87,7.87,0,0,0,.5,1.83h-.33a9.23,9.23,0,0,1-.44-1.67c-.22-1-.65-1.52-1.58-1.52H26.69v3.2h-.31V33.6a7.09,7.09,0,0,1,1.38-.14,2.26,2.26,0,0,1,1.76.58A1.7,1.7,0,0,1,30,35.22,1.79,1.79,0,0,1,28.62,37Zm-.82-.16a1.63,1.63,0,0,0,1.84-1.57c0-1.21-.95-1.57-1.94-1.57a4.27,4.27,0,0,0-1,.12v3Z"/><path class="cls-1" d="M36.53,40.31H33.14v-6.8h3.22v.28H33.46v2.79H36.2v.28H33.46V40h3.07Z"/><path class="cls-1" d="M44.4,40.31h-.31l-.92-2.48H40.37l-.9,2.48h-.32l2.52-6.8h.23Zm-1.33-2.75-.9-2.42a12.51,12.51,0,0,1-.38-1.2h0c-.13.47-.22.75-.38,1.18l-.92,2.44Z"/><path class="cls-1" d="M50.5,33.79H48.23v6.52h-.32V33.79H45.63v-.28H50.5Z"/><path class="cls-1" d="M53.13,33.51h.31v6.8h-.31Z"/><path class="cls-1" d="M61.25,33.51l-2.55,6.8h-.29l-2.27-6.8h.35l1.26,3.77c.34,1,.62,1.85.82,2.6h0c.21-.76.52-1.63.89-2.6l1.41-3.77Z"/><path class="cls-1" d="M67.28,40.31H63.89v-6.8h3.22v.28H64.21v2.79H67v.28H64.21V40h3.07Z"/><path class="cls-1" d="M76.35,36.69a1.82,1.82,0,0,1,1,3,2.73,2.73,0,0,1-2.07.66c-.48,0-.85,0-1.1-.05V33.61a5.39,5.39,0,0,1,1.27-.15c1.71,0,2.11.86,2.11,1.68a1.65,1.65,0,0,1-1.18,1.51Zm-.81-.13a1.49,1.49,0,0,0,1.66-1.41h0c0-1-.77-1.4-1.84-1.4a3.77,3.77,0,0,0-.89.09v2.74ZM74.47,40a3.43,3.43,0,0,0,.87.07c1.09,0,2.13-.41,2.13-1.64s-1-1.64-2.09-1.64h-.91Z"/><path class="cls-1" d="M83.13,37a1.74,1.74,0,0,1,1.07,1.47,7.87,7.87,0,0,0,.5,1.83h-.33a9.23,9.23,0,0,1-.44-1.67c-.22-1-.65-1.52-1.58-1.52H81.19v3.2h-.31V33.6a7.09,7.09,0,0,1,1.38-.14A2.26,2.26,0,0,1,84,34a1.7,1.7,0,0,1,.46,1.19A1.79,1.79,0,0,1,83.13,37Zm-.82-.16a1.63,1.63,0,0,0,1.84-1.57c0-1.21-.95-1.57-1.94-1.57a4.27,4.27,0,0,0-1,.12v3Z"/><path class="cls-1" d="M92.53,40.31h-.31l-.92-2.48H88.51l-.9,2.48h-.32l2.52-6.8H90ZM91.2,37.56l-.9-2.42a12.51,12.51,0,0,1-.38-1.2h0c-.13.47-.22.75-.38,1.18l-.92,2.44Z"/><path class="cls-1" d="M95.38,33.51h.31v6.8h-.31Z"/><path class="cls-1" d="M103.77,40.31h-.32l-2.74-4.16c-.51-.79-1-1.46-1.31-2.14h0c.05.71.05,1.13.05,2.64v3.66h-.31v-6.8h.3l2.82,4.25a22.92,22.92,0,0,1,1.27,2.09l0,0c-.06-.91-.06-1.65-.06-2.72v-3.6h.32Z"/><path class="cls-1" d="M106.77,39.82h1.91V34.19h1.24V41h-3.15Zm.2,1h2.75V34.39h-.85V40H107Z"/><path class="cls-1" d="M115.59,39.77a1.26,1.26,0,1,1-1.26-1.26A1.26,1.26,0,0,1,115.59,39.77Zm-.27,0a1,1,0,1,0-1,1A1,1,0,0,0,115.32,39.77Z"/></g></g></svg>