<svg xmlns="http://www.w3.org/2000/svg" xmlns:xlink="http://www.w3.org/1999/xlink" viewBox="0 0 119.34 207.63"><defs><style>.cls-1{fill:none;stroke:#fff;stroke-miterlimit:10;stroke-width:0.5px;}.cls-2{fill:#fff;}.cls-3{fill:#231f20;}</style></defs><title>project1_graph_small_1</title><g id="Layer_2" data-name="Layer 2"><g id="レイヤー_1" data-name="レイヤー 1"><line class="cls-1" x1="62.39" y1="103.48" x2="62.39" y2="114.73"/><polyline class="cls-1" points="76.38 108.01 62.39 121.46 48.41 108.01"/><path class="cls-2" d="M119.34,74.1H0V0H119.34ZM.54,73.56H118.8V.54H.54Z"/><rect class="cls-2" x="5.1" y="5.1" width="109.14" height="63.91" rx="8.5" ry="8.5"/><path class="cls-3" d="M27.75,20.54v.67h-3V22.5c0,.7-.33.79-1.74.79a2.71,2.71,0,0,0-.3-.67l.78,0c.49,0,.52,0,.52-.15V21.22H21.11v-.67H24v-.63l.24,0a6.68,6.68,0,0,0,.94-.69H22.51V18.6h3.42l.12,0,.55.33a.24.24,0,0,1-.14.09,8.36,8.36,0,0,1-1.67,1.27v.3ZM22,17.92v1.17h-.7V17.25H24v-.9l.93.06c0,.07-.06.1-.18.12v.72h2.77v1.84h-.73V17.92Z"/><path class="cls-3" d="M36.24,17.6v5.08h-.76V22.3H31v-.7h4.49V18.31H31.06v-.7Z"/><path class="cls-3" d="M40.3,17.14a9.14,9.14,0,0,1,2.18,1l-.38.67a10.16,10.16,0,0,0-2.15-1Zm-.14,5.06a7.71,7.71,0,0,0,5.16-4.29,5,5,0,0,0,.68.43,8.52,8.52,0,0,1-5.19,4.46.23.23,0,0,1-.12.18Z"/><path class="cls-3" d="M55.14,19.65H52.73l.14,0a.16.16,0,0,1-.16.1,4,4,0,0,1-2.25,3.29,5.37,5.37,0,0,0-.56-.5,3.3,3.3,0,0,0,2-2.92H49.17V19h6Zm-.74-2.07H49.85v-.69H54.4Z"/><path class="cls-3" d="M64.35,19.73h0a.25.25,0,0,1-.13,0c-.55.17-1.33.44-1.91.67,0,.16,0,.35,0,.56s0,.42,0,.67l-.75.05a7.53,7.53,0,0,0,0-1c-.7.35-1.24.78-1.24,1.14s.46.55,1.38.55a16.48,16.48,0,0,0,1.85-.09v.69c-.42,0-1.06.06-1.87.06-1.42,0-2.09-.33-2.09-1.17,0-.62.81-1.27,1.89-1.82,0-.33-.19-.55-.44-.55a2.34,2.34,0,0,0-1.69,1c-.19.21-.47.5-.8.81l-.51-.5a8.59,8.59,0,0,0,1-1,5.1,5.1,0,0,0,.81-1.6H58.29v-.67l1.27,0H60c.07-.32.13-.63.18-1l.93.1c0,.07-.08.12-.18.13-.05.27-.11.51-.18.75a9.11,9.11,0,0,0,2.39-.42l.13.7a11.35,11.35,0,0,1-2.71.38,4.26,4.26,0,0,1-.44,1.05h0a1.85,1.85,0,0,1,1.1-.41c.46,0,.81.33.91.91.6-.27,1.33-.54,1.9-.76Z"/><path class="cls-3" d="M21.64,36.39a11.06,11.06,0,0,1,1.95.67l-.32.64a12,12,0,0,0-1.94-.7ZM22,39.92a7.57,7.57,0,0,0,5-4.2,6.64,6.64,0,0,0,.64.47,8.2,8.2,0,0,1-5,4.3.17.17,0,0,1-.1.19Zm.53-5.37a12.69,12.69,0,0,1,1.94.73l-.35.63a10.56,10.56,0,0,0-1.92-.76Z"/><path class="cls-3" d="M35.53,35.11a.22.22,0,0,1-.13.1A11.53,11.53,0,0,1,34,37.7a28.3,28.3,0,0,1,2.59,2.39l-.65.56a22.84,22.84,0,0,0-2.41-2.38,11.74,11.74,0,0,1-2.73,2.38,4.32,4.32,0,0,0-.54-.57,10.12,10.12,0,0,0,4.17-4.56H30.92v-.7h3.88l.13,0Z"/><path class="cls-3" d="M45.49,37.36H43.08l.14,0a.16.16,0,0,1-.16.1,4,4,0,0,1-2.25,3.29,5.37,5.37,0,0,0-.56-.5,3.3,3.3,0,0,0,2-2.92H39.53v-.69h6Zm-.74-2.07H40.2V34.6h4.55Z"/><path class="cls-3" d="M53.87,40.63q-.17-.4-.38-.8c-1.58.18-3.86.33-5,.39a.2.2,0,0,1-.15.16l-.26-.9h.77c.47-1.41,1.13-3.56,1.51-5l1,.25c0,.08-.1.12-.22.13-.38,1.3-1,3.17-1.47,4.6,1,0,2.61-.16,3.49-.24A12.9,12.9,0,0,0,52,37.56l.62-.34a14.84,14.84,0,0,1,2,3.06Z"/><path class="cls-3" d="M59.15,34.66c0,.08-.09.13-.24.13a18,18,0,0,0-.38,3.29,8.33,8.33,0,0,0,.07,1.25c.12-.29.42-1,.52-1.24l.38.51c-.27.63-.52,1-.62,1.38a1.22,1.22,0,0,0-.06.35.93.93,0,0,0,0,.25l-.73.12a8.24,8.24,0,0,1-.33-2.6,23.37,23.37,0,0,1,.36-3.6Zm4.57,5.47-.81,0a9.89,9.89,0,0,1-1.34-.07c-1-.13-1.39-.66-1.39-1.27a2.32,2.32,0,0,1,.67-1.45l.7.25A1.63,1.63,0,0,0,61,38.7c0,.69.92.73,1.78.73a9.09,9.09,0,0,0,1-.05Zm-3.4-4.65a25,25,0,0,0,3.17-.28l.07.73a25.82,25.82,0,0,1-3.23.27Z"/><path class="cls-3" d="M24.16,52.23h.72a6.36,6.36,0,0,0,3,5.87,3.35,3.35,0,0,0-.56.6,6.42,6.42,0,0,1-2.89-4,6.5,6.5,0,0,1-2.92,4,4.09,4.09,0,0,0-.58-.55,6,6,0,0,0,2.93-4.4l.38.09c-.05-.33-.08-.63-.1-.91H22.39v-.71h1.77Z"/><path class="cls-3" d="M36.55,53.39h.34l.41,0c0,.06,0,.16,0,.24-.1,3.17-.21,4.28-.5,4.65s-.5.38-1.16.38H34.9a1.63,1.63,0,0,0-.25-.74c.5,0,.95,0,1.14,0a.39.39,0,0,0,.33-.11c.22-.23.33-1.25.42-3.75H34.16a5.46,5.46,0,0,1-2.77,4.66,3,3,0,0,0-.55-.56,4.87,4.87,0,0,0,2.58-4.09H31.07v-.71h2.38V51.81l.92.05c0,.06-.05.11-.18.13v1.41Z"/><path class="cls-3" d="M44.68,51.76h.64v8.4h-.64Z"/><rect class="cls-3" x="13.14" y="27.91" width="94.33" height="0.54"/><rect class="cls-3" x="13.14" y="46.73" width="94.33" height="0.54"/><image width="1058" height="645" transform="translate(4.66 135.73) scale(0.1)" xlink:href="../../Downloads/COLLAGE_ZERO_fix/26942296_1706521456071547_1041069672_o.png"/><path class="cls-2" d="M119.34,207.63H0v-74.1H119.34ZM.54,207.09H118.8v-73H.54Z"/><rect class="cls-2" x="41.71" y="50.38" width="7.4" height="11.92"/></g></g></svg>