<svg xmlns="http://www.w3.org/2000/svg" viewBox="0 0 508.7 613.07"><defs><style>.cls-1{fill:#fff;}.cls-2{fill:none;stroke:#fff;stroke-miterlimit:10;stroke-width:0.5px;}</style></defs><title>Asset 4</title><g id="Layer_2" data-name="Layer 2"><g id="レイヤー_1" data-name="レイヤー 1"><path class="cls-1" d="M198,35.84v-25h10.12a8.33,8.33,0,0,1,5.6,1.72,6.37,6.37,0,0,1,2,5.11,6.85,6.85,0,0,1-.59,2.92,6,6,0,0,1-1.64,2.14,7.18,7.18,0,0,1-2.5,1.29,11.06,11.06,0,0,1-3.2.44h-9.07V35.84Zm10.12-12.08a8.92,8.92,0,0,0,2.73-.4A6.3,6.3,0,0,0,213,22.17a5.58,5.58,0,0,0,1.45-1.91,6,6,0,0,0,.53-2.59,5.9,5.9,0,0,0-1.7-4.55q-1.7-1.58-5.2-1.58h-9.42V23.76Z"/><path class="cls-1" d="M223,35.84v-18h.7v4.45h.07a7,7,0,0,1,.77-1.91,5.37,5.37,0,0,1,1.4-1.56A6.86,6.86,0,0,1,228,17.78a8.69,8.69,0,0,1,2.82-.35v.7a6.75,6.75,0,0,0-3.2.51,6.07,6.07,0,0,0-2.22,1.68,7.05,7.05,0,0,0-1.29,2.47,9.93,9.93,0,0,0-.42,2.87V35.84Z"/><path class="cls-1" d="M236.54,23.29a9,9,0,0,1,1.56-3,7.87,7.87,0,0,1,2.54-2.08,8.09,8.09,0,0,1,7,0,7.88,7.88,0,0,1,2.54,2.08,9.05,9.05,0,0,1,1.56,3,12.29,12.29,0,0,1,0,7.1,9,9,0,0,1-1.56,3,7.41,7.41,0,0,1-6,2.83,7.51,7.51,0,0,1-3.47-.77,7.66,7.66,0,0,1-2.54-2.07,9,9,0,0,1-1.56-3,12.29,12.29,0,0,1,0-7.1Zm.65,6.84a8.38,8.38,0,0,0,1.42,2.78,7,7,0,0,0,2.33,1.92,6.85,6.85,0,0,0,3.2.72,6.78,6.78,0,0,0,3.17-.72,7,7,0,0,0,2.33-1.92A8.38,8.38,0,0,0,251,30.13a11.4,11.4,0,0,0,.47-3.29,11.28,11.28,0,0,0-.47-3.25,8.38,8.38,0,0,0-1.42-2.78,7.23,7.23,0,0,0-2.33-1.94,6.65,6.65,0,0,0-3.17-.73,6.72,6.72,0,0,0-3.2.73,7.23,7.23,0,0,0-2.33,1.94,8.38,8.38,0,0,0-1.42,2.78,11.28,11.28,0,0,0-.47,3.25A11.4,11.4,0,0,0,237.18,30.13Z"/><path class="cls-1" d="M260.44,40.37a2.22,2.22,0,0,1-.84,1.08,3.05,3.05,0,0,1-1.37.45,17,17,0,0,1-1.82.09v-.7q1,0,1.68-.07a2.32,2.32,0,0,0,1.12-.37,1.7,1.7,0,0,0,.61-.93,6.27,6.27,0,0,0,.19-1.75V17.85h.7V38.43A5.48,5.48,0,0,1,260.44,40.37Zm-.42-26V10.85h.7v3.54Z"/><path class="cls-1" d="M269.56,30.36a7.93,7.93,0,0,0,1.24,2.71A5.9,5.9,0,0,0,273,34.89a7.23,7.23,0,0,0,3.25.67,7.33,7.33,0,0,0,4.71-1.49,6.73,6.73,0,0,0,2.33-4.46h.7a7.17,7.17,0,0,1-2.49,4.88,7.87,7.87,0,0,1-5.18,1.73,8.06,8.06,0,0,1-3.59-.66,6.31,6.31,0,0,1-2.43-2,8.7,8.7,0,0,1-1.4-3,14.62,14.62,0,0,1-.46-3.73,11.18,11.18,0,0,1,.67-4,9.32,9.32,0,0,1,1.75-3,7.37,7.37,0,0,1,5.46-2.47,7.65,7.65,0,0,1,3.62.81,7.13,7.13,0,0,1,2.49,2.13,8.9,8.9,0,0,1,1.4,3,12.48,12.48,0,0,1,.37,3.57h-15A14.54,14.54,0,0,0,269.56,30.36ZM283,23.15a7.79,7.79,0,0,0-1.35-2.61,6.37,6.37,0,0,0-2.22-1.77,7,7,0,0,0-3.08-.65,6.77,6.77,0,0,0-2.75.56,6.52,6.52,0,0,0-2.24,1.63,8.42,8.42,0,0,0-1.56,2.57,10.79,10.79,0,0,0-.7,3.4h14.35A10.64,10.64,0,0,0,283,23.15Z"/><path class="cls-1" d="M305.63,32.42a6.48,6.48,0,0,1-1.56,2,6.87,6.87,0,0,1-2.24,1.3,8.37,8.37,0,0,1-2.82.45,7.76,7.76,0,0,1-3.41-.72,7.33,7.33,0,0,1-2.5-1.94,8.49,8.49,0,0,1-1.54-2.85,11.26,11.26,0,0,1-.53-3.48,13.42,13.42,0,0,1,.51-3.73,9.26,9.26,0,0,1,1.54-3.12,7.53,7.53,0,0,1,2.63-2.15,8.16,8.16,0,0,1,3.73-.81,7.6,7.6,0,0,1,2.42.39,6.55,6.55,0,0,1,2.06,1.12,6.19,6.19,0,0,1,1.52,1.84,6.9,6.9,0,0,1,.79,2.54h-.7a6.57,6.57,0,0,0-.77-2.29,5.76,5.76,0,0,0-1.36-1.61,5.47,5.47,0,0,0-1.82-1,7.16,7.16,0,0,0-2.13-.31,7.39,7.39,0,0,0-3.62.82,6.8,6.8,0,0,0-2.38,2.14A9,9,0,0,0,292.13,24a13.29,13.29,0,0,0-.4,3.2,10.44,10.44,0,0,0,.47,3.15A8.23,8.23,0,0,0,293.59,33a6.62,6.62,0,0,0,2.28,1.84,7,7,0,0,0,3.15.68,7.49,7.49,0,0,0,2.48-.4,6.13,6.13,0,0,0,4.17-5.44h.7A7.71,7.71,0,0,1,305.63,32.42Z"/><path class="cls-1" d="M316.2,32.34a4.33,4.33,0,0,0,.23,1.58,2,2,0,0,0,.58.84,1.51,1.51,0,0,0,.77.33,6.74,6.74,0,0,0,.84.05l.95,0a2,2,0,0,0,.59-.09v.7l-.61.07q-.3,0-1.1,0a3.13,3.13,0,0,1-2.08-.72,3.32,3.32,0,0,1-.86-2.64V18.55h-3.29v-.7h3.29V12.18h.7v5.67h4.06v.7H316.2Z"/><path class="cls-1" d="M146.17,153.76c0,.19-.19.32-.54.38,0,.13.54,20.2,14.77,26.58a4.24,4.24,0,0,0-.73.77c-10.11-4.63-13.34-16.08-14.39-22.72h0c-.83,6.7-3.57,17.64-14.2,22.65a4.35,4.35,0,0,0-.67-.64c13.56-6.32,14-22.75,14.26-27.12Z"/><path class="cls-1" d="M183.43,178.08h14v1H168.66v-1h13.82V157.37H170.25v-1H196v1H183.43Z"/><path class="cls-1" d="M214.8,158v6.22c0,.61,0,1.28-.06,1.92h6.54v1h-6.6a25.66,25.66,0,0,1-.57,3.67c1.4,1.37,5.52,5.84,6.51,7l-.67.8c-1.08-1.34-4.44-5.1-6.09-6.83a17.44,17.44,0,0,1-7,9.48,2.75,2.75,0,0,0-.64-.73,16.87,16.87,0,0,0,7.53-13.34h-7.37v-1h7.43c.06-.67.06-1.31.06-1.95V158h-3.7a23.75,23.75,0,0,1-2.94,6.13,8.85,8.85,0,0,0-.8-.51c1.88-2.52,3.35-6.83,4.21-11.23l1.44.38q-.1.29-.57.29c-.29,1.34-.64,2.68-1,4h9.83v1Zm8.1-2.71h11.33v25.3h-1V178h-9.41v2.81h-1Zm1,21.79h9.41V156.25h-9.41Z"/><path class="cls-1" d="M257.31,160.08a36.05,36.05,0,0,0-3-4.12l.7-.35a34.1,34.1,0,0,1,4.66,7l-.7.45a23.18,23.18,0,0,0-1.12-2.14c-4.72.25-9.7.48-12.73.61,0,.22-.19.32-.38.38l-.45-1.37,2.65-.06a57.94,57.94,0,0,0,3.76-7.91L252,153q-.09.24-.57.29a78.26,78.26,0,0,1-3.54,7.18Zm.13,4.59v15.54c0,1.56-.61,1.6-5,1.6a3.64,3.64,0,0,0-.42-1.05c1.15,0,2.11.06,2.84.06,1.5,0,1.63,0,1.63-.61v-4.75h-9v6.45h-1V164.68Zm-1,1h-9v3.86h9Zm-9,8.87h9v-4.05h-9Zm23.29-9.09c1.47,0,1.72-.61,1.85-4.18a2.61,2.61,0,0,0,1,.45c-.16,3.73-.54,4.69-2.78,4.69h-6.7c-2.43,0-3.13-.35-3.13-2.14v-11.8l1.44.13c0,.16-.16.29-.48.32v5.78a81.17,81.17,0,0,0,9.22-3.35l1,.93a.27.27,0,0,1-.22.06,1,1,0,0,1-.29,0,93.49,93.49,0,0,1-9.67,3.29v4.69c0,1,.32,1.18,2.07,1.18ZM262,179.26c0,1,.35,1.24,2.2,1.24h7c1.63,0,1.88-.67,2-4.69a3.11,3.11,0,0,0,1,.42c-.19,4.18-.57,5.2-2.94,5.2h-7c-2.49,0-3.22-.35-3.22-2.17V167.52l1.44.13c0,.16-.16.29-.48.32v5.39c3.51-1,7.63-2.3,9.76-3.67l.86,1a.27.27,0,0,1-.22.06.79.79,0,0,1-.26,0c-2.17,1.34-6.54,2.62-10.15,3.57Z"/><path class="cls-1" d="M288.24,154.69c-.13.35-.45.51-1.12.45a79.13,79.13,0,0,0-1.66,14.61,42,42,0,0,0,.54,7.56c.77-2,2.2-5.78,2.68-7l1,.35c-1.47,3.89-2.33,5.78-2.74,7.12a5.31,5.31,0,0,0-.25,1.47,2.81,2.81,0,0,0,.16.92l-1,.29a32.34,32.34,0,0,1-1.37-10.69,85.62,85.62,0,0,1,1.82-15.54Zm21.15,23c-1.12.06-2.27.1-3.38.1a42.6,42.6,0,0,1-6.29-.38c-3.57-.54-5.42-2.58-5.42-5,0-2.11,1.31-3.86,3.16-6l.86.57c-1.72,1.85-3,3.45-3,5.39s1.53,3.61,4.66,4.08a37.5,37.5,0,0,0,5.52.35c1.24,0,2.55,0,3.83-.13ZM294.49,159a97.31,97.31,0,0,0,14.17-1.25l.13,1.05A115.09,115.09,0,0,1,294.53,160Z"/><path class="cls-1" d="M344.48,178.62a31.67,31.67,0,0,0-10.82-5.55c0,.92,0,2.71,0,3.54,0,2.94-2.2,4.44-5.65,4.44-3.8,0-6.92-1.72-6.92-4.95,0-2.68,3-4.69,7.05-4.75a20.65,20.65,0,0,1,4.37.42c0-1.12-.19-2.07-.25-3-.26-4.08-.45-10.27-.45-15.51l2,.16c0,.32-.29.61-.86.67v6.45a80.88,80.88,0,0,0,11.2-1l.13,1.08a96.11,96.11,0,0,1-11.33.92c0,2.46.16,4.5.32,7.08.06,1,.22,2.23.29,3.35a35.47,35.47,0,0,1,11.52,5.77Zm-11.8-3.86c0-.67,0-1.37,0-1.91a15.78,15.78,0,0,0-4.05-.48c-4.34,0-6.48,1.79-6.48,3.73,0,2.62,2.84,3.92,5.81,3.92,3.19,0,4.75-1.28,4.75-3.38Z"/><path class="cls-1" d="M361.88,166.91a21.26,21.26,0,0,1,9.19-2.3c5.23,0,8.29,2.93,8.29,7.43,0,5.81-5.14,8.93-11.13,8.93-4.18,0-7-1.5-7-4.05,0-2.2,2.14-4,5-4,3.73,0,6.06,3.29,6.51,6.29,3.26-1.12,5.62-3.54,5.62-7.18,0-4-2.74-6.48-7.3-6.48-5.11,0-10.28,2.39-12.29,4.37-1.05,1-2.27,2.39-3.16,3.45l-.77-.77c3.25-3.54,13.14-13,17.52-17.13-2,.29-9,.51-13.43.64a.89.89,0,0,1-.57.48l-.22-1.5c4.5,0,12.22-.32,14.68-.67l.45-.22,1.12,1.21a1.64,1.64,0,0,1-.67.29c-2.68,2.26-9.41,8.74-11.8,11.13ZM368.19,180a14.37,14.37,0,0,0,3.54-.45c-.41-2.94-2.55-5.62-5.58-5.62-2.07,0-3.92,1.12-3.92,3C362.23,179.23,365.51,180,368.19,180Z"/><path class="cls-1" d="M45.15,209.13h-8v23.1H36v-23.1H27.92v-1H45.15Z"/><path class="cls-1" d="M71.14,208.14l-9,24.09h-1l-8-24.09H54.3l4.47,13.37c1.21,3.61,2.2,6.57,2.9,9.22h.06c.73-2.68,1.85-5.78,3.16-9.22l5-13.37Z"/><path class="cls-1" d="M95.85,231.33a15.43,15.43,0,0,1-6.57,1.25c-5.52,0-11.2-3.48-11.2-12.28,0-7,4.31-12.54,12.09-12.54a12.12,12.12,0,0,1,5.52,1.05l-.45.93a10.85,10.85,0,0,0-5-1.08c-6.83,0-11,4.56-11,11.74,0,6.8,3.92,11.26,10.59,11.26a12.53,12.53,0,0,0,5.55-1.18Z"/><path class="cls-1" d="M128.52,232.23h-1.12l-.73-11.74c-.29-4.21-.57-8.39-.54-10.78H126c-.89,2.52-1.85,5.2-3.32,8.9l-5.39,13.69h-.73L111.52,219c-1.47-3.92-2.49-6.67-3.22-9.25h-.1c-.06,2.78-.25,7-.57,11.13l-.8,11.39h-1.15l1.75-24.09h1.18l5.62,14.77c1.15,3.13,2,5.42,2.74,7.66H117c.64-2.14,1.5-4.21,2.78-7.53l5.81-14.9h1.28Z"/><path class="cls-1" d="M149.21,212.35l.64.22a.71.71,0,0,1-.16.26,40.55,40.55,0,0,1-3.35,13.94,25.13,25.13,0,0,1,4,3.54l-.61.8a24.45,24.45,0,0,0-3.8-3.45,17.25,17.25,0,0,1-6.64,7.15,4.14,4.14,0,0,0-.7-.83,16.25,16.25,0,0,0,6.54-6.92,41,41,0,0,0-5-3.16l-.45,1.63-.89-.48c.86-2.9,2-7.34,3-11.68h-3.7v-1H142c.57-2.49,1.12-4.91,1.53-7l1.44.22c0,.19-.19.29-.51.29-.41,1.88-.92,4.12-1.47,6.45h6Zm-6.41,1c-.8,3.35-1.66,6.8-2.43,9.64a48.59,48.59,0,0,1,5.17,3.16,37.69,37.69,0,0,0,3.13-12.79Zm24.66,6.51v1h-8.17v12.22c0,1-.29,1.37-1.08,1.56a29.29,29.29,0,0,1-5.2.16,6.21,6.21,0,0,0-.41-1c1.44,0,2.71.06,3.64.06,2,0,2.11,0,2.11-.77V220.83h-8.55v-1h8.55V214.1l.89.1a31,31,0,0,0,6-6.09h-14v-1H166l.22-.06.8.54a.66.66,0,0,1-.32.19,35.39,35.39,0,0,1-7.4,7.4v4.66Z"/><path class="cls-1" d="M179.92,210v3.86c0,3.57-.54,8.52-3.41,12.16a2,2,0,0,0-.73-.64c2.74-3.51,3.19-8.14,3.19-11.52V209h13.21a28.07,28.07,0,0,1-.45-3.61l1.56.06c0,.22-.19.32-.51.35.06,1.05.19,2.14.35,3.19H205v1H193.32a32.07,32.07,0,0,0,3.29,8.81,26.41,26.41,0,0,0,3.54-6.48l1.37.42c-.06.19-.29.29-.61.29a26.34,26.34,0,0,1-3.8,6.67c1.88,3,4,5,5.84,5,1,0,1.31-1.18,1.5-4.34a2.7,2.7,0,0,0,.89.48c-.26,3.64-.83,4.85-2.39,4.85-2.14,0-4.47-2-6.45-5.2a24.33,24.33,0,0,1-5.68,4.95,3.63,3.63,0,0,0-.73-.64,22.75,22.75,0,0,0,5.87-5.14,33.24,33.24,0,0,1-3.61-9.64Zm1.53,17.23c-.67,2.78-1.88,5.26-4.79,6.51l-.73-.57a8.1,8.1,0,0,0,4.66-6.16Zm-.22-13.56v-1h10.34v1Zm9.32,8.81h-7.37v1.31h-1v-7.62h8.33Zm-1-5.36h-6.41v4.4h6.41Zm-4.15,15.31c0,.73.32.89,2.23.89h7.24c1.56,0,1.79-.42,1.91-3.73a3.09,3.09,0,0,0,1,.42c-.16,3.51-.57,4.28-2.81,4.28h-7.21c-2.58,0-3.29-.25-3.29-1.88v-5.46l1.44.13c0,.16-.16.29-.48.32Zm7.21-3.19a21,21,0,0,0-6.16-3.89l.64-.67a19.87,19.87,0,0,1,6.19,3.8Zm4.44-23.87a15.73,15.73,0,0,1,4.82,2.33l-.57.83a16.19,16.19,0,0,0-4.82-2.42Zm7.4,28.27a22.6,22.6,0,0,0-6.22-6.25l.73-.54a22.25,22.25,0,0,1,6.25,6.22Z"/><path class="cls-1" d="M243.79,209.92H218.23v8.65c0,4.82-.35,11.58-3,16.4a2.82,2.82,0,0,0-.8-.57c2.62-4.69,2.87-11.14,2.87-15.83V209h12.41v-3.51l1.44.13c0,.16-.16.29-.48.32V209h13.15ZM239.58,224l.7.42a.79.79,0,0,1-.26.22,16.83,16.83,0,0,1-7.28,6.41,38.66,38.66,0,0,0,11.26,2.9,3.12,3.12,0,0,0-.57.86,40,40,0,0,1-11.71-3.29,43.05,43.05,0,0,1-12.25,3.22,3.29,3.29,0,0,0-.48-.86A42.18,42.18,0,0,0,230.74,231a17.1,17.1,0,0,1-6.48-5.55l.83-.38a16.32,16.32,0,0,0,6.64,5.49,16.29,16.29,0,0,0,6.89-5.55H220.18v-1h19.18Zm-2.33-2.87H225.67v-5.62h-5.81v-1h5.81V211.2l1.44.13c0,.16-.16.29-.48.32v2.9h9.67V211.2l1.44.13c0,.16-.16.29-.48.32v2.9h6.32v1h-6.32Zm-1-5.62h-9.67v4.66h9.67Z"/><path class="cls-1" d="M280.71,217.58l.7.25a.45.45,0,0,1-.22.26,50.49,50.49,0,0,1-7.4,7.56l-.73-.51a44.15,44.15,0,0,0,6.57-6.57H267.38v0h.35c0,.16-.16.26-.48.32v14.26c0,.93-.29,1.31-1.08,1.5s-1.5.16-5.42.16a5,5,0,0,0-.41-1c1.31,0,2.46,0,3.35,0,2.55,0,2.62,0,2.62-.73V218.57H252.67v-1h18.6A50.83,50.83,0,0,0,260,211.77l.67-.8a56.85,56.85,0,0,1,6.89,3.06,40.78,40.78,0,0,0,8.1-5.65h-20v-1h20.77a1.09,1.09,0,0,0,.54-.1l.89.67a.46.46,0,0,1-.35.16,49.78,49.78,0,0,1-8.9,6.44,28.4,28.4,0,0,1,3.92,2.49l-.38.51h8.36Z"/><path class="cls-1" d="M295.59,218.67a24.56,24.56,0,0,0-5.58-3.32l.54-.7a21.27,21.27,0,0,1,5.58,3.19Zm-4.82,15a100.2,100.2,0,0,0,4.82-10.34l.73.58a99.12,99.12,0,0,1-4.5,9.89.67.67,0,0,1,.13.38.72.72,0,0,1-.06.25Zm6-23.48a22.64,22.64,0,0,0-5.17-3.7l.61-.67a22.52,22.52,0,0,1,5.17,3.57ZM302,228.33a.59.59,0,0,1-.57.26,21.54,21.54,0,0,1-4.91,6.29,4.91,4.91,0,0,0-.73-.67,19.07,19.07,0,0,0,4.82-6.35Zm-3.22-21.28h9.09v19.81h-9.09Zm1,1v5.3h7.18V208Zm0,6.25v5.3h7.18v-5.3Zm0,6.25v5.39h7.18v-5.39Zm9.09,13a39.07,39.07,0,0,0-4-5.2l.77-.45a40.14,40.14,0,0,1,4,5.07Zm2.33-24.73,1.44.13c0,.16-.16.29-.48.32v18h-1Zm6-3.38,1.44.13c0,.19-.16.29-.48.32v27.15c0,1-.38,1.37-1.08,1.56a26.34,26.34,0,0,1-4.85.19,7.75,7.75,0,0,0-.41-1c1,0,1.82,0,2.55,0,2.65,0,2.84,0,2.84-.8Z"/><path class="cls-1" d="M329.42,215.67a50.93,50.93,0,0,1,8.87,2.81l-.41,1a52.45,52.45,0,0,0-8.84-2.81Zm2.65,16.14c10.75-3.83,17.84-9.57,22-19.21a7,7,0,0,0,.89.57c-4.24,9.7-11.46,15.54-21.63,19.27a.67.67,0,0,1-.29.73Zm.64-24.09a51,51,0,0,1,8.78,3.09l-.42,1a51.35,51.35,0,0,0-8.71-3.1Z"/><path class="cls-1" d="M384.26,209.35a.4.4,0,0,1-.32.22,50.85,50.85,0,0,1-6.67,11.29,118,118,0,0,1,12.41,11.49l-.86.67a111.46,111.46,0,0,0-12.22-11.36,49,49,0,0,1-13,11.39,5.41,5.41,0,0,0-.73-.8c9.45-5.2,16.78-15.22,19.69-22.33H366v-1h17l.25-.13Z"/><path class="cls-1" d="M424.51,218H413.18l.48.13c0,.19-.26.32-.57.35-.83,6.44-3.1,11.84-10.05,15.16a5.3,5.3,0,0,0-.73-.8c6.86-3.19,8.93-8.2,9.76-14.84H399v-1h25.56Zm-3.09-9.06H401.83v-1h19.59Z"/><path class="cls-1" d="M458.21,232.86c-.45-1-1.05-2.11-1.79-3.35-6.41.64-18.76,1.28-23.77,1.56a.87.87,0,0,1-.54.61l-.51-1.6c1,0,2.14-.06,3.41-.13,2.2-6.29,5.49-16.14,7.4-22.72l1.66.48c-.13.29-.38.38-.83.38-1.91,6.19-4.88,15.41-7.15,21.79,6.32-.29,14.9-.86,19.75-1.31a65.75,65.75,0,0,0-6.61-8.84l.86-.54a62.31,62.31,0,0,1,9.13,13.27Z"/><path class="cls-1" d="M470.36,226.64a67.06,67.06,0,0,1,7.43,7.24l-.93.89a66.17,66.17,0,0,0-7.31-7.37Z"/><path class="cls-1" d="M82.65,262.7H75.88v20h-4.4V258.42H82.65Zm-.7-3.57H72.18V282h3V262h6.76Z"/><path class="cls-1" d="M110.08,284.33a15.43,15.43,0,0,1-6.57,1.25c-5.52,0-11.2-3.48-11.2-12.28,0-7,4.31-12.54,12.09-12.54a12.12,12.12,0,0,1,5.52,1.05l-.45.93a10.84,10.84,0,0,0-5-1.08c-6.83,0-11,4.56-11,11.74,0,6.8,3.92,11.26,10.59,11.26a12.52,12.52,0,0,0,5.55-1.18Z"/><path class="cls-1" d="M128.24,273.55c2,.61,3.22,2.46,3.8,5.2.83,3.92,1.28,5.52,1.79,6.48h-1.18a32.47,32.47,0,0,1-1.56-5.93c-.77-3.54-2.3-5.39-5.62-5.39h-4.08v11.33h-1.12V261.46a25.08,25.08,0,0,1,4.88-.51c3.06,0,4.95.67,6.25,2A6,6,0,0,1,133,267.2c0,3.25-1.88,5.3-4.79,6.29Zm-2.9-.57c3.86,0,6.51-2.23,6.51-5.55,0-4.28-3.35-5.55-6.86-5.55a15.1,15.1,0,0,0-3.61.42V273Z"/><path class="cls-1" d="M156.25,285.23h-12V261.14h11.42v1h-10.3V272h9.73v1h-9.73v11.23h10.88Z"/><path class="cls-1" d="M184.19,285.23h-1.12l-3.25-8.77h-9.89l-3.19,8.77h-1.15l8.93-24.09h.83Zm-4.72-9.73-3.19-8.58c-.61-1.69-1-2.87-1.34-4.24h-.06c-.48,1.66-.8,2.65-1.34,4.18l-3.26,8.65Z"/><path class="cls-1" d="M205.6,262.13h-8v23.1h-1.12v-23.1h-8.07v-1H205.6Z"/><path class="cls-1" d="M215,261.14h1.12v24.09H215Z"/><path class="cls-1" d="M243.77,261.14l-9,24.09h-1l-8-24.09h1.24l4.47,13.37c1.21,3.61,2.2,6.57,2.9,9.22h.06c.73-2.68,1.85-5.78,3.16-9.22l5-13.37Z"/><path class="cls-1" d="M265.17,285.23h-12V261.14h11.42v1h-10.3V272H264v1h-9.73v11.23h10.88Z"/><path class="cls-1" d="M298.6,272.4A6.44,6.44,0,0,1,302,283.06c-1.56,1.69-4.12,2.33-7.34,2.33-1.69,0-3-.13-3.89-.19V261.49a19.13,19.13,0,0,1,4.5-.54c6.06,0,7.47,3.06,7.47,6a5.85,5.85,0,0,1-4.18,5.36Zm-2.87-.48c3.57,0,5.87-2.23,5.87-5v0c0-3.61-2.74-5-6.51-5a13.35,13.35,0,0,0-3.16.32v9.7Zm-3.8,12.28a12.19,12.19,0,0,0,3.09.25c3.86,0,7.53-1.47,7.53-5.81,0-4.15-3.61-5.81-7.4-5.81h-3.22Z"/><path class="cls-1" d="M322.61,273.55c2,.61,3.22,2.46,3.8,5.2.83,3.92,1.28,5.52,1.79,6.48H327a32.47,32.47,0,0,1-1.56-5.93c-.77-3.54-2.3-5.39-5.62-5.39h-4.08v11.33h-1.12V261.46a25.08,25.08,0,0,1,4.88-.51c3.06,0,4.95.67,6.25,2a6,6,0,0,1,1.63,4.21c0,3.25-1.88,5.3-4.79,6.29Zm-2.9-.57c3.86,0,6.51-2.23,6.51-5.55,0-4.28-3.35-5.55-6.86-5.55a15.1,15.1,0,0,0-3.61.42V273Z"/><path class="cls-1" d="M356,285.23h-1.12l-3.25-8.77h-9.89l-3.19,8.77h-1.15l8.93-24.09h.83Zm-4.72-9.73-3.19-8.58c-.61-1.69-1-2.87-1.34-4.24h-.06c-.48,1.66-.8,2.65-1.34,4.18l-3.26,8.65Z"/><path class="cls-1" d="M366.07,261.14h1.12v24.09h-1.12Z"/><path class="cls-1" d="M395.76,285.23h-1.12l-9.7-14.74c-1.82-2.81-3.41-5.17-4.66-7.59l-.1,0c.19,2.52.19,4,.19,9.35v13h-1.12V261.14h1.05l10,15.06a81.09,81.09,0,0,1,4.5,7.4l.06-.06c-.22-3.22-.22-5.84-.22-9.64V261.14h1.12Z"/><path class="cls-1" d="M407.05,283.5h6.76v-20h4.4v24.25H407.05Zm.7,3.57h9.76V264.23h-3v20h-6.76Z"/><path class="cls-1" d="M439,283.31a4.47,4.47,0,1,1-4.47-4.47A4.48,4.48,0,0,1,439,283.31Zm-1,0a3.51,3.51,0,1,0-3.51,3.51A3.5,3.5,0,0,0,438,283.31Z"/><path class="cls-1" d="M12,349.77v10H11.5v-.86h-10v-.48h10v-8.16H1.72v-.48Z"/><path class="cls-1" d="M31.78,352.46a.22.22,0,0,1-.13.09c-1.14,4.5-3.79,6.72-8.26,7.92a3,3,0,0,0-.25-.43c4.29-1.08,6.87-3.23,8-7.29H20.58v-.48H31.3l.09-.06Zm-1.23-3.58H22v-.48h8.52Z"/><path class="cls-1" d="M39.68,353.58H52.21v.5h-12a.57.57,0,0,1-.43.27Z"/><path class="cls-1" d="M59.84,352.08A24,24,0,0,1,64,353.4l-.2.46a24.62,24.62,0,0,0-4.15-1.32Zm1.25,7.59c5-1.77,8.4-4.53,10.33-9a3.33,3.33,0,0,0,.4.29c-2,4.53-5.46,7.33-10.14,9a.32.32,0,0,1-.13.34Zm.3-11.32a23.91,23.91,0,0,1,4.13,1.46l-.2.45a24.2,24.2,0,0,0-4.09-1.46Zm7.16-.51a12.89,12.89,0,0,1,2.07,2.24l-.36.27a13.06,13.06,0,0,0-2-2.23Zm1.95-1a12.89,12.89,0,0,1,2.07,2.24l-.36.27a13.44,13.44,0,0,0-2-2.22Z"/><path class="cls-1" d="M89.64,358.92v.45H79.44v-.45h6.3c.25-1.62.74-5.05.88-6.72h-6v-.45h6.13l.09,0,.42.24a.18.18,0,0,1-.15.08c-.2,1.68-.69,5.16-1,6.88Z"/><path class="cls-1" d="M102.94,354.11a1.27,1.27,0,1,1-1.27-1.28A1.27,1.27,0,0,1,102.94,354.11Z"/><path class="cls-1" d="M124.36,350.64l.46.31c0,.06-.11.09-.2.12a14,14,0,0,1-3.31,4.88,3.45,3.45,0,0,0-.36-.3,12.34,12.34,0,0,0,3.06-4.37l-6.87,1.8v4.25c0,1.68,1.17,2.21,2.42,2.21h2.52c.63,0,1.59-.06,2.19-.12v.5c-.58.06-1.64.1-2.15.1h-2.56c-1.56,0-2.9-.75-2.9-2.68v-4.11l-4.09,1.05-.13-.46,4.23-1.08V348l.81,0c0,.16-.15.22-.33.24v4.3l7.06-1.84Zm-1-.5a13.66,13.66,0,0,0-2-2.25l.33-.3a13.61,13.61,0,0,1,2,2.28Zm2-.81a12.45,12.45,0,0,0-2-2.25l.33-.3a11.68,11.68,0,0,1,2,2.28Z"/><path class="cls-1" d="M143.38,349.71v9.75h-.48v-1h-9.2v1h-.46v-9.79ZM142.9,358v-7.78h-9.2V358Z"/><path class="cls-1" d="M151.69,349.37c1.19,0,10.47-.79,12.3-.73v.51c-.21,0-.42,0-.63,0a4.5,4.5,0,0,0-2.38.66C158.32,351.3,156,354,156,356c0,2.37,1.44,3.79,5.46,4.38l-.19.46c-4.26-.67-5.78-2.13-5.78-4.84,0-2.31,2.36-5,5.45-6.84-1.5.09-6.58.45-8.92.66a.45.45,0,0,1-.3.22Zm9.51,2.54a11.68,11.68,0,0,1,2.17,2.12l-.34.28a10.46,10.46,0,0,0-2.13-2.1Zm1.5-1.3a10.82,10.82,0,0,1,2.17,2.11l-.34.29a10.9,10.9,0,0,0-2.13-2.1Z"/><path class="cls-1" d="M173,360.18a13.37,13.37,0,0,1-.69-5,38.94,38.94,0,0,1,.86-7.15l.84.19c0,.13-.15.24-.39.24a32.43,32.43,0,0,0-.82,6.72,15.31,15.31,0,0,0,.19,3.13c.41-1.12,1.11-2.71,1.47-3.51l.46.2a23.81,23.81,0,0,0-1.67,4.3,1.57,1.57,0,0,0,.21.73Zm6.09-8.55c.5,0,1.2,0,1.69-.06-.06-1.38-.1-2.56-.13-3.67l.9,0c0,.15-.17.25-.39.3,0,1,.06,2,.11,3.3a12.53,12.53,0,0,0,3.18-.66l.12.5a13.31,13.31,0,0,1-3.27.63c.08,1.89.17,3.9.2,4.84a11.74,11.74,0,0,1,3.24,2l-.32.41a10,10,0,0,0-2.91-1.92c.06,1.56-.11,3-2.25,3-1.7,0-2.9-.72-2.9-2,0-1.49,1.59-2,2.88-2a6.14,6.14,0,0,1,1.79.29c0-1-.15-2.9-.22-4.62-.5,0-1.2.06-1.7.06h-2.43v-.47Zm1.95,5.55a5.71,5.71,0,0,0-1.8-.33c-1,0-2.4.38-2.4,1.54s1.08,1.53,2.42,1.53,1.8-.6,1.8-2.16Z"/><path class="cls-1" d="M192.69,357.18a31.51,31.51,0,0,1,3.5,3.41l-.43.42a31.2,31.2,0,0,0-3.44-3.46Z"/><path class="cls-1" d="M206.38,348h12.42v13h-.45v-.78H206.83V361h-.45Zm.45,11.8h11.52V348.45H206.83Zm5.89-2.4h4.38v.45h-8.85v-.45h4V354H209v-.45h3.28v-2.91h-3.73v-.45h8.17v.45h-4v2.91h3.57V354h-3.57Zm3.25-.57a11.9,11.9,0,0,0-1.83-1.92l.33-.21a10.75,10.75,0,0,1,1.85,1.88Z"/><path class="cls-1" d="M230,347.85l.33.24a.17.17,0,0,1-.12.07c-.33,1.08-.84,2.57-1.32,3.86a5.64,5.64,0,0,1,1.41,3.46c0,1.88-.9,1.88-2,1.81a1.26,1.26,0,0,0-.17-.46l.7,0c.48,0,1,0,1-1.38a5.62,5.62,0,0,0-1.46-3.41c.5-1.29.95-2.67,1.28-3.75h-2.31V361h-.45V347.88h3Zm2.31,1.88a10.35,10.35,0,0,1,1.41,1,10.62,10.62,0,0,0,.64-1.75h-2.26a9.69,9.69,0,0,1-1.8,2.52,1.94,1.94,0,0,0-.39-.24,10,10,0,0,0,2.43-4.09l.66.2c0,.09-.12.13-.27.13-.12.34-.27.69-.42,1h2.26l.11,0a2,2,0,0,1,.3.17.36.36,0,0,1-.09.12,10.3,10.3,0,0,1-4.11,6.13,1.76,1.76,0,0,0-.33-.34,7.59,7.59,0,0,0,2.14-2,9.74,9.74,0,0,0-1.47-1.28l.31-.27a9.7,9.7,0,0,1,1.42,1.2,12.43,12.43,0,0,0,.65-1.06A8.82,8.82,0,0,0,232,350Zm.5,7.84a9.76,9.76,0,0,1-2.28,2.89,2.09,2.09,0,0,0-.33-.3,8.69,8.69,0,0,0,2.25-2.92c.21.06.42.13.63.21C233.06,357.54,233,357.57,232.82,357.57Zm6.55-1.17h-3.88v4c0,.34-.09.49-.39.57a9.69,9.69,0,0,1-2,.09,2,2,0,0,0-.18-.42l1.2,0c.83,0,.92,0,.92-.25v-4h-3.71V356h8Zm-6.6-2.27v-.45h5.07v.45Zm6.9-5.61.34.24s-.07.08-.12.09a14,14,0,0,1-2.12,3.64,6.76,6.76,0,0,0,2.45,2,1.55,1.55,0,0,0-.32.38c-2.4-1.23-4-3.87-4.75-7.17l.39-.1a12.75,12.75,0,0,0,2,4.6,11.46,11.46,0,0,0,1.8-3.15h-2.73v-.45h3Zm-.19,11.77a12.38,12.38,0,0,0-2.24-2.7l.34-.24a12,12,0,0,1,2.25,2.65Z"/><path class="cls-1" d="M260.43,352.34h-6.17c1,3.92,3.11,7,6.34,8.25a2.26,2.26,0,0,0-.36.41c-3.29-1.41-5.4-4.53-6.45-8.66h-.08c-.58,3.27-2.16,6.84-6.46,8.67a2.32,2.32,0,0,0-.33-.34c4.17-1.71,5.73-5.12,6.31-8.33h-6.12v-.45h6.2a30.14,30.14,0,0,0,.28-4.65l.74,0c0,.12-.1.18-.27.21a31.15,31.15,0,0,1-.27,4.41h6.63Z"/><path class="cls-1" d="M280.9,356.24v.45h-6.51v3.58a.62.62,0,0,1-.54.72,15.74,15.74,0,0,1-2.67.07,2.64,2.64,0,0,0-.24-.45l1.71,0c1.2,0,1.29,0,1.29-.36v-3.6h-6.41v-.45h6.41v-1.5l.5,0a13.71,13.71,0,0,0,3.09-1.8h-7.62v-.45h8.14l.11,0,.38.27a.21.21,0,0,1-.15.08,15.43,15.43,0,0,1-4,2.37v1Zm-12.48-5.91V353H268v-3.09h9.27a19.25,19.25,0,0,0,2-2.58l.54.31c0,.09-.15.11-.24.09a23.75,23.75,0,0,1-1.77,2.17h2.77V353h-.45v-2.64Zm2.16-.45a11.4,11.4,0,0,0-1.54-2.25l.38-.19a10,10,0,0,1,1.54,2.21Zm2.83-2.71a10,10,0,0,1,1.31,2.49l-.39.18A10.09,10.09,0,0,0,273,347.3Z"/><path class="cls-1" d="M298.65,350.37a.78.78,0,0,1-.15.17c-1.49,4.83-4,8.05-8.24,10.2a1.46,1.46,0,0,0-.31-.37,15.14,15.14,0,0,0,8-9.67h-6a15.35,15.35,0,0,1-3.46,3.9,2.76,2.76,0,0,0-.37-.31,15.87,15.87,0,0,0,4.84-6.62l.74.29c0,.15-.24.17-.39.15a20,20,0,0,1-1.06,2.11h6l.11,0Zm-1.57-3.22a11,11,0,0,1,2,2.26l-.36.27a10.33,10.33,0,0,0-2-2.24Zm2-.46a10.92,10.92,0,0,1,2,2.26l-.36.27a10.38,10.38,0,0,0-2-2.24Z"/><path class="cls-1" d="M317.8,349.71v9.75h-.48v-1h-9.2v1h-.46v-9.79Zm-.48,8.26v-7.78h-9.2V358Z"/><path class="cls-1" d="M326.08,353.58H338.6v.5h-12a.57.57,0,0,1-.43.27Z"/><path class="cls-1" d="M349.29,349.77c0,.1-.15.18-.36.2-.61,3.66-1.89,7.5-3.67,9.66a2.77,2.77,0,0,0-.42-.24c1.68-2,3.12-6,3.65-9.79Zm8.49,9.78a45.47,45.47,0,0,0-4.21-9.78l.41-.21a44.35,44.35,0,0,1,4.25,9.84ZM355,347.82a11.49,11.49,0,0,1,2,2.29l-.34.27a12.08,12.08,0,0,0-2-2.27Zm1.91-.95a11.52,11.52,0,0,1,2,2.29l-.34.27a12.11,12.11,0,0,0-2-2.26Z"/><path class="cls-1" d="M368.8,350c0,.13-.15.2-.32.22-.12,3.84-.39,7.65-2.86,10.26a1.62,1.62,0,0,0-.36-.27c2.38-2.5,2.66-6.17,2.75-10.32Zm3.9,9.24a10.77,10.77,0,0,0,5.75-6.43,1.89,1.89,0,0,0,.4.27,11.18,11.18,0,0,1-6.19,6.72.65.65,0,0,1-.2.25l-.36-.53.12-.17V348.08l.75.06a.28.28,0,0,1-.27.22Z"/><path class="cls-1" d="M390.44,354.11a1.27,1.27,0,1,1-1.27-1.28A1.27,1.27,0,0,1,390.44,354.11Z"/><path class="cls-1" d="M411.28,349.77v10h-.48v-.86h-10v-.48h10v-8.16H401v-.48Z"/><path class="cls-1" d="M420.25,357.59a41.65,41.65,0,0,1,9.63,2.19l-.18.46a40.3,40.3,0,0,0-9.54-2.19Zm1.25-4.71a50.1,50.1,0,0,1,7.3,1.25l-.15.48a42.73,42.73,0,0,0-7.26-1.25Zm.12-4.78a40.56,40.56,0,0,1,7.83,1.56l-.17.46a38.61,38.61,0,0,0-7.78-1.56Z"/><path class="cls-1" d="M449.06,358.92v.45h-10.2v-.45h6.3c.25-1.62.74-5.05.88-6.72h-6v-.45h6.13l.09,0,.42.24a.18.18,0,0,1-.15.08c-.2,1.68-.69,5.16-1,6.88Z"/><path class="cls-1" d="M469.67,358.38v.48H457.38v-.48Zm-1.44-8.5v.48H459v-.48Z"/><path class="cls-1" d="M488.46,351.41v.48h-4.09a.33.33,0,0,1-.25.16c-.41,3.66-1.91,6.74-5.14,8.58a3,3,0,0,0-.41-.33c3.24-1.74,4.71-4.65,5.08-8.41h-4.75a12.8,12.8,0,0,1-2.5,3.25,1.37,1.37,0,0,0-.41-.27,15.81,15.81,0,0,0,4.17-7.17l.84.23a.37.37,0,0,1-.39.19,23.79,23.79,0,0,1-1.46,3.29Z"/><path class="cls-1" d="M495.43,353.58H508v.5H496a.57.57,0,0,1-.43.27Z"/><path class="cls-1" d="M1.06,388a24,24,0,0,1,4.17,1.32l-.2.47a24.62,24.62,0,0,0-4.15-1.32Zm1.25,7.59c5.05-1.8,8.38-4.5,10.33-9a3.2,3.2,0,0,0,.42.27c-2,4.56-5.38,7.3-10.17,9.06a.32.32,0,0,1-.13.34Zm.3-11.33a24,24,0,0,1,4.13,1.46l-.2.45a24.11,24.11,0,0,0-4.09-1.46Z"/><path class="cls-1" d="M28.42,387.54v9H28v-.69H21v-.45h7v-3.61H21.54v-.45H28V388h-6.6v-.45Z"/><path class="cls-1" d="M37.12,385a17.46,17.46,0,0,1,4.51,2.08l-.27.41a17.82,17.82,0,0,0-4.46-2.1Zm.25,10.58c5.49-1.73,9.09-4.74,10.93-8.91a2.05,2.05,0,0,0,.42.25c-1.87,4.13-5.59,7.32-10.75,9a.51.51,0,0,1-.18.32Z"/><path class="cls-1" d="M60.11,390.11a1.27,1.27,0,1,1-1.27-1.28A1.27,1.27,0,0,1,60.11,390.11Z"/><path class="cls-1" d="M80.82,386.67l.46.32a.32.32,0,0,1-.2.12A14,14,0,0,1,77.77,392a3.34,3.34,0,0,0-.36-.3,12.34,12.34,0,0,0,3.06-4.36l-6.87,1.8v4.25c0,1.68,1.17,2.21,2.42,2.21h2.52c.63,0,1.59-.06,2.19-.12v.49c-.58.06-1.64.11-2.15.11H76c-1.56,0-2.9-.75-2.9-2.68v-4.11l-4.09,1-.13-.46,4.23-1.08V384l.81,0c0,.17-.15.23-.33.24v4.3l7.06-1.84Z"/><path class="cls-1" d="M88.44,385A17.46,17.46,0,0,1,93,387.08l-.27.41a17.82,17.82,0,0,0-4.46-2.1Zm.25,10.58c5.49-1.73,9.09-4.74,10.93-8.91a2.05,2.05,0,0,0,.42.25c-1.88,4.13-5.59,7.32-10.75,9a.51.51,0,0,1-.18.32Z"/><path class="cls-1" d="M116.74,386.07a.17.17,0,0,1-.13.11,18.69,18.69,0,0,1-2.29,5.14,24.5,24.5,0,0,1,2.13,1.37l-.3.4a20,20,0,0,0-2.08-1.36,14.54,14.54,0,0,1-5.67,4.93,1.34,1.34,0,0,0-.36-.35,14.54,14.54,0,0,0,5.59-4.83,26.5,26.5,0,0,0-3.85-1.75l.24-.42a28.49,28.49,0,0,1,3.88,1.77,17.17,17.17,0,0,0,2.14-4.69h-5.76a15.71,15.71,0,0,1-3.63,4.39,3.87,3.87,0,0,0-.36-.33,17.06,17.06,0,0,0,4.84-7l.73.21c-.06.13-.18.17-.36.15-.24.57-.63,1.42-1,2.05h5.67l.12,0Z"/><path class="cls-1" d="M123.8,389.58h12.52v.5h-12a.57.57,0,0,1-.43.27Z"/><path class="cls-1" d="M152.72,388.08l-.12,0a.58.58,0,0,1-.29-.08c-4.41,1.36-8.91,3.57-8.91,5.86,0,1.67,1.9,2.19,4.6,2.19a42.54,42.54,0,0,0,5.25-.3l0,.51a45.61,45.61,0,0,1-5.28.25c-3,0-5.1-.66-5.1-2.64,0-1.62,1.74-3.08,4.17-4.31-.47-.78-.68-2.58-.68-6.07l.95.09c0,.17-.17.3-.45.33,0,3,.12,4.69.62,5.44a39.72,39.72,0,0,1,5-1.92Z"/><path class="cls-1" d="M170.15,391.58H174V392H160.23v-.45H164v-4.51h-3v-.45h3v-3.24l.67.06c0,.08-.08.13-.22.15v3h5.2v-3.24l.67.06c0,.08-.07.13-.22.15v3h3.21v.45h-3.21Zm-4.68,1.81c0,.08-.13.11-.27.11a18.2,18.2,0,0,1-4.33,3.54,2.27,2.27,0,0,0-.32-.35,14.26,14.26,0,0,0,4.3-3.54Zm-1-6.33v4.51h5.2v-4.51Zm8.82,10a46.84,46.84,0,0,0-4.42-3.57l.33-.27a52,52,0,0,1,4.44,3.5Z"/><path class="cls-1" d="M193.07,384.08V396.2c0,.46-.17.66-.51.75a12.74,12.74,0,0,1-2.4.07,2.22,2.22,0,0,0-.21-.43h1.28c1.32,0,1.39,0,1.39-.39V384.53H181.21v12.52h-.45v-13Zm-2.17,2.57v.45H183v-.45Zm-1,2.5v4.59h-5.64V395h-.45v-5.82Zm-.45.45h-5.19v3.69h5.19Z"/><path class="cls-1" d="M200.13,385.37c1.19,0,10.47-.79,12.3-.73v.51c-.21,0-.42,0-.63,0a4.5,4.5,0,0,0-2.38.66c-2.66,1.53-4.94,4.18-4.94,6.27,0,2.37,1.44,3.79,5.46,4.38l-.19.46c-4.26-.67-5.78-2.13-5.78-4.84,0-2.31,2.36-5,5.45-6.84-1.5.09-6.58.45-8.92.66a.45.45,0,0,1-.3.22Zm9.51,2.54a11.68,11.68,0,0,1,2.17,2.12l-.34.28a10.46,10.46,0,0,0-2.13-2.1Zm1.5-1.3a10.82,10.82,0,0,1,2.17,2.11L213,389a10.9,10.9,0,0,0-2.13-2.1Z"/><path class="cls-1" d="M220,393.18a31.51,31.51,0,0,1,3.5,3.41L223,397a31.2,31.2,0,0,0-3.44-3.46Z"/><path class="cls-1" d="M240.64,395.39a7.26,7.26,0,0,1-3.09.58c-2.6,0-5.27-1.63-5.27-5.77,0-3.29,2-5.89,5.69-5.89a5.71,5.71,0,0,1,2.59.49l-.21.44a5.11,5.11,0,0,0-2.34-.51c-3.21,0-5.17,2.14-5.17,5.52,0,3.19,1.84,5.29,5,5.29a5.89,5.89,0,0,0,2.61-.56Z"/><path class="cls-1" d="M257.93,395.81h-.52l-.35-5.52c-.13-2-.27-3.95-.25-5.07h0c-.42,1.18-.87,2.44-1.56,4.18l-2.54,6.43h-.34l-2.38-6.27c-.69-1.84-1.17-3.13-1.52-4.35h0c0,1.3-.12,3.28-.27,5.23l-.37,5.35h-.54l.83-11.32h.55l2.64,6.94c.54,1.47.95,2.55,1.29,3.6h0c.3-1,.71-2,1.3-3.54l2.73-7h.6Z"/><path class="cls-1" d="M268.6,388.05a14.25,14.25,0,0,1,1.89,3l-.42.24a7.59,7.59,0,0,0-.45-.94l-1.94.09V397h-.45v-6.6l-2.46.08a.22.22,0,0,1-.18.18l-.21-.64h1c.39-.47.83-1.05,1.26-1.67a14.48,14.48,0,0,0-2.07-2.33l.3-.24c.19.17.38.34.57.54a24.66,24.66,0,0,0,1.63-3.12l.6.29c0,.08-.12.11-.25.11a26.42,26.42,0,0,1-1.7,3A12.15,12.15,0,0,1,266.9,388a34.5,34.5,0,0,0,1.89-3.09l.62.3a.33.33,0,0,1-.27.1,45.32,45.32,0,0,1-3.21,4.73l3.48-.06a14.7,14.7,0,0,0-1.2-1.72Zm-4.14,7.4a13.37,13.37,0,0,0,1.11-3.72l.66.18c0,.09-.11.13-.27.13a13.35,13.35,0,0,1-1.11,3.62Zm4.65-3.77a11.14,11.14,0,0,1,1,2.88l-.42.15a11.72,11.72,0,0,0-1-2.91Zm2.4,1.31a5.29,5.29,0,0,1-1.5,3.21l-.33-.26a4.92,4.92,0,0,0,1.42-3Zm1.6-9.57c0,.11-.15.14-.27.12a10.55,10.55,0,0,1-2.61,3.92,2.38,2.38,0,0,0-.37-.25,10,10,0,0,0,2.61-4Zm-2.4,6.24,1,0a29.46,29.46,0,0,0,1.61-3.87l.66.24a.29.29,0,0,1-.27.12c-.37,1-1,2.47-1.51,3.5l4.18-.2a20.56,20.56,0,0,0-1.49-1.71l.33-.22a17.25,17.25,0,0,1,2.43,3l-.34.29a10.06,10.06,0,0,0-.66-1c-2.07.13-4.2.25-5.56.31a.21.21,0,0,1-.18.18Zm2.21,6.28c0,.32.09.39.62.39h1.87c.45,0,.53-.23.57-1.75a1.16,1.16,0,0,0,.42.18c-.06,1.61-.21,2-.93,2h-1.93c-.84,0-1.07-.14-1.07-.8v-3.57l.67.06c0,.08-.08.14-.22.15Zm2.16-3.22a8.54,8.54,0,0,0-2.54-1.84l.3-.29a8.28,8.28,0,0,1,2.54,1.8Zm.61-9.51a8.45,8.45,0,0,0,3,3.79,1.5,1.5,0,0,0-.34.35,9.75,9.75,0,0,1-3-4Zm2.49,13.16a11.23,11.23,0,0,0-1.86-3.42l.36-.2a11.23,11.23,0,0,1,1.89,3.38Z"/><path class="cls-1" d="M291.55,383.27c0,.1-.12.13-.24.17a20.9,20.9,0,0,0,6.75,5.55,1.92,1.92,0,0,0-.3.38,21.69,21.69,0,0,1-6.79-5.62,20.19,20.19,0,0,1-6.63,5.77c-.06-.09-.19-.24-.28-.34a18.34,18.34,0,0,0,6.67-6ZM286.5,397v-6h9v6H295v-.71h-8.08V397ZM295,391.5h-8.08v4.37H295Zm-7.93-3.22h7.77v.45H287.1Z"/><path class="cls-1" d="M308.9,394.65h-3.32v1.42h-.45v-6.2a11.09,11.09,0,0,1-1.12,2.24,3.32,3.32,0,0,0-.34-.27,19.1,19.1,0,0,0,2.34-7.29h-2.13v-.45h5.68v.45h-3.1a29.72,29.72,0,0,1-.88,4h3.33Zm-.45-5.62h-2.87v5.17h2.87Zm9.18.66v.45H315.5V397H315v-6.88h-3c-.09,2.52-.63,5-3.16,6.9a1.94,1.94,0,0,0-.37-.3c2.47-1.85,3-4.25,3.09-6.6h-2.16v-.45h2.17v-5.21H310V384h7.3v.45H315.5v5.21Zm-5.55,0h3v-5.21h-3Z"/><path class="cls-1" d="M334.16,396.06c0,.33.09.39.57.39h1.68c.48,0,.55-.29.6-2.38a1.65,1.65,0,0,0,.43.21c0,2.14-.18,2.62-1,2.62h-1.72c-.78,0-1-.13-1-.85v-4.2h-3.94c-.6,2.45-2,4.26-5.58,5.17a1.61,1.61,0,0,0-.27-.37c3.39-.84,4.75-2.5,5.37-4.8h-4.47v-.45h4.58a18.47,18.47,0,0,0,.33-2.37c.24,0,.48,0,.71.06,0,.09-.11.15-.25.18-.08.75-.17,1.45-.3,2.13h4.29ZM329,385.73c0,.08-.1.13-.24.15-.41,2.1-1.38,3.58-4.37,4.32a1.48,1.48,0,0,0-.27-.36c2.83-.66,3.84-2.05,4.19-4.18Zm-4-.29v2h-.45V385h6v-1.8l.67.06c0,.08-.08.14-.23.15V385H337v2.4h-.45v-2Zm7.23.13.67.06c0,.07-.07.13-.22.15v3.13c0,.3.1.38.81.38h2.67c.48,0,.56-.1.6-.94a1.57,1.57,0,0,0,.43.18c-.06,1-.22,1.21-1,1.21h-2.71c-1,0-1.28-.12-1.28-.84Z"/><path class="cls-1" d="M350.17,391h-4.81c0,1.71-.13,4.24-1.33,6a1.44,1.44,0,0,0-.36-.3c1.13-1.67,1.25-4,1.25-5.71v-4.35h5.26Zm.53-6.83v.45h-6.62v-.45Zm-1,3h-4.36v3.42h4.36Zm8.16,1.35v.45h-2V397h-.45v-8.11H351.9c0,2.46-.33,5.63-2.46,8.05a1.16,1.16,0,0,0-.35-.32c2.1-2.35,2.36-5.44,2.36-7.86v-3.92l.52.2a25.49,25.49,0,0,0,5-1.63l.49.4a.14.14,0,0,1-.12,0l-.11,0a32.32,32.32,0,0,1-5.33,1.63v3Z"/><path class="cls-1" d="M369.3,383.91c0,.18-.2.25-.5.25-.18.92-.48,2.48-.67,3.39a20.28,20.28,0,0,1,2.08-.17c2.07,0,2.82,1.35,2.82,3.49a11.45,11.45,0,0,1-.6,3.65,2.56,2.56,0,0,1-2.49,1.95c-.63,0-1.39-.24-2.74-1.36a1.82,1.82,0,0,0,.24-.41c1.33,1.07,2,1.29,2.52,1.29a2,2,0,0,0,2-1.59,12.09,12.09,0,0,0,.58-3.51c0-1.83-.63-3-2.38-3A21.62,21.62,0,0,0,368,388a25.94,25.94,0,0,1-3.3,8.29l-.45-.21a24.32,24.32,0,0,0,3.25-8c-.93.1-2,.22-2.94.36l-.06-.48c.79-.11,2-.24,3.12-.36.24-1.09.51-2.52.71-3.88Zm3.85-.43a11.65,11.65,0,0,1,2.17,2.12l-.34.28a11.4,11.4,0,0,0-2.14-2.1Zm3.74,8.74a9.63,9.63,0,0,0-3.45-5.23l.36-.3a9.81,9.81,0,0,1,3.55,5.34Zm-1.52-9.33a11.62,11.62,0,0,1,2.17,2.12l-.34.28a11.4,11.4,0,0,0-2.14-2.1Z"/><path class="cls-1" d="M388.9,390.39l-2,.75v5.13c0,.42-.13.57-.42.66a8,8,0,0,1-1.75.08,2.6,2.6,0,0,0-.2-.43h1c.83,0,.87,0,.87-.3v-5c-.84.31-1.62.62-2.22.83a.23.23,0,0,1-.13.22l-.32-.58c.72-.24,1.67-.58,2.67-.95v-4H384v-.45h2.52v-3.19l.67.06c0,.09-.07.13-.22.15v3h1.89v.45H387v3.81l1.86-.69Zm4.59,5.64a8.66,8.66,0,0,0,1.69.13h2.69a1.62,1.62,0,0,0-.2.45h-2.49c-2.29,0-3.87-.45-4.78-2.73a6.7,6.7,0,0,1-1.91,3.17,3.29,3.29,0,0,0-.34-.27c1.26-1,2-3,2.29-5.28l.67.13c0,.09-.09.14-.25.14a14.49,14.49,0,0,1-.29,1.48,3.58,3.58,0,0,0,2.46,2.66v-5.19h-3.85v-.45h8.58v.45h-4.27V393h3.58v.45h-3.58Zm3.3-12.25v5H390v-5Zm-.45,2.28v-1.83h-5.87v1.83Zm0,2.31v-1.86h-5.87v1.86Z"/><path class="cls-1" d="M406.43,387.66a19.18,19.18,0,0,1-2.19,3.13,1.61,1.61,0,0,0-.3-.34,21.1,21.1,0,0,0,4-7.09l.64.21c0,.09-.13.12-.29.12a28.42,28.42,0,0,1-1.42,3.25l.27.08c0,.07-.08.12-.23.13v9.91h-.45Zm9,4.25h2.79v.45H407.79v-.45h2.76v-4.62H408.3v-.45h2.25v-3.36l.67.06c0,.08-.07.14-.22.15v3.15h3.95v-3.36l.67.06c0,.08-.08.14-.23.15v3.15H418v.45H415.4Zm-3.57,1.71c0,.08-.13.1-.27.1a12.18,12.18,0,0,1-3.34,3.33,2.16,2.16,0,0,0-.33-.31,10.91,10.91,0,0,0,3.32-3.36Zm-.83-6.33v4.62h3.95v-4.62Zm6.43,9.78a20.54,20.54,0,0,0-3.06-3.48l.36-.22a22.11,22.11,0,0,1,3.09,3.43Z"/><path class="cls-1" d="M424.64,386.09c1.23,0,5.5-.17,7.35-.24,0-.25-.09-2.48-.09-2.5l.9,0c0,.14-.1.25-.39.3,0,.48,0,1.36.06,2.16,1.76-.06,3.66-.1,5-.12v.51c-1.41,0-3.25,0-5,.09,0,1.27,0,2,.12,3.36a5.23,5.23,0,0,1,.17,1.56c0,1.42-.12,3.94-4.42,5.71l-.32-.41c2.76-1,4-2.58,4.26-4.35h0a2.34,2.34,0,0,1-2.05,1.14,2.46,2.46,0,0,1-2.42-2.55,2.7,2.7,0,0,1,2.58-2.73,2.36,2.36,0,0,1,1.69.63c0-.09,0-.17,0-.23,0-.33,0-1.21-.06-2.13-2.07.06-5.77.18-7.35.25Zm7.59,4.77c0-1-.2-2.31-1.8-2.31a2.13,2.13,0,0,0-2.13,2.25,2,2,0,0,0,2,2.05A1.94,1.94,0,0,0,432.23,390.86Z"/><path class="cls-1" d="M446.86,390a10,10,0,0,1,4.32-1.08c2.46,0,3.9,1.38,3.9,3.49,0,2.73-2.41,4.2-5.23,4.2-2,0-3.29-.71-3.29-1.91a2.11,2.11,0,0,1,2.34-1.86,3.28,3.28,0,0,1,3.06,3,3.53,3.53,0,0,0,2.64-3.37c0-1.86-1.29-3-3.43-3a9.3,9.3,0,0,0-5.78,2.05c-.5.48-1.06,1.13-1.48,1.62l-.36-.36c1.53-1.67,6.18-6.12,8.23-8.05-1,.13-4.24.24-6.31.3a.41.41,0,0,1-.27.23l-.11-.71c2.12,0,5.75-.15,6.9-.32l.21-.1.53.57a.78.78,0,0,1-.32.13c-1.26,1.06-4.42,4.11-5.55,5.23Zm3,6.15a6.77,6.77,0,0,0,1.67-.21,2.85,2.85,0,0,0-2.62-2.64c-1,0-1.85.52-1.85,1.39C447,395.81,448.57,396.17,449.83,396.17Z"/><path class="cls-1" d="M470.39,395.39a7.26,7.26,0,0,1-3.09.58c-2.6,0-5.27-1.63-5.27-5.77,0-3.29,2-5.89,5.69-5.89a5.71,5.71,0,0,1,2.59.49l-.21.44a5.11,5.11,0,0,0-2.34-.51c-3.21,0-5.17,2.14-5.17,5.52,0,3.19,1.84,5.29,5,5.29a5.89,5.89,0,0,0,2.61-.56Z"/><path class="cls-1" d="M487.68,395.81h-.52l-.35-5.52c-.13-2-.27-3.95-.25-5.07h0c-.42,1.18-.87,2.44-1.56,4.18l-2.54,6.43h-.34l-2.38-6.27c-.69-1.84-1.17-3.13-1.52-4.35h0c0,1.3-.12,3.28-.27,5.23l-.37,5.35h-.54l.83-11.32h.55l2.64,6.94c.54,1.47.95,2.55,1.29,3.6h0c.3-1,.71-2,1.3-3.54l2.73-7h.6Z"/><path class="cls-1" d="M499.33,386.46l.3.11a.34.34,0,0,1-.08.12,19.08,19.08,0,0,1-1.58,6.55,11.76,11.76,0,0,1,1.86,1.67l-.29.38a11.49,11.49,0,0,0-1.79-1.62,8.11,8.11,0,0,1-3.12,3.36,2,2,0,0,0-.33-.39,7.64,7.64,0,0,0,3.08-3.25,19.34,19.34,0,0,0-2.34-1.49l-.21.77-.42-.23c.41-1.36.95-3.45,1.42-5.49h-1.74v-.45H496c.27-1.17.52-2.31.72-3.27l.67.1c0,.09-.09.13-.24.13-.19.89-.43,1.94-.69,3h2.82Zm-3,.48c-.37,1.58-.78,3.19-1.14,4.53a23,23,0,0,1,2.43,1.49,17.71,17.71,0,0,0,1.47-6ZM507.91,390v.45h-3.84v5.75c0,.46-.13.64-.51.73a13.82,13.82,0,0,1-2.45.08,2.89,2.89,0,0,0-.19-.46l1.71,0c.93,0,1,0,1-.36v-5.76h-4V390h4v-2.71l.42,0a14.54,14.54,0,0,0,2.82-2.86h-6.58V384h6.94l.11,0,.38.25a.31.31,0,0,1-.15.09,16.6,16.6,0,0,1-3.48,3.48V390Z"/><path class="cls-1" d="M1.95,421.35v1.81a9.32,9.32,0,0,1-1.6,5.71,1,1,0,0,0-.34-.3,8.79,8.79,0,0,0,1.5-5.42V420.9H7.71a13.22,13.22,0,0,1-.21-1.7l.74,0c0,.11-.09.15-.24.17,0,.5.09,1,.17,1.5h5.59v.45H8.25a15.09,15.09,0,0,0,1.54,4.14,12.44,12.44,0,0,0,1.67-3l.65.2c0,.09-.14.13-.29.13A12.4,12.4,0,0,1,10,425.91c.88,1.41,1.89,2.35,2.75,2.34.45,0,.62-.55.71-2a1.26,1.26,0,0,0,.42.23c-.12,1.71-.39,2.28-1.12,2.28-1,0-2.1-1-3-2.44a11.43,11.43,0,0,1-2.67,2.32,1.72,1.72,0,0,0-.34-.3,10.68,10.68,0,0,0,2.76-2.42,15.61,15.61,0,0,1-1.7-4.53Zm.72,8.1a4,4,0,0,1-2.25,3.06l-.35-.27a3.81,3.81,0,0,0,2.19-2.9Zm-.11-6.37v-.45H7.42v.45Zm4.38,4.14H3.48v.62H3v-3.58H6.94Zm-.45-2.52h-3v2.07h3Zm-2,7.2c0,.35.15.42,1.05.42H9c.74,0,.84-.19.9-1.75a1.44,1.44,0,0,0,.45.2c-.08,1.65-.27,2-1.32,2H5.64c-1.21,0-1.54-.12-1.54-.88v-2.56l.67.06c0,.08-.08.13-.23.15Zm3.39-1.5A9.91,9.91,0,0,0,5,428.57l.3-.32A9.34,9.34,0,0,1,8.25,430ZM10,419.18a7.39,7.39,0,0,1,2.26,1.09l-.27.39a7.61,7.61,0,0,0-2.26-1.14Zm3.48,13.29a10.63,10.63,0,0,0-2.92-2.94l.34-.25a10.47,10.47,0,0,1,2.94,2.92Z"/><path class="cls-1" d="M33.83,421.32h-12v4.06c0,2.27-.17,5.45-1.42,7.71a1.34,1.34,0,0,0-.37-.27c1.23-2.21,1.35-5.24,1.35-7.44v-4.51H27.2v-1.65l.67.06c0,.08-.08.13-.22.15v1.44h6.18Zm-2,6.62.33.19a.38.38,0,0,1-.12.11,7.92,7.92,0,0,1-3.42,3,18.18,18.18,0,0,0,5.29,1.37,1.46,1.46,0,0,0-.27.4,18.78,18.78,0,0,1-5.5-1.54A20.25,20.25,0,0,1,22.4,433a1.54,1.54,0,0,0-.22-.41,19.85,19.85,0,0,0,5.52-1.35,8,8,0,0,1-3-2.61l.39-.18A7.69,7.69,0,0,0,28.16,431a7.66,7.66,0,0,0,3.24-2.61H22.73V428h9Zm-1.09-1.35H25.31v-2.64H22.58v-.45h2.73v-1.58L26,422c0,.08-.08.13-.23.15v1.37h4.54v-1.58L31,422c0,.08-.08.13-.23.15v1.37h3v.45h-3Zm-.45-2.64H25.76v2.19h4.54Z"/><path class="cls-1" d="M52.28,425.1H47.06l.22.06c0,.09-.12.15-.27.17-.39,3-1.67,5.68-4.74,7.21a1.87,1.87,0,0,0-.34-.37c3-1.47,4.2-4,4.59-7.06H40.46v-.48H52.28ZM50.1,421H41.72v-.48H50.1Zm.33-1.68a11.11,11.11,0,0,1,1.67,2.55l-.41.23A10.82,10.82,0,0,0,50,419.54Zm1.56-.63a12,12,0,0,1,1.71,2.54l-.42.19a11.11,11.11,0,0,0-1.68-2.47Z"/><path class="cls-1" d="M59.12,425.58H71.64v.5h-12a.57.57,0,0,1-.43.27Z"/><path class="cls-1" d="M89.25,422.07a.17.17,0,0,1-.13.11,18.69,18.69,0,0,1-2.29,5.14A24.5,24.5,0,0,1,89,428.69l-.3.4a20,20,0,0,0-2.08-1.36,14.54,14.54,0,0,1-5.67,4.93,1.33,1.33,0,0,0-.36-.35,14.54,14.54,0,0,0,5.59-4.83,26.5,26.5,0,0,0-3.85-1.75l.24-.42a28.49,28.49,0,0,1,3.88,1.77,17.17,17.17,0,0,0,2.14-4.69H82.79a15.71,15.71,0,0,1-3.63,4.39,3.87,3.87,0,0,0-.36-.33,17.06,17.06,0,0,0,4.84-7l.73.21c-.06.13-.18.17-.36.15-.24.57-.63,1.42-1,2.05h5.67l.12,0Z"/><path class="cls-1" d="M100,425.39a4.32,4.32,0,0,1,2.66-1.12c1.13,0,1.69.81,1.86,2.07,1.33-.62,3-1.3,4.33-1.8l.32.63h-.09a.43.43,0,0,1-.23-.09c-1.16.41-2.92,1.11-4.27,1.74a11.64,11.64,0,0,1,.06,1.33c0,.55,0,1.18-.06,1.84h-.54c0-.58.08-1.38.08-2.07a8,8,0,0,0,0-.9c-2,1-3.79,2.16-3.79,3.3s1.18,1.54,3.52,1.54a33.64,33.64,0,0,0,3.79-.15v.51c-1,.09-2.35.12-3.79.12-2.88,0-4-.72-4-2s1.88-2.61,4.21-3.78c-.12-1.29-.67-1.8-1.38-1.8-1.17,0-2.37.69-3.81,2.27a23.08,23.08,0,0,1-1.71,1.63l-.33-.34a10.92,10.92,0,0,0,4-6H97.13v-.48h2.6l1.18,0a21.58,21.58,0,0,0,.46-2.26l.88.15c0,.15-.13.24-.36.25a18.92,18.92,0,0,1-.44,1.86,21.7,21.7,0,0,0,5.58-.92l.1.5a22.37,22.37,0,0,1-5.82.9,11.87,11.87,0,0,1-1.3,3.07Z"/><path class="cls-1" d="M115.75,423.53a11.92,11.92,0,0,1,2.8,1.6l-.25.39a12.8,12.8,0,0,0-2.8-1.67Zm.2,8.94a52.21,52.21,0,0,0,2.73-5l.33.29a50.77,50.77,0,0,1-2.56,4.84.25.25,0,0,1,.06.17.2.2,0,0,1,0,.12Zm3-10.93a12,12,0,0,0-2.73-1.81l.27-.32a11.6,11.6,0,0,1,2.73,1.75Zm10.35,2.66h-4.74v3.12h3.58v5.59h-.45v-.58h-6.62V433h-.45v-5.71h3.48v-3.12h-4.74v-.45h4.74v-3.15c-1.29.23-2.67.44-4,.6a1.15,1.15,0,0,0-.15-.37,46.91,46.91,0,0,0,7.83-1.56l.54.38a.15.15,0,0,1-.12,0l-.11,0a29.25,29.25,0,0,1-3.58.84v3.24h4.74Zm-1.6,7.68v-4.11h-6.62v4.11Z"/><path class="cls-1" d="M147.7,420.35V432c0,.52-.17.73-.57.82a17.06,17.06,0,0,1-2.76.08,2.31,2.31,0,0,0-.19-.46h1.47c1.59,0,1.6,0,1.6-.43V428.1h-5v4.82h-.45V428.1h-4.56a8.83,8.83,0,0,1-1.91,5,1.14,1.14,0,0,0-.33-.33c1.71-2,1.89-4.65,1.89-6.81v-5.59Zm-10.38,5.59c0,.54,0,1.11-.06,1.71h4.51v-3.17h-4.45Zm4.45-5.15h-4.45V424h4.45Zm5.47,0h-5V424h5Zm-5,6.86h5v-3.17h-5Z"/><path class="cls-1" d="M157.69,419.82c0,.17-.17.27-.46.3-.12,1.58-.27,5.87-.27,8.1,0,2.46,1.2,3.66,3.3,3.66a7.43,7.43,0,0,0,5.79-3.12,1.53,1.53,0,0,0,.38.33,8,8,0,0,1-6.18,3.27c-2.32,0-3.78-1.41-3.78-4.17,0-1.8.15-6.66.27-8.54Z"/><path class="cls-1" d="M177.17,419.58c0,.15-.25.27-.45.27-.1.73-.25,1.54-.42,2.63a17.86,17.86,0,0,0,4.72-.9l.17.46a19.48,19.48,0,0,1-5,.93,35.79,35.79,0,0,1-2.85,9.6l-.46-.2a34.14,34.14,0,0,0,2.8-9.39h-3v-.5c.24,0,.56,0,.9,0s1.72,0,2.14,0c.17-1,.33-2.1.45-3Zm8,12.78-1.28,0a13.81,13.81,0,0,1-3.82-.39,1.94,1.94,0,0,1-1.42-1.91,3.51,3.51,0,0,1,.91-2.16l.39.25a3.2,3.2,0,0,0-.84,1.9c0,1.35,1.23,1.82,4.44,1.82.51,0,1,0,1.61-.06Zm-.46-7.3a16.16,16.16,0,0,0-5.36.75l-.15-.44a17.57,17.57,0,0,1,5.52-.79Z"/><path class="cls-1" d="M192.46,429.18a31.51,31.51,0,0,1,3.5,3.41l-.43.42a31.2,31.2,0,0,0-3.44-3.46Z"/><path class="cls-1" d="M212,419.84c0,.09-.09.15-.25.18,0,.06.25,9.49,6.94,12.49a2,2,0,0,0-.34.36c-4.75-2.17-6.27-7.56-6.76-10.68h0c-.39,3.15-1.68,8.29-6.67,10.65a2,2,0,0,0-.31-.3c6.38-3,6.6-10.69,6.71-12.75Z"/><path class="cls-1" d="M231.36,431.27h6.57v.45H224.42v-.45h6.5v-9.73h-5.75v-.45h12.09v.45h-5.9Z"/><path class="cls-1" d="M248,421.83v2.92c0,.29,0,.6,0,.9H251v.45h-3.1a12.23,12.23,0,0,1-.27,1.72c.66.64,2.59,2.75,3.06,3.27l-.31.38c-.51-.63-2.08-2.4-2.87-3.21a8.19,8.19,0,0,1-3.3,4.46,1.32,1.32,0,0,0-.3-.34,7.93,7.93,0,0,0,3.54-6.27H244v-.45h3.49c0-.32,0-.62,0-.92v-2.91h-1.74a11.17,11.17,0,0,1-1.38,2.88,4,4,0,0,0-.37-.24,14,14,0,0,0,2-5.28l.67.18c0,.09-.12.14-.27.14-.14.63-.3,1.26-.48,1.87h4.62v.45Zm3.81-1.27h5.33v11.89h-.45v-1.2h-4.42v1.32h-.45Zm.45,10.24h4.42V421h-4.42Z"/><path class="cls-1" d="M269.82,422.81a16.94,16.94,0,0,0-1.42-1.94l.33-.17a16,16,0,0,1,2.19,3.29l-.33.21a10.93,10.93,0,0,0-.52-1c-2.22.12-4.56.22-6,.29,0,.1-.09.15-.18.18l-.21-.64,1.25,0a27.14,27.14,0,0,0,1.77-3.72l.63.19c0,.08-.12.12-.27.14A37,37,0,0,1,265.4,423Zm.06,2.16v7.3c0,.74-.29.75-2.36.75a1.68,1.68,0,0,0-.2-.49l1.33,0c.71,0,.77,0,.77-.29V430h-4.21v3h-.45V425Zm-.45.45h-4.21v1.82h4.21Zm-4.21,4.17h4.21v-1.91h-4.21Zm10.95-4.27c.69,0,.81-.29.87-2a1.24,1.24,0,0,0,.45.21c-.08,1.75-.25,2.2-1.31,2.2H273c-1.14,0-1.47-.17-1.47-1v-5.55l.67.06c0,.08-.08.13-.22.15v2.71a38.21,38.21,0,0,0,4.33-1.57l.45.43a.12.12,0,0,1-.1,0h-.14a44.15,44.15,0,0,1-4.54,1.54v2.2c0,.45.15.56,1,.56ZM272,431.82c0,.46.17.58,1,.58h3.29c.76,0,.88-.32.95-2.21a1.44,1.44,0,0,0,.45.19c-.09,2-.27,2.45-1.38,2.45h-3.27c-1.17,0-1.51-.17-1.51-1V426.3l.67.06c0,.08-.08.13-.22.15V429a19.57,19.57,0,0,0,4.59-1.72l.4.45a.13.13,0,0,1-.1,0h-.12a21.59,21.59,0,0,1-4.77,1.68Z"/><path class="cls-1" d="M286.23,420.27c-.06.17-.21.24-.53.21a37.26,37.26,0,0,0-.78,6.87,19.79,19.79,0,0,0,.25,3.55c.36-.95,1-2.71,1.26-3.29l.45.17c-.69,1.83-1.09,2.71-1.29,3.34a2.47,2.47,0,0,0-.12.69,1.32,1.32,0,0,0,.07.43l-.48.13a15.2,15.2,0,0,1-.64-5,40.23,40.23,0,0,1,.85-7.3Zm9.94,10.8c-.53,0-1.07,0-1.59,0a20,20,0,0,1-3-.18c-1.68-.25-2.55-1.21-2.55-2.37a4.54,4.54,0,0,1,1.49-2.82l.4.27a3.92,3.92,0,0,0-1.39,2.53c0,.87.72,1.7,2.19,1.92a17.58,17.58,0,0,0,2.59.17c.58,0,1.2,0,1.8-.06Zm-7-8.79a45.74,45.74,0,0,0,6.66-.58l.06.5a54.1,54.1,0,0,1-6.71.58Z"/><path class="cls-1" d="M314.55,431.52a14.88,14.88,0,0,0-5.08-2.61c0,.43,0,1.27,0,1.67,0,1.38-1,2.08-2.66,2.08-1.79,0-3.25-.81-3.25-2.33,0-1.26,1.42-2.21,3.32-2.24a9.76,9.76,0,0,1,2.05.2c0-.52-.09-1-.12-1.41-.12-1.92-.21-4.83-.21-7.29l.95.08c0,.15-.14.28-.41.31v3a38.1,38.1,0,0,0,5.26-.46l.06.51a45.07,45.07,0,0,1-5.32.43c0,1.16.08,2.12.15,3.33,0,.46.11,1,.14,1.58a16.66,16.66,0,0,1,5.41,2.71ZM309,429.71c0-.32,0-.65,0-.9a7.44,7.44,0,0,0-1.91-.22c-2,0-3,.84-3,1.75,0,1.23,1.33,1.84,2.73,1.84s2.23-.6,2.23-1.59Z"/><path class="cls-1" d="M324.65,426a10,10,0,0,1,4.32-1.08c2.46,0,3.9,1.38,3.9,3.49,0,2.73-2.41,4.2-5.23,4.2-2,0-3.29-.71-3.29-1.91a2.11,2.11,0,0,1,2.34-1.86,3.28,3.28,0,0,1,3.06,3,3.53,3.53,0,0,0,2.64-3.37c0-1.86-1.29-3-3.43-3a9.3,9.3,0,0,0-5.78,2.05c-.5.48-1.06,1.13-1.48,1.62l-.36-.36c1.53-1.67,6.18-6.12,8.23-8.05-1,.13-4.24.24-6.31.3a.41.41,0,0,1-.27.23l-.11-.71c2.12,0,5.75-.15,6.9-.32l.21-.1.53.57a.78.78,0,0,1-.32.13c-1.26,1.06-4.42,4.11-5.55,5.23Zm3,6.15a6.77,6.77,0,0,0,1.67-.21,2.85,2.85,0,0,0-2.62-2.64c-1,0-1.85.52-1.85,1.39C324.81,431.81,326.36,432.17,327.62,432.17Z"/><path class="cls-1" d="M346.31,420.95h-3.78v10.86H342V420.95h-3.79v-.46h8.1Z"/><path class="cls-1" d="M360.36,420.48l-4.25,11.32h-.48l-3.78-11.32h.58l2.1,6.29c.57,1.69,1,3.09,1.37,4.33h0c.34-1.26.87-2.71,1.48-4.33l2.36-6.29Z"/><path class="cls-1" d="M373.84,431.39a7.26,7.26,0,0,1-3.09.58c-2.6,0-5.27-1.63-5.27-5.77,0-3.29,2-5.89,5.69-5.89a5.71,5.71,0,0,1,2.59.49l-.21.44a5.11,5.11,0,0,0-2.34-.51c-3.21,0-5.17,2.14-5.17,5.52,0,3.19,1.84,5.29,5,5.29a5.89,5.89,0,0,0,2.61-.56Z"/><path class="cls-1" d="M391.06,431.81h-.52l-.35-5.52c-.13-2-.27-3.95-.25-5.07h0c-.42,1.18-.87,2.44-1.56,4.18l-2.54,6.43h-.34l-2.38-6.27c-.69-1.84-1.17-3.13-1.52-4.35h0c0,1.3-.12,3.28-.27,5.23l-.37,5.35h-.54l.83-11.32h.55l2.64,6.94c.54,1.47.95,2.55,1.29,3.6h0c.3-1,.71-2,1.3-3.54l2.73-7h.6Z"/><path class="cls-1" d="M402.65,422.46l.3.11a.34.34,0,0,1-.08.12,19.08,19.08,0,0,1-1.58,6.55,11.76,11.76,0,0,1,1.86,1.67l-.29.38a11.49,11.49,0,0,0-1.79-1.62A8.11,8.11,0,0,1,398,433a2,2,0,0,0-.33-.39,7.64,7.64,0,0,0,3.08-3.25,19.35,19.35,0,0,0-2.34-1.49l-.21.77-.42-.23c.41-1.36.95-3.45,1.42-5.49h-1.74v-.45h1.85c.27-1.17.52-2.31.72-3.27l.67.1c0,.09-.09.13-.24.13-.19.89-.43,1.94-.69,3h2.82Zm-3,.48c-.37,1.58-.78,3.19-1.14,4.53a23,23,0,0,1,2.43,1.49,17.71,17.71,0,0,0,1.47-6ZM411.23,426v.45h-3.84v5.75c0,.46-.13.64-.51.73a13.82,13.82,0,0,1-2.45.08,2.89,2.89,0,0,0-.19-.46l1.71,0c.93,0,1,0,1-.36v-5.76h-4V426h4v-2.71l.42,0a14.54,14.54,0,0,0,2.82-2.86h-6.58V420h6.94l.11,0,.38.25a.31.31,0,0,1-.15.09,16.6,16.6,0,0,1-3.48,3.48V426Z"/><path class="cls-1" d="M419,421.35v1.81a9.32,9.32,0,0,1-1.6,5.71,1,1,0,0,0-.34-.3,8.79,8.79,0,0,0,1.5-5.42V420.9h6.21a13.22,13.22,0,0,1-.21-1.7l.74,0c0,.11-.09.15-.24.17,0,.5.09,1,.17,1.5h5.59v.45h-5.5a15.09,15.09,0,0,0,1.54,4.14,12.44,12.44,0,0,0,1.67-3l.65.2c0,.09-.14.13-.29.13a12.4,12.4,0,0,1-1.79,3.13c.88,1.41,1.89,2.35,2.75,2.34.45,0,.61-.55.71-2a1.26,1.26,0,0,0,.42.23c-.12,1.71-.39,2.28-1.12,2.28-1,0-2.1-1-3-2.44a11.43,11.43,0,0,1-2.67,2.32,1.72,1.72,0,0,0-.34-.3,10.68,10.68,0,0,0,2.76-2.42,15.61,15.61,0,0,1-1.7-4.53Zm.72,8.1a4,4,0,0,1-2.25,3.06l-.35-.27a3.81,3.81,0,0,0,2.19-2.9Zm-.11-6.37v-.45h4.86v.45Zm4.38,4.14h-3.46v.62H420v-3.58h3.92Zm-.45-2.52h-3v2.07h3Zm-2,7.2c0,.35.15.42,1.05.42H426c.74,0,.84-.19.9-1.75a1.44,1.44,0,0,0,.45.2c-.08,1.65-.27,2-1.32,2h-3.39c-1.21,0-1.54-.12-1.54-.88v-2.56l.67.06c0,.08-.08.13-.23.15Zm3.39-1.5a9.91,9.91,0,0,0-2.9-1.83l.3-.32a9.34,9.34,0,0,1,2.91,1.79ZM427,419.18a7.39,7.39,0,0,1,2.26,1.09l-.27.39a7.61,7.61,0,0,0-2.26-1.14Zm3.48,13.29a10.63,10.63,0,0,0-2.92-2.94l.34-.25a10.47,10.47,0,0,1,2.94,2.92Z"/><path class="cls-1" d="M450.83,421.32h-12v4.06c0,2.27-.17,5.45-1.42,7.71a1.34,1.34,0,0,0-.37-.27c1.23-2.21,1.35-5.24,1.35-7.44v-4.51h5.83v-1.65l.67.06c0,.08-.08.13-.22.15v1.44h6.18Zm-2,6.62.33.19a.38.38,0,0,1-.12.11,7.92,7.92,0,0,1-3.42,3,18.19,18.19,0,0,0,5.29,1.37,1.46,1.46,0,0,0-.27.4,18.78,18.78,0,0,1-5.5-1.54A20.25,20.25,0,0,1,439.4,433a1.54,1.54,0,0,0-.22-.41,19.85,19.85,0,0,0,5.52-1.35,8,8,0,0,1-3-2.61l.39-.18a7.69,7.69,0,0,0,3.12,2.58,7.66,7.66,0,0,0,3.24-2.61h-8.67V428h9Zm-1.09-1.35h-5.44v-2.64h-2.73v-.45h2.73v-1.58l.67.06c0,.08-.08.13-.22.15v1.37h4.54v-1.58l.68.06c0,.08-.08.13-.23.15v1.37h3v.45h-3Zm-.45-2.64h-4.54v2.19h4.54Z"/><path class="cls-1" d="M470.06,424.92l.33.12a.21.21,0,0,1-.1.12,23.75,23.75,0,0,1-3.48,3.55l-.34-.24a20.65,20.65,0,0,0,3.09-3.09h-5.76v0H464c0,.08-.08.12-.22.15v6.71c0,.43-.14.62-.51.71a14.43,14.43,0,0,1-2.55.08,2.26,2.26,0,0,0-.19-.45h1.57c1.2,0,1.23,0,1.23-.34v-6.87h-6.41v-.45h8.75a23.87,23.87,0,0,0-5.29-2.75l.32-.37a26.74,26.74,0,0,1,3.24,1.44,19.15,19.15,0,0,0,3.81-2.65h-9.42v-.45H468a.51.51,0,0,0,.25,0l.42.31a.21.21,0,0,1-.17.08,23.42,23.42,0,0,1-4.18,3,13.23,13.23,0,0,1,1.84,1.17l-.18.24H470Z"/><path class="cls-1" d="M478.93,425.43a11.56,11.56,0,0,0-2.62-1.56l.25-.33a10,10,0,0,1,2.63,1.5Zm-2.26,7.06a47.3,47.3,0,0,0,2.26-4.86l.34.27a46.75,46.75,0,0,1-2.11,4.65.32.32,0,0,1,.06.18.34.34,0,0,1,0,.12Zm2.8-11a10.66,10.66,0,0,0-2.43-1.74l.28-.32a10.61,10.61,0,0,1,2.43,1.68Zm2.47,8.52a.28.28,0,0,1-.27.12,10.11,10.11,0,0,1-2.31,3,2.23,2.23,0,0,0-.34-.31,9,9,0,0,0,2.26-3Zm-1.51-10h4.27v9.31h-4.27Zm.45.45v2.49h3.37v-2.49Zm0,2.94v2.49h3.37v-2.49Zm0,2.94v2.54h3.37V426.3Zm4.27,6.13a18.38,18.38,0,0,0-1.89-2.44l.36-.21a18.81,18.81,0,0,1,1.89,2.38Zm1.09-11.62.67.06c0,.08-.07.14-.22.15v8.44h-.45Zm2.8-1.59.68.06c0,.09-.08.13-.23.15V432.2c0,.48-.18.64-.51.73a12.39,12.39,0,0,1-2.28.09,3.63,3.63,0,0,0-.19-.45h1.2c1.25,0,1.33,0,1.33-.37Z"/><path class="cls-1" d="M496.7,424a24,24,0,0,1,4.17,1.32l-.2.47a24.62,24.62,0,0,0-4.15-1.32Zm1.25,7.59c5.05-1.8,8.38-4.5,10.33-9a3.2,3.2,0,0,0,.42.27c-2,4.56-5.38,7.3-10.17,9.06a.32.32,0,0,1-.13.34Zm.3-11.33a24,24,0,0,1,4.13,1.46l-.2.45a24.11,24.11,0,0,0-4.09-1.46Z"/><path class="cls-1" d="M10.71,457.05a.19.19,0,0,1-.15.1,23.9,23.9,0,0,1-3.14,5.31,55.43,55.43,0,0,1,5.83,5.4l-.4.31a52.53,52.53,0,0,0-5.75-5.34A23,23,0,0,1,1,468.2a2.45,2.45,0,0,0-.35-.37,22.93,22.93,0,0,0,9.25-10.5H2.13v-.48h8l.12-.06Z"/><path class="cls-1" d="M31.37,461.12H26l.22.06c0,.09-.12.15-.27.17-.39,3-1.46,5.57-4.72,7.13a2.6,2.6,0,0,0-.35-.37c3.23-1.5,4.2-3.85,4.59-7H19.35v-.48h12Zm-1.45-4.26H20.7v-.48h9.21Z"/><path class="cls-1" d="M49,468.11c-.21-.45-.5-1-.84-1.57-3,.3-8.82.6-11.17.73a.41.41,0,0,1-.25.29l-.24-.75,1.61-.06c1-3,2.58-7.59,3.48-10.68l.78.22c-.06.13-.18.18-.39.18-.9,2.91-2.29,7.24-3.36,10.24,3-.13,7-.41,9.28-.62a30.83,30.83,0,0,0-3.1-4.15l.41-.25a29.29,29.29,0,0,1,4.29,6.24Z"/><path class="cls-1" d="M62.22,457.22H59v9.39H57v-11.4h5.25Zm-.33-1.68H57.3v10.74h1.41v-9.39h3.18Z"/><path class="cls-1" d="M76.73,467.39a7.26,7.26,0,0,1-3.09.58c-2.6,0-5.27-1.63-5.27-5.77,0-3.29,2-5.89,5.69-5.89a5.71,5.71,0,0,1,2.59.49l-.21.44a5.11,5.11,0,0,0-2.34-.51c-3.21,0-5.17,2.14-5.17,5.52,0,3.19,1.84,5.29,5,5.29a5.89,5.89,0,0,0,2.61-.56Z"/><path class="cls-1" d="M87,462.32a2.9,2.9,0,0,1,1.78,2.44,13.15,13.15,0,0,0,.84,3H89a15.33,15.33,0,0,1-.73-2.79c-.36-1.66-1.08-2.53-2.64-2.53H83.75v5.32h-.52V456.63a11.77,11.77,0,0,1,2.29-.24,3.76,3.76,0,0,1,2.94,1,2.84,2.84,0,0,1,.77,2,3,3,0,0,1-2.25,3ZM85.61,462c1.81,0,3.06-1,3.06-2.61,0-2-1.58-2.61-3.22-2.61a7.08,7.08,0,0,0-1.7.2v5Z"/><path class="cls-1" d="M101.84,467.81H96.2V456.48h5.37v.46H96.72v4.65h4.58v.47H96.72v5.28h5.12Z"/><path class="cls-1" d="M116.66,467.81h-.52l-1.53-4.12H110l-1.5,4.13h-.54l4.2-11.32h.39Zm-2.22-4.57-1.5-4a20.9,20.9,0,0,1-.63-2h0c-.22.78-.37,1.25-.63,2l-1.53,4.07Z"/><path class="cls-1" d="M128.46,456.95h-3.78v10.86h-.53V456.95h-3.79v-.46h8.1Z"/><path class="cls-1" d="M134.56,456.48h.52v11.32h-.52Z"/><path class="cls-1" d="M149.79,456.48l-4.25,11.32h-.48l-3.78-11.32h.58l2.1,6.29c.57,1.69,1,3.09,1.37,4.33h0c.34-1.26.87-2.71,1.48-4.33l2.36-6.29Z"/><path class="cls-1" d="M161.54,467.81H155.9V456.48h5.37v.46h-4.84v4.65H161v.47h-4.58v5.28h5.12Z"/><path class="cls-1" d="M180.48,461.78a3,3,0,0,1,1.62,5,4.54,4.54,0,0,1-3.45,1.09c-.79,0-1.41-.06-1.83-.09V456.65a9,9,0,0,1,2.11-.25c2.85,0,3.51,1.44,3.51,2.8a2.75,2.75,0,0,1-2,2.52Zm-1.35-.23a2.49,2.49,0,0,0,2.76-2.35h0c0-1.7-1.29-2.34-3.06-2.34a6.33,6.33,0,0,0-1.49.15v4.56Zm-1.79,5.78a5.75,5.75,0,0,0,1.46.12c1.82,0,3.54-.69,3.54-2.73s-1.7-2.73-3.48-2.73h-1.52Z"/><path class="cls-1" d="M193.47,462.32a2.9,2.9,0,0,1,1.78,2.44,13.15,13.15,0,0,0,.84,3h-.56a15.33,15.33,0,0,1-.73-2.79c-.36-1.66-1.08-2.53-2.64-2.53h-1.92v5.32h-.52V456.63a11.77,11.77,0,0,1,2.29-.24,3.76,3.76,0,0,1,2.94,1,2.84,2.84,0,0,1,.77,2,3,3,0,0,1-2.25,3ZM192.1,462c1.81,0,3.06-1,3.06-2.61,0-2-1.58-2.61-3.22-2.61a7.08,7.08,0,0,0-1.7.2v5Z"/><path class="cls-1" d="M210.86,467.81h-.52l-1.53-4.12h-4.65l-1.5,4.13h-.54l4.2-11.32h.39Zm-2.22-4.57-1.5-4a20.9,20.9,0,0,1-.63-2h0c-.22.78-.37,1.25-.63,2l-1.53,4.07Z"/><path class="cls-1" d="M217.29,456.48h.52v11.32h-.52Z"/><path class="cls-1" d="M233,467.81h-.53l-4.56-6.93c-.86-1.32-1.61-2.43-2.19-3.57h0c.09,1.18.09,1.89.09,4.39v6.09h-.52V456.48h.5l4.69,7.08A37.92,37.92,0,0,1,232.5,467l0,0c-.11-1.51-.11-2.75-.11-4.53v-6H233Z"/><path class="cls-1" d="M239.88,467h3.18v-9.39h2.07V469h-5.25Zm.33,1.68h4.59V457.94h-1.41v9.39h-3.18Z"/><path class="cls-1" d="M259.74,457.38a.31.31,0,0,1-.33.23c-.48,4.35-2.08,9.18-4.5,9.18-1,0-2.11-1.2-2.11-3.42a6.52,6.52,0,0,1,6.66-6.6c4.39,0,6,2.92,6,5.61,0,3.6-2.22,5.25-5.75,6,0-.09-.19-.33-.25-.45,3.48-.66,5.52-2.35,5.52-5.52,0-2.5-1.51-5.17-5.55-5.17h-.24Zm-.78-.13a6.09,6.09,0,0,0-5.71,6.12c0,1.84.9,2.92,1.67,2.92C257,466.29,258.5,461.78,259,457.25Z"/><path class="cls-1" d="M277.63,460.82h-4.8V469h-.45V455.94h5.25Zm-.45-4.42h-4.35v1.71h4.35Zm-4.35,4h4.35v-1.81h-4.35Zm9.95,4.67h-2.45v3.67h-.45V465H277a5,5,0,0,1-2.16,3.84,1.45,1.45,0,0,0-.35-.33,4.33,4.33,0,0,0,2.07-3.51h-2.29v-.45h2.29v-2.17h-2V462h7.77v.45h-2.05v2.17h2.45Zm-5.76-.45h2.86v-2.17H277Zm7.71-8.64v12.21c0,.46-.13.67-.48.76A13,13,0,0,1,282,469a1.87,1.87,0,0,0-.2-.5l1.37,0c1.07,0,1.11,0,1.11-.36v-7.35h-4.94v-4.87Zm-.45.45h-4.49v1.71h4.49Zm-4.49,4h4.49v-1.81h-4.49Z"/><path class="cls-1" d="M297.31,455.9l.33.21a.21.21,0,0,1-.12.1,12.26,12.26,0,0,1-6,6.15,2.41,2.41,0,0,0-.32-.37,11.64,11.64,0,0,0,3.56-2.45,19.46,19.46,0,0,0-2.21-1.9l.3-.27a21,21,0,0,1,2.22,1.86,9.63,9.63,0,0,0,1.91-2.83h-4.53v-.45h4.82Zm2.94,12c0,.42.12.51.75.51h2.34c.57,0,.65-.32.71-2.14a1.07,1.07,0,0,0,.44.21c-.06,1.9-.21,2.38-1.12,2.38H301c-.95,0-1.21-.15-1.21-1v-3.25h-3.5c-.18,1.71-1,3.3-4.18,4.46a1.37,1.37,0,0,0-.3-.36c3-1.08,3.83-2.55,4-4.1h-3.78v-.45h3.81c0-.18,0-.35,0-.53v-2.31h-2v-.45h8.58v.45h-2.25v2.83h4v.45h-4Zm-3.9-4.25c0,.18,0,.34,0,.53h3.47v-2.83h-3.45Zm6.66-8c0,.06-.12.08-.22.08a27,27,0,0,1-2.47,2.08,13,13,0,0,0,1.3,1.56,20.28,20.28,0,0,0,2.68-2.31l.51.36c0,.06-.12.07-.23.07a27.11,27.11,0,0,1-2.68,2.16,10.37,10.37,0,0,0,3.36,2.16,2.46,2.46,0,0,0-.31.38,12.57,12.57,0,0,1-6.39-6.76l.38-.13a11.9,11.9,0,0,0,1.15,2.2,20.41,20.41,0,0,0,2.42-2.2Z"/><path class="cls-1" d="M314.38,461.39a4.32,4.32,0,0,1,2.66-1.12c1.13,0,1.69.81,1.86,2.07,1.33-.62,3-1.3,4.33-1.8l.32.63h-.09a.43.43,0,0,1-.23-.09c-1.16.41-2.92,1.11-4.27,1.74a11.64,11.64,0,0,1,.06,1.33c0,.55,0,1.18-.06,1.84h-.54c0-.58.08-1.38.08-2.07a8,8,0,0,0,0-.9c-2,1-3.79,2.16-3.79,3.3s1.18,1.54,3.52,1.54a33.64,33.64,0,0,0,3.79-.15v.51c-1,.09-2.35.12-3.79.12-2.88,0-4-.72-4-2s1.88-2.61,4.21-3.78c-.12-1.29-.67-1.8-1.38-1.8-1.17,0-2.37.69-3.81,2.27a23.08,23.08,0,0,1-1.71,1.63l-.33-.34a10.92,10.92,0,0,0,4-6h-3.65v-.48h2.6l1.18,0a21.58,21.58,0,0,0,.46-2.26l.88.15c0,.15-.13.24-.36.25a18.92,18.92,0,0,1-.44,1.86,21.7,21.7,0,0,0,5.58-.92l.1.5a22.37,22.37,0,0,1-5.82.9,11.87,11.87,0,0,1-1.3,3.07Z"/><path class="cls-1" d="M332.74,461.33v5c1.35,2,3.93,2,6.5,2,1.62,0,3.54,0,4.6-.09a1.13,1.13,0,0,0-.17.46c-1,0-2.75,0-4.26,0-3,0-5.29,0-6.87-2-.73.72-1.5,1.46-2.11,2a.18.18,0,0,1-.09.2l-.36-.5c.69-.55,1.56-1.35,2.31-2.1v-4.59H330.1v-.45Zm-2-5.73a10.31,10.31,0,0,1,2.55,2.58l-.36.28a10.36,10.36,0,0,0-2.54-2.62Zm4.56,11.4v-7.89a12.07,12.07,0,0,1-1.75,2.13,3.73,3.73,0,0,0-.36-.29,14.28,14.28,0,0,0,3.52-5.71l.65.21c0,.08-.12.12-.29.12a19.73,19.73,0,0,1-1.07,2.37h3a22.05,22.05,0,0,0,1.15-2.61l.62.24c0,.08-.12.12-.25.12-.25.63-.67,1.54-1,2.25h4v.45h-3.87v2.08H343v.45h-3.42V463H343v.45h-3.42v2.17h4.15v.45h-8V467Zm3.83-6.52v-2.08h-3.37v2.08Zm0,2.56v-2.12h-3.37V463Zm0,2.63v-2.17h-3.37v2.17Z"/><path class="cls-1" d="M359.55,455.7c0,.13-.19.2-.42.23a26.68,26.68,0,0,1-.58,3,4.68,4.68,0,0,1,4.41,4.67c0,2.65-2.16,4.36-6,4.87-.08-.17-.12-.28-.2-.43,3.67-.45,5.71-2.07,5.71-4.42,0-2.05-1.38-3.85-4-4.21a15.16,15.16,0,0,1-3,5.92,5.91,5.91,0,0,0,.81.9l-.39.33a8.18,8.18,0,0,1-.74-.87,4.53,4.53,0,0,1-3.1,1.53c-1.16,0-1.87-1-1.87-2.67a5.37,5.37,0,0,1,2.71-4.45c-.29-1.16-.53-2.45-.77-3.87l.89,0a.36.36,0,0,1-.32.33c.18,1.17.38,2.28.62,3.32a9,9,0,0,1,4.14-1h.64a30.87,30.87,0,0,0,.65-3.34Zm-4.71,9.6a16.93,16.93,0,0,1-1.87-4.72,4.86,4.86,0,0,0-2.36,4c0,1.27.44,2.21,1.4,2.21A4.11,4.11,0,0,0,354.84,465.3Zm.32-.37a14.13,14.13,0,0,0,2.76-5.58l-.51,0a8.48,8.48,0,0,0-4,1A16.3,16.3,0,0,0,355.16,464.93Z"/><path class="cls-1" d="M368,457.37c1.19,0,10.47-.79,12.3-.73v.51c-.21,0-.42,0-.63,0a4.5,4.5,0,0,0-2.38.66c-2.66,1.53-4.94,4.18-4.94,6.27,0,2.37,1.44,3.79,5.46,4.38l-.19.46c-4.26-.67-5.78-2.13-5.78-4.84,0-2.31,2.36-5,5.45-6.84-1.5.09-6.58.45-8.92.66a.45.45,0,0,1-.3.22Z"/><path class="cls-1" d="M388.32,457.19c0,.15-.19.22-.43.24a24,24,0,0,0-.21,3.33c0,.72,0,1.41.08,2,.21,2.91,1.46,4.59,2.79,4.57.66,0,1.56-1.56,2.23-3.52a2.39,2.39,0,0,0,.42.24c-.76,2.05-1.63,3.76-2.68,3.78-1.58,0-3-1.87-3.24-5-.06-.6-.08-1.29-.08-2,0-1.28.08-2.64.2-3.83Zm11,6.79a7.75,7.75,0,0,0-3.95-5.8l.29-.39a8.1,8.1,0,0,1,4.15,6.08Z"/><path class="cls-1" d="M406,457.71c.94.06,2.05.06,3,.06.81,0,1.75,0,2.52,0,0-.77,0-1.68,0-2.25l.93.06c0,.18-.13.25-.42.3,0,.51,0,1.26,0,1.86a27.66,27.66,0,0,0,5.28-.64l.1.48a28.13,28.13,0,0,1-5.4.65l.09,3.22a23.27,23.27,0,0,0,4.53-.63l.11.5a28.66,28.66,0,0,1-4.62.58l.12,2.89a17.76,17.76,0,0,1,4.67,2.5l-.32.42a16.18,16.18,0,0,0-4.32-2.42c0,.32,0,.66,0,.9a2.1,2.1,0,0,1-2.37,2.38c-1.86,0-3.27-.66-3.27-2.05s1.65-2.1,3.22-2.1a7.18,7.18,0,0,1,1.89.23c0-.77-.06-1.73-.09-2.73l-1.64,0c-2.14,0-3.28-.13-3.28-1.14,0-.53.4-.93,1.27-1.53l.34.34c-1,.57-1.12.92-1.12,1.21,0,.51,1,.65,2.79.65l1.61,0-.09-3.21c-1.1,0-2.08,0-3.5,0-.71,0-1.47,0-2.05,0Zm5.82,7.4a6.9,6.9,0,0,0-1.92-.26c-1.27,0-2.75.53-2.75,1.64s1.26,1.6,2.79,1.6,1.89-.63,1.89-1.92Z"/><path class="cls-1" d="M424.24,458.09c1.23,0,5.5-.17,7.35-.24,0-.25-.09-2.48-.09-2.5l.9,0c0,.14-.1.25-.39.3,0,.48,0,1.36.06,2.16,1.76-.06,3.66-.1,5-.12v.51c-1.41,0-3.25,0-5,.09,0,1.27,0,2,.12,3.36a5.23,5.23,0,0,1,.17,1.56c0,1.42-.12,3.94-4.42,5.71l-.32-.41c2.76-1,4-2.58,4.26-4.35h0a2.34,2.34,0,0,1-2.05,1.14,2.46,2.46,0,0,1-2.42-2.55,2.7,2.7,0,0,1,2.58-2.73,2.36,2.36,0,0,1,1.69.63c0-.09,0-.17,0-.23,0-.33,0-1.21-.06-2.13-2.07.06-5.77.18-7.35.25Zm7.59,4.77c0-1-.2-2.31-1.8-2.31a2.13,2.13,0,0,0-2.13,2.25,2,2,0,0,0,2,2.05A1.94,1.94,0,0,0,431.83,462.86Z"/><path class="cls-1" d="M447.87,466.91a2.1,2.1,0,1,1-2.1-2.1A2.11,2.11,0,0,1,447.87,466.91Zm-.45,0a1.65,1.65,0,1,0-1.65,1.65A1.65,1.65,0,0,0,447.42,466.91Z"/><path class="cls-1" d="M459.06,469.89a10.16,10.16,0,0,1-2.43-6.85,10.42,10.42,0,0,1,2.43-6.94h.58a10.27,10.27,0,0,0-2.45,7,10.42,10.42,0,0,0,2.45,6.84Z"/><path class="cls-1" d="M471.29,467.81H465v-.34l.93-1c1.47-1.59,4.5-4.33,4.5-6.79,0-1.32-.54-2.73-2.47-2.73a3.47,3.47,0,0,0-2.31,1l-.26-.36a3.87,3.87,0,0,1,2.67-1.09,2.82,2.82,0,0,1,2.92,3c0,2.25-1.57,4.09-4.51,7l-.76.81v0h5.59Z"/><path class="cls-1" d="M477.36,462.3c0-4.18,1.77-5.82,3.46-5.82s3.24,1.6,3.24,5.58S482.67,468,480.6,468C477.9,468,477.36,464.07,477.36,462.3Zm6.15-.13c0-3.09-.85-5.25-2.76-5.25-1.67,0-2.85,2.19-2.85,5.25,0,2,.58,5.38,2.77,5.38C482.7,467.55,483.51,465.11,483.51,462.17Z"/><path class="cls-1" d="M492.5,467.81V457.23h0l-1.71,1.08-.2-.41,2-1.25H493v11.14Z"/><path class="cls-1" d="M503.26,461.81a2.9,2.9,0,0,1-1.95-2.51,2.81,2.81,0,0,1,3-2.82,2.58,2.58,0,0,1,2.79,2.63,3,3,0,0,1-2,2.76v.06c1.63.63,2.41,1.68,2.41,2.94a3.17,3.17,0,0,1-3.31,3.12,3.08,3.08,0,0,1-3.31-2.94,3.47,3.47,0,0,1,2.41-3.17Zm3.66,3.16c0-1.6-1.06-2.37-3-2.92a3.23,3.23,0,0,0-2.54,2.85,2.62,2.62,0,0,0,2.75,2.65A2.56,2.56,0,0,0,506.92,465Zm-5.07-5.8c0,1.37,1,2.13,2.53,2.54a2.73,2.73,0,0,0,2.13-2.55,2.12,2.12,0,0,0-2.26-2.24A2.25,2.25,0,0,0,501.85,459.17Z"/><path class="cls-1" d="M13.83,500.94v.45H7.92V505H7.47v-3.63H.18v-.45H2.79v-4.23H7.47v-2.92H3.22A13.79,13.79,0,0,1,.69,497a2.29,2.29,0,0,0-.37-.25A14.57,14.57,0,0,0,4,491.16l.64.21c0,.11-.15.14-.29.12a17.26,17.26,0,0,1-.88,1.84H13.2v.45H7.92v2.92h5v.45h-5v3.78Zm-10.59,0H7.47v-3.78H3.24Z"/><path class="cls-1" d="M21.6,504a16.53,16.53,0,0,0-.37,2.7,4,4,0,0,0,0,.43h-.48a3.37,3.37,0,0,1,0-.43,14.48,14.48,0,0,1,.31-2.4l1.53-8.17c.62-3.4,2.24-4.44,4-4.44a2.38,2.38,0,0,1,2.52,2.38,3.54,3.54,0,0,1-2.22,3.18l0,.06a2.93,2.93,0,0,1,2.47,3c0,2.64-2.38,3.72-4.14,3.72A4,4,0,0,1,22,502.58h-.09Zm3.3-6.42.08-.45c3-.06,3.63-2,3.63-3a1.92,1.92,0,0,0-2.07-2c-2,0-3,1.61-3.46,4.13L22,501.78a3.79,3.79,0,0,0,3.3,1.77,3.42,3.42,0,0,0,3.54-3.21c0-1.71-1.5-2.76-3.39-2.76Z"/><path class="cls-1" d="M37.82,496.11v1.48c0,.41,0,.81,0,1.23H41.2v5.35h-.45v-4.9h-3a17.05,17.05,0,0,1-1,5.74,2.38,2.38,0,0,0-.44-.22,19.13,19.13,0,0,0,1.05-7.18v-6.17l.67.06c0,.07-.08.13-.23.15v4h2.25v-4.48l.67.06c0,.08-.07.13-.22.15v4.27h2.05v.45Zm11.34-.41.29.13a.16.16,0,0,1-.09.11,14.19,14.19,0,0,1-2.29,5.91,8.31,8.31,0,0,0,3.07,2.77,2,2,0,0,0-.34.38,9.07,9.07,0,0,1-3-2.77A9.57,9.57,0,0,1,43.42,505a1.32,1.32,0,0,0-.3-.36,8.91,8.91,0,0,0,3.42-2.8,16.63,16.63,0,0,1-2.13-5.19l.41-.11a16.56,16.56,0,0,0,2,4.92,13.43,13.43,0,0,0,2.07-5.28H43.57c0,2.42-.13,6.16-1.65,8.83a1.16,1.16,0,0,0-.39-.25c1.46-2.55,1.59-6,1.59-8.52v-4.32h7v.45H43.57v3.36h5.5Z"/><path class="cls-1" d="M57.62,499.82v-7.2l.79.06c0,.1-.12.21-.31.22v6.92Zm8-7.75c0,.13-.12.21-.32.22v4.83c0,3.12-1.09,5.94-5.47,7.54a1.81,1.81,0,0,0-.31-.39c4.29-1.56,5.31-4.18,5.31-7.15V492Z"/><path class="cls-1" d="M74.36,499.82v-7.2l.79.06c0,.1-.12.21-.31.22v6.92Zm8-7.75c0,.13-.12.21-.32.22v4.83c0,3.12-1.09,5.94-5.47,7.54a1.81,1.81,0,0,0-.31-.39c4.29-1.56,5.31-4.18,5.31-7.15V492Z"/><path class="cls-1" d="M89.9,497.58h12.52v.5h-12a.57.57,0,0,1-.43.27Z"/><path class="cls-1" d="M116.35,493.05a.19.19,0,0,1-.15.1,23.9,23.9,0,0,1-3.14,5.31,55.43,55.43,0,0,1,5.83,5.4l-.4.31a52.53,52.53,0,0,0-5.75-5.34,23,23,0,0,1-6.1,5.36,2.45,2.45,0,0,0-.35-.37,22.93,22.93,0,0,0,9.25-10.5h-7.78v-.48h8l.12-.06Z"/><path class="cls-1" d="M136.2,496.92l.33.12a.21.21,0,0,1-.1.12,23.75,23.75,0,0,1-3.48,3.55l-.34-.24a20.65,20.65,0,0,0,3.09-3.09h-5.76v0h.17c0,.08-.08.12-.22.15v6.71c0,.43-.14.62-.51.71a14.43,14.43,0,0,1-2.55.08,2.26,2.26,0,0,0-.19-.45h1.57c1.2,0,1.23,0,1.23-.34v-6.87H123v-.45h8.75a23.87,23.87,0,0,0-5.29-2.75l.32-.37a26.74,26.74,0,0,1,3.24,1.44,19.15,19.15,0,0,0,3.81-2.65h-9.42v-.45h9.76a.51.51,0,0,0,.25,0l.42.31a.21.21,0,0,1-.17.08,23.42,23.42,0,0,1-4.18,3,13.23,13.23,0,0,1,1.84,1.17l-.18.24h3.93Z"/><path class="cls-1" d="M149,504a14.32,14.32,0,0,0,3.23.3h3.51a1.22,1.22,0,0,0-.21.45h-3.32c-3.55,0-6.06-.63-7.44-3.74a8,8,0,0,1-2.55,4.06,2.19,2.19,0,0,0-.33-.3c1.68-1.27,2.64-3.64,3-6.58l.67.14c0,.09-.1.13-.27.13a17.59,17.59,0,0,1-.39,1.89,5.25,5.25,0,0,0,3.6,3.53v-7.46h-4.35V496h9.39v.45H149v3.18h4.92V500H149Zm-6-10.37V496h-.45v-2.83h6v-2l.67.06c0,.08-.08.13-.23.15v1.75h6V496h-.45v-2.38Z"/><path class="cls-1" d="M165.88,502.91a2.1,2.1,0,1,1-2.1-2.1A2.11,2.11,0,0,1,165.88,502.91Zm-.45,0a1.65,1.65,0,1,0-1.65,1.65A1.65,1.65,0,0,0,165.42,502.91Z"/><path class="cls-1" d="M174.11,492.09a11,11,0,0,1,0,13.8h-.58A10.51,10.51,0,0,0,176,499a10.3,10.3,0,0,0-2.44-6.88Z"/><path class="cls-1" d="M6.37,529.22H3.19v9.39H1.12v-11.4H6.37ZM6,527.54H1.45v10.74H2.86v-9.39H6Z"/><path class="cls-1" d="M21,539.39a7.26,7.26,0,0,1-3.09.58c-2.6,0-5.27-1.63-5.27-5.77,0-3.29,2-5.89,5.69-5.89a5.71,5.71,0,0,1,2.59.49l-.21.44a5.11,5.11,0,0,0-2.34-.51c-3.21,0-5.17,2.14-5.17,5.52,0,3.19,1.84,5.29,5,5.29a5.89,5.89,0,0,0,2.61-.56Z"/><path class="cls-1" d="M31.39,534.32a2.9,2.9,0,0,1,1.78,2.44,13.15,13.15,0,0,0,.84,3h-.56a15.33,15.33,0,0,1-.73-2.79c-.36-1.66-1.08-2.53-2.64-2.53H28.16v5.32h-.52V528.63a11.77,11.77,0,0,1,2.29-.24,3.76,3.76,0,0,1,2.94,1,2.84,2.84,0,0,1,.77,2,3,3,0,0,1-2.25,3ZM30,534c1.81,0,3.06-1,3.06-2.61,0-2-1.58-2.61-3.22-2.61a7.08,7.08,0,0,0-1.7.2v5Z"/><path class="cls-1" d="M46.38,539.81H40.74V528.48h5.37v.46H41.27v4.65h4.58v.47H41.27v5.28h5.12Z"/><path class="cls-1" d="M61.34,539.81h-.52l-1.53-4.12H54.63l-1.5,4.13H52.6l4.2-11.32h.39Zm-2.22-4.57-1.5-4a20.9,20.9,0,0,1-.63-2h0c-.22.78-.37,1.25-.63,2l-1.53,4.07Z"/><path class="cls-1" d="M73.27,528.95H69.49v10.86H69V528.95H65.17v-.46h8.1Z"/><path class="cls-1" d="M79.5,528.48H80v11.32H79.5Z"/><path class="cls-1" d="M94.86,528.48l-4.25,11.32h-.48l-3.78-11.32h.58l2.1,6.29c.57,1.69,1,3.09,1.37,4.33h0c.34-1.26.87-2.71,1.48-4.33l2.36-6.29Z"/><path class="cls-1" d="M106.75,539.81h-5.64V528.48h5.37v.46h-4.84v4.65h4.58v.47h-4.58v5.28h5.12Z"/><path class="cls-1" d="M126,533.78a3,3,0,0,1,1.62,5,4.54,4.54,0,0,1-3.45,1.09c-.79,0-1.41-.06-1.83-.09V528.65a9,9,0,0,1,2.11-.25c2.85,0,3.51,1.44,3.51,2.8a2.75,2.75,0,0,1-2,2.52Zm-1.35-.23a2.49,2.49,0,0,0,2.76-2.35h0c0-1.7-1.29-2.34-3.06-2.34a6.33,6.33,0,0,0-1.49.15v4.56Zm-1.79,5.78a5.75,5.75,0,0,0,1.46.12c1.82,0,3.54-.69,3.54-2.73s-1.7-2.73-3.48-2.73h-1.52Z"/><path class="cls-1" d="M139.07,534.32a2.9,2.9,0,0,1,1.78,2.44,13.15,13.15,0,0,0,.84,3h-.56a15.33,15.33,0,0,1-.73-2.79c-.36-1.66-1.08-2.53-2.64-2.53h-1.92v5.32h-.52V528.63a11.77,11.77,0,0,1,2.29-.24,3.76,3.76,0,0,1,2.94,1,2.84,2.84,0,0,1,.77,2,3,3,0,0,1-2.25,3ZM137.7,534c1.81,0,3.06-1,3.06-2.61,0-2-1.57-2.61-3.22-2.61a7.08,7.08,0,0,0-1.7.2v5Z"/><path class="cls-1" d="M156.59,539.81h-.52l-1.53-4.12h-4.65l-1.5,4.13h-.54l4.2-11.32h.39Zm-2.22-4.57-1.5-4a20.9,20.9,0,0,1-.63-2h0c-.22.78-.37,1.25-.63,2l-1.53,4.07Z"/><path class="cls-1" d="M163.16,528.48h.52v11.32h-.52Z"/><path class="cls-1" d="M178.95,539.81h-.53l-4.56-6.93c-.86-1.32-1.61-2.43-2.19-3.57h0c.09,1.18.09,1.89.09,4.39v6.09h-.52V528.48h.5l4.69,7.08A37.92,37.92,0,0,1,178.5,539l0,0c-.11-1.51-.11-2.75-.11-4.53v-6h.53Z"/><path class="cls-1" d="M186,539h3.18v-9.39h2.07V541H186Zm.33,1.68h4.59V529.94h-1.41v9.39h-3.18Z"/><path class="cls-1" d="M199.2,529.37c1.19,0,10.47-.79,12.3-.73v.51c-.21,0-.42,0-.63,0a4.5,4.5,0,0,0-2.38.66c-2.66,1.53-4.94,4.18-4.94,6.27,0,2.37,1.44,3.79,5.46,4.38l-.19.46c-4.26-.67-5.78-2.13-5.78-4.84,0-2.31,2.36-5,5.45-6.84-1.5.09-6.58.45-8.92.66a.45.45,0,0,1-.3.22Zm9.51,2.54a11.68,11.68,0,0,1,2.17,2.12l-.34.28a10.46,10.46,0,0,0-2.13-2.1Zm1.5-1.3a10.82,10.82,0,0,1,2.17,2.11L212,533a10.9,10.9,0,0,0-2.13-2.1Z"/><path class="cls-1" d="M219.71,540.18a13.37,13.37,0,0,1-.69-5,38.94,38.94,0,0,1,.86-7.15l.84.19c0,.13-.15.24-.39.24a32.43,32.43,0,0,0-.82,6.72,15.31,15.31,0,0,0,.19,3.13c.41-1.12,1.11-2.71,1.47-3.51l.46.2a23.81,23.81,0,0,0-1.67,4.3,1.57,1.57,0,0,0,.21.73Zm6.09-8.55c.5,0,1.2,0,1.69-.06-.06-1.38-.1-2.56-.13-3.67l.9,0c0,.15-.17.25-.39.3,0,1,.06,2,.11,3.3a12.53,12.53,0,0,0,3.18-.66l.12.5A13.31,13.31,0,0,1,228,532c.08,1.89.17,3.9.2,4.84a11.74,11.74,0,0,1,3.24,2l-.32.41a10,10,0,0,0-2.91-1.92c.06,1.56-.11,3-2.25,3-1.7,0-2.9-.72-2.9-2,0-1.49,1.59-2,2.88-2a6.14,6.14,0,0,1,1.79.29c0-1-.15-2.9-.22-4.62-.5,0-1.2.06-1.7.06h-2.43v-.47Zm1.95,5.55a5.71,5.71,0,0,0-1.8-.33c-1,0-2.4.38-2.4,1.54s1.08,1.53,2.42,1.53,1.8-.6,1.8-2.16Z"/><path class="cls-1" d="M238.57,537.18a31.51,31.51,0,0,1,3.5,3.41l-.43.42a31.2,31.2,0,0,0-3.44-3.46Z"/><path class="cls-1" d="M259.13,539.39A7.26,7.26,0,0,1,256,540c-2.6,0-5.27-1.63-5.27-5.77,0-3.29,2-5.89,5.69-5.89a5.71,5.71,0,0,1,2.59.49l-.21.44a5.11,5.11,0,0,0-2.34-.51c-3.21,0-5.17,2.14-5.17,5.52,0,3.19,1.84,5.29,5,5.29a5.89,5.89,0,0,0,2.61-.56Z"/><path class="cls-1" d="M276.32,539.81h-.52l-.35-5.52c-.13-2-.27-3.95-.25-5.07h0c-.42,1.18-.87,2.44-1.56,4.18l-2.54,6.43h-.34l-2.38-6.27c-.69-1.84-1.17-3.13-1.52-4.35h0c0,1.3-.12,3.28-.27,5.23l-.37,5.35h-.54l.83-11.32H267l2.64,6.94c.54,1.47.95,2.55,1.29,3.6h0c.3-1,.71-2,1.3-3.54l2.73-7h.6Z"/><path class="cls-1" d="M287.88,530.46l.3.11a.34.34,0,0,1-.08.12,19.08,19.08,0,0,1-1.58,6.55,11.76,11.76,0,0,1,1.86,1.67l-.29.38a11.49,11.49,0,0,0-1.79-1.62A8.11,8.11,0,0,1,283.2,541a2,2,0,0,0-.33-.39,7.64,7.64,0,0,0,3.08-3.25,19.35,19.35,0,0,0-2.34-1.49l-.21.77-.42-.23c.41-1.36.95-3.45,1.42-5.49h-1.74v-.45h1.85c.27-1.17.52-2.31.72-3.27l.67.1c0,.09-.09.13-.24.13-.19.89-.43,1.94-.69,3h2.82Zm-3,.48c-.37,1.58-.78,3.19-1.14,4.53a23,23,0,0,1,2.43,1.49,17.71,17.71,0,0,0,1.47-6ZM296.46,534v.45h-3.84v5.75c0,.46-.13.64-.51.73a13.82,13.82,0,0,1-2.45.08,2.89,2.89,0,0,0-.19-.46l1.71,0c.93,0,1,0,1-.36v-5.76h-4V534h4v-2.71l.42,0a14.54,14.54,0,0,0,2.82-2.86h-6.58V528h6.94l.11,0,.38.25a.31.31,0,0,1-.15.09,16.6,16.6,0,0,1-3.48,3.48V534Z"/><path class="cls-1" d="M304.16,529.35v1.81a9.32,9.32,0,0,1-1.6,5.71,1,1,0,0,0-.34-.3,8.79,8.79,0,0,0,1.5-5.42V528.9h6.21a13.22,13.22,0,0,1-.21-1.7l.74,0c0,.11-.09.15-.24.17,0,.5.09,1,.17,1.5H316v.45h-5.5a15.09,15.09,0,0,0,1.54,4.14,12.44,12.44,0,0,0,1.67-3l.65.2c0,.09-.14.13-.29.13a12.4,12.4,0,0,1-1.79,3.13c.88,1.41,1.89,2.35,2.75,2.34.45,0,.62-.55.71-2a1.26,1.26,0,0,0,.42.23c-.12,1.71-.39,2.28-1.12,2.28-1,0-2.1-1-3-2.44a11.43,11.43,0,0,1-2.67,2.32,1.72,1.72,0,0,0-.34-.3,10.68,10.68,0,0,0,2.76-2.42,15.61,15.61,0,0,1-1.7-4.53Zm.72,8.1a4,4,0,0,1-2.25,3.06l-.35-.27a3.81,3.81,0,0,0,2.19-2.9Zm-.11-6.37v-.45h4.86v.45Zm4.38,4.14h-3.46v.62h-.45v-3.58h3.92Zm-.45-2.52h-3v2.07h3Zm-2,7.2c0,.35.15.42,1.05.42h3.4c.74,0,.84-.19.9-1.75a1.44,1.44,0,0,0,.45.2c-.08,1.65-.27,2-1.32,2h-3.39c-1.21,0-1.54-.12-1.54-.88v-2.56l.67.06c0,.08-.08.13-.23.15Zm3.39-1.5a9.91,9.91,0,0,0-2.9-1.83l.3-.32a9.34,9.34,0,0,1,2.91,1.79Zm2.08-11.22a7.39,7.39,0,0,1,2.26,1.09l-.27.39a7.61,7.61,0,0,0-2.26-1.14Zm3.48,13.29a10.63,10.63,0,0,0-2.92-2.94l.34-.25a10.47,10.47,0,0,1,2.94,2.92Z"/><path class="cls-1" d="M336,529.32H324v4.06c0,2.27-.17,5.45-1.42,7.71a1.34,1.34,0,0,0-.37-.27c1.23-2.21,1.35-5.24,1.35-7.44v-4.51h5.83v-1.65l.67.06c0,.08-.08.13-.22.15v1.44H336Zm-2,6.62.33.19a.38.38,0,0,1-.12.11,7.92,7.92,0,0,1-3.42,3,18.18,18.18,0,0,0,5.29,1.37,1.46,1.46,0,0,0-.27.4,18.78,18.78,0,0,1-5.5-1.54,20.25,20.25,0,0,1-5.76,1.52,1.54,1.54,0,0,0-.22-.41,19.85,19.85,0,0,0,5.52-1.35,8,8,0,0,1-3-2.61l.39-.18a7.69,7.69,0,0,0,3.12,2.58,7.66,7.66,0,0,0,3.24-2.61h-8.67V536h9Zm-1.09-1.35h-5.44v-2.64h-2.73v-.45h2.73v-1.58l.67.06c0,.08-.08.13-.23.15v1.37h4.54v-1.58l.68.06c0,.08-.08.13-.23.15v1.37h3v.45h-3Zm-.45-2.64h-4.54v2.19h4.54Z"/><path class="cls-1" d="M354.43,533.1h-5.22l.22.06c0,.09-.12.15-.27.17-.39,3-1.67,5.68-4.74,7.21a1.87,1.87,0,0,0-.34-.37c3-1.47,4.2-4,4.59-7.06h-6.06v-.48h11.82ZM352.25,529h-8.38v-.48h8.38Zm.33-1.68a11.15,11.15,0,0,1,1.67,2.55l-.41.23a10.82,10.82,0,0,0-1.65-2.52Zm1.56-.63a12,12,0,0,1,1.71,2.54l-.42.19a11.11,11.11,0,0,0-1.68-2.47Z"/><path class="cls-1" d="M361.23,533.58h12.52v.5h-12a.57.57,0,0,1-.43.27Z"/><path class="cls-1" d="M391.34,530.07a.17.17,0,0,1-.13.11,18.69,18.69,0,0,1-2.29,5.14,24.5,24.5,0,0,1,2.13,1.37l-.3.4a20,20,0,0,0-2.08-1.36,14.54,14.54,0,0,1-5.67,4.93,1.34,1.34,0,0,0-.36-.35,14.54,14.54,0,0,0,5.59-4.83,26.5,26.5,0,0,0-3.85-1.75l.24-.42a28.49,28.49,0,0,1,3.88,1.77,17.17,17.17,0,0,0,2.14-4.69h-5.76a15.71,15.71,0,0,1-3.63,4.39,3.87,3.87,0,0,0-.36-.33,17.06,17.06,0,0,0,4.84-7l.73.21c-.06.13-.18.17-.36.15-.24.57-.63,1.42-1,2.05h5.67l.12,0Z"/><path class="cls-1" d="M402.1,533.39a4.32,4.32,0,0,1,2.66-1.12c1.13,0,1.69.81,1.86,2.07,1.33-.62,3-1.3,4.33-1.8l.32.63h-.09a.43.43,0,0,1-.23-.09c-1.16.41-2.92,1.11-4.27,1.74a11.64,11.64,0,0,1,.06,1.33c0,.55,0,1.18-.06,1.84h-.54c0-.58.08-1.38.08-2.07a8,8,0,0,0,0-.9c-2,1-3.79,2.16-3.79,3.3s1.18,1.54,3.52,1.54a33.64,33.64,0,0,0,3.79-.15v.51c-1,.09-2.35.12-3.79.12-2.88,0-4-.72-4-2s1.88-2.61,4.21-3.78c-.12-1.29-.67-1.8-1.38-1.8-1.17,0-2.37.69-3.81,2.27a23.08,23.08,0,0,1-1.71,1.63l-.33-.34a10.92,10.92,0,0,0,4-6h-3.65v-.48h2.6l1.18,0a21.58,21.58,0,0,0,.46-2.26l.88.15c0,.15-.13.24-.36.25a18.92,18.92,0,0,1-.44,1.86,21.7,21.7,0,0,0,5.58-.92l.1.5a22.37,22.37,0,0,1-5.82.9,11.87,11.87,0,0,1-1.3,3.07Z"/><path class="cls-1" d="M424.37,527.84c0,.09-.09.15-.25.18,0,.06.25,9.49,6.94,12.49a2,2,0,0,0-.34.36c-4.75-2.17-6.27-7.56-6.76-10.68h0c-.39,3.15-1.68,8.29-6.67,10.65a2,2,0,0,0-.31-.3c6.38-3,6.6-10.69,6.71-12.75Z"/><path class="cls-1" d="M443.72,539.27h6.57v.45H436.78v-.45h6.5v-9.73h-5.75v-.45h12.09v.45h-5.9Z"/><path class="cls-1" d="M460.3,529.83v2.92c0,.29,0,.6,0,.9h3.08v.45h-3.1a12.23,12.23,0,0,1-.27,1.72c.66.64,2.59,2.75,3.06,3.27l-.31.38c-.51-.63-2.08-2.4-2.87-3.21a8.2,8.2,0,0,1-3.3,4.46,1.32,1.32,0,0,0-.3-.34,7.93,7.93,0,0,0,3.54-6.27h-3.46v-.45h3.49c0-.32,0-.62,0-.92v-2.91h-1.74a11.14,11.14,0,0,1-1.38,2.88,4,4,0,0,0-.37-.24,14,14,0,0,0,2-5.28l.67.18c0,.09-.12.14-.27.14-.14.63-.3,1.26-.48,1.87h4.62v.45Zm3.81-1.27h5.33v11.89H469v-1.2h-4.42v1.32h-.45Zm.45,10.24H469V529h-4.42Z"/><path class="cls-1" d="M482.12,530.81a16.94,16.94,0,0,0-1.42-1.94l.33-.17a16,16,0,0,1,2.19,3.29l-.33.21a10.93,10.93,0,0,0-.52-1c-2.22.12-4.56.22-6,.29,0,.1-.09.15-.18.18L476,531l1.25,0a27.14,27.14,0,0,0,1.77-3.72l.63.19c0,.08-.12.12-.27.14A37,37,0,0,1,477.7,531Zm.06,2.16v7.3c0,.74-.29.75-2.36.75a1.68,1.68,0,0,0-.2-.49l1.33,0c.71,0,.77,0,.77-.29V538h-4.21v3h-.45V533Zm-.45.45h-4.21v1.82h4.21Zm-4.21,4.17h4.21v-1.91h-4.21Zm10.95-4.27c.69,0,.81-.29.87-2a1.24,1.24,0,0,0,.45.21c-.08,1.75-.25,2.2-1.3,2.2h-3.15c-1.14,0-1.47-.17-1.47-1v-5.55l.67.06c0,.08-.08.13-.22.15v2.71a38.21,38.21,0,0,0,4.33-1.57l.45.43a.12.12,0,0,1-.1,0h-.14a44.15,44.15,0,0,1-4.54,1.54v2.2c0,.45.15.56,1,.56Zm-4.15,6.51c0,.46.17.58,1,.58h3.29c.76,0,.88-.32.95-2.21a1.44,1.44,0,0,0,.45.19c-.09,2-.27,2.45-1.38,2.45h-3.27c-1.17,0-1.51-.17-1.51-1V534.3l.67.06c0,.08-.08.13-.22.15V537a19.57,19.57,0,0,0,4.59-1.72l.4.45a.13.13,0,0,1-.1,0h-.12a21.59,21.59,0,0,1-4.77,1.68Z"/><path class="cls-1" d="M496.7,532a24,24,0,0,1,4.17,1.32l-.2.47a24.62,24.62,0,0,0-4.15-1.32Zm1.25,7.59c5.05-1.8,8.38-4.5,10.33-9a3.2,3.2,0,0,0,.42.27c-2,4.56-5.38,7.3-10.17,9.06a.32.32,0,0,1-.13.34Zm.3-11.33a24,24,0,0,1,4.13,1.46l-.2.45a24.11,24.11,0,0,0-4.09-1.46Z"/><path class="cls-1" d="M10.71,565.05a.19.19,0,0,1-.15.1,23.9,23.9,0,0,1-3.14,5.31,55.43,55.43,0,0,1,5.83,5.4l-.4.31a52.53,52.53,0,0,0-5.75-5.34A23,23,0,0,1,1,576.2a2.45,2.45,0,0,0-.35-.37,22.93,22.93,0,0,0,9.25-10.5H2.13v-.48h8l.12-.06Z"/><path class="cls-1" d="M31.5,569.12H26.18l.22.06c0,.09-.12.15-.27.17-.39,3-1.46,5.57-4.72,7.13a2.6,2.6,0,0,0-.35-.37c3.23-1.5,4.2-3.85,4.59-7H19.49v-.48h12ZM30,564.86H20.84v-.48H30Z"/><path class="cls-1" d="M49.24,576.11c-.21-.45-.5-1-.84-1.57-3,.3-8.82.6-11.17.73a.41.41,0,0,1-.25.29l-.24-.75,1.61-.06c1-3,2.58-7.59,3.48-10.68l.78.22c-.06.13-.18.18-.39.18-.9,2.91-2.29,7.24-3.36,10.24,3-.13,7-.41,9.28-.62a30.83,30.83,0,0,0-3.1-4.15l.41-.25a29.29,29.29,0,0,1,4.29,6.24Z"/><path class="cls-1" d="M58.28,564.27c-.06.17-.21.24-.53.21a37.26,37.26,0,0,0-.78,6.87,19.69,19.69,0,0,0,.26,3.55c.36-.95,1-2.71,1.26-3.29l.45.17c-.69,1.83-1.09,2.71-1.29,3.34a2.47,2.47,0,0,0-.12.69,1.32,1.32,0,0,0,.07.43l-.48.13a15.2,15.2,0,0,1-.64-5,40.23,40.23,0,0,1,.85-7.3Zm9.94,10.8c-.53,0-1.07,0-1.59,0a20,20,0,0,1-3-.18c-1.68-.25-2.55-1.21-2.55-2.37a4.54,4.54,0,0,1,1.49-2.82l.4.27a3.92,3.92,0,0,0-1.39,2.53c0,.87.72,1.7,2.19,1.92a17.58,17.58,0,0,0,2.59.17c.58,0,1.2,0,1.8-.06Zm-7-8.79a45.74,45.74,0,0,0,6.66-.58l.06.5a54.1,54.1,0,0,1-6.71.58Z"/><path class="cls-1" d="M88.14,572.24v.45H81.63v3.58a.62.62,0,0,1-.54.72,15.74,15.74,0,0,1-2.67.07,2.64,2.64,0,0,0-.24-.45l1.71,0c1.2,0,1.29,0,1.29-.36v-3.6H74.77v-.45h6.41v-1.5l.5,0a13.71,13.71,0,0,0,3.09-1.8H77.14v-.45h8.14l.11,0,.38.27a.21.21,0,0,1-.15.08,15.43,15.43,0,0,1-4,2.37v1Zm-12.48-5.91V569h-.45v-3.09h9.27a19.25,19.25,0,0,0,2-2.58l.54.31c0,.09-.15.11-.24.09A23.75,23.75,0,0,1,85,565.88h2.77V569h-.45v-2.64Zm2.16-.45a11.4,11.4,0,0,0-1.54-2.25l.38-.19a10,10,0,0,1,1.54,2.21Zm2.83-2.71A10,10,0,0,1,82,565.65l-.39.18a10.09,10.09,0,0,0-1.29-2.53Z"/><path class="cls-1" d="M94.43,569c1.08-.37,2.67-1,4.25-1.63l.09.39c-1.46.58-2.94,1.2-3.9,1.56a.25.25,0,0,1-.12.23Zm5.83.18c0,.33-.08.48-.36.57a7.92,7.92,0,0,1-1.86.08,2,2,0,0,0-.18-.42l1,0c1,0,1,0,1-.24v-4.62H94.75v-.45h5.52Zm-2.55-2.26a8.21,8.21,0,0,0-2.07-1.62L96,565A7.6,7.6,0,0,1,98,566.58Zm2.42,3.88a11.59,11.59,0,0,0,.75-1.49l.58.25a.21.21,0,0,1-.24.11c-.15.31-.39.75-.62,1.13h5.21v6.28h-.45v-.66H97v.66h-.45v-6.28Zm5.23,2.54v-2.08H97v2.08ZM97,576h8.37v-2.19H97Zm8.67-8.52c-1.51.57-3.09,1.17-4.09,1.53a.22.22,0,0,1-.13.21l-.3-.54c1.13-.37,2.8-1,4.45-1.59Zm1.38-3.34v5.13c0,.33-.08.48-.37.57a8.8,8.8,0,0,1-1.89.09,1.28,1.28,0,0,0-.18-.42l1.13,0c.84,0,.87,0,.87-.26v-4.68h-5.2v-.45Zm-4.75.93a7.17,7.17,0,0,1,2.08,1.5l-.33.33a7.43,7.43,0,0,0-2.07-1.54Z"/><path class="cls-1" d="M126.29,566.25a27.93,27.93,0,0,1-5.31.93c.6,2.31,1.2,3.69,3,4.47l-.3.43c-.22-.15-.64-.36-.84-.48a7.93,7.93,0,0,0-2.58-.54l0-.45a14.34,14.34,0,0,1,1.75.29,8.62,8.62,0,0,1-1.56-3.67c-.74.06-1.86.1-2.85.1s-2.48,0-3.39,0v-.48c.93,0,2.32,0,3.42,0,.94,0,2,0,2.71-.09-.18-.81-.39-2-.58-3.3l1,0c0,.17-.15.25-.37.3.09.93.3,2.05.48,2.94a25.21,25.21,0,0,0,5.26-.94Zm-2.55,10.13c-.72,0-1.4.06-2.82.06-2.79,0-5.28-.66-5.28-2.77a3.67,3.67,0,0,1,1.39-2.47l.38.33a3.23,3.23,0,0,0-1.27,2.15c0,1.74,2.23,2.26,4.8,2.26,1.37,0,2.07,0,2.81-.06Z"/><path class="cls-1" d="M145.06,567.62c-1,.12-2.19.3-3.46.51a22.26,22.26,0,0,1-.13,3.54,1.45,1.45,0,0,1-1.46,1.28,5.86,5.86,0,0,1-2.38-.69l.18-.45a5.35,5.35,0,0,0,2.17.66,1,1,0,0,0,1-.87,19.51,19.51,0,0,0,.14-3.39l-5.58.95c0,1.47.06,2.88.13,3.84.2,2.56,1.4,2.77,3.67,2.77,1.32,0,3-.09,4-.19l0,.51c-1.06.09-2.8.15-4.2.15-2.08,0-3.81-.15-4-3.18-.08-.95-.11-2.33-.13-3.83-1,.17-2.22.41-3.12.57l-.08-.48c.85-.14,2.14-.37,3.18-.54l0-3.95.87.11c0,.17-.15.24-.36.25,0,1,0,2.28,0,3.5,1.51-.24,3.6-.6,5.56-.93,0-1.3-.1-2.74-.19-4.09l.85.09c0,.15-.1.2-.33.24.06,1.17.12,2.46.15,3.69l3.42-.55Z"/><path class="cls-1" d="M153.6,570a10,10,0,0,1,4.32-1.08c2.46,0,3.9,1.38,3.9,3.49,0,2.73-2.41,4.2-5.23,4.2-2,0-3.29-.71-3.29-1.91a2.11,2.11,0,0,1,2.34-1.86,3.28,3.28,0,0,1,3.06,3,3.53,3.53,0,0,0,2.64-3.37c0-1.86-1.29-3-3.43-3a9.3,9.3,0,0,0-5.78,2.05c-.5.48-1.06,1.13-1.48,1.62l-.36-.36c1.53-1.67,6.18-6.12,8.23-8.05-1,.13-4.24.24-6.31.3a.42.42,0,0,1-.27.23l-.11-.71c2.12,0,5.75-.15,6.9-.32l.21-.1.53.57a.78.78,0,0,1-.32.13c-1.26,1.06-4.42,4.11-5.55,5.23Zm3,6.15a6.77,6.77,0,0,0,1.67-.21,2.85,2.85,0,0,0-2.62-2.64c-1,0-1.85.52-1.85,1.39C153.77,575.81,155.31,576.17,156.57,576.17Z"/><path class="cls-1" d="M179.59,575.36a26.65,26.65,0,0,1-4.67.39,15,15,0,0,1-2.76-.2,2.72,2.72,0,0,1-2.47-2.71,4.94,4.94,0,0,1,1.59-3.24l.38.27a4.65,4.65,0,0,0-1.49,3c0,1,.67,1.84,2.13,2.19a12.84,12.84,0,0,0,2.58.2,24.55,24.55,0,0,0,4.67-.42Zm-3.17-9.45c-1.39.15-4.35.21-6.28.21v-.5c.52,0,6.36.06,8.44-.51l.12.51a5,5,0,0,0-1.67.5,20.19,20.19,0,0,0-3.48,2.19l-.31-.35a21.36,21.36,0,0,1,3.18-2Z"/><path class="cls-1" d="M197.44,568.08l-.12,0A.58.58,0,0,1,197,568c-4.41,1.36-8.91,3.57-8.91,5.86,0,1.67,1.9,2.19,4.6,2.19a42.54,42.54,0,0,0,5.25-.3l0,.51a45.61,45.61,0,0,1-5.28.25c-3,0-5.1-.66-5.1-2.64,0-1.62,1.74-3.08,4.17-4.31-.47-.78-.68-2.58-.68-6.07l.95.09c0,.17-.17.3-.45.33,0,3,.12,4.69.62,5.44a39.72,39.72,0,0,1,5-1.92Z"/><path class="cls-1" d="M204.44,565.37c1.19,0,10.47-.79,12.3-.73v.51c-.21,0-.42,0-.63,0a4.5,4.5,0,0,0-2.38.66c-2.66,1.53-4.94,4.18-4.94,6.27,0,2.37,1.44,3.79,5.46,4.38l-.19.46c-4.26-.67-5.78-2.13-5.78-4.84,0-2.31,2.36-5,5.45-6.84-1.5.09-6.58.45-8.92.66a.45.45,0,0,1-.3.22ZM214,567.9a11.68,11.68,0,0,1,2.17,2.12l-.34.28a10.46,10.46,0,0,0-2.13-2.1Zm1.5-1.3a10.82,10.82,0,0,1,2.17,2.11l-.34.29a10.9,10.9,0,0,0-2.13-2.1Z"/><path class="cls-1" d="M224.2,573.18a31.51,31.51,0,0,1,3.5,3.41l-.43.42a31.2,31.2,0,0,0-3.44-3.46Z"/><path class="cls-1" d="M243.63,564.95h-3.78v10.86h-.53V564.95h-3.79v-.46h8.1Z"/><path class="cls-1" d="M257.66,564.48l-4.25,11.32h-.48l-3.78-11.32h.58l2.1,6.29c.57,1.69,1,3.09,1.37,4.33h0c.34-1.26.87-2.71,1.48-4.33l2.36-6.29Z"/><path class="cls-1" d="M271.11,575.39A7.26,7.26,0,0,1,268,576c-2.6,0-5.27-1.63-5.27-5.77,0-3.29,2-5.89,5.69-5.89a5.71,5.71,0,0,1,2.59.49l-.21.44a5.11,5.11,0,0,0-2.34-.51c-3.21,0-5.17,2.14-5.17,5.52,0,3.19,1.84,5.29,5,5.29a5.89,5.89,0,0,0,2.61-.56Z"/><path class="cls-1" d="M288.3,575.81h-.52l-.35-5.52c-.13-2-.27-3.95-.25-5.07h0c-.42,1.18-.87,2.44-1.56,4.18L283,575.84h-.34l-2.38-6.27c-.69-1.84-1.17-3.13-1.52-4.35h0c0,1.3-.12,3.28-.27,5.23l-.37,5.35h-.54l.83-11.32h.55l2.64,6.94c.54,1.47.95,2.55,1.29,3.6h0c.3-1,.71-2,1.3-3.54l2.73-7h.6Z"/><path class="cls-1" d="M302,565.38a.31.31,0,0,1-.33.23c-.48,4.35-2.08,9.18-4.5,9.18-1,0-2.11-1.2-2.11-3.42a6.52,6.52,0,0,1,6.66-6.6c4.39,0,6,2.92,6,5.61,0,3.6-2.22,5.25-5.75,6,0-.09-.19-.33-.25-.45,3.48-.66,5.52-2.35,5.52-5.52,0-2.5-1.51-5.17-5.55-5.17h-.24Zm-.78-.13a6.09,6.09,0,0,0-5.71,6.12c0,1.84.9,2.92,1.67,2.92C299.19,574.29,300.72,569.78,301.18,565.25Z"/><path class="cls-1" d="M314.3,569.75a19.82,19.82,0,0,0,6.57-6.6l.81.06c0,.11-.13.14-.25.17a22.78,22.78,0,0,0,6.67,6.2,1.81,1.81,0,0,0-.3.38,23.27,23.27,0,0,1-6.69-6.25,21.26,21.26,0,0,1-6.52,6.39Zm7.18,1.77v4.58h6.24v.45h-13v-.45h2.22v-6l.67.06c0,.08-.08.13-.23.15v5.82H321v-8.91l.68.06c0,.08-.08.13-.23.15v3.67h4.75v.45Z"/><path class="cls-1" d="M334.25,564.3h13.3v.45h-6.48v2.19h3.51v6.78h-7.46v-6.78h3.5v-2.19h-6.37Zm12.45,11.23v-8.73l.68.06c0,.08-.08.13-.23.15v9.93h-.45v-1H335.17v1h-.45v-10.2l.67.06c0,.08-.08.13-.23.15v8.52Zm-9.12-8.14v2.7h3v-2.7Zm0,3.15v2.73h3v-2.73Zm6.55-.45v-2.7h-3.06v2.7Zm0,3.18v-2.73h-3.06v2.73Z"/><path class="cls-1" d="M358.47,570.11a1.27,1.27,0,1,1-1.27-1.28A1.27,1.27,0,0,1,358.47,570.11Z"/><path class="cls-1" d="M371.09,566.12v2.25h4v.45h-4v1.88h3.21v4.48c0,.32-.08.46-.34.55a10.09,10.09,0,0,1-1.86.08,1.55,1.55,0,0,0-.18-.4h.95c.88,0,1,0,1-.22v-4.05h-2.76V577h-.45v-5.87H368v4.7h-.45v-5.14h3.1v-1.87h-4v-.45h4v-2.25h-2.46a10,10,0,0,1-.73,2,3.2,3.2,0,0,0-.41-.17,16.35,16.35,0,0,0,1.23-4.29l.67.18c0,.09-.11.14-.29.14a16.9,16.9,0,0,1-.36,1.69h2.34v-2.43l.68.06c0,.07-.08.13-.23.15v2.22h3.33v.45ZM376,565l.67.06c0,.07-.08.13-.22.15v8.1H376Zm3.21-1.54.67.06c0,.09-.08.13-.22.15v12.51c0,.48-.18.64-.51.74a11.54,11.54,0,0,1-2.28.07c0-.1-.12-.3-.2-.43h1.2c1.25,0,1.33,0,1.33-.37Z"/><path class="cls-1" d="M388.73,567.71a17.36,17.36,0,0,1-2.28,3.15c-.08-.09-.21-.25-.3-.35a19.66,19.66,0,0,0,4.08-7.15l.65.2a.28.28,0,0,1-.29.13,22.69,22.69,0,0,1-1.5,3.38l.32.09c0,.08-.08.12-.23.13V577h-.45Zm11.58-1.41h-5.19v2.82h4.83v.45h-4.83v2.92h5v.45h-5v4h-.45V566.3h-1.82a16.89,16.89,0,0,1-2.23,3.58l-.36-.29a18.85,18.85,0,0,0,3.24-6.15l.67.21c0,.09-.13.13-.3.13-.24.69-.51,1.38-.81,2.06h7.25Z"/><path class="cls-1" d="M410,569.39a4.32,4.32,0,0,1,2.66-1.12c1.13,0,1.69.81,1.86,2.07,1.33-.62,3-1.3,4.33-1.8l.32.63h-.09a.43.43,0,0,1-.23-.09c-1.16.41-2.92,1.11-4.27,1.74a11.64,11.64,0,0,1,.06,1.33c0,.55,0,1.18-.06,1.84h-.54c0-.58.08-1.38.08-2.07a8,8,0,0,0,0-.9c-2,1-3.79,2.16-3.79,3.3s1.18,1.54,3.52,1.54a33.64,33.64,0,0,0,3.79-.15v.51c-1,.09-2.35.12-3.79.12-2.88,0-4-.72-4-2s1.88-2.61,4.21-3.78c-.12-1.29-.67-1.8-1.38-1.8-1.17,0-2.37.69-3.81,2.27a23.08,23.08,0,0,1-1.71,1.63l-.33-.34a10.92,10.92,0,0,0,4-6h-3.65v-.48h2.6l1.18,0a21.58,21.58,0,0,0,.46-2.26l.88.15c0,.15-.13.24-.36.25a18.92,18.92,0,0,1-.44,1.86,21.7,21.7,0,0,0,5.58-.92l.1.5a22.37,22.37,0,0,1-5.82.9,11.87,11.87,0,0,1-1.3,3.07Z"/><path class="cls-1" d="M436.72,569.25l.34.21a.19.19,0,0,1-.17.09,11.18,11.18,0,0,1-4.33,4.86,17.08,17.08,0,0,0,6.5,2.25,1.94,1.94,0,0,0-.29.4,17.36,17.36,0,0,1-6.61-2.41,21.82,21.82,0,0,1-6.62,2.35,1.47,1.47,0,0,0-.27-.41,21.35,21.35,0,0,0,6.48-2.22,11.09,11.09,0,0,1-3.78-4.46l.39-.17a10.69,10.69,0,0,0,3.79,4.38,10.43,10.43,0,0,0,4.15-4.41h-9.87v-.45h5.47v-3h-6.25v-.45h6.25v-2.65l.67.06c0,.08-.08.13-.22.15v2.44h6.33v.45h-6.33v3h4.24Z"/><path class="cls-1" d="M449.6,570.57l-1.53.55v5.13c0,.42-.15.58-.45.67a9.08,9.08,0,0,1-1.94.09,1.61,1.61,0,0,0-.19-.45h1c1.08,0,1.13,0,1.13-.33v-5l-2,.74a.25.25,0,0,1-.13.21l-.31-.58c.67-.21,1.53-.51,2.46-.83V567h-2.36v-.45h2.36v-3.28l.67.06c0,.09-.08.13-.23.15v3.07h1.86V567h-1.86v3.71l1.46-.51Zm7.63,1.2.3.18a.21.21,0,0,1-.1.09,7.2,7.2,0,0,1-2.22,3.15,11.22,11.22,0,0,0,3.72,1.41,2.11,2.11,0,0,0-.32.41,11.46,11.46,0,0,1-3.76-1.54A10.35,10.35,0,0,1,451.4,577a1.5,1.5,0,0,0-.3-.39,10.23,10.23,0,0,0,3.36-1.42,7.62,7.62,0,0,1-2.23-2.43l.38-.15a6.9,6.9,0,0,0,2.22,2.31,6.33,6.33,0,0,0,2-2.68H452a9.84,9.84,0,0,1-2.71,4.68,3.11,3.11,0,0,0-.34-.27c1.6-1.37,2.55-3.65,3.1-6.46h-2.26v-.45h2.35c.11-.55.18-1.12.26-1.71H450v-.45h5.68l-.1,0a17.49,17.49,0,0,0,1.69-2.83l.63.24c0,.08-.12.12-.25.12a20.39,20.39,0,0,1-1.62,2.52h2V568h-5.17q-.11.88-.27,1.71h6.25v.45h-6.34c-.1.55-.22,1.09-.37,1.6h5Zm.72-8.13s0,0-.09,0h-.13a52.23,52.23,0,0,1-7.87,1,1.21,1.21,0,0,0-.13-.39,50,50,0,0,0,7.8-1ZM451,565a7.35,7.35,0,0,1,.87,2.05l-.42.17a7.4,7.4,0,0,0-.86-2.08Zm2.88-.29a8.41,8.41,0,0,1,.53,2.18L454,567a10.06,10.06,0,0,0-.51-2.22Z"/><path class="cls-1" d="M464.7,566.09c1.23,0,5.5-.17,7.35-.24,0-.25-.09-2.48-.09-2.5l.9,0c0,.14-.1.25-.39.3,0,.48,0,1.36.06,2.16,1.76-.06,3.66-.1,5-.12v.51c-1.41,0-3.25,0-5,.09,0,1.27,0,2,.12,3.36a5.23,5.23,0,0,1,.17,1.56c0,1.42-.12,3.94-4.42,5.71l-.32-.41c2.76-1,4-2.58,4.26-4.35h0a2.34,2.34,0,0,1-2.05,1.14,2.46,2.46,0,0,1-2.42-2.55,2.7,2.7,0,0,1,2.58-2.73,2.36,2.36,0,0,1,1.69.63c0-.09,0-.17,0-.23,0-.33,0-1.21-.06-2.13-2.07.06-5.77.18-7.35.25Zm7.59,4.77c0-1-.2-2.31-1.8-2.31a2.13,2.13,0,0,0-2.13,2.25,2,2,0,0,0,2,2.05A1.94,1.94,0,0,0,472.29,570.86Z"/><path class="cls-1" d="M486.82,570a10,10,0,0,1,4.32-1.08c2.46,0,3.9,1.38,3.9,3.49,0,2.73-2.41,4.2-5.23,4.2-2,0-3.29-.71-3.29-1.91a2.11,2.11,0,0,1,2.34-1.86,3.28,3.28,0,0,1,3.06,3,3.53,3.53,0,0,0,2.64-3.37c0-1.86-1.29-3-3.43-3a9.3,9.3,0,0,0-5.78,2.05c-.5.48-1.06,1.13-1.48,1.62l-.36-.36c1.53-1.67,6.18-6.12,8.23-8.05-1,.13-4.24.24-6.31.3a.42.42,0,0,1-.27.23l-.11-.71c2.12,0,5.75-.15,6.9-.32l.21-.1.53.57a.78.78,0,0,1-.32.13c-1.26,1.06-4.42,4.11-5.55,5.23Zm3,6.15a6.77,6.77,0,0,0,1.67-.21,2.85,2.85,0,0,0-2.62-2.64c-1,0-1.85.52-1.85,1.39C487,575.81,488.53,576.17,489.79,576.17Z"/><path class="cls-1" d="M505.15,569.72a3,3,0,0,1,2.48,3,3.21,3.21,0,0,1-3.55,3.27,4.48,4.48,0,0,1-2.48-.75l.3-.44a4,4,0,0,0,2.26.75,2.71,2.71,0,0,0,2.91-2.79c0-2-1.66-2.79-3.34-2.79h-.64v-.45h.69c1.26,0,2.87-.77,2.87-2.42a2,2,0,0,0-2.19-2.19,3.31,3.31,0,0,0-2.1.84l-.29-.4a4,4,0,0,1,2.42-.87,2.45,2.45,0,0,1,2.71,2.56,2.84,2.84,0,0,1-2,2.64Z"/><path class="cls-1" d="M.55,603.53c.27-.06.79-.21,1.41-.42a24.4,24.4,0,0,1,6.75-1.5c2.45,0,4.49,1.27,4.49,4.3,0,3.64-3.87,5-8.66,5.5a3.12,3.12,0,0,0-.13-.46c4.51-.45,8.28-1.75,8.28-5,0-2.68-1.79-3.84-4-3.84A28.51,28.51,0,0,0,1,604a.39.39,0,0,1-.23.3Z"/><path class="cls-1" d="M26.74,601.38a.31.31,0,0,1-.33.23c-.48,4.35-2.08,9.18-4.5,9.18-1,0-2.11-1.2-2.11-3.42a6.52,6.52,0,0,1,6.66-6.6c4.39,0,6,2.92,6,5.61,0,3.6-2.22,5.25-5.75,6,0-.09-.19-.33-.25-.45,3.48-.66,5.52-2.35,5.52-5.52,0-2.5-1.51-5.17-5.55-5.17h-.24Zm-.78-.13a6.09,6.09,0,0,0-5.71,6.12c0,1.84.9,2.92,1.67,2.92C24,610.29,25.5,605.78,26,601.25Z"/><path class="cls-1" d="M41.39,604.65c.41.54,1.47,2.19,1.71,2.61l-.31.41c-.23-.46-.93-1.65-1.4-2.4V613h-.45v-8.49a20.86,20.86,0,0,1-2.16,5.44,2,2,0,0,0-.35-.36,20.38,20.38,0,0,0,2.4-6.43H38.71v-.45h2.24v-3.48l.67.06c0,.08-.08.13-.23.15v3.27h1.85v.45H41.39Zm6.95,2.86a16.45,16.45,0,0,0,.73,2.79A7.85,7.85,0,0,0,50.62,608l.6.19c0,.08-.09.11-.23.12a8.09,8.09,0,0,1-1.74,2.37c.52,1.2,1.18,1.88,2,1.88.5,0,.68-.43.77-2a1.32,1.32,0,0,0,.4.21c-.1,1.68-.34,2.25-1.2,2.25s-1.74-.74-2.33-2a11.78,11.78,0,0,1-3.06,1.91,1.79,1.79,0,0,0-.29-.3,10.36,10.36,0,0,0,3.18-2,16.53,16.53,0,0,1-.84-3.12H44.83c0,.41-.08.83-.14,1.23a16.26,16.26,0,0,1,2.43,1.58l-.3.34a20.42,20.42,0,0,0-2.2-1.5A5.86,5.86,0,0,1,42.68,613a1.36,1.36,0,0,0-.36-.3c1.41-1,1.89-3,2.05-5.15H43.3v-.45h4.51a54.24,54.24,0,0,1-.55-7.84l.69,0c0,.09-.07.15-.22.17a47.19,47.19,0,0,0,.54,7.63h4v.45ZM43.1,605l.6,0c.36-.46.75-1.08,1.14-1.71a9.14,9.14,0,0,0-1.74-1.62l.27-.25.46.33A17.38,17.38,0,0,0,45,599.42l.57.27c0,.08-.12.1-.24.1A20.94,20.94,0,0,1,44.12,602a6.14,6.14,0,0,1,.94.95c.44-.74.84-1.47,1.14-2.08l.58.28a.27.27,0,0,1-.25.11A35.33,35.33,0,0,1,44.2,605l2.25-.13a9.39,9.39,0,0,0-.66-1.21l.39-.18a7.51,7.51,0,0,1,1,2.14l-.41.23a5,5,0,0,0-.21-.62c-1.2.12-2.34.21-3.1.27a.25.25,0,0,1-.18.18Zm5.13-.11h.57c.33-.45.71-1,1.06-1.61a9.8,9.8,0,0,0-1.75-1.63l.27-.25.46.33A17.38,17.38,0,0,0,50,599.42l.57.27c0,.08-.12.1-.24.1A20.94,20.94,0,0,1,49.13,602a7.22,7.22,0,0,1,1,1c.43-.74.84-1.49,1.13-2.1l.58.28a.27.27,0,0,1-.25.11,37.77,37.77,0,0,1-2.25,3.64l2.34-.12a9.64,9.64,0,0,0-.67-1.14l.39-.18a7.75,7.75,0,0,1,1.11,2.14l-.39.24a4.68,4.68,0,0,0-.27-.71c-1.25.1-2.4.2-3.18.24a.22.22,0,0,1-.2.18Zm1.25.63a9.28,9.28,0,0,1,1.86,1.11l-.23.33a10,10,0,0,0-1.86-1.16Z"/><path class="cls-1" d="M64.09,602.81a16.94,16.94,0,0,0-1.42-1.94l.33-.17A16,16,0,0,1,65.18,604l-.33.21a10.93,10.93,0,0,0-.52-1c-2.22.12-4.56.22-6,.29,0,.1-.09.15-.18.18L58,603l1.25,0A27.14,27.14,0,0,0,61,599.27l.63.19c0,.08-.12.12-.27.14A37,37,0,0,1,59.67,603Zm.06,2.16v7.3c0,.74-.29.75-2.36.75a1.68,1.68,0,0,0-.2-.49l1.33,0c.71,0,.77,0,.77-.29V610H59.49v3H59V605Zm-.45.45H59.49v1.82H63.7Zm-4.21,4.17H63.7v-1.91H59.49Zm10.95-4.27c.69,0,.81-.29.87-2a1.24,1.24,0,0,0,.45.21c-.08,1.75-.25,2.2-1.31,2.2H67.3c-1.14,0-1.47-.17-1.47-1v-5.55l.67.06c0,.08-.08.13-.22.15v2.71a38.21,38.21,0,0,0,4.33-1.57l.45.43a.12.12,0,0,1-.1,0h-.14a44.15,44.15,0,0,1-4.54,1.54v2.2c0,.45.15.56,1,.56Zm-4.15,6.51c0,.46.17.58,1,.58H70.6c.76,0,.88-.32.95-2.21a1.44,1.44,0,0,0,.45.19c-.09,2-.27,2.45-1.38,2.45H67.34c-1.17,0-1.51-.17-1.51-1V606.3l.67.06c0,.08-.08.13-.22.15V609a19.57,19.57,0,0,0,4.59-1.72l.4.45a.13.13,0,0,1-.1,0H71a21.59,21.59,0,0,1-4.77,1.68Z"/><path class="cls-1" d="M81,605.39a4.32,4.32,0,0,1,2.66-1.12c1.13,0,1.69.81,1.86,2.07,1.33-.62,3-1.3,4.33-1.8l.32.63h-.09a.43.43,0,0,1-.23-.09c-1.16.41-2.92,1.11-4.27,1.74a11.64,11.64,0,0,1,.06,1.33c0,.55,0,1.18-.06,1.84h-.54c0-.58.08-1.38.08-2.07a8,8,0,0,0,0-.9c-2,1-3.79,2.16-3.79,3.3s1.18,1.54,3.52,1.54a33.64,33.64,0,0,0,3.79-.15v.51c-1,.09-2.35.12-3.79.12-2.88,0-4-.72-4-2s1.88-2.61,4.21-3.78c-.12-1.29-.67-1.8-1.38-1.8-1.17,0-2.37.69-3.81,2.27a23.08,23.08,0,0,1-1.71,1.63l-.33-.34a10.92,10.92,0,0,0,4-6H78.14v-.48h2.6l1.18,0a21.58,21.58,0,0,0,.46-2.26l.88.15c0,.15-.13.24-.36.25a18.92,18.92,0,0,1-.44,1.86,21.7,21.7,0,0,0,5.58-.92l.1.5a22.37,22.37,0,0,1-5.82.9,11.87,11.87,0,0,1-1.3,3.07Z"/><path class="cls-1" d="M109.56,608.81h-6c1.06,2,3.3,3.32,6.12,3.79a2.24,2.24,0,0,0-.31.42c-2.9-.58-5.24-2-6.31-4.21h-.69c-.75,1.53-2.42,3-6.08,4.2a2.12,2.12,0,0,0-.27-.37c3.45-1.08,5.07-2.43,5.83-3.83H96v-.45h6a6.17,6.17,0,0,0,.42-1.8H97.87v-.45h4.65c0-.21,0-.42,0-.62v-1.08h-5V604h5v-1.78l.67.06c0,.08-.08.13-.23.15V604h5.19v.45H103v1.08c0,.2,0,.41,0,.62h5v.45h-5a6.07,6.07,0,0,1-.39,1.8h7ZM97,601.62v2.19h-.45v-2.64h6v-2l.67.06c0,.08-.08.13-.23.15v1.75h6v2.64h-.45v-2.19Z"/><path class="cls-1" d="M118.26,609l2.4-.71.06.41c-1.86.58-3.84,1.18-5.05,1.54a.21.21,0,0,1-.15.21l-.3-.58,2.59-.74v-4.39h-2.17v-.45h2.17v-3.85h-2.4V600h5.13v.45h-2.28v3.85h2.17v.45h-2.17Zm5.23-.3c0,.08-.11.13-.24.15-.37,2-1.26,3.42-4,4.16a1.82,1.82,0,0,0-.3-.37c2.61-.66,3.54-2,3.86-4Zm2.49,3.36c0,.32.09.39.58.39h1.75c.43,0,.51-.23.55-1.84a1.2,1.2,0,0,0,.42.19c0,1.68-.2,2.07-.93,2.07h-1.82c-.79,0-1-.13-1-.81v-3.84h-4.16V600h6.88v8.25H126Zm-4.16-11.64v2.13h6v-2.13Zm0,2.58v2.15h6V603Zm0,2.59v2.18h6V605.6Z"/><path class="cls-1" d="M137.76,599.82c0,.17-.17.27-.46.3-.12,1.58-.27,5.87-.27,8.1,0,2.46,1.2,3.66,3.3,3.66a7.43,7.43,0,0,0,5.79-3.12,1.53,1.53,0,0,0,.38.33,8,8,0,0,1-6.18,3.27c-2.32,0-3.78-1.41-3.78-4.17,0-1.8.15-6.66.27-8.54Z"/><path class="cls-1" d="M152.92,601.71c.94.06,2.05.06,3,.06.81,0,1.75,0,2.52,0,0-.77,0-1.68,0-2.25l.93.06c0,.18-.13.25-.42.3,0,.51,0,1.26,0,1.86a27.66,27.66,0,0,0,5.28-.64l.1.48a28.13,28.13,0,0,1-5.4.65l.09,3.22a23.27,23.27,0,0,0,4.53-.63l.11.5a28.68,28.68,0,0,1-4.62.58l.12,2.89a17.76,17.76,0,0,1,4.67,2.5l-.32.42a16.18,16.18,0,0,0-4.32-2.42c0,.32,0,.66,0,.9a2.1,2.1,0,0,1-2.37,2.38c-1.86,0-3.27-.66-3.27-2.05s1.65-2.1,3.22-2.1a7.18,7.18,0,0,1,1.89.23c0-.77-.06-1.73-.09-2.73l-1.64,0c-2.14,0-3.28-.13-3.28-1.14,0-.53.4-.93,1.27-1.53l.34.34c-1,.57-1.12.92-1.12,1.21,0,.51,1,.65,2.79.65l1.61,0-.09-3.21c-1.1,0-2.08,0-3.5,0-.71,0-1.47,0-2.05,0Zm5.82,7.4a6.9,6.9,0,0,0-1.92-.26c-1.27,0-2.75.53-2.75,1.64s1.26,1.6,2.79,1.6,1.89-.63,1.89-1.92Z"/><path class="cls-1" d="M171.09,602.09c1.23,0,5.5-.17,7.35-.24,0-.25-.09-2.48-.09-2.5l.9,0c0,.14-.1.25-.39.3,0,.48,0,1.36.06,2.16,1.76-.06,3.66-.1,5-.12v.51c-1.41,0-3.25,0-5,.09,0,1.27,0,2,.12,3.36a5.23,5.23,0,0,1,.17,1.56c0,1.42-.12,3.94-4.42,5.71l-.32-.41c2.76-1,4-2.58,4.26-4.35h0a2.34,2.34,0,0,1-2.05,1.14,2.46,2.46,0,0,1-2.42-2.55,2.7,2.7,0,0,1,2.58-2.73,2.36,2.36,0,0,1,1.69.63c0-.09,0-.17,0-.23,0-.33,0-1.21-.06-2.13-2.07.06-5.77.18-7.35.25Zm7.59,4.77c0-1-.2-2.31-1.8-2.31a2.13,2.13,0,0,0-2.13,2.25,2,2,0,0,0,2,2.05A1.94,1.94,0,0,0,178.68,606.86Z"/><path class="cls-1" d="M194.61,610.91a2.1,2.1,0,1,1-2.1-2.1A2.11,2.11,0,0,1,194.61,610.91Zm-.45,0a1.65,1.65,0,1,0-1.65,1.65A1.65,1.65,0,0,0,194.16,610.91Z"/><line class="cls-2" x1="143.4" y1="22.78" x2="161.58" y2="22.78"/><polyline class="cls-2" points="150.72 0.17 172.45 22.77 150.72 45.38"/></g></g></svg>