<svg xmlns="http://www.w3.org/2000/svg" viewBox="0 0 127.04 87"><defs><style>.cls-1{fill:#fff;}.cls-2{fill:none;stroke:#fff;stroke-miterlimit:10;stroke-width:0.25px;}</style></defs><title>project_title_small</title><g id="Layer_2" data-name="Layer 2"><g id="レイヤー_1" data-name="レイヤー 1"><path class="cls-1" d="M45.71,11.06v-10h4A3.33,3.33,0,0,1,52,1.75a2.55,2.55,0,0,1,.8,2A2.73,2.73,0,0,1,52.56,5a2.38,2.38,0,0,1-.66.85,2.87,2.87,0,0,1-1,.52,4.45,4.45,0,0,1-1.28.17H46v4.55Zm4-4.83a3.56,3.56,0,0,0,1.09-.16,2.49,2.49,0,0,0,.88-.48,2.21,2.21,0,0,0,.58-.76,2.41,2.41,0,0,0,.21-1A2.36,2.36,0,0,0,51.84,2a3,3,0,0,0-2.08-.63H46V6.23Z"/><path class="cls-1" d="M55.72,11.06V3.87H56V5.65h0a2.8,2.8,0,0,1,.31-.76,2.16,2.16,0,0,1,.56-.62,2.73,2.73,0,0,1,.83-.42,3.46,3.46,0,0,1,1.13-.14V4a2.71,2.71,0,0,0-1.28.2,2.42,2.42,0,0,0-.89.67,2.83,2.83,0,0,0-.52,1A4,4,0,0,0,56,7v4.07Z"/><path class="cls-1" d="M61.14,6a3.62,3.62,0,0,1,.62-1.2,3.16,3.16,0,0,1,1-.83,3.24,3.24,0,0,1,2.79,0,3.17,3.17,0,0,1,1,.83A3.6,3.6,0,0,1,67.2,6a4.91,4.91,0,0,1,0,2.84,3.6,3.6,0,0,1-.62,1.2,3.1,3.1,0,0,1-1,.83,3,3,0,0,1-1.4.31,3,3,0,0,1-1.39-.31,3.09,3.09,0,0,1-1-.83,3.62,3.62,0,0,1-.62-1.2,4.91,4.91,0,0,1,0-2.84Zm.26,2.74A3.34,3.34,0,0,0,62,9.89a2.81,2.81,0,0,0,.93.77,3,3,0,0,0,2.55,0,2.81,2.81,0,0,0,.93-.77,3.34,3.34,0,0,0,.57-1.11,4.55,4.55,0,0,0,.19-1.32,4.5,4.5,0,0,0-.19-1.3,3.35,3.35,0,0,0-.57-1.11,2.9,2.9,0,0,0-.93-.78,2.91,2.91,0,0,0-2.55,0,2.89,2.89,0,0,0-.93.78,3.35,3.35,0,0,0-.57,1.11,4.5,4.5,0,0,0-.19,1.3A4.55,4.55,0,0,0,61.4,8.78Z"/><path class="cls-1" d="M70.7,12.88a.89.89,0,0,1-.34.43,1.21,1.21,0,0,1-.55.18,7,7,0,0,1-.73,0v-.28q.39,0,.67,0a.92.92,0,0,0,.45-.15.68.68,0,0,0,.25-.37,2.53,2.53,0,0,0,.08-.7V3.87h.28V12.1A2.2,2.2,0,0,1,70.7,12.88Zm-.17-10.4V1.07h.28V2.48Z"/><path class="cls-1" d="M74.35,8.87a3.19,3.19,0,0,0,.5,1.08,2.36,2.36,0,0,0,.87.73A2.88,2.88,0,0,0,77,11a2.93,2.93,0,0,0,1.88-.6,2.69,2.69,0,0,0,.93-1.79h.28a2.87,2.87,0,0,1-1,2,3.15,3.15,0,0,1-2.07.69A3.23,3.23,0,0,1,75.61,11a2.53,2.53,0,0,1-1-.79A3.49,3.49,0,0,1,74.07,9a5.82,5.82,0,0,1-.18-1.49,4.46,4.46,0,0,1,.27-1.6,3.71,3.71,0,0,1,.7-1.18A2.95,2.95,0,0,1,77,3.7,3.06,3.06,0,0,1,78.49,4a2.86,2.86,0,0,1,1,.85A3.58,3.58,0,0,1,80,6.09a5,5,0,0,1,.15,1.43h-6A5.86,5.86,0,0,0,74.35,8.87ZM79.73,6a3.15,3.15,0,0,0-.54-1,2.56,2.56,0,0,0-.89-.71A2.79,2.79,0,0,0,77.07,4,2.71,2.71,0,0,0,76,4.2a2.61,2.61,0,0,0-.9.65,3.36,3.36,0,0,0-.62,1,4.32,4.32,0,0,0-.28,1.36h5.74A4.27,4.27,0,0,0,79.73,6Z"/><path class="cls-1" d="M88.77,9.7a2.61,2.61,0,0,1-.62.82,2.76,2.76,0,0,1-.9.52,3.35,3.35,0,0,1-1.13.18,3.1,3.1,0,0,1-1.37-.29,2.94,2.94,0,0,1-1-.78A3.42,3.42,0,0,1,83.15,9a4.52,4.52,0,0,1-.21-1.39,5.4,5.4,0,0,1,.2-1.49,3.71,3.71,0,0,1,.62-1.25,3,3,0,0,1,1-.86A3.26,3.26,0,0,1,86.3,3.7a3,3,0,0,1,1,.15,2.61,2.61,0,0,1,.83.45A2.5,2.5,0,0,1,88.7,5a2.76,2.76,0,0,1,.31,1h-.28a2.64,2.64,0,0,0-.31-.92,2.3,2.3,0,0,0-.55-.64,2.2,2.2,0,0,0-.73-.38A2.87,2.87,0,0,0,86.3,4a3,3,0,0,0-1.45.33,2.72,2.72,0,0,0-1,.85,3.62,3.62,0,0,0-.52,1.18,5.32,5.32,0,0,0-.16,1.28,4.18,4.18,0,0,0,.19,1.26A3.28,3.28,0,0,0,84,9.94a2.63,2.63,0,0,0,.91.74,2.79,2.79,0,0,0,1.26.27,3,3,0,0,0,1-.16,2.45,2.45,0,0,0,1.67-2.18h.28A3.1,3.1,0,0,1,88.77,9.7Z"/><path class="cls-1" d="M93,9.66a1.73,1.73,0,0,0,.09.63.81.81,0,0,0,.23.34.6.6,0,0,0,.31.13l.34,0h.38a.79.79,0,0,0,.24,0V11l-.25,0H93.9a1.26,1.26,0,0,1-.83-.29,1.33,1.33,0,0,1-.34-1.06V4.15H91.41V3.87h1.32V1.6H93V3.87h1.62v.28H93Z"/><path class="cls-1" d="M33.33,46.36c0,.05-.05.09-.15.11s.15,5.7,4.17,7.5a1.2,1.2,0,0,0-.21.22c-2.85-1.31-3.76-4.54-4.06-6.41h0c-.23,1.89-1,5-4,6.39a1.21,1.21,0,0,0-.19-.18c3.83-1.78,4-6.42,4-7.65Z"/><path class="cls-1" d="M43.86,53.22H47.8v.27H39.69v-.27h3.9V47.38H40.14v-.27h7.26v.27H43.86Z"/><path class="cls-1" d="M52.71,47.56v1.76a5.35,5.35,0,0,1,0,.54h1.85v.27H52.68a7.29,7.29,0,0,1-.16,1c.4.39,1.56,1.65,1.84,2l-.19.23c-.31-.38-1.25-1.44-1.72-1.93a4.92,4.92,0,0,1-2,2.67.79.79,0,0,0-.18-.21,4.76,4.76,0,0,0,2.13-3.76H50.33v-.27h2.1c0-.19,0-.37,0-.55V47.56h-1a6.69,6.69,0,0,1-.83,1.73,2.39,2.39,0,0,0-.23-.14A8.39,8.39,0,0,0,51.53,46l.41.11c0,.05-.07.08-.16.08-.08.38-.18.76-.29,1.13h2.77v.27ZM55,46.79h3.2v7.14h-.27v-.72H55.27V54H55Zm.27,6.15h2.66V47.06H55.27Z"/><path class="cls-1" d="M64.71,48.14A10.05,10.05,0,0,0,63.85,47l.2-.1a9.56,9.56,0,0,1,1.31,2l-.2.13a6.54,6.54,0,0,0-.31-.6l-3.59.17a.13.13,0,0,1-.11.11L61,48.27l.75,0A16.31,16.31,0,0,0,62.84,46l.38.12s-.07.07-.16.08a22.23,22.23,0,0,1-1,2Zm0,1.3v4.38c0,.44-.17.45-1.41.45a1,1,0,0,0-.12-.3l.8,0c.42,0,.46,0,.46-.17V52.48H61.95V54.3h-.27V49.44Zm-.27.27H61.95V50.8h2.53Zm-2.53,2.5h2.53V51.07H61.95Zm6.57-2.57c.41,0,.49-.17.52-1.18a.75.75,0,0,0,.27.13c0,1.05-.15,1.32-.78,1.32H66.64c-.68,0-.88-.1-.88-.6V46l.4,0s0,.08-.13.09v1.63a22.86,22.86,0,0,0,2.6-.95l.27.26a.08.08,0,0,1-.06,0h-.08A26.28,26.28,0,0,1,66,48v1.32c0,.27.09.33.58.33ZM66,53.55c0,.28.1.35.62.35h2c.46,0,.53-.19.57-1.32a.88.88,0,0,0,.27.12c-.05,1.18-.16,1.47-.83,1.47h-2c-.7,0-.91-.1-.91-.61V50.24l.4,0s0,.08-.13.09v1.52a11.74,11.74,0,0,0,2.75-1l.24.27a.08.08,0,0,1-.06,0h-.07a12.94,12.94,0,0,1-2.86,1Z"/><path class="cls-1" d="M73.45,46.62c0,.1-.13.14-.31.13a22.34,22.34,0,0,0-.47,4.12A11.83,11.83,0,0,0,72.82,53l.76-2,.27.1c-.41,1.1-.66,1.63-.77,2a1.49,1.49,0,0,0-.07.41.81.81,0,0,0,0,.26l-.29.08a9.13,9.13,0,0,1-.39-3,24.16,24.16,0,0,1,.51-4.38Zm6,6.48-1,0A12.08,12.08,0,0,1,76.69,53c-1-.15-1.53-.73-1.53-1.42a2.73,2.73,0,0,1,.89-1.69l.24.16a2.36,2.36,0,0,0-.84,1.52c0,.52.43,1,1.31,1.15a10.6,10.6,0,0,0,1.56.1c.35,0,.72,0,1.08,0Zm-4.2-5.28a27.42,27.42,0,0,0,4-.35l0,.3a32.52,32.52,0,0,1-4,.35Z"/><path class="cls-1" d="M89.36,53.37a8.92,8.92,0,0,0-3.05-1.57c0,.26,0,.77,0,1,0,.83-.62,1.25-1.59,1.25s-2-.49-2-1.4c0-.76.86-1.32,2-1.34a5.82,5.82,0,0,1,1.23.12c0-.32-.05-.59-.07-.85-.07-1.15-.13-2.9-.13-4.37l.57,0c0,.09-.08.17-.24.19v1.82A22.76,22.76,0,0,0,89.28,48l0,.31a27.12,27.12,0,0,1-3.2.26c0,.69,0,1.27.09,2,0,.28.06.63.08.95a10,10,0,0,1,3.25,1.63ZM86,52.29c0-.19,0-.39,0-.54a4.48,4.48,0,0,0-1.14-.13c-1.22,0-1.83.5-1.83,1.05,0,.74.8,1.11,1.64,1.11s1.34-.36,1.34-1Z"/><path class="cls-1" d="M94.37,50.07A6,6,0,0,1,97,49.42a2.06,2.06,0,0,1,2.34,2.1c0,1.64-1.45,2.52-3.14,2.52-1.18,0-2-.42-2-1.14a1.27,1.27,0,0,1,1.4-1.12,2,2,0,0,1,1.84,1.77,2.12,2.12,0,0,0,1.58-2A1.81,1.81,0,0,0,97,49.7a5.58,5.58,0,0,0-3.47,1.23c-.3.29-.64.68-.89,1l-.22-.22c.92-1,3.71-3.67,4.94-4.83-.58.08-2.55.14-3.79.18a.25.25,0,0,1-.16.13l-.06-.42c1.27,0,3.45-.09,4.14-.19l.13-.06.32.34a.46.46,0,0,1-.19.08c-.76.64-2.66,2.47-3.33,3.14Zm1.78,3.69a4.05,4.05,0,0,0,1-.13,1.71,1.71,0,0,0-1.58-1.58c-.58,0-1.11.32-1.11.84S95.39,53.76,96.15,53.76Z"/><path class="cls-1" d="M4.86,63.4H2.59v6.52H2.28V63.4H0v-.28H4.86Z"/><path class="cls-1" d="M12.15,63.12,9.6,69.91H9.31L7,63.12h.35l1.26,3.77c.34,1,.62,1.85.82,2.6h0c.21-.76.52-1.63.89-2.6l1.41-3.77Z"/><path class="cls-1" d="M19.13,69.66a4.35,4.35,0,0,1-1.85.35c-1.56,0-3.16-1-3.16-3.47A3.28,3.28,0,0,1,17.52,63a3.42,3.42,0,0,1,1.56.3l-.13.26a3.06,3.06,0,0,0-1.4-.31,3,3,0,0,0-3.11,3.31,2.87,2.87,0,0,0,3,3.18A3.54,3.54,0,0,0,19,69.42Z"/><path class="cls-1" d="M28.34,69.91H28l-.21-3.31c-.08-1.19-.16-2.37-.15-3h0c-.25.71-.52,1.47-.94,2.51l-1.52,3.86H25l-1.43-3.76c-.41-1.11-.7-1.88-.91-2.61h0c0,.78-.07,2-.16,3.14l-.22,3.21H21.9l.5-6.8h.33l1.58,4.17c.32.88.57,1.53.77,2.16h0c.18-.6.42-1.19.78-2.12l1.64-4.2h.36Z"/><path class="cls-1" d="M34.19,64.31l.18.06a.19.19,0,0,1,0,.07,11.43,11.43,0,0,1-.95,3.93,7.07,7.07,0,0,1,1.12,1l-.17.23a6.91,6.91,0,0,0-1.07-1,4.87,4.87,0,0,1-1.87,2,1.18,1.18,0,0,0-.2-.23,4.59,4.59,0,0,0,1.85-2,11.56,11.56,0,0,0-1.4-.89L31.5,68l-.25-.13c.24-.82.57-2.07.86-3.3h-1v-.27h1.11c.16-.7.31-1.39.43-2l.41.06c0,.05-.05.08-.14.08-.12.53-.26,1.16-.42,1.82h1.69Zm-1.81.29c-.23.95-.47,1.92-.68,2.72a13.77,13.77,0,0,1,1.46.89A10.65,10.65,0,0,0,34,64.59Zm7,1.84v.27H37v3.45c0,.28-.08.39-.31.44a8.33,8.33,0,0,1-1.47,0,1.76,1.76,0,0,0-.12-.28l1,0c.56,0,.59,0,.59-.22V66.7H34.35v-.27h2.41V64.8l.25,0a8.77,8.77,0,0,0,1.69-1.72h-4v-.27h4.17l.06,0,.23.15a.19.19,0,0,1-.09.05A10,10,0,0,1,37,65.12v1.31Z"/><path class="cls-1" d="M42.86,63.64v1.09a5.59,5.59,0,0,1-1,3.43.57.57,0,0,0-.21-.18,5.28,5.28,0,0,0,.9-3.25V63.37h3.73a7.87,7.87,0,0,1-.13-1l.44,0c0,.06-.05.09-.14.1,0,.3.05.6.1.9h3.36v.27h-3.3a9.09,9.09,0,0,0,.93,2.48,7.46,7.46,0,0,0,1-1.83l.39.12c0,.05-.08.08-.17.08a7.45,7.45,0,0,1-1.07,1.88c.53.85,1.13,1.41,1.65,1.4.27,0,.37-.33.42-1.22a.76.76,0,0,0,.25.13c-.07,1-.23,1.37-.67,1.37-.6,0-1.26-.58-1.82-1.47a6.88,6.88,0,0,1-1.6,1.4,1,1,0,0,0-.21-.18,6.42,6.42,0,0,0,1.66-1.45,9.36,9.36,0,0,1-1-2.72Zm.43,4.86a2.41,2.41,0,0,1-1.35,1.84l-.21-.16a2.29,2.29,0,0,0,1.31-1.74Zm-.06-3.83v-.27h2.92v.27Zm2.63,2.48H43.78v.37h-.27V65.38h2.35Zm-.27-1.51H43.78v1.24h1.81ZM44.42,70c0,.21.09.25.63.25h2c.44,0,.5-.12.54-1.05a.88.88,0,0,0,.27.12c0,1-.16,1.21-.79,1.21h-2c-.73,0-.93-.07-.93-.53V68.42l.41,0s0,.08-.13.09Zm2-.9A5.94,5.94,0,0,0,44.72,68l.18-.19a5.63,5.63,0,0,1,1.75,1.07Zm1.25-6.73a4.44,4.44,0,0,1,1.36.66l-.16.23a4.56,4.56,0,0,0-1.36-.68Zm2.09,8A6.4,6.4,0,0,0,48,68.55l.21-.15A6.29,6.29,0,0,1,50,70.15Z"/><path class="cls-1" d="M60.88,63.62H53.67v2.44a10.07,10.07,0,0,1-.85,4.63.78.78,0,0,0-.23-.16,9.58,9.58,0,0,0,.81-4.47V63.35h3.5v-1l.41,0s0,.08-.13.09v.86h3.71Zm-1.19,4,.2.12a.24.24,0,0,1-.07.06,4.75,4.75,0,0,1-2.05,1.81,10.9,10.9,0,0,0,3.18.82.89.89,0,0,0-.16.24,11.26,11.26,0,0,1-3.3-.93,12.15,12.15,0,0,1-3.46.91.94.94,0,0,0-.13-.24,11.9,11.9,0,0,0,3.31-.81A4.82,4.82,0,0,1,55.37,68l.23-.11a4.61,4.61,0,0,0,1.87,1.55,4.59,4.59,0,0,0,1.94-1.57h-5.2v-.27h5.41ZM59,66.78H55.76V65.2H54.13v-.27h1.64V64l.41,0s0,.08-.13.09v.82h2.73V64l.41,0s0,.08-.13.09v.82h1.78v.27H59Zm-.27-1.58H56v1.31h2.73Z"/><path class="cls-1" d="M71.31,65.78l.2.07a.12.12,0,0,1-.06.07,14.27,14.27,0,0,1-2.09,2.13l-.21-.14A12.46,12.46,0,0,0,71,66.06H67.65s0,.07-.13.09v4c0,.26-.08.37-.31.42a8.72,8.72,0,0,1-1.53,0,1.33,1.33,0,0,0-.12-.27h.95c.72,0,.74,0,.74-.21V66.06H63.4v-.27h5.25a14.34,14.34,0,0,0-3.18-1.65l.19-.23a16,16,0,0,1,1.94.86,11.54,11.54,0,0,0,2.29-1.59H64.23v-.27h5.86a.31.31,0,0,0,.15,0l.25.19a.13.13,0,0,1-.1,0,14,14,0,0,1-2.51,1.82,7.92,7.92,0,0,1,1.11.7l-.11.14h2.42Z"/><path class="cls-1" d="M75.52,66.09a7,7,0,0,0-1.58-.94l.15-.2a6,6,0,0,1,1.58.9Zm-1.36,4.24a28.45,28.45,0,0,0,1.36-2.92l.21.16a28,28,0,0,1-1.27,2.79.19.19,0,0,1,0,.11.2.2,0,0,1,0,.07Zm1.68-6.63a6.42,6.42,0,0,0-1.46-1l.17-.19a6.37,6.37,0,0,1,1.46,1Zm1.49,5.11a.17.17,0,0,1-.16.07,6.06,6.06,0,0,1-1.39,1.77,1.38,1.38,0,0,0-.21-.19,5.39,5.39,0,0,0,1.36-1.79Zm-.91-6H79V68.4H76.42Zm.27.27v1.49h2V63.08Zm0,1.76v1.49h2V64.85Zm0,1.76v1.52h2V66.61Zm2.57,3.68a11.07,11.07,0,0,0-1.13-1.47l.22-.13a11.38,11.38,0,0,1,1.13,1.43Zm.66-7,.4,0s0,.08-.13.09v5.07h-.27Zm1.68-1,.41,0c0,.05,0,.08-.13.09v7.66c0,.29-.11.39-.31.44a7.47,7.47,0,0,1-1.37.05,2.15,2.15,0,0,0-.12-.27h.72c.75,0,.8,0,.8-.23Z"/><path class="cls-1" d="M85.09,65.24a14.39,14.39,0,0,1,2.5.79l-.12.28A14.76,14.76,0,0,0,85,65.52Zm.75,4.56A9.65,9.65,0,0,0,92,64.38a2,2,0,0,0,.25.16A9.84,9.84,0,0,1,86.19,70a.19.19,0,0,1-.08.21ZM86,63a14.4,14.4,0,0,1,2.48.87l-.12.27a14.47,14.47,0,0,0-2.46-.87Z"/><path class="cls-1" d="M100.65,63.46a.11.11,0,0,1-.09.06,14.36,14.36,0,0,1-1.88,3.19,33.42,33.42,0,0,1,3.5,3.24l-.24.19a31.52,31.52,0,0,0-3.45-3.21,13.8,13.8,0,0,1-3.66,3.21,1.53,1.53,0,0,0-.21-.23,13.76,13.76,0,0,0,5.55-6.3H95.5v-.29h4.81l.07,0Z"/><path class="cls-1" d="M112.08,65.9h-3.2l.13,0c0,.05-.07.09-.16.1A4.91,4.91,0,0,1,106,70.31a1.59,1.59,0,0,0-.21-.23c1.94-.9,2.52-2.31,2.75-4.19h-3.7v-.29h7.21Zm-.87-2.56h-5.53v-.29h5.53Z"/><path class="cls-1" d="M121.69,70.1c-.13-.27-.3-.59-.5-.95-1.81.18-5.29.36-6.71.44a.25.25,0,0,1-.15.17l-.14-.45,1,0c.62-1.77,1.55-4.56,2.09-6.41l.47.14c0,.08-.11.11-.23.11-.54,1.75-1.38,4.35-2,6.15,1.78-.08,4.2-.24,5.57-.37a18.57,18.57,0,0,0-1.86-2.49l.24-.15A17.62,17.62,0,0,1,122,70Z"/><path class="cls-1" d="M124.94,68.34a18.81,18.81,0,0,1,2.1,2l-.26.25a18.67,18.67,0,0,0-2.06-2.08Z"/><path class="cls-1" d="M15.93,79.93H14v5.64H12.78V78.72h3.15Zm-.2-1H13v6.45h.85V79.73h1.91Z"/><path class="cls-1" d="M23.49,86a4.36,4.36,0,0,1-1.85.35c-1.56,0-3.16-1-3.16-3.47a3.28,3.28,0,0,1,3.41-3.54,3.42,3.42,0,0,1,1.56.3l-.13.26a3.06,3.06,0,0,0-1.4-.31,3,3,0,0,0-3.11,3.31,2.87,2.87,0,0,0,3,3.18,3.54,3.54,0,0,0,1.57-.33Z"/><path class="cls-1" d="M28.62,83a1.74,1.74,0,0,1,1.07,1.47,7.87,7.87,0,0,0,.5,1.83h-.33a9.23,9.23,0,0,1-.44-1.67c-.22-1-.65-1.52-1.58-1.52H26.69v3.2h-.31V79.58a7.09,7.09,0,0,1,1.38-.14,2.26,2.26,0,0,1,1.76.58A1.7,1.7,0,0,1,30,81.2,1.79,1.79,0,0,1,28.62,83Zm-.82-.16a1.63,1.63,0,0,0,1.84-1.57c0-1.21-.95-1.57-1.94-1.57a4.27,4.27,0,0,0-1,.12v3Z"/><path class="cls-1" d="M36.53,86.28H33.14v-6.8h3.22v.28H33.46v2.79H36.2v.28H33.46V86h3.07Z"/><path class="cls-1" d="M44.4,86.28h-.31l-.92-2.48H40.37l-.9,2.48h-.32l2.52-6.8h.23Zm-1.33-2.75-.9-2.42a12.51,12.51,0,0,1-.38-1.2h0c-.13.47-.22.75-.38,1.18l-.92,2.44Z"/><path class="cls-1" d="M50.5,79.77H48.23v6.52h-.32V79.77H45.63v-.28H50.5Z"/><path class="cls-1" d="M53.13,79.49h.31v6.8h-.31Z"/><path class="cls-1" d="M61.25,79.49l-2.55,6.8h-.29l-2.27-6.8h.35l1.26,3.77c.34,1,.62,1.85.82,2.6h0c.21-.76.52-1.63.89-2.6l1.41-3.77Z"/><path class="cls-1" d="M67.28,86.28H63.89v-6.8h3.22v.28H64.21v2.79H67v.28H64.21V86h3.07Z"/><path class="cls-1" d="M76.35,82.67a1.82,1.82,0,0,1,1,3,2.73,2.73,0,0,1-2.07.66c-.48,0-.85,0-1.1-.05V79.59a5.39,5.39,0,0,1,1.27-.15c1.71,0,2.11.86,2.11,1.68a1.65,1.65,0,0,1-1.18,1.51Zm-.81-.13a1.49,1.49,0,0,0,1.66-1.41h0c0-1-.77-1.4-1.84-1.4a3.77,3.77,0,0,0-.89.09v2.74ZM74.47,86a3.43,3.43,0,0,0,.87.07c1.09,0,2.13-.41,2.13-1.64s-1-1.64-2.09-1.64h-.91Z"/><path class="cls-1" d="M83.13,83a1.74,1.74,0,0,1,1.07,1.47,7.87,7.87,0,0,0,.5,1.83h-.33a9.23,9.23,0,0,1-.44-1.67c-.22-1-.65-1.52-1.58-1.52H81.19v3.2h-.31V79.58a7.09,7.09,0,0,1,1.38-.14A2.26,2.26,0,0,1,84,80a1.7,1.7,0,0,1,.46,1.19A1.79,1.79,0,0,1,83.13,83Zm-.82-.16a1.63,1.63,0,0,0,1.84-1.57c0-1.21-.95-1.57-1.94-1.57a4.27,4.27,0,0,0-1,.12v3Z"/><path class="cls-1" d="M92.53,86.28h-.31l-.92-2.48H88.51l-.9,2.48h-.32l2.52-6.8H90ZM91.2,83.54l-.9-2.42a12.51,12.51,0,0,1-.38-1.2h0c-.13.47-.22.75-.38,1.18l-.92,2.44Z"/><path class="cls-1" d="M95.38,79.49h.31v6.8h-.31Z"/><path class="cls-1" d="M103.77,86.28h-.32l-2.74-4.16c-.51-.79-1-1.46-1.31-2.14h0c.05.71.05,1.13.05,2.64v3.66h-.31v-6.8h.3l2.82,4.25a22.92,22.92,0,0,1,1.27,2.09l0,0c-.06-.91-.06-1.65-.06-2.72v-3.6h.32Z"/><path class="cls-1" d="M106.77,85.8h1.91V80.16h1.24V87h-3.15Zm.2,1h2.75V80.36h-.85V86H107Z"/><path class="cls-1" d="M115.59,85.74a1.26,1.26,0,1,1-1.26-1.26A1.26,1.26,0,0,1,115.59,85.74Zm-.27,0a1,1,0,1,0-1,1A1,1,0,0,0,115.32,85.74Z"/><line class="cls-2" x1="28.84" y1="6.04" x2="33.62" y2="6.04"/><polyline class="cls-2" points="30.76 0.09 36.49 6.04 30.76 11.99"/></g></g></svg>