<svg xmlns="http://www.w3.org/2000/svg" viewBox="0 0 121.42 398.98"><defs><style>.cls-1{fill:#fff;}.cls-2{fill:none;stroke:#fff;stroke-miterlimit:10;stroke-width:0.5px;}.cls-3{fill:#231f20;}</style></defs><title>pro3_small</title><g id="Layer_2" data-name="Layer 2"><g id="レイヤー_1" data-name="レイヤー 1"><path class="cls-1" d="M34.32,48.8V47a5.52,5.52,0,0,1-1.71,1.71,1.3,1.3,0,0,0-.19-.21,4.87,4.87,0,0,0,1.75-1.71H32.53v-.27h1.78v-1.8l.41,0s0,.08-.13.09v1.67h1.76v.27H34.59V47c.37.23,1.5,1,1.76,1.21l-.18.23a18.25,18.25,0,0,0-1.58-1.18v1.5Zm.26,1.45a3,3,0,0,1-.07.56c.58.42,1.3,1,1.68,1.34l-.22.19a19.41,19.41,0,0,0-1.54-1.27,3.08,3.08,0,0,1-1.83,1.74,1.33,1.33,0,0,0-.16-.23c1.52-.69,1.82-1.54,1.86-2.33H32.53V50h1.78V49l.41,0s0,.08-.13.09V50h1.8v.27ZM33,45.06a3.79,3.79,0,0,1,.6,1.06l-.24.13a4.22,4.22,0,0,0-.59-1.09Zm2.2,1.1A8.12,8.12,0,0,0,35.86,45l.37.17a.17.17,0,0,1-.15.06,10.1,10.1,0,0,1-.61,1ZM38,51.81a.23.23,0,0,1-.17.07A5.62,5.62,0,0,1,36,53a1.17,1.17,0,0,0-.21-.22,5.16,5.16,0,0,0,1.85-1.11Zm-1.25-5.18H38c.1-.33.22-.78.3-1.13H36.39v-.27h4.34v.27H38.61c-.07.31-.19.77-.3,1.13h2.08v4.71H36.73Zm3.39,1.47V46.9H37v1.2Zm0,1.48V48.37H37v1.21Zm0,1.49V49.85H37v1.22Zm-.86.63a9.79,9.79,0,0,1,1.62,1.14l-.23.17A9.57,9.57,0,0,0,39,51.86Z"/><path class="cls-1" d="M44.53,47.4a12.27,12.27,0,0,1-1.24,1.86,1.83,1.83,0,0,0-.18-.21,12.94,12.94,0,0,0,2.26-4.26l.39.12c0,.05-.08.08-.17.08a15.47,15.47,0,0,1-.78,1.88l.14,0s0,.07-.14.08v6h-.27ZM46.64,51l2.27-.82,0,.23c-1.16.45-2.38.91-3.16,1.19a.13.13,0,0,1-.08.13l-.2-.35.86-.29-.06-5.85.41,0s0,.08-.13.09Zm4.64-5.84c0,.05-.05.09-.15.09A12.53,12.53,0,0,1,50,50.52c.65.76,1.4,1.72,1.77,2.28l-.21.2c-.37-.57-1.08-1.5-1.7-2.25A5.43,5.43,0,0,1,46.58,53a1.27,1.27,0,0,0-.17-.23c3.53-1,4.21-3.21,4.44-7.73Zm-3.39.8a10.08,10.08,0,0,1,1.43,2.17l-.23.15a10.61,10.61,0,0,0-1.42-2.2Z"/><path class="cls-1" d="M59,52a4.36,4.36,0,0,1-1.85.35c-1.56,0-3.16-1-3.16-3.47a3.28,3.28,0,0,1,3.41-3.54,3.41,3.41,0,0,1,1.56.3l-.13.26a3.07,3.07,0,0,0-1.4-.31,3,3,0,0,0-3.11,3.31,2.87,2.87,0,0,0,3,3.18,3.54,3.54,0,0,0,1.57-.33Z"/><path class="cls-1" d="M68.2,52.28h-.31L67.68,49c-.08-1.19-.16-2.37-.15-3h0c-.25.71-.52,1.47-.94,2.51L65,52.3h-.21l-1.43-3.76c-.41-1.11-.7-1.88-.91-2.61h0c0,.78-.07,2-.16,3.14l-.22,3.21h-.32l.5-6.8h.33l1.58,4.17c.32.88.57,1.53.77,2.16h0c.18-.6.42-1.19.78-2.12l1.64-4.2h.36Z"/><path class="cls-1" d="M72.84,48c.28.32,1,1.37,1.2,1.63l-.2.23c-.16-.29-.67-1.06-1-1.51V53h-.27V47.82a11.75,11.75,0,0,1-1.44,3.33,1.15,1.15,0,0,0-.21-.22A11.86,11.86,0,0,0,72.5,47h-1.4v-.27h1.46V44.72l.41,0s0,.08-.13.09v1.93H74V47a6.71,6.71,0,0,0,2.46-2.3l.46,0s-.05.07-.11.09A7.85,7.85,0,0,0,79.46,47a1.23,1.23,0,0,0-.17.23A8.67,8.67,0,0,1,76.59,45,7.81,7.81,0,0,1,74,47.33a1.22,1.22,0,0,0-.17-.21L74,47H72.84Zm6,2.53h-2a3.7,3.7,0,0,0,2.54,2.27.75.75,0,0,0-.18.26,4,4,0,0,1-2.63-2.53c-.22,1-.9,1.87-2.78,2.51a.81.81,0,0,0-.18-.22c1.8-.59,2.47-1.41,2.68-2.29h-2v-2.2h2.13V47.22H74.77v-.27h3.66v.27H76.69v1.11h2.18Zm-4.3-.27h1.81a4,4,0,0,0,0-.66v-1H74.57Zm4-1.66H76.69v1a3.91,3.91,0,0,1,0,.65h2Z"/><path class="cls-1" d="M84.79,51.24s-.08.06-.17.05a10,10,0,0,1-2.35,1.57,2.38,2.38,0,0,0-.22-.18,8.75,8.75,0,0,0,2.39-1.6Zm2.7-2.06A14.76,14.76,0,0,1,90,50.89l-.2.21a8.33,8.33,0,0,0-.67-.56l-2.85.08V53H86V50.62l-3.57.08a.13.13,0,0,1-.12.11l-.13-.4,2,0c.27-.16.55-.34.85-.54a11.35,11.35,0,0,0-1.89-1.18l.2-.17.57.3a13.12,13.12,0,0,0,1.58-1.37H82.57V48.8H82.3V47.17H86V45.9H82.27v-.27H86V44.7l.41,0s0,.08-.14.09v.8H90v.27H86.26v1.27H90V48.8h-.27V47.44H85.67l.26.13a.19.19,0,0,1-.16.05,14.85,14.85,0,0,1-1.58,1.31,10.48,10.48,0,0,1,1.12.75A21.1,21.1,0,0,0,87.53,48l.36.2a.19.19,0,0,1-.17,0,28.8,28.8,0,0,1-3,2.17l4.06-.08a15.08,15.08,0,0,0-1.49-1Zm2.38,3.66A10.18,10.18,0,0,0,87.5,51.3l.22-.17a10.22,10.22,0,0,1,2.38,1.52Z"/><path class="cls-1" d="M2.67,75.88c.27.21,1.09.9,1.28,1.08l-.15.19a14.83,14.83,0,0,0-1.13-1v2.16H2.46V75.88a6.17,6.17,0,0,1-1.38,1.74.86.86,0,0,0-.15-.16,5.32,5.32,0,0,0,1.46-1.85H1V75.4H2.46v-.9H.93v-.21H4.31v.21H2.67v.9H4.21v.21H2.67Zm1.49-3.21v.21H1.07v-.21H2.46v-.83l.32,0s0,.06-.11.07v.73ZM1.75,73a4.32,4.32,0,0,1,.35,1.18l-.2.06A4.57,4.57,0,0,0,1.56,73Zm1.95.11s-.06.06-.12.06a9.76,9.76,0,0,1-.43,1.11L3,74.16A8.56,8.56,0,0,0,3.41,73Zm3.68,1.21v.21H6.44v3.78H6.23V74.5H4.85V75a4.26,4.26,0,0,1-1.17,3.31.54.54,0,0,0-.15-.16A4,4,0,0,0,4.64,75V72.51l.25.1A10.77,10.77,0,0,0,7,71.86l.25.18a.08.08,0,0,1-.06,0h0a14.16,14.16,0,0,1-2.33.76v1.48Z"/><path class="cls-1" d="M12.07,72c0,.07-.12.13-.21.13,0,.34-.12.72-.2,1.23a8.39,8.39,0,0,0,2.21-.42l.08.22a9.11,9.11,0,0,1-2.32.43,16.73,16.73,0,0,1-1.33,4.48L10.08,78a15.94,15.94,0,0,0,1.31-4.38H10v-.23h1.42c.08-.48.15-1,.21-1.42Zm3.74,6h-.6a6.45,6.45,0,0,1-1.79-.18.91.91,0,0,1-.67-.89,1.64,1.64,0,0,1,.43-1l.18.12a1.49,1.49,0,0,0-.39.89c0,.63.57.85,2.07.85.24,0,.49,0,.75,0Zm-.22-3.41a7.53,7.53,0,0,0-2.5.35L13,74.7a8.19,8.19,0,0,1,2.58-.37Z"/><path class="cls-1" d="M19.69,72.32c0,.08-.1.11-.25.1a17.33,17.33,0,0,0-.36,3.21,9.25,9.25,0,0,0,.12,1.66l.59-1.53.21.08c-.32.86-.51,1.27-.6,1.56a1.15,1.15,0,0,0-.06.32.61.61,0,0,0,0,.2l-.22.06a7.11,7.11,0,0,1-.3-2.35,18.81,18.81,0,0,1,.4-3.41Zm4.64,5-.74,0a9.29,9.29,0,0,1-1.38-.08c-.78-.12-1.19-.57-1.19-1.11a2.12,2.12,0,0,1,.69-1.32l.19.13a1.83,1.83,0,0,0-.65,1.18c0,.41.34.79,1,.9a8.27,8.27,0,0,0,1.21.08c.27,0,.56,0,.84,0Zm-3.27-4.1A21.21,21.21,0,0,0,24.17,73l0,.23a25.32,25.32,0,0,1-3.13.27Z"/><path class="cls-1" d="M27.07,74.87a9.25,9.25,0,0,0,3.07-3.08l.38,0s-.06.06-.12.08a10.63,10.63,0,0,0,3.12,2.89.87.87,0,0,0-.14.17A10.87,10.87,0,0,1,30.25,72a9.93,9.93,0,0,1-3,3Zm3.36.83v2.14h2.91V78H27.25v-.21h1V75l.32,0s0,.06-.11.07v2.72h1.72V73.68l.32,0s0,.06-.1.07v1.72h2.22v.21Z"/><path class="cls-1" d="M36.17,72.33h6.21v.21h-3v1H41v3.17H37.51V73.57h1.63v-1h-3ZM42,77.58V73.5l.32,0s0,.06-.11.07v4.64H42v-.45H36.6v.48h-.21V73.5l.32,0s0,.06-.11.07v4Zm-4.26-3.8V75h1.42V73.77Zm0,1.47v1.27h1.42V75.25ZM40.79,75V73.77H39.36V75Zm0,1.48V75.25H39.36v1.27Z"/><path class="cls-1" d="M46.54,72.11c0,.08-.08.13-.22.14-.06.73-.13,2.74-.13,3.78s.56,1.71,1.54,1.71a3.47,3.47,0,0,0,2.7-1.46.67.67,0,0,0,.18.15A3.74,3.74,0,0,1,47.73,78C46.64,78,46,77.31,46,76c0-.84.07-3.11.13-4Z"/><path class="cls-1" d="M55.45,72c0,.07-.12.13-.21.13,0,.34-.12.72-.2,1.23a8.39,8.39,0,0,0,2.21-.42l.08.22a9.11,9.11,0,0,1-2.32.43,16.73,16.73,0,0,1-1.33,4.48L53.46,78a15.94,15.94,0,0,0,1.31-4.38H53.39v-.23h1.42c.08-.48.15-1,.21-1.42Zm3.74,6h-.6a6.45,6.45,0,0,1-1.79-.18.91.91,0,0,1-.67-.89,1.64,1.64,0,0,1,.43-1l.18.12a1.49,1.49,0,0,0-.39.89c0,.63.57.85,2.07.85.24,0,.49,0,.75,0ZM59,74.55a7.53,7.53,0,0,0-2.5.35l-.07-.2A8.19,8.19,0,0,1,59,74.33Z"/><path class="cls-1" d="M64.87,72.63H63.1V77.7h-.25V72.63H61.09v-.22h3.78Z"/><path class="cls-1" d="M71.16,72.42l-2,5.29H69l-1.77-5.29h.27l1,2.93c.27.79.48,1.44.64,2h0c.16-.59.41-1.27.69-2l1.1-2.93Z"/><path class="cls-1" d="M77.23,77.51a3.39,3.39,0,0,1-1.44.27,2.41,2.41,0,0,1-2.46-2.7A2.55,2.55,0,0,1,76,72.33a2.66,2.66,0,0,1,1.21.23l-.1.2A2.39,2.39,0,0,0,76,72.53a2.32,2.32,0,0,0-2.42,2.58,2.23,2.23,0,0,0,2.33,2.47,2.75,2.75,0,0,0,1.22-.26Z"/><path class="cls-1" d="M85,77.7H84.8l-.16-2.58c-.06-.93-.13-1.84-.12-2.37h0c-.2.55-.41,1.14-.73,2l-1.18,3h-.16l-1.11-2.93c-.32-.86-.55-1.46-.71-2h0c0,.61-.06,1.53-.13,2.44l-.17,2.5H80l.39-5.29h.26l1.23,3.24c.25.69.44,1.19.6,1.68h0c.14-.47.33-.92.61-1.65l1.27-3.27h.28Z"/><path class="cls-1" d="M91.22,72.84a.14.14,0,0,1-.15.11c-.22,2-1,4.29-2.1,4.29-.47,0-1-.56-1-1.6a3,3,0,0,1,3.11-3.08,2.55,2.55,0,0,1,2.82,2.62c0,1.68-1,2.45-2.68,2.8l-.12-.21c1.62-.31,2.58-1.1,2.58-2.58a2.34,2.34,0,0,0-2.59-2.42H91Zm-.36-.06a2.84,2.84,0,0,0-2.67,2.86c0,.86.42,1.37.78,1.37C89.92,77,90.64,74.89,90.85,72.77Z"/><path class="cls-1" d="M103.14,75.81V76h-3.07v1.89c0,.18-.06.26-.22.3a5.84,5.84,0,0,1-1.07,0,1.08,1.08,0,0,0-.1-.2h.67c.48,0,.51,0,.51-.15V76h-3.1v-.21h3.1V75.1l.21,0a7,7,0,0,0,1.34-1H98.06v-.21h3.57l0,0,.18.13a.1.1,0,0,1-.07,0,7.7,7.7,0,0,1-1.72,1.27v.49ZM97.3,73v1.3h-.21V72.76h2.74v-1l.32,0s0,.06-.11.07v.87h2.79v1.51h-.21V73Z"/><path class="cls-1" d="M110.93,73v4.66h-.22v-.4h-4.65v-.22h4.65V73.24h-4.57V73Z"/><path class="cls-1" d="M114.45,72.65a8.17,8.17,0,0,1,2.11,1l-.13.19a8.32,8.32,0,0,0-2.08-1Zm.12,4.94a7.71,7.71,0,0,0,5.11-4.16,1,1,0,0,0,.2.12,8,8,0,0,1-5,4.19.23.23,0,0,1-.08.15Z"/><path class="cls-1" d="M7,86.58H4.47l.1,0s-.06.07-.13.08A3.82,3.82,0,0,1,2.24,90a1.16,1.16,0,0,0-.16-.17,3.61,3.61,0,0,0,2.14-3.26H1.34v-.22H7Zm-.68-2H2v-.22h4.3Z"/><path class="cls-1" d="M12,84.15c0,.08-.09.12-.23.12-.08.43-.22,1.16-.32,1.58a9.77,9.77,0,0,1,1-.08c1,0,1.32.63,1.32,1.63a5.35,5.35,0,0,1-.28,1.7,1.19,1.19,0,0,1-1.16.91A2,2,0,0,1,11,89.38a.86.86,0,0,0,.11-.19c.62.5.93.6,1.18.6a1,1,0,0,0,.94-.74,5.66,5.66,0,0,0,.27-1.64c0-.86-.29-1.42-1.11-1.42a10,10,0,0,0-1,.08,12.1,12.1,0,0,1-1.54,3.87l-.21-.1a11.37,11.37,0,0,0,1.52-3.75c-.43,0-1,.11-1.37.17l0-.22,1.46-.17c.11-.51.24-1.18.33-1.81Zm3.62,3.31A4.27,4.27,0,0,0,13.87,85l.16-.16a4.45,4.45,0,0,1,1.76,2.52Z"/><path class="cls-1" d="M19.41,85.26a.22.22,0,0,1-.19.13,10.91,10.91,0,0,1-.28,2.3h0a5,5,0,0,1,2.78-1c1.08,0,1.7.52,1.7,1.43,0,1.3-1.13,1.82-3.77,1.93a1.94,1.94,0,0,0-.07-.22c2.51-.12,3.61-.55,3.61-1.7,0-.78-.55-1.23-1.49-1.23a4.24,4.24,0,0,0-2.88,1.16L18.6,88A7.89,7.89,0,0,0,19,85.22Zm.3-1.28a11.38,11.38,0,0,1,2.72.67l-.09.22a11.32,11.32,0,0,0-2.7-.66Z"/><path class="cls-1" d="M26.57,88.48a14.61,14.61,0,0,1,1.63,1.59l-.2.2a14.46,14.46,0,0,0-1.6-1.62Z"/><path class="cls-1" d="M32.78,84.37a16.36,16.36,0,0,0,3.3-.31l.15.2a1.67,1.67,0,0,0-.37.3A24.94,24.94,0,0,1,33,86.72a26.63,26.63,0,0,1,4.67-.53v.25h-.45a4,4,0,0,0-.89.08c-.62.16-2.32,1.11-2.32,2.23a.82.82,0,0,0,.38.73,4.87,4.87,0,0,0,1.86.43l-.07.23c-1.72-.18-2.4-.53-2.4-1.37,0-1.23,1.6-2.07,1.95-2.23a26.26,26.26,0,0,0-3.93.71L31.76,87a3,3,0,0,0,.9-.31,26.89,26.89,0,0,0,3-2.32c-.5.08-1.57.16-2,.18l-.76,0a.15.15,0,0,1-.13.07Z"/><path class="cls-1" d="M43.52,84.84a.14.14,0,0,1-.15.11c-.22,2-1,4.29-2.1,4.29-.47,0-1-.56-1-1.6a3,3,0,0,1,3.11-3.08,2.55,2.55,0,0,1,2.82,2.62c0,1.68-1,2.45-2.68,2.8l-.12-.21C45,89.45,46,88.66,46,87.18a2.34,2.34,0,0,0-2.59-2.42h-.11Zm-.36-.06a2.84,2.84,0,0,0-2.67,2.86c0,.86.42,1.37.78,1.37C42.22,89,42.94,86.89,43.15,84.77Z"/><path class="cls-1" d="M52.65,89.51a3.39,3.39,0,0,1-1.44.27,2.41,2.41,0,0,1-2.46-2.7,2.55,2.55,0,0,1,2.66-2.75,2.66,2.66,0,0,1,1.21.23l-.1.2a2.39,2.39,0,0,0-1.09-.24A2.32,2.32,0,0,0,49,87.11a2.23,2.23,0,0,0,2.33,2.47,2.75,2.75,0,0,0,1.22-.26Z"/><path class="cls-1" d="M60.14,89.7h-.25l-.16-2.58c-.06-.93-.13-1.84-.12-2.37h0c-.2.55-.41,1.14-.73,2l-1.18,3h-.16l-1.11-2.93c-.32-.86-.55-1.46-.71-2h0c0,.61-.06,1.53-.13,2.44l-.17,2.5h-.25l.39-5.29h.26L57,87.66c.25.69.44,1.19.6,1.68h0c.14-.47.33-.92.61-1.65l1.27-3.27h.28Z"/><path class="cls-1" d="M63.84,84.32c0,.08-.1.11-.25.1a17.33,17.33,0,0,0-.36,3.21,9.15,9.15,0,0,0,.12,1.66l.59-1.53.21.08c-.32.86-.51,1.27-.6,1.56a1.15,1.15,0,0,0-.06.32.61.61,0,0,0,0,.2L63.3,90a7.11,7.11,0,0,1-.3-2.35,18.81,18.81,0,0,1,.4-3.41Zm4.64,5-.74,0a9.29,9.29,0,0,1-1.38-.08c-.78-.12-1.19-.57-1.19-1.11a2.12,2.12,0,0,1,.69-1.32l.19.13a1.83,1.83,0,0,0-.65,1.18c0,.41.34.79,1,.9a8.27,8.27,0,0,0,1.21.08c.27,0,.56,0,.84,0Zm-3.27-4.1A21.21,21.21,0,0,0,68.32,85l0,.23a25.32,25.32,0,0,1-3.13.27Z"/><path class="cls-1" d="M72.49,87V85.61a4.31,4.31,0,0,1-1.33,1.33,1.13,1.13,0,0,0-.15-.16,3.79,3.79,0,0,0,1.36-1.33H71.1v-.21h1.39v-1.4l.32,0s0,.06-.11.07v1.3h1.37v.21H72.7v.18c.29.18,1.17.78,1.37.95l-.14.18a14.25,14.25,0,0,0-1.23-.92V87Zm.2,1.13a2.27,2.27,0,0,1-.06.43c.46.33,1,.78,1.31,1l-.17.15a15,15,0,0,0-1.2-1,2.4,2.4,0,0,1-1.42,1.35,1.07,1.07,0,0,0-.13-.17c1.18-.54,1.42-1.2,1.45-1.81H71.1v-.21h1.39v-.73l.32,0s0,.06-.11.07v.63h1.4v.21Zm-1.2-4a3,3,0,0,1,.47.83l-.19.1a3.28,3.28,0,0,0-.46-.85Zm1.71.86a6.29,6.29,0,0,0,.48-.88l.29.13a.13.13,0,0,1-.12,0,7.81,7.81,0,0,1-.48.78Zm2.14,4.4a.19.19,0,0,1-.13.06,4.38,4.38,0,0,1-1.43.88.82.82,0,0,0-.16-.17,4,4,0,0,0,1.44-.86Zm-1-4h1c.08-.26.17-.61.23-.88H74.1v-.21h3.38v.21H75.83c-.06.25-.15.6-.23.88h1.62V89H74.36ZM77,86.45v-.93H74.57v.93Zm0,1.15v-.94H74.57v.94Zm0,1.16v-1H74.57v1Zm-.67.49a7.62,7.62,0,0,1,1.26.89l-.18.13a7.48,7.48,0,0,0-1.25-.9Z"/><path class="cls-1" d="M80.74,85.91a9.6,9.6,0,0,1-1,1.45l-.14-.16a10.07,10.07,0,0,0,1.76-3.31l.3.09s-.06.06-.13.06A12.09,12.09,0,0,1,81,85.5l.1,0s0,.06-.1.06v4.68h-.21Zm1.65,2.79,1.76-.64,0,.18c-.9.35-1.85.71-2.46.92a.1.1,0,0,1-.06.1L81.51,89l.67-.22,0-4.55.32,0s0,.06-.11.07ZM86,84.15s0,.07-.12.07A9.77,9.77,0,0,1,85,88.34c.5.59,1.09,1.34,1.38,1.77l-.16.15c-.29-.44-.84-1.17-1.32-1.75a4.22,4.22,0,0,1-2.59,1.79,1,1,0,0,0-.13-.17c2.75-.8,3.28-2.49,3.45-6Zm-2.64.62a7.8,7.8,0,0,1,1.11,1.69l-.18.12a8.28,8.28,0,0,0-1.11-1.71Z"/><path class="cls-1" d="M89.82,84.11c0,.08-.08.13-.22.14-.06.73-.13,2.74-.13,3.78S90,89.74,91,89.74a3.47,3.47,0,0,0,2.7-1.46.67.67,0,0,0,.18.15A3.74,3.74,0,0,1,91,90c-1.09,0-1.77-.66-1.77-1.95,0-.84.07-3.11.13-4Z"/><path class="cls-1" d="M98.41,84c0,.07-.12.13-.21.13,0,.34-.12.72-.2,1.23a8.39,8.39,0,0,0,2.21-.42l.08.22a9.11,9.11,0,0,1-2.32.43,16.73,16.73,0,0,1-1.33,4.48L96.42,90a15.94,15.94,0,0,0,1.31-4.38H96.35v-.23h1.42c.08-.48.15-1,.21-1.42Zm3.74,6h-.6a6.45,6.45,0,0,1-1.79-.18.91.91,0,0,1-.67-.89,1.64,1.64,0,0,1,.43-1l.18.12a1.49,1.49,0,0,0-.39.89c0,.63.57.85,2.07.85.24,0,.49,0,.75,0Zm-.22-3.41a7.53,7.53,0,0,0-2.5.35l-.07-.2a8.19,8.19,0,0,1,2.58-.37Z"/><path class="cls-1" d="M106,86.68V89c.63.92,1.83.92,3,.92.76,0,1.65,0,2.15,0a.53.53,0,0,0-.08.22l-2,0c-1.38,0-2.47,0-3.21-.91-.34.34-.7.68-1,.94,0,0,0,.06,0,.09l-.17-.23c.32-.26.73-.63,1.08-1V86.89h-1v-.21ZM105,84a4.84,4.84,0,0,1,1.19,1.21l-.17.13a4.83,4.83,0,0,0-1.18-1.22Zm2,2.54v2.89h-.21v-3.1h.58V84.11h2.8v2.23h.58v2.75c0,.16,0,.24-.18.27a3.94,3.94,0,0,1-.86,0,.92.92,0,0,0-.08-.2h.57c.3,0,.34,0,.34-.12V86.55Zm.58-2.23v2h1V85.05H110v-.73Zm2.09,2.86v1.45h-1.62V89h-.21v-1.8Zm-.21,1.24v-1h-1.42v1Zm-.71-2.08H110V85.26h-1.2Z"/><path class="cls-1" d="M119.77,86.93v.21h-3.61l.11,0a.14.14,0,0,1-.13.06,25.17,25.17,0,0,1-1.23,2.4c1.17,0,2.63-.06,4-.11A15.09,15.09,0,0,0,117.72,88l.17-.1a12.28,12.28,0,0,1,1.74,2.25l-.19.13a7.15,7.15,0,0,0-.38-.61c-1.89.08-4,.15-5.18.18,0,.06,0,.08-.09.09l-.1-.31,1,0a19.49,19.49,0,0,0,1.27-2.51h-2.46v-.21h3V85.25H114V85h2.46V83.82l.32,0s0,.06-.11.07V85h2.53v.21h-2.53v1.68Z"/><path class="cls-1" d="M4.41,96.84a.14.14,0,0,1-.15.11c-.22,2-1,4.29-2.1,4.29-.47,0-1-.56-1-1.6a3,3,0,0,1,3.11-3.08A2.55,2.55,0,0,1,7.1,99.17c0,1.68-1,2.45-2.68,2.8l-.12-.21c1.62-.31,2.58-1.1,2.58-2.58a2.34,2.34,0,0,0-2.59-2.42H4.17ZM4,96.77a2.84,2.84,0,0,0-2.67,2.86c0,.86.42,1.37.78,1.37C3.12,101,3.83,98.89,4,96.77Z"/><path class="cls-1" d="M14,101.51a3.39,3.39,0,0,1-1.44.27,2.41,2.41,0,0,1-2.46-2.7,2.55,2.55,0,0,1,2.66-2.75,2.66,2.66,0,0,1,1.21.23l-.1.2a2.39,2.39,0,0,0-1.09-.24,2.32,2.32,0,0,0-2.42,2.58,2.23,2.23,0,0,0,2.33,2.47,2.75,2.75,0,0,0,1.22-.26Z"/><path class="cls-1" d="M22,101.7H21.8l-.16-2.58c-.06-.93-.13-1.84-.12-2.37h0c-.2.55-.41,1.14-.73,2l-1.18,3h-.16l-1.11-2.93c-.32-.86-.55-1.46-.71-2h0c0,.61-.06,1.53-.13,2.44l-.17,2.5H17l.39-5.29h.26l1.23,3.24c.25.69.44,1.19.6,1.68h0c.14-.47.33-.92.61-1.65l1.27-3.27h.28Z"/><path class="cls-1" d="M26.67,98.71a2,2,0,0,1,1.24-.53c.53,0,.79.38.87,1,.62-.29,1.42-.61,2-.84l.15.29h0a.2.2,0,0,1-.1,0c-.54.19-1.37.52-2,.81a5.53,5.53,0,0,1,0,.62c0,.26,0,.55,0,.86h-.25c0-.27,0-.64,0-1a3.82,3.82,0,0,0,0-.42c-1,.46-1.77,1-1.77,1.54s.55.72,1.65.72a15.57,15.57,0,0,0,1.77-.07v.24c-.45,0-1.1.06-1.77.06-1.34,0-1.88-.34-1.88-.95s.88-1.22,2-1.77c-.06-.6-.32-.84-.64-.84a2.55,2.55,0,0,0-1.78,1.06,10.45,10.45,0,0,1-.8.76l-.15-.16A5.11,5.11,0,0,0,27,97.27h-1.7v-.22h1.76A10.17,10.17,0,0,0,27.29,96l.41.07c0,.07-.06.11-.17.12-.06.32-.13.59-.2.87a10.12,10.12,0,0,0,2.6-.43l0,.23a10.43,10.43,0,0,1-2.72.42,5.54,5.54,0,0,1-.61,1.44Z"/><path class="cls-1" d="M35.1,98.37c.22.25.8,1.07.93,1.27l-.15.18c-.13-.22-.53-.83-.78-1.18v3.61h-.21v-4a9.15,9.15,0,0,1-1.12,2.59.91.91,0,0,0-.16-.17,9.21,9.21,0,0,0,1.23-3H33.76v-.21h1.13v-1.6l.32,0s0,.06-.1.07v1.5H36v.2a5.23,5.23,0,0,0,1.91-1.79l.36,0s0,.06-.08.07a6.1,6.1,0,0,0,2.07,1.72,1,1,0,0,0-.13.17A6.73,6.73,0,0,1,38,96.05a6.08,6.08,0,0,1-2,1.8,1,1,0,0,0-.13-.16l.12-.06H35.1Zm4.69,2H38.24a2.88,2.88,0,0,0,2,1.77.58.58,0,0,0-.14.2,3.09,3.09,0,0,1-2-2c-.17.75-.7,1.46-2.16,2a.6.6,0,0,0-.14-.17c1.4-.46,1.92-1.1,2.09-1.79H36.24V98.63h1.65v-.86H36.61v-.21h2.84v.21H38.1v.86h1.7Zm-3.35-.21h1.41a3.1,3.1,0,0,0,0-.51v-.78H36.45Zm3.14-1.29H38.1v.78a3,3,0,0,1,0,.5h1.52Z"/><path class="cls-1" d="M45.21,100.9s-.06,0-.13,0a7.75,7.75,0,0,1-1.83,1.22l-.17-.14a6.81,6.81,0,0,0,1.86-1.25Zm2.1-1.6a11.42,11.42,0,0,1,1.94,1.33l-.15.16a6.65,6.65,0,0,0-.52-.43l-2.22.06v1.88h-.21v-1.88l-2.77.06a.1.1,0,0,1-.09.08l-.1-.31h1.58l.66-.42A8.71,8.71,0,0,0,44,98.9l.15-.13.44.23a10.14,10.14,0,0,0,1.23-1.06H43.49V99h-.21V97.73h2.87v-1H43.26v-.21h2.89v-.72l.32,0s0,.06-.11.07v.62h2.89v.21H46.36v1h2.92V99h-.21V97.94H45.9l.2.11a.15.15,0,0,1-.13,0,11.65,11.65,0,0,1-1.23,1,8,8,0,0,1,.87.58,16.51,16.51,0,0,0,1.73-1.33l.28.15a.14.14,0,0,1-.13,0,22.34,22.34,0,0,1-2.33,1.69l3.16-.06a11.7,11.7,0,0,0-1.16-.74Zm1.85,2.85a7.89,7.89,0,0,0-1.83-1.2l.17-.13A8,8,0,0,1,49.35,102Z"/><path class="cls-1" d="M52.31,97.17l3.43-.11c0-.12,0-1.16,0-1.17h.42c0,.06,0,.12-.18.14,0,.22,0,.64,0,1L58.3,97v.24c-.66,0-1.52,0-2.33,0,0,.6,0,1,.06,1.57a2.46,2.46,0,0,1,.08.73c0,.67-.06,1.84-2.07,2.67l-.15-.19c1.29-.48,1.87-1.21,2-2h0a1.1,1.1,0,0,1-1,.53,1.15,1.15,0,0,1-1.13-1.19A1.26,1.26,0,0,1,55,98.08a1.1,1.1,0,0,1,.79.29s0-.08,0-.11,0-.57,0-1l-3.43.12Zm3.54,2.23c0-.49-.09-1.08-.84-1.08a1,1,0,0,0-1,1,.92.92,0,0,0,.92,1A.91.91,0,0,0,55.86,99.39Z"/><path class="cls-1" d="M62.67,99a4.67,4.67,0,0,1,2-.5,1.61,1.61,0,0,1,1.82,1.63c0,1.27-1.13,2-2.44,2-.92,0-1.53-.33-1.53-.89a1,1,0,0,1,1.09-.87,1.53,1.53,0,0,1,1.43,1.38,1.65,1.65,0,0,0,1.23-1.58,1.41,1.41,0,0,0-1.6-1.42,4.34,4.34,0,0,0-2.7,1c-.23.22-.5.53-.69.76l-.17-.17C61.84,99.48,64,97.4,65,96.5c-.45.06-2,.11-2.95.14a.19.19,0,0,1-.13.11l0-.33c1,0,2.68-.07,3.22-.15l.1,0,.25.27a.36.36,0,0,1-.15.06c-.59.5-2.07,1.92-2.59,2.44Zm1.39,2.87a3.13,3.13,0,0,0,.78-.1,1.33,1.33,0,0,0-1.23-1.23c-.46,0-.86.25-.86.65S63.47,101.87,64.06,101.87Z"/><path class="cls-1" d="M74.83,101.49a12.57,12.57,0,0,1-2.18.18,7,7,0,0,1-1.29-.09,1.27,1.27,0,0,1-1.16-1.27A2.31,2.31,0,0,1,71,98.81l.18.13a2.17,2.17,0,0,0-.69,1.42c0,.46.31.86,1,1a6,6,0,0,0,1.21.09,11.41,11.41,0,0,0,2.18-.2Zm-1.48-4.41c-.65.07-2,.1-2.93.1v-.23a22.31,22.31,0,0,0,3.94-.24l.06.24a2.35,2.35,0,0,0-.78.23,9.45,9.45,0,0,0-1.62,1L71.87,98a9.87,9.87,0,0,1,1.48-1Z"/><path class="cls-1" d="M83.2,98.1h-.06a.26.26,0,0,1-.13,0c-2.06.64-4.16,1.67-4.16,2.74,0,.78.89,1,2.15,1a19.64,19.64,0,0,0,2.45-.14v.24A21.3,21.3,0,0,1,81,102c-1.4,0-2.38-.31-2.38-1.23,0-.76.81-1.44,1.95-2A6.93,6.93,0,0,1,80.25,96l.44,0c0,.08-.08.14-.21.15a5.81,5.81,0,0,0,.29,2.54,18.4,18.4,0,0,1,2.33-.9Z"/><path class="cls-1" d="M89.24,96.15c0,.08-.09.12-.23.12-.08.43-.22,1.16-.32,1.58a9.77,9.77,0,0,1,1-.08c1,0,1.32.63,1.32,1.63a5.35,5.35,0,0,1-.28,1.7,1.19,1.19,0,0,1-1.16.91,2,2,0,0,1-1.28-.64.86.86,0,0,0,.11-.19c.62.5.93.6,1.18.6a1,1,0,0,0,.94-.74,5.66,5.66,0,0,0,.27-1.64c0-.86-.29-1.42-1.11-1.42a10,10,0,0,0-1,.08,12.1,12.1,0,0,1-1.54,3.87l-.21-.1A11.37,11.37,0,0,0,88.4,98.1c-.43,0-1,.11-1.37.17L87,98l1.46-.17c.11-.51.24-1.18.33-1.81Zm1.8-.2a5.43,5.43,0,0,1,1,1l-.16.13a5.33,5.33,0,0,0-1-1ZM92.78,100a4.49,4.49,0,0,0-1.61-2.44l.17-.14A4.58,4.58,0,0,1,93,99.94Zm-.71-4.36a5.46,5.46,0,0,1,1,1l-.16.13a5.36,5.36,0,0,0-1-1Z"/><path class="cls-1" d="M96.15,96.83c.55,0,4.89-.37,5.74-.34v.24h-.29a2.1,2.1,0,0,0-1.11.31c-1.24.71-2.3,2-2.3,2.93s.67,1.77,2.55,2l-.09.22c-2-.32-2.7-1-2.7-2.26,0-1.08,1.1-2.35,2.54-3.19-.7,0-3.08.21-4.17.31a.21.21,0,0,1-.14.1ZM100.59,98a5.4,5.4,0,0,1,1,1l-.16.13a4.9,4.9,0,0,0-1-1Zm.7-.61a5.07,5.07,0,0,1,1,1l-.16.13a5.16,5.16,0,0,0-1-1Z"/><path class="cls-1" d="M110.93,98.15a11.77,11.77,0,0,1-2.23.47,2.65,2.65,0,0,0,1.23,1.26l-.13.2a2.77,2.77,0,0,1-.4-.2,3.28,3.28,0,0,0-.95-.12h-.22v-.2a5.21,5.21,0,0,1,.9,0,3.69,3.69,0,0,1-.67-1,17.76,17.76,0,0,1-1.91.08h-1.11v-.22h.94a19.55,19.55,0,0,0,2-.07c-.09-.25-.22-.72-.32-1.1a14.18,14.18,0,0,1-1.46.05h-.72v-.22l.87,0a11.07,11.07,0,0,0,1.27,0c-.08-.34-.15-.74-.22-1.18h.44c0,.08-.06.12-.18.14,0,.36.11.7.18,1a7.21,7.21,0,0,0,2-.45l.09.21a7.9,7.9,0,0,1-2,.45,7.75,7.75,0,0,0,.33,1.09,10.67,10.67,0,0,0,2.25-.48ZM109.7,102c-.41,0-.83,0-1.46,0-1.07,0-2-.32-2-1.08a1.49,1.49,0,0,1,.88-1.13l.13.17c-.49.27-.78.62-.78.95,0,.59.73.87,1.75.87.55,0,1,0,1.46,0Z"/><path class="cls-1" d="M114.19,97c.44,0,1,0,1.41,0l1.18,0c0-.36,0-.78,0-1.05l.43,0c0,.08-.06.12-.2.14,0,.24,0,.59,0,.87a12.87,12.87,0,0,0,2.47-.3l0,.22a13.13,13.13,0,0,1-2.52.3l0,1.51a10.87,10.87,0,0,0,2.12-.29l0,.23a13.43,13.43,0,0,1-2.16.27l.06,1.35a8.27,8.27,0,0,1,2.18,1.17l-.15.2a7.53,7.53,0,0,0-2-1.13c0,.15,0,.31,0,.42A1,1,0,0,1,116,102c-.87,0-1.53-.31-1.53-1s.77-1,1.51-1a3.37,3.37,0,0,1,.88.1c0-.36,0-.81,0-1.27h-.76c-1,0-1.53-.06-1.53-.53,0-.25.19-.43.59-.71l.16.16c-.45.27-.53.43-.53.57s.46.3,1.3.3h.75l0-1.5c-.51,0-1,0-1.63,0-.33,0-.69,0-1,0Zm2.72,3.45a3.2,3.2,0,0,0-.9-.12c-.6,0-1.28.24-1.28.76s.59.75,1.3.75.88-.29.88-.9Z"/><path class="cls-1" d="M1.15,109.17l3.43-.11c0-.12,0-1.16,0-1.17H5c0,.06,0,.12-.18.14,0,.22,0,.64,0,1L7.14,109v.24c-.66,0-1.52,0-2.33,0,0,.6,0,1,.06,1.57a2.46,2.46,0,0,1,.08.73c0,.67-.06,1.84-2.07,2.67L2.74,114c1.29-.48,1.87-1.21,2-2h0a1.1,1.1,0,0,1-1,.53,1.15,1.15,0,0,1-1.13-1.19,1.26,1.26,0,0,1,1.2-1.28,1.1,1.1,0,0,1,.79.29s0-.08,0-.11,0-.57,0-1l-3.43.12Zm3.54,2.23c0-.49-.09-1.08-.84-1.08a1,1,0,0,0-1,1,.92.92,0,0,0,.92,1A.91.91,0,0,0,4.7,111.39Z"/><path class="cls-1" d="M11.43,113.28a1,1,0,1,1-1-1A1,1,0,0,1,11.43,113.28Zm-.21,0a.77.77,0,1,0-.77.77A.77.77,0,0,0,11.22,113.28Z"/><path class="cls-1" d="M20.93,109.1H15.39v1.79a6.38,6.38,0,0,1-.75,3.41.66.66,0,0,0-.17-.12,6.1,6.1,0,0,0,.71-3.29v-2h2.64v-1.06l.32,0s0,.06-.11.07v1h2.9Zm-1.65,2.53A12.76,12.76,0,0,1,21,114.19l-.18.11c-.09-.2-.22-.44-.36-.7l-4.65.23a.1.1,0,0,1-.08.08l-.12-.3.88,0a29.81,29.81,0,0,0,1.34-3.9l.32.11a.15.15,0,0,1-.13.07,37.24,37.24,0,0,1-1.31,3.72l3.66-.16a15.08,15.08,0,0,0-1.22-1.7Z"/><path class="cls-1" d="M26,110.59h3.06v.21H22.8v-.21h3V109.2H24a6.1,6.1,0,0,1-.66,1.14l-.17-.12a7.13,7.13,0,0,0,1.08-2.29l.31.09s-.06.06-.13.06a8.73,8.73,0,0,1-.33.9h1.68v-1.17l.32,0s0,.06-.11.07V109h2.54v.21H26Zm-2.12,3.67v-2.63H28v2.63h-.21v-.32H24.11v.32Zm3.88-2.42H24.11v1.89h3.67Z"/><path class="cls-1" d="M34.2,113.8h3.07V114H31v-.21h3v-2.06H31.62v-.21H34v-1.92H31.34v-.21h5.58v.21H34.2v1.92h2.46v.21H34.2Zm-1.21-6a10.88,10.88,0,0,1,2.14,1.12l-.14.17a10.71,10.71,0,0,0-2.14-1.15Z"/><path class="cls-1" d="M41.79,108c0,.06-.09.1-.22.1-.06.35-.12.72-.2,1a10.92,10.92,0,0,0,2.3-.36l0,.23a14.54,14.54,0,0,1-2.39.36,9.74,9.74,0,0,1-1.57,3.52l-.2-.11a9.53,9.53,0,0,0,1.52-3.4H39.56v-.22h1.58c.09-.38.16-.8.22-1.25ZM43.7,111c0,.67.06,1,.1,1.58a7.26,7.26,0,0,1,1.59.88l-.14.2a7.15,7.15,0,0,0-1.44-.83v.3a1.07,1.07,0,0,1-1.22,1.08c-.81,0-1.36-.33-1.36-.93s.74-1,1.36-1a3.17,3.17,0,0,1,1,.18c0-.53-.09-1.06-.09-1.46Zm-.13,1.73a2.81,2.81,0,0,0-1-.2c-.48,0-1.12.17-1.12.73s.48.71,1.13.71,1-.28,1-.85C43.59,112.93,43.59,112.81,43.58,112.69Zm1.79-2.61a8.93,8.93,0,0,0-2.5.38l-.06-.22a9.41,9.41,0,0,1,2.55-.39Z"/><path class="cls-1" d="M52.68,109.26a.22.22,0,0,1-.19.13,10.91,10.91,0,0,1-.28,2.3h0a5,5,0,0,1,2.78-1c1.08,0,1.7.52,1.7,1.43,0,1.3-1.13,1.82-3.77,1.93a1.94,1.94,0,0,0-.07-.22c2.51-.12,3.61-.55,3.61-1.7,0-.78-.55-1.23-1.49-1.23a4.24,4.24,0,0,0-2.88,1.16l-.24-.14a7.89,7.89,0,0,0,.38-2.77ZM53,108a11.38,11.38,0,0,1,2.72.67l-.09.22a11.32,11.32,0,0,0-2.7-.66Z"/><path class="cls-1" d="M59.25,108.84a10.05,10.05,0,0,0,2-.3,2,2,0,0,0,.59-.27l.15.16a5,5,0,0,0-2,3.58c0,1.39,1,1.76,2,1.76a1.79,1.79,0,0,0,1.94-2.1,7.27,7.27,0,0,0-.53-2.88l.22-.09a3.66,3.66,0,0,0,2,2.14l-.1.22a3.35,3.35,0,0,1-1.57-1.32h0a9.59,9.59,0,0,1,.22,2c0,.12,0,.23,0,.33A1.93,1.93,0,0,1,61.9,114c-1.07,0-2.19-.44-2.19-1.94a5,5,0,0,1,1.53-3.3,9.21,9.21,0,0,1-1.83.3.14.14,0,0,1-.11.11Zm5.41.34a4.14,4.14,0,0,0-1-1l.14-.14a4.28,4.28,0,0,1,1,1Zm.85-.42a4.17,4.17,0,0,0-1-1l.14-.15a4.06,4.06,0,0,1,1,1Z"/><path class="cls-1" d="M68.91,108.32c0,.08-.1.11-.25.1a17.33,17.33,0,0,0-.36,3.21,9.25,9.25,0,0,0,.12,1.66l.59-1.53.21.08c-.32.86-.51,1.27-.6,1.56a1.15,1.15,0,0,0-.06.32.61.61,0,0,0,0,.2l-.22.06a7.11,7.11,0,0,1-.3-2.35,18.81,18.81,0,0,1,.4-3.41Zm4.64,5-.74,0a9.29,9.29,0,0,1-1.38-.08c-.78-.12-1.19-.57-1.19-1.11a2.12,2.12,0,0,1,.69-1.32l.19.13a1.83,1.83,0,0,0-.65,1.18c0,.41.34.79,1,.9a8.27,8.27,0,0,0,1.21.08c.27,0,.56,0,.84,0Zm-3.27-4.1a21.21,21.21,0,0,0,3.11-.27l0,.23a25.32,25.32,0,0,1-3.13.27Z"/><path class="cls-1" d="M80.74,109.26l-.07.08a7.35,7.35,0,0,1-3.84,4.76.7.7,0,0,0-.15-.17,7.07,7.07,0,0,0,3.73-4.52H77.6A7.18,7.18,0,0,1,76,111.23l-.17-.15A7.39,7.39,0,0,0,78.07,108l.34.13c0,.07-.11.08-.18.07a9.06,9.06,0,0,1-.5,1h2.79l0,0Z"/><path class="cls-1" d="M84.27,111.84v-3.36l.37,0s-.06.1-.15.1v3.23ZM88,108.22c0,.06-.06.1-.15.1v2.26a3.41,3.41,0,0,1-2.56,3.52.84.84,0,0,0-.15-.18,3.23,3.23,0,0,0,2.48-3.34v-2.39Z"/><path class="cls-1" d="M91.36,109.07h4.8v.22h-2.3v3.76h2.81v.22h-5.8v-.22h2.77v-3.76H91.36Z"/><path class="cls-1" d="M104.34,108.32a.15.15,0,0,1-.11,0l-.09,0a16.27,16.27,0,0,1-2.06,1.74l.12.07s-.06.06-.11.07v3.83h-.22v-3.82A20.36,20.36,0,0,1,99,112l-.13-.18a19,19,0,0,0,5.22-3.7Z"/><path class="cls-1" d="M111.16,109.16a.08.08,0,0,1-.06,0,8.72,8.72,0,0,1-1.07,2.4,11.64,11.64,0,0,1,1,.64l-.14.19a9.44,9.44,0,0,0-1-.64,6.79,6.79,0,0,1-2.65,2.3.62.62,0,0,0-.17-.16,6.79,6.79,0,0,0,2.61-2.25,12.26,12.26,0,0,0-1.8-.82l.11-.2a13.32,13.32,0,0,1,1.81.83,8,8,0,0,0,1-2.19h-2.69a7.33,7.33,0,0,1-1.7,2.05l-.17-.15a8,8,0,0,0,2.26-3.25l.34.1c0,.06-.08.08-.17.07-.11.27-.29.67-.45,1h2.65l.06,0Z"/><path class="cls-1" d="M113.84,110.8h5.85V111h-5.6a.27.27,0,0,1-.2.13Z"/><path class="cls-1" d="M1.66,125.88a6.25,6.25,0,0,1-.32-2.33,18.11,18.11,0,0,1,.4-3.34l.39.09c0,.06-.07.11-.18.11a15.12,15.12,0,0,0-.39,3.14A7.14,7.14,0,0,0,1.65,125c.19-.53.52-1.27.69-1.64l.22.09a11.09,11.09,0,0,0-.78,2,.73.73,0,0,0,.1.34Zm2.84-4,.79,0c0-.64,0-1.2-.06-1.72l.42,0c0,.07-.08.12-.18.14,0,.46,0,.95,0,1.54A5.83,5.83,0,0,0,7,121.54l.06.23a6.22,6.22,0,0,1-1.53.29c0,.88.08,1.82.09,2.26a5.46,5.46,0,0,1,1.51,1l-.15.19a4.7,4.7,0,0,0-1.36-.9c0,.73,0,1.42-1.05,1.42-.79,0-1.35-.34-1.35-.93s.74-1,1.34-1a2.88,2.88,0,0,1,.83.13c0-.49-.07-1.35-.11-2.16l-.79,0H3.37v-.22Zm.91,2.59a2.64,2.64,0,0,0-.84-.15c-.48,0-1.12.17-1.12.72s.5.71,1.13.71.84-.28.84-1Z"/><path class="cls-1" d="M10.65,124.48a14.61,14.61,0,0,1,1.63,1.59l-.2.2a14.46,14.46,0,0,0-1.6-1.62Z"/><path class="cls-1" d="M18,123v-1.39a4.31,4.31,0,0,1-1.33,1.33,1.13,1.13,0,0,0-.15-.16,3.79,3.79,0,0,0,1.36-1.33H16.6v-.21H18v-1.4l.32,0s0,.06-.11.07v1.3h1.37v.21H18.2v.18c.29.18,1.17.78,1.37.95l-.14.18a14.25,14.25,0,0,0-1.23-.92V123Zm.2,1.13a2.27,2.27,0,0,1-.06.43c.46.33,1,.78,1.31,1l-.17.15a15,15,0,0,0-1.2-1,2.4,2.4,0,0,1-1.42,1.35,1.07,1.07,0,0,0-.13-.17c1.18-.54,1.42-1.2,1.45-1.81H16.6v-.21H18v-.73l.32,0s0,.06-.11.07v.63h1.4v.21Zm-1.2-4a3,3,0,0,1,.47.83l-.19.1a3.28,3.28,0,0,0-.46-.85Zm1.71.86a6.29,6.29,0,0,0,.48-.88l.29.13a.13.13,0,0,1-.12,0,7.81,7.81,0,0,1-.48.78Zm2.14,4.4a.19.19,0,0,1-.13.06,4.38,4.38,0,0,1-1.43.88.82.82,0,0,0-.16-.17,4,4,0,0,0,1.44-.86Zm-1-4h1c.08-.26.17-.61.23-.88H19.6v-.21H23v.21H21.33c-.06.25-.15.6-.23.88h1.62V125H19.87Zm2.64,1.14v-.93H20.08v.93Zm0,1.15v-.94H20.08v.94Zm0,1.16v-1H20.08v1Zm-.67.49a7.62,7.62,0,0,1,1.26.89l-.18.13a7.48,7.48,0,0,0-1.25-.9Z"/><path class="cls-1" d="M27.15,121.91a9.6,9.6,0,0,1-1,1.45L26,123.2a10.07,10.07,0,0,0,1.76-3.31l.3.09S28,120,28,120a12.09,12.09,0,0,1-.61,1.46l.1,0s0,.06-.1.06v4.68h-.21Zm1.65,2.79,1.76-.64,0,.18c-.9.35-1.85.71-2.46.92a.1.1,0,0,1-.06.1l-.15-.27.67-.22,0-4.55.31,0s0,.06-.1.07Zm3.61-4.55s0,.07-.12.07a9.75,9.75,0,0,1-.84,4.12c.5.59,1.09,1.34,1.38,1.77l-.16.15c-.29-.44-.84-1.17-1.32-1.75a4.22,4.22,0,0,1-2.59,1.79,1,1,0,0,0-.13-.17c2.75-.8,3.28-2.49,3.45-6Zm-2.64.62a7.8,7.8,0,0,1,1.11,1.69l-.18.12a8.28,8.28,0,0,0-1.11-1.71Z"/><path class="cls-1" d="M39.61,125.51a3.39,3.39,0,0,1-1.44.27,2.41,2.41,0,0,1-2.46-2.7,2.55,2.55,0,0,1,2.66-2.75,2.66,2.66,0,0,1,1.21.23l-.1.2a2.39,2.39,0,0,0-1.09-.24A2.32,2.32,0,0,0,36,123.11a2.23,2.23,0,0,0,2.33,2.47,2.75,2.75,0,0,0,1.22-.26Z"/><path class="cls-1" d="M48,125.7h-.25l-.16-2.58c-.06-.93-.13-1.84-.12-2.37h0c-.2.55-.41,1.14-.73,2l-1.18,3h-.16l-1.11-2.93c-.32-.86-.55-1.46-.71-2h0c0,.61-.06,1.53-.13,2.44l-.17,2.5H43l.39-5.29h.26l1.23,3.24c.25.69.44,1.19.6,1.68h0c.14-.47.33-.92.61-1.65l1.27-3.27h.28Z"/><path class="cls-1" d="M55.18,121.58l-.75,0c-.28,0-.57,0-.84,0-.08.59-.15,1.23-.21,1.77a15,15,0,0,0,1.78-.1v.23c-.47,0-1.18.09-1.81.09,0,.36-.06.58-.06.79,0,1.3.83,1.42,1.58,1.42s1.83-.09,1.83-1.07a2.36,2.36,0,0,0-.62-1.38.82.82,0,0,0,.19-.11,2.46,2.46,0,0,1,.66,1.5c0,.93-.86,1.28-2,1.28-.6,0-1.84,0-1.84-1.62,0-.18,0-.38.06-.81-.62,0-1.58,0-1.58-.69a1.11,1.11,0,0,1,.62-.85l.15.16c-.33.21-.53.46-.53.67,0,.46.67.46,1.36.48.06-.53.13-1.18.21-1.79a5.11,5.11,0,0,1-1.55-.41l.09-.21a4.77,4.77,0,0,0,1.48.41c.06-.48.12-1,.17-1.34L54,120c0,.08-.1.12-.21.12l-.15,1.19c.25,0,.5,0,.76,0s.55,0,.81,0Z"/><path class="cls-1" d="M66.92,122.36h-2a5.41,5.41,0,0,0,2.19,1.6.75.75,0,0,0-.15.18,6,6,0,0,1-2.29-1.77h-1.7a5.87,5.87,0,0,1-2.33,1.78,1,1,0,0,0-.15-.15,5.65,5.65,0,0,0,2.23-1.62H60.61v-.21h2.22a4.56,4.56,0,0,0,.48-.83l-2.19,0a.11.11,0,0,1-.08.09l-.13-.31h1.18a11.51,11.51,0,0,0,.9-1.32l.28.12s-.06,0-.12,0a12.63,12.63,0,0,1-.82,1.15l3.44-.08a9.67,9.67,0,0,0-1.14-.76l.15-.13a8.64,8.64,0,0,1,1.93,1.42l-.16.15a5.19,5.19,0,0,0-.55-.51l-2.37.08h0s-.06.06-.13.06a4.4,4.4,0,0,1-.43.77h3.84Zm-.78,2.32a.1.1,0,0,1-.1,0,8,8,0,0,1-4.27,1.61,1.1,1.1,0,0,0-.11-.19,7.69,7.69,0,0,0,4.25-1.58Zm-1.81-1.75s-.06,0-.11,0a7.8,7.8,0,0,1-2.07,1,1.76,1.76,0,0,0-.16-.15,6.67,6.67,0,0,0,2.08-1Zm.82.89a.1.1,0,0,1-.11,0,8.66,8.66,0,0,1-2.91,1.25,1,1,0,0,0-.14-.17,8,8,0,0,0,2.91-1.23Z"/><path class="cls-1" d="M76.68,122.27H74a16.69,16.69,0,0,1-1.54.92l0,.19a22.39,22.39,0,0,0,3.19-.5l.2.2h-.1a24.26,24.26,0,0,1-3.33.48c-.06.23-.11.48-.18.7h3.37l.13,0a.42.42,0,0,1,0,.08c-.16,1.14-.31,1.6-.53,1.78a.63.63,0,0,1-.42.12c-.19,0-.63,0-1.09,0a.51.51,0,0,0-.07-.21c.49,0,1,.06,1.12.06s.25,0,.31-.06.32-.56.46-1.55H72.1l-.11.39-.22,0c.13-.38.28-1,.4-1.5a17.7,17.7,0,0,1-1.72.76,1,1,0,0,0-.15-.16,17.27,17.27,0,0,0,1.93-.85l0-.2.26,0c.36-.2.72-.41,1.07-.64H70.37v-.21H73v-1H71v-.21h2v-1l.31,0s0,.06-.1.07v.88h2.06v.2a8.78,8.78,0,0,0,.87-.9l.26.17a.14.14,0,0,1-.1,0h-.06a11,11,0,0,1-1.95,1.76h2.42Zm-3.49-.21h.73a12.3,12.3,0,0,0,1.32-1H73.19Z"/><path class="cls-1" d="M81.34,120.11c0,.08-.08.13-.22.14C81.06,121,81,123,81,124s.56,1.71,1.54,1.71a3.47,3.47,0,0,0,2.7-1.46.67.67,0,0,0,.18.15A3.74,3.74,0,0,1,82.53,126c-1.09,0-1.77-.66-1.77-1.95,0-.84.07-3.11.13-4Z"/><path class="cls-1" d="M91.17,120c0,.06-.09.1-.22.1-.06.35-.12.72-.2,1a10.92,10.92,0,0,0,2.3-.36l0,.23a14.54,14.54,0,0,1-2.39.36,9.74,9.74,0,0,1-1.57,3.52l-.2-.11a9.53,9.53,0,0,0,1.52-3.4H88.94v-.22h1.58c.09-.38.16-.8.22-1.25ZM93.08,123c0,.67.06,1,.1,1.58a7.26,7.26,0,0,1,1.59.88l-.14.2a7.15,7.15,0,0,0-1.44-.83v.3A1.07,1.07,0,0,1,92,126.16c-.81,0-1.36-.33-1.36-.93s.74-1,1.36-1a3.17,3.17,0,0,1,1,.18c0-.53-.09-1.06-.09-1.46ZM93,124.69a2.81,2.81,0,0,0-1-.2c-.48,0-1.12.17-1.12.73s.48.71,1.13.71,1-.28,1-.85C93,124.93,93,124.81,93,124.69Zm1.79-2.61a8.93,8.93,0,0,0-2.5.38l-.06-.22a9.41,9.41,0,0,1,2.55-.39Z"/><path class="cls-1" d="M100.63,120.15c0,.08-.09.12-.23.12-.08.43-.22,1.16-.32,1.58a9.77,9.77,0,0,1,1-.08c1,0,1.32.63,1.32,1.63a5.35,5.35,0,0,1-.28,1.7,1.19,1.19,0,0,1-1.16.91,2,2,0,0,1-1.28-.64.86.86,0,0,0,.11-.19c.62.5.93.6,1.18.6a1,1,0,0,0,.94-.74,5.66,5.66,0,0,0,.27-1.64c0-.86-.29-1.42-1.11-1.42a10,10,0,0,0-1,.08,12.1,12.1,0,0,1-1.54,3.87l-.21-.1a11.37,11.37,0,0,0,1.52-3.75c-.43,0-1,.11-1.37.17l0-.22,1.46-.17c.11-.51.24-1.18.33-1.81Zm1.8-.2a5.43,5.43,0,0,1,1,1l-.16.13a5.33,5.33,0,0,0-1-1Zm1.74,4.08a4.49,4.49,0,0,0-1.61-2.44l.17-.14a4.58,4.58,0,0,1,1.66,2.49Zm-.71-4.36a5.46,5.46,0,0,1,1,1l-.16.13a5.36,5.36,0,0,0-1-1Z"/><path class="cls-1" d="M109,121.26a.22.22,0,0,1-.19.13,10.91,10.91,0,0,1-.28,2.3h0a5,5,0,0,1,2.78-1c1.08,0,1.7.52,1.7,1.43,0,1.3-1.13,1.82-3.77,1.93a1.94,1.94,0,0,0-.07-.22c2.51-.12,3.61-.55,3.61-1.7,0-.78-.55-1.23-1.49-1.23a4.24,4.24,0,0,0-2.88,1.16l-.24-.14a7.89,7.89,0,0,0,.38-2.77Zm.3-1.28a11.38,11.38,0,0,1,2.72.67l-.09.22a11.32,11.32,0,0,0-2.7-.66Z"/><path class="cls-1" d="M117.08,124.48a14.61,14.61,0,0,1,1.63,1.59l-.2.2a14.46,14.46,0,0,0-1.6-1.62Z"/><path class="cls-1" d="M4.85,137.51a3.39,3.39,0,0,1-1.44.27A2.41,2.41,0,0,1,1,135.08a2.55,2.55,0,0,1,2.66-2.75,2.66,2.66,0,0,1,1.21.23l-.1.2a2.39,2.39,0,0,0-1.09-.24,2.32,2.32,0,0,0-2.42,2.58,2.23,2.23,0,0,0,2.33,2.47,2.75,2.75,0,0,0,1.22-.26Z"/><path class="cls-1" d="M12.46,137.7h-.25l-.16-2.58c-.06-.93-.13-1.84-.12-2.37h0c-.2.55-.41,1.14-.73,2l-1.18,3H9.84l-1.11-2.93c-.32-.86-.55-1.46-.71-2H8c0,.61-.06,1.53-.13,2.44l-.17,2.5H7.45l.39-5.29h.26l1.23,3.24c.25.69.44,1.19.6,1.68h0c.14-.47.33-.92.61-1.65l1.27-3.27h.28Z"/><path class="cls-1" d="M18.43,132.84a.14.14,0,0,1-.15.11c-.22,2-1,4.29-2.1,4.29-.47,0-1-.56-1-1.6a3,3,0,0,1,3.11-3.08,2.55,2.55,0,0,1,2.82,2.62c0,1.68-1,2.45-2.68,2.8l-.12-.21c1.62-.31,2.58-1.1,2.58-2.58a2.34,2.34,0,0,0-2.59-2.42H18.2Zm-.36-.06a2.84,2.84,0,0,0-2.67,2.86c0,.86.42,1.37.78,1.37C17.14,137,17.85,134.89,18.07,132.77Z"/><path class="cls-1" d="M23.78,134.87a9.25,9.25,0,0,0,3.07-3.08l.38,0s-.06.06-.12.08a10.63,10.63,0,0,0,3.12,2.89.87.87,0,0,0-.14.17A10.87,10.87,0,0,1,27,132a9.93,9.93,0,0,1-3,3Zm3.36.83v2.14H30V138H24v-.21h1V135l.32,0s0,.06-.11.07v2.72h1.72v-4.16l.32,0s0,.06-.1.07v1.72h2.22v.21Z"/><path class="cls-1" d="M32.68,132.33h6.21v.21h-3v1H37.5v3.17H34v-3.17h1.63v-1h-3Zm5.81,5.25V133.5l.32,0s0,.06-.11.07v4.64h-.21v-.45H33.11v.48H32.9V133.5l.32,0s0,.06-.11.07v4Zm-4.26-3.8V135h1.42v-1.26Zm0,1.47v1.27h1.42v-1.27Zm3.06-.21v-1.26H35.86V135Zm0,1.48v-1.27H35.86v1.27Z"/><path class="cls-1" d="M43,134.71a2,2,0,0,1,1.24-.53c.53,0,.79.38.87,1,.62-.29,1.42-.61,2-.84l.15.29h0a.2.2,0,0,1-.1,0c-.54.19-1.37.52-2,.81a5.53,5.53,0,0,1,0,.62c0,.26,0,.55,0,.86h-.25c0-.27,0-.64,0-1a3.82,3.82,0,0,0,0-.42c-1,.46-1.77,1-1.77,1.54s.55.72,1.65.72a15.57,15.57,0,0,0,1.77-.07v.24c-.45,0-1.1.06-1.77.06-1.34,0-1.88-.34-1.88-.95s.88-1.22,2-1.77c-.06-.6-.32-.84-.64-.84a2.55,2.55,0,0,0-1.78,1.06,10.45,10.45,0,0,1-.8.76l-.15-.16a5.11,5.11,0,0,0,1.86-2.8h-1.7v-.22h1.76a10.17,10.17,0,0,0,.22-1.06l.41.07c0,.07-.06.11-.17.12-.06.32-.13.59-.2.87a10.12,10.12,0,0,0,2.6-.43l0,.23a10.43,10.43,0,0,1-2.72.42,5.54,5.54,0,0,1-.61,1.44Z"/><path class="cls-1" d="M54.91,133a.1.1,0,0,1-.06,0,6.06,6.06,0,0,1-4.24,5,1.86,1.86,0,0,0-.13-.19,5.79,5.79,0,0,0,4.11-4.75H49.87v-.22h4.8l0,0Zm-.53-1a5.48,5.48,0,0,1,.94,1.06l-.18.13a5.38,5.38,0,0,0-.92-1.05Zm.77-.42a5.29,5.29,0,0,1,.9,1.06l-.18.12a4.71,4.71,0,0,0-.9-1.05Z"/><path class="cls-1" d="M63.61,134.27a.1.1,0,0,1-.06,0,4.76,4.76,0,0,1-3.86,3.7,1.44,1.44,0,0,0-.12-.2,4.54,4.54,0,0,0,3.72-3.4H58.38v-.22h5l0,0ZM63,132.6h-4v-.22h4Z"/><path class="cls-1" d="M67.16,133.9a7.91,7.91,0,0,1,.55,1.53l-.2,0A7.67,7.67,0,0,0,67,134Zm4.25,0s-.06.06-.13.06A5.34,5.34,0,0,1,68,138l-.13-.17a5.13,5.13,0,0,0,3.23-4Zm-2.53-.34a9.75,9.75,0,0,1,.32,1.62l-.2,0a8.72,8.72,0,0,0-.32-1.6Z"/><path class="cls-1" d="M74.69,134.07a11.1,11.1,0,0,1,1.95.62l-.09.22a11.52,11.52,0,0,0-1.94-.62Zm.58,3.54a7.51,7.51,0,0,0,4.83-4.22,1.51,1.51,0,0,0,.2.13,7.65,7.65,0,0,1-4.75,4.23.15.15,0,0,1-.06.16Zm.14-5.29a11.3,11.3,0,0,1,1.93.68l-.09.21a11.16,11.16,0,0,0-1.91-.68Z"/><path class="cls-1" d="M87.88,137.29v.21H83.12v-.21h2.94c.12-.76.34-2.36.41-3.14H83.68v-.21h2.91l.2.11a.08.08,0,0,1-.07,0c-.09.78-.32,2.41-.45,3.21Z"/><path class="cls-1" d="M96.38,132.61s0,0-.06,0a5.3,5.3,0,0,1-1.79,2.22.88.88,0,0,0-.18-.15,4.52,4.52,0,0,0,1.65-2H90.65v-.22H96.1l.06,0Zm-2.77,1.22s-.06.09-.14.11c-.22,1.73-.78,3.3-2.25,4.13a1.12,1.12,0,0,0-.17-.16c1.49-.83,2-2.34,2.2-4.11Z"/><path class="cls-1" d="M99.4,133.9a7.91,7.91,0,0,1,.55,1.53l-.2,0a7.67,7.67,0,0,0-.54-1.5Zm4.25,0s-.06.06-.13.06a5.34,5.34,0,0,1-3.29,4l-.13-.17a5.13,5.13,0,0,0,3.23-4Zm-2.53-.34a9.75,9.75,0,0,1,.32,1.62l-.2,0a8.72,8.72,0,0,0-.32-1.6Z"/><path class="cls-1" d="M105.81,132.89h4.54l.27.23a.09.09,0,0,1-.06,0,5.83,5.83,0,0,1-3.92,4.87,1.87,1.87,0,0,0-.13-.19c2.13-.78,3.31-2.14,3.82-4.73h-4.52Zm5.32-1.31a.77.77,0,1,1-.78.78A.77.77,0,0,1,111.12,131.58Zm.56.78a.56.56,0,1,0-.56.57A.57.57,0,0,0,111.68,132.35Z"/><path class="cls-1" d="M114.21,133.17l3.43-.11c0-.12,0-1.16,0-1.17H118c0,.06,0,.12-.18.14,0,.22,0,.64,0,1l2.33-.06v.24c-.66,0-1.52,0-2.33,0,0,.6,0,1,.06,1.57a2.46,2.46,0,0,1,.08.73c0,.67-.06,1.84-2.07,2.67l-.15-.19c1.29-.48,1.87-1.21,2-2h0a1.1,1.1,0,0,1-1,.53,1.15,1.15,0,0,1-1.13-1.19,1.26,1.26,0,0,1,1.2-1.28,1.1,1.1,0,0,1,.79.29s0-.08,0-.11,0-.57,0-1l-3.43.12Zm3.54,2.23c0-.49-.09-1.08-.84-1.08a1,1,0,0,0-1,1,.92.92,0,0,0,.92,1A.91.91,0,0,0,117.75,135.39Z"/><path class="cls-1" d="M2.94,147a4.67,4.67,0,0,1,2-.5,1.61,1.61,0,0,1,1.82,1.63c0,1.27-1.13,2-2.44,2-.92,0-1.53-.33-1.53-.89a1,1,0,0,1,1.09-.87,1.53,1.53,0,0,1,1.43,1.38,1.65,1.65,0,0,0,1.23-1.58A1.41,1.41,0,0,0,5,146.71a4.34,4.34,0,0,0-2.7,1c-.23.22-.5.53-.69.76l-.17-.17c.71-.78,2.89-2.86,3.85-3.76-.45.06-2,.11-2.95.14a.19.19,0,0,1-.13.11l0-.33c1,0,2.68-.07,3.22-.15l.1,0,.25.27a.36.36,0,0,1-.15.06c-.59.5-2.07,1.92-2.59,2.44Zm1.39,2.87a3.13,3.13,0,0,0,.78-.1,1.33,1.33,0,0,0-1.23-1.23c-.46,0-.86.25-.86.65S3.74,149.87,4.33,149.87Z"/><path class="cls-1" d="M14.45,149.49a12.57,12.57,0,0,1-2.18.18,7,7,0,0,1-1.29-.09,1.27,1.27,0,0,1-1.16-1.27,2.31,2.31,0,0,1,.74-1.51l.18.13a2.17,2.17,0,0,0-.69,1.42c0,.46.31.86,1,1a6,6,0,0,0,1.21.09,11.41,11.41,0,0,0,2.18-.2ZM13,145.08c-.65.07-2,.1-2.93.1v-.23a22.31,22.31,0,0,0,3.94-.24l.06.24a2.35,2.35,0,0,0-.78.23,9.45,9.45,0,0,0-1.62,1l-.15-.16a9.87,9.87,0,0,1,1.48-1Z"/><path class="cls-1" d="M22.18,146.1h-.06a.26.26,0,0,1-.13,0c-2.06.64-4.16,1.67-4.16,2.74,0,.78.89,1,2.15,1a19.64,19.64,0,0,0,2.45-.14v.24A21.3,21.3,0,0,1,20,150c-1.4,0-2.38-.31-2.38-1.23,0-.76.81-1.44,1.95-2a6.93,6.93,0,0,1-.31-2.84l.44,0c0,.08-.08.14-.21.15a5.81,5.81,0,0,0,.29,2.54,18.4,18.4,0,0,1,2.33-.9Z"/><path class="cls-1" d="M27.57,144.15c0,.08-.09.12-.23.12-.08.43-.22,1.16-.32,1.58a9.77,9.77,0,0,1,1-.08c1,0,1.32.63,1.32,1.63a5.35,5.35,0,0,1-.28,1.7,1.19,1.19,0,0,1-1.16.91,2,2,0,0,1-1.28-.64.86.86,0,0,0,.11-.19c.62.5.93.6,1.18.6a1,1,0,0,0,.94-.74,5.66,5.66,0,0,0,.27-1.64c0-.86-.29-1.42-1.11-1.42a10,10,0,0,0-1,.08,12.1,12.1,0,0,1-1.54,3.87l-.21-.1a11.37,11.37,0,0,0,1.52-3.75c-.43,0-1,.11-1.37.17l0-.22,1.46-.17c.11-.51.24-1.18.33-1.81Zm1.8-.2a5.43,5.43,0,0,1,1,1l-.16.13a5.33,5.33,0,0,0-1-1ZM31.11,148a4.49,4.49,0,0,0-1.61-2.44l.17-.14a4.58,4.58,0,0,1,1.66,2.49Zm-.71-4.36a5.46,5.46,0,0,1,1,1l-.16.13a5.36,5.36,0,0,0-1-1Z"/><path class="cls-1" d="M40,144.36v.21h-.93v5.23c0,.26-.07.37-.28.41a9.53,9.53,0,0,1-1.37,0c0-.06-.06-.17-.1-.25h.85c.67,0,.69,0,.69-.22v-5.23H33.74v-.21Zm-2.67,4.07H34.66v.6h-.21v-3.16h2.89Zm-.21-2.35H34.66v2.14h2.47Z"/><path class="cls-1" d="M44.75,145.5a7.83,7.83,0,0,0-.67-.9l.15-.08a7.43,7.43,0,0,1,1,1.53l-.15.1a5,5,0,0,0-.25-.47l-2.79.13a.1.1,0,0,1-.08.08l-.1-.3h.58a12.78,12.78,0,0,0,.83-1.74l.29.09s-.06.06-.13.06a17.22,17.22,0,0,1-.78,1.58Zm0,1v3.41c0,.34-.13.35-1.1.35a.79.79,0,0,0-.09-.23h.62c.33,0,.36,0,.36-.13v-1h-2v1.42h-.21v-3.78Zm-.21.21h-2v.85h2Zm-2,1.95h2v-.89h-2Zm5.11-2c.32,0,.38-.13.41-.92a.6.6,0,0,0,.21.1c0,.82-.12,1-.61,1H46.25c-.53,0-.69-.08-.69-.47v-2.59l.31,0s0,.06-.1.07v1.27a17.86,17.86,0,0,0,2-.73l.21.2H47.9a20.59,20.59,0,0,1-2.12.72v1c0,.21.07.26.46.26Zm-1.94,3c0,.22.08.27.48.27h1.53c.36,0,.41-.15.44-1a.69.69,0,0,0,.21.09c0,.92-.13,1.14-.64,1.14H46.27c-.55,0-.71-.08-.71-.48v-2.58l.31,0s0,.06-.1.07v1.18a9.11,9.11,0,0,0,2.14-.81l.19.21H48a10.05,10.05,0,0,1-2.23.79Z"/><path class="cls-1" d="M51.74,144.32c0,.08-.1.11-.25.1a17.33,17.33,0,0,0-.36,3.21,9.25,9.25,0,0,0,.12,1.66l.59-1.53.21.08c-.32.86-.51,1.27-.6,1.56a1.15,1.15,0,0,0-.06.32.61.61,0,0,0,0,.2l-.22.06a7.11,7.11,0,0,1-.3-2.35,18.81,18.81,0,0,1,.4-3.41Zm4.64,5-.74,0a9.29,9.29,0,0,1-1.38-.08c-.78-.12-1.19-.57-1.19-1.11a2.12,2.12,0,0,1,.69-1.32L54,147a1.83,1.83,0,0,0-.65,1.18c0,.41.34.79,1,.9a8.27,8.27,0,0,0,1.21.08c.27,0,.56,0,.84,0Zm-3.27-4.1a21.21,21.21,0,0,0,3.11-.27l0,.23a25.32,25.32,0,0,1-3.13.27Z"/><path class="cls-1" d="M61.19,144c0,.06-.09.1-.22.1-.06.35-.12.72-.2,1a10.92,10.92,0,0,0,2.3-.36l0,.23a14.54,14.54,0,0,1-2.39.36,9.74,9.74,0,0,1-1.57,3.52l-.2-.11a9.53,9.53,0,0,0,1.52-3.4H59v-.22h1.58c.09-.38.16-.8.22-1.25ZM63.1,147c0,.67.06,1,.1,1.58a7.26,7.26,0,0,1,1.59.88l-.14.2a7.15,7.15,0,0,0-1.44-.83v.3A1.07,1.07,0,0,1,62,150.16c-.81,0-1.36-.33-1.36-.93s.74-1,1.36-1a3.17,3.17,0,0,1,1,.18c0-.53-.09-1.06-.09-1.46ZM63,148.69a2.81,2.81,0,0,0-1-.2c-.48,0-1.12.17-1.12.73s.48.71,1.13.71,1-.28,1-.85C63,148.93,63,148.81,63,148.69Zm1.79-2.61a8.93,8.93,0,0,0-2.5.38l-.06-.22a9.41,9.41,0,0,1,2.55-.39Z"/><path class="cls-1" d="M68.13,147.94a3.38,3.38,0,0,1-.2-1.18,12.64,12.64,0,0,1,.25-2.44l.43.1c0,.1-.11.11-.22.12a11.07,11.07,0,0,0-.24,2.19,2.77,2.77,0,0,0,0,.54c.15-.37.43-.91.57-1.18a1.93,1.93,0,0,0,.18.13,9.72,9.72,0,0,0-.57,1.21.81.81,0,0,0,0,.27.58.58,0,0,0,0,.19Zm3.57-3.8c0,.09-.07.12-.2.15,0,.65.12,1.72.12,2.46,0,1.36-.53,2.54-2.56,3.38l-.15-.2c1.9-.72,2.49-1.89,2.49-3.18,0-.78-.08-1.83-.15-2.65Z"/><path class="cls-1" d="M74.9,145c.44,0,1,0,1.41,0l1.18,0c0-.36,0-.78,0-1.05l.43,0c0,.08-.06.12-.2.14,0,.24,0,.59,0,.87a12.87,12.87,0,0,0,2.47-.3l0,.22a13.13,13.13,0,0,1-2.52.3l0,1.51a10.87,10.87,0,0,0,2.12-.29l0,.23a13.44,13.44,0,0,1-2.16.27l.06,1.35A8.27,8.27,0,0,1,80,149.44l-.15.2a7.53,7.53,0,0,0-2-1.13c0,.15,0,.31,0,.42A1,1,0,0,1,76.73,150c-.87,0-1.53-.31-1.53-1s.77-1,1.51-1a3.37,3.37,0,0,1,.88.1c0-.36,0-.81,0-1.27h-.76c-1,0-1.53-.06-1.53-.53,0-.25.19-.43.59-.71l.16.16c-.45.27-.53.43-.53.57s.46.3,1.3.3h.75l0-1.5c-.51,0-1,0-1.63,0-.33,0-.69,0-1,0Zm2.72,3.45a3.2,3.2,0,0,0-.9-.12c-.6,0-1.28.24-1.28.76s.59.75,1.3.75.88-.29.88-.9Z"/><path class="cls-1" d="M82.85,145.17l3.43-.11c0-.12,0-1.16,0-1.17h.42c0,.06,0,.12-.18.14,0,.22,0,.64,0,1l2.33-.06v.24c-.66,0-1.52,0-2.33,0,0,.6,0,1,.06,1.57a2.46,2.46,0,0,1,.08.73c0,.67-.06,1.84-2.07,2.67l-.15-.19c1.29-.48,1.87-1.21,2-2h0a1.1,1.1,0,0,1-1,.53,1.15,1.15,0,0,1-1.13-1.19,1.26,1.26,0,0,1,1.2-1.28,1.1,1.1,0,0,1,.79.29s0-.08,0-.11,0-.57,0-1l-3.43.12Zm3.54,2.23c0-.49-.09-1.08-.84-1.08a1,1,0,0,0-1,1,.92.92,0,0,0,.92,1A.91.91,0,0,0,86.4,147.39Z"/><path class="cls-1" d="M93.1,149.28a1,1,0,1,1-1-1A1,1,0,0,1,93.1,149.28Zm-.21,0a.77.77,0,1,0-.77.77A.77.77,0,0,0,92.89,149.28Z"/><path class="cls-1" d="M25.55,263.91v.18H22.92v1.62c0,.16,0,.22-.19.26a5.09,5.09,0,0,1-.92,0,1,1,0,0,0-.09-.17h.58c.41,0,.44,0,.44-.13v-1.62H20.09v-.18h2.65v-.61l.18,0a6,6,0,0,0,1.15-.86H21.2v-.18h3.06l0,0,.16.11a.08.08,0,0,1-.06,0,6.61,6.61,0,0,1-1.47,1.08v.42Zm-5-2.43v1.11h-.18v-1.29h2.34v-.83l.27,0s0,.05-.09.06v.74h2.39v1.29h-.18v-1.11Z"/><path class="cls-1" d="M31.65,261.52v4h-.19v-.34h-4V265h4v-3.26H27.55v-.19Z"/><path class="cls-1" d="M34.1,261.2a7,7,0,0,1,1.81.83l-.11.16a7.1,7.1,0,0,0-1.78-.84Zm.1,4.23a6.6,6.6,0,0,0,4.37-3.56l.17.1a6.81,6.81,0,0,1-4.3,3.59.21.21,0,0,1-.07.13Z"/><path class="cls-1" d="M45.48,262.85H43.35l.09,0s0,.06-.11.07a3.27,3.27,0,0,1-1.89,2.85,1,1,0,0,0-.14-.15,3.1,3.1,0,0,0,1.83-2.79H40.68v-.19h4.8Zm-.58-1.7H41.22V261H44.9Z"/><path class="cls-1" d="M48.45,263a1.73,1.73,0,0,1,1.06-.45c.45,0,.68.32.74.83.53-.25,1.22-.52,1.73-.72l.13.25h0a.16.16,0,0,1-.09,0c-.46.16-1.17.44-1.71.7a4.73,4.73,0,0,1,0,.53c0,.22,0,.47,0,.74h-.22c0-.23,0-.55,0-.83a3.27,3.27,0,0,0,0-.36c-.82.4-1.52.86-1.52,1.32s.47.62,1.41.62a13.5,13.5,0,0,0,1.52-.06v.2c-.38,0-.94,0-1.52,0-1.15,0-1.61-.29-1.61-.81s.75-1,1.68-1.51c0-.52-.27-.72-.55-.72a2.18,2.18,0,0,0-1.52.91,9.45,9.45,0,0,1-.68.65l-.13-.14a4.36,4.36,0,0,0,1.59-2.4H47.29v-.19H48.8a8.49,8.49,0,0,0,.19-.91l.35.06c0,.06-.05.1-.14.1a7.4,7.4,0,0,1-.17.74,8.67,8.67,0,0,0,2.23-.37l0,.2a9,9,0,0,1-2.33.36,4.74,4.74,0,0,1-.52,1.23Z"/><path class="cls-1" d="M54.23,262.42a9.53,9.53,0,0,1,1.67.53l-.08.19a9.78,9.78,0,0,0-1.66-.53Zm.5,3a6.42,6.42,0,0,0,4.13-3.61,1.3,1.3,0,0,0,.17.11A6.55,6.55,0,0,1,55,265.57a.13.13,0,0,1-.05.14Zm.12-4.53a9.51,9.51,0,0,1,1.65.58l-.08.18a9.69,9.69,0,0,0-1.64-.58Z"/><path class="cls-1" d="M64.61,261.23a.07.07,0,0,1-.06,0,9.6,9.6,0,0,1-1.25,2.12,22.2,22.2,0,0,1,2.33,2.16l-.16.13a20.87,20.87,0,0,0-2.3-2.13,9.2,9.2,0,0,1-2.44,2.14l-.14-.15a9.17,9.17,0,0,0,3.7-4.2H61.18v-.19h3.2l0,0Z"/><path class="cls-1" d="M72.21,262.85H70.09l.09,0s0,.06-.11.07a3.27,3.27,0,0,1-1.89,2.85,1,1,0,0,0-.14-.15,3.1,3.1,0,0,0,1.83-2.79H67.41v-.19h4.8Zm-.58-1.7H68V261h3.68Z"/><path class="cls-1" d="M78.63,265.65c-.08-.18-.2-.4-.34-.63-1.21.12-3.53.24-4.47.29a.16.16,0,0,1-.1.11l-.1-.3.64,0c.41-1.18,1-3,1.39-4.27l.31.09c0,.05-.07.07-.16.07-.36,1.16-.92,2.9-1.34,4.1,1.19-.05,2.8-.16,3.71-.25a12.51,12.51,0,0,0-1.24-1.66l.16-.1a11.71,11.71,0,0,1,1.72,2.49Z"/><path class="cls-1" d="M81.52,260.92c0,.07-.08.1-.21.08a14.92,14.92,0,0,0-.31,2.75,7.87,7.87,0,0,0,.1,1.42l.5-1.31.18.07c-.28.73-.44,1.08-.52,1.34a1,1,0,0,0,0,.28.54.54,0,0,0,0,.17l-.19.05a6.07,6.07,0,0,1-.26-2,16.1,16.1,0,0,1,.34-2.92Zm4,4.32-.64,0a8,8,0,0,1-1.18-.07c-.67-.1-1-.49-1-.95a1.82,1.82,0,0,1,.59-1.13l.16.11a1.57,1.57,0,0,0-.56,1c0,.35.29.68.88.77a7.06,7.06,0,0,0,1,.07l.72,0Zm-2.8-3.51a18.16,18.16,0,0,0,2.66-.23l0,.2a21.78,21.78,0,0,1-2.68.23Z"/><path class="cls-1" d="M89.92,260.9h.17a5.41,5.41,0,0,0,2.67,5,.82.82,0,0,0-.15.14,5.38,5.38,0,0,1-2.61-3.9,5.51,5.51,0,0,1-2.64,3.9l-.14-.13a5.37,5.37,0,0,0,2.61-3.9l.16,0a8.07,8.07,0,0,1-.07-.91H88.28v-.18h1.63Z"/><path class="cls-1" d="M99.45,261.89h.08l.1,0V262c-.11,2.72-.2,3.6-.44,3.86s-.28.16-.52.16-.54,0-.86,0a.39.39,0,0,0-.06-.18c.45,0,.86,0,1,0s.2,0,.27-.08.32-1.12.41-3.66H97a4.71,4.71,0,0,1-2.32,4,.54.54,0,0,0-.13-.13,4.55,4.55,0,0,0,2.27-3.83H94.7v-.18h2.11c0-.18,0-.36,0-.53v-.86l.27,0s0,.05-.09.06v.78c0,.17,0,.35,0,.53Z"/><path class="cls-1" d="M14.41,395.36a9.53,9.53,0,0,1,1.67.53l-.08.19a9.78,9.78,0,0,0-1.66-.53Zm.5,3A6.42,6.42,0,0,0,19,394.78a1.3,1.3,0,0,0,.17.11,6.55,6.55,0,0,1-4.07,3.62.13.13,0,0,1-.05.14Zm.12-4.53a9.51,9.51,0,0,1,1.65.58l-.08.18A9.69,9.69,0,0,0,15,394Z"/><path class="cls-1" d="M24.78,394.17a.07.07,0,0,1-.06,0,9.6,9.6,0,0,1-1.25,2.12,22.2,22.2,0,0,1,2.33,2.16l-.16.13a20.87,20.87,0,0,0-2.3-2.13,9.2,9.2,0,0,1-2.44,2.14l-.14-.15a9.17,9.17,0,0,0,3.7-4.2H21.35v-.19h3.2l0,0Z"/><path class="cls-1" d="M32.39,395.8H30.26l.09,0s0,.06-.11.07a3.27,3.27,0,0,1-1.89,2.85,1,1,0,0,0-.14-.15,3.1,3.1,0,0,0,1.83-2.79H27.59v-.19h4.8Zm-.58-1.7H28.13v-.19h3.68Z"/><path class="cls-1" d="M38.81,398.59c-.08-.18-.2-.4-.34-.63-1.21.12-3.53.24-4.47.29a.16.16,0,0,1-.1.11l-.1-.3.64,0c.41-1.18,1-3,1.39-4.27l.31.09c0,.05-.07.07-.16.07-.36,1.16-.92,2.9-1.34,4.1,1.19-.05,2.8-.16,3.71-.25a12.51,12.51,0,0,0-1.24-1.66l.16-.1A11.71,11.71,0,0,1,39,398.52Z"/><path class="cls-1" d="M42.92,393.72c0,.07-.08.1-.2.1-.07.37-.19,1-.27,1.36a8.34,8.34,0,0,1,.83-.07c.83,0,1.13.54,1.13,1.4a4.59,4.59,0,0,1-.24,1.46,1,1,0,0,1-1,.78,1.74,1.74,0,0,1-1.1-.55.7.7,0,0,0,.1-.16c.53.43.8.52,1,.52a.82.82,0,0,0,.8-.64,4.84,4.84,0,0,0,.23-1.4c0-.73-.25-1.21-1-1.21a8.63,8.63,0,0,0-.86.07,10.39,10.39,0,0,1-1.32,3.32l-.18-.08a9.71,9.71,0,0,0,1.3-3.21l-1.18.14,0-.19,1.25-.14c.1-.44.2-1,.28-1.55Zm1.54-.17a4.65,4.65,0,0,1,.87.84l-.14.11a4.6,4.6,0,0,0-.86-.84ZM46,397a3.85,3.85,0,0,0-1.38-2.09l.14-.12A3.92,3.92,0,0,1,46.14,397Zm-.61-3.73a4.68,4.68,0,0,1,.87.85l-.14.11a4.57,4.57,0,0,0-.86-.84Z"/><path class="cls-1" d="M49.17,396.15V395A3.68,3.68,0,0,1,48,396.1a.88.88,0,0,0-.13-.14,3.25,3.25,0,0,0,1.16-1.14H48v-.18h1.19v-1.2l.27,0s0,.05-.09.06v1.12h1.17v.18H49.35V395c.25.16,1,.67,1.18.81l-.12.16a12,12,0,0,0-1.06-.79v1Zm.17,1a1.94,1.94,0,0,1,0,.37c.39.28.86.67,1.12.89l-.14.13a12.93,12.93,0,0,0-1-.85A2.05,2.05,0,0,1,48,398.82a.82.82,0,0,0-.11-.15c1-.46,1.21-1,1.24-1.55H48v-.18h1.19v-.62l.27,0s0,.05-.09.06v.54h1.2v.18Zm-1-3.45a2.54,2.54,0,0,1,.4.71l-.16.08a2.83,2.83,0,0,0-.4-.73Zm1.46.73a5.31,5.31,0,0,0,.41-.75l.25.11a.11.11,0,0,1-.1,0,6.65,6.65,0,0,1-.41.67Zm1.83,3.77a.15.15,0,0,1-.11,0,3.76,3.76,0,0,1-1.22.75.8.8,0,0,0-.14-.14,3.44,3.44,0,0,0,1.24-.74Zm-.83-3.45h.86c.07-.22.14-.52.2-.76H50.55v-.18h2.89V394H52c0,.21-.13.52-.2.76h1.39v3.14H50.78Zm2.26,1v-.8H51v.8Zm0,1v-.8H51v.8Zm0,1v-.82H51v.82Zm-.57.42a6.54,6.54,0,0,1,1.08.76l-.16.11a6.37,6.37,0,0,0-1.07-.77Z"/><path class="cls-1" d="M55.95,395.22a8.08,8.08,0,0,1-.83,1.24l-.12-.14a8.61,8.61,0,0,0,1.5-2.84l.26.08s-.05.05-.11.05a10.67,10.67,0,0,1-.52,1.25l.09,0s0,0-.09.05v4h-.18Zm1.41,2.39,1.51-.55,0,.16c-.77.3-1.58.61-2.11.79a.09.09,0,0,1-.05.08l-.13-.23.57-.19,0-3.9.27,0s0,.05-.09.06Zm3.09-3.89s0,.06-.1.06a8.35,8.35,0,0,1-.72,3.53c.43.5.93,1.15,1.18,1.52l-.14.13c-.25-.38-.72-1-1.13-1.5A3.61,3.61,0,0,1,57.31,399a.79.79,0,0,0-.11-.15c2.35-.68,2.81-2.13,3-5.15Zm-2.26.53a6.72,6.72,0,0,1,1,1.45l-.16.1a7,7,0,0,0-.95-1.46Z"/><path class="cls-1" d="M63.43,393.68c0,.07-.07.11-.19.12,0,.63-.11,2.34-.11,3.24s.48,1.46,1.32,1.46a3,3,0,0,0,2.32-1.25.6.6,0,0,0,.15.13,3.2,3.2,0,0,1-2.47,1.31c-.93,0-1.51-.56-1.51-1.67,0-.72.06-2.66.11-3.41Z"/><path class="cls-1" d="M70.5,393.58c0,.06-.1.11-.18.11,0,.29-.1.62-.17,1a7.12,7.12,0,0,0,1.89-.36l.07.19a7.81,7.81,0,0,1-2,.37A14.26,14.26,0,0,1,69,398.78l-.19-.08a13.65,13.65,0,0,0,1.12-3.75H68.73v-.2H70c.07-.41.13-.84.18-1.22Zm3.2,5.11h-.51a5.5,5.5,0,0,1-1.53-.16.78.78,0,0,1-.57-.76,1.4,1.4,0,0,1,.37-.86l.16.1a1.28,1.28,0,0,0-.34.76c0,.54.49.73,1.78.73l.64,0Zm-.19-2.92a6.45,6.45,0,0,0-2.14.3l-.06-.17a7,7,0,0,1,2.21-.32Z"/><path class="cls-1" d="M78.84,398.3a2.9,2.9,0,0,1-1.24.23,2.06,2.06,0,0,1-2.1-2.31,2.19,2.19,0,0,1,2.27-2.36,2.28,2.28,0,0,1,1,.2l-.08.17a2,2,0,0,0-.94-.2,2,2,0,0,0-2.07,2.21,1.91,1.91,0,0,0,2,2.12,2.36,2.36,0,0,0,1-.22Z"/><path class="cls-1" d="M84.95,398.47h-.21l-.14-2.21c-.05-.79-.11-1.58-.1-2h0c-.17.47-.35,1-.62,1.67l-1,2.57H82.7l-1-2.51c-.28-.74-.47-1.25-.61-1.74h0c0,.52,0,1.31-.11,2.09l-.15,2.14h-.22l.33-4.53h.22l1.06,2.78c.22.59.38,1,.52,1.44h0c.12-.4.28-.79.52-1.42l1.09-2.8h.24Z"/><path class="cls-1" d="M88.18,395.9a1.73,1.73,0,0,1,1.06-.45c.45,0,.68.32.74.83.53-.25,1.22-.52,1.73-.72l.13.25h0a.16.16,0,0,1-.09,0c-.46.16-1.17.44-1.71.7a4.73,4.73,0,0,1,0,.53c0,.22,0,.47,0,.74h-.22c0-.23,0-.55,0-.83a3.27,3.27,0,0,0,0-.36c-.82.4-1.52.86-1.52,1.32s.47.62,1.41.62a13.5,13.5,0,0,0,1.52-.06v.2c-.38,0-.94,0-1.52,0-1.15,0-1.61-.29-1.61-.81s.75-1,1.68-1.51c0-.52-.27-.72-.55-.72a2.18,2.18,0,0,0-1.52.91,9.45,9.45,0,0,1-.68.65l-.13-.14a4.36,4.36,0,0,0,1.59-2.4H87v-.19h1.51a8.49,8.49,0,0,0,.19-.91l.35.06c0,.06-.05.1-.14.1a7.4,7.4,0,0,1-.17.74,8.67,8.67,0,0,0,2.23-.37l0,.2a9,9,0,0,1-2.33.36,4.74,4.74,0,0,1-.52,1.23Z"/><path class="cls-1" d="M95.38,396.14l0,.16-.78.3v2.05c0,.17-.05.23-.17.26a3.17,3.17,0,0,1-.7,0,1.12,1.12,0,0,0-.08-.17h.42c.33,0,.35,0,.35-.12v-2l-.89.33a.09.09,0,0,1-.05.09l-.13-.23,1.07-.38V394.9h-1v-.18h1v-1.28l.27,0s0,.05-.09.06v1.19h.76v.18h-.76v1.52Zm1.91-1.24h1.43v4h-.18v-.38h-2.6V399h-.18v-4h1.35v-1.47l.27,0s0,.05-.09.06Zm-.18.18H95.95v1.51h1.17Zm-1.17,1.69v1.57h1.17v-1.57Zm2.6-1.69H97.3v1.51h1.25Zm-1.25,3.26h1.25v-1.57H97.3Z"/><path class="cls-1" d="M105.41,396.47l.27,0s0,.05-.09.06v2.38h-.18v-.4h-4.27V399H101v-2.48l.27,0s0,.05-.09.06v1.8h2V396h-2v-2l.27,0s0,.05-.09.06v1.73h1.78v-2.4l.27,0s0,.05-.09.06v2.32h1.84V394l.27,0s0,.05-.09.06V396h-2v2.34h2.09Z"/><line class="cls-2" x1="62.91" y1="277.89" x2="62.91" y2="289.14"/><polyline class="cls-2" points="76.9 282.42 62.91 295.86 48.92 282.42"/><path class="cls-1" d="M72,17.47a6.38,6.38,0,0,0-1.45-2.15A6.46,6.46,0,0,0,68.54,14a8.61,8.61,0,0,0-2.36-.59h-.11v-.31h.11a6.83,6.83,0,0,0,4.21-1.85,6,6,0,0,0,1.66-4.5,6.25,6.25,0,0,0-.72-3.1A6,6,0,0,0,69.4,1.54,8.45,8.45,0,0,0,66.65.37,14,14,0,0,0,63.44,0a12.8,12.8,0,0,0-3.92.57,8,8,0,0,0-3,1.69,7.34,7.34,0,0,0-1.87,2.8,10.39,10.39,0,0,0-.61,3.83h.57a9.74,9.74,0,0,1,.56-3.57A6.82,6.82,0,0,1,57,2.67a7.48,7.48,0,0,1,2.81-1.58A12.18,12.18,0,0,1,63.44.57a13.5,13.5,0,0,1,2.9.31,7.72,7.72,0,0,1,2.54,1,5.92,5.92,0,0,1,1.84,1.91,5.79,5.79,0,0,1,.76,2.89,6,6,0,0,1-.67,3A5.61,5.61,0,0,1,69,11.6a7.27,7.27,0,0,1-2.44,1,12.07,12.07,0,0,1-2.71.31H62v.57h1.88a14.46,14.46,0,0,1,3.21.5,7.75,7.75,0,0,1,2.58,1.25,5.64,5.64,0,0,1,1.72,2.14A7.38,7.38,0,0,1,72,20.54a6.91,6.91,0,0,1-.73,3.24,7.29,7.29,0,0,1-1.94,2.36,8.34,8.34,0,0,1-2.79,1.44,11.29,11.29,0,0,1-3.28.48,12.82,12.82,0,0,1-4-.6,8.22,8.22,0,0,1-3.08-1.77,7.29,7.29,0,0,1-1.88-2.9,9.46,9.46,0,0,1-.47-3.83h-.57A10,10,0,0,0,53.78,23a7.71,7.71,0,0,0,2,3A9,9,0,0,0,59,27.92a13.25,13.25,0,0,0,4.26.65A12,12,0,0,0,66.87,28a8.87,8.87,0,0,0,3-1.56,7.37,7.37,0,0,0,2.76-6A7.9,7.9,0,0,0,72,17.47Z"/><path class="cls-1" d="M75.21,385.62H48.3l1.07-3.05H6.11a4,4,0,0,1-4-4V312.49a4,4,0,0,1,4-4H117.4a4,4,0,0,1,4,4v66.05a4,4,0,0,1-4,4H74.14Zm-26.16-.54h25.4L73.38,382h44a3.49,3.49,0,0,0,3.49-3.49V312.49A3.49,3.49,0,0,0,117.4,309H6.11a3.49,3.49,0,0,0-3.49,3.49v66.05A3.49,3.49,0,0,0,6.11,382h44Z"/><rect class="cls-1" x="9.07" y="315.72" width="105.37" height="59.61"/><path class="cls-3" d="M53.48,350a8.58,8.58,0,0,1-1.76,2.56,7.8,7.8,0,0,1-2.56,1.67,8.79,8.79,0,0,1-3.34.6,8.41,8.41,0,0,1-3.57-.75A8.29,8.29,0,0,1,39.45,352a9.68,9.68,0,0,1-1.82-3.18,12,12,0,0,1-.66-4,13.66,13.66,0,0,1,.51-3.63,10.27,10.27,0,0,1,1.6-3.35,8.52,8.52,0,0,1,2.85-2.46,8.73,8.73,0,0,1,4.24-1,8.33,8.33,0,0,1,3.39.64A7.92,7.92,0,0,1,52,336.69a7,7,0,0,1,1.46,2.07,5.31,5.31,0,0,1,.52,2h-.55a5.28,5.28,0,0,0-.63-2.09,6.48,6.48,0,0,0-1.49-1.85,7.58,7.58,0,0,0-2.24-1.33,8.78,8.78,0,0,0-7,.47,8.28,8.28,0,0,0-2.67,2.44A10,10,0,0,0,38,341.58a12.85,12.85,0,0,0-.45,3.26,11.76,11.76,0,0,0,.55,3.58,9.14,9.14,0,0,0,1.61,3,8.07,8.07,0,0,0,2.61,2.11,7.58,7.58,0,0,0,3.52.79,8.19,8.19,0,0,0,3.15-.58,7.29,7.29,0,0,0,2.41-1.59A8.07,8.07,0,0,0,53,349.79a10.87,10.87,0,0,0,.85-3h.55A11.61,11.61,0,0,1,53.48,350Z"/><path class="cls-3" d="M82.57,334.9v19.54H82V335.58H82l-8.29,18.86h-.6l-8.29-18.86h-.05v18.86h-.55V334.9h.9l8.27,18.83h.05l8.26-18.83Z"/><path class="cls-1" d="M119.34,254.37H0v-74.1H119.34ZM.54,253.83H118.8v-73H.54Z"/><rect class="cls-1" x="5.1" y="185.37" width="109.14" height="63.91" rx="8.5" ry="8.5"/><path class="cls-3" d="M27.74,200.81v.67h-3v1.29c0,.7-.33.79-1.74.79a2.72,2.72,0,0,0-.3-.67l.78,0c.49,0,.52,0,.52-.15v-1.27H21.1v-.67H24v-.63l.24,0a6.65,6.65,0,0,0,.94-.69H22.51v-.64h3.42l.12,0,.55.33a.24.24,0,0,1-.14.09,8.4,8.4,0,0,1-1.67,1.27v.29ZM22,198.18v1.17h-.7v-1.84H24v-.89l.93.06c0,.07-.06.1-.18.12v.72h2.77v1.84h-.73v-1.17Z"/><path class="cls-3" d="M36.23,197.87V203h-.76v-.39H31v-.7h4.49v-3.29H31.06v-.7Z"/><path class="cls-3" d="M40.29,197.41a9.19,9.19,0,0,1,2.18,1l-.38.67a10.18,10.18,0,0,0-2.15-1Zm-.14,5.06a7.71,7.71,0,0,0,5.16-4.29,5,5,0,0,0,.68.43,8.52,8.52,0,0,1-5.19,4.46.24.24,0,0,1-.12.18Z"/><path class="cls-3" d="M55.13,199.92H52.72l.14,0a.16.16,0,0,1-.16.1,4,4,0,0,1-2.25,3.29,5.31,5.31,0,0,0-.56-.5,3.3,3.3,0,0,0,2-2.92H49.17v-.69h6Zm-.74-2.07H49.84v-.69h4.55Z"/><path class="cls-3" d="M64.34,200h0a.25.25,0,0,1-.13,0c-.55.17-1.33.44-1.91.67,0,.16,0,.35,0,.56s0,.42,0,.67l-.75.05a7.53,7.53,0,0,0,0-1c-.7.35-1.24.78-1.24,1.14s.46.55,1.38.55a16.36,16.36,0,0,0,1.85-.09v.69c-.42,0-1.06.06-1.87.06-1.42,0-2.09-.33-2.09-1.17,0-.62.81-1.27,1.89-1.82,0-.33-.19-.55-.44-.55a2.34,2.34,0,0,0-1.69,1c-.19.21-.47.5-.8.81L58,201a8.55,8.55,0,0,0,1-1,5.1,5.1,0,0,0,.81-1.6H58.29v-.67l1.27,0H60c.07-.32.13-.63.18-1l.93.1c0,.07-.08.12-.18.13-.05.27-.11.51-.18.75a9.11,9.11,0,0,0,2.39-.42l.13.7a11.4,11.4,0,0,1-2.71.38,4.28,4.28,0,0,1-.44,1.05h0a1.85,1.85,0,0,1,1.1-.42c.46,0,.81.33.91.91.6-.27,1.33-.54,1.9-.76Z"/><path class="cls-3" d="M21.64,216.65a11.18,11.18,0,0,1,1.95.67l-.32.64a11.92,11.92,0,0,0-1.94-.7Zm.33,3.54a7.57,7.57,0,0,0,5-4.2,6.47,6.47,0,0,0,.64.47,8.2,8.2,0,0,1-5,4.3.18.18,0,0,1-.1.19Zm.53-5.37a12.73,12.73,0,0,1,1.94.73l-.35.63a10.56,10.56,0,0,0-1.92-.76Z"/><path class="cls-3" d="M35.53,215.38a.22.22,0,0,1-.13.1A11.55,11.55,0,0,1,34,218a28.15,28.15,0,0,1,2.59,2.39l-.65.56a22.84,22.84,0,0,0-2.41-2.38,11.72,11.72,0,0,1-2.73,2.38,4.26,4.26,0,0,0-.54-.57,10.12,10.12,0,0,0,4.17-4.56H30.92v-.7H34.8l.13,0Z"/><path class="cls-3" d="M45.49,217.63H43.07l.14,0a.16.16,0,0,1-.16.1A4,4,0,0,1,40.8,221a5.42,5.42,0,0,0-.56-.5,3.3,3.3,0,0,0,2-2.92H39.52v-.69h6Zm-.74-2.07H40.19v-.69h4.55Z"/><path class="cls-3" d="M53.86,220.9q-.17-.4-.38-.8c-1.58.18-3.86.33-5,.39a.2.2,0,0,1-.15.16l-.26-.9h.77c.47-1.41,1.13-3.56,1.51-5l1,.25c0,.08-.1.12-.22.13-.38,1.3-1,3.17-1.47,4.6,1,0,2.61-.15,3.49-.24A13,13,0,0,0,52,217.83l.62-.34a14.81,14.81,0,0,1,2,3.06Z"/><path class="cls-3" d="M59.14,214.92c0,.08-.09.13-.24.13a18,18,0,0,0-.38,3.29,8.34,8.34,0,0,0,.07,1.25c.12-.29.42-1,.52-1.24l.38.51c-.27.63-.52,1-.62,1.38a1.21,1.21,0,0,0-.06.35.94.94,0,0,0,0,.25l-.73.12a8.23,8.23,0,0,1-.33-2.6,23.35,23.35,0,0,1,.36-3.6Zm4.57,5.47-.81,0a9.73,9.73,0,0,1-1.34-.07c-1-.13-1.39-.66-1.39-1.27a2.32,2.32,0,0,1,.67-1.45l.7.25a1.63,1.63,0,0,0-.59,1.1c0,.69.92.73,1.78.73a9.09,9.09,0,0,0,1-.05Zm-3.4-4.66a24.88,24.88,0,0,0,3.17-.28l.07.73a25.91,25.91,0,0,1-3.23.27Z"/><path class="cls-3" d="M24.16,232.5h.72a6.36,6.36,0,0,0,3,5.87,3.33,3.33,0,0,0-.56.6,6.42,6.42,0,0,1-2.89-4,6.5,6.5,0,0,1-2.92,4,4.14,4.14,0,0,0-.58-.55A6,6,0,0,0,23.9,234l.38.09c-.05-.33-.08-.63-.1-.91H22.39v-.71h1.77Z"/><path class="cls-3" d="M36.54,233.66h.34l.41,0c0,.06,0,.16,0,.24-.1,3.17-.21,4.28-.5,4.65s-.5.38-1.16.38H34.9a1.63,1.63,0,0,0-.25-.74c.5,0,.95,0,1.14,0a.39.39,0,0,0,.33-.11c.22-.23.33-1.25.42-3.75H34.15A5.46,5.46,0,0,1,31.39,239a3,3,0,0,0-.55-.56,4.87,4.87,0,0,0,2.58-4.09H31.07v-.71h2.38v-1.58l.92.05c0,.06-.05.11-.18.13v1.41Z"/><path class="cls-3" d="M44.68,232h.64v8.4h-.64Z"/><rect class="cls-3" x="13.14" y="208.17" width="94.33" height="0.54"/><rect class="cls-3" x="13.14" y="227" width="94.33" height="0.54"/></g></g></svg>