<svg xmlns="http://www.w3.org/2000/svg" viewBox="0 0 92.55 74.26"><defs><style>.cls-1{fill:#fff;}</style></defs><title>project1_title_small</title><g id="Layer_2" data-name="Layer 2"><g id="レイヤー_1" data-name="レイヤー 1"><path class="cls-1" d="M4.86,50.6H2.59v6.52H2.28V50.6H0v-.28H4.86Z"/><path class="cls-1" d="M12.15,50.32,9.6,57.12H9.31L7,50.32h.35l1.26,3.77c.34,1,.62,1.85.82,2.6h0c.21-.76.52-1.63.89-2.6l1.41-3.77Z"/><path class="cls-1" d="M19.13,56.87a4.36,4.36,0,0,1-1.85.35c-1.56,0-3.16-1-3.16-3.47a3.28,3.28,0,0,1,3.41-3.54,3.42,3.42,0,0,1,1.56.3l-.13.26a3.06,3.06,0,0,0-1.4-.31,3,3,0,0,0-3.11,3.31,2.87,2.87,0,0,0,3,3.18A3.54,3.54,0,0,0,19,56.62Z"/><path class="cls-1" d="M28.34,57.12H28l-.21-3.31c-.08-1.19-.16-2.37-.15-3h0c-.25.71-.52,1.47-.94,2.51l-1.52,3.86H25l-1.43-3.76c-.41-1.11-.7-1.88-.91-2.61h0c0,.78-.07,2-.16,3.14l-.22,3.21H21.9l.5-6.8h.33l1.58,4.17c.32.88.57,1.53.77,2.16h0c.18-.6.42-1.19.78-2.12l1.64-4.2h.36Z"/><path class="cls-1" d="M31,53.48a11.9,11.9,0,0,0,3.94-4l.49,0c0,.06-.08.08-.15.1a13.67,13.67,0,0,0,4,3.72,1.11,1.11,0,0,0-.18.23,14,14,0,0,1-4-3.75,12.75,12.75,0,0,1-3.92,3.84Zm4.31,1.06v2.75H39.1v.27H31.28v-.27h1.33V53.67l.41,0s0,.08-.13.09v3.49h2.21V51.94l.41,0s0,.08-.13.09v2.21h2.85v.27Z"/><path class="cls-1" d="M41.92,50.21h8v.27H46V51.8h2.11v4.07H43.65V51.8h2.1V50.48H41.92ZM49.39,57V51.72l.41,0s0,.08-.14.09v6h-.27v-.58H42.48v.61h-.27V51.72l.41,0s0,.08-.13.09V57Zm-5.47-4.89v1.62h1.83V52.07Zm0,1.89V55.6h1.83V54Zm3.93-.27V52.07H46v1.62Zm0,1.91V54H46V55.6Z"/><path class="cls-1" d="M53.53,55.94l2.73-.58,0,.24-2.75.61v1.63h-.27V56.27l-.5.11a.13.13,0,0,1-.09.12l-.16-.35.75-.15V50.31l.32.13a11.67,11.67,0,0,0,2.35-.87l.32.23a.13.13,0,0,1-.08,0h-.06a15.55,15.55,0,0,1-2.58.88v1.4h2.39v.27H53.53v1.49H56v.27H53.53Zm6.58-2.3.2.11a.16.16,0,0,1-.07.06,5.89,5.89,0,0,1-1.63,2.49,5.58,5.58,0,0,0,2.25,1.31,1.37,1.37,0,0,0-.18.23,5.9,5.9,0,0,1-2.26-1.36,7.52,7.52,0,0,1-2.54,1.38,1.06,1.06,0,0,0-.17-.23,7.11,7.11,0,0,0,2.52-1.33A6.22,6.22,0,0,1,56.89,54l.24-.08a5.87,5.87,0,0,0,1.29,2.16,5.58,5.58,0,0,0,1.49-2.19H56.45v-.27h3.61ZM57.3,50.26v1.12a2.52,2.52,0,0,1-1,2.14.6.6,0,0,0-.19-.21A2.2,2.2,0,0,0,57,51.38V50h2.48v2.35c0,.36,0,.38.28.38h.38c.41,0,.41,0,.44-1.08a.56.56,0,0,0,.23.11c0,1,0,1.22-.64,1.22h-.43c-.53,0-.53-.2-.53-.71v-2Z"/><path class="cls-1" d="M65.69,50l.05,0,.2.14s0,0-.07.05c-.23.65-.57,1.54-.89,2.3a3.15,3.15,0,0,1,.95,2.07c0,1.16-.63,1.13-1.3,1.1a.6.6,0,0,0-.11-.28l.41,0c.36,0,.72,0,.72-.85a3.14,3.14,0,0,0-1-2c.33-.77.64-1.6.86-2.25H64v7.62H63.7V50Zm1.25,3,1.82-.45,0,.23-2.5.65a.15.15,0,0,1-.08.13l-.2-.34.67-.15V49.66l.41,0s0,.08-.13.09v1.16h1.71v.27H66.94Zm1.28,1.23a9.33,9.33,0,0,0,.41-1l.38.13s-.07.07-.16.07c-.08.23-.22.54-.34.81H71V57.8h-.27v-.38H67.08v.41h-.27V54.15Zm2.5,1.48V54.42H67.08v1.21Zm-3.64,1.53h3.64V55.9H67.08Zm2.23-4.41c0,.21.05.25.4.25H71c.28,0,.33-.12.35-1a.73.73,0,0,0,.27.13c0,.88-.13,1.1-.59,1.1h-1.3c-.53,0-.67-.08-.67-.52V49.66l.41,0s0,.08-.14.09v1.49a8.49,8.49,0,0,0,1.77-.93l.31.23a.08.08,0,0,1-.06,0h-.07a10.42,10.42,0,0,1-2,.94Z"/><path class="cls-1" d="M74.33,50.85c.71,0,6.28-.48,7.38-.44v.31l-.38,0a2.7,2.7,0,0,0-1.43.4c-1.59.92-3,2.51-3,3.76,0,1.42.86,2.28,3.28,2.63l-.12.28c-2.56-.41-3.47-1.28-3.47-2.91,0-1.39,1.41-3,3.27-4.1-.9.05-4,.27-5.36.4a.27.27,0,0,1-.18.13ZM80,52.38a7,7,0,0,1,1.31,1.27l-.21.17a6.29,6.29,0,0,0-1.28-1.26Zm.9-.78a6.52,6.52,0,0,1,1.31,1.27L82,53a6.57,6.57,0,0,0-1.28-1.26Z"/><path class="cls-1" d="M89.09,50.86a.18.18,0,0,1-.2.13c-.29,2.61-1.25,5.51-2.7,5.51-.6,0-1.27-.72-1.27-2.05a3.92,3.92,0,0,1,4-4,3.27,3.27,0,0,1,3.63,3.37c0,2.16-1.33,3.15-3.45,3.6l-.15-.27c2.09-.4,3.31-1.41,3.31-3.31a3,3,0,0,0-3.33-3.11h-.14Zm-.47-.08a3.65,3.65,0,0,0-3.43,3.67c0,1.11.54,1.76,1,1.76C87.43,56.21,88.34,53.5,88.62,50.78Z"/><path class="cls-1" d="M7,73.24a4.35,4.35,0,0,1-1.85.35c-1.56,0-3.16-1-3.16-3.47a3.28,3.28,0,0,1,3.41-3.54,3.42,3.42,0,0,1,1.56.3l-.13.26a3.06,3.06,0,0,0-1.4-.31,3,3,0,0,0-3.11,3.31,2.87,2.87,0,0,0,3,3.18A3.54,3.54,0,0,0,6.89,73Z"/><path class="cls-1" d="M16.23,73.49h-.31l-.21-3.31c-.08-1.19-.16-2.37-.15-3h0c-.25.71-.52,1.47-.94,2.51l-1.52,3.86h-.21l-1.43-3.76c-.41-1.11-.7-1.88-.91-2.61h0c0,.78-.07,2-.16,3.14l-.22,3.21H9.79l.5-6.8h.33l1.58,4.17c.32.88.57,1.53.77,2.16h0c.18-.6.42-1.19.78-2.12l1.64-4.2h.36Z"/><path class="cls-1" d="M22.08,67.88l.18.06a.19.19,0,0,1,0,.07,11.43,11.43,0,0,1-.95,3.93,7.07,7.07,0,0,1,1.12,1l-.17.23a6.91,6.91,0,0,0-1.07-1,4.87,4.87,0,0,1-1.87,2,1.18,1.18,0,0,0-.2-.23,4.59,4.59,0,0,0,1.85-2,11.56,11.56,0,0,0-1.4-.89l-.13.46-.25-.13c.24-.82.57-2.07.86-3.3h-1V67.9h1.11c.16-.7.31-1.39.43-2l.41.06c0,.05-.05.08-.14.08-.12.53-.26,1.16-.42,1.82H22Zm-1.81.29c-.23.95-.47,1.92-.68,2.72a13.77,13.77,0,0,1,1.46.89,10.65,10.65,0,0,0,.88-3.61Zm7,1.84v.27h-2.3v3.45c0,.28-.08.39-.31.44a8.33,8.33,0,0,1-1.47,0,1.76,1.76,0,0,0-.12-.28l1,0c.56,0,.59,0,.59-.22V70.28H22.24V70h2.41V68.38l.25,0a8.77,8.77,0,0,0,1.69-1.72h-4v-.27h4.17l.06,0,.23.15a.19.19,0,0,1-.09.05,10,10,0,0,1-2.09,2.09V70Z"/><path class="cls-1" d="M30.75,67.21V68.3a5.59,5.59,0,0,1-1,3.43.57.57,0,0,0-.21-.18,5.28,5.28,0,0,0,.9-3.25V66.94h3.73a7.87,7.87,0,0,1-.13-1l.44,0c0,.06-.05.09-.14.1,0,.3.05.6.1.9h3.36v.27h-3.3a9.06,9.06,0,0,0,.93,2.48,7.49,7.49,0,0,0,1-1.83l.39.12c0,.05-.08.08-.17.08A7.45,7.45,0,0,1,35.6,70c.53.85,1.13,1.41,1.65,1.4.27,0,.37-.33.42-1.22a.76.76,0,0,0,.25.13c-.07,1-.23,1.37-.67,1.37-.6,0-1.26-.58-1.82-1.47a6.88,6.88,0,0,1-1.6,1.4,1,1,0,0,0-.21-.18,6.42,6.42,0,0,0,1.66-1.45,9.36,9.36,0,0,1-1-2.72Zm.43,4.86a2.41,2.41,0,0,1-1.35,1.84l-.21-.16A2.29,2.29,0,0,0,30.94,72Zm-.06-3.83V68H34v.27Zm2.63,2.48H31.67v.37H31.4V69h2.35Zm-.27-1.51H31.67v1.24h1.81Zm-1.17,4.32c0,.21.09.25.63.25h2c.44,0,.5-.12.54-1.05a.88.88,0,0,0,.27.12c0,1-.16,1.21-.79,1.21H33c-.73,0-.93-.07-.93-.53V72l.41,0s0,.08-.13.09Zm2-.9a5.94,5.94,0,0,0-1.74-1.1l.18-.19a5.63,5.63,0,0,1,1.75,1.07Zm1.25-6.73a4.44,4.44,0,0,1,1.36.66l-.16.23a4.56,4.56,0,0,0-1.36-.68Zm2.09,8a6.4,6.4,0,0,0-1.76-1.76l.21-.15a6.29,6.29,0,0,1,1.76,1.76Z"/><path class="cls-1" d="M48.77,67.2H41.55v2.44a10.07,10.07,0,0,1-.85,4.63.78.78,0,0,0-.23-.16,9.58,9.58,0,0,0,.81-4.47V66.93h3.5v-1l.41,0s0,.08-.13.09v.86h3.71Zm-1.19,4,.2.12a.24.24,0,0,1-.07.06,4.75,4.75,0,0,1-2.05,1.81,10.9,10.9,0,0,0,3.18.82.89.89,0,0,0-.16.24,11.26,11.26,0,0,1-3.3-.93,12.15,12.15,0,0,1-3.46.91.94.94,0,0,0-.13-.24,11.9,11.9,0,0,0,3.31-.81,4.82,4.82,0,0,1-1.83-1.57l.23-.11A4.61,4.61,0,0,0,45.36,73a4.59,4.59,0,0,0,1.94-1.57H42.1v-.27h5.41Zm-.66-.81H43.65V68.77H42V68.5h1.64v-.95l.41,0s0,.08-.13.09v.82h2.73v-.95l.41,0s0,.08-.13.09v.82H48.7v.27H46.92Zm-.27-1.58H43.92v1.31h2.73Z"/><path class="cls-1" d="M59.59,71.36v.27h-1v1.66h-.27v-.43H55.6v.86c0,.31-.11.42-.32.48a8.79,8.79,0,0,1-1.45.05,1.6,1.6,0,0,0-.12-.3h.77c.84,0,.85,0,.85-.23v-.86H52.16v-.27h3.17v-1H51.44v-.27h3.89v-.89H52.26v-.27h3.07v-.77H52.55V67.79h2.77v-.72H51.57V66.8h3.75v-.87l.41,0c0,.05,0,.08-.13.09v.75h3.83v.27H55.6v.72h2.91v1.63H55.6v.77h3v1.16Zm-6.76-2.21h2.5V68.06h-2.5Zm5.41-1.09H55.6v1.09h2.64Zm-2.64,2.4v.89h2.75v-.89Zm2.75,2.12v-1H55.6v1Z"/><path class="cls-1" d="M62.1,67.53h8.07v.27H62.1Zm3.48,1.28h.13v4.92c0,.23-.06.34-.25.4a6.67,6.67,0,0,1-1.26.05,1.41,1.41,0,0,0-.12-.28h1.19c.14,0,.17,0,.17-.17V72.11H63v2.12h-.27V68.81Zm-.14.27H63v1.23h2.42ZM63,71.84h2.42V70.58H63Zm.81-5.9A7.55,7.55,0,0,1,65,67.25l-.23.13a7.52,7.52,0,0,0-1.12-1.32ZM67,72.66V68.89l.4,0s0,.08-.13.09v3.65Zm.4-5.37a10.26,10.26,0,0,0,1.05-1.4l.37.15s-.08.06-.16.06a12.13,12.13,0,0,1-1,1.3Zm2.07,6.46c0,.27-.08.37-.29.42a8,8,0,0,1-1.39.05,1.22,1.22,0,0,0-.12-.28h.74c.77,0,.78,0,.78-.2V68.58l.41,0s0,.08-.13.09Z"/><path class="cls-1" d="M80.5,69.36l.2.07a.12.12,0,0,1-.06.07,14.27,14.27,0,0,1-2.09,2.13l-.21-.14a12.46,12.46,0,0,0,1.85-1.85H76.84s0,.07-.13.09v4c0,.26-.08.37-.31.42a8.71,8.71,0,0,1-1.53,0,1.4,1.4,0,0,0-.12-.27h.95c.72,0,.74,0,.74-.21V69.64H72.59v-.27h5.25a14.34,14.34,0,0,0-3.18-1.65l.19-.23a16,16,0,0,1,1.94.86,11.54,11.54,0,0,0,2.29-1.59H73.43v-.27h5.86a.31.31,0,0,0,.15,0l.25.19a.13.13,0,0,1-.1,0,14,14,0,0,1-2.51,1.82,7.92,7.92,0,0,1,1.11.7l-.11.14H80.5Z"/><path class="cls-1" d="M84.72,69.66a6.94,6.94,0,0,0-1.58-.94l.15-.2a6,6,0,0,1,1.58.9ZM83.36,73.9A28.45,28.45,0,0,0,84.72,71l.21.16a28,28,0,0,1-1.27,2.79.19.19,0,0,1,0,.11.2.2,0,0,1,0,.07ZM85,67.28a6.42,6.42,0,0,0-1.46-1l.17-.19a6.37,6.37,0,0,1,1.46,1Zm1.49,5.11a.17.17,0,0,1-.16.07A6.06,6.06,0,0,1,85,74.24a1.38,1.38,0,0,0-.21-.19,5.39,5.39,0,0,0,1.36-1.79Zm-.91-6h2.57V72H85.62Zm.27.27v1.49h2V66.66Zm0,1.76v1.49h2V68.42Zm0,1.76v1.52h2V70.19Zm2.57,3.68a11.07,11.07,0,0,0-1.13-1.47l.22-.13a11.38,11.38,0,0,1,1.13,1.43Zm.66-7,.4,0s0,.08-.13.09v5.07h-.27Zm1.68-1,.41,0c0,.05,0,.08-.13.09v7.66c0,.29-.11.39-.31.44a7.47,7.47,0,0,1-1.37.05,2,2,0,0,0-.12-.27H90c.75,0,.8,0,.8-.23Z"/><path class="cls-1" d="M48.89.87l0-.05h.27V27.63h.57V0h-.72c-.57.65-1.12,1.23-1.63,1.73a14.32,14.32,0,0,1-1.67,1.41,13.84,13.84,0,0,1-1.86,1.12,16.05,16.05,0,0,1-2.19.88V5.7a15.17,15.17,0,0,0,3.93-1.81A11.77,11.77,0,0,0,48.89.87Z"/></g></g></svg>