<svg xmlns="http://www.w3.org/2000/svg" viewBox="0 0 401.47 195.54"><defs><style>.cls-1{fill:#fff;}</style></defs><title>project2_title</title><g id="Layer_2" data-name="Layer 2"><g id="レイヤー_1" data-name="レイヤー 1"><path class="cls-1" d="M22.49,119.69a1.64,1.64,0,0,1-.32.35c-3.16,10.27-8.55,17.13-17.52,21.7a3.23,3.23,0,0,0-.67-.8c8.65-4.31,14.17-11.23,17-20.58H8.17a32.64,32.64,0,0,1-7.37,8.3A5.86,5.86,0,0,0,0,128a33.73,33.73,0,0,0,10.3-14.07l1.56.61c-.1.32-.51.35-.83.32a42.06,42.06,0,0,1-2.27,4.5H21.5l.22-.1Z"/><path class="cls-1" d="M37.07,131.47V116.15l1.69.13c0,.22-.26.45-.67.48v14.71Zm17-16.5c0,.29-.26.45-.67.48v10.27c0,6.64-2.33,12.63-11.65,16a3.81,3.81,0,0,0-.67-.83c9.12-3.32,11.29-8.9,11.29-15.22V114.84Z"/><path class="cls-1" d="M67.86,118.83H89.72v1H79.25V137H92v1H65.63v-1h12.6V119.85H67.86Z"/><path class="cls-1" d="M125.67,115.42a.68.68,0,0,1-.48.22,1.1,1.1,0,0,1-.41-.1,74.85,74.85,0,0,1-9.38,7.91c.19.1.54.32.54.32,0,.16-.29.29-.51.32v17.45h-1V124.16a93,93,0,0,1-13.24,7.95,8,8,0,0,0-.61-.83c9-4.24,18.5-11.2,23.8-16.85Z"/><path class="cls-1" d="M161.35,125.72H150l.48.13c0,.19-.25.32-.57.35-.83,6.45-3.09,11.84-10,15.16a5.52,5.52,0,0,0-.73-.8c6.86-3.19,8.93-8.2,9.76-14.84H135.8v-1h25.56Zm-3.1-9.06H138.67v-1h19.59Z"/><path class="cls-1" d="M190.64,121.1a.6.6,0,0,1-.48.19,1.46,1.46,0,0,1-.51-.1,52.49,52.49,0,0,1-7.18,6.09l.61.26a.78.78,0,0,1-.41.25v14h-1v-14a88.13,88.13,0,0,1-11.39,6.67c-.13-.19-.38-.64-.54-.83a78.27,78.27,0,0,0,12.06-7.05,50.32,50.32,0,0,0,7.5-6.51Z"/><path class="cls-1" d="M224,118.48a.47.47,0,0,1-.29.19c-2.23,12.09-8.93,19.56-19.3,23a8.42,8.42,0,0,0-.61-.86c10.18-3.25,16.72-10.62,18.73-21.63H201v-1H222.9l.22-.13Zm-2.42-4.56a25,25,0,0,1,4.28,4.85l-.8.57a24.6,24.6,0,0,0-4.18-4.79Zm3.51-1.92a24.1,24.1,0,0,1,4.12,4.85l-.83.54a21.38,21.38,0,0,0-4.08-4.79Z"/><path class="cls-1" d="M264.14,122.85h-7.21v2.74c0,5.74-1.63,12.16-10.37,16a5.52,5.52,0,0,0-.73-.77c8.65-3.67,10.08-9.92,10.08-15.16v-2.81H244.14v8.49h-1v-8.49h-6.77v-1h6.77v-7.27l1.72.13c0,.29-.29.51-.7.54v6.6h11.77v-7.69l1.69.13a.67.67,0,0,1-.67.51v7.05h7.21Z"/><path class="cls-1" d="M281.09,127.7a26.29,26.29,0,0,1-6.32,9.57l-.8-.64a23,23,0,0,0,6.13-9.32Zm6.7-5.17v16.3a2.19,2.19,0,0,1-2,2.46,35.87,35.87,0,0,1-5,.16,5.69,5.69,0,0,0-.35-1.05c2.11.06,4.44,0,4.91,0a1.42,1.42,0,0,0,1.44-1.5V122.53H275.35v-1h11.42V114.4l1.63.13c0,.25-.22.45-.61.48v6.51h11.33v1Zm5.74,4.63a61.79,61.79,0,0,1,7.11,9.6l-.92.54a62.18,62.18,0,0,0-7-9.6ZM298,112.42a3.65,3.65,0,1,1-3.67,3.67A3.64,3.64,0,0,1,298,112.42Zm2.68,3.67A2.7,2.7,0,1,0,298,118.8,2.71,2.71,0,0,0,300.68,116.09Z"/><path class="cls-1" d="M309.05,126.71H335.7v1.05H310.17a1.21,1.21,0,0,1-.93.57Z"/><path class="cls-1" d="M364.08,130.35a126,126,0,0,0-12-5.49v16.69H351V114l1.82.13c0,.32-.29.48-.77.57v9.57l.26-.42a122.06,122.06,0,0,1,12.38,5.55Z"/><path class="cls-1" d="M401.47,115.58v24.85c0,1.12-.35,1.56-1.21,1.75a36.65,36.65,0,0,1-5.87.16,5.07,5.07,0,0,0-.42-1c1.15,0,2.23,0,3.13,0,3.38,0,3.41,0,3.41-.92v-8.39H389.83v10.24h-1V132.07h-9.7c-.38,3.7-1.44,7.59-4.05,10.59a2.43,2.43,0,0,0-.7-.7c3.64-4.15,4-9.89,4-14.49v-11.9Zm-22.08,11.9c0,1.15,0,2.36-.13,3.64h9.6v-6.73h-9.48Zm9.48-10.94h-9.48v6.89h9.48Zm11.64,0H389.83v6.89h10.69Zm-10.69,14.58h10.69v-6.73H389.83Z"/><path class="cls-1" d="M93.2,183.89l1.21,10.53-1,.13L92.21,184l-12.51,1.59-.19-1L92.09,183l-.92-8.26-10.62,1.37-.16-1L91,173.78l-.73-6.67,1.75-.06c0,.29-.29.51-.67.61l.67,6,10.27-1.34.13,1-10.27,1.34.92,8.26,12.54-1.59.16,1Z"/><path class="cls-1" d="M116.49,179.71h26.64v1.05H117.61a1.21,1.21,0,0,1-.93.57Z"/><path class="cls-1" d="M177.67,170.37a.56.56,0,0,1-.29.19c-1.21,12.83-5.84,19.4-16.21,23.55a8.28,8.28,0,0,0-.7-.8c10.21-4.12,14.68-10.43,15.83-22.3H156v9.25h-1V170h21.57l.29-.22Z"/><path class="cls-1" d="M188.27,179.71h26.64v1.05H189.39a1.21,1.21,0,0,1-.92.57Z"/><path class="cls-1" d="M243.3,183.35a125.91,125.91,0,0,0-12-5.49v16.69h-1.05V167l1.82.13c0,.32-.29.48-.77.57v9.57l.25-.42a122.1,122.1,0,0,1,12.38,5.55ZM239.41,169A28.22,28.22,0,0,1,244.1,174l-.73.61a29.12,29.12,0,0,0-4.66-4.88Zm4.21-2.65a29.11,29.11,0,0,1,4.66,4.91l-.7.61a29.25,29.25,0,0,0-4.69-4.88Z"/><path class="cls-1" d="M262.44,181.12c1.47,1.95,4.34,2.9,7.56,3,1,0,2.33,0,3.86,0,4,0,9.19-.06,11.93-.19a3.26,3.26,0,0,0-.35,1c-1.56.06-3.92.1-6.38.1-.06.16-.19.22-.48.29v2.33h7.18v1h-7.18V194c0,.8-.22,1.15-1,1.34a29.51,29.51,0,0,1-5.3.16,4.29,4.29,0,0,0-.41-.86c1.08,0,2,0,2.84,0,2.87,0,2.87,0,2.87-.64v-5.42H256.48v-1h21.15v-2.58c-2.9,0-5.78,0-7.56-.06-3.54-.1-6.29-1.05-8-3-1.63,1.15-3.22,2.26-4.59,3.16,0,.22-.06.32-.22.38l-.67-1.15a54.81,54.81,0,0,0,4.95-3.16V176h-4.85v-1h5.81Zm-4.24-14a18.77,18.77,0,0,1,4.37,4.08l-.77.67a18.89,18.89,0,0,0-4.34-4.21ZM267.36,194a20.78,20.78,0,0,0-5.23-4l.67-.64a21.43,21.43,0,0,1,5.26,3.86ZM267,172.63h6.29c.22-.67.45-1.5.64-2.23h-9.57v-1H271a13.1,13.1,0,0,0-2.42-2.81l.8-.48a12.23,12.23,0,0,1,2.65,3.13l-.22.16h5.74a26.49,26.49,0,0,0,2-3.29l1.24.51a.45.45,0,0,1-.51.22c-.45.7-1.12,1.72-1.75,2.55h6.89v1H274.86c-.19.64-.42,1.5-.64,2.23h8.52v9.51H267Zm14.77,2.81v-1.85H268v1.85Zm0,2.84V176.4H268v1.88Zm0,2.9v-1.95H268v1.95Z"/><path class="cls-1" d="M320.13,182.33l1.44.13c0,.16-.16.29-.48.32v12.63h-1v-2.11H297.42v2.23h-1V182.33l1.44.13c0,.16-.16.29-.48.32v9.57h10.66V179.91h-10.4V169.31l1.44.13c0,.16-.16.29-.48.32v9.19h9.44V166.19l1.44.13c0,.16-.16.29-.48.32v12.32h9.8v-9.64l1.44.13c0,.16-.16.29-.48.32v10.15H309v12.44h11.1Z"/><path class="cls-1" d="M210.59,30.4c-2,1.48-4,3-6.09,4.41l-6.12,4.36a46.07,46.07,0,0,0-5.52,4.6,22,22,0,0,0-3.93,5.15,11.84,11.84,0,0,0-1.4,5.69h35.89v-.85H188.35l0-.41a11.7,11.7,0,0,1,3.05-6.73,44.55,44.55,0,0,1,6.41-5.89c2.48-1.9,5.17-3.81,8-5.69a75.69,75.69,0,0,0,7.84-6,33.5,33.5,0,0,0,6-6.8,14.32,14.32,0,0,0,2.34-8A14.21,14.21,0,0,0,220.7,8a13.05,13.05,0,0,0-3.46-4.43A14.78,14.78,0,0,0,212.09.9a22.27,22.27,0,0,0-6.45-.9c-5.67,0-10,1.61-12.8,4.79S188.61,12.38,188.5,18h.85a26,26,0,0,1,.89-6.65,14.7,14.7,0,0,1,2.87-5.58,13.32,13.32,0,0,1,5.1-3.66A19.17,19.17,0,0,1,205.64.85a21.14,21.14,0,0,1,6.15.86,14.15,14.15,0,0,1,4.89,2.55,12.12,12.12,0,0,1,3.26,4.21,13.44,13.44,0,0,1,1.2,5.8,13.43,13.43,0,0,1-1.44,6.13,22.5,22.5,0,0,1-3.78,5.29A44.09,44.09,0,0,1,210.59,30.4Z"/></g></g></svg>