<svg xmlns="http://www.w3.org/2000/svg" viewBox="0 0 65.79 13.53"><defs><style>.cls-1{fill:#fff;}.cls-2{fill:none;stroke:#fff;stroke-miterlimit:10;stroke-width:0.25px;}</style></defs><title>project-small-title</title><g id="Layer_2" data-name="Layer 2"><g id="レイヤー_1" data-name="レイヤー 1"><path class="cls-1" d="M16.88,11.06v-10h4a3.33,3.33,0,0,1,2.24.69,2.55,2.55,0,0,1,.8,2A2.73,2.73,0,0,1,23.72,5a2.38,2.38,0,0,1-.66.85,2.87,2.87,0,0,1-1,.52,4.45,4.45,0,0,1-1.28.17H17.16v4.55Zm4-4.83A3.56,3.56,0,0,0,22,6.07a2.49,2.49,0,0,0,.88-.48,2.21,2.21,0,0,0,.58-.76,2.41,2.41,0,0,0,.21-1A2.36,2.36,0,0,0,23,2a3,3,0,0,0-2.08-.63H17.16V6.23Z"/><path class="cls-1" d="M26.89,11.06V3.87h.28V5.65h0a2.8,2.8,0,0,1,.31-.76,2.16,2.16,0,0,1,.56-.62,2.73,2.73,0,0,1,.83-.42A3.46,3.46,0,0,1,30,3.7V4a2.71,2.71,0,0,0-1.28.2,2.42,2.42,0,0,0-.89.67,2.83,2.83,0,0,0-.52,1A4,4,0,0,0,27.17,7v4.07Z"/><path class="cls-1" d="M32.3,6a3.62,3.62,0,0,1,.62-1.2,3.16,3.16,0,0,1,1-.83,3.24,3.24,0,0,1,2.79,0,3.17,3.17,0,0,1,1,.83A3.6,3.6,0,0,1,38.37,6a4.91,4.91,0,0,1,0,2.84,3.6,3.6,0,0,1-.62,1.2,3.1,3.1,0,0,1-1,.83,3,3,0,0,1-1.4.31,3,3,0,0,1-1.39-.31,3.09,3.09,0,0,1-1-.83,3.62,3.62,0,0,1-.62-1.2A4.91,4.91,0,0,1,32.3,6Zm.26,2.74a3.34,3.34,0,0,0,.57,1.11,2.81,2.81,0,0,0,.93.77,3,3,0,0,0,2.55,0,2.81,2.81,0,0,0,.93-.77,3.34,3.34,0,0,0,.57-1.11,4.55,4.55,0,0,0,.19-1.32,4.5,4.5,0,0,0-.19-1.3,3.35,3.35,0,0,0-.57-1.11,2.9,2.9,0,0,0-.93-.78,2.91,2.91,0,0,0-2.55,0,2.89,2.89,0,0,0-.93.78,3.35,3.35,0,0,0-.57,1.11,4.5,4.5,0,0,0-.19,1.3A4.55,4.55,0,0,0,32.56,8.78Z"/><path class="cls-1" d="M41.87,12.88a.89.89,0,0,1-.34.43,1.21,1.21,0,0,1-.55.18,7,7,0,0,1-.73,0v-.28q.39,0,.67,0a.92.92,0,0,0,.45-.15.68.68,0,0,0,.25-.37,2.53,2.53,0,0,0,.08-.7V3.87H42V12.1A2.2,2.2,0,0,1,41.87,12.88ZM41.7,2.48V1.07H42V2.48Z"/><path class="cls-1" d="M45.51,8.87A3.19,3.19,0,0,0,46,10a2.36,2.36,0,0,0,.87.73,2.88,2.88,0,0,0,1.3.27,2.93,2.93,0,0,0,1.88-.6A2.69,2.69,0,0,0,51,8.57h.28a2.87,2.87,0,0,1-1,2,3.15,3.15,0,0,1-2.07.69A3.23,3.23,0,0,1,46.77,11a2.53,2.53,0,0,1-1-.79A3.49,3.49,0,0,1,45.24,9a5.82,5.82,0,0,1-.18-1.49,4.46,4.46,0,0,1,.27-1.6A3.71,3.71,0,0,1,46,4.69a2.95,2.95,0,0,1,2.18-1A3.06,3.06,0,0,1,49.66,4a2.86,2.86,0,0,1,1,.85,3.58,3.58,0,0,1,.56,1.22,5,5,0,0,1,.15,1.43h-6A5.86,5.86,0,0,0,45.51,8.87ZM50.9,6a3.15,3.15,0,0,0-.54-1,2.56,2.56,0,0,0-.89-.71A2.79,2.79,0,0,0,48.24,4a2.71,2.71,0,0,0-1.1.22,2.61,2.61,0,0,0-.9.65,3.36,3.36,0,0,0-.62,1,4.32,4.32,0,0,0-.28,1.36h5.74A4.27,4.27,0,0,0,50.9,6Z"/><path class="cls-1" d="M59.94,9.7a2.61,2.61,0,0,1-.62.82,2.76,2.76,0,0,1-.9.52,3.35,3.35,0,0,1-1.13.18,3.1,3.1,0,0,1-1.37-.29,2.94,2.94,0,0,1-1-.78A3.42,3.42,0,0,1,54.31,9a4.52,4.52,0,0,1-.21-1.39,5.4,5.4,0,0,1,.2-1.49,3.71,3.71,0,0,1,.62-1.25A3,3,0,0,1,56,4a3.26,3.26,0,0,1,1.49-.32,3,3,0,0,1,1,.15,2.61,2.61,0,0,1,.83.45,2.5,2.5,0,0,1,.61.74,2.76,2.76,0,0,1,.31,1H59.9a2.64,2.64,0,0,0-.31-.92A2.3,2.3,0,0,0,59,4.49a2.2,2.2,0,0,0-.73-.38A2.87,2.87,0,0,0,57.46,4,3,3,0,0,0,56,4.31a2.72,2.72,0,0,0-1,.85,3.62,3.62,0,0,0-.52,1.18,5.32,5.32,0,0,0-.16,1.28,4.18,4.18,0,0,0,.19,1.26,3.28,3.28,0,0,0,.55,1.06,2.63,2.63,0,0,0,.91.74,2.79,2.79,0,0,0,1.26.27,3,3,0,0,0,1-.16A2.45,2.45,0,0,0,60,8.61h.28A3.1,3.1,0,0,1,59.94,9.7Z"/><path class="cls-1" d="M64.17,9.66a1.73,1.73,0,0,0,.09.63.81.81,0,0,0,.23.34.6.6,0,0,0,.31.13l.34,0h.38a.79.79,0,0,0,.24,0V11l-.25,0h-.44a1.26,1.26,0,0,1-.83-.29,1.33,1.33,0,0,1-.34-1.06V4.15H62.57V3.87h1.32V1.6h.28V3.87h1.62v.28H64.17Z"/><line class="cls-2" y1="6.04" x2="4.79" y2="6.04"/><polyline class="cls-2" points="1.93 0.09 7.65 6.04 1.93 11.99"/></g></g></svg>