<svg xmlns="http://www.w3.org/2000/svg" viewBox="0 0 104.38 71.38"><defs><style>.cls-1{fill:#fff;}</style></defs><title>project2_title_small</title><g id="Layer_2" data-name="Layer 2"><g id="レイヤー_1" data-name="レイヤー 1"><path class="cls-1" d="M6.35,48.56a.47.47,0,0,1-.09.1,9.45,9.45,0,0,1-4.94,6.12.9.9,0,0,0-.19-.22,9.09,9.09,0,0,0,4.79-5.81H2.3A9.22,9.22,0,0,1,.22,51.09,1.63,1.63,0,0,0,0,50.9a9.52,9.52,0,0,0,2.91-4l.44.17c0,.09-.14.1-.23.09a11.71,11.71,0,0,1-.64,1.27H6.07l.06,0Z"/><path class="cls-1" d="M9.67,51.88V47.56l.48,0c0,.06-.07.13-.19.14v4.15Zm4.8-4.65c0,.08-.07.13-.19.14v2.9A4.38,4.38,0,0,1,11,54.79a1.08,1.08,0,0,0-.19-.23C13.38,53.62,14,52,14,50.26V47.19Z"/><path class="cls-1" d="M17.57,48.32h6.17v.29h-3v4.83H24.4v.29H16.94v-.29H20.5V48.61H17.57Z"/><path class="cls-1" d="M33.06,47.36a.19.19,0,0,1-.13.06l-.12,0a21.15,21.15,0,0,1-2.65,2.23l.15.09s-.08.08-.14.09v4.92h-.29V49.82a26.23,26.23,0,0,1-3.74,2.24,2.28,2.28,0,0,0-.17-.23,24.44,24.44,0,0,0,6.72-4.75Z"/><path class="cls-1" d="M42.31,50.26h-3.2l.14,0c0,.05-.07.09-.16.1a4.91,4.91,0,0,1-2.84,4.28,1.59,1.59,0,0,0-.21-.23c1.94-.9,2.52-2.31,2.75-4.19H35.1V50h7.21Zm-.87-2.56H35.91v-.29h5.53Z"/><path class="cls-1" d="M49.8,49a.17.17,0,0,1-.13.05l-.14,0a14.78,14.78,0,0,1-2,1.72l.17.07a.22.22,0,0,1-.12.07v4h-.27v-4a24.79,24.79,0,0,1-3.21,1.88c0-.05-.11-.18-.15-.23a22.06,22.06,0,0,0,3.4-2,14.19,14.19,0,0,0,2.12-1.84Z"/><path class="cls-1" d="M58.45,48.22a.13.13,0,0,1-.08.05,7.79,7.79,0,0,1-5.45,6.48,2.41,2.41,0,0,0-.17-.24A7.44,7.44,0,0,0,58,48.41H52v-.29h6.17l.06,0Zm-.68-1.29A7,7,0,0,1,59,48.3l-.23.16a6.92,6.92,0,0,0-1.18-1.35Zm1-.54a6.81,6.81,0,0,1,1.16,1.37l-.23.15a6,6,0,0,0-1.15-1.35Z"/><path class="cls-1" d="M68.91,49.45h-2v.77A4.47,4.47,0,0,1,64,54.74a1.59,1.59,0,0,0-.21-.22,4.23,4.23,0,0,0,2.84-4.28v-.79H63.27v2.39H63V49.45H61.07v-.29H63V47.11l.49,0c0,.08-.08.14-.2.15v1.86h3.32V47l.48,0a.19.19,0,0,1-.19.14v2h2Z"/><path class="cls-1" d="M72.82,50.82A7.41,7.41,0,0,1,71,53.52l-.23-.18a6.48,6.48,0,0,0,1.73-2.63Zm1.89-1.46V54a.62.62,0,0,1-.57.69,10.07,10.07,0,0,1-1.41,0,1.7,1.7,0,0,0-.1-.3c.59,0,1.25,0,1.39,0a.4.4,0,0,0,.41-.42V49.36H71.2v-.29h3.22v-2l.46,0c0,.07-.06.13-.17.14v1.84h3.2v.29Zm1.62,1.31a17.41,17.41,0,0,1,2,2.71l-.26.15a17.58,17.58,0,0,0-2-2.71Zm1.26-4.16a1,1,0,1,1-1,1A1,1,0,0,1,77.6,46.51Zm.76,1a.76.76,0,1,0-.76.77A.76.76,0,0,0,78.35,47.54Z"/><path class="cls-1" d="M79.88,50.54H87.4v.3H80.2a.34.34,0,0,1-.26.16Z"/><path class="cls-1" d="M94.64,51.57A35.72,35.72,0,0,0,91.25,50v4.71h-.3V47l.51,0c0,.09-.08.14-.22.16v2.7l.07-.12a34.33,34.33,0,0,1,3.49,1.57Z"/><path class="cls-1" d="M104.38,47.4v7c0,.31-.1.44-.34.5a10.41,10.41,0,0,1-1.66,0,1.46,1.46,0,0,0-.12-.28h.88c1,0,1,0,1-.26V52.06h-3v2.89h-.27V52.06H98.09a5.3,5.3,0,0,1-1.14,3,.68.68,0,0,0-.2-.2,6.05,6.05,0,0,0,1.13-4.09V47.4Zm-6.23,3.36c0,.32,0,.67,0,1h2.71v-1.9H98.15Zm2.67-3.09H98.15v1.94h2.67Zm3.29,0h-3v1.94h3Zm-3,4.11h3v-1.9h-3Z"/><path class="cls-1" d="M24.39,68.09l.34,3-.29,0-.33-3-3.53.45-.05-.28,3.55-.45-.26-2.33-3,.39,0-.28,3-.39-.21-1.88.5,0c0,.08-.08.14-.19.17l.19,1.68,2.9-.38,0,.29-2.9.38.26,2.33,3.54-.45,0,.28Z"/><path class="cls-1" d="M30.09,66.91H37.6v.3H30.4a.34.34,0,0,1-.26.16Z"/><path class="cls-1" d="M46.5,64.27a.17.17,0,0,1-.08.05c-.34,3.62-1.65,5.47-4.57,6.64a2.5,2.5,0,0,0-.2-.23c2.88-1.16,4.14-2.94,4.46-6.29H40.37v2.61h-.28v-2.9h6.09l.08-.06Z"/><path class="cls-1" d="M48.65,66.91h7.52v.3H49a.34.34,0,0,1-.26.16Z"/><path class="cls-1" d="M63.41,67.94A35.72,35.72,0,0,0,60,66.39V71.1h-.3V63.34l.51,0c0,.09-.08.13-.22.16v2.7l.07-.12a34.33,34.33,0,0,1,3.49,1.57Zm-1.1-4a7.93,7.93,0,0,1,1.32,1.4l-.21.17a8.26,8.26,0,0,0-1.31-1.38Zm1.19-.75a8.19,8.19,0,0,1,1.31,1.39l-.2.17a8.26,8.26,0,0,0-1.32-1.38Z"/><path class="cls-1" d="M67.94,67.31a2.74,2.74,0,0,0,2.13.85h1.09c1.13,0,2.59,0,3.37-.05a.92.92,0,0,0-.1.28c-.44,0-1.11,0-1.8,0,0,0-.05.06-.13.08v.66h2v.27h-2v1.52c0,.23-.06.32-.27.38a8.37,8.37,0,0,1-1.49,0,1.22,1.22,0,0,0-.12-.24h.8c.81,0,.81,0,.81-.18V69.42h-6v-.27h6v-.73l-2.13,0a3,3,0,0,1-2.27-.85c-.46.32-.91.64-1.3.89,0,.06,0,.09-.06.11l-.19-.32a15.39,15.39,0,0,0,1.4-.89V65.88H66.3v-.27h1.64Zm-1.2-4A5.31,5.31,0,0,1,68,64.51l-.22.19a5.31,5.31,0,0,0-1.22-1.19Zm2.58,7.58a5.88,5.88,0,0,0-1.48-1.12l.19-.18a6,6,0,0,1,1.49,1.09Zm-.1-6H71c.06-.19.13-.42.18-.63h-2.7V64h1.88a3.7,3.7,0,0,0-.68-.79l.23-.13a3.47,3.47,0,0,1,.75.88l-.06,0h1.62a7.53,7.53,0,0,0,.58-.93l.35.14a.13.13,0,0,1-.14.06c-.13.2-.32.49-.5.72h1.94v.27h-3c-.05.18-.12.42-.18.63h2.4V67.6H69.23Zm4.17.79v-.52H69.5v.52Zm0,.8V66H69.5v.53Zm0,.82v-.55H69.5v.55Z"/><path class="cls-1" d="M83.34,67.65l.41,0s0,.08-.14.09v3.57h-.27v-.59H76.93v.63h-.27V67.65l.4,0s0,.08-.13.09v2.7h3V67H77V64l.41,0s0,.08-.14.09V66.7h2.67V63.1l.41,0s0,.08-.13.09V66.7H83V64l.41,0s0,.08-.14.09V67h-3v3.51h3.13Z"/><path class="cls-1" d="M53.44,17.85,50.3,20.09a23.68,23.68,0,0,0-2.83,2.37,11.31,11.31,0,0,0-2,2.66,6.15,6.15,0,0,0-.73,3H63.25v-.57h-18v-.14A5.92,5.92,0,0,1,46.84,24a22.81,22.81,0,0,1,3.28-3c1.27-1,2.64-1.95,4.09-2.92a38.9,38.9,0,0,0,4-3.09,17.22,17.22,0,0,0,3.07-3.5,7.41,7.41,0,0,0,1.21-4.11,7.35,7.35,0,0,0-.66-3.23,6.76,6.76,0,0,0-1.79-2.29A7.67,7.67,0,0,0,57.39.47,11.5,11.5,0,0,0,54.06,0c-2.93,0-5.15.83-6.61,2.48a10.36,10.36,0,0,0-2.24,6.91h.57a13.3,13.3,0,0,1,.46-3.46A7.46,7.46,0,0,1,47.7,3.1a6.76,6.76,0,0,1,2.59-1.86A9.77,9.77,0,0,1,54.06.57,10.75,10.75,0,0,1,57.2,1,7.18,7.18,0,0,1,59.68,2.3a6.16,6.16,0,0,1,1.65,2.13,6.84,6.84,0,0,1,.61,2.94,6.82,6.82,0,0,1-.73,3.11,11.46,11.46,0,0,1-1.93,2.69,22.38,22.38,0,0,1-2.72,2.41C55.56,16.35,54.51,17.11,53.44,17.85Z"/></g></g></svg>