<svg xmlns="http://www.w3.org/2000/svg" viewBox="0 0 449.87 287.78"><defs><style>.cls-1{fill:#fff;}.cls-2{fill:none;stroke:#fff;stroke-miterlimit:10;stroke-width:0.5px;}</style></defs><title>project_title</title><g id="Layer_2" data-name="Layer 2"><g id="レイヤー_1" data-name="レイヤー 1"><path class="cls-1" d="M170,35.84v-25h10.12a8.33,8.33,0,0,1,5.6,1.72,6.37,6.37,0,0,1,2,5.11,6.85,6.85,0,0,1-.59,2.92,6,6,0,0,1-1.64,2.14A7.18,7.18,0,0,1,183,24a11.06,11.06,0,0,1-3.2.44h-9.07V35.84Zm10.12-12.08a8.92,8.92,0,0,0,2.73-.4,6.3,6.3,0,0,0,2.19-1.19,5.58,5.58,0,0,0,1.45-1.91,6,6,0,0,0,.53-2.59,5.9,5.9,0,0,0-1.7-4.55q-1.7-1.58-5.2-1.58h-9.42V23.76Z"/><path class="cls-1" d="M195.07,35.84v-18h.7v4.45h.07a7,7,0,0,1,.77-1.91,5.37,5.37,0,0,1,1.4-1.56,6.86,6.86,0,0,1,2.08-1.05,8.69,8.69,0,0,1,2.82-.35v.7a6.75,6.75,0,0,0-3.2.51,6.07,6.07,0,0,0-2.22,1.68,7.05,7.05,0,0,0-1.29,2.47,9.93,9.93,0,0,0-.42,2.87V35.84Z"/><path class="cls-1" d="M208.62,23.29a9,9,0,0,1,1.56-3,7.87,7.87,0,0,1,2.54-2.08,8.09,8.09,0,0,1,7,0,7.88,7.88,0,0,1,2.54,2.08,9.05,9.05,0,0,1,1.56,3,12.29,12.29,0,0,1,0,7.1,9,9,0,0,1-1.56,3,7.41,7.41,0,0,1-6,2.83,7.51,7.51,0,0,1-3.47-.77,7.66,7.66,0,0,1-2.54-2.07,9,9,0,0,1-1.56-3,12.29,12.29,0,0,1,0-7.1Zm.65,6.84a8.38,8.38,0,0,0,1.42,2.78A7,7,0,0,0,213,34.84a6.85,6.85,0,0,0,3.2.72,6.78,6.78,0,0,0,3.17-.72,7,7,0,0,0,2.33-1.92,8.38,8.38,0,0,0,1.42-2.78,11.4,11.4,0,0,0,.47-3.29,11.28,11.28,0,0,0-.47-3.25,8.38,8.38,0,0,0-1.42-2.78,7.23,7.23,0,0,0-2.33-1.94,6.65,6.65,0,0,0-3.17-.73,6.72,6.72,0,0,0-3.2.73,7.23,7.23,0,0,0-2.33,1.94,8.38,8.38,0,0,0-1.42,2.78,11.28,11.28,0,0,0-.47,3.25A11.4,11.4,0,0,0,209.27,30.13Z"/><path class="cls-1" d="M232.52,40.37a2.22,2.22,0,0,1-.84,1.08,3.05,3.05,0,0,1-1.37.45,17,17,0,0,1-1.82.09v-.7q1,0,1.68-.07a2.32,2.32,0,0,0,1.12-.37,1.7,1.7,0,0,0,.61-.93,6.27,6.27,0,0,0,.19-1.75V17.85h.7V38.43A5.48,5.48,0,0,1,232.52,40.37Zm-.42-26V10.85h.7v3.54Z"/><path class="cls-1" d="M241.64,30.36a7.93,7.93,0,0,0,1.24,2.71,5.9,5.9,0,0,0,2.17,1.82,7.23,7.23,0,0,0,3.25.67A7.33,7.33,0,0,0,253,34.07a6.73,6.73,0,0,0,2.33-4.46h.7a7.17,7.17,0,0,1-2.49,4.88,7.87,7.87,0,0,1-5.18,1.73,8.06,8.06,0,0,1-3.59-.66,6.31,6.31,0,0,1-2.43-2,8.7,8.7,0,0,1-1.4-3,14.62,14.62,0,0,1-.46-3.73,11.18,11.18,0,0,1,.67-4,9.32,9.32,0,0,1,1.75-3,7.37,7.37,0,0,1,5.46-2.47,7.65,7.65,0,0,1,3.62.81,7.13,7.13,0,0,1,2.49,2.13,8.9,8.9,0,0,1,1.4,3,12.48,12.48,0,0,1,.37,3.57h-15A14.54,14.54,0,0,0,241.64,30.36Zm13.46-7.21a7.79,7.79,0,0,0-1.35-2.61,6.37,6.37,0,0,0-2.22-1.77,7,7,0,0,0-3.08-.65,6.77,6.77,0,0,0-2.75.56,6.52,6.52,0,0,0-2.24,1.63,8.42,8.42,0,0,0-1.56,2.57,10.79,10.79,0,0,0-.7,3.4h14.35A10.64,10.64,0,0,0,255.1,23.15Z"/><path class="cls-1" d="M277.71,32.42a6.48,6.48,0,0,1-1.56,2,6.87,6.87,0,0,1-2.24,1.3,8.37,8.37,0,0,1-2.82.45,7.76,7.76,0,0,1-3.41-.72,7.33,7.33,0,0,1-2.5-1.94,8.49,8.49,0,0,1-1.54-2.85,11.26,11.26,0,0,1-.53-3.48,13.42,13.42,0,0,1,.51-3.73,9.26,9.26,0,0,1,1.54-3.12,7.53,7.53,0,0,1,2.63-2.15,8.16,8.16,0,0,1,3.73-.81,7.6,7.6,0,0,1,2.42.39A6.55,6.55,0,0,1,276,18.93a6.19,6.19,0,0,1,1.52,1.84,6.9,6.9,0,0,1,.79,2.54h-.7a6.57,6.57,0,0,0-.77-2.29,5.76,5.76,0,0,0-1.36-1.61,5.47,5.47,0,0,0-1.82-1,7.16,7.16,0,0,0-2.13-.31,7.39,7.39,0,0,0-3.62.82,6.8,6.8,0,0,0-2.38,2.14A9,9,0,0,0,264.22,24a13.29,13.29,0,0,0-.4,3.2,10.44,10.44,0,0,0,.47,3.15A8.23,8.23,0,0,0,265.67,33a6.62,6.62,0,0,0,2.28,1.84,7,7,0,0,0,3.15.68,7.49,7.49,0,0,0,2.48-.4,6.13,6.13,0,0,0,4.17-5.44h.7A7.71,7.71,0,0,1,277.71,32.42Z"/><path class="cls-1" d="M288.28,32.34a4.33,4.33,0,0,0,.23,1.58,2,2,0,0,0,.58.84,1.51,1.51,0,0,0,.77.33,6.74,6.74,0,0,0,.84.05l.95,0a2,2,0,0,0,.59-.09v.7l-.61.07q-.3,0-1.1,0a3.13,3.13,0,0,1-2.08-.72,3.32,3.32,0,0,1-.86-2.64V18.55h-3.29v-.7h3.29V12.18h.7v5.67h4.06v.7h-4.06Z"/><path class="cls-1" d="M118.25,153.76c0,.19-.19.32-.54.38,0,.13.54,20.2,14.77,26.58a4.24,4.24,0,0,0-.73.77c-10.11-4.63-13.34-16.08-14.39-22.72h0c-.83,6.7-3.57,17.64-14.2,22.65a4.35,4.35,0,0,0-.67-.64c13.56-6.32,14-22.75,14.26-27.12Z"/><path class="cls-1" d="M155.51,178.08h14v1H140.74v-1h13.82V157.37H142.33v-1h25.72v1H155.51Z"/><path class="cls-1" d="M186.88,158v6.22c0,.61,0,1.28-.06,1.92h6.54v1h-6.6a25.66,25.66,0,0,1-.57,3.67c1.4,1.37,5.52,5.84,6.51,7l-.67.8c-1.08-1.34-4.44-5.1-6.09-6.83a17.44,17.44,0,0,1-7,9.48,2.75,2.75,0,0,0-.64-.73,16.87,16.87,0,0,0,7.53-13.34h-7.37v-1h7.43c.06-.67.06-1.31.06-1.95V158h-3.7a23.75,23.75,0,0,1-2.94,6.13,8.85,8.85,0,0,0-.8-.51c1.88-2.52,3.35-6.83,4.21-11.23l1.44.38q-.1.29-.57.29c-.29,1.34-.64,2.68-1,4h9.83v1Zm8.1-2.71h11.33v25.3h-1V178h-9.41v2.81h-1Zm1,21.79h9.41V156.25h-9.41Z"/><path class="cls-1" d="M229.39,160.08a36.05,36.05,0,0,0-3-4.12l.7-.35a34.1,34.1,0,0,1,4.66,7l-.7.45a23.18,23.18,0,0,0-1.12-2.14c-4.72.25-9.7.48-12.73.61,0,.22-.19.32-.38.38l-.45-1.37,2.65-.06a57.94,57.94,0,0,0,3.76-7.91l1.34.41q-.09.24-.57.29a78.26,78.26,0,0,1-3.54,7.18Zm.13,4.59v15.54c0,1.56-.61,1.6-5,1.6a3.64,3.64,0,0,0-.42-1.05c1.15,0,2.11.06,2.84.06,1.5,0,1.63,0,1.63-.61v-4.75h-9v6.45h-1V164.68Zm-1,1h-9v3.86h9Zm-9,8.87h9v-4.05h-9Zm23.29-9.09c1.47,0,1.72-.61,1.85-4.18a2.61,2.61,0,0,0,1,.45c-.16,3.73-.54,4.69-2.78,4.69h-6.7c-2.43,0-3.13-.35-3.13-2.14v-11.8l1.44.13c0,.16-.16.29-.48.32v5.78a81.17,81.17,0,0,0,9.22-3.35l1,.93a.27.27,0,0,1-.22.06,1,1,0,0,1-.29,0,93.49,93.49,0,0,1-9.67,3.29v4.69c0,1,.32,1.18,2.07,1.18ZM234,179.26c0,1,.35,1.24,2.2,1.24h7c1.63,0,1.88-.67,2-4.69a3.11,3.11,0,0,0,1,.42c-.19,4.18-.57,5.2-2.94,5.2h-7c-2.49,0-3.22-.35-3.22-2.17V167.52l1.44.13c0,.16-.16.29-.48.32v5.39c3.51-1,7.63-2.3,9.76-3.67l.86,1a.27.27,0,0,1-.22.06.79.79,0,0,1-.26,0c-2.17,1.34-6.54,2.62-10.15,3.57Z"/><path class="cls-1" d="M260.32,154.69c-.13.35-.45.51-1.12.45a79.13,79.13,0,0,0-1.66,14.61,42,42,0,0,0,.54,7.56c.77-2,2.2-5.78,2.68-7l1,.35c-1.47,3.89-2.33,5.78-2.74,7.12a5.31,5.31,0,0,0-.25,1.47,2.81,2.81,0,0,0,.16.92l-1,.29a32.34,32.34,0,0,1-1.37-10.69,85.62,85.62,0,0,1,1.82-15.54Zm21.15,23c-1.12.06-2.27.1-3.38.1a42.6,42.6,0,0,1-6.29-.38c-3.57-.54-5.42-2.58-5.42-5,0-2.11,1.31-3.86,3.16-6l.86.57c-1.72,1.85-3,3.45-3,5.39s1.53,3.61,4.66,4.08a37.5,37.5,0,0,0,5.52.35c1.24,0,2.55,0,3.83-.13ZM266.57,159a97.31,97.31,0,0,0,14.17-1.25l.13,1.05A115.09,115.09,0,0,1,266.61,160Z"/><path class="cls-1" d="M316.56,178.62a31.67,31.67,0,0,0-10.82-5.55c0,.92,0,2.71,0,3.54,0,2.94-2.2,4.44-5.65,4.44-3.8,0-6.92-1.72-6.92-4.95,0-2.68,3-4.69,7.05-4.75a20.65,20.65,0,0,1,4.37.42c0-1.12-.19-2.07-.25-3-.26-4.08-.45-10.27-.45-15.51l2,.16c0,.32-.29.61-.86.67v6.45a80.88,80.88,0,0,0,11.2-1l.13,1.08a96.11,96.11,0,0,1-11.33.92c0,2.46.16,4.5.32,7.08.06,1,.22,2.23.29,3.35a35.47,35.47,0,0,1,11.52,5.77Zm-11.8-3.86c0-.67,0-1.37,0-1.91a15.78,15.78,0,0,0-4.05-.48c-4.34,0-6.48,1.79-6.48,3.73,0,2.62,2.84,3.92,5.81,3.92,3.19,0,4.75-1.28,4.75-3.38Z"/><path class="cls-1" d="M334,166.91a21.26,21.26,0,0,1,9.19-2.3c5.23,0,8.29,2.93,8.29,7.43,0,5.81-5.14,8.93-11.13,8.93-4.18,0-7-1.5-7-4.05,0-2.2,2.14-4,5-4,3.73,0,6.06,3.29,6.51,6.29,3.26-1.12,5.62-3.54,5.62-7.18,0-4-2.74-6.48-7.3-6.48-5.11,0-10.28,2.39-12.29,4.37-1.05,1-2.27,2.39-3.16,3.45l-.77-.77c3.25-3.54,13.14-13,17.52-17.13-2,.29-9,.51-13.43.64a.89.89,0,0,1-.57.48l-.22-1.5c4.5,0,12.22-.32,14.68-.67l.45-.22,1.12,1.21a1.64,1.64,0,0,1-.67.29c-2.68,2.26-9.41,8.74-11.8,11.13ZM340.27,180a14.37,14.37,0,0,0,3.54-.45c-.41-2.94-2.55-5.62-5.58-5.62-2.07,0-3.92,1.12-3.92,3C334.31,179.23,337.59,180,340.27,180Z"/><path class="cls-1" d="M17.23,209.13h-8v23.1H8.07v-23.1H0v-1H17.23Z"/><path class="cls-1" d="M43.22,208.14l-9,24.09h-1l-8-24.09h1.24l4.47,13.37c1.21,3.61,2.2,6.57,2.9,9.22h.06C34.55,228,35.66,225,37,221.5l5-13.37Z"/><path class="cls-1" d="M67.93,231.33a15.43,15.43,0,0,1-6.57,1.25c-5.52,0-11.2-3.48-11.2-12.28,0-7,4.31-12.54,12.09-12.54a12.12,12.12,0,0,1,5.52,1.05l-.45.93a10.85,10.85,0,0,0-5-1.08c-6.83,0-11,4.56-11,11.74,0,6.8,3.92,11.26,10.59,11.26a12.53,12.53,0,0,0,5.55-1.18Z"/><path class="cls-1" d="M100.6,232.23H99.49l-.73-11.74c-.29-4.21-.57-8.39-.54-10.78h-.1c-.89,2.52-1.85,5.2-3.32,8.9l-5.39,13.69h-.73L83.6,219c-1.47-3.92-2.49-6.67-3.22-9.25h-.1c-.06,2.78-.25,7-.57,11.13l-.8,11.39H77.76l1.75-24.09h1.18l5.62,14.77c1.15,3.13,2,5.42,2.74,7.66h.06c.64-2.14,1.5-4.21,2.78-7.53l5.81-14.9H99Z"/><path class="cls-1" d="M121.29,212.35l.64.22a.71.71,0,0,1-.16.26,40.55,40.55,0,0,1-3.35,13.94,25.13,25.13,0,0,1,4,3.54l-.61.8a24.45,24.45,0,0,0-3.8-3.45,17.25,17.25,0,0,1-6.64,7.15,4.14,4.14,0,0,0-.7-.83,16.25,16.25,0,0,0,6.54-6.92,41,41,0,0,0-5-3.16l-.45,1.63-.89-.48c.86-2.9,2-7.34,3-11.68h-3.7v-1h3.93c.57-2.49,1.12-4.91,1.53-7l1.44.22c0,.19-.19.29-.51.29-.41,1.88-.92,4.12-1.47,6.45h6Zm-6.41,1c-.8,3.35-1.66,6.8-2.43,9.64a48.59,48.59,0,0,1,5.17,3.16,37.69,37.69,0,0,0,3.13-12.79Zm24.66,6.51v1h-8.17v12.22c0,1-.29,1.37-1.08,1.56a29.29,29.29,0,0,1-5.2.16,6.21,6.21,0,0,0-.41-1c1.44,0,2.71.06,3.64.06,2,0,2.11,0,2.11-.77V220.83h-8.55v-1h8.55V214.1l.89.1a31,31,0,0,0,6-6.09h-14v-1h14.77l.22-.06.8.54a.66.66,0,0,1-.32.19,35.39,35.39,0,0,1-7.4,7.4v4.66Z"/><path class="cls-1" d="M152,210v3.86c0,3.57-.54,8.52-3.41,12.16a2,2,0,0,0-.73-.64c2.74-3.51,3.19-8.14,3.19-11.52V209h13.21a28.07,28.07,0,0,1-.45-3.61l1.56.06c0,.22-.19.32-.51.35.06,1.05.19,2.14.35,3.19h11.9v1H165.4a32.07,32.07,0,0,0,3.29,8.81,26.41,26.41,0,0,0,3.54-6.48l1.37.42c-.06.19-.29.29-.61.29a26.34,26.34,0,0,1-3.8,6.67c1.88,3,4,5,5.84,5,1,0,1.31-1.18,1.5-4.34a2.7,2.7,0,0,0,.89.48c-.26,3.64-.83,4.85-2.39,4.85-2.14,0-4.47-2-6.45-5.2a24.33,24.33,0,0,1-5.68,4.95,3.63,3.63,0,0,0-.73-.64,22.75,22.75,0,0,0,5.87-5.14,33.24,33.24,0,0,1-3.61-9.64Zm1.53,17.23c-.67,2.78-1.88,5.26-4.79,6.51l-.73-.57a8.1,8.1,0,0,0,4.66-6.16Zm-.22-13.56v-1h10.34v1Zm9.32,8.81h-7.37v1.31h-1v-7.62h8.33Zm-1-5.36h-6.41v4.4h6.41Zm-4.15,15.31c0,.73.32.89,2.23.89H167c1.56,0,1.79-.42,1.91-3.73a3.09,3.09,0,0,0,1,.42c-.16,3.51-.57,4.28-2.81,4.28h-7.21c-2.58,0-3.29-.25-3.29-1.88v-5.46l1.44.13c0,.16-.16.29-.48.32Zm7.21-3.19a21,21,0,0,0-6.16-3.89l.64-.67a19.87,19.87,0,0,1,6.19,3.8Zm4.44-23.87a15.73,15.73,0,0,1,4.82,2.33l-.57.83a16.19,16.19,0,0,0-4.82-2.42Zm7.4,28.27a22.6,22.6,0,0,0-6.22-6.25l.73-.54a22.25,22.25,0,0,1,6.25,6.22Z"/><path class="cls-1" d="M215.87,209.92H190.31v8.65c0,4.82-.35,11.58-3,16.4a2.82,2.82,0,0,0-.8-.57c2.62-4.69,2.87-11.14,2.87-15.83V209h12.41v-3.51l1.44.13c0,.16-.16.29-.48.32V209h13.15ZM211.66,224l.7.42a.79.79,0,0,1-.26.22,16.83,16.83,0,0,1-7.28,6.41,38.66,38.66,0,0,0,11.26,2.9,3.12,3.12,0,0,0-.57.86,40,40,0,0,1-11.71-3.29,43.05,43.05,0,0,1-12.25,3.22,3.29,3.29,0,0,0-.48-.86A42.18,42.18,0,0,0,202.82,231a17.1,17.1,0,0,1-6.48-5.55l.83-.38a16.32,16.32,0,0,0,6.64,5.49A16.29,16.29,0,0,0,210.7,225H192.26v-1h19.18Zm-2.33-2.87H197.75v-5.62h-5.81v-1h5.81V211.2l1.44.13c0,.16-.16.29-.48.32v2.9h9.67V211.2l1.44.13c0,.16-.16.29-.48.32v2.9h6.32v1h-6.32Zm-1-5.62H198.7v4.66h9.67Z"/><path class="cls-1" d="M252.79,217.58l.7.25a.45.45,0,0,1-.22.26,50.49,50.49,0,0,1-7.4,7.56l-.73-.51a44.15,44.15,0,0,0,6.57-6.57H239.46v0h.35c0,.16-.16.26-.48.32v14.26c0,.93-.29,1.31-1.08,1.5s-1.5.16-5.42.16a5,5,0,0,0-.41-1c1.31,0,2.46,0,3.35,0,2.55,0,2.62,0,2.62-.73V218.57H224.75v-1h18.6a50.83,50.83,0,0,0-11.26-5.84l.67-.8a56.85,56.85,0,0,1,6.89,3.06,40.78,40.78,0,0,0,8.1-5.65h-20v-1h20.77a1.09,1.09,0,0,0,.54-.1l.89.67a.46.46,0,0,1-.35.16,49.78,49.78,0,0,1-8.9,6.44,28.4,28.4,0,0,1,3.92,2.49l-.38.51h8.36Z"/><path class="cls-1" d="M267.68,218.67a24.56,24.56,0,0,0-5.58-3.32l.54-.7a21.27,21.27,0,0,1,5.58,3.19Zm-4.82,15a100.2,100.2,0,0,0,4.82-10.34l.73.58a99.12,99.12,0,0,1-4.5,9.89.67.67,0,0,1,.13.38.72.72,0,0,1-.06.25Zm6-23.48a22.64,22.64,0,0,0-5.17-3.7l.61-.67a22.52,22.52,0,0,1,5.17,3.57Zm5.27,18.12a.59.59,0,0,1-.57.26,21.54,21.54,0,0,1-4.91,6.29,4.91,4.91,0,0,0-.73-.67,19.07,19.07,0,0,0,4.82-6.35Zm-3.22-21.28H280v19.81h-9.09Zm1,1v5.3H279V208Zm0,6.25v5.3H279v-5.3Zm0,6.25v5.39H279v-5.39Zm9.09,13a39.07,39.07,0,0,0-4-5.2l.77-.45a40.14,40.14,0,0,1,4,5.07Zm2.33-24.73,1.44.13c0,.16-.16.29-.48.32v18h-1Zm6-3.38,1.44.13c0,.19-.16.29-.48.32v27.15c0,1-.38,1.37-1.08,1.56a26.34,26.34,0,0,1-4.85.19,7.75,7.75,0,0,0-.41-1c1,0,1.82,0,2.55,0,2.65,0,2.84,0,2.84-.8Z"/><path class="cls-1" d="M301.5,215.67a50.93,50.93,0,0,1,8.87,2.81l-.41,1a52.45,52.45,0,0,0-8.84-2.81Zm2.65,16.14c10.75-3.83,17.84-9.57,22-19.21a7,7,0,0,0,.89.57c-4.24,9.7-11.46,15.54-21.63,19.27a.67.67,0,0,1-.29.73Zm.64-24.09a51,51,0,0,1,8.78,3.09l-.42,1a51.35,51.35,0,0,0-8.71-3.1Z"/><path class="cls-1" d="M356.34,209.35a.4.4,0,0,1-.32.22,50.85,50.85,0,0,1-6.67,11.29,118,118,0,0,1,12.41,11.49l-.86.67a111.46,111.46,0,0,0-12.22-11.36,49,49,0,0,1-13,11.39,5.41,5.41,0,0,0-.73-.8c9.45-5.2,16.78-15.22,19.69-22.33H338.09v-1h17l.25-.13Z"/><path class="cls-1" d="M396.59,218H385.27l.48.13c0,.19-.26.32-.57.35-.83,6.44-3.1,11.84-10.05,15.16a5.3,5.3,0,0,0-.73-.8c6.86-3.19,8.93-8.2,9.76-14.84H371v-1h25.56Zm-3.09-9.06H373.91v-1H393.5Z"/><path class="cls-1" d="M430.29,232.86c-.45-1-1.05-2.11-1.79-3.35-6.41.64-18.76,1.28-23.77,1.56a.87.87,0,0,1-.54.61l-.51-1.6c1,0,2.14-.06,3.41-.13,2.2-6.29,5.49-16.14,7.4-22.72l1.66.48c-.13.29-.38.38-.83.38-1.91,6.19-4.88,15.41-7.15,21.79,6.32-.29,14.9-.86,19.75-1.31a65.75,65.75,0,0,0-6.61-8.84l.86-.54a62.31,62.31,0,0,1,9.13,13.27Z"/><path class="cls-1" d="M442.44,226.64a67.06,67.06,0,0,1,7.43,7.24l-.93.89a66.17,66.17,0,0,0-7.31-7.37Z"/><path class="cls-1" d="M54.73,262.7H48v20h-4.4V258.42H54.73Zm-.7-3.57H44.26V282h3V262H54Z"/><path class="cls-1" d="M82.16,284.33a15.43,15.43,0,0,1-6.57,1.25c-5.52,0-11.2-3.48-11.2-12.28,0-7,4.31-12.54,12.09-12.54A12.12,12.12,0,0,1,82,261.81l-.45.93a10.84,10.84,0,0,0-5-1.08c-6.83,0-11,4.56-11,11.74,0,6.8,3.92,11.26,10.59,11.26a12.52,12.52,0,0,0,5.55-1.18Z"/><path class="cls-1" d="M100.32,273.55c2,.61,3.22,2.46,3.8,5.2.83,3.92,1.28,5.52,1.79,6.48h-1.18a32.47,32.47,0,0,1-1.56-5.93c-.77-3.54-2.3-5.39-5.62-5.39H93.46v11.33H92.35V261.46a25.08,25.08,0,0,1,4.88-.51c3.06,0,4.95.67,6.25,2a6,6,0,0,1,1.63,4.21c0,3.25-1.88,5.3-4.79,6.29Zm-2.9-.57c3.86,0,6.51-2.23,6.51-5.55,0-4.28-3.35-5.55-6.86-5.55a15.1,15.1,0,0,0-3.61.42V273Z"/><path class="cls-1" d="M128.33,285.23h-12V261.14h11.42v1h-10.3V272h9.73v1h-9.73v11.23h10.88Z"/><path class="cls-1" d="M156.27,285.23h-1.12l-3.25-8.77H142l-3.19,8.77h-1.15l8.93-24.09h.83Zm-4.72-9.73-3.19-8.58c-.61-1.69-1-2.87-1.34-4.24H147c-.48,1.66-.8,2.65-1.34,4.18l-3.26,8.65Z"/><path class="cls-1" d="M177.68,262.13h-8v23.1h-1.12v-23.1h-8.07v-1h17.23Z"/><path class="cls-1" d="M187.06,261.14h1.12v24.09h-1.12Z"/><path class="cls-1" d="M215.85,261.14l-9,24.09h-1l-8-24.09H199l4.47,13.37c1.21,3.61,2.2,6.57,2.9,9.22h.06c.73-2.68,1.85-5.78,3.16-9.22l5-13.37Z"/><path class="cls-1" d="M237.25,285.23h-12V261.14h11.42v1h-10.3V272h9.73v1h-9.73v11.23h10.88Z"/><path class="cls-1" d="M270.68,272.4a6.44,6.44,0,0,1,3.45,10.66c-1.56,1.69-4.12,2.33-7.34,2.33-1.69,0-3-.13-3.89-.19V261.49a19.13,19.13,0,0,1,4.5-.54c6.06,0,7.47,3.06,7.47,6a5.85,5.85,0,0,1-4.18,5.36Zm-2.87-.48c3.57,0,5.87-2.23,5.87-5v0c0-3.61-2.74-5-6.51-5a13.35,13.35,0,0,0-3.16.32v9.7ZM264,284.2a12.19,12.19,0,0,0,3.09.25c3.86,0,7.53-1.47,7.53-5.81,0-4.15-3.61-5.81-7.4-5.81H264Z"/><path class="cls-1" d="M294.69,273.55c2,.61,3.22,2.46,3.8,5.2.83,3.92,1.28,5.52,1.79,6.48h-1.18a32.47,32.47,0,0,1-1.56-5.93c-.77-3.54-2.3-5.39-5.62-5.39h-4.08v11.33h-1.12V261.46a25.08,25.08,0,0,1,4.88-.51c3.06,0,4.95.67,6.25,2a6,6,0,0,1,1.63,4.21c0,3.25-1.88,5.3-4.79,6.29Zm-2.9-.57c3.86,0,6.51-2.23,6.51-5.55,0-4.28-3.35-5.55-6.86-5.55a15.1,15.1,0,0,0-3.61.42V273Z"/><path class="cls-1" d="M328.09,285.23H327l-3.25-8.77h-9.89l-3.19,8.77h-1.15l8.93-24.09h.83Zm-4.72-9.73-3.19-8.58c-.61-1.69-1-2.87-1.34-4.24h-.06c-.48,1.66-.8,2.65-1.34,4.18l-3.26,8.65Z"/><path class="cls-1" d="M338.15,261.14h1.12v24.09h-1.12Z"/><path class="cls-1" d="M367.85,285.23h-1.12L357,270.48c-1.82-2.81-3.41-5.17-4.66-7.59l-.1,0c.19,2.52.19,4,.19,9.35v13h-1.12V261.14h1.05l10,15.06a81.09,81.09,0,0,1,4.5,7.4l.06-.06c-.22-3.22-.22-5.84-.22-9.64V261.14h1.12Z"/><path class="cls-1" d="M379.13,283.5h6.76v-20h4.4v24.25H379.13Zm.7,3.57h9.76V264.23h-3v20h-6.76Z"/><path class="cls-1" d="M411,283.31a4.47,4.47,0,1,1-4.47-4.47A4.48,4.48,0,0,1,411,283.31Zm-1,0a3.51,3.51,0,1,0-3.51,3.51A3.5,3.5,0,0,0,410.08,283.31Z"/><line class="cls-2" x1="115.48" y1="22.78" x2="133.66" y2="22.78"/><polyline class="cls-2" points="122.8 0.17 144.53 22.77 122.8 45.38"/></g></g></svg>