<svg xmlns="http://www.w3.org/2000/svg" viewBox="0 0 127.04 264.33"><defs><style>.cls-1{fill:#fff;}.cls-2{fill:none;stroke:#fff;stroke-miterlimit:10;stroke-width:0.25px;}</style></defs><title>project_small</title><g id="Layer_2" data-name="Layer 2"><g id="レイヤー_1" data-name="レイヤー 1"><path class="cls-1" d="M45.71,11.06v-10h4A3.33,3.33,0,0,1,52,1.75a2.55,2.55,0,0,1,.8,2A2.73,2.73,0,0,1,52.56,5a2.38,2.38,0,0,1-.66.85,2.87,2.87,0,0,1-1,.52,4.45,4.45,0,0,1-1.28.17H46v4.55Zm4-4.83a3.56,3.56,0,0,0,1.09-.16,2.49,2.49,0,0,0,.88-.48,2.21,2.21,0,0,0,.58-.76,2.41,2.41,0,0,0,.21-1A2.36,2.36,0,0,0,51.84,2a3,3,0,0,0-2.08-.63H46V6.23Z"/><path class="cls-1" d="M55.72,11.06V3.87H56V5.65h0a2.8,2.8,0,0,1,.31-.76,2.16,2.16,0,0,1,.56-.62,2.73,2.73,0,0,1,.83-.42,3.46,3.46,0,0,1,1.13-.14V4a2.71,2.71,0,0,0-1.28.2,2.42,2.42,0,0,0-.89.67,2.83,2.83,0,0,0-.52,1A4,4,0,0,0,56,7v4.07Z"/><path class="cls-1" d="M61.14,6a3.62,3.62,0,0,1,.62-1.2,3.16,3.16,0,0,1,1-.83,3.24,3.24,0,0,1,2.79,0,3.17,3.17,0,0,1,1,.83A3.6,3.6,0,0,1,67.2,6a4.91,4.91,0,0,1,0,2.84,3.6,3.6,0,0,1-.62,1.2,3.1,3.1,0,0,1-1,.83,3,3,0,0,1-1.4.31,3,3,0,0,1-1.39-.31,3.09,3.09,0,0,1-1-.83,3.62,3.62,0,0,1-.62-1.2,4.91,4.91,0,0,1,0-2.84Zm.26,2.74A3.34,3.34,0,0,0,62,9.89a2.81,2.81,0,0,0,.93.77,3,3,0,0,0,2.55,0,2.81,2.81,0,0,0,.93-.77,3.34,3.34,0,0,0,.57-1.11,4.55,4.55,0,0,0,.19-1.32,4.5,4.5,0,0,0-.19-1.3,3.35,3.35,0,0,0-.57-1.11,2.9,2.9,0,0,0-.93-.78,2.91,2.91,0,0,0-2.55,0,2.89,2.89,0,0,0-.93.78,3.35,3.35,0,0,0-.57,1.11,4.5,4.5,0,0,0-.19,1.3A4.55,4.55,0,0,0,61.4,8.78Z"/><path class="cls-1" d="M70.7,12.88a.89.89,0,0,1-.34.43,1.21,1.21,0,0,1-.55.18,7,7,0,0,1-.73,0v-.28q.39,0,.67,0a.92.92,0,0,0,.45-.15.68.68,0,0,0,.25-.37,2.53,2.53,0,0,0,.08-.7V3.87h.28V12.1A2.2,2.2,0,0,1,70.7,12.88Zm-.17-10.4V1.07h.28V2.48Z"/><path class="cls-1" d="M74.35,8.87a3.19,3.19,0,0,0,.5,1.08,2.36,2.36,0,0,0,.87.73A2.88,2.88,0,0,0,77,11a2.93,2.93,0,0,0,1.88-.6,2.69,2.69,0,0,0,.93-1.79h.28a2.87,2.87,0,0,1-1,2,3.15,3.15,0,0,1-2.07.69A3.23,3.23,0,0,1,75.61,11a2.53,2.53,0,0,1-1-.79A3.49,3.49,0,0,1,74.07,9a5.82,5.82,0,0,1-.18-1.49,4.46,4.46,0,0,1,.27-1.6,3.71,3.71,0,0,1,.7-1.18A2.95,2.95,0,0,1,77,3.7,3.06,3.06,0,0,1,78.49,4a2.86,2.86,0,0,1,1,.85A3.58,3.58,0,0,1,80,6.09a5,5,0,0,1,.15,1.43h-6A5.86,5.86,0,0,0,74.35,8.87ZM79.73,6a3.15,3.15,0,0,0-.54-1,2.56,2.56,0,0,0-.89-.71A2.79,2.79,0,0,0,77.07,4,2.71,2.71,0,0,0,76,4.2a2.61,2.61,0,0,0-.9.65,3.36,3.36,0,0,0-.62,1,4.32,4.32,0,0,0-.28,1.36h5.74A4.27,4.27,0,0,0,79.73,6Z"/><path class="cls-1" d="M88.77,9.7a2.61,2.61,0,0,1-.62.82,2.76,2.76,0,0,1-.9.52,3.35,3.35,0,0,1-1.13.18,3.1,3.1,0,0,1-1.37-.29,2.94,2.94,0,0,1-1-.78A3.42,3.42,0,0,1,83.15,9a4.52,4.52,0,0,1-.21-1.39,5.4,5.4,0,0,1,.2-1.49,3.71,3.71,0,0,1,.62-1.25,3,3,0,0,1,1-.86A3.26,3.26,0,0,1,86.3,3.7a3,3,0,0,1,1,.15,2.61,2.61,0,0,1,.83.45A2.5,2.5,0,0,1,88.7,5a2.76,2.76,0,0,1,.31,1h-.28a2.64,2.64,0,0,0-.31-.92,2.3,2.3,0,0,0-.55-.64,2.2,2.2,0,0,0-.73-.38A2.87,2.87,0,0,0,86.3,4a3,3,0,0,0-1.45.33,2.72,2.72,0,0,0-1,.85,3.62,3.62,0,0,0-.52,1.18,5.32,5.32,0,0,0-.16,1.28,4.18,4.18,0,0,0,.19,1.26A3.28,3.28,0,0,0,84,9.94a2.63,2.63,0,0,0,.91.74,2.79,2.79,0,0,0,1.26.27,3,3,0,0,0,1-.16,2.45,2.45,0,0,0,1.67-2.18h.28A3.1,3.1,0,0,1,88.77,9.7Z"/><path class="cls-1" d="M93,9.66a1.73,1.73,0,0,0,.09.63.81.81,0,0,0,.23.34.6.6,0,0,0,.31.13l.34,0h.38a.79.79,0,0,0,.24,0V11l-.25,0H93.9a1.26,1.26,0,0,1-.83-.29,1.33,1.33,0,0,1-.34-1.06V4.15H91.41V3.87h1.32V1.6H93V3.87h1.62v.28H93Z"/><path class="cls-1" d="M9.78,103.08v4.66H9.55v-.4H4.9v-.22H9.55V103.3H5v-.22Z"/><path class="cls-1" d="M18.24,104.33a.1.1,0,0,1-.06,0,4.76,4.76,0,0,1-3.86,3.7,1.44,1.44,0,0,0-.12-.2,4.54,4.54,0,0,0,3.72-3.4H13v-.22h5l0,0Zm-.57-1.67h-4v-.22h4Z"/><path class="cls-1" d="M21.14,104.86H27v.23h-5.6a.27.27,0,0,1-.2.13Z"/><path class="cls-1" d="M29.75,104.16a11.23,11.23,0,0,1,1.95.62l-.09.22a11.52,11.52,0,0,0-1.94-.62Zm.58,3.54a7.59,7.59,0,0,0,4.83-4.22l.19.13a7.71,7.71,0,0,1-4.74,4.22.15.15,0,0,1-.06.16Zm.14-5.29a11.13,11.13,0,0,1,1.93.68l-.09.21a11.25,11.25,0,0,0-1.91-.68Zm3.34-.24a6,6,0,0,1,1,1l-.17.13a6.05,6.05,0,0,0-1-1Zm.91-.46a6,6,0,0,1,1,1l-.17.13a6.31,6.31,0,0,0-.95-1Z"/><path class="cls-1" d="M42.91,107.35v.21H38.15v-.21h2.94c.12-.76.34-2.36.41-3.14H38.71V104h2.91l.2.11a.08.08,0,0,1-.07,0c-.09.78-.32,2.41-.45,3.21Z"/><path class="cls-1" d="M48.12,105.1a.6.6,0,1,1-.6-.6A.6.6,0,0,1,48.12,105.1Z"/><path class="cls-1" d="M57.12,103.48l.22.15s0,0-.09.06A6.55,6.55,0,0,1,55.7,106l-.17-.14a5.77,5.77,0,0,0,1.43-2l-3.21.84v2c0,.78.55,1,1.13,1h1.18c.29,0,.74,0,1-.06v.23c-.27,0-.76,0-1,0h-1.2a1.19,1.19,0,0,1-1.35-1.25v-1.92l-1.91.49-.06-.22,2-.5v-2.21l.38,0c0,.08-.07.11-.15.11v2l3.3-.86Zm-.45-.23a6.35,6.35,0,0,0-.92-1.05l.15-.14a6.37,6.37,0,0,1,.92,1.06Zm.95-.38a5.82,5.82,0,0,0-.92-1.05l.15-.14a5.39,5.39,0,0,1,.93,1.06Z"/><path class="cls-1" d="M65.21,103v4.55H65v-.47H60.7v.49h-.22V103ZM65,106.91v-3.63H60.7v3.63Z"/><path class="cls-1" d="M68.3,102.89c.55,0,4.89-.37,5.74-.34v.24h-.29a2.1,2.1,0,0,0-1.11.31c-1.24.71-2.3,2-2.3,2.93s.67,1.77,2.55,2l-.09.22c-2-.32-2.7-1-2.7-2.26,0-1.08,1.1-2.35,2.54-3.19-.7,0-3.08.21-4.17.31a.21.21,0,0,1-.14.1Zm4.44,1.18a5.43,5.43,0,0,1,1,1l-.16.13a4.87,4.87,0,0,0-1-1Zm.7-.61a5.1,5.1,0,0,1,1,1l-.16.13a5.12,5.12,0,0,0-1-1Z"/><path class="cls-1" d="M77.44,107.94a6.24,6.24,0,0,1-.32-2.33,18.12,18.12,0,0,1,.4-3.34l.39.09c0,.06-.07.11-.18.11a15.13,15.13,0,0,0-.39,3.14,7.12,7.12,0,0,0,.09,1.46c.19-.52.52-1.27.69-1.64l.22.09a11.08,11.08,0,0,0-.78,2,.73.73,0,0,0,.1.34Zm2.84-4,.79,0c0-.64,0-1.2-.06-1.72l.42,0c0,.07-.08.12-.18.14,0,.46,0,.95,0,1.54a5.85,5.85,0,0,0,1.49-.31l.06.23a6.25,6.25,0,0,1-1.53.29c0,.88.08,1.82.09,2.26a5.47,5.47,0,0,1,1.51,1l-.15.19a4.69,4.69,0,0,0-1.36-.9c0,.73,0,1.42-1.05,1.42-.79,0-1.35-.34-1.35-.93s.74-1,1.34-1a2.88,2.88,0,0,1,.83.13c0-.49-.07-1.35-.11-2.16l-.79,0H79.15v-.22Zm.91,2.59a2.66,2.66,0,0,0-.84-.15c-.48,0-1.12.18-1.12.72s.5.71,1.13.71.84-.28.84-1Z"/><path class="cls-1" d="M85.62,106.54a14.69,14.69,0,0,1,1.63,1.59l-.2.2a14.51,14.51,0,0,0-1.6-1.62Z"/><path class="cls-1" d="M91,102.25h5.8v6.09H96.6V108H91.22v.36H91Zm.21,5.51H96.6v-5.3H91.22ZM94,106.64h2v.21H91.89v-.21h1.88v-1.57H92.23v-.21h1.53V103.5H92v-.21h3.82v.21H94v1.36h1.67v.21H94Zm1.52-.27a5.55,5.55,0,0,0-.85-.9l.15-.1a5,5,0,0,1,.86.88Z"/><path class="cls-1" d="M101.21,102.18l.15.11a.08.08,0,0,1-.06,0c-.15.5-.39,1.2-.62,1.8a2.64,2.64,0,0,1,.66,1.62c0,.88-.42.88-.92.85a.58.58,0,0,0-.08-.22h.33c.22,0,.46,0,.46-.64a2.63,2.63,0,0,0-.68-1.59c.23-.6.44-1.25.59-1.75H100v5.93h-.21V102.2h1.44Zm1.08.88a4.92,4.92,0,0,1,.66.48,4.94,4.94,0,0,0,.3-.82h-1.06a4.53,4.53,0,0,1-.84,1.18.9.9,0,0,0-.18-.11,4.68,4.68,0,0,0,1.13-1.91l.31.09s-.06.06-.13.06c-.06.16-.13.32-.2.48h1.11l.14.08a.16.16,0,0,1,0,.06,4.81,4.81,0,0,1-1.92,2.86.81.81,0,0,0-.15-.16,3.54,3.54,0,0,0,1-.93,4.55,4.55,0,0,0-.69-.6l.15-.13a4.54,4.54,0,0,1,.67.56,5.74,5.74,0,0,0,.3-.5,4.11,4.11,0,0,0-.7-.55Zm.23,3.66a4.55,4.55,0,0,1-1.06,1.35,1,1,0,0,0-.15-.14,4,4,0,0,0,1.05-1.37l.29.1S102.59,106.72,102.52,106.72Zm3.06-.55h-1.81V108c0,.16,0,.23-.18.27a4.51,4.51,0,0,1-.93,0,1,1,0,0,0-.08-.2h.56c.39,0,.43,0,.43-.12v-1.85h-1.73V106h3.75Zm-3.08-1.06v-.21h2.37v.21Zm3.22-2.62.16.11s0,0-.06,0a6.53,6.53,0,0,1-1,1.7,3.17,3.17,0,0,0,1.14.91.71.71,0,0,0-.15.18,4.77,4.77,0,0,1-2.22-3.35l.18,0a5.94,5.94,0,0,0,.92,2.15,5.37,5.37,0,0,0,.84-1.47h-1.28v-.21h1.44Zm-.09,5.5a5.79,5.79,0,0,0-1-1.26l.16-.11a5.61,5.61,0,0,1,1.05,1.24Z"/><path class="cls-1" d="M114.59,104.28h-2.88a5.26,5.26,0,0,0,3,3.85,1.05,1.05,0,0,0-.17.19,5.59,5.59,0,0,1-3-4h0a5.05,5.05,0,0,1-3,4,1.11,1.11,0,0,0-.15-.16,4.83,4.83,0,0,0,2.95-3.89h-2.86v-.21h2.89a14.05,14.05,0,0,0,.13-2.17h.34c0,.06,0,.08-.13.1a14.44,14.44,0,0,1-.13,2.06h3.1Z"/><path class="cls-1" d="M123.32,106.1v.21h-3V108a.29.29,0,0,1-.25.34,7.24,7.24,0,0,1-1.25,0,1.27,1.27,0,0,0-.11-.21h.8c.56,0,.6,0,.6-.17v-1.68h-3v-.21h3v-.7l.23,0a6.41,6.41,0,0,0,1.44-.84h-3.56v-.21H122l.18.13a.1.1,0,0,1-.07,0,7.2,7.2,0,0,1-1.86,1.11v.48Zm-5.83-2.76v1.23h-.21v-1.44h4.33a9,9,0,0,0,.94-1.2l.25.15s-.07,0-.11,0a11.22,11.22,0,0,1-.83,1h1.3v1.44H123v-1.23Zm1-.21a5.36,5.36,0,0,0-.72-1.05L118,102a4.71,4.71,0,0,1,.72,1Zm1.32-1.27a4.65,4.65,0,0,1,.61,1.16l-.18.08a4.77,4.77,0,0,0-.6-1.18Z"/><path class="cls-1" d="M9.75,115.36a.38.38,0,0,1-.07.08,7.35,7.35,0,0,1-3.84,4.76.71.71,0,0,0-.15-.17,7.07,7.07,0,0,0,3.73-4.52H6.6A7.15,7.15,0,0,1,5,117.33l-.18-.15a7.4,7.4,0,0,0,2.26-3.09l.34.13c0,.07-.11.08-.18.07a9.41,9.41,0,0,1-.5,1H9.53l0,0ZM9,113.85a5.12,5.12,0,0,1,.95,1.06l-.17.13a4.86,4.86,0,0,0-.93-1Zm1-.22a5.12,5.12,0,0,1,.95,1.06l-.17.13a4.84,4.84,0,0,0-.93-1Z"/><path class="cls-1" d="M18.6,115v4.55h-.22v-.47H14.08v.49h-.22V115Zm-.22,3.86v-3.63H14.08v3.63Z"/><path class="cls-1" d="M22.35,116.86h5.85v.23h-5.6a.27.27,0,0,1-.2.13Z"/><path class="cls-1" d="M33.09,115.08s-.07.08-.17.09a10.32,10.32,0,0,1-1.72,4.51,1.39,1.39,0,0,0-.2-.11,10,10,0,0,0,1.7-4.57Zm4,4.57a21.26,21.26,0,0,0-2-4.57l.19-.1a20.69,20.69,0,0,1,2,4.59Zm-1.31-5.48a5.38,5.38,0,0,1,.92,1.07l-.16.13a5.69,5.69,0,0,0-.92-1.06Zm.89-.44a5.37,5.37,0,0,1,.92,1.07l-.16.13a5.63,5.63,0,0,0-.92-1.06Z"/><path class="cls-1" d="M42,115.18c0,.06-.07.09-.15.1-.06,1.79-.18,3.57-1.34,4.79a.75.75,0,0,0-.17-.13c1.11-1.17,1.24-2.88,1.28-4.82Zm1.82,4.31a5,5,0,0,0,2.68-3,.85.85,0,0,0,.19.13,5.22,5.22,0,0,1-2.89,3.14.31.31,0,0,1-.09.12l-.17-.25.06-.08v-5.26l.35,0a.13.13,0,0,1-.13.1Z"/><path class="cls-1" d="M51.83,117.1a.6.6,0,1,1-.6-.6A.6.6,0,0,1,51.83,117.1Z"/><path class="cls-1" d="M61.23,115.08v4.66H61v-.4H56.36v-.22H61V115.3H56.44v-.22Z"/><path class="cls-1" d="M65.33,118.73a19.45,19.45,0,0,1,4.5,1l-.08.22a18.82,18.82,0,0,0-4.45-1Zm.58-2.2a23.45,23.45,0,0,1,3.41.58l-.07.22a19.94,19.94,0,0,0-3.39-.58Zm.06-2.23a18.94,18.94,0,0,1,3.66.73l-.08.22a18,18,0,0,0-3.63-.73Z"/><path class="cls-1" d="M78.71,119.35v.21H73.95v-.21h2.94c.12-.76.34-2.36.41-3.14H74.51V116h2.91l.2.11a.08.08,0,0,1-.07,0c-.09.78-.32,2.41-.45,3.21Z"/><path class="cls-1" d="M88.21,119.1v.22H82.48v-.22Zm-.67-4v.22H83.23v-.22Z"/><path class="cls-1" d="M96.91,115.84v.22H95a.15.15,0,0,1-.12.08,4.93,4.93,0,0,1-2.4,4,1.37,1.37,0,0,0-.19-.15,4.6,4.6,0,0,0,2.38-3.93H92.44a6,6,0,0,1-1.17,1.52.64.64,0,0,0-.19-.13A7.39,7.39,0,0,0,93,114.11l.39.1a.17.17,0,0,1-.18.09,11.15,11.15,0,0,1-.68,1.53Z"/><path class="cls-1" d="M100.06,116.86h5.85v.23h-5.6a.27.27,0,0,1-.2.13Z"/><path class="cls-1" d="M109.33,116.13a11.19,11.19,0,0,1,1.95.62l-.09.22a11.56,11.56,0,0,0-1.94-.62Zm.58,3.54a7.51,7.51,0,0,0,4.83-4.22,1.51,1.51,0,0,0,.2.13,7.65,7.65,0,0,1-4.75,4.23.15.15,0,0,1-.06.16Zm.14-5.29a11.17,11.17,0,0,1,1.93.68l-.09.21a11.25,11.25,0,0,0-1.91-.68Z"/><path class="cls-1" d="M122.36,115.9v4.22h-.22v-.32h-3.26v-.21h3.26V117.9h-3v-.21h3v-1.58h-3.08v-.21Z"/><path class="cls-1" d="M5,126.71a8.16,8.16,0,0,1,2.11,1l-.13.19a8.32,8.32,0,0,0-2.08-1Zm.12,4.94a7.71,7.71,0,0,0,5.11-4.16,1,1,0,0,0,.2.12,8,8,0,0,1-5,4.19.24.24,0,0,1-.08.15Z"/><path class="cls-1" d="M15.28,129.1a.6.6,0,1,1-.6-.6A.6.6,0,0,1,15.28,129.1Z"/><path class="cls-1" d="M24.54,127.5l.22.15s0,0-.09.06A6.55,6.55,0,0,1,23.11,130l-.17-.14a5.76,5.76,0,0,0,1.43-2l-3.21.84v2c0,.78.55,1,1.13,1h1.18c.29,0,.74,0,1-.06v.23c-.27,0-.76,0-1,0h-1.2a1.2,1.2,0,0,1-1.35-1.25V128.7l-1.91.49L19,129l2-.5v-2.21l.38,0c0,.08-.07.1-.15.11v2l3.3-.86Z"/><path class="cls-1" d="M27.91,126.71a8.16,8.16,0,0,1,2.11,1l-.13.19a8.32,8.32,0,0,0-2.08-1Zm.12,4.94a7.71,7.71,0,0,0,5.11-4.16,1,1,0,0,0,.2.12,8,8,0,0,1-5,4.19.24.24,0,0,1-.08.15Z"/><path class="cls-1" d="M41,127.22a.08.08,0,0,1-.06,0,8.73,8.73,0,0,1-1.07,2.4,11.65,11.65,0,0,1,1,.64l-.14.19a9.36,9.36,0,0,0-1-.64,6.78,6.78,0,0,1-2.65,2.3.61.61,0,0,0-.17-.16,6.8,6.8,0,0,0,2.61-2.26,12.31,12.31,0,0,0-1.8-.82l.11-.2a13.32,13.32,0,0,1,1.81.83,8,8,0,0,0,1-2.19H37.93a7.34,7.34,0,0,1-1.7,2.05l-.17-.15A8,8,0,0,0,38.33,126l.34.1c0,.06-.08.08-.17.07-.11.27-.29.67-.45,1h2.65l.06,0Z"/><path class="cls-1" d="M44.08,128.86h5.85v.23h-5.6a.27.27,0,0,1-.2.13Z"/><path class="cls-1" d="M57.42,128.16h-.06a.27.27,0,0,1-.13,0c-2.06.64-4.16,1.67-4.16,2.74,0,.78.89,1,2.15,1a19.74,19.74,0,0,0,2.45-.14V132a21.3,21.3,0,0,1-2.47.12c-1.4,0-2.38-.31-2.38-1.23,0-.76.81-1.44,1.95-2a6.92,6.92,0,0,1-.31-2.84l.44,0c0,.08-.08.14-.21.15a5.81,5.81,0,0,0,.29,2.54,18.55,18.55,0,0,1,2.33-.9Z"/><path class="cls-1" d="M65.36,129.79h1.8V130H60.73v-.21h1.78v-2.11H61.09v-.21h1.42V126l.32,0s0,.06-.11.07v1.41h2.43V126l.32,0s0,.06-.11.07v1.41h1.5v.21h-1.5Zm-2.19.85s-.06,0-.13,0a8.5,8.5,0,0,1-2,1.65,1.08,1.08,0,0,0-.15-.16,6.66,6.66,0,0,0,2-1.65Zm-.46-3v2.11h2.43v-2.11Zm4.12,4.65a21.9,21.9,0,0,0-2.07-1.67l.15-.13A24.12,24.12,0,0,1,67,132.17Z"/><path class="cls-1" d="M75.83,126.29v5.66c0,.22-.08.31-.24.35a6,6,0,0,1-1.12,0,1.1,1.1,0,0,0-.1-.2H75c.62,0,.65,0,.65-.18V126.5H70.29v5.85h-.21v-6.06Zm-1,1.2v.21H71.12v-.21Zm-.46,1.17v2.14H71.72v.57h-.21v-2.72Zm-.21.21H71.72v1.72h2.42Z"/><path class="cls-1" d="M78.9,126.89c.55,0,4.89-.37,5.74-.34v.24h-.29a2.1,2.1,0,0,0-1.11.31c-1.24.71-2.3,2-2.3,2.93s.67,1.77,2.55,2l-.09.22c-2-.32-2.7-1-2.7-2.26,0-1.08,1.1-2.35,2.54-3.19-.7,0-3.08.21-4.17.31a.21.21,0,0,1-.14.1Zm4.44,1.18a5.43,5.43,0,0,1,1,1l-.16.13a4.87,4.87,0,0,0-1-1Zm.7-.61a5.1,5.1,0,0,1,1,1l-.16.13a5.12,5.12,0,0,0-1-1Z"/><path class="cls-1" d="M87.76,130.54a14.69,14.69,0,0,1,1.63,1.59l-.2.2a14.51,14.51,0,0,0-1.6-1.62Z"/><path class="cls-1" d="M97,131.57a3.39,3.39,0,0,1-1.44.27,2.41,2.41,0,0,1-2.46-2.7,2.55,2.55,0,0,1,2.66-2.75,2.66,2.66,0,0,1,1.21.23l-.1.2a2.38,2.38,0,0,0-1.09-.24,2.32,2.32,0,0,0-2.42,2.58,2.23,2.23,0,0,0,2.33,2.47,2.75,2.75,0,0,0,1.22-.26Z"/><path class="cls-1" d="M104.83,131.76h-.25l-.16-2.58c-.06-.92-.13-1.84-.12-2.37h0c-.2.55-.41,1.14-.73,2l-1.18,3h-.16l-1.11-2.93c-.32-.86-.55-1.46-.71-2h0c0,.61-.06,1.53-.13,2.44l-.17,2.5h-.25l.39-5.29h.26l1.23,3.24c.25.69.44,1.19.6,1.68h0c.14-.47.33-.92.61-1.65l1.27-3.27h.28Z"/><path class="cls-1" d="M109.56,128.14a6.64,6.64,0,0,1,.88,1.39l-.2.11a3.49,3.49,0,0,0-.21-.44l-.9,0v3.09h-.21v-3.08l-1.15,0s0,.07-.08.08l-.1-.3h.48c.18-.22.39-.49.59-.78a6.8,6.8,0,0,0-1-1.09l.14-.11.27.25a11.7,11.7,0,0,0,.76-1.46l.28.13s-.06,0-.12,0a12.29,12.29,0,0,1-.79,1.41,5.66,5.66,0,0,1,.54.64,16.17,16.17,0,0,0,.88-1.44l.29.14a.15.15,0,0,1-.13,0,21,21,0,0,1-1.5,2.21l1.63,0a6.81,6.81,0,0,0-.56-.81Zm-1.93,3.45a6.24,6.24,0,0,0,.52-1.74l.31.08s0,.06-.13.06a6.26,6.26,0,0,1-.52,1.69Zm2.17-1.76a5.22,5.22,0,0,1,.49,1.34l-.2.07a5.49,5.49,0,0,0-.48-1.36Zm1.12.61a2.47,2.47,0,0,1-.7,1.5l-.15-.12a2.3,2.3,0,0,0,.67-1.42Zm.75-4.47s-.07.06-.13.06a4.92,4.92,0,0,1-1.22,1.83,1,1,0,0,0-.17-.12,4.67,4.67,0,0,0,1.22-1.86Zm-1.12,2.91H111a13.76,13.76,0,0,0,.75-1.81l.31.11a.14.14,0,0,1-.13.06c-.17.46-.46,1.16-.71,1.63l2-.09a9.5,9.5,0,0,0-.69-.8l.15-.1a8,8,0,0,1,1.13,1.39l-.16.13a4.82,4.82,0,0,0-.31-.46l-2.6.15a.1.1,0,0,1-.08.08Zm1,2.93c0,.15,0,.18.29.18h.88c.21,0,.25-.1.27-.82a.55.55,0,0,0,.2.08c0,.75-.1.92-.43.92h-.9c-.39,0-.5-.06-.5-.37v-1.67l.32,0s0,.06-.11.07Zm1-1.51a4,4,0,0,0-1.18-.86l.14-.13a3.85,3.85,0,0,1,1.18.84Zm.29-4.44a4,4,0,0,0,1.39,1.77.71.71,0,0,0-.16.16A4.55,4.55,0,0,1,112.7,126ZM114,132a5.24,5.24,0,0,0-.87-1.6l.17-.09a5.24,5.24,0,0,1,.88,1.58Z"/><path class="cls-1" d="M120.06,125.91s-.06.06-.11.08a9.75,9.75,0,0,0,3.15,2.59.87.87,0,0,0-.14.17,10.11,10.11,0,0,1-3.17-2.63,9.44,9.44,0,0,1-3.1,2.7l-.13-.16a8.56,8.56,0,0,0,3.12-2.78Zm-2.36,6.42v-2.79h4.2v2.79h-.21V132h-3.77v.33Zm4-2.58h-3.77v2h3.77ZM118,128.25h3.63v.21H118Z"/><path class="cls-1" d="M6.6,143.22H5v.67H4.84V141a5.17,5.17,0,0,1-.53,1l-.16-.13a8.91,8.91,0,0,0,1.09-3.4h-1v-.21H6.9v.21H5.45A13.86,13.86,0,0,1,5,140.39H6.6Zm-.21-2.63H5V143H6.39Zm4.29.31v.21h-1v3.21H9.47v-3.21H8.07a3.84,3.84,0,0,1-1.48,3.22.89.89,0,0,0-.17-.14,3.68,3.68,0,0,0,1.44-3.08h-1v-.21h1v-2.43H7.1v-.21h3.41v.21H9.68v2.43Zm-2.59,0H9.47v-2.43H8.08Z"/><path class="cls-1" d="M18.81,143.88c0,.15,0,.18.27.18h.79c.22,0,.26-.13.28-1.11a.76.76,0,0,0,.2.1c0,1-.08,1.23-.47,1.23h-.81c-.36,0-.47-.06-.47-.4v-2H16.75a3.09,3.09,0,0,1-2.61,2.42.75.75,0,0,0-.13-.18,3,3,0,0,0,2.51-2.24H14.44v-.21h2.14a8.61,8.61,0,0,0,.15-1.11l.33,0s0,.07-.12.08c0,.35-.08.68-.14,1h2Zm-2.42-4.83s0,.06-.11.07a2.33,2.33,0,0,1-2,2,.72.72,0,0,0-.13-.17,2.18,2.18,0,0,0,2-2Zm-1.88-.13v.91H14.3v-1.12H17.1v-.84l.32,0s0,.06-.11.07v.74h2.84v1.12h-.21v-.91Zm3.37.06.32,0s0,.06-.1.07v1.46c0,.14,0,.18.38.18h1.25c.22,0,.26,0,.28-.44a.75.75,0,0,0,.2.08c0,.45-.1.57-.46.57H18.48c-.47,0-.6-.06-.6-.39Z"/><path class="cls-1" d="M26.69,141.51H24.44a5.28,5.28,0,0,1-.62,2.82.66.66,0,0,0-.17-.14,4.86,4.86,0,0,0,.58-2.67v-2h2.46Zm.25-3.19v.21H23.85v-.21Zm-.46,1.38h-2v1.6h2Zm3.81.63v.21h-.94v3.79h-.21v-3.79H27.5a5.6,5.6,0,0,1-1.15,3.76.55.55,0,0,0-.16-.15,5.33,5.33,0,0,0,1.1-3.67v-1.83l.25.09a11.86,11.86,0,0,0,2.33-.76l.23.19a.07.07,0,0,1-.06,0h0a15.13,15.13,0,0,1-2.49.76v1.38Z"/><path class="cls-1" d="M36,138.21c0,.08-.09.12-.23.12-.08.43-.22,1.16-.32,1.58a9.61,9.61,0,0,1,1-.08c1,0,1.32.63,1.32,1.63a5.35,5.35,0,0,1-.28,1.7,1.19,1.19,0,0,1-1.16.91,2,2,0,0,1-1.28-.64.86.86,0,0,0,.11-.19c.62.5.93.6,1.18.6a1,1,0,0,0,.94-.74,5.66,5.66,0,0,0,.27-1.64c0-.85-.29-1.42-1.11-1.42a10.09,10.09,0,0,0-1,.08A12.1,12.1,0,0,1,33.9,144l-.21-.1a11.36,11.36,0,0,0,1.52-3.75c-.43,0-1,.1-1.37.17l0-.22,1.46-.17c.11-.51.24-1.18.33-1.81Zm1.8-.2a5.44,5.44,0,0,1,1,1l-.16.13a5.31,5.31,0,0,0-1-1Zm1.74,4.08A4.49,4.49,0,0,0,38,139.64l.17-.14A4.58,4.58,0,0,1,39.8,142Zm-.71-4.36a5.46,5.46,0,0,1,1,1l-.16.13a5.35,5.35,0,0,0-1-1Z"/><path class="cls-1" d="M45.6,141.23l-.91.35V144c0,.2-.06.27-.2.31a3.72,3.72,0,0,1-.82,0,1.26,1.26,0,0,0-.09-.2h.49c.39,0,.41,0,.41-.14v-2.32l-1,.39a.11.11,0,0,1-.06.1l-.15-.27,1.25-.44v-1.86H43.31v-.21h1.18v-1.49l.32,0s0,.06-.1.07v1.39h.88v.21h-.88v1.78l.87-.32Zm2.14,2.63a4,4,0,0,0,.79.06h1.25a.79.79,0,0,0-.09.21H48.54c-1.07,0-1.81-.21-2.23-1.27a3.13,3.13,0,0,1-.89,1.48l-.16-.13a3.8,3.8,0,0,0,1.07-2.47l.31.06s0,.06-.12.06a6.41,6.41,0,0,1-.13.69,1.67,1.67,0,0,0,1.15,1.24v-2.42h-1.8v-.21h4v.21h-2v1.06h1.67v.21H47.75Zm1.54-5.72v2.35H46.13v-2.35Zm-.21,1.06v-.85H46.34v.85Zm0,1.08v-.87H46.34v.87Z"/><path class="cls-1" d="M54.19,140a8.91,8.91,0,0,1-1,1.46.76.76,0,0,0-.14-.16A9.85,9.85,0,0,0,54.87,138l.3.1s-.06.06-.13.06a13.21,13.21,0,0,1-.67,1.52l.13,0s0,.06-.11.06v4.63h-.21Zm4.19,2h1.3v.21H54.82v-.21h1.29v-2.16H55.06v-.21h1.05V138l.31,0s0,.06-.1.07v1.47h1.84V138l.32,0s0,.06-.11.07v1.47h1.2v.21h-1.2Zm-1.67.8s-.06,0-.13,0A5.69,5.69,0,0,1,55,144.34a1,1,0,0,0-.15-.15,5.09,5.09,0,0,0,1.55-1.57Zm-.38-3v2.16h1.84v-2.16Zm3,4.57a9.52,9.52,0,0,0-1.43-1.62l.17-.1a10.31,10.31,0,0,1,1.44,1.6Z"/><path class="cls-1" d="M63.11,139.22l3.43-.11c0-.12,0-1.16,0-1.17h.42c0,.06,0,.12-.18.14,0,.22,0,.64,0,1l2.33-.06v.24c-.66,0-1.52,0-2.33,0,0,.6,0,1,.06,1.57a2.46,2.46,0,0,1,.08.73c0,.67-.06,1.84-2.07,2.67l-.15-.19c1.29-.48,1.87-1.2,2-2h0a1.09,1.09,0,0,1-1,.53,1.15,1.15,0,0,1-1.13-1.19,1.26,1.26,0,0,1,1.2-1.27,1.1,1.1,0,0,1,.79.29s0-.08,0-.1,0-.57,0-1l-3.43.12Zm3.54,2.23c0-.49-.09-1.08-.84-1.08a1,1,0,0,0-1,1.05.92.92,0,0,0,.92,1A.91.91,0,0,0,66.65,141.45Z"/><path class="cls-1" d="M74,141.06a4.67,4.67,0,0,1,2-.5,1.6,1.6,0,0,1,1.82,1.63c0,1.27-1.13,2-2.44,2-.92,0-1.53-.33-1.53-.89a1,1,0,0,1,1.09-.87,1.53,1.53,0,0,1,1.43,1.38,1.65,1.65,0,0,0,1.23-1.58,1.41,1.41,0,0,0-1.6-1.42,4.34,4.34,0,0,0-2.7,1c-.23.22-.5.53-.69.76l-.17-.17c.71-.78,2.89-2.86,3.85-3.76-.45.06-2,.11-2.95.14a.19.19,0,0,1-.13.11l0-.33c1,0,2.68-.07,3.22-.15l.1,0,.25.27a.36.36,0,0,1-.15.06c-.59.5-2.07,1.92-2.59,2.44Zm1.39,2.87a3.13,3.13,0,0,0,.78-.1,1.33,1.33,0,0,0-1.23-1.23c-.46,0-.86.25-.86.65S74.76,143.93,75.35,143.93Z"/><path class="cls-1" d="M85.39,143.57a3.39,3.39,0,0,1-1.44.27,2.41,2.41,0,0,1-2.46-2.7,2.55,2.55,0,0,1,2.66-2.75,2.66,2.66,0,0,1,1.21.23l-.1.2a2.38,2.38,0,0,0-1.09-.24,2.32,2.32,0,0,0-2.42,2.58,2.23,2.23,0,0,0,2.33,2.47,2.75,2.75,0,0,0,1.22-.26Z"/><path class="cls-1" d="M93.87,143.76h-.25l-.16-2.58c-.06-.92-.13-1.84-.12-2.37h0c-.2.55-.41,1.14-.73,2l-1.18,3h-.16l-1.11-2.93c-.32-.86-.55-1.46-.71-2h0c0,.61-.06,1.53-.13,2.44l-.17,2.5h-.25l.39-5.29h.26l1.23,3.24c.25.69.44,1.19.6,1.68h0c.14-.47.33-.92.61-1.65l1.27-3.27h.28Z"/><path class="cls-1" d="M99.74,139.4l.14,0a.14.14,0,0,1,0,.06,8.89,8.89,0,0,1-.74,3.06,5.52,5.52,0,0,1,.87.78l-.13.18a5.42,5.42,0,0,0-.83-.76,3.79,3.79,0,0,1-1.46,1.57.9.9,0,0,0-.15-.18,3.57,3.57,0,0,0,1.44-1.52,9.07,9.07,0,0,0-1.09-.69l-.1.36-.2-.1c.19-.64.44-1.61.67-2.56H97.3v-.21h.86c.13-.55.25-1.08.34-1.53l.32,0s0,.06-.11.06c-.09.41-.2.9-.32,1.42h1.36Zm-1.41.22c-.17.74-.36,1.49-.53,2.12a10.64,10.64,0,0,1,1.13.69,8.3,8.3,0,0,0,.69-2.81Zm5.41,1.43v.21h-1.79v2.68c0,.22-.06.3-.24.34a6.44,6.44,0,0,1-1.14,0,1.27,1.27,0,0,0-.09-.22h.8c.43,0,.46,0,.46-.17v-2.69H99.86v-.21h1.88v-1.27l.2,0a6.82,6.82,0,0,0,1.32-1.34h-3.07v-.21h3.29l.18.12a.15.15,0,0,1-.07,0,7.79,7.79,0,0,1-1.62,1.63v1Z"/><path class="cls-1" d="M107.81,138.88v.85a4.35,4.35,0,0,1-.75,2.67.45.45,0,0,0-.16-.14,4.1,4.1,0,0,0,.7-2.53v-1.06h2.9a6.08,6.08,0,0,1-.1-.79h.34s0,.07-.11.08c0,.23,0,.47.08.7h2.61v.21h-2.57a7,7,0,0,0,.72,1.93,5.77,5.77,0,0,0,.78-1.42l.3.09s-.06.06-.13.06a5.8,5.8,0,0,1-.83,1.46c.41.66.88,1.1,1.28,1.09.21,0,.29-.26.33-1a.6.6,0,0,0,.2.1c-.06.8-.18,1.06-.53,1.06s-1-.45-1.41-1.14a5.34,5.34,0,0,1-1.25,1.09.78.78,0,0,0-.16-.14,5,5,0,0,0,1.29-1.13,7.27,7.27,0,0,1-.79-2.12Zm.34,3.78a1.88,1.88,0,0,1-1.05,1.43l-.16-.13a1.78,1.78,0,0,0,1-1.35Zm0-3v-.21h2.27v.21Zm2,1.93h-1.62v.29h-.21v-1.67h1.83Zm-.21-1.18h-1.41v1h1.41Zm-.91,3.36c0,.16.07.2.49.2h1.59c.34,0,.39-.09.42-.82a.68.68,0,0,0,.21.09c0,.77-.13.94-.62.94h-1.58c-.57,0-.72-.06-.72-.41v-1.2l.32,0s0,.06-.11.07Zm1.58-.7a4.63,4.63,0,0,0-1.35-.85l.14-.15a4.36,4.36,0,0,1,1.36.83Zm1-5.24a3.45,3.45,0,0,1,1.06.51l-.13.18a3.56,3.56,0,0,0-1.06-.53Zm1.63,6.21a5,5,0,0,0-1.37-1.37l.16-.12a4.88,4.88,0,0,1,1.37,1.37Z"/><path class="cls-1" d="M123.13,138.87h-5.61v1.9a7.83,7.83,0,0,1-.67,3.6.62.62,0,0,0-.17-.13,7.46,7.46,0,0,0,.63-3.47v-2.11H120v-.77l.32,0s0,.06-.11.07v.67h2.89Zm-.92,3.09.15.09-.06,0a3.7,3.7,0,0,1-1.6,1.41,8.49,8.49,0,0,0,2.47.64.69.69,0,0,0-.13.19,8.77,8.77,0,0,1-2.57-.72,9.44,9.44,0,0,1-2.69.71.73.73,0,0,0-.11-.19,9.28,9.28,0,0,0,2.58-.63,3.75,3.75,0,0,1-1.42-1.22l.18-.08a3.59,3.59,0,0,0,1.46,1.2,3.57,3.57,0,0,0,1.51-1.22h-4V142h4.26Zm-.51-.63h-2.54v-1.23h-1.27v-.21h1.27v-.74l.32,0s0,.06-.1.07v.64h2.12v-.74l.31,0s0,.06-.1.07v.64h1.39v.21H121.7Zm-.21-1.23h-2.12v1h2.12Z"/><path class="cls-1" d="M10.23,152.63H7.79l.1,0s-.06.07-.13.08a4.09,4.09,0,0,1-2.21,3.37.89.89,0,0,0-.16-.18,3.88,3.88,0,0,0,2.14-3.3H4.71v-.22h5.52Zm-1-1.93H5.3v-.22H9.22Zm.15-.78a5.17,5.17,0,0,1,.78,1.19l-.19.11A5.08,5.08,0,0,0,9.19,150Zm.73-.29a5.58,5.58,0,0,1,.8,1.18l-.2.09a5.21,5.21,0,0,0-.78-1.16Z"/><path class="cls-1" d="M13.36,152.86H19.2v.23H13.6a.27.27,0,0,1-.2.13Z"/><path class="cls-1" d="M27.36,151.22a.08.08,0,0,1-.06,0,8.73,8.73,0,0,1-1.07,2.4,11.65,11.65,0,0,1,1,.64l-.14.19a9.36,9.36,0,0,0-1-.64,6.78,6.78,0,0,1-2.65,2.3.61.61,0,0,0-.17-.16,6.8,6.8,0,0,0,2.61-2.26,12.31,12.31,0,0,0-1.8-.82l.11-.2a13.32,13.32,0,0,1,1.81.83,8,8,0,0,0,1-2.19H24.35a7.34,7.34,0,0,1-1.7,2.05l-.17-.15A8,8,0,0,0,24.74,150l.34.1c0,.06-.08.08-.17.07-.11.27-.29.67-.45,1h2.65l.06,0Z"/><path class="cls-1" d="M32.36,152.77a2,2,0,0,1,1.24-.53c.53,0,.79.38.87,1,.62-.29,1.42-.61,2-.84l.15.29h0a.19.19,0,0,1-.1,0c-.54.19-1.37.52-2,.81a5.55,5.55,0,0,1,0,.62c0,.26,0,.55,0,.86h-.25c0-.27,0-.64,0-1a3.83,3.83,0,0,0,0-.42c-1,.46-1.77,1-1.77,1.54s.55.72,1.65.72a15.69,15.69,0,0,0,1.77-.07V156c-.45,0-1.1.06-1.77.06-1.34,0-1.88-.34-1.88-.95s.88-1.22,2-1.76c-.06-.6-.32-.84-.64-.84a2.55,2.55,0,0,0-1.78,1.06,10.74,10.74,0,0,1-.8.76l-.15-.16a5.11,5.11,0,0,0,1.86-2.8H31v-.22h1.76A10.18,10.18,0,0,0,33,150l.41.07c0,.07-.06.11-.17.12-.06.32-.13.59-.2.87a10.13,10.13,0,0,0,2.6-.43l0,.23a10.45,10.45,0,0,1-2.72.42,5.54,5.54,0,0,1-.61,1.44Z"/><path class="cls-1" d="M39.62,151.9a5.58,5.58,0,0,1,1.31.75l-.12.18a6,6,0,0,0-1.31-.78Zm.09,4.17A24.3,24.3,0,0,0,41,153.72l.15.13a23.86,23.86,0,0,1-1.2,2.26.12.12,0,0,1,0,.08.09.09,0,0,1,0,.06ZM41.12,151a5.57,5.57,0,0,0-1.27-.85L40,150a5.4,5.4,0,0,1,1.28.82ZM46,152.21H43.74v1.46h1.67v2.61H45.2V156H42.11v.33H41.9v-2.67h1.63v-1.46H41.31V152h2.21v-1.47c-.6.1-1.25.2-1.85.28a.53.53,0,0,0-.07-.18,21.91,21.91,0,0,0,3.66-.73l.25.18a.07.07,0,0,1-.06,0h0a13.77,13.77,0,0,1-1.67.39V152H46Zm-.75,3.59v-1.92H42.11v1.92Z"/><path class="cls-1" d="M54.45,150.41v5.46c0,.25-.08.34-.27.39a8.07,8.07,0,0,1-1.29,0,1.08,1.08,0,0,0-.09-.22h.69c.74,0,.75,0,.75-.2V154H51.9v2.25h-.21V154H49.56a4.12,4.12,0,0,1-.89,2.33.52.52,0,0,0-.15-.15A4.71,4.71,0,0,0,49.4,153v-2.61ZM49.61,153c0,.25,0,.52,0,.8h2.11v-1.48H49.61Zm2.08-2.4H49.61v1.51h2.08Zm2.56,0H51.9v1.51h2.35Zm-2.35,3.2h2.35v-1.48H51.9Z"/><path class="cls-1" d="M59.09,150.17c0,.08-.08.13-.22.14-.06.74-.13,2.74-.13,3.78s.56,1.71,1.54,1.71a3.47,3.47,0,0,0,2.7-1.46.7.7,0,0,0,.18.15A3.74,3.74,0,0,1,60.28,156c-1.09,0-1.77-.66-1.77-1.95,0-.84.07-3.11.13-4Z"/><path class="cls-1" d="M68.14,150.06c0,.07-.12.13-.21.13,0,.34-.12.72-.2,1.23a8.35,8.35,0,0,0,2.21-.42l.08.22a9.09,9.09,0,0,1-2.32.43,16.74,16.74,0,0,1-1.33,4.48l-.22-.09a15.94,15.94,0,0,0,1.31-4.38H66.07v-.23H67.5c.08-.48.15-1,.21-1.42Zm3.74,6h-.6a6.43,6.43,0,0,1-1.79-.18.91.91,0,0,1-.67-.89,1.64,1.64,0,0,1,.43-1l.18.12a1.49,1.49,0,0,0-.39.89c0,.63.57.85,2.07.85.24,0,.49,0,.75,0Zm-.22-3.41a7.56,7.56,0,0,0-2.5.35l-.07-.2a8.2,8.2,0,0,1,2.58-.37Z"/><path class="cls-1" d="M75,154.54a14.69,14.69,0,0,1,1.63,1.59l-.2.2a14.51,14.51,0,0,0-1.6-1.62Z"/><path class="cls-1" d="M83.86,150.17s0,.07-.12.08.12,4.43,3.24,5.83a1,1,0,0,0-.16.17c-2.22-1-2.93-3.53-3.16-5h0c-.18,1.47-.78,3.87-3.12,5a1,1,0,0,0-.15-.14c3-1.39,3.08-5,3.13-6Z"/><path class="cls-1" d="M92.83,155.51H95.9v.21H89.59v-.21h3V151H89.94v-.21h5.65V151H92.83Z"/><path class="cls-1" d="M100.5,151.11v1.37a4.1,4.1,0,0,1,0,.42h1.44v.21h-1.45a5.78,5.78,0,0,1-.13.81c.31.3,1.21,1.28,1.43,1.53l-.15.17c-.24-.29-1-1.12-1.34-1.5a3.82,3.82,0,0,1-1.54,2.08.63.63,0,0,0-.14-.16,3.7,3.7,0,0,0,1.65-2.93H98.64v-.21h1.63c0-.15,0-.29,0-.43v-1.36h-.81a5.24,5.24,0,0,1-.64,1.34l-.18-.11a6.52,6.52,0,0,0,.92-2.47l.32.08s-.06.06-.13.06c-.06.29-.14.59-.22.88h2.16v.21Zm1.78-.6h2.49v5.55h-.21v-.56h-2.07v.62h-.21Zm.21,4.78h2.07v-4.57h-2.07Z"/><path class="cls-1" d="M110.6,151.56a7.9,7.9,0,0,0-.67-.9l.15-.08a7.44,7.44,0,0,1,1,1.53l-.15.1a4.92,4.92,0,0,0-.25-.47l-2.79.13s0,.07-.08.08l-.1-.3h.58a12.74,12.74,0,0,0,.83-1.74l.29.09s-.06.06-.13.06a17.22,17.22,0,0,1-.78,1.58Zm0,1V156c0,.34-.13.35-1.1.35a.79.79,0,0,0-.09-.23h.62c.33,0,.36,0,.36-.13v-1h-2v1.42h-.21v-3.78Zm-.21.21h-2v.85h2Zm-2,1.95h2v-.89h-2Zm5.11-2c.32,0,.38-.13.41-.92a.58.58,0,0,0,.21.1c0,.82-.12,1-.61,1H112.1c-.53,0-.69-.08-.69-.47v-2.59l.31,0s0,.06-.1.07v1.27a17.85,17.85,0,0,0,2-.74l.21.2h-.11a20.49,20.49,0,0,1-2.12.72v1c0,.21.07.26.46.26Zm-1.94,3c0,.22.08.27.48.27h1.53c.36,0,.41-.15.44-1a.7.7,0,0,0,.21.09c0,.92-.13,1.14-.64,1.14h-1.53c-.55,0-.71-.08-.71-.48v-2.58l.31,0s0,.06-.1.07v1.18a9.11,9.11,0,0,0,2.14-.81l.19.21h-.11a10.06,10.06,0,0,1-2.23.78Z"/><path class="cls-1" d="M118.18,150.38c0,.08-.1.11-.25.1a17.34,17.34,0,0,0-.36,3.21,9.24,9.24,0,0,0,.12,1.66l.59-1.53.21.08c-.32.85-.51,1.27-.6,1.56a1.15,1.15,0,0,0-.06.32.6.6,0,0,0,0,.2l-.22.06a7.12,7.12,0,0,1-.3-2.35,18.81,18.81,0,0,1,.4-3.41Zm4.64,5-.74,0a9.36,9.36,0,0,1-1.38-.08c-.78-.12-1.19-.57-1.19-1.11a2.12,2.12,0,0,1,.69-1.32l.19.13a1.83,1.83,0,0,0-.65,1.18c0,.41.34.79,1,.9a8.2,8.2,0,0,0,1.21.08c.27,0,.56,0,.84,0Zm-3.27-4.1a21.35,21.35,0,0,0,3.11-.27l0,.23a25.23,25.23,0,0,1-3.13.27Z"/><path class="cls-1" d="M9.9,167.63a7,7,0,0,0-2.37-1.22c0,.2,0,.6,0,.78,0,.64-.48,1-1.24,1s-1.52-.38-1.52-1.09.67-1,1.55-1a4.52,4.52,0,0,1,1,.09c0-.25,0-.46-.06-.66-.06-.9-.1-2.25-.1-3.4l.44,0c0,.07-.06.13-.19.15v1.42a17.78,17.78,0,0,0,2.46-.22l0,.24a21.15,21.15,0,0,1-2.49.2c0,.54,0,1,.07,1.55,0,.22,0,.49.06.74A7.79,7.79,0,0,1,10,167.44Zm-2.59-.85c0-.15,0-.3,0-.42a3.47,3.47,0,0,0-.89-.1c-1,0-1.42.39-1.42.82s.62.86,1.27.86,1-.28,1-.74Z"/><path class="cls-1" d="M14.43,165.06a4.67,4.67,0,0,1,2-.5,1.6,1.6,0,0,1,1.82,1.63c0,1.27-1.13,2-2.44,2-.92,0-1.53-.33-1.53-.89a1,1,0,0,1,1.09-.87,1.53,1.53,0,0,1,1.43,1.38A1.65,1.65,0,0,0,18,166.19a1.41,1.41,0,0,0-1.6-1.42,4.34,4.34,0,0,0-2.7,1c-.23.22-.5.53-.69.76l-.17-.17c.71-.78,2.89-2.86,3.85-3.76-.45.06-2,.11-2.95.14a.19.19,0,0,1-.13.11l0-.33c1,0,2.68-.07,3.22-.15l.1,0,.25.27a.36.36,0,0,1-.15.06c-.59.5-2.07,1.92-2.59,2.44Zm1.39,2.87a3.13,3.13,0,0,0,.78-.1,1.33,1.33,0,0,0-1.23-1.23c-.46,0-.86.25-.86.65S15.23,167.93,15.82,167.93Z"/><path class="cls-1" d="M24.33,162.69H22.57v5.07h-.25v-5.07H20.55v-.22h3.78Z"/><path class="cls-1" d="M30.59,162.48l-2,5.29h-.22l-1.77-5.29h.27l1,2.93c.27.79.48,1.44.64,2h0c.16-.59.41-1.27.69-2l1.1-2.93Z"/><path class="cls-1" d="M36.63,167.57a3.39,3.39,0,0,1-1.44.27,2.41,2.41,0,0,1-2.46-2.7,2.55,2.55,0,0,1,2.66-2.75,2.66,2.66,0,0,1,1.21.23l-.1.2a2.38,2.38,0,0,0-1.09-.24A2.32,2.32,0,0,0,33,165.16a2.23,2.23,0,0,0,2.33,2.47,2.75,2.75,0,0,0,1.22-.26Z"/><path class="cls-1" d="M44.41,167.76h-.25L44,165.19c-.06-.92-.13-1.84-.12-2.37h0c-.2.55-.41,1.14-.73,2l-1.18,3h-.16l-1.11-2.93c-.32-.86-.55-1.46-.71-2h0c0,.61-.06,1.53-.13,2.44l-.17,2.5H39.4l.39-5.29H40l1.23,3.24c.25.69.44,1.19.6,1.68h0c.14-.47.33-.92.61-1.65l1.27-3.27h.28Z"/><path class="cls-1" d="M49.57,163.4l.14,0a.14.14,0,0,1,0,.06,8.89,8.89,0,0,1-.74,3.06,5.52,5.52,0,0,1,.87.78l-.13.18a5.42,5.42,0,0,0-.83-.76,3.79,3.79,0,0,1-1.46,1.57.9.9,0,0,0-.15-.18,3.57,3.57,0,0,0,1.44-1.52,9.07,9.07,0,0,0-1.09-.69l-.1.36-.2-.1c.19-.64.44-1.61.67-2.56h-.81v-.21H48c.13-.55.25-1.08.34-1.53l.32,0s0,.06-.11.06c-.09.41-.2.9-.32,1.42h1.36Zm-1.41.22c-.17.74-.36,1.49-.53,2.12a10.64,10.64,0,0,1,1.13.69,8.3,8.3,0,0,0,.69-2.81Zm5.41,1.43v.21H51.78v2.68c0,.22-.06.3-.24.34a6.44,6.44,0,0,1-1.14,0,1.27,1.27,0,0,0-.09-.22h.8c.43,0,.46,0,.46-.17v-2.69H49.69v-.21h1.88v-1.27l.2,0a6.82,6.82,0,0,0,1.32-1.34H50v-.21H53.3l.18.12a.15.15,0,0,1-.07,0A7.79,7.79,0,0,1,51.78,164v1Z"/><path class="cls-1" d="M56.93,162.88v.85a4.35,4.35,0,0,1-.75,2.67.45.45,0,0,0-.16-.14,4.1,4.1,0,0,0,.7-2.53v-1.06h2.9a6.08,6.08,0,0,1-.1-.79h.34s0,.07-.11.08c0,.23,0,.47.08.7h2.61v.21H59.87a7,7,0,0,0,.72,1.93,5.77,5.77,0,0,0,.78-1.42l.3.09s-.06.06-.13.06A5.8,5.8,0,0,1,60.7,165c.41.66.88,1.1,1.28,1.09.21,0,.29-.26.33-1a.6.6,0,0,0,.2.1c-.06.8-.18,1.06-.53,1.06s-1-.45-1.41-1.14a5.34,5.34,0,0,1-1.25,1.09.78.78,0,0,0-.16-.14A5,5,0,0,0,60.45,165a7.27,7.27,0,0,1-.79-2.12Zm.34,3.78a1.88,1.88,0,0,1-1.05,1.43l-.16-.13a1.78,1.78,0,0,0,1-1.35Zm0-3v-.21h2.27v.21Zm2,1.93H57.64v.29h-.21v-1.67h1.83Zm-.21-1.18H57.64v1h1.41Zm-.91,3.36c0,.16.07.2.49.2h1.59c.34,0,.39-.09.42-.82a.68.68,0,0,0,.21.09c0,.77-.13.94-.62.94H58.65c-.57,0-.72-.06-.72-.41v-1.2l.32,0s0,.06-.11.07Zm1.58-.7a4.63,4.63,0,0,0-1.35-.85l.14-.15a4.36,4.36,0,0,1,1.36.83Zm1-5.24a3.45,3.45,0,0,1,1.06.51l-.13.18a3.56,3.56,0,0,0-1.06-.53Zm1.63,6.21A5,5,0,0,0,61,166.7l.16-.12a4.88,4.88,0,0,1,1.37,1.37Z"/><path class="cls-1" d="M71.55,162.87H65.94v1.9a7.83,7.83,0,0,1-.67,3.6.62.62,0,0,0-.17-.13,7.46,7.46,0,0,0,.63-3.47v-2.11h2.72v-.77l.32,0s0,.06-.11.07v.67h2.89ZM70.62,166l.15.09-.06,0a3.7,3.7,0,0,1-1.6,1.41,8.49,8.49,0,0,0,2.47.64.69.69,0,0,0-.13.19,8.77,8.77,0,0,1-2.57-.72,9.44,9.44,0,0,1-2.69.71.73.73,0,0,0-.11-.19,9.28,9.28,0,0,0,2.58-.63,3.75,3.75,0,0,1-1.42-1.22l.18-.08a3.59,3.59,0,0,0,1.46,1.2,3.57,3.57,0,0,0,1.51-1.22h-4V166h4.26Zm-.51-.63H67.57v-1.23H66.29v-.21h1.27v-.74l.32,0s0,.06-.1.07v.64H69.9v-.74l.31,0s0,.06-.1.07v.64H71.5v.21H70.11Zm-.21-1.23H67.78v1H69.9Z"/><path class="cls-1" d="M80.27,164.55l.15.06a.1.1,0,0,1,0,.06,11.1,11.1,0,0,1-1.62,1.66l-.16-.11A9.68,9.68,0,0,0,80,164.77H77.42s0,.06-.11.07V168c0,.2-.06.29-.24.33a6.72,6.72,0,0,1-1.19,0,1,1,0,0,0-.09-.21h.74c.56,0,.57,0,.57-.16v-3.21h-3v-.21H78.2a11.12,11.12,0,0,0-2.47-1.28l.15-.18a12.55,12.55,0,0,1,1.51.67,9,9,0,0,0,1.78-1.24h-4.4v-.21h4.56a.24.24,0,0,0,.12,0l.2.15a.1.1,0,0,1-.08,0,10.92,10.92,0,0,1-2,1.41,6.27,6.27,0,0,1,.86.55l-.08.11h1.88Z"/><path class="cls-1" d="M84.16,164.79a5.4,5.4,0,0,0-1.23-.73l.12-.15a4.67,4.67,0,0,1,1.23.7Zm-1.06,3.3a22.22,22.22,0,0,0,1.06-2.27l.16.13a21.52,21.52,0,0,1-1,2.17.15.15,0,0,1,0,.08.17.17,0,0,1,0,.06Zm1.31-5.15a5,5,0,0,0-1.13-.81l.13-.15a4.92,4.92,0,0,1,1.13.78Zm1.16,4a.13.13,0,0,1-.13.06,4.72,4.72,0,0,1-1.08,1.38,1.09,1.09,0,0,0-.16-.15,4.19,4.19,0,0,0,1.06-1.39Zm-.71-4.67h2v4.35h-2Zm.21.21v1.16h1.58v-1.16Zm0,1.37V165h1.58v-1.16Zm0,1.37v1.18h1.58v-1.18Zm2,2.86a8.57,8.57,0,0,0-.88-1.14l.17-.1a8.85,8.85,0,0,1,.88,1.11Zm.51-5.43.31,0s0,.06-.1.07v3.94h-.21Zm1.31-.74.32,0s0,.06-.11.07v6c0,.22-.08.3-.24.34a5.78,5.78,0,0,1-1.06,0,1.77,1.77,0,0,0-.09-.21h.56c.58,0,.62,0,.62-.18Z"/><path class="cls-1" d="M92.22,164.13a11.19,11.19,0,0,1,1.95.62l-.09.22a11.56,11.56,0,0,0-1.94-.62Zm.58,3.54a7.51,7.51,0,0,0,4.83-4.22,1.51,1.51,0,0,0,.2.13,7.65,7.65,0,0,1-4.75,4.23A.15.15,0,0,1,93,168Zm.14-5.29a11.17,11.17,0,0,1,1.93.68l-.09.21a11.25,11.25,0,0,0-1.91-.68Z"/><path class="cls-1" d="M105,162.74a.09.09,0,0,1-.07,0,11.18,11.18,0,0,1-1.46,2.48,25.94,25.94,0,0,1,2.72,2.52l-.19.15a24.37,24.37,0,0,0-2.68-2.49,10.75,10.75,0,0,1-2.85,2.5,1.24,1.24,0,0,0-.16-.18,10.72,10.72,0,0,0,4.32-4.9H101v-.22h3.74l.06,0Z"/><path class="cls-1" d="M114.48,164.64H112l.1,0s-.06.07-.13.08a3.82,3.82,0,0,1-2.21,3.33,1.16,1.16,0,0,0-.16-.17,3.62,3.62,0,0,0,2.14-3.26h-2.88v-.22h5.61Zm-.68-2h-4.3v-.22h4.3Z"/><path class="cls-1" d="M122.6,167.9c-.1-.21-.23-.46-.39-.74-1.41.14-4.12.28-5.22.34a.19.19,0,0,1-.12.13l-.11-.35.75,0c.48-1.38,1.21-3.54,1.63-5l.36.1c0,.06-.08.08-.18.08-.42,1.36-1.07,3.38-1.57,4.78,1.39-.06,3.27-.19,4.34-.29a14.38,14.38,0,0,0-1.45-1.94l.19-.12a13.7,13.7,0,0,1,2,2.91Z"/><path class="cls-1" d="M7.16,174.82H5.67v4.38h-1v-5.32H7.16ZM7,174H4.86v5h.66v-4.38H7Z"/><path class="cls-1" d="M13.46,179.57a3.39,3.39,0,0,1-1.44.27,2.41,2.41,0,0,1-2.46-2.7,2.55,2.55,0,0,1,2.66-2.75,2.66,2.66,0,0,1,1.21.23l-.1.2a2.38,2.38,0,0,0-1.09-.24,2.32,2.32,0,0,0-2.42,2.58,2.23,2.23,0,0,0,2.33,2.47,2.75,2.75,0,0,0,1.22-.26Z"/><path class="cls-1" d="M17.95,177.2a1.36,1.36,0,0,1,.83,1.14,6.12,6.12,0,0,0,.39,1.42h-.26a7.19,7.19,0,0,1-.34-1.3c-.17-.78-.5-1.18-1.23-1.18h-.9v2.49h-.25v-5.22a5.5,5.5,0,0,1,1.07-.11,1.76,1.76,0,0,1,1.37.45,1.33,1.33,0,0,1,.36.92,1.39,1.39,0,0,1-1.05,1.38Zm-.64-.13a1.27,1.27,0,0,0,1.43-1.22c0-.94-.74-1.22-1.51-1.22a3.31,3.31,0,0,0-.79.09v2.35Z"/><path class="cls-1" d="M24.58,179.76H21.95v-5.29h2.51v.22H22.19v2.17h2.14v.22H22.19v2.47h2.39Z"/><path class="cls-1" d="M31.19,179.76h-.25l-.71-1.93H28.06l-.7,1.93h-.25l2-5.29h.18Zm-1-2.14-.7-1.88a9.68,9.68,0,0,1-.29-.93h0c-.11.36-.17.58-.29.92l-.71,1.9Z"/><path class="cls-1" d="M36.44,174.69H34.68v5.07h-.25v-5.07H32.66v-.22h3.78Z"/><path class="cls-1" d="M39,174.48h.25v5.29H39Z"/><path class="cls-1" d="M45.79,174.48l-2,5.29h-.22l-1.77-5.29h.27l1,2.93c.27.79.48,1.44.64,2h0c.16-.59.41-1.27.69-2l1.1-2.93Z"/><path class="cls-1" d="M51,179.76H48.33v-5.29h2.51v.22H48.57v2.17h2.14v.22H48.57v2.47H51Z"/><path class="cls-1" d="M58.87,176.95a1.41,1.41,0,0,1,.76,2.34,2.12,2.12,0,0,1-1.61.51c-.37,0-.66,0-.85,0v-5.2a4.2,4.2,0,0,1,1-.12c1.33,0,1.64.67,1.64,1.31a1.28,1.28,0,0,1-.92,1.18Zm-.63-.1a1.16,1.16,0,0,0,1.29-1.1h0c0-.79-.6-1.09-1.43-1.09a3,3,0,0,0-.69.07v2.13Zm-.83,2.7a2.68,2.68,0,0,0,.68.06c.85,0,1.65-.32,1.65-1.27S58.94,177,58.11,177H57.4Z"/><path class="cls-1" d="M64.63,177.2a1.36,1.36,0,0,1,.83,1.14,6.12,6.12,0,0,0,.39,1.42H65.6a7.19,7.19,0,0,1-.34-1.3c-.17-.78-.5-1.18-1.23-1.18h-.9v2.49h-.25v-5.22a5.5,5.5,0,0,1,1.07-.11,1.76,1.76,0,0,1,1.37.45,1.33,1.33,0,0,1,.36.92,1.39,1.39,0,0,1-1.05,1.38Zm-.64-.13a1.27,1.27,0,0,0,1.43-1.22c0-.94-.74-1.22-1.51-1.22a3.31,3.31,0,0,0-.79.09v2.35Z"/><path class="cls-1" d="M72.43,179.76h-.25l-.71-1.93H69.3l-.7,1.93h-.25l2-5.29h.18Zm-1-2.14-.7-1.88a9.68,9.68,0,0,1-.29-.93h0c-.11.36-.17.58-.29.92l-.71,1.9Z"/><path class="cls-1" d="M75.14,174.48h.25v5.29h-.25Z"/><path class="cls-1" d="M82.15,179.76h-.25l-2.13-3.24c-.4-.62-.75-1.13-1-1.67h0c0,.55,0,.88,0,2.05v2.84h-.25v-5.29h.23L81,177.78a18,18,0,0,1,1,1.62h0c0-.71,0-1.28,0-2.12v-2.8h.25Z"/><path class="cls-1" d="M84.91,179.38H86.4V175h1v5.32H84.91Zm.15.78h2.14v-5h-.66v4.38H85.07Z"/><path class="cls-1" d="M93.72,174.9a.14.14,0,0,1-.15.1c-.22,2-1,4.29-2.1,4.29-.47,0-1-.56-1-1.6a3,3,0,0,1,3.11-3.08,2.55,2.55,0,0,1,2.82,2.62c0,1.68-1,2.45-2.68,2.8l-.12-.21c1.62-.31,2.58-1.1,2.58-2.58a2.34,2.34,0,0,0-2.59-2.42h-.11Zm-.36-.06a2.84,2.84,0,0,0-2.67,2.86c0,.86.42,1.37.78,1.37C92.42,179.06,93.14,176.95,93.35,174.83Z"/><path class="cls-1" d="M101.78,176.5H99.54v3.84h-.21v-6.11h2.45Zm-.21-2.07h-2v.8h2Zm-2,1.86h2v-.85h-2Zm4.64,2.18H103v1.72h-.21v-1.72h-1.34a2.32,2.32,0,0,1-1,1.79.69.69,0,0,0-.16-.15,2,2,0,0,0,1-1.64h-1.07v-.21h1.07v-1h-.91V177H104v.21h-1v1h1.14Zm-2.69-.21h1.34v-1H101.5Zm3.6-4v5.7c0,.22-.06.31-.22.36a6,6,0,0,1-1.05,0,.9.9,0,0,0-.09-.23h.64c.5,0,.52,0,.52-.17V176.5h-2.3v-2.28Zm-.21.21h-2.09v.8h2.09Zm-2.09,1.86h2.09v-.85h-2.09Z"/><path class="cls-1" d="M110.67,174.2l.15.1a.1.1,0,0,1-.06,0,5.72,5.72,0,0,1-2.82,2.87,1.1,1.1,0,0,0-.15-.17,5.43,5.43,0,0,0,1.66-1.14,9,9,0,0,0-1-.89l.14-.13a9.75,9.75,0,0,1,1,.87,4.49,4.49,0,0,0,.89-1.32h-2.12v-.21h2.25Zm1.37,5.61c0,.2.06.24.35.24h1.09c.27,0,.3-.15.33-1a.51.51,0,0,0,.2.1c0,.89-.1,1.11-.53,1.11H112.4c-.44,0-.57-.07-.57-.46v-1.52H110.2c-.08.8-.47,1.54-2,2.08a.65.65,0,0,0-.14-.17c1.42-.5,1.79-1.19,1.88-1.91h-1.76v-.21H110c0-.08,0-.16,0-.25v-1.08h-.92v-.21h4v.21h-1v1.32h1.88v.21H112Zm-1.82-2c0,.08,0,.16,0,.25h1.62v-1.32h-1.61Zm3.11-3.74s-.06,0-.1,0a12.59,12.59,0,0,1-1.16,1,6.17,6.17,0,0,0,.61.73,9.5,9.5,0,0,0,1.25-1.08l.24.17s-.06,0-.11,0a12.69,12.69,0,0,1-1.25,1,4.84,4.84,0,0,0,1.57,1,1.18,1.18,0,0,0-.15.17,5.87,5.87,0,0,1-3-3.16l.18-.06a5.48,5.48,0,0,0,.54,1,9.48,9.48,0,0,0,1.13-1Z"/><path class="cls-1" d="M118.35,176.77a2,2,0,0,1,1.24-.53c.53,0,.79.38.87,1,.62-.29,1.42-.61,2-.84l.15.29h0a.19.19,0,0,1-.1,0c-.54.19-1.37.52-2,.81a5.55,5.55,0,0,1,0,.62c0,.26,0,.55,0,.86h-.25c0-.27,0-.64,0-1a3.83,3.83,0,0,0,0-.42c-1,.46-1.77,1-1.77,1.54s.55.72,1.65.72a15.69,15.69,0,0,0,1.77-.07V180c-.45,0-1.1.06-1.77.06-1.34,0-1.88-.34-1.88-.95s.88-1.22,2-1.76c-.06-.6-.32-.84-.64-.84a2.55,2.55,0,0,0-1.78,1.06,10.74,10.74,0,0,1-.8.76l-.15-.16a5.11,5.11,0,0,0,1.86-2.8H117v-.22h1.76A10.18,10.18,0,0,0,119,174l.41.07c0,.07-.06.11-.17.12-.06.32-.13.59-.2.87a10.13,10.13,0,0,0,2.6-.43l0,.23a10.45,10.45,0,0,1-2.72.42,5.54,5.54,0,0,1-.61,1.44Z"/><path class="cls-1" d="M5.48,188.74v2.33c.63.92,1.83.92,3,.92.76,0,1.65,0,2.15,0a.53.53,0,0,0-.08.22l-2,0c-1.38,0-2.47,0-3.21-.91-.34.34-.7.68-1,.94,0,0,0,.06,0,.09l-.17-.23c.32-.26.73-.63,1.08-1v-2.14h-1v-.21Zm-1-2.68a4.83,4.83,0,0,1,1.19,1.2l-.17.13a4.85,4.85,0,0,0-1.18-1.23Zm2.13,5.32V187.7a5.67,5.67,0,0,1-.82,1l-.17-.13a6.66,6.66,0,0,0,1.65-2.67l.3.1s-.06.06-.13.06a9.27,9.27,0,0,1-.5,1.11H8.39a10.37,10.37,0,0,0,.54-1.22l.29.11s-.06.06-.12.06c-.12.29-.32.72-.49,1.05h1.85v.21H8.65v1h1.6v.21H8.65v1h1.6v.21H8.65v1h1.94V191H6.86v.41Zm1.79-3v-1H6.86v1Zm0,1.2v-1H6.86v1Zm0,1.23v-1H6.86v1Z"/><path class="cls-1" d="M18.13,186.11c0,.06-.09.09-.2.1a12.57,12.57,0,0,1-.27,1.41,2.19,2.19,0,0,1,2.06,2.18c0,1.24-1,2-2.81,2.28l-.09-.2c1.72-.21,2.67-1,2.67-2.07a2,2,0,0,0-1.89-2,7.07,7.07,0,0,1-1.39,2.77,2.71,2.71,0,0,0,.38.42l-.18.15a3.81,3.81,0,0,1-.34-.41,2.12,2.12,0,0,1-1.45.71c-.54,0-.87-.49-.87-1.25A2.51,2.51,0,0,1,15,188.16c-.13-.54-.25-1.14-.36-1.81h.41a.17.17,0,0,1-.15.15c.08.55.17,1.06.29,1.55a4.2,4.2,0,0,1,1.93-.46h.3a14.39,14.39,0,0,0,.3-1.56Zm-2.2,4.48a7.9,7.9,0,0,1-.88-2.21,2.27,2.27,0,0,0-1.1,1.85c0,.6.2,1,.65,1A1.92,1.92,0,0,0,15.93,190.59Zm.15-.18a6.6,6.6,0,0,0,1.29-2.61h-.24a4,4,0,0,0-1.88.46A7.62,7.62,0,0,0,16.08,190.42Z"/><path class="cls-1" d="M22.3,186.89c.55,0,4.89-.37,5.74-.34v.24h-.29a2.1,2.1,0,0,0-1.11.31c-1.24.71-2.3,2-2.3,2.93s.67,1.77,2.55,2l-.09.22c-2-.32-2.7-1-2.7-2.26,0-1.08,1.1-2.35,2.54-3.19-.7,0-3.08.21-4.17.31a.21.21,0,0,1-.14.1Z"/><path class="cls-1" d="M31.94,186.8c0,.07-.09.1-.2.11a11.19,11.19,0,0,0-.1,1.55c0,.34,0,.66,0,.95.1,1.36.68,2.14,1.3,2.14.31,0,.73-.73,1-1.65a1.05,1.05,0,0,0,.2.11c-.36,1-.76,1.76-1.25,1.77-.74,0-1.4-.88-1.51-2.35,0-.28,0-.6,0-.94,0-.6,0-1.23.09-1.79ZM37.09,190a3.62,3.62,0,0,0-1.84-2.71l.13-.18a3.78,3.78,0,0,1,1.94,2.84Z"/><path class="cls-1" d="M40.36,187c.44,0,1,0,1.41,0l1.18,0c0-.36,0-.78,0-1.05l.43,0c0,.08-.06.12-.2.14,0,.24,0,.59,0,.87a12.94,12.94,0,0,0,2.47-.3l0,.22a13.13,13.13,0,0,1-2.52.3l0,1.51a10.83,10.83,0,0,0,2.12-.29l0,.23a13.37,13.37,0,0,1-2.16.27l.06,1.35a8.3,8.3,0,0,1,2.18,1.17l-.15.2a7.54,7.54,0,0,0-2-1.13c0,.15,0,.31,0,.42a1,1,0,0,1-1.11,1.11c-.87,0-1.53-.31-1.53-1s.77-1,1.51-1a3.37,3.37,0,0,1,.88.1c0-.36,0-.81,0-1.27h-.76c-1,0-1.53-.06-1.53-.53,0-.25.19-.43.59-.71l.16.16c-.45.27-.53.43-.53.57s.46.3,1.3.3H43l0-1.5c-.51,0-1,0-1.63,0-.33,0-.69,0-1,0Zm2.72,3.45a3.24,3.24,0,0,0-.9-.12c-.6,0-1.28.25-1.28.76s.59.75,1.3.75.88-.29.88-.9Z"/><path class="cls-1" d="M49.06,187.22l3.43-.11c0-.12,0-1.16,0-1.17h.42c0,.06,0,.12-.18.14,0,.22,0,.64,0,1L55,187v.24c-.66,0-1.52,0-2.33,0,0,.6,0,1,.06,1.57a2.46,2.46,0,0,1,.08.73c0,.67-.06,1.84-2.07,2.67l-.15-.19c1.29-.48,1.87-1.2,2-2h0a1.09,1.09,0,0,1-1,.53,1.15,1.15,0,0,1-1.13-1.19,1.26,1.26,0,0,1,1.2-1.27,1.1,1.1,0,0,1,.79.29s0-.08,0-.1,0-.57,0-1l-3.43.12Zm3.54,2.23c0-.49-.09-1.08-.84-1.08a1,1,0,0,0-1,1.05.92.92,0,0,0,.92,1A.91.91,0,0,0,52.6,189.45Z"/><path class="cls-1" d="M60.06,191.34a1,1,0,1,1-1-1A1,1,0,0,1,60.06,191.34Zm-.21,0a.77.77,0,1,0-.77.77A.77.77,0,0,0,59.85,191.34Z"/><path class="cls-1" d="M65.25,192.74a4.74,4.74,0,0,1-1.13-3.2,4.87,4.87,0,0,1,1.13-3.24h.27a4.8,4.8,0,0,0-1.14,3.25,4.87,4.87,0,0,0,1.14,3.19Z"/><path class="cls-1" d="M71.11,191.76H68.17v-.16l.43-.48c.69-.74,2.1-2,2.1-3.17,0-.62-.25-1.27-1.16-1.27a1.62,1.62,0,0,0-1.08.48l-.12-.17a1.8,1.8,0,0,1,1.25-.51,1.32,1.32,0,0,1,1.37,1.4c0,1.05-.74,1.91-2.11,3.28l-.36.38h2.61Z"/><path class="cls-1" d="M74.09,189.19c0-2,.83-2.72,1.62-2.72s1.51.75,1.51,2.61-.65,2.77-1.62,2.77C74.34,191.85,74.09,190,74.09,189.19Zm2.87-.06c0-1.44-.4-2.45-1.29-2.45s-1.33,1-1.33,2.45c0,1,.27,2.51,1.3,2.51S77,190.5,77,189.13Z"/><path class="cls-1" d="M81.33,191.76v-4.94h0l-.8.5-.09-.19.91-.58h.24v5.2Z"/><path class="cls-1" d="M86.53,189a1.36,1.36,0,0,1-.91-1.17A1.32,1.32,0,0,1,87,186.48a1.21,1.21,0,0,1,1.3,1.23,1.4,1.4,0,0,1-.95,1.29v0a1.43,1.43,0,0,1-.42,2.83,1.44,1.44,0,0,1-1.55-1.37A1.62,1.62,0,0,1,86.53,189Zm1.71,1.48c0-.75-.5-1.11-1.39-1.37a1.51,1.51,0,0,0-1.18,1.33,1.23,1.23,0,0,0,1.28,1.24A1.2,1.2,0,0,0,88.24,190.44Zm-2.37-2.71c0,.64.45,1,1.18,1.18a1.27,1.27,0,0,0,1-1.19,1,1,0,0,0-1.06-1A1,1,0,0,0,85.88,187.73Z"/><path class="cls-1" d="M97.92,190.43v.21H95.16v1.69h-.21v-1.69h-3.4v-.21h1.22v-2h2.19v-1.37H93a6.46,6.46,0,0,1-1.18,1.48,1.09,1.09,0,0,0-.17-.12,6.81,6.81,0,0,0,1.72-2.58l.3.1s-.07.06-.13.06a8.09,8.09,0,0,1-.41.86h4.54v.21H95.16v1.37h2.31v.21H95.16v1.76Zm-4.94,0h2v-1.76H93Z"/><path class="cls-1" d="M101.79,191.85a7.77,7.77,0,0,0-.17,1.26,1.89,1.89,0,0,0,0,.2h-.22a1.47,1.47,0,0,1,0-.2,6.77,6.77,0,0,1,.15-1.12l.71-3.82c.29-1.59,1-2.07,1.88-2.07a1.11,1.11,0,0,1,1.18,1.11,1.65,1.65,0,0,1-1,1.48v0a1.37,1.37,0,0,1,1.16,1.38,1.81,1.81,0,0,1-1.93,1.74,1.89,1.89,0,0,1-1.53-.66h0Zm1.54-3,0-.21c1.41,0,1.69-.92,1.69-1.4a.89.89,0,0,0-1-.94c-.92,0-1.4.75-1.62,1.93l-.49,2.58a1.77,1.77,0,0,0,1.54.83,1.6,1.6,0,0,0,1.65-1.5c0-.8-.7-1.29-1.58-1.29Z"/><path class="cls-1" d="M109.61,188.17v.69c0,.19,0,.38,0,.57h1.58v2.5H111v-2.29H109.6a8,8,0,0,1-.48,2.68l-.2-.1a8.94,8.94,0,0,0,.49-3.35V186l.32,0s0,.06-.11.07V188h1.05v-2.09l.32,0s0,.06-.11.07v2h1v.21Zm5.29-.19.13.06a.07.07,0,0,1,0,0,6.61,6.61,0,0,1-1.07,2.76,3.88,3.88,0,0,0,1.44,1.3,1,1,0,0,0-.16.18,4.23,4.23,0,0,1-1.4-1.3,4.48,4.48,0,0,1-1.58,1.3.62.62,0,0,0-.14-.17,4.16,4.16,0,0,0,1.6-1.31,7.76,7.76,0,0,1-1-2.42l.19,0a7.75,7.75,0,0,0,.93,2.3,6.27,6.27,0,0,0,1-2.47h-2.48a8.83,8.83,0,0,1-.77,4.13.55.55,0,0,0-.18-.12,8.35,8.35,0,0,0,.74-4v-2h3.25v.21h-3V188h2.61Z"/><path class="cls-1" d="M119.09,189.9v-3.36l.37,0s-.06.1-.15.1v3.23Zm3.73-3.62c0,.06-.06.1-.15.1v2.26a3.41,3.41,0,0,1-2.56,3.52A.85.85,0,0,0,120,192a3.23,3.23,0,0,0,2.48-3.34v-2.39Z"/><path class="cls-1" d="M5.62,201.9v-3.36l.37,0s-.06.1-.15.1v3.23Zm3.73-3.62c0,.06-.06.1-.15.1v2.26a3.41,3.41,0,0,1-2.56,3.52A.85.85,0,0,0,6.5,204,3.23,3.23,0,0,0,9,200.64v-2.39Z"/><path class="cls-1" d="M12.37,200.86h5.85v.23h-5.6a.27.27,0,0,1-.2.13Z"/><path class="cls-1" d="M24.29,198.74a.09.09,0,0,1-.07,0,11.18,11.18,0,0,1-1.46,2.48,25.94,25.94,0,0,1,2.72,2.52l-.19.15a24.37,24.37,0,0,0-2.68-2.49,10.75,10.75,0,0,1-2.85,2.5,1.24,1.24,0,0,0-.16-.18,10.72,10.72,0,0,0,4.32-4.9H20.28v-.22H24l.06,0Z"/><path class="cls-1" d="M33.1,200.55l.15.06a.1.1,0,0,1,0,.06,11.1,11.1,0,0,1-1.62,1.66l-.16-.11a9.68,9.68,0,0,0,1.44-1.44H30.25s0,.06-.11.07V204c0,.2-.06.29-.24.33a6.72,6.72,0,0,1-1.19,0,1,1,0,0,0-.09-.21h.74c.56,0,.57,0,.57-.16v-3.21h-3v-.21H31a11.12,11.12,0,0,0-2.47-1.28l.15-.18a12.55,12.55,0,0,1,1.51.67A9,9,0,0,0,32,198.53h-4.4v-.21h4.56a.24.24,0,0,0,.12,0l.2.15a.1.1,0,0,1-.08,0,10.92,10.92,0,0,1-2,1.41,6.27,6.27,0,0,1,.86.55l-.08.11H33.1Z"/><path class="cls-1" d="M38.52,203.85A6.68,6.68,0,0,0,40,204h1.64a.57.57,0,0,0-.1.21H40c-1.66,0-2.83-.29-3.47-1.74a3.76,3.76,0,0,1-1.19,1.9,1,1,0,0,0-.15-.14,4.54,4.54,0,0,0,1.42-3.07l.31.06s0,.06-.13.06a8.12,8.12,0,0,1-.18.88,2.45,2.45,0,0,0,1.68,1.65v-3.48h-2v-.21h4.38v.21H38.52v1.48h2.3V202h-2.3ZM35.74,199v1.11h-.21V198.8h2.78v-.92l.32,0s0,.06-.11.07v.82h2.81v1.32h-.21V199Z"/><path class="cls-1" d="M45.68,203.34a1,1,0,1,1-1-1A1,1,0,0,1,45.68,203.34Zm-.21,0a.77.77,0,1,0-.77.77A.77.77,0,0,0,45.47,203.34Z"/><path class="cls-1" d="M48.79,198.29a5.12,5.12,0,0,1,0,6.44h-.27a4.91,4.91,0,0,0,1.14-3.23,4.81,4.81,0,0,0-1.14-3.21Z"/><path class="cls-1" d="M7.16,210.82H5.67v4.38h-1v-5.32H7.16ZM7,210H4.86v5h.66v-4.38H7Z"/><path class="cls-1" d="M13.36,215.57a3.39,3.39,0,0,1-1.44.27,2.41,2.41,0,0,1-2.46-2.7,2.55,2.55,0,0,1,2.66-2.75,2.66,2.66,0,0,1,1.21.23l-.1.2a2.38,2.38,0,0,0-1.09-.24,2.32,2.32,0,0,0-2.42,2.58A2.23,2.23,0,0,0,12,215.64a2.75,2.75,0,0,0,1.22-.26Z"/><path class="cls-1" d="M17.75,213.2a1.36,1.36,0,0,1,.83,1.14,6.12,6.12,0,0,0,.39,1.42h-.26a7.19,7.19,0,0,1-.34-1.3c-.17-.78-.5-1.18-1.23-1.18h-.9v2.49H16v-5.22a5.5,5.5,0,0,1,1.07-.11,1.76,1.76,0,0,1,1.37.45,1.33,1.33,0,0,1,.36.92,1.39,1.39,0,0,1-1.05,1.38Zm-.64-.13a1.27,1.27,0,0,0,1.43-1.22c0-.94-.74-1.22-1.51-1.22a3.31,3.31,0,0,0-.79.09v2.35Z"/><path class="cls-1" d="M24.28,215.76H21.65v-5.29h2.51v.22H21.9v2.17H24v.22H21.9v2.47h2.39Z"/><path class="cls-1" d="M30.79,215.76h-.25l-.71-1.93H27.66l-.7,1.93h-.25l2-5.29h.18Zm-1-2.14-.7-1.88a9.68,9.68,0,0,1-.29-.93h0c-.11.36-.17.58-.29.92l-.71,1.9Z"/><path class="cls-1" d="M35.95,210.69H34.18v5.07h-.25v-5.07H32.16v-.22h3.78Z"/><path class="cls-1" d="M38.38,210.48h.25v5.29h-.25Z"/><path class="cls-1" d="M45.09,210.48l-2,5.29h-.22l-1.77-5.29h.27l1,2.93c.27.79.48,1.44.64,2h0c.16-.59.41-1.27.69-2l1.1-2.93Z"/><path class="cls-1" d="M50.17,215.76H47.53v-5.29H50v.22H47.78v2.17h2.14v.22H47.78v2.47h2.39Z"/><path class="cls-1" d="M57.87,212.95a1.41,1.41,0,0,1,.76,2.34,2.12,2.12,0,0,1-1.61.51c-.37,0-.66,0-.85,0v-5.2a4.2,4.2,0,0,1,1-.12c1.33,0,1.64.67,1.64,1.31a1.28,1.28,0,0,1-.92,1.18Zm-.63-.1a1.16,1.16,0,0,0,1.29-1.1h0c0-.79-.6-1.09-1.43-1.09a3,3,0,0,0-.69.07v2.13Zm-.83,2.7a2.68,2.68,0,0,0,.68.06c.85,0,1.65-.32,1.65-1.27S57.95,213,57.11,213h-.71Z"/><path class="cls-1" d="M63.53,213.2a1.36,1.36,0,0,1,.83,1.14,6.12,6.12,0,0,0,.39,1.42H64.5a7.19,7.19,0,0,1-.34-1.3c-.17-.78-.5-1.18-1.23-1.18H62v2.49h-.25v-5.22a5.5,5.5,0,0,1,1.07-.11,1.76,1.76,0,0,1,1.37.45,1.33,1.33,0,0,1,.36.92,1.39,1.39,0,0,1-1.05,1.38Zm-.64-.13a1.27,1.27,0,0,0,1.43-1.22c0-.94-.74-1.22-1.51-1.22a3.31,3.31,0,0,0-.79.09v2.35Z"/><path class="cls-1" d="M71.24,215.76H71l-.71-1.93H68.11l-.7,1.93h-.25l2-5.29h.18Zm-1-2.14-.7-1.88a9.68,9.68,0,0,1-.29-.93h0c-.11.36-.17.58-.29.92l-.71,1.9Z"/><path class="cls-1" d="M73.84,210.48h.25v5.29h-.25Z"/><path class="cls-1" d="M80.76,215.76h-.25l-2.13-3.24c-.4-.62-.75-1.13-1-1.67h0c0,.55,0,.88,0,2.05v2.84h-.25v-5.29h.23l2.19,3.31a18,18,0,0,1,1,1.62h0c0-.71,0-1.28,0-2.12v-2.8h.25Z"/><path class="cls-1" d="M83.42,215.38H84.9V211h1v5.32H83.42Zm.15.78h2.14v-5h-.66v4.38H83.57Z"/><path class="cls-1" d="M89,210.89c.55,0,4.89-.37,5.74-.34v.24H94.4a2.1,2.1,0,0,0-1.11.31C92,211.79,91,213,91,214s.67,1.77,2.55,2l-.09.22c-2-.32-2.7-1-2.7-2.26,0-1.08,1.1-2.35,2.54-3.19-.7,0-3.08.21-4.17.31a.21.21,0,0,1-.14.1Zm4.44,1.18a5.43,5.43,0,0,1,1,1l-.16.13a4.87,4.87,0,0,0-1-1Zm.7-.61a5.1,5.1,0,0,1,1,1l-.16.13a5.12,5.12,0,0,0-1-1Z"/><path class="cls-1" d="M98.07,215.94a6.24,6.24,0,0,1-.32-2.33,18.12,18.12,0,0,1,.4-3.34l.39.09c0,.06-.07.11-.18.11a15.13,15.13,0,0,0-.39,3.14,7.12,7.12,0,0,0,.09,1.46c.19-.52.52-1.27.69-1.64l.22.09a11.08,11.08,0,0,0-.78,2,.73.73,0,0,0,.1.34Zm2.84-4,.79,0c0-.64,0-1.2-.06-1.72l.42,0c0,.07-.08.12-.18.14,0,.46,0,.95,0,1.54a5.85,5.85,0,0,0,1.49-.31l.06.23a6.25,6.25,0,0,1-1.53.29c0,.88.08,1.82.09,2.26a5.47,5.47,0,0,1,1.51,1l-.15.19a4.69,4.69,0,0,0-1.36-.9c0,.73,0,1.42-1.05,1.42-.79,0-1.35-.34-1.35-.93s.74-1,1.34-1a2.88,2.88,0,0,1,.83.13c0-.49-.07-1.35-.11-2.16l-.79,0H99.79v-.22Zm.91,2.59a2.66,2.66,0,0,0-.84-.15c-.48,0-1.12.18-1.12.72s.5.71,1.13.71.84-.28.84-1Z"/><path class="cls-1" d="M106.24,214.54a14.69,14.69,0,0,1,1.63,1.59l-.2.2a14.51,14.51,0,0,0-1.6-1.62Z"/><path class="cls-1" d="M115.22,215.57a3.39,3.39,0,0,1-1.44.27,2.41,2.41,0,0,1-2.46-2.7,2.55,2.55,0,0,1,2.66-2.75,2.66,2.66,0,0,1,1.21.23l-.1.2a2.38,2.38,0,0,0-1.09-.24,2.32,2.32,0,0,0-2.42,2.58,2.23,2.23,0,0,0,2.33,2.47,2.75,2.75,0,0,0,1.22-.26Z"/><path class="cls-1" d="M122.78,215.76h-.25l-.16-2.58c-.06-.92-.13-1.84-.12-2.37h0c-.2.55-.41,1.14-.73,2l-1.18,3h-.16L119,212.85c-.32-.86-.55-1.46-.71-2h0c0,.61-.06,1.53-.13,2.44l-.17,2.5h-.25l.39-5.29h.26l1.23,3.24c.25.69.44,1.19.6,1.68h0c.14-.47.33-.92.61-1.65l1.27-3.27h.28Z"/><path class="cls-1" d="M6.65,223.4l.14,0a.14.14,0,0,1,0,.06A8.89,8.89,0,0,1,6,226.57a5.52,5.52,0,0,1,.87.78l-.13.18a5.42,5.42,0,0,0-.83-.76,3.79,3.79,0,0,1-1.46,1.57.9.9,0,0,0-.15-.18,3.57,3.57,0,0,0,1.44-1.52,9.07,9.07,0,0,0-1.09-.69l-.1.36-.2-.1c.19-.64.44-1.61.67-2.56H4.22v-.21h.86c.13-.55.25-1.08.34-1.53l.32,0s0,.06-.11.06c-.09.41-.2.9-.32,1.42H6.65Zm-1.41.22c-.17.74-.36,1.49-.53,2.12a10.64,10.64,0,0,1,1.13.69,8.3,8.3,0,0,0,.69-2.81Zm5.41,1.43v.21H8.87v2.68c0,.22-.06.3-.24.34a6.44,6.44,0,0,1-1.14,0,1.27,1.27,0,0,0-.09-.22h.8c.43,0,.46,0,.46-.17v-2.69H6.78v-.21H8.66v-1.27l.2,0a6.82,6.82,0,0,0,1.32-1.34H7.09v-.21h3.29l.18.12a.15.15,0,0,1-.07,0A7.79,7.79,0,0,1,8.87,224v1Z"/><path class="cls-1" d="M14,222.88v.85a4.35,4.35,0,0,1-.75,2.67.45.45,0,0,0-.16-.14,4.1,4.1,0,0,0,.7-2.53v-1.06h2.9a6.08,6.08,0,0,1-.1-.79h.34s0,.07-.11.08c0,.23,0,.47.08.7h2.61v.21H16.92a7,7,0,0,0,.72,1.93,5.77,5.77,0,0,0,.78-1.42l.3.09s-.06.06-.13.06a5.8,5.8,0,0,1-.83,1.46c.41.66.88,1.1,1.28,1.09.21,0,.29-.26.33-1a.6.6,0,0,0,.2.1c-.06.8-.18,1.06-.53,1.06s-1-.45-1.41-1.14a5.34,5.34,0,0,1-1.25,1.09.78.78,0,0,0-.16-.14A5,5,0,0,0,17.5,225a7.27,7.27,0,0,1-.79-2.12Zm.34,3.78a1.88,1.88,0,0,1-1.05,1.43L13.1,228a1.78,1.78,0,0,0,1-1.35Zm0-3v-.21h2.27v.21Zm2,1.93H14.69v.29h-.21v-1.67h1.83Zm-.21-1.18H14.69v1H16.1Zm-.91,3.36c0,.16.07.2.49.2h1.59c.34,0,.39-.09.42-.82a.68.68,0,0,0,.21.09c0,.77-.13.94-.62.94H15.7c-.57,0-.72-.06-.72-.41v-1.2l.32,0s0,.06-.11.07Zm1.58-.7a4.63,4.63,0,0,0-1.35-.85l.14-.15a4.36,4.36,0,0,1,1.36.83Zm1-5.24a3.45,3.45,0,0,1,1.06.51l-.13.18a3.56,3.56,0,0,0-1.06-.53Zm1.63,6.21A5,5,0,0,0,18,226.7l.16-.12a4.88,4.88,0,0,1,1.37,1.37Z"/><path class="cls-1" d="M28.56,222.87H22.95v1.9a7.83,7.83,0,0,1-.67,3.6.62.62,0,0,0-.17-.13,7.46,7.46,0,0,0,.63-3.47v-2.11h2.72v-.77l.32,0s0,.06-.11.07v.67h2.89ZM27.63,226l.15.09-.06,0a3.7,3.7,0,0,1-1.6,1.41,8.49,8.49,0,0,0,2.47.64.69.69,0,0,0-.13.19,8.77,8.77,0,0,1-2.57-.72,9.44,9.44,0,0,1-2.69.71.73.73,0,0,0-.11-.19,9.28,9.28,0,0,0,2.58-.63,3.75,3.75,0,0,1-1.42-1.22l.18-.08a3.59,3.59,0,0,0,1.46,1.2,3.57,3.57,0,0,0,1.51-1.22h-4V226h4.26Zm-.51-.63H24.58v-1.23H23.3v-.21h1.27v-.74l.32,0s0,.06-.1.07v.64h2.12v-.74l.31,0s0,.06-.1.07v.64h1.39v.21H27.12Zm-.21-1.23H24.79v1h2.12Z"/><path class="cls-1" d="M36.9,224.63H34.46l.1,0s-.06.07-.13.08a4.09,4.09,0,0,1-2.21,3.37.89.89,0,0,0-.16-.18,3.88,3.88,0,0,0,2.14-3.3H31.38v-.22H36.9Zm-1-1.93H32v-.22h3.92Zm.15-.78a5.17,5.17,0,0,1,.78,1.19l-.19.11a5.08,5.08,0,0,0-.77-1.18Zm.73-.29a5.58,5.58,0,0,1,.8,1.18l-.2.09a5.21,5.21,0,0,0-.78-1.16Z"/><path class="cls-1" d="M39.82,224.86h5.85v.23h-5.6a.27.27,0,0,1-.2.13Z"/><path class="cls-1" d="M53.62,223.22a.08.08,0,0,1-.06,0,8.73,8.73,0,0,1-1.07,2.4,11.65,11.65,0,0,1,1,.64l-.14.19a9.36,9.36,0,0,0-1-.64,6.78,6.78,0,0,1-2.65,2.3.61.61,0,0,0-.17-.16,6.8,6.8,0,0,0,2.61-2.26,12.31,12.31,0,0,0-1.8-.82l.11-.2a13.32,13.32,0,0,1,1.81.83,8,8,0,0,0,1-2.19H50.6a7.34,7.34,0,0,1-1.7,2.05l-.17-.15A8,8,0,0,0,51,222l.34.1c0,.06-.08.08-.17.07-.11.27-.29.67-.45,1h2.65l.06,0Z"/><path class="cls-1" d="M58.42,224.77a2,2,0,0,1,1.24-.53c.53,0,.79.38.87,1,.62-.29,1.42-.61,2-.84l.15.29h0a.19.19,0,0,1-.1,0c-.54.19-1.37.52-2,.81a5.55,5.55,0,0,1,0,.62c0,.26,0,.55,0,.86H60.3c0-.27,0-.64,0-1a3.83,3.83,0,0,0,0-.42c-1,.46-1.77,1-1.77,1.54s.55.72,1.65.72a15.69,15.69,0,0,0,1.77-.07V228c-.45,0-1.1.06-1.77.06-1.34,0-1.88-.34-1.88-.95s.88-1.22,2-1.76c-.06-.6-.32-.84-.64-.84a2.55,2.55,0,0,0-1.78,1.06,10.74,10.74,0,0,1-.8.76l-.15-.16a5.11,5.11,0,0,0,1.86-2.8h-1.7v-.22h1.76A10.18,10.18,0,0,0,59,222l.41.07c0,.07-.06.11-.17.12-.06.32-.13.59-.2.87a10.13,10.13,0,0,0,2.6-.43l0,.23a10.45,10.45,0,0,1-2.72.42,5.54,5.54,0,0,1-.61,1.44Z"/><path class="cls-1" d="M68.57,222.17s0,.07-.12.08.12,4.43,3.24,5.83a1,1,0,0,0-.16.17c-2.22-1-2.93-3.53-3.16-5h0c-.18,1.47-.78,3.87-3.12,5a1,1,0,0,0-.15-.14c3-1.39,3.08-5,3.13-6Z"/><path class="cls-1" d="M77.34,227.51H80.4v.21H74.09v-.21h3V223H74.44v-.21h5.65V223H77.34Z"/><path class="cls-1" d="M84.8,223.11v1.37a4.1,4.1,0,0,1,0,.42h1.44v.21H84.77a5.78,5.78,0,0,1-.13.81c.31.3,1.21,1.28,1.43,1.53l-.15.17c-.24-.29-1-1.12-1.34-1.5A3.82,3.82,0,0,1,83,228.19a.63.63,0,0,0-.14-.16,3.7,3.7,0,0,0,1.65-2.93H82.94v-.21h1.63c0-.15,0-.29,0-.43v-1.36h-.81a5.21,5.21,0,0,1-.64,1.34l-.18-.11a6.52,6.52,0,0,0,.92-2.47l.32.08s-.06.06-.13.06c-.06.29-.14.59-.22.88H86v.21Zm1.78-.6h2.49v5.55h-.21v-.56H86.79v.62h-.21Zm.21,4.78h2.07v-4.57H86.79Z"/><path class="cls-1" d="M94.7,223.56a7.91,7.91,0,0,0-.67-.9l.15-.08a7.44,7.44,0,0,1,1,1.53l-.15.1a4.92,4.92,0,0,0-.25-.47l-2.79.13s0,.07-.08.08l-.1-.3h.58a12.74,12.74,0,0,0,.83-1.74l.29.09s-.06.06-.13.06a17.22,17.22,0,0,1-.78,1.58Zm0,1V228c0,.34-.13.35-1.1.35a.79.79,0,0,0-.09-.23h.62c.33,0,.36,0,.36-.13v-1h-2v1.42h-.21v-3.78Zm-.21.21h-2v.85h2Zm-2,1.95h2v-.89h-2Zm5.11-2c.32,0,.38-.13.41-.92a.58.58,0,0,0,.21.1c0,.82-.12,1-.61,1H96.2c-.53,0-.69-.08-.69-.47v-2.59l.31,0s0,.06-.1.07v1.27a17.85,17.85,0,0,0,2-.74l.21.2h-.11a20.49,20.49,0,0,1-2.12.72v1c0,.21.07.26.46.26Zm-1.94,3c0,.22.08.27.48.27h1.53c.36,0,.41-.15.44-1a.7.7,0,0,0,.21.09c0,.92-.13,1.14-.64,1.14H96.22c-.55,0-.71-.08-.71-.48v-2.58l.31,0s0,.06-.1.07v1.18a9.11,9.11,0,0,0,2.14-.81l.19.21H98a10.06,10.06,0,0,1-2.23.78Z"/><path class="cls-1" d="M101.24,224.13a11.19,11.19,0,0,1,1.95.62l-.09.22a11.56,11.56,0,0,0-1.94-.62Zm.58,3.54a7.51,7.51,0,0,0,4.83-4.22,1.51,1.51,0,0,0,.2.13,7.65,7.65,0,0,1-4.75,4.23.15.15,0,0,1-.06.16Zm.14-5.29a11.17,11.17,0,0,1,1.93.68l-.09.21a11.25,11.25,0,0,0-1.91-.68Z"/><path class="cls-1" d="M113.94,222.74a.09.09,0,0,1-.07,0,11.18,11.18,0,0,1-1.46,2.48,25.94,25.94,0,0,1,2.72,2.52l-.19.15a24.37,24.37,0,0,0-2.68-2.49,10.75,10.75,0,0,1-2.85,2.5,1.24,1.24,0,0,0-.16-.18,10.72,10.72,0,0,0,4.32-4.9h-3.64v-.22h3.74l.06,0Z"/><path class="cls-1" d="M123.42,224.64h-2.49l.1,0s-.06.07-.13.08a3.82,3.82,0,0,1-2.21,3.33,1.16,1.16,0,0,0-.16-.17,3.62,3.62,0,0,0,2.14-3.26h-2.88v-.22h5.61Zm-.68-2h-4.3v-.22h4.3Z"/><path class="cls-1" d="M10.27,239.9c-.1-.21-.23-.46-.39-.74-1.41.14-4.12.28-5.22.34a.19.19,0,0,1-.12.13l-.11-.35.75,0c.48-1.38,1.21-3.54,1.63-5l.36.1c0,.06-.08.08-.18.08-.42,1.36-1.07,3.38-1.57,4.78,1.39-.06,3.27-.19,4.34-.29A14.38,14.38,0,0,0,8.3,237l.19-.12a13.7,13.7,0,0,1,2,2.91Z"/><path class="cls-1" d="M14,234.38c0,.08-.1.11-.25.1a17.34,17.34,0,0,0-.36,3.21,9.14,9.14,0,0,0,.12,1.66l.59-1.53.21.08c-.32.85-.51,1.27-.6,1.56a1.15,1.15,0,0,0-.06.32.6.6,0,0,0,0,.2l-.22.06a7.12,7.12,0,0,1-.3-2.35,18.81,18.81,0,0,1,.4-3.41Zm4.64,5-.74,0a9.36,9.36,0,0,1-1.38-.08c-.78-.12-1.19-.57-1.19-1.11a2.12,2.12,0,0,1,.69-1.32l.19.13a1.83,1.83,0,0,0-.65,1.18c0,.41.34.79,1,.9a8.2,8.2,0,0,0,1.21.08c.27,0,.56,0,.84,0Zm-3.27-4.1a21.35,21.35,0,0,0,3.11-.27l0,.23a25.23,25.23,0,0,1-3.13.27Z"/><path class="cls-1" d="M27.37,238.1v.21h-3V240a.29.29,0,0,1-.25.34,7.24,7.24,0,0,1-1.25,0,1.27,1.27,0,0,0-.11-.21h.8c.56,0,.6,0,.6-.17v-1.68h-3v-.21h3v-.7l.23,0a6.41,6.41,0,0,0,1.44-.84H22.24v-.21h3.85l.18.13a.1.1,0,0,1-.07,0,7.2,7.2,0,0,1-1.86,1.11v.48Zm-5.83-2.76v1.23h-.21v-1.44h4.33a9,9,0,0,0,.94-1.2l.25.15s-.07,0-.11,0a11.22,11.22,0,0,1-.83,1h1.3v1.44H27v-1.23Zm1-.21a5.36,5.36,0,0,0-.72-1.05L22,234a4.71,4.71,0,0,1,.72,1Zm1.32-1.27a4.65,4.65,0,0,1,.61,1.16l-.18.08a4.77,4.77,0,0,0-.6-1.18Z"/><path class="cls-1" d="M29.76,236.58c.5-.18,1.25-.47,2-.76l0,.18c-.68.27-1.37.56-1.82.73a.11.11,0,0,1-.06.1Zm2.72.08c0,.15,0,.22-.17.27a3.75,3.75,0,0,1-.87,0,1,1,0,0,0-.08-.2h.45c.46,0,.46,0,.46-.11V234.5H29.9v-.21h2.58Zm-1.19-1.06a3.84,3.84,0,0,0-1-.76l.15-.13a3.55,3.55,0,0,1,1,.74Zm1.13,1.81a5.29,5.29,0,0,0,.35-.69l.27.12a.1.1,0,0,1-.11,0c-.07.15-.18.35-.29.53h2.43v2.93h-.21V240H31v.31h-.21v-2.93Zm2.44,1.18v-1H31v1ZM31,239.83h3.91v-1H31Zm4-4-1.91.71a.1.1,0,0,1-.06.1l-.14-.25c.53-.18,1.31-.46,2.08-.74Zm.64-1.56v2.4c0,.15,0,.22-.18.27a4.1,4.1,0,0,1-.88,0,.6.6,0,0,0-.08-.2H35c.39,0,.41,0,.41-.12V234.5H33v-.21Zm-2.22.43a3.35,3.35,0,0,1,1,.7l-.15.15a3.5,3.5,0,0,0-1-.72Z"/><path class="cls-1" d="M44.1,235.3a13,13,0,0,1-2.48.43c.28,1.08.56,1.72,1.4,2.09l-.14.2c-.11-.07-.3-.17-.39-.22a3.72,3.72,0,0,0-1.2-.25l0-.21a6.71,6.71,0,0,1,.82.13,4,4,0,0,1-.73-1.72c-.34,0-.87,0-1.33,0l-1.58,0v-.22c.43,0,1.09,0,1.6,0s.94,0,1.27,0c-.08-.38-.18-.94-.27-1.54h.45c0,.08-.07.12-.18.14,0,.43.14,1,.22,1.37a11.79,11.79,0,0,0,2.46-.44ZM42.91,240c-.34,0-.65,0-1.32,0-1.3,0-2.46-.31-2.46-1.3a1.72,1.72,0,0,1,.65-1.16l.17.15a1.51,1.51,0,0,0-.6,1c0,.81,1,1.06,2.24,1.06.64,0,1,0,1.31,0Z"/><path class="cls-1" d="M52.38,235.94c-.46.06-1,.14-1.62.24a10.43,10.43,0,0,1-.06,1.65.68.68,0,0,1-.68.6,2.74,2.74,0,0,1-1.11-.32l.08-.21a2.5,2.5,0,0,0,1,.31.47.47,0,0,0,.47-.41,9.21,9.21,0,0,0,.06-1.58l-2.61.44c0,.69,0,1.34.06,1.79.09,1.2.65,1.3,1.72,1.3.62,0,1.39,0,1.89-.09v.24c-.5,0-1.31.07-2,.07-1,0-1.78-.07-1.88-1.48,0-.44,0-1.09-.06-1.79l-1.46.27,0-.22,1.48-.25,0-1.84.41,0c0,.08-.07.11-.17.12,0,.48,0,1.06,0,1.63l2.6-.43c0-.61,0-1.28-.09-1.91l.4,0c0,.07,0,.09-.15.11,0,.55.06,1.15.07,1.72l1.6-.26Z"/><path class="cls-1" d="M55.89,237.06a4.67,4.67,0,0,1,2-.5,1.6,1.6,0,0,1,1.82,1.63c0,1.27-1.13,2-2.44,2-.92,0-1.53-.33-1.53-.89a1,1,0,0,1,1.09-.87,1.53,1.53,0,0,1,1.43,1.38,1.65,1.65,0,0,0,1.23-1.58,1.41,1.41,0,0,0-1.6-1.42,4.34,4.34,0,0,0-2.7,1c-.23.22-.5.53-.69.76l-.17-.17c.71-.78,2.89-2.86,3.85-3.76-.45.06-2,.11-2.95.14a.19.19,0,0,1-.13.11l0-.33c1,0,2.68-.07,3.22-.15l.1,0,.25.27a.36.36,0,0,1-.15.06c-.59.5-2.07,1.92-2.59,2.44Zm1.39,2.87a3.13,3.13,0,0,0,.78-.1,1.33,1.33,0,0,0-1.23-1.23c-.46,0-.86.25-.86.65S56.69,239.93,57.28,239.93Z"/><path class="cls-1" d="M67.53,239.55a12.47,12.47,0,0,1-2.18.18,7,7,0,0,1-1.29-.09,1.27,1.27,0,0,1-1.16-1.27,2.31,2.31,0,0,1,.74-1.51l.18.13a2.17,2.17,0,0,0-.69,1.42c0,.46.31.86,1,1a6,6,0,0,0,1.21.09,11.45,11.45,0,0,0,2.18-.2ZM66,235.14c-.65.07-2,.1-2.93.1V235a22.36,22.36,0,0,0,3.94-.24l.06.24a2.36,2.36,0,0,0-.78.23,9.46,9.46,0,0,0-1.62,1l-.15-.16a9.94,9.94,0,0,1,1.48-1Z"/><path class="cls-1" d="M75.37,236.16h-.06a.27.27,0,0,1-.13,0c-2.06.64-4.16,1.67-4.16,2.74,0,.78.89,1,2.15,1a19.74,19.74,0,0,0,2.45-.14V240a21.3,21.3,0,0,1-2.47.12c-1.4,0-2.38-.31-2.38-1.23,0-.76.81-1.44,1.95-2a6.92,6.92,0,0,1-.31-2.84l.44,0c0,.08-.08.14-.21.15a5.81,5.81,0,0,0,.29,2.54,18.55,18.55,0,0,1,2.33-.9Z"/><path class="cls-1" d="M78.16,234.89c.55,0,4.89-.37,5.74-.34v.24h-.29a2.1,2.1,0,0,0-1.11.31c-1.24.71-2.3,2-2.3,2.93s.67,1.77,2.55,2l-.09.22c-2-.32-2.7-1-2.7-2.26,0-1.08,1.1-2.35,2.54-3.19-.7,0-3.08.21-4.17.31a.21.21,0,0,1-.14.1Zm4.44,1.18a5.43,5.43,0,0,1,1,1l-.16.13a4.87,4.87,0,0,0-1-1Zm.7-.61a5.1,5.1,0,0,1,1,1l-.16.13a5.12,5.12,0,0,0-1-1Z"/><path class="cls-1" d="M86.66,238.54a14.69,14.69,0,0,1,1.63,1.59l-.2.2a14.51,14.51,0,0,0-1.6-1.62Z"/><path class="cls-1" d="M95,234.69H93.24v5.07H93v-5.07H91.23v-.22H95Z"/><path class="cls-1" d="M101,234.48l-2,5.29h-.22L97,234.48h.27l1,2.93c.27.79.48,1.44.64,2h0c.16-.59.41-1.27.69-2l1.1-2.93Z"/><path class="cls-1" d="M106.69,239.57a3.39,3.39,0,0,1-1.44.27,2.41,2.41,0,0,1-2.46-2.7,2.55,2.55,0,0,1,2.66-2.75,2.66,2.66,0,0,1,1.21.23l-.1.2a2.38,2.38,0,0,0-1.09-.24,2.32,2.32,0,0,0-2.42,2.58,2.23,2.23,0,0,0,2.33,2.47,2.75,2.75,0,0,0,1.22-.26Z"/><path class="cls-1" d="M114.16,239.76h-.25l-.16-2.58c-.06-.92-.13-1.84-.12-2.37h0c-.2.55-.41,1.14-.73,2l-1.18,3h-.16l-1.11-2.93c-.32-.86-.55-1.46-.71-2h0c0,.61-.06,1.53-.13,2.44l-.17,2.5h-.25l.39-5.29h.26l1.23,3.24c.25.69.44,1.19.6,1.68h0c.14-.47.33-.92.61-1.65l1.27-3.27h.28Z"/><path class="cls-1" d="M120,234.9a.14.14,0,0,1-.15.1c-.22,2-1,4.29-2.1,4.29-.47,0-1-.56-1-1.6a3,3,0,0,1,3.11-3.08,2.55,2.55,0,0,1,2.82,2.62c0,1.68-1,2.45-2.68,2.8l-.12-.21c1.62-.31,2.58-1.1,2.58-2.58a2.34,2.34,0,0,0-2.59-2.42h-.11Zm-.36-.06a2.84,2.84,0,0,0-2.67,2.86c0,.86.42,1.37.78,1.37C118.69,239.06,119.41,236.95,119.63,234.83Z"/><path class="cls-1" d="M4.23,248.93a9.25,9.25,0,0,0,3.07-3.08l.38,0s-.06.06-.12.08a10.63,10.63,0,0,0,3.12,2.89.85.85,0,0,0-.14.18,10.87,10.87,0,0,1-3.12-2.92,9.92,9.92,0,0,1-3,3Zm3.36.83v2.14H10.5v.21H4.41v-.21h1v-2.82l.32,0s0,.06-.11.07v2.72H7.37v-4.16l.32,0s0,.06-.1.07v1.72H9.8v.21Z"/><path class="cls-1" d="M13,246.39h6.21v.21h-3v1H17.8v3.17H14.32v-3.17H16v-1H13Zm5.81,5.25v-4.08l.32,0s0,.06-.11.07v4.64h-.21v-.45H13.41v.48H13.2v-4.76l.32,0s0,.06-.11.07v4Zm-4.26-3.8v1.26H16v-1.26Zm0,1.47v1.27H16V249.3Zm3.06-.21v-1.26H16.16v1.26Zm0,1.48V249.3H16.16v1.27Z"/><path class="cls-1" d="M23.55,249.1a.6.6,0,1,1-.6-.6A.6.6,0,0,1,23.55,249.1Z"/><path class="cls-1" d="M28.71,247.24v1.05h1.87v.21H28.71v.88h1.5v2.09c0,.15,0,.22-.16.26a4.7,4.7,0,0,1-.87,0,.72.72,0,0,0-.08-.19h.44c.41,0,.46,0,.46-.1v-1.89H28.71v2.74H28.5v-2.74H27.26v2.19H27v-2.4H28.5v-.88H26.61v-.21H28.5v-1.05H27.35a4.67,4.67,0,0,1-.34.93l-.19-.08a7.63,7.63,0,0,0,.57-2l.32.08s0,.06-.13.06a7.89,7.89,0,0,1-.17.79H28.5v-1.13l.32,0s0,.06-.11.07v1h1.56v.21Zm2.28-.5.32,0s0,.06-.11.07v3.78H31Zm1.5-.72.32,0s0,.06-.11.07V252c0,.22-.08.3-.24.34a5.41,5.41,0,0,1-1.06,0,2.11,2.11,0,0,0-.09-.2h.56c.58,0,.62,0,.62-.17Z"/><path class="cls-1" d="M36.37,248a8.12,8.12,0,0,1-1.06,1.47l-.14-.16a9.18,9.18,0,0,0,1.9-3.34l.3.09a.13.13,0,0,1-.13.06,10.49,10.49,0,0,1-.7,1.58l.15,0s0,.06-.11.06v4.55h-.21Zm5.41-.66H39.35v1.32h2.26v.21H39.35v1.37h2.35v.21H39.35v1.89h-.21v-5H38.3a7.86,7.86,0,0,1-1,1.67l-.17-.13A8.81,8.81,0,0,0,38.6,246l.32.1s-.06.06-.14.06c-.11.32-.24.64-.38,1h3.38Z"/><path class="cls-1" d="M45.75,248.77a2,2,0,0,1,1.24-.53c.53,0,.79.38.87,1,.62-.29,1.42-.61,2-.84l.15.29h0a.19.19,0,0,1-.1,0c-.54.19-1.37.52-2,.81a5.55,5.55,0,0,1,0,.62c0,.26,0,.55,0,.86h-.25c0-.27,0-.64,0-1a3.83,3.83,0,0,0,0-.42c-1,.46-1.77,1-1.77,1.54s.55.72,1.65.72a15.69,15.69,0,0,0,1.77-.07V252c-.45,0-1.1.06-1.77.06-1.34,0-1.88-.34-1.88-.95s.88-1.22,2-1.76c-.06-.6-.32-.84-.64-.84a2.55,2.55,0,0,0-1.78,1.06,10.74,10.74,0,0,1-.8.76l-.15-.16a5.11,5.11,0,0,0,1.86-2.8h-1.7v-.22h1.76a10.18,10.18,0,0,0,.22-1.06l.41.07c0,.07-.06.11-.17.12-.06.32-.13.59-.2.87a10.13,10.13,0,0,0,2.6-.43l0,.23a10.45,10.45,0,0,1-2.72.42,5.54,5.54,0,0,1-.61,1.44Z"/><path class="cls-1" d="M57.67,248.7l.16.1a.09.09,0,0,1-.08,0,5.22,5.22,0,0,1-2,2.27,8,8,0,0,0,3,1.05.92.92,0,0,0-.13.19,8.11,8.11,0,0,1-3.09-1.13,10.21,10.21,0,0,1-3.09,1.1.68.68,0,0,0-.13-.19,10,10,0,0,0,3-1A5.18,5.18,0,0,1,53.59,249l.18-.08a5,5,0,0,0,1.77,2,4.88,4.88,0,0,0,1.94-2.06H52.88v-.21h2.56v-1.38H52.51v-.21h2.92v-1.24l.32,0s0,.06-.11.07v1.14h3v.21h-3v1.38h2Z"/><path class="cls-1" d="M63.11,249.32l-.71.26V252c0,.2-.07.27-.21.32a4.23,4.23,0,0,1-.9,0,.79.79,0,0,0-.09-.21h.47c.5,0,.53,0,.53-.15v-2.32l-.94.34a.12.12,0,0,1-.06.1l-.15-.27,1.15-.39v-1.81h-1.1v-.21h1.1v-1.53l.31,0s0,.06-.1.07v1.44h.87v.21H62.4v1.73l.68-.24Zm3.57.56.14.08a.1.1,0,0,1,0,0,3.36,3.36,0,0,1-1,1.47,5.23,5.23,0,0,0,1.74.66,1,1,0,0,0-.15.19,5.34,5.34,0,0,1-1.76-.72,4.84,4.84,0,0,1-1.61.73.71.71,0,0,0-.14-.18,4.78,4.78,0,0,0,1.57-.67,3.56,3.56,0,0,1-1-1.13l.18-.07a3.22,3.22,0,0,0,1,1.08,3,3,0,0,0,.95-1.25H64.25A4.59,4.59,0,0,1,63,252.29l-.16-.13a5.18,5.18,0,0,0,1.45-3H63.21v-.21h1.1c0-.26.08-.53.12-.8H63.31v-.21H66l0,0a8.18,8.18,0,0,0,.79-1.32l.29.11s-.06.06-.12.06a9.56,9.56,0,0,1-.76,1.18h.94v.21H64.65q-.05.41-.13.8h2.92v.21h-3c0,.26-.11.51-.17.75h2.37Zm.34-3.8h-.1a24.38,24.38,0,0,1-3.68.45.58.58,0,0,0-.06-.18,23.37,23.37,0,0,0,3.64-.46Zm-3.26.65a3.4,3.4,0,0,1,.41,1l-.2.08a3.45,3.45,0,0,0-.4-1Zm1.34-.13a3.92,3.92,0,0,1,.25,1l-.2,0a4.68,4.68,0,0,0-.24-1Z"/><path class="cls-1" d="M69.63,247.22l3.43-.11c0-.12,0-1.16,0-1.17h.42c0,.06,0,.12-.18.14,0,.22,0,.64,0,1l2.33-.06v.24c-.66,0-1.52,0-2.33,0,0,.6,0,1,.06,1.57a2.46,2.46,0,0,1,.08.73c0,.67-.06,1.84-2.07,2.67l-.15-.19c1.29-.48,1.87-1.2,2-2h0a1.09,1.09,0,0,1-1,.53,1.15,1.15,0,0,1-1.13-1.19,1.26,1.26,0,0,1,1.2-1.27,1.1,1.1,0,0,1,.79.29s0-.08,0-.1,0-.57,0-1l-3.43.12Zm3.54,2.23c0-.49-.09-1.08-.84-1.08a1,1,0,0,0-1,1.05.92.92,0,0,0,.92,1A.91.91,0,0,0,73.17,249.45Z"/><path class="cls-1" d="M79.45,249.06a4.67,4.67,0,0,1,2-.5,1.6,1.6,0,0,1,1.82,1.63c0,1.27-1.13,2-2.44,2-.92,0-1.53-.33-1.53-.89a1,1,0,0,1,1.09-.87,1.53,1.53,0,0,1,1.43,1.38,1.65,1.65,0,0,0,1.23-1.58,1.41,1.41,0,0,0-1.6-1.42,4.34,4.34,0,0,0-2.7,1c-.23.22-.5.53-.69.76l-.17-.17c.71-.78,2.89-2.86,3.85-3.76-.45.06-2,.11-2.95.14a.19.19,0,0,1-.13.11l0-.33c1,0,2.68-.07,3.22-.15l.1,0,.25.27a.36.36,0,0,1-.15.06c-.59.5-2.07,1.92-2.59,2.44Zm1.39,2.87a3.13,3.13,0,0,0,.78-.1,1.33,1.33,0,0,0-1.23-1.23c-.46,0-.86.25-.86.65S80.25,251.93,80.84,251.93Z"/><path class="cls-1" d="M87.48,248.92a1.39,1.39,0,0,1,1.16,1.4A1.5,1.5,0,0,1,87,251.85a2.09,2.09,0,0,1-1.16-.35l.14-.2a1.86,1.86,0,0,0,1.06.35,1.26,1.26,0,0,0,1.36-1.3c0-.92-.78-1.3-1.56-1.3h-.3v-.21h.32a1.24,1.24,0,0,0,1.34-1.13,1,1,0,0,0-1-1,1.55,1.55,0,0,0-1,.39l-.13-.19a1.86,1.86,0,0,1,1.13-.41,1.14,1.14,0,0,1,1.27,1.2,1.33,1.33,0,0,1-1,1.23Z"/><path class="cls-1" d="M91.16,247.9c.13,0,.37-.1.66-.2A11.4,11.4,0,0,1,95,247a1.89,1.89,0,0,1,2.09,2c0,1.7-1.81,2.32-4,2.57a1.53,1.53,0,0,0-.06-.22c2.11-.21,3.87-.82,3.87-2.35A1.68,1.68,0,0,0,95,247.22a13.3,13.3,0,0,0-3.56.88.18.18,0,0,1-.11.14Z"/><path class="cls-1" d="M103,246.9a.14.14,0,0,1-.15.1c-.22,2-1,4.29-2.1,4.29-.47,0-1-.56-1-1.6a3,3,0,0,1,3.11-3.08,2.55,2.55,0,0,1,2.82,2.62c0,1.68-1,2.45-2.68,2.8l-.12-.21c1.62-.31,2.58-1.1,2.58-2.58a2.34,2.34,0,0,0-2.59-2.42h-.11Zm-.36-.06a2.84,2.84,0,0,0-2.67,2.86c0,.86.42,1.37.78,1.37C101.66,251.06,102.37,248.95,102.59,246.83Z"/><path class="cls-1" d="M109.35,248.42c.19.25.69,1,.8,1.22l-.15.19c-.1-.22-.43-.77-.65-1.12v3.6h-.21v-4a9.71,9.71,0,0,1-1,2.54.88.88,0,0,0-.16-.17,9.51,9.51,0,0,0,1.12-3h-1v-.21h1v-1.62l.32,0s0,.06-.11.07v1.53h.86v.21h-.86Zm3.24,1.34a7.74,7.74,0,0,0,.34,1.3,3.66,3.66,0,0,0,.72-1.06l.28.09s0,0-.11.06a3.78,3.78,0,0,1-.81,1.11c.25.56.55.88.93.88s.32-.2.36-.93a.61.61,0,0,0,.19.1c0,.78-.16,1.05-.56,1.05s-.81-.34-1.09-.94a5.48,5.48,0,0,1-1.43.89.81.81,0,0,0-.13-.14,4.83,4.83,0,0,0,1.48-.94,7.68,7.68,0,0,1-.39-1.46H111c0,.19,0,.39-.06.57a7.58,7.58,0,0,1,1.13.74l-.14.16a9.48,9.48,0,0,0-1-.7,2.73,2.73,0,0,1-.9,1.77.64.64,0,0,0-.17-.14,3.21,3.21,0,0,0,1-2.4h-.5v-.21h2.11a25.3,25.3,0,0,1-.26-3.66l.32,0s0,.07-.1.08a22.07,22.07,0,0,0,.25,3.56h1.88v.21Zm-2.44-1.16h.28c.17-.22.35-.5.53-.8a4.26,4.26,0,0,0-.81-.76l.13-.12.22.15A8,8,0,0,0,111,246l.27.13s-.06,0-.11,0a9.81,9.81,0,0,1-.55,1,2.9,2.9,0,0,1,.44.44c.2-.34.39-.69.53-1l.27.13s-.06,0-.12,0a16.36,16.36,0,0,1-1.09,1.74l1.05-.06a4.47,4.47,0,0,0-.31-.57l.18-.08a3.48,3.48,0,0,1,.48,1l-.19.1a2.28,2.28,0,0,0-.1-.29l-1.45.13a.11.11,0,0,1-.08.08Zm2.4,0h.27c.15-.21.33-.47.5-.75a4.54,4.54,0,0,0-.82-.76l.13-.12.22.15a8.16,8.16,0,0,0,.53-1.09l.27.13s-.06,0-.11,0a9.63,9.63,0,0,1-.55,1,3.4,3.4,0,0,1,.45.45c.2-.34.39-.69.53-1l.27.13a.13.13,0,0,1-.12,0,17.63,17.63,0,0,1-1.05,1.7l1.09-.06a4.41,4.41,0,0,0-.32-.53l.18-.08a3.61,3.61,0,0,1,.52,1l-.18.11a2.29,2.29,0,0,0-.13-.33l-1.49.11a.1.1,0,0,1-.09.08Zm.58.29a4.28,4.28,0,0,1,.87.52l-.1.15A4.65,4.65,0,0,0,113,249Z"/><path class="cls-1" d="M119.49,247.56a7.9,7.9,0,0,0-.67-.9l.15-.08a7.44,7.44,0,0,1,1,1.53l-.15.1a4.92,4.92,0,0,0-.25-.47l-2.79.13s0,.07-.08.08l-.1-.3h.58a12.74,12.74,0,0,0,.83-1.74l.29.09s-.06.06-.13.06a17.22,17.22,0,0,1-.78,1.58Zm0,1V252c0,.34-.13.35-1.1.35a.79.79,0,0,0-.09-.23H119c.33,0,.36,0,.36-.13v-1h-2v1.42h-.21v-3.78Zm-.21.21h-2v.85h2Zm-2,1.95h2v-.89h-2Zm5.11-2c.32,0,.38-.13.41-.92a.58.58,0,0,0,.21.1c0,.82-.12,1-.61,1H121c-.53,0-.69-.08-.69-.47v-2.59l.31,0s0,.06-.1.07v1.27a17.85,17.85,0,0,0,2-.74l.21.2h-.11a20.49,20.49,0,0,1-2.12.72v1c0,.21.07.26.46.26Zm-1.94,3c0,.22.08.27.48.27h1.53c.36,0,.41-.15.44-1a.7.7,0,0,0,.21.09c0,.92-.13,1.14-.64,1.14H121c-.55,0-.71-.08-.71-.48v-2.58l.31,0s0,.06-.1.07v1.18a9.11,9.11,0,0,0,2.14-.81l.19.21h-.11a10.06,10.06,0,0,1-2.23.78Z"/><path class="cls-1" d="M6,260.77a2,2,0,0,1,1.24-.53c.53,0,.79.38.87,1,.62-.29,1.42-.61,2-.84l.15.29h0a.19.19,0,0,1-.1,0c-.54.19-1.37.52-2,.81a5.55,5.55,0,0,1,0,.62c0,.26,0,.55,0,.86H7.91c0-.27,0-.64,0-1a3.83,3.83,0,0,0,0-.42c-1,.46-1.77,1-1.77,1.54s.55.72,1.65.72a15.69,15.69,0,0,0,1.77-.07V264c-.45,0-1.1.06-1.77.06-1.34,0-1.88-.34-1.88-.95s.88-1.22,2-1.76c-.06-.6-.32-.84-.64-.84a2.55,2.55,0,0,0-1.78,1.06,10.74,10.74,0,0,1-.8.76l-.15-.16a5.11,5.11,0,0,0,1.86-2.8H4.66v-.22H6.43A10.18,10.18,0,0,0,6.65,258l.41.07c0,.07-.06.11-.17.12-.06.32-.13.59-.2.87a10.13,10.13,0,0,0,2.6-.43l0,.23a10.45,10.45,0,0,1-2.72.42A5.54,5.54,0,0,1,6,260.77Z"/><path class="cls-1" d="M18.81,262.36H16a3.77,3.77,0,0,0,2.86,1.77,1,1,0,0,0-.15.2,4,4,0,0,1-2.95-2h-.32c-.35.71-1.13,1.42-2.84,2a1,1,0,0,0-.13-.18,4.31,4.31,0,0,0,2.72-1.79H12.5v-.21h2.82a2.88,2.88,0,0,0,.2-.84H13.35v-.21h2.17c0-.1,0-.2,0-.29v-.5H13.17v-.21h2.35v-.83l.32,0s0,.06-.11.07v.74h2.42v.21H15.73v.5c0,.09,0,.19,0,.29H18v.21H15.72a2.84,2.84,0,0,1-.18.84h3.27ZM13,259v1h-.21V258.8h2.78v-.92l.32,0s0,.06-.11.07v.82h2.81V260h-.21v-1Z"/><path class="cls-1" d="M22.31,262.45l1.12-.33,0,.19L21.1,263a.1.1,0,0,1-.07.1l-.14-.27,1.21-.34v-2.05h-1v-.21h1v-1.8H21v-.21h2.4v.21H22.31v1.8h1v.21h-1Zm2.44-.14s0,.06-.11.07a2.22,2.22,0,0,1-1.86,1.94.83.83,0,0,0-.14-.18,2.07,2.07,0,0,0,1.8-1.87Zm1.16,1.57c0,.15,0,.18.27.18H27c.2,0,.24-.1.26-.86a.55.55,0,0,0,.2.09c0,.78-.09,1-.43,1h-.85c-.37,0-.48-.06-.48-.38v-1.79H23.77v-3.85H27v3.85H25.92ZM24,258.45v1h2.79v-1Zm0,1.2v1h2.79v-1Zm0,1.21v1h2.79v-1Z"/><path class="cls-1" d="M30.91,258.17c0,.08-.08.13-.22.14-.06.74-.13,2.74-.13,3.78s.56,1.71,1.54,1.71a3.47,3.47,0,0,0,2.7-1.46.7.7,0,0,0,.18.15A3.74,3.74,0,0,1,32.1,264c-1.09,0-1.77-.66-1.77-1.95,0-.84.07-3.11.13-4Z"/><path class="cls-1" d="M37.48,259c.44,0,1,0,1.41,0l1.18,0c0-.36,0-.78,0-1.05l.43,0c0,.08-.06.12-.2.14,0,.24,0,.59,0,.87a12.94,12.94,0,0,0,2.47-.3l0,.22a13.13,13.13,0,0,1-2.52.3l0,1.51a10.83,10.83,0,0,0,2.12-.29l0,.23a13.37,13.37,0,0,1-2.16.27l.06,1.35a8.3,8.3,0,0,1,2.18,1.17l-.15.2a7.54,7.54,0,0,0-2-1.13c0,.15,0,.31,0,.42a1,1,0,0,1-1.11,1.11c-.87,0-1.53-.31-1.53-1s.77-1,1.51-1a3.37,3.37,0,0,1,.88.1c0-.36,0-.81,0-1.27h-.76c-1,0-1.53-.06-1.53-.53,0-.25.19-.43.59-.71l.16.16c-.45.27-.53.43-.53.57s.46.3,1.3.3h.75l0-1.5c-.51,0-1,0-1.63,0-.33,0-.69,0-1,0Zm2.72,3.45a3.24,3.24,0,0,0-.9-.12c-.6,0-1.28.25-1.28.76s.59.75,1.3.75.88-.29.88-.9Z"/><path class="cls-1" d="M45.43,259.22l3.43-.11c0-.12,0-1.16,0-1.17h.42c0,.06,0,.12-.18.14,0,.22,0,.64,0,1l2.33-.06v.24c-.66,0-1.52,0-2.33,0,0,.6,0,1,.06,1.57a2.46,2.46,0,0,1,.08.73c0,.67-.06,1.84-2.07,2.67l-.15-.19c1.29-.48,1.87-1.2,2-2h0a1.09,1.09,0,0,1-1,.53,1.15,1.15,0,0,1-1.13-1.19,1.26,1.26,0,0,1,1.2-1.27,1.1,1.1,0,0,1,.79.29s0-.08,0-.1,0-.57,0-1l-3.43.12ZM49,261.45c0-.49-.09-1.08-.84-1.08a1,1,0,0,0-1,1.05.92.92,0,0,0,.92,1A.91.91,0,0,0,49,261.45Z"/><path class="cls-1" d="M55.68,263.34a1,1,0,1,1-1-1A1,1,0,0,1,55.68,263.34Zm-.21,0a.77.77,0,1,0-.77.77A.77.77,0,0,0,55.47,263.34Z"/><path class="cls-1" d="M33.33,46.36c0,.05-.05.09-.15.11s.15,5.7,4.17,7.5a1.2,1.2,0,0,0-.21.22c-2.85-1.31-3.76-4.54-4.06-6.41h0c-.23,1.89-1,5-4,6.39a1.21,1.21,0,0,0-.19-.18c3.83-1.78,4-6.42,4-7.65Z"/><path class="cls-1" d="M43.86,53.22H47.8v.27H39.69v-.27h3.9V47.38H40.14v-.27h7.26v.27H43.86Z"/><path class="cls-1" d="M52.71,47.56v1.76a5.35,5.35,0,0,1,0,.54h1.85v.27H52.68a7.29,7.29,0,0,1-.16,1c.4.39,1.56,1.65,1.84,2l-.19.23c-.31-.38-1.25-1.44-1.72-1.93a4.92,4.92,0,0,1-2,2.67.79.79,0,0,0-.18-.21,4.76,4.76,0,0,0,2.13-3.76H50.33v-.27h2.1c0-.19,0-.37,0-.55V47.56h-1a6.69,6.69,0,0,1-.83,1.73,2.39,2.39,0,0,0-.23-.14A8.39,8.39,0,0,0,51.53,46l.41.11c0,.05-.07.08-.16.08-.08.38-.18.76-.29,1.13h2.77v.27ZM55,46.79h3.2v7.14h-.27v-.72H55.27V54H55Zm.27,6.15h2.66V47.06H55.27Z"/><path class="cls-1" d="M64.71,48.14A10.05,10.05,0,0,0,63.85,47l.2-.1a9.56,9.56,0,0,1,1.31,2l-.2.13a6.54,6.54,0,0,0-.31-.6l-3.59.17a.13.13,0,0,1-.11.11L61,48.27l.75,0A16.31,16.31,0,0,0,62.84,46l.38.12s-.07.07-.16.08a22.23,22.23,0,0,1-1,2Zm0,1.3v4.38c0,.44-.17.45-1.41.45a1,1,0,0,0-.12-.3l.8,0c.42,0,.46,0,.46-.17V52.48H61.95V54.3h-.27V49.44Zm-.27.27H61.95V50.8h2.53Zm-2.53,2.5h2.53V51.07H61.95Zm6.57-2.57c.41,0,.49-.17.52-1.18a.75.75,0,0,0,.27.13c0,1.05-.15,1.32-.78,1.32H66.64c-.68,0-.88-.1-.88-.6V46l.4,0s0,.08-.13.09v1.63a22.86,22.86,0,0,0,2.6-.95l.27.26a.08.08,0,0,1-.06,0h-.08A26.28,26.28,0,0,1,66,48v1.32c0,.27.09.33.58.33ZM66,53.55c0,.28.1.35.62.35h2c.46,0,.53-.19.57-1.32a.88.88,0,0,0,.27.12c-.05,1.18-.16,1.47-.83,1.47h-2c-.7,0-.91-.1-.91-.61V50.24l.4,0s0,.08-.13.09v1.52a11.74,11.74,0,0,0,2.75-1l.24.27a.08.08,0,0,1-.06,0h-.07a12.94,12.94,0,0,1-2.86,1Z"/><path class="cls-1" d="M73.45,46.62c0,.1-.13.14-.31.13a22.34,22.34,0,0,0-.47,4.12A11.83,11.83,0,0,0,72.82,53l.76-2,.27.1c-.41,1.1-.66,1.63-.77,2a1.49,1.49,0,0,0-.07.41.81.81,0,0,0,0,.26l-.29.08a9.13,9.13,0,0,1-.39-3,24.16,24.16,0,0,1,.51-4.38Zm6,6.48-1,0A12.08,12.08,0,0,1,76.69,53c-1-.15-1.53-.73-1.53-1.42a2.73,2.73,0,0,1,.89-1.69l.24.16a2.36,2.36,0,0,0-.84,1.52c0,.52.43,1,1.31,1.15a10.6,10.6,0,0,0,1.56.1c.35,0,.72,0,1.08,0Zm-4.2-5.28a27.42,27.42,0,0,0,4-.35l0,.3a32.52,32.52,0,0,1-4,.35Z"/><path class="cls-1" d="M89.36,53.37a8.92,8.92,0,0,0-3.05-1.57c0,.26,0,.77,0,1,0,.83-.62,1.25-1.59,1.25s-2-.49-2-1.4c0-.76.86-1.32,2-1.34a5.82,5.82,0,0,1,1.23.12c0-.32-.05-.59-.07-.85-.07-1.15-.13-2.9-.13-4.37l.57,0c0,.09-.08.17-.24.19v1.82A22.76,22.76,0,0,0,89.28,48l0,.31a27.12,27.12,0,0,1-3.2.26c0,.69,0,1.27.09,2,0,.28.06.63.08.95a10,10,0,0,1,3.25,1.63ZM86,52.29c0-.19,0-.39,0-.54a4.48,4.48,0,0,0-1.14-.13c-1.22,0-1.83.5-1.83,1.05,0,.74.8,1.11,1.64,1.11s1.34-.36,1.34-1Z"/><path class="cls-1" d="M94.37,50.07A6,6,0,0,1,97,49.42a2.06,2.06,0,0,1,2.34,2.1c0,1.64-1.45,2.52-3.14,2.52-1.18,0-2-.42-2-1.14a1.27,1.27,0,0,1,1.4-1.12,2,2,0,0,1,1.84,1.77,2.12,2.12,0,0,0,1.58-2A1.81,1.81,0,0,0,97,49.7a5.58,5.58,0,0,0-3.47,1.23c-.3.29-.64.68-.89,1l-.22-.22c.92-1,3.71-3.67,4.94-4.83-.58.08-2.55.14-3.79.18a.25.25,0,0,1-.16.13l-.06-.42c1.27,0,3.45-.09,4.14-.19l.13-.06.32.34a.46.46,0,0,1-.19.08c-.76.64-2.66,2.47-3.33,3.14Zm1.78,3.69a4.05,4.05,0,0,0,1-.13,1.71,1.71,0,0,0-1.58-1.58c-.58,0-1.11.32-1.11.84S95.39,53.76,96.15,53.76Z"/><path class="cls-1" d="M4.86,63.4H2.59v6.52H2.28V63.4H0v-.28H4.86Z"/><path class="cls-1" d="M12.15,63.12,9.6,69.91H9.31L7,63.12h.35l1.26,3.77c.34,1,.62,1.85.82,2.6h0c.21-.76.52-1.63.89-2.6l1.41-3.77Z"/><path class="cls-1" d="M19.13,69.66a4.35,4.35,0,0,1-1.85.35c-1.56,0-3.16-1-3.16-3.47A3.28,3.28,0,0,1,17.52,63a3.42,3.42,0,0,1,1.56.3l-.13.26a3.06,3.06,0,0,0-1.4-.31,3,3,0,0,0-3.11,3.31,2.87,2.87,0,0,0,3,3.18A3.54,3.54,0,0,0,19,69.42Z"/><path class="cls-1" d="M28.34,69.91H28l-.21-3.31c-.08-1.19-.16-2.37-.15-3h0c-.25.71-.52,1.47-.94,2.51l-1.52,3.86H25l-1.43-3.76c-.41-1.11-.7-1.88-.91-2.61h0c0,.78-.07,2-.16,3.14l-.22,3.21H21.9l.5-6.8h.33l1.58,4.17c.32.88.57,1.53.77,2.16h0c.18-.6.42-1.19.78-2.12l1.64-4.2h.36Z"/><path class="cls-1" d="M34.19,64.31l.18.06a.19.19,0,0,1,0,.07,11.43,11.43,0,0,1-.95,3.93,7.07,7.07,0,0,1,1.12,1l-.17.23a6.91,6.91,0,0,0-1.07-1,4.87,4.87,0,0,1-1.87,2,1.18,1.18,0,0,0-.2-.23,4.59,4.59,0,0,0,1.85-2,11.56,11.56,0,0,0-1.4-.89L31.5,68l-.25-.13c.24-.82.57-2.07.86-3.3h-1v-.27h1.11c.16-.7.31-1.39.43-2l.41.06c0,.05-.05.08-.14.08-.12.53-.26,1.16-.42,1.82h1.69Zm-1.81.29c-.23.95-.47,1.92-.68,2.72a13.77,13.77,0,0,1,1.46.89A10.65,10.65,0,0,0,34,64.59Zm7,1.84v.27H37v3.45c0,.28-.08.39-.31.44a8.33,8.33,0,0,1-1.47,0,1.76,1.76,0,0,0-.12-.28l1,0c.56,0,.59,0,.59-.22V66.7H34.35v-.27h2.41V64.8l.25,0a8.77,8.77,0,0,0,1.69-1.72h-4v-.27h4.17l.06,0,.23.15a.19.19,0,0,1-.09.05A10,10,0,0,1,37,65.12v1.31Z"/><path class="cls-1" d="M42.86,63.64v1.09a5.59,5.59,0,0,1-1,3.43.57.57,0,0,0-.21-.18,5.28,5.28,0,0,0,.9-3.25V63.37h3.73a7.87,7.87,0,0,1-.13-1l.44,0c0,.06-.05.09-.14.1,0,.3.05.6.1.9h3.36v.27h-3.3a9.09,9.09,0,0,0,.93,2.48,7.46,7.46,0,0,0,1-1.83l.39.12c0,.05-.08.08-.17.08a7.45,7.45,0,0,1-1.07,1.88c.53.85,1.13,1.41,1.65,1.4.27,0,.37-.33.42-1.22a.76.76,0,0,0,.25.13c-.07,1-.23,1.37-.67,1.37-.6,0-1.26-.58-1.82-1.47a6.88,6.88,0,0,1-1.6,1.4,1,1,0,0,0-.21-.18,6.42,6.42,0,0,0,1.66-1.45,9.36,9.36,0,0,1-1-2.72Zm.43,4.86a2.41,2.41,0,0,1-1.35,1.84l-.21-.16a2.29,2.29,0,0,0,1.31-1.74Zm-.06-3.83v-.27h2.92v.27Zm2.63,2.48H43.78v.37h-.27V65.38h2.35Zm-.27-1.51H43.78v1.24h1.81ZM44.42,70c0,.21.09.25.63.25h2c.44,0,.5-.12.54-1.05a.88.88,0,0,0,.27.12c0,1-.16,1.21-.79,1.21h-2c-.73,0-.93-.07-.93-.53V68.42l.41,0s0,.08-.13.09Zm2-.9A5.94,5.94,0,0,0,44.72,68l.18-.19a5.63,5.63,0,0,1,1.75,1.07Zm1.25-6.73a4.44,4.44,0,0,1,1.36.66l-.16.23a4.56,4.56,0,0,0-1.36-.68Zm2.09,8A6.4,6.4,0,0,0,48,68.55l.21-.15A6.29,6.29,0,0,1,50,70.15Z"/><path class="cls-1" d="M60.88,63.62H53.67v2.44a10.07,10.07,0,0,1-.85,4.63.78.78,0,0,0-.23-.16,9.58,9.58,0,0,0,.81-4.47V63.35h3.5v-1l.41,0s0,.08-.13.09v.86h3.71Zm-1.19,4,.2.12a.24.24,0,0,1-.07.06,4.75,4.75,0,0,1-2.05,1.81,10.9,10.9,0,0,0,3.18.82.89.89,0,0,0-.16.24,11.26,11.26,0,0,1-3.3-.93,12.15,12.15,0,0,1-3.46.91.94.94,0,0,0-.13-.24,11.9,11.9,0,0,0,3.31-.81A4.82,4.82,0,0,1,55.37,68l.23-.11a4.61,4.61,0,0,0,1.87,1.55,4.59,4.59,0,0,0,1.94-1.57h-5.2v-.27h5.41ZM59,66.78H55.76V65.2H54.13v-.27h1.64V64l.41,0s0,.08-.13.09v.82h2.73V64l.41,0s0,.08-.13.09v.82h1.78v.27H59Zm-.27-1.58H56v1.31h2.73Z"/><path class="cls-1" d="M71.31,65.78l.2.07a.12.12,0,0,1-.06.07,14.27,14.27,0,0,1-2.09,2.13l-.21-.14A12.46,12.46,0,0,0,71,66.06H67.65s0,.07-.13.09v4c0,.26-.08.37-.31.42a8.72,8.72,0,0,1-1.53,0,1.33,1.33,0,0,0-.12-.27h.95c.72,0,.74,0,.74-.21V66.06H63.4v-.27h5.25a14.34,14.34,0,0,0-3.18-1.65l.19-.23a16,16,0,0,1,1.94.86,11.54,11.54,0,0,0,2.29-1.59H64.23v-.27h5.86a.31.31,0,0,0,.15,0l.25.19a.13.13,0,0,1-.1,0,14,14,0,0,1-2.51,1.82,7.92,7.92,0,0,1,1.11.7l-.11.14h2.42Z"/><path class="cls-1" d="M75.52,66.09a7,7,0,0,0-1.58-.94l.15-.2a6,6,0,0,1,1.58.9Zm-1.36,4.24a28.45,28.45,0,0,0,1.36-2.92l.21.16a28,28,0,0,1-1.27,2.79.19.19,0,0,1,0,.11.2.2,0,0,1,0,.07Zm1.68-6.63a6.42,6.42,0,0,0-1.46-1l.17-.19a6.37,6.37,0,0,1,1.46,1Zm1.49,5.11a.17.17,0,0,1-.16.07,6.06,6.06,0,0,1-1.39,1.77,1.38,1.38,0,0,0-.21-.19,5.39,5.39,0,0,0,1.36-1.79Zm-.91-6H79V68.4H76.42Zm.27.27v1.49h2V63.08Zm0,1.76v1.49h2V64.85Zm0,1.76v1.52h2V66.61Zm2.57,3.68a11.07,11.07,0,0,0-1.13-1.47l.22-.13a11.38,11.38,0,0,1,1.13,1.43Zm.66-7,.4,0s0,.08-.13.09v5.07h-.27Zm1.68-1,.41,0c0,.05,0,.08-.13.09v7.66c0,.29-.11.39-.31.44a7.47,7.47,0,0,1-1.37.05,2.15,2.15,0,0,0-.12-.27h.72c.75,0,.8,0,.8-.23Z"/><path class="cls-1" d="M85.09,65.24a14.39,14.39,0,0,1,2.5.79l-.12.28A14.76,14.76,0,0,0,85,65.52Zm.75,4.56A9.65,9.65,0,0,0,92,64.38a2,2,0,0,0,.25.16A9.84,9.84,0,0,1,86.19,70a.19.19,0,0,1-.08.21ZM86,63a14.4,14.4,0,0,1,2.48.87l-.12.27a14.47,14.47,0,0,0-2.46-.87Z"/><path class="cls-1" d="M100.65,63.46a.11.11,0,0,1-.09.06,14.36,14.36,0,0,1-1.88,3.19,33.42,33.42,0,0,1,3.5,3.24l-.24.19a31.52,31.52,0,0,0-3.45-3.21,13.8,13.8,0,0,1-3.66,3.21,1.53,1.53,0,0,0-.21-.23,13.76,13.76,0,0,0,5.55-6.3H95.5v-.29h4.81l.07,0Z"/><path class="cls-1" d="M112.08,65.9h-3.2l.13,0c0,.05-.07.09-.16.1A4.91,4.91,0,0,1,106,70.31a1.59,1.59,0,0,0-.21-.23c1.94-.9,2.52-2.31,2.75-4.19h-3.7v-.29h7.21Zm-.87-2.56h-5.53v-.29h5.53Z"/><path class="cls-1" d="M121.69,70.1c-.13-.27-.3-.59-.5-.95-1.81.18-5.29.36-6.71.44a.25.25,0,0,1-.15.17l-.14-.45,1,0c.62-1.77,1.55-4.56,2.09-6.41l.47.14c0,.08-.11.11-.23.11-.54,1.75-1.38,4.35-2,6.15,1.78-.08,4.2-.24,5.57-.37a18.57,18.57,0,0,0-1.86-2.49l.24-.15A17.62,17.62,0,0,1,122,70Z"/><path class="cls-1" d="M124.94,68.34a18.81,18.81,0,0,1,2.1,2l-.26.25a18.67,18.67,0,0,0-2.06-2.08Z"/><path class="cls-1" d="M15.93,79.93H14v5.64H12.78V78.72h3.15Zm-.2-1H13v6.45h.85V79.73h1.91Z"/><path class="cls-1" d="M23.49,86a4.36,4.36,0,0,1-1.85.35c-1.56,0-3.16-1-3.16-3.47a3.28,3.28,0,0,1,3.41-3.54,3.42,3.42,0,0,1,1.56.3l-.13.26a3.06,3.06,0,0,0-1.4-.31,3,3,0,0,0-3.11,3.31,2.87,2.87,0,0,0,3,3.18,3.54,3.54,0,0,0,1.57-.33Z"/><path class="cls-1" d="M28.62,83a1.74,1.74,0,0,1,1.07,1.47,7.87,7.87,0,0,0,.5,1.83h-.33a9.23,9.23,0,0,1-.44-1.67c-.22-1-.65-1.52-1.58-1.52H26.69v3.2h-.31V79.58a7.09,7.09,0,0,1,1.38-.14,2.26,2.26,0,0,1,1.76.58A1.7,1.7,0,0,1,30,81.2,1.79,1.79,0,0,1,28.62,83Zm-.82-.16a1.63,1.63,0,0,0,1.84-1.57c0-1.21-.95-1.57-1.94-1.57a4.27,4.27,0,0,0-1,.12v3Z"/><path class="cls-1" d="M36.53,86.28H33.14v-6.8h3.22v.28H33.46v2.79H36.2v.28H33.46V86h3.07Z"/><path class="cls-1" d="M44.4,86.28h-.31l-.92-2.48H40.37l-.9,2.48h-.32l2.52-6.8h.23Zm-1.33-2.75-.9-2.42a12.51,12.51,0,0,1-.38-1.2h0c-.13.47-.22.75-.38,1.18l-.92,2.44Z"/><path class="cls-1" d="M50.5,79.77H48.23v6.52h-.32V79.77H45.63v-.28H50.5Z"/><path class="cls-1" d="M53.13,79.49h.31v6.8h-.31Z"/><path class="cls-1" d="M61.25,79.49l-2.55,6.8h-.29l-2.27-6.8h.35l1.26,3.77c.34,1,.62,1.85.82,2.6h0c.21-.76.52-1.63.89-2.6l1.41-3.77Z"/><path class="cls-1" d="M67.28,86.28H63.89v-6.8h3.22v.28H64.21v2.79H67v.28H64.21V86h3.07Z"/><path class="cls-1" d="M76.35,82.67a1.82,1.82,0,0,1,1,3,2.73,2.73,0,0,1-2.07.66c-.48,0-.85,0-1.1-.05V79.59a5.39,5.39,0,0,1,1.27-.15c1.71,0,2.11.86,2.11,1.68a1.65,1.65,0,0,1-1.18,1.51Zm-.81-.13a1.49,1.49,0,0,0,1.66-1.41h0c0-1-.77-1.4-1.84-1.4a3.77,3.77,0,0,0-.89.09v2.74ZM74.47,86a3.43,3.43,0,0,0,.87.07c1.09,0,2.13-.41,2.13-1.64s-1-1.64-2.09-1.64h-.91Z"/><path class="cls-1" d="M83.13,83a1.74,1.74,0,0,1,1.07,1.47,7.87,7.87,0,0,0,.5,1.83h-.33a9.23,9.23,0,0,1-.44-1.67c-.22-1-.65-1.52-1.58-1.52H81.19v3.2h-.31V79.58a7.09,7.09,0,0,1,1.38-.14A2.26,2.26,0,0,1,84,80a1.7,1.7,0,0,1,.46,1.19A1.79,1.79,0,0,1,83.13,83Zm-.82-.16a1.63,1.63,0,0,0,1.84-1.57c0-1.21-.95-1.57-1.94-1.57a4.27,4.27,0,0,0-1,.12v3Z"/><path class="cls-1" d="M92.53,86.28h-.31l-.92-2.48H88.51l-.9,2.48h-.32l2.52-6.8H90ZM91.2,83.54l-.9-2.42a12.51,12.51,0,0,1-.38-1.2h0c-.13.47-.22.75-.38,1.18l-.92,2.44Z"/><path class="cls-1" d="M95.38,79.49h.31v6.8h-.31Z"/><path class="cls-1" d="M103.77,86.28h-.32l-2.74-4.16c-.51-.79-1-1.46-1.31-2.14h0c.05.71.05,1.13.05,2.64v3.66h-.31v-6.8h.3l2.82,4.25a22.92,22.92,0,0,1,1.27,2.09l0,0c-.06-.91-.06-1.65-.06-2.72v-3.6h.32Z"/><path class="cls-1" d="M106.77,85.8h1.91V80.16h1.24V87h-3.15Zm.2,1h2.75V80.36h-.85V86H107Z"/><path class="cls-1" d="M115.59,85.74a1.26,1.26,0,1,1-1.26-1.26A1.26,1.26,0,0,1,115.59,85.74Zm-.27,0a1,1,0,1,0-1,1A1,1,0,0,0,115.32,85.74Z"/><line class="cls-2" x1="28.84" y1="6.04" x2="33.62" y2="6.04"/><polyline class="cls-2" points="30.76 0.09 36.49 6.04 30.76 11.99"/></g></g></svg>