<svg xmlns="http://www.w3.org/2000/svg" xmlns:xlink="http://www.w3.org/1999/xlink" viewBox="0 0 119.92 435.18"><defs><style>.cls-1{fill:#fff;}.cls-2{fill:none;stroke:#fff;stroke-miterlimit:10;stroke-width:0.5px;}</style></defs><title>project2_small</title><g id="Layer_2" data-name="Layer 2"><g id="レイヤー_1" data-name="レイヤー 1"><path class="cls-1" d="M15,48.56a.47.47,0,0,1-.09.1A9.45,9.45,0,0,1,10,54.78a.9.9,0,0,0-.19-.22,9.09,9.09,0,0,0,4.79-5.81H11A9.22,9.22,0,0,1,8.9,51.09a1.63,1.63,0,0,0-.22-.19,9.52,9.52,0,0,0,2.91-4l.44.17c0,.09-.14.1-.23.09a11.71,11.71,0,0,1-.64,1.27h3.59l.06,0Z"/><path class="cls-1" d="M18.35,51.88V47.56l.48,0c0,.06-.07.13-.19.14v4.15Zm4.8-4.65c0,.08-.07.13-.19.14v2.9a4.38,4.38,0,0,1-3.29,4.53,1.08,1.08,0,0,0-.19-.23c2.58-.94,3.19-2.51,3.19-4.29V47.19Z"/><path class="cls-1" d="M26.25,48.32h6.17v.29h-3v4.83h3.61v.29H25.62v-.29h3.56V48.61H26.25Z"/><path class="cls-1" d="M41.74,47.36a.19.19,0,0,1-.13.06l-.12,0a21.15,21.15,0,0,1-2.65,2.23l.15.09s-.08.08-.14.09v4.92h-.29V49.82a26.23,26.23,0,0,1-3.74,2.24,2.28,2.28,0,0,0-.17-.23,24.44,24.44,0,0,0,6.72-4.75Z"/><path class="cls-1" d="M51,50.26h-3.2l.14,0c0,.05-.07.09-.16.1a4.91,4.91,0,0,1-2.84,4.28,1.59,1.59,0,0,0-.21-.23c1.94-.9,2.52-2.31,2.75-4.19h-3.7V50H51Zm-.87-2.56H44.59v-.29h5.53Z"/><path class="cls-1" d="M58.48,49a.17.17,0,0,1-.13.05l-.14,0a14.78,14.78,0,0,1-2,1.72l.17.07a.22.22,0,0,1-.12.07v4H56v-4a24.79,24.79,0,0,1-3.21,1.88c0-.05-.11-.18-.15-.23a22.06,22.06,0,0,0,3.4-2,14.19,14.19,0,0,0,2.12-1.84Z"/><path class="cls-1" d="M67.13,48.22a.13.13,0,0,1-.08.05,7.79,7.79,0,0,1-5.45,6.48,2.41,2.41,0,0,0-.17-.24,7.44,7.44,0,0,0,5.29-6.1H60.66v-.29h6.17l.06,0Zm-.68-1.29a7,7,0,0,1,1.21,1.37l-.23.16a6.92,6.92,0,0,0-1.18-1.35Zm1-.54a6.81,6.81,0,0,1,1.16,1.37l-.23.15a6,6,0,0,0-1.15-1.35Z"/><path class="cls-1" d="M77.59,49.45h-2v.77a4.47,4.47,0,0,1-2.93,4.51,1.59,1.59,0,0,0-.21-.22,4.23,4.23,0,0,0,2.84-4.28v-.79H71.95v2.39h-.29V49.45H69.75v-.29h1.91V47.11l.49,0c0,.08-.08.14-.2.15v1.86h3.32V47l.48,0a.19.19,0,0,1-.19.14v2h2Z"/><path class="cls-1" d="M81.5,50.82a7.41,7.41,0,0,1-1.78,2.7l-.23-.18a6.48,6.48,0,0,0,1.73-2.63Zm1.89-1.46V54a.62.62,0,0,1-.57.69,10.07,10.07,0,0,1-1.41,0,1.7,1.7,0,0,0-.1-.3c.59,0,1.25,0,1.39,0a.4.4,0,0,0,.41-.42V49.36H79.88v-.29h3.22v-2l.46,0c0,.07-.06.13-.17.14v1.84h3.2v.29ZM85,50.67a17.41,17.41,0,0,1,2,2.71l-.26.15a17.58,17.58,0,0,0-2-2.71Zm1.26-4.16a1,1,0,1,1-1,1A1,1,0,0,1,86.27,46.51Zm.76,1a.76.76,0,1,0-.76.77A.76.76,0,0,0,87,47.54Z"/><path class="cls-1" d="M88.56,50.54h7.52v.3h-7.2a.34.34,0,0,1-.26.16Z"/><path class="cls-1" d="M103.32,51.57A35.72,35.72,0,0,0,99.93,50v4.71h-.3V47l.51,0c0,.09-.08.14-.22.16v2.7l.07-.12a34.33,34.33,0,0,1,3.49,1.57Z"/><path class="cls-1" d="M113.06,47.4v7c0,.31-.1.44-.34.5a10.41,10.41,0,0,1-1.66,0,1.46,1.46,0,0,0-.12-.28h.88c1,0,1,0,1-.26V52.06h-3v2.89h-.27V52.06h-2.74a5.3,5.3,0,0,1-1.14,3,.68.68,0,0,0-.2-.2,6.05,6.05,0,0,0,1.13-4.09V47.4Zm-6.23,3.36c0,.32,0,.67,0,1h2.71v-1.9h-2.67Zm2.67-3.09h-2.67v1.94h2.67Zm3.29,0h-3v1.94h3Zm-3,4.11h3v-1.9h-3Z"/><path class="cls-1" d="M33.07,68.09l.34,3-.29,0-.33-3-3.53.45-.05-.28,3.55-.45-.26-2.33-3,.39,0-.28,3-.39-.21-1.88.5,0c0,.08-.08.14-.19.17l.19,1.68,2.9-.38,0,.29-2.9.38L33,67.81l3.54-.45,0,.28Z"/><path class="cls-1" d="M38.77,66.91h7.52v.3h-7.2a.34.34,0,0,1-.26.16Z"/><path class="cls-1" d="M55.18,64.27a.17.17,0,0,1-.08.05c-.34,3.62-1.65,5.47-4.57,6.64a2.5,2.5,0,0,0-.2-.23c2.88-1.16,4.14-2.94,4.46-6.29H49.05v2.61h-.28v-2.9h6.09l.08-.06Z"/><path class="cls-1" d="M57.33,66.91h7.52v.3h-7.2a.34.34,0,0,1-.26.16Z"/><path class="cls-1" d="M72.09,67.94a35.72,35.72,0,0,0-3.39-1.55V71.1h-.3V63.34l.51,0c0,.09-.08.13-.22.16v2.7l.07-.12a34.33,34.33,0,0,1,3.49,1.57Zm-1.1-4a7.93,7.93,0,0,1,1.32,1.4l-.21.17a8.26,8.26,0,0,0-1.31-1.38Zm1.19-.75a8.19,8.19,0,0,1,1.31,1.39l-.2.17A8.26,8.26,0,0,0,72,63.33Z"/><path class="cls-1" d="M76.62,67.31a2.74,2.74,0,0,0,2.13.85h1.09c1.13,0,2.59,0,3.37-.05a.92.92,0,0,0-.1.28c-.44,0-1.11,0-1.8,0,0,0-.05.06-.13.08v.66h2v.27h-2v1.52c0,.23-.06.32-.27.38a8.37,8.37,0,0,1-1.49,0,1.22,1.22,0,0,0-.12-.24h.8c.81,0,.81,0,.81-.18V69.42h-6v-.27h6v-.73l-2.13,0a3,3,0,0,1-2.27-.85c-.46.32-.91.64-1.3.89,0,.06,0,.09-.06.11L75,68.24a15.39,15.39,0,0,0,1.4-.89V65.88H75v-.27h1.64Zm-1.2-4a5.31,5.31,0,0,1,1.23,1.15l-.22.19a5.31,5.31,0,0,0-1.22-1.19ZM78,70.94a5.88,5.88,0,0,0-1.48-1.12l.19-.18a6,6,0,0,1,1.49,1.09Zm-.1-6h1.77c.06-.19.13-.42.18-.63h-2.7V64H79a3.7,3.7,0,0,0-.68-.79l.23-.13a3.47,3.47,0,0,1,.75.88l-.06,0h1.62a7.53,7.53,0,0,0,.58-.93l.35.14a.13.13,0,0,1-.14.06c-.13.2-.32.49-.5.72h1.94v.27h-3c-.05.18-.12.42-.18.63h2.4V67.6H77.91Zm4.17.79v-.52h-3.9v.52Zm0,.8V66h-3.9v.53Zm0,.82v-.55h-3.9v.55Z"/><path class="cls-1" d="M92,67.65l.41,0s0,.08-.14.09v3.57H92v-.59H85.61v.63h-.27V67.65l.4,0s0,.08-.13.09v2.7h3V67H85.68V64l.41,0s0,.08-.14.09V66.7h2.67V63.1l.41,0s0,.08-.13.09V66.7h2.76V64l.41,0s0,.08-.14.09V67h-3v3.51H92Z"/><path class="cls-1" d="M3.83,90.36H2.06v5.07H1.82V90.36H0v-.22H3.83Z"/><path class="cls-1" d="M9.83,90.15l-2,5.29H7.63L5.86,90.15h.27l1,2.94c.27.79.48,1.44.64,2h0c.16-.59.41-1.27.69-2l1.1-2.94Z"/><path class="cls-1" d="M15.61,95.24a3.39,3.39,0,0,1-1.44.27,2.41,2.41,0,0,1-2.46-2.7,2.55,2.55,0,0,1,2.66-2.75,2.66,2.66,0,0,1,1.21.23l-.1.2a2.38,2.38,0,0,0-1.09-.24A2.32,2.32,0,0,0,12,92.84a2.23,2.23,0,0,0,2.33,2.47A2.75,2.75,0,0,0,15.52,95Z"/><path class="cls-1" d="M23.14,95.43h-.25l-.16-2.58c-.06-.92-.13-1.84-.12-2.37h0c-.2.55-.41,1.14-.73,2l-1.18,3h-.16L19.4,92.52c-.32-.86-.55-1.46-.71-2h0c0,.61-.06,1.53-.13,2.44l-.17,2.5h-.25l.39-5.29h.26L20,93.39c.25.69.44,1.19.6,1.68h0c.14-.47.33-.92.61-1.65l1.27-3.27h.28Z"/><path class="cls-1" d="M29,90.57a.14.14,0,0,1-.15.1c-.22,2-1,4.29-2.1,4.29-.47,0-1-.56-1-1.6a3,3,0,0,1,3.11-3.08,2.55,2.55,0,0,1,2.82,2.62c0,1.68-1,2.45-2.68,2.8l-.12-.21c1.62-.31,2.58-1.1,2.58-2.58A2.34,2.34,0,0,0,28.9,90.5h-.11Zm-.36-.06A2.84,2.84,0,0,0,26,93.36c0,.86.42,1.37.78,1.37C27.73,94.73,28.44,92.62,28.66,90.5Z"/><path class="cls-1" d="M39.45,90.89a.08.08,0,0,1-.06,0,8.72,8.72,0,0,1-1.07,2.4,11.53,11.53,0,0,1,1,.64l-.14.19a9.28,9.28,0,0,0-1-.64,6.78,6.78,0,0,1-2.65,2.3.62.62,0,0,0-.17-.16A6.8,6.8,0,0,0,38,93.42a12.36,12.36,0,0,0-1.8-.82l.11-.2a13.32,13.32,0,0,1,1.81.83,8,8,0,0,0,1-2.19H36.43a7.34,7.34,0,0,1-1.7,2.05l-.17-.15a8,8,0,0,0,2.26-3.25l.34.1c0,.06-.08.08-.17.07-.11.27-.29.67-.45,1h2.65l.06,0Z"/><path class="cls-1" d="M42.28,92.53h5.85v.23h-5.6a.27.27,0,0,1-.2.13Z"/><path class="cls-1" d="M56.59,91.51v.22H54.68a.15.15,0,0,1-.12.08,4.93,4.93,0,0,1-2.4,4,1.37,1.37,0,0,0-.19-.15,4.6,4.6,0,0,0,2.38-3.93H52.12A6,6,0,0,1,51,93.26a.64.64,0,0,0-.19-.13,7.39,7.39,0,0,0,1.95-3.35l.39.1a.17.17,0,0,1-.18.09,11.12,11.12,0,0,1-.68,1.53Zm-1.54-1.67A5.07,5.07,0,0,1,56,90.9l-.17.13a4.81,4.81,0,0,0-.93-1Zm.93-.41a5.12,5.12,0,0,1,.95,1.06l-.17.13a4.84,4.84,0,0,0-.93-1Z"/><path class="cls-1" d="M59.91,91.63a7.92,7.92,0,0,1,.55,1.53l-.2,0a7.67,7.67,0,0,0-.54-1.5Zm4.25,0s-.06.06-.13.06a5.34,5.34,0,0,1-3.29,4l-.13-.17a5.13,5.13,0,0,0,3.23-4Zm-2.53-.34a9.72,9.72,0,0,1,.32,1.62l-.2,0a8.71,8.71,0,0,0-.32-1.6Z"/><path class="cls-1" d="M71.25,93.33a27.65,27.65,0,0,0-2.64-1.21v3.66h-.23v-6l.4,0c0,.07-.06.1-.17.13V92l.06-.09a26.81,26.81,0,0,1,2.72,1.22Z"/><path class="cls-1" d="M75.68,96.41a4.74,4.74,0,0,1-1.13-3.2A4.87,4.87,0,0,1,75.68,90H76a4.8,4.8,0,0,0-1.14,3.25A4.87,4.87,0,0,0,76,96.41Z"/><path class="cls-1" d="M84.18,94.1v.21H81.42V96h-.21V94.31H77.8V94.1H79v-2h2.19V90.75h-2A6.46,6.46,0,0,1,78,92.23a1.09,1.09,0,0,0-.17-.12,6.81,6.81,0,0,0,1.72-2.58l.3.1s-.07.06-.13.06a8.09,8.09,0,0,1-.41.86h4.54v.21H81.42v1.37h2.31v.21H81.42V94.1Zm-4.94,0h2V92.33h-2Z"/><path class="cls-1" d="M89.91,91.45v.21H86.47v-.21h.6V90l.32,0s0,.06-.11.07v1.36h.9V89.56l.32,0s0,.06-.11.07v.65h1.27v.21H88.39v.93Zm-.23.51a6.2,6.2,0,0,0,1.48-2.41l.34,0a.11.11,0,0,1-.08.08,8,8,0,0,0,1.48,2.21l-.15.18a8.58,8.58,0,0,1-1.48-2.23,6.87,6.87,0,0,1-1.46,2.32.39.39,0,0,0-.07-.08.12.12,0,0,1-.09,0v3.85h-.21v-.47H87V96h-.21V92l.32,0s0,.06-.11.07v3.17h2.48V92l.27,0Zm-.41,1.56h-.95v.18l.93.74-.13.17c-.15-.15-.54-.48-.8-.68v1.15h-.21V93.69a4,4,0,0,1-.9,1.17,1,1,0,0,0-.13-.18,3.67,3.67,0,0,0,.9-1.16h-.83v-.21h1V92l.32,0s0,.06-.1.07v1.17h.95Zm-1.65-.45a2.38,2.38,0,0,0-.35-.81l.17-.06a2.34,2.34,0,0,1,.37.81Zm1,0a5.69,5.69,0,0,0,.39-.85l.27.1a.11.11,0,0,1-.11.06c-.1.22-.25.53-.38.76Zm4-.12v1.94c0,.15,0,.23-.17.27a3.07,3.07,0,0,1-.83,0,1.08,1.08,0,0,0-.09-.21h.57c.28,0,.31,0,.31-.11V93.12H91.16V96H91V93.12h-.89v-.21Zm-2.25-1.16h1.89V92H90.35Z"/><path class="cls-1" d="M97.22,92.77a.6.6,0,1,1-.6-.6A.6.6,0,0,1,97.22,92.77Z"/><path class="cls-1" d="M101,90.93a3.87,3.87,0,0,1-.4,1.79l-.19-.09a3.89,3.89,0,0,0,.39-1.73Zm.48,5V89.55l.31,0s0,.06-.1.07V96Zm.69-5.31a5.75,5.75,0,0,1,.53,1.13l-.18.12a6.16,6.16,0,0,0-.53-1.17Zm2.62,4.83h2v.21h-4.42V95.5h2.16v-2H102.9v-.21h1.63V91.53h-1.32a6.08,6.08,0,0,1-.57,1.26l-.17-.09a8.85,8.85,0,0,0,1-2.82l.32.08s-.06.06-.13.06a11.67,11.67,0,0,1-.34,1.29h1.25V89.55l.31,0s0,.06-.1.07v1.67h1.82v.21h-1.82v1.79h1.63v.21h-1.62Z"/><path class="cls-1" d="M109.59,92.07V89.88h2.72v2.19h-1.62c0,.3-.06.64-.11,1h1.6l.12,0s0,.06,0,.09c-.09,1.87-.17,2.49-.35,2.69s-.25.14-.54.14-.48,0-.76,0a.52.52,0,0,0-.06-.2c.41,0,.81,0,.92,0s.2,0,.25-.07.24-.77.32-2.46h-1.53a4.5,4.5,0,0,1-1.2,2.72.93.93,0,0,0-.16-.11c.95-.81,1.19-2.54,1.27-3.8Zm.21-2v1.77h2.3V90.09Zm3.42,4.2V90.4l.32,0s0,.06-.11.07v3.78Zm1.82-4.6.31,0s0,.06-.1.07v5.83c0,.23-.09.31-.25.36a6.32,6.32,0,0,1-1.16,0,1.26,1.26,0,0,0-.1-.2h.62c.63,0,.68,0,.68-.19Z"/><path class="cls-1" d="M118,90a5.12,5.12,0,0,1,0,6.44h-.27a4.91,4.91,0,0,0,1.14-3.23A4.81,4.81,0,0,0,117.72,90Z"/><path class="cls-1" d="M4.9,103.06h.27a1.35,1.35,0,1,1,0,2.68,2.59,2.59,0,0,1-1.47-.51,1.15,1.15,0,0,0,.09-.21,2.38,2.38,0,0,0,1.39.5,1.11,1.11,0,0,0,1.26-1.15c0-.67-.49-1.08-1.25-1.08a10.22,10.22,0,0,0-2.58.65c.29,1,.76,2.76,1.06,3.89l-.25.06c-.25-1.06-.75-2.88-1-3.87l-1.55.53a.2.2,0,0,1-.11.15l-.14-.31,1.74-.58c-.23-.78-.43-1.46-.54-1.8l.44-.09c0,.09,0,.13-.15.19.2.68.32,1.09.47,1.63a13,13,0,0,1,2.28-.64,6.4,6.4,0,0,0-1.36-1.25l.15-.16A6.33,6.33,0,0,1,5,103Z"/><path class="cls-1" d="M9.67,106.21a14.69,14.69,0,0,1,1.63,1.59l-.2.2a14.55,14.55,0,0,0-1.6-1.62Z"/><path class="cls-1" d="M15.33,101.63a4.18,4.18,0,0,1,.76,1,6,6,0,0,0,.72-1.05l.26.14a.11.11,0,0,1-.11,0,6.43,6.43,0,0,1-.77,1.06,8.22,8.22,0,0,1,.15,5c-.12.16-.27.2-.72.2H15.3a.52.52,0,0,0-.08-.22h.43c.27,0,.45,0,.53-.12a5.92,5.92,0,0,0,.27-2.29c0-.29,0-.57,0-.85a5.71,5.71,0,0,1-1.28,1.67A.73.73,0,0,0,15,106a4.9,4.9,0,0,0,1.39-1.85A4.37,4.37,0,0,0,16,103a9.14,9.14,0,0,1-.88.85l-.15-.12a8.24,8.24,0,0,0,.95-.91,4,4,0,0,0-.78-1Zm2.23,4v-2a4.5,4.5,0,0,1-.62.71,1,1,0,0,0-.16-.13A5,5,0,0,0,18,102.59l.29.1s-.06.06-.13.06c-.08.17-.17.34-.27.5h1.29a5.72,5.72,0,0,0,.32-.61l.29.1s-.06.06-.12.06a4.15,4.15,0,0,1-.27.46h1.94v.21H19.44v.5h1.62v.21H19.44v.53h1.62v.21H19.44v.55h2.07v.21Zm3.24.42.17.11a.12.12,0,0,1-.07,0,3.58,3.58,0,0,1-1.46,1.09,8.18,8.18,0,0,0,2.13.48.74.74,0,0,0-.13.19,8.15,8.15,0,0,1-2.24-.57,10.38,10.38,0,0,1-2.26.57.89.89,0,0,0-.13-.2,10.29,10.29,0,0,0,2.14-.49,3.2,3.2,0,0,1-1.18-.94l.16-.07h-.68v-.21h3.55Zm-3.81-4h1.27v-.58l.31,0s0,.06-.1.07v.48h1.43v-.58l.32,0s0,.06-.11.07v.48h1.39v.21H20.12v.53h-.21v-.53H18.48v.53h-.21v-.53H17ZM19.23,104v-.5H17.78v.5Zm0,.74v-.53H17.78v.53Zm0,.76v-.55H17.78v.55Zm-1.26.85a3,3,0,0,0,1.23.91,3.62,3.62,0,0,0,1.37-.91Z"/><path class="cls-1" d="M25.36,104.42a9.38,9.38,0,0,1-.95,1.05l-.16-.15A9.43,9.43,0,0,0,26,103.09l.29.11s-.06.06-.13.06q-.26.44-.59.88l.1,0a.12.12,0,0,1-.11.06V108h-.21Zm.79-2.75s-.08.06-.13,0a11.11,11.11,0,0,1-1.6,1.53.72.72,0,0,0-.15-.15,8.29,8.29,0,0,0,1.58-1.54Zm4.62,4.06v.21H29.6v1.73c0,.18,0,.26-.21.3a6,6,0,0,1-1.06,0,1,1,0,0,0-.09-.21h.65c.5,0,.5,0,.5-.14v-1.73H26.25v-.21h3.14v-.82h-3v-.21h4.26v.21h-1s0,0-.11.06v.76Zm-.63-3.94V104H26.88v-2.23ZM28,107.4a6.32,6.32,0,0,0-.95-1.09l.17-.1a6.08,6.08,0,0,1,1,1.06Zm2-4.61V102H27.09v.79Zm0,1V103H27.09v.81Z"/><path class="cls-1" d="M34.91,101.84c0,.08-.08.13-.22.14-.06.74-.13,2.74-.13,3.78s.56,1.71,1.54,1.71a3.47,3.47,0,0,0,2.7-1.46.7.7,0,0,0,.18.15,3.74,3.74,0,0,1-2.89,1.53c-1.09,0-1.77-.66-1.77-1.95,0-.84.07-3.11.13-4Z"/><path class="cls-1" d="M43.92,101.73c0,.07-.12.13-.21.13,0,.34-.12.72-.2,1.23a8.35,8.35,0,0,0,2.21-.42l.08.22a9.09,9.09,0,0,1-2.32.43,16.74,16.74,0,0,1-1.33,4.48l-.22-.09a15.94,15.94,0,0,0,1.31-4.38H41.85v-.23h1.42c.08-.48.15-1,.21-1.42Zm3.74,6h-.6a6.43,6.43,0,0,1-1.79-.18.91.91,0,0,1-.67-.89,1.64,1.64,0,0,1,.43-1l.18.12a1.49,1.49,0,0,0-.39.89c0,.63.57.85,2.07.85.24,0,.49,0,.75,0Zm-.22-3.41a7.55,7.55,0,0,0-2.5.35l-.07-.2a8.2,8.2,0,0,1,2.58-.37Z"/><path class="cls-1" d="M51.24,102.48c0,.07-.09.1-.2.11a11.19,11.19,0,0,0-.1,1.55c0,.34,0,.66,0,.95.1,1.36.68,2.14,1.3,2.14.31,0,.73-.73,1-1.65a1.05,1.05,0,0,0,.2.11c-.36,1-.76,1.76-1.25,1.77-.74,0-1.4-.88-1.51-2.35,0-.28,0-.6,0-.94,0-.6,0-1.23.09-1.79Zm5.15,3.17a3.62,3.62,0,0,0-1.84-2.71l.13-.18a3.78,3.78,0,0,1,1.94,2.84Z"/><path class="cls-1" d="M59.93,104.46v2.07H62.3v.21H59.93v.6h-.21v-5l.2.08a13,13,0,0,0,2.09-.84l.25.18-.06,0h0a17.43,17.43,0,0,1-2.21.83v1.65h2.25v.21Zm5.46-2.2v4.19c0,.2-.06.29-.22.33a8.44,8.44,0,0,1-1.18,0,1.19,1.19,0,0,0-.09-.2h.62c.62,0,.66,0,.66-.17v-4H62.86V108h-.21v-5.74Z"/><path class="cls-1" d="M71.86,104.48a5.39,5.39,0,0,0,.63,1.36,13,13,0,0,0,1.82-1.22l.23.17a.14.14,0,0,1-.11,0A15.86,15.86,0,0,1,72.58,106a4.12,4.12,0,0,0,2.21,1.62.87.87,0,0,0-.14.18,4.75,4.75,0,0,1-3-3.26,6.34,6.34,0,0,1-.87.44,2.76,2.76,0,0,1,1.51,2.13.87.87,0,0,1-1,.92h-.62a.7.7,0,0,0-.06-.2c.25,0,.49,0,.64,0a.69.69,0,0,0,.78-.74,1.69,1.69,0,0,0-.25-.83,9.1,9.1,0,0,1-3.17,1.67,1.26,1.26,0,0,0-.15-.19,8.39,8.39,0,0,0,3.21-1.65,3.07,3.07,0,0,0-.43-.5,8.72,8.72,0,0,1-2.54,1.13,1,1,0,0,0-.16-.19,8.22,8.22,0,0,0,2.55-1.08,4,4,0,0,0-.56-.4,16.53,16.53,0,0,1-1.9.61,1.43,1.43,0,0,0-.13-.18,11.38,11.38,0,0,0,2.73-1H69.18v-1.32c-.18.13-.38.27-.59.39a.48.48,0,0,0-.15-.13,6.47,6.47,0,0,0,2.08-1.89l.31,0s0,.07-.13.07-.21.27-.34.42H72.3l.15.12a.06.06,0,0,1-.06,0,3.83,3.83,0,0,1-.58.76H74v1.52Zm-2.47-1.31v1.1h2.06v-1.1Zm2.16-.21a3.75,3.75,0,0,0,.55-.69H70.17a9,9,0,0,1-.74.69Zm2.26,1.31v-1.1H71.66v1.1Z"/><path class="cls-1" d="M78.74,108.41a4.74,4.74,0,0,1-1.13-3.2A4.87,4.87,0,0,1,78.74,102H79a4.8,4.8,0,0,0-1.14,3.25A4.87,4.87,0,0,0,79,108.41Z"/><path class="cls-1" d="M83.92,103.07l.14,0a.14.14,0,0,1,0,.06,8.89,8.89,0,0,1-.74,3.06,5.52,5.52,0,0,1,.87.78l-.13.18a5.42,5.42,0,0,0-.83-.76A3.79,3.79,0,0,1,81.74,108a.9.9,0,0,0-.15-.18A3.57,3.57,0,0,0,83,106.3a9.07,9.07,0,0,0-1.09-.69l-.1.36-.2-.1c.19-.64.44-1.61.67-2.56h-.81v-.21h.86c.13-.55.25-1.08.34-1.53l.32,0s0,.06-.11.06c-.09.41-.2.9-.32,1.42h1.36Zm-1.41.22c-.17.74-.36,1.49-.53,2.12a10.64,10.64,0,0,1,1.13.69,8.3,8.3,0,0,0,.69-2.81Zm5.41,1.43v.21H86.14v2.68c0,.22-.06.3-.24.34a6.41,6.41,0,0,1-1.14,0,1.28,1.28,0,0,0-.09-.22h.8c.43,0,.46,0,.46-.17v-2.69H84v-.21h1.88v-1.27l.2,0a6.82,6.82,0,0,0,1.32-1.34H84.36v-.21h3.29l.18.12a.15.15,0,0,1-.07,0,7.78,7.78,0,0,1-1.62,1.63v1Z"/><path class="cls-1" d="M91.4,102.55v.85a4.35,4.35,0,0,1-.75,2.67.45.45,0,0,0-.16-.14,4.1,4.1,0,0,0,.7-2.53v-1.06h2.9a6.08,6.08,0,0,1-.1-.79h.34s0,.07-.11.08c0,.23,0,.47.08.7h2.61v.21H94.35a7,7,0,0,0,.72,1.93,5.76,5.76,0,0,0,.78-1.42l.3.09s-.06.06-.13.06a5.8,5.8,0,0,1-.83,1.46c.41.66.88,1.1,1.28,1.09.21,0,.29-.26.33-1a.6.6,0,0,0,.2.1c-.06.8-.18,1.06-.53,1.06s-1-.45-1.41-1.14a5.34,5.34,0,0,1-1.25,1.09.78.78,0,0,0-.16-.14,5,5,0,0,0,1.29-1.13,7.27,7.27,0,0,1-.79-2.12Zm.34,3.78a1.88,1.88,0,0,1-1.05,1.43l-.16-.13a1.78,1.78,0,0,0,1-1.35Zm0-3v-.21H94v.21Zm2,1.93H92.12v.29h-.21V103.9h1.83Zm-.21-1.18H92.12v1h1.41Zm-.91,3.36c0,.16.07.2.49.2h1.59c.34,0,.39-.09.42-.82a.68.68,0,0,0,.21.09c0,.77-.13.94-.62.94H93.13c-.57,0-.72-.06-.72-.41v-1.2l.32,0s0,.06-.11.07Zm1.58-.7a4.63,4.63,0,0,0-1.35-.85l.14-.15a4.36,4.36,0,0,1,1.36.83Zm1-5.24a3.45,3.45,0,0,1,1.06.51l-.13.18A3.56,3.56,0,0,0,95,101.7Zm1.63,6.21a5,5,0,0,0-1.37-1.37l.16-.12A4.88,4.88,0,0,1,97,107.62Z"/><path class="cls-1" d="M106.18,105.7h-1.47a2.8,2.8,0,0,1-1.18,1.37,17.11,17.11,0,0,1,2.47.75l-.14.18a17.61,17.61,0,0,0-2.59-.79,8.61,8.61,0,0,1-3.35.76.63.63,0,0,0-.1-.21,9.29,9.29,0,0,0,3.13-.62c-.59-.13-1.23-.25-1.87-.36l-.21.27-.19-.1c.27-.34.62-.8.95-1.26H99.75v-.21h2c.2-.29.39-.56.55-.81l.29.1s-.06,0-.13,0l-.46.67h4.16ZM102,102.94v-.81H99.81v-.21h6.31v.21h-2.23v.81h1.69v1.69h-5.22v-1.69Zm-1.43.21v1.27H102v-1.27Zm1.3,2.54-.67.92c.69.1,1.38.24,2,.39a2.8,2.8,0,0,0,1.25-1.3Zm1.81-2.75v-.81h-1.47v.81Zm-1.47.21v1.27h1.47v-1.27Zm3.16,0h-1.48v1.27h1.48Z"/><path class="cls-1" d="M109.14,101.91H115V108h-.21v-.36h-5.43V108h-.21Zm.21,5.52h5.43v-5.31h-5.43Zm4.9-3.33h-2a3.15,3.15,0,0,0,2,2.57.66.66,0,0,0-.15.18,3.41,3.41,0,0,1-2.1-2.75h0A3.11,3.11,0,0,1,110,106.9a.63.63,0,0,0-.15-.16,3,3,0,0,0,2-2.63h-2v-.21h2c.06-.41.08-.86.1-1.34l.33,0s0,.08-.13.09c0,.43,0,.84-.09,1.23h2.18Z"/><path class="cls-1" d="M118.06,102a5.12,5.12,0,0,1,0,6.44h-.27a4.91,4.91,0,0,0,1.14-3.23,4.81,4.81,0,0,0-1.14-3.21Z"/><path class="cls-1" d="M2.24,116.44a2,2,0,0,1,1.24-.53c.53,0,.79.38.87,1,.62-.29,1.42-.61,2-.84l.15.29h0a.19.19,0,0,1-.1,0c-.54.19-1.37.52-2,.81a5.55,5.55,0,0,1,0,.62c0,.26,0,.55,0,.86H4.13c0-.27,0-.64,0-1a3.83,3.83,0,0,0,0-.42c-1,.46-1.77,1-1.77,1.54s.55.72,1.65.72a15.69,15.69,0,0,0,1.77-.07v.24c-.45,0-1.1.06-1.77.06-1.34,0-1.88-.34-1.88-.95s.88-1.22,2-1.76c-.06-.6-.32-.84-.64-.84a2.55,2.55,0,0,0-1.78,1.06,10.74,10.74,0,0,1-.8.76l-.15-.16A5.11,5.11,0,0,0,2.59,115H.88v-.22H2.65a10.17,10.17,0,0,0,.22-1.06l.41.07c0,.07-.06.11-.17.12-.06.32-.13.59-.2.87a10.13,10.13,0,0,0,2.6-.43l0,.23a10.45,10.45,0,0,1-2.72.42,5.54,5.54,0,0,1-.61,1.44Z"/><path class="cls-1" d="M11.74,114h.2a6.32,6.32,0,0,0,3.12,5.79.94.94,0,0,0-.17.16,6.29,6.29,0,0,1-3.05-4.56A6.43,6.43,0,0,1,8.76,120l-.17-.15a6.28,6.28,0,0,0,3.05-4.56l.18,0a9.26,9.26,0,0,1-.08-1.06H9.84V114h1.91Z"/><path class="cls-1" d="M23.13,115.19h.1l.12,0v.07c-.13,3.17-.23,4.2-.51,4.51s-.32.19-.61.19-.63,0-1,0a.44.44,0,0,0-.07-.21c.52,0,1,0,1.18,0a.37.37,0,0,0,.32-.1c.24-.25.37-1.3.48-4.27H20.26A5.5,5.5,0,0,1,17.54,120a.62.62,0,0,0-.15-.15A5.31,5.31,0,0,0,20,115.4H17.59v-.21h2.47c0-.21,0-.42,0-.62v-1l.32,0s0,.06-.11.07v.91c0,.2,0,.41,0,.62Z"/><path class="cls-1" d="M26,114.9l3.43-.11c0-.12,0-1.16,0-1.17h.42c0,.06,0,.12-.18.14,0,.22,0,.64,0,1l2.33-.06V115c-.66,0-1.52,0-2.33,0,0,.6,0,1,.06,1.57a2.46,2.46,0,0,1,.08.73c0,.67-.06,1.84-2.07,2.67l-.15-.19c1.29-.48,1.87-1.2,2-2h0a1.09,1.09,0,0,1-1,.53,1.15,1.15,0,0,1-1.13-1.19,1.26,1.26,0,0,1,1.2-1.27,1.1,1.1,0,0,1,.79.29s0-.08,0-.1,0-.57,0-1l-3.43.12Zm3.54,2.23c0-.49-.09-1.08-.84-1.08a1,1,0,0,0-1,1.05.92.92,0,0,0,.92,1A.91.91,0,0,0,29.51,117.12Z"/><path class="cls-1" d="M35.74,116.73a4.67,4.67,0,0,1,2-.5,1.6,1.6,0,0,1,1.82,1.63c0,1.27-1.13,2-2.44,2-.92,0-1.53-.33-1.53-.89a1,1,0,0,1,1.09-.87,1.53,1.53,0,0,1,1.43,1.38,1.65,1.65,0,0,0,1.23-1.58,1.41,1.41,0,0,0-1.6-1.42,4.34,4.34,0,0,0-2.7,1c-.23.22-.5.53-.69.76l-.17-.17c.71-.78,2.89-2.86,3.85-3.76-.45.06-2,.11-2.95.14a.19.19,0,0,1-.13.11l0-.33c1,0,2.68-.07,3.22-.15l.1,0,.25.27a.36.36,0,0,1-.15.06c-.59.5-2.07,1.92-2.59,2.44Zm1.39,2.87a3.13,3.13,0,0,0,.78-.1,1.33,1.33,0,0,0-1.23-1.23c-.46,0-.86.25-.86.65S36.54,119.6,37.12,119.6Z"/><path class="cls-1" d="M47.3,119.22a12.47,12.47,0,0,1-2.18.18,7,7,0,0,1-1.29-.09A1.27,1.27,0,0,1,42.68,118a2.31,2.31,0,0,1,.74-1.51l.18.13a2.17,2.17,0,0,0-.69,1.42c0,.46.31.86,1,1a6,6,0,0,0,1.21.09,11.45,11.45,0,0,0,2.18-.2Zm-1.48-4.41c-.65.07-2,.1-2.93.1v-.23a22.36,22.36,0,0,0,3.94-.24l.06.24a2.36,2.36,0,0,0-.78.23,9.46,9.46,0,0,0-1.62,1l-.15-.16a9.94,9.94,0,0,1,1.48-1Z"/><path class="cls-1" d="M55.08,115.83H55a.27.27,0,0,1-.13,0c-2.06.64-4.16,1.67-4.16,2.74,0,.78.89,1,2.15,1a19.74,19.74,0,0,0,2.45-.14v.24a21.3,21.3,0,0,1-2.47.12c-1.4,0-2.38-.31-2.38-1.23,0-.76.81-1.44,1.95-2a6.92,6.92,0,0,1-.31-2.84l.44,0c0,.08-.08.14-.21.15a5.81,5.81,0,0,0,.29,2.54,18.55,18.55,0,0,1,2.33-.9Z"/><path class="cls-1" d="M57.8,114.56c.55,0,4.89-.37,5.74-.34v.24h-.29a2.1,2.1,0,0,0-1.11.31c-1.24.71-2.3,2-2.3,2.93s.67,1.77,2.55,2l-.09.22c-2-.32-2.7-1-2.7-2.26,0-1.08,1.1-2.35,2.54-3.19-.7,0-3.08.21-4.17.31a.21.21,0,0,1-.14.1Zm4.44,1.18a5.43,5.43,0,0,1,1,1l-.16.13a4.87,4.87,0,0,0-1-1Zm.7-.61a5.1,5.1,0,0,1,1,1l-.16.13a5.1,5.1,0,0,0-1-1Z"/><path class="cls-1" d="M66.23,118.21a14.69,14.69,0,0,1,1.63,1.59l-.2.2a14.55,14.55,0,0,0-1.6-1.62Z"/><path class="cls-1" d="M71.43,113.65a4.5,4.5,0,0,1,.87,1,5.8,5.8,0,0,0,.79-1l.25.14a.1.1,0,0,1-.1,0,6.87,6.87,0,0,1-.83,1,7.16,7.16,0,0,1,.21,5c-.11.15-.24.22-.85.22h-.35a.56.56,0,0,0-.09-.22l.53,0c.4,0,.5,0,.6-.15a5.15,5.15,0,0,0,.3-2.25,7.58,7.58,0,0,0,0-.9,5.94,5.94,0,0,1-1.51,1.72.7.7,0,0,0-.15-.18,5.14,5.14,0,0,0,1.61-1.87,3.75,3.75,0,0,0-.42-1.23,10.48,10.48,0,0,1-1,.85l-.15-.13a8.42,8.42,0,0,0,1-.9,4.25,4.25,0,0,0-.87-1ZM77,119.57h.61v.21H73.06v-.21h.89v-5.65h3Zm-.21-5.44H74.16v1.63h2.59Zm0,3.52V116H74.16v1.68Zm-2.59.21v1.72h2.59v-1.72Z"/><path class="cls-1" d="M80,116.37l.58-.17a10.09,10.09,0,0,1,2.54-.53,1.58,1.58,0,0,1,1.76,1.63c0,1.49-1.59,2.07-3.34,2.21a1.67,1.67,0,0,0-.06-.2c1.61-.13,3.17-.63,3.17-2a1.38,1.38,0,0,0-1.53-1.42,9.52,9.52,0,0,0-2.47.53l-.46.15a.12.12,0,0,1-.08.1Z"/><path class="cls-1" d="M89.5,113.73c0,.07-.12.13-.21.13,0,.34-.12.72-.2,1.23a8.35,8.35,0,0,0,2.21-.42l.08.22a9.09,9.09,0,0,1-2.32.43,16.74,16.74,0,0,1-1.33,4.48l-.22-.09a15.94,15.94,0,0,0,1.31-4.38H87.43v-.23h1.42c.08-.48.15-1,.21-1.42Zm3.74,6h-.6a6.43,6.43,0,0,1-1.79-.18.91.91,0,0,1-.67-.89,1.64,1.64,0,0,1,.43-1l.18.12a1.49,1.49,0,0,0-.39.89c0,.63.57.85,2.07.85.24,0,.49,0,.75,0ZM93,116.28a7.55,7.55,0,0,0-2.5.35l-.07-.2a8.2,8.2,0,0,1,2.58-.37Z"/><path class="cls-1" d="M98.06,115.07l.14,0a.14.14,0,0,1,0,.06,8.89,8.89,0,0,1-.74,3.06,5.52,5.52,0,0,1,.87.78l-.13.18a5.42,5.42,0,0,0-.83-.76A3.79,3.79,0,0,1,95.87,120a.9.9,0,0,0-.15-.18,3.57,3.57,0,0,0,1.44-1.52,9.07,9.07,0,0,0-1.09-.69L96,118l-.2-.1c.19-.64.44-1.61.67-2.56h-.81v-.21h.86c.13-.55.25-1.08.34-1.53l.32,0s0,.06-.11.06c-.09.41-.2.9-.32,1.42h1.36Zm-1.41.22c-.17.74-.36,1.49-.53,2.12a10.64,10.64,0,0,1,1.13.69,8.3,8.3,0,0,0,.69-2.81Zm5.41,1.43v.21h-1.79v2.68c0,.22-.06.3-.24.34a6.41,6.41,0,0,1-1.14,0,1.28,1.28,0,0,0-.09-.22h.8c.43,0,.46,0,.46-.17v-2.69H98.18v-.21h1.88v-1.27l.2,0a6.82,6.82,0,0,0,1.32-1.34H98.5v-.21h3.29l.18.12a.15.15,0,0,1-.07,0,7.78,7.78,0,0,1-1.62,1.63v1Z"/><path class="cls-1" d="M105,114.55v.85a4.35,4.35,0,0,1-.75,2.67.45.45,0,0,0-.16-.14,4.1,4.1,0,0,0,.7-2.53v-1.06h2.9a6.08,6.08,0,0,1-.1-.79H108s0,.07-.11.08c0,.23,0,.47.08.7h2.61v.21H108a7,7,0,0,0,.72,1.93,5.76,5.76,0,0,0,.78-1.42l.3.09s-.06.06-.13.06a5.8,5.8,0,0,1-.83,1.46c.41.66.88,1.1,1.28,1.09.21,0,.29-.26.33-1a.6.6,0,0,0,.2.1c-.06.8-.18,1.06-.53,1.06s-1-.45-1.41-1.14a5.34,5.34,0,0,1-1.25,1.09.78.78,0,0,0-.16-.14,5,5,0,0,0,1.29-1.13,7.27,7.27,0,0,1-.79-2.12Zm.34,3.78a1.88,1.88,0,0,1-1.05,1.43l-.16-.13a1.78,1.78,0,0,0,1-1.35Zm0-3v-.21h2.27v.21Zm2,1.93h-1.62v.29h-.21V115.9h1.83Zm-.21-1.18h-1.41v1h1.41Zm-.91,3.36c0,.16.07.2.49.2h1.59c.34,0,.39-.09.42-.82a.68.68,0,0,0,.21.09c0,.77-.13.94-.62.94h-1.58c-.57,0-.72-.06-.72-.41v-1.2l.32,0s0,.06-.11.07Zm1.58-.7a4.63,4.63,0,0,0-1.35-.85l.14-.15a4.36,4.36,0,0,1,1.36.83Zm1-5.24a3.45,3.45,0,0,1,1.06.51l-.13.18a3.56,3.56,0,0,0-1.06-.53Zm1.63,6.21a5,5,0,0,0-1.37-1.37l.16-.12a4.88,4.88,0,0,1,1.37,1.37Z"/><path class="cls-1" d="M119.32,117.7h-1.47a2.8,2.8,0,0,1-1.18,1.37,17.11,17.11,0,0,1,2.47.75L119,120a17.61,17.61,0,0,0-2.59-.79A8.61,8.61,0,0,1,113,120a.63.63,0,0,0-.1-.21,9.29,9.29,0,0,0,3.13-.62c-.59-.13-1.23-.25-1.87-.36l-.21.27-.19-.1c.27-.34.62-.8.95-1.26h-1.87v-.21h2c.2-.29.39-.56.55-.81l.29.1s-.06,0-.13,0l-.46.67h4.16Zm-4.17-2.75v-.81H113v-.21h6.31v.21H117v.81h1.69v1.69H113.5v-1.69Zm-1.43.21v1.27h1.43v-1.27Zm1.3,2.54-.67.92c.69.1,1.38.24,2,.39a2.8,2.8,0,0,0,1.25-1.3Zm1.81-2.75v-.81h-1.47v.81Zm-1.47.21v1.27h1.47v-1.27Zm3.16,0H117v1.27h1.48Z"/><path class="cls-1" d="M.74,125.91H6.59V132H6.38v-.36H1V132H.74ZM1,131.43H6.38v-5.31H1Zm4.9-3.33h-2a3.15,3.15,0,0,0,2,2.57.66.66,0,0,0-.15.18,3.41,3.41,0,0,1-2.1-2.75h0a3.11,3.11,0,0,1-2.06,2.79.63.63,0,0,0-.15-.16,3,3,0,0,0,2-2.63h-2v-.21h2c.06-.41.08-.86.1-1.34l.33,0s0,.08-.13.09c0,.43,0,.84-.09,1.23H5.85Z"/><path class="cls-1" d="M11.18,128.44a2,2,0,0,1,1.24-.53c.53,0,.79.38.87,1,.62-.29,1.42-.61,2-.84l.15.29h0a.19.19,0,0,1-.1,0c-.54.19-1.37.52-2,.81a5.55,5.55,0,0,1,0,.62c0,.26,0,.55,0,.86h-.25c0-.27,0-.64,0-1a3.83,3.83,0,0,0,0-.42c-1,.46-1.77,1-1.77,1.54s.55.72,1.65.72a15.69,15.69,0,0,0,1.77-.07v.24c-.45,0-1.1.06-1.77.06-1.34,0-1.88-.34-1.88-.95s.88-1.22,2-1.76c-.06-.6-.32-.84-.64-.84a2.55,2.55,0,0,0-1.78,1.06,10.74,10.74,0,0,1-.8.76l-.15-.16a5.11,5.11,0,0,0,1.86-2.8H9.82v-.22h1.76a10.17,10.17,0,0,0,.22-1.06l.41.07c0,.07-.06.11-.17.12-.06.32-.13.59-.2.87a10.13,10.13,0,0,0,2.6-.43l0,.23a10.45,10.45,0,0,1-2.72.42,5.54,5.54,0,0,1-.61,1.44Z"/><path class="cls-1" d="M19.53,128.84a2.13,2.13,0,0,0,1.66.66H22c.88,0,2,0,2.62,0a.71.71,0,0,0-.08.22l-1.4,0s0,0-.11.06v.51h1.58v.21H23.07v1.18c0,.18,0,.25-.21.29a6.46,6.46,0,0,1-1.16,0,.91.91,0,0,0-.09-.19h.62c.63,0,.63,0,.63-.14v-1.19H18.22v-.21h4.64v-.57H21.2a2.36,2.36,0,0,1-1.76-.66c-.36.25-.71.5-1,.69,0,0,0,.07,0,.08l-.15-.25a12,12,0,0,0,1.09-.69v-1.14H18.26v-.21h1.27Zm-.93-3.07a4.12,4.12,0,0,1,1,.9l-.17.15a4.16,4.16,0,0,0-1-.92Zm2,5.9a4.58,4.58,0,0,0-1.15-.87l.15-.14a4.69,4.69,0,0,1,1.16.85ZM20.53,127h1.38c0-.15.1-.33.14-.49h-2.1v-.21h1.46a2.85,2.85,0,0,0-.53-.62l.18-.1a2.71,2.71,0,0,1,.58.69l0,0h1.26a5.92,5.92,0,0,0,.45-.72l.27.11a.1.1,0,0,1-.11,0c-.1.15-.25.38-.39.56h1.51v.21H22.25c0,.14-.09.33-.14.49H24v2.09H20.53Zm3.24.62v-.41h-3v.41Zm0,.62v-.41h-3v.41Zm0,.64v-.43h-3v.43Z"/><path class="cls-1" d="M31.08,131.94a22.79,22.79,0,0,0-2.77-2.7c-.31-.25-.45-.44-.45-.63s.14-.36.4-.6c.6-.55,1.75-1.6,2.51-2.38l.32.22a.15.15,0,0,1-.13.06h-.09c-.74.73-1.9,1.75-2.48,2.29-.18.17-.29.3-.29.42s.1.27.34.46a23.59,23.59,0,0,1,2.84,2.73Z"/><path class="cls-1" d="M37.37,129.44l.27,2.31-.22,0-.26-2.31-2.75.35,0-.22,2.76-.35-.2-1.81-2.33.3,0-.22,2.34-.3-.16-1.46h.38c0,.06-.06.11-.15.13l.15,1.31,2.26-.29,0,.22-2.25.29.2,1.81,2.75-.35,0,.22Z"/><path class="cls-1" d="M43.19,128.53H49v.23h-5.6a.27.27,0,0,1-.2.13Z"/><path class="cls-1" d="M57.36,126.48a.13.13,0,0,1-.06,0c-.27,2.82-1.28,4.26-3.56,5.17l-.15-.17c2.24-.9,3.22-2.29,3.47-4.9H52.6v2h-.22v-2.25h4.73l.06,0Z"/><path class="cls-1" d="M60.44,128.53h5.85v.23h-5.6a.27.27,0,0,1-.2.13Z"/><path class="cls-1" d="M73.35,129.33a27.65,27.65,0,0,0-2.64-1.21v3.66h-.23v-6l.4,0c0,.07-.06.1-.17.13V128l.06-.09a26.81,26.81,0,0,1,2.72,1.22Zm-.85-3.15a6.23,6.23,0,0,1,1,1.09l-.16.13a6.43,6.43,0,0,0-1-1.07Zm.92-.58a6.35,6.35,0,0,1,1,1.08l-.15.13a6.38,6.38,0,0,0-1-1.07Z"/><path class="cls-1" d="M78.87,128.44a2,2,0,0,1,1.24-.53c.53,0,.79.38.87,1,.62-.29,1.42-.61,2-.84l.15.29h0a.19.19,0,0,1-.1,0c-.54.19-1.37.52-2,.81a5.55,5.55,0,0,1,0,.62c0,.26,0,.55,0,.86h-.25c0-.27,0-.64,0-1a3.83,3.83,0,0,0,0-.42c-1,.46-1.77,1-1.77,1.54s.55.72,1.65.72a15.69,15.69,0,0,0,1.77-.07v.24c-.45,0-1.1.06-1.77.06-1.34,0-1.88-.34-1.88-.95s.88-1.22,2-1.76c-.06-.6-.32-.84-.64-.84a2.55,2.55,0,0,0-1.78,1.06,10.74,10.74,0,0,1-.8.76l-.15-.16a5.11,5.11,0,0,0,1.86-2.8h-1.7v-.22h1.76a10.17,10.17,0,0,0,.22-1.06l.41.07c0,.07-.06.11-.17.12-.06.32-.13.59-.2.87a10.13,10.13,0,0,0,2.6-.43l0,.23a10.45,10.45,0,0,1-2.72.42,5.54,5.54,0,0,1-.61,1.44Z"/><path class="cls-1" d="M89.15,125.84s0,.07-.12.08.12,4.43,3.24,5.83a1,1,0,0,0-.16.17c-2.22-1-2.93-3.53-3.16-5h0c-.18,1.47-.78,3.87-3.12,5a1,1,0,0,0-.15-.14c3-1.39,3.08-5,3.13-6Z"/><path class="cls-1" d="M98,131.18h3.07v.21H94.78v-.21h3v-4.55H95.13v-.21h5.65v.21H98Z"/><path class="cls-1" d="M105.61,126.78v1.37a4.1,4.1,0,0,1,0,.42H107v.21h-1.45a5.79,5.79,0,0,1-.13.81c.31.3,1.21,1.28,1.43,1.53l-.15.17c-.24-.29-1-1.12-1.34-1.5a3.82,3.82,0,0,1-1.54,2.08.63.63,0,0,0-.14-.16,3.7,3.7,0,0,0,1.65-2.93h-1.62v-.21h1.63c0-.15,0-.29,0-.43v-1.36h-.81a5.21,5.21,0,0,1-.64,1.34l-.18-.11a6.52,6.52,0,0,0,.92-2.47l.32.08s-.06.06-.13.06c-.06.29-.14.59-.22.88h2.16v.21Zm1.78-.6h2.49v5.55h-.21v-.56H107.6v.62h-.21Zm.21,4.78h2.07v-4.57H107.6Z"/><path class="cls-1" d="M115.63,127.23a7.91,7.91,0,0,0-.67-.9l.15-.08a7.44,7.44,0,0,1,1,1.53l-.15.1a4.92,4.92,0,0,0-.25-.47l-2.79.13s0,.07-.08.08l-.1-.3h.58a12.71,12.71,0,0,0,.83-1.74l.29.09s-.06.06-.13.06a17.22,17.22,0,0,1-.78,1.58Zm0,1v3.41c0,.34-.13.35-1.1.35a.78.78,0,0,0-.09-.23h.62c.33,0,.36,0,.36-.13v-1h-2V132h-.21v-3.78Zm-.21.21h-2v.85h2Zm-2,1.95h2v-.89h-2Zm5.11-2c.32,0,.38-.13.41-.92a.58.58,0,0,0,.21.1c0,.82-.12,1-.61,1h-1.47c-.53,0-.69-.08-.69-.47v-2.59l.31,0s0,.06-.1.07v1.27a17.85,17.85,0,0,0,2-.74l.21.2h-.11a20.74,20.74,0,0,1-2.12.72v1c0,.21.07.26.46.26Zm-1.94,3c0,.22.08.27.48.27h1.53c.36,0,.41-.15.44-1a.7.7,0,0,0,.21.09c0,.92-.13,1.14-.64,1.14h-1.53c-.55,0-.71-.08-.71-.48v-2.58l.31,0s0,.06-.1.07v1.18a9.11,9.11,0,0,0,2.14-.81l.19.21h-.11a10.06,10.06,0,0,1-2.23.78Z"/><path class="cls-1" d="M3,137.88c0,.08-.09.12-.23.12-.08.43-.22,1.16-.32,1.58a9.61,9.61,0,0,1,1-.08c1,0,1.32.63,1.32,1.63a5.35,5.35,0,0,1-.28,1.7,1.19,1.19,0,0,1-1.16.91A2,2,0,0,1,2,143.11a.86.86,0,0,0,.11-.19c.62.5.93.6,1.18.6a1,1,0,0,0,.94-.74,5.66,5.66,0,0,0,.27-1.64c0-.85-.29-1.42-1.11-1.42a10.09,10.09,0,0,0-1,.08,12.1,12.1,0,0,1-1.54,3.87l-.21-.1a11.36,11.36,0,0,0,1.52-3.75c-.43,0-1,.1-1.37.17l0-.22,1.46-.17c.11-.51.24-1.18.33-1.81Zm1.8-.2a5.44,5.44,0,0,1,1,1l-.16.13a5.31,5.31,0,0,0-1-1Zm1.74,4.08a4.49,4.49,0,0,0-1.61-2.44l.17-.14a4.58,4.58,0,0,1,1.66,2.49Zm-.71-4.36a5.45,5.45,0,0,1,1,1l-.16.13a5.35,5.35,0,0,0-1-1Z"/><path class="cls-1" d="M11.82,140.91l-.91.35v2.4c0,.2-.06.27-.2.31a3.73,3.73,0,0,1-.82,0,1.28,1.28,0,0,0-.09-.2h.49c.39,0,.41,0,.41-.14v-2.32l-1,.39a.11.11,0,0,1-.06.1l-.15-.27,1.25-.44v-1.86H9.52V139H10.7v-1.49l.32,0s0,.06-.1.07V139h.88v.21h-.88V141l.87-.32ZM14,143.54a4,4,0,0,0,.79.06H16a.79.79,0,0,0-.09.21H14.75c-1.07,0-1.81-.21-2.23-1.27a3.13,3.13,0,0,1-.89,1.48l-.16-.13a3.8,3.8,0,0,0,1.07-2.47l.31.06s0,.06-.12.06a6.41,6.41,0,0,1-.13.69,1.67,1.67,0,0,0,1.15,1.24v-2.42H12v-.21h4v.21H14v1.06h1.67v.21H14Zm1.54-5.72v2.35H12.35v-2.35Zm-.21,1.06V138H12.55v.85Zm0,1.08v-.87H12.55V140Z"/><path class="cls-1" d="M20.21,141.11s-.06.06-.13.06a6.3,6.3,0,0,1-1.46,2.21,1,1,0,0,0-.16-.13A5.92,5.92,0,0,0,19.91,141Zm4.68-1h-3v3.5c0,.21-.06.29-.24.33a7.36,7.36,0,0,1-1.18,0,.8.8,0,0,0-.09-.22h.83c.44,0,.48,0,.48-.17v-3.5h-3v-.21h6.21Zm-.6-2v.21h-5v-.21Zm.53,5.2a8.77,8.77,0,0,0-1.39-2.23l.17-.08A9,9,0,0,1,25,143.24Z"/><path class="cls-1" d="M29,137.84c0,.08-.08.13-.22.14-.06.74-.13,2.74-.13,3.78s.56,1.71,1.54,1.71a3.47,3.47,0,0,0,2.7-1.46.7.7,0,0,0,.18.15,3.74,3.74,0,0,1-2.89,1.53c-1.09,0-1.77-.66-1.77-1.95,0-.84.07-3.11.13-4Z"/><path class="cls-1" d="M35.94,138.72c.44,0,1,0,1.41,0l1.18,0c0-.36,0-.78,0-1.05l.43,0c0,.08-.06.12-.2.14,0,.24,0,.59,0,.87a12.94,12.94,0,0,0,2.47-.3l0,.22a13.13,13.13,0,0,1-2.52.3l0,1.51a10.87,10.87,0,0,0,2.12-.29l0,.23a13.38,13.38,0,0,1-2.16.27l.06,1.35A8.3,8.3,0,0,1,41,143.17l-.15.2a7.54,7.54,0,0,0-2-1.13c0,.15,0,.31,0,.42a1,1,0,0,1-1.11,1.11c-.87,0-1.53-.31-1.53-1s.77-1,1.51-1a3.37,3.37,0,0,1,.88.1c0-.36,0-.81,0-1.27h-.76c-1,0-1.53-.06-1.53-.53,0-.25.19-.43.59-.71l.16.16c-.45.27-.53.43-.53.57s.46.3,1.3.3h.75l0-1.5c-.51,0-1,0-1.63,0-.33,0-.69,0-1,0Zm2.72,3.45a3.24,3.24,0,0,0-.9-.12c-.6,0-1.28.25-1.28.76s.59.75,1.3.75.88-.29.88-.9Z"/><path class="cls-1" d="M44.31,138.9l3.43-.11c0-.12,0-1.16,0-1.17h.42c0,.06,0,.12-.18.14,0,.22,0,.64,0,1l2.33-.06V139c-.66,0-1.52,0-2.33,0,0,.6,0,1,.06,1.57a2.46,2.46,0,0,1,.08.73c0,.67-.06,1.84-2.07,2.67l-.15-.19c1.29-.48,1.87-1.2,2-2h0a1.09,1.09,0,0,1-1,.53,1.15,1.15,0,0,1-1.13-1.19,1.26,1.26,0,0,1,1.2-1.27,1.1,1.1,0,0,1,.79.29s0-.08,0-.1,0-.57,0-1l-3.43.12Zm3.54,2.23c0-.49-.09-1.08-.84-1.08a1,1,0,0,0-1,1.05.92.92,0,0,0,.92,1A.91.91,0,0,0,47.85,141.12Z"/><path class="cls-1" d="M55,143a1,1,0,1,1-1-1A1,1,0,0,1,55,143Zm-.21,0a.77.77,0,1,0-.77.77A.77.77,0,0,0,54.77,143Z"/><path class="cls-1" d="M64,139l-.07.08A7.35,7.35,0,0,1,60,143.83a.69.69,0,0,0-.15-.17,7.07,7.07,0,0,0,3.73-4.52H60.81A7.17,7.17,0,0,1,59.2,141a1.26,1.26,0,0,0-.17-.15,7.39,7.39,0,0,0,2.26-3.09l.34.13c0,.07-.11.08-.18.07a9,9,0,0,1-.5,1h2.79l0,0Z"/><path class="cls-1" d="M67.88,141.57v-3.36l.37,0s-.06.1-.15.1v3.23Zm3.73-3.62c0,.06-.06.1-.15.1v2.26a3.41,3.41,0,0,1-2.56,3.52.85.85,0,0,0-.15-.18,3.23,3.23,0,0,0,2.48-3.34v-2.39Z"/><path class="cls-1" d="M75.35,138.8h4.8V139h-2.3v3.76h2.81V143h-5.8v-.22h2.77V139H75.35Z"/><path class="cls-1" d="M88.72,138a.15.15,0,0,1-.11,0l-.09,0a16.36,16.36,0,0,1-2.06,1.74l.12.07s-.06.06-.11.07v3.83h-.22V140a20.4,20.4,0,0,1-2.91,1.74l-.13-.18a19,19,0,0,0,5.22-3.7Z"/><path class="cls-1" d="M95.92,138.89a.08.08,0,0,1-.06,0,8.72,8.72,0,0,1-1.07,2.4,11.53,11.53,0,0,1,1,.64l-.14.19a9.28,9.28,0,0,0-1-.64,6.78,6.78,0,0,1-2.65,2.3.62.62,0,0,0-.17-.16,6.8,6.8,0,0,0,2.61-2.26,12.36,12.36,0,0,0-1.8-.82l.11-.2a13.32,13.32,0,0,1,1.81.83,8,8,0,0,0,1-2.19H92.9a7.34,7.34,0,0,1-1.7,2.05l-.17-.15a8,8,0,0,0,2.26-3.25l.34.1c0,.06-.08.08-.17.07-.11.27-.29.67-.45,1h2.65l.06,0Z"/><path class="cls-1" d="M99,140.53h5.85v.23h-5.6a.27.27,0,0,1-.2.13Z"/><path class="cls-1" d="M108.21,143.61a6.24,6.24,0,0,1-.32-2.33,18.11,18.11,0,0,1,.4-3.34l.39.09c0,.06-.07.11-.18.11a15.13,15.13,0,0,0-.39,3.14,7.12,7.12,0,0,0,.09,1.46c.19-.52.52-1.27.69-1.64l.22.09a11.08,11.08,0,0,0-.78,2,.73.73,0,0,0,.1.34Zm2.84-4,.79,0c0-.64,0-1.2-.06-1.72l.42,0c0,.07-.08.12-.18.14,0,.46,0,.95,0,1.54a5.85,5.85,0,0,0,1.49-.31l.06.23a6.22,6.22,0,0,1-1.53.29c0,.88.08,1.82.09,2.26a5.47,5.47,0,0,1,1.51,1l-.15.19a4.7,4.7,0,0,0-1.36-.9c0,.73,0,1.42-1.05,1.42-.79,0-1.35-.34-1.35-.93s.74-1,1.34-1a2.88,2.88,0,0,1,.83.13c0-.49-.07-1.35-.11-2.16l-.79,0h-1.13v-.22Zm.91,2.59a2.66,2.66,0,0,0-.84-.15c-.48,0-1.12.18-1.12.72s.5.71,1.13.71.84-.28.84-1Z"/><path class="cls-1" d="M116.59,142.21a14.69,14.69,0,0,1,1.63,1.59l-.2.2a14.55,14.55,0,0,0-1.6-1.62Z"/><path class="cls-1" d="M6,155.22a12.47,12.47,0,0,1-2.18.18,7,7,0,0,1-1.29-.09A1.27,1.27,0,0,1,1.34,154a2.31,2.31,0,0,1,.74-1.51l.18.13a2.17,2.17,0,0,0-.69,1.42c0,.46.31.86,1,1a6,6,0,0,0,1.21.09,11.45,11.45,0,0,0,2.18-.2Zm-1.48-4.41c-.65.07-2,.1-2.93.1v-.23a22.36,22.36,0,0,0,3.94-.24l.06.24a2.36,2.36,0,0,0-.78.23,9.46,9.46,0,0,0-1.62,1L3,151.77a9.94,9.94,0,0,1,1.48-1Z"/><path class="cls-1" d="M12.3,150.57a.14.14,0,0,1-.15.1c-.22,2-1,4.29-2.1,4.29-.47,0-1-.56-1-1.6a3,3,0,0,1,3.11-3.08A2.55,2.55,0,0,1,15,152.9c0,1.68-1,2.45-2.68,2.8l-.12-.21c1.62-.31,2.58-1.1,2.58-2.58a2.34,2.34,0,0,0-2.59-2.42h-.11Zm-.36-.06a2.84,2.84,0,0,0-2.67,2.86c0,.86.42,1.37.78,1.37C11,154.73,11.72,152.62,11.93,150.5Z"/><path class="cls-1" d="M21.05,153.44l.27,2.31-.22,0-.26-2.31-2.75.35,0-.22,2.76-.35-.2-1.81-2.33.3,0-.22,2.34-.3-.16-1.46h.38c0,.06-.06.11-.15.13l.15,1.31,2.26-.29,0,.22-2.25.29.2,1.81,2.75-.35,0,.22Z"/><path class="cls-1" d="M26.88,152.53h5.85v.23h-5.6a.27.27,0,0,1-.2.13Z"/><path class="cls-1" d="M41.05,150.48a.13.13,0,0,1-.06,0c-.27,2.82-1.28,4.26-3.56,5.17l-.15-.17c2.24-.9,3.22-2.29,3.47-4.9H36.29v2h-.22v-2.25h4.73l.06,0Z"/><path class="cls-1" d="M44.14,152.53H50v.23h-5.6a.27.27,0,0,1-.2.13Z"/><path class="cls-1" d="M57.05,153.33a27.65,27.65,0,0,0-2.64-1.21v3.66h-.23v-6l.4,0c0,.07-.06.1-.17.13V152l.06-.09a26.81,26.81,0,0,1,2.72,1.22Zm-.85-3.15a6.23,6.23,0,0,1,1,1.09l-.16.13a6.43,6.43,0,0,0-1-1.07Zm.92-.58a6.35,6.35,0,0,1,1,1.08l-.15.13a6.38,6.38,0,0,0-1-1.07Z"/><path class="cls-1" d="M62.58,152.44a2,2,0,0,1,1.24-.53c.53,0,.79.38.87,1,.62-.29,1.42-.61,2-.84l.15.29h0a.19.19,0,0,1-.1,0c-.54.19-1.37.52-2,.81a5.55,5.55,0,0,1,0,.62c0,.26,0,.55,0,.86h-.25c0-.27,0-.64,0-1a3.83,3.83,0,0,0,0-.42c-1,.46-1.77,1-1.77,1.54s.55.72,1.65.72a15.69,15.69,0,0,0,1.77-.07v.24c-.45,0-1.1.06-1.77.06-1.34,0-1.88-.34-1.88-.95s.88-1.22,2-1.76c-.06-.6-.32-.84-.64-.84A2.55,2.55,0,0,0,62,153.2a10.74,10.74,0,0,1-.8.76l-.15-.16a5.11,5.11,0,0,0,1.86-2.8h-1.7v-.22H63a10.17,10.17,0,0,0,.22-1.06l.41.07c0,.07-.06.11-.17.12-.06.32-.13.59-.2.87a10.13,10.13,0,0,0,2.6-.43l0,.23a10.45,10.45,0,0,1-2.72.42,5.54,5.54,0,0,1-.61,1.44Z"/><path class="cls-1" d="M73.67,151.31l-.75,0c-.28,0-.57,0-.84,0-.08.6-.15,1.23-.21,1.77a15.1,15.1,0,0,0,1.78-.1v.23c-.47,0-1.18.09-1.81.09,0,.36-.06.58-.06.79,0,1.3.83,1.42,1.58,1.42s1.83-.09,1.83-1.07a2.36,2.36,0,0,0-.62-1.38.84.84,0,0,0,.19-.11,2.46,2.46,0,0,1,.66,1.5c0,.93-.86,1.28-2,1.28-.6,0-1.84,0-1.84-1.62,0-.18,0-.39.06-.81-.62,0-1.58,0-1.58-.69a1.11,1.11,0,0,1,.62-.85l.15.16c-.33.21-.53.46-.53.67,0,.46.67.46,1.36.48.06-.53.13-1.18.21-1.79a5.11,5.11,0,0,1-1.55-.41l.09-.21a4.75,4.75,0,0,0,1.48.41c.06-.48.12-1,.17-1.34l.42.06c0,.08-.1.12-.21.12l-.15,1.19c.25,0,.5,0,.76,0s.55,0,.81,0Z"/><path class="cls-1" d="M83.54,151.83h-.06a.27.27,0,0,1-.13,0c-2.06.64-4.16,1.67-4.16,2.74,0,.78.89,1,2.15,1a19.74,19.74,0,0,0,2.45-.14v.24a21.3,21.3,0,0,1-2.47.12c-1.4,0-2.38-.31-2.38-1.23,0-.76.81-1.44,1.95-2a6.92,6.92,0,0,1-.31-2.84l.44,0c0,.08-.08.14-.21.15a5.81,5.81,0,0,0,.29,2.54,18.55,18.55,0,0,1,2.33-.9Z"/><path class="cls-1" d="M88,150c0,.08-.1.11-.25.1a17.34,17.34,0,0,0-.36,3.21,9.24,9.24,0,0,0,.12,1.66l.59-1.53.21.08c-.32.85-.51,1.27-.6,1.56a1.15,1.15,0,0,0-.06.32.6.6,0,0,0,0,.2l-.22.06a7.12,7.12,0,0,1-.3-2.35,18.81,18.81,0,0,1,.4-3.41Zm4.64,5-.74,0a9.36,9.36,0,0,1-1.38-.08c-.78-.12-1.19-.57-1.19-1.11A2.12,2.12,0,0,1,90,152.6l.19.13a1.83,1.83,0,0,0-.65,1.18c0,.41.34.79,1,.9a8.2,8.2,0,0,0,1.21.08c.27,0,.56,0,.84,0ZM89.38,151a21.35,21.35,0,0,0,3.11-.27l0,.23a25.23,25.23,0,0,1-3.13.27Z"/><path class="cls-1" d="M95.44,152.6a9.25,9.25,0,0,0,3.07-3.08l.38,0s-.06.06-.12.08a10.63,10.63,0,0,0,3.12,2.89.86.86,0,0,0-.14.18,10.87,10.87,0,0,1-3.12-2.92,9.92,9.92,0,0,1-3,3Zm3.36.83v2.14h2.91v.21H95.62v-.21h1v-2.82l.32,0s0,.06-.11.07v2.72h1.72v-4.16l.32,0s0,.06-.1.07v1.72H101v.21Z"/><path class="cls-1" d="M104.59,150.06h6.21v.21h-3v1h1.64v3.17h-3.48v-3.17h1.63v-1h-3Zm5.81,5.25v-4.08l.32,0s0,.06-.11.07V156h-.21v-.45H105V156h-.21v-4.76l.32,0s0,.06-.11.07v4Zm-4.26-3.8v1.26h1.42V151.5Zm0,1.47v1.27h1.42V153Zm3.06-.21V151.5h-1.43v1.26Zm0,1.48V153h-1.43v1.27Z"/><path class="cls-1" d="M115.21,152.44a2,2,0,0,1,1.24-.53c.53,0,.79.38.87,1,.62-.29,1.42-.61,2-.84l.15.29h0a.19.19,0,0,1-.1,0c-.54.19-1.37.52-2,.81a5.55,5.55,0,0,1,0,.62c0,.26,0,.55,0,.86h-.25c0-.27,0-.64,0-1a3.83,3.83,0,0,0,0-.42c-1,.46-1.77,1-1.77,1.54s.55.72,1.65.72a15.69,15.69,0,0,0,1.77-.07v.24c-.45,0-1.1.06-1.77.06-1.34,0-1.88-.34-1.88-.95s.88-1.22,2-1.76c-.06-.6-.32-.84-.64-.84a2.55,2.55,0,0,0-1.78,1.06,10.74,10.74,0,0,1-.8.76l-.15-.16a5.11,5.11,0,0,0,1.86-2.8h-1.7v-.22h1.76a10.17,10.17,0,0,0,.22-1.06l.41.07c0,.07-.06.11-.17.12-.06.32-.13.59-.2.87a10.13,10.13,0,0,0,2.6-.43l0,.23a10.45,10.45,0,0,1-2.72.42,5.54,5.54,0,0,1-.61,1.44Z"/><path class="cls-1" d="M.66,162.9l3.43-.11c0-.12,0-1.16,0-1.17h.42c0,.06,0,.12-.18.14,0,.22,0,.64,0,1l2.33-.06V163c-.66,0-1.52,0-2.33,0,0,.6,0,1,.06,1.57a2.46,2.46,0,0,1,.08.73c0,.67-.06,1.84-2.07,2.67l-.15-.19c1.29-.48,1.87-1.2,2-2h0a1.09,1.09,0,0,1-1,.53,1.15,1.15,0,0,1-1.13-1.19,1.26,1.26,0,0,1,1.2-1.27,1.1,1.1,0,0,1,.79.29s0-.08,0-.1,0-.57,0-1l-3.43.12Zm3.54,2.23c0-.49-.09-1.08-.84-1.08a1,1,0,0,0-1,1.05.92.92,0,0,0,.92,1A.91.91,0,0,0,4.2,165.12Z"/><path class="cls-1" d="M10.52,164.73a4.67,4.67,0,0,1,2-.5,1.6,1.6,0,0,1,1.82,1.63c0,1.27-1.13,2-2.44,2-.92,0-1.53-.33-1.53-.89a1,1,0,0,1,1.09-.87,1.53,1.53,0,0,1,1.43,1.38,1.65,1.65,0,0,0,1.23-1.58,1.41,1.41,0,0,0-1.6-1.42,4.34,4.34,0,0,0-2.7,1c-.23.22-.5.53-.69.76L9,166c.71-.78,2.89-2.86,3.85-3.76-.45.06-2,.11-2.95.14a.19.19,0,0,1-.13.11l0-.33c1,0,2.68-.07,3.22-.15l.1,0,.25.27a.36.36,0,0,1-.15.06c-.59.5-2.07,1.92-2.59,2.44Zm1.39,2.87a3.13,3.13,0,0,0,.78-.1,1.33,1.33,0,0,0-1.23-1.23c-.46,0-.86.25-.86.65S11.31,167.6,11.9,167.6Z"/><path class="cls-1" d="M22.17,167.22a12.47,12.47,0,0,1-2.18.18,7,7,0,0,1-1.29-.09A1.27,1.27,0,0,1,17.55,166a2.31,2.31,0,0,1,.74-1.51l.18.13a2.17,2.17,0,0,0-.69,1.42c0,.46.31.86,1,1a6,6,0,0,0,1.21.09,11.45,11.45,0,0,0,2.18-.2Zm-1.48-4.41c-.65.07-2,.1-2.93.1v-.23a22.36,22.36,0,0,0,3.94-.24l.06.24a2.36,2.36,0,0,0-.78.23,9.46,9.46,0,0,0-1.62,1l-.15-.16a9.94,9.94,0,0,1,1.48-1Z"/><path class="cls-1" d="M30,163.83H30a.27.27,0,0,1-.13,0c-2.06.64-4.16,1.67-4.16,2.74,0,.78.89,1,2.15,1a19.74,19.74,0,0,0,2.45-.14v.24a21.3,21.3,0,0,1-2.47.12c-1.4,0-2.38-.31-2.38-1.23,0-.76.81-1.44,1.95-2a6.92,6.92,0,0,1-.31-2.84l.44,0c0,.08-.08.14-.21.15a5.81,5.81,0,0,0,.29,2.54,18.55,18.55,0,0,1,2.33-.9Z"/><path class="cls-1" d="M32.85,162.56c.55,0,4.89-.37,5.74-.34v.24h-.29a2.1,2.1,0,0,0-1.11.31c-1.24.71-2.3,2-2.3,2.93s.67,1.77,2.55,2l-.09.22c-2-.32-2.7-1-2.7-2.26,0-1.08,1.1-2.35,2.54-3.19-.7,0-3.08.21-4.17.31a.21.21,0,0,1-.14.1Zm4.44,1.18a5.43,5.43,0,0,1,1,1l-.16.13a4.87,4.87,0,0,0-1-1Zm.7-.61a5.1,5.1,0,0,1,1,1l-.16.13a5.1,5.1,0,0,0-1-1Z"/><path class="cls-1" d="M41.36,166.21A14.69,14.69,0,0,1,43,167.8l-.2.2a14.55,14.55,0,0,0-1.6-1.62Z"/><path class="cls-1" d="M46.65,161.65a4.5,4.5,0,0,1,.87,1,5.8,5.8,0,0,0,.79-1l.25.14a.1.1,0,0,1-.1,0,6.87,6.87,0,0,1-.83,1,7.16,7.16,0,0,1,.21,5c-.11.15-.24.22-.85.22h-.35a.56.56,0,0,0-.09-.22l.53,0c.4,0,.5,0,.6-.15a5.15,5.15,0,0,0,.3-2.25,7.58,7.58,0,0,0,0-.9,5.94,5.94,0,0,1-1.51,1.72.7.7,0,0,0-.15-.18,5.14,5.14,0,0,0,1.61-1.87,3.75,3.75,0,0,0-.42-1.23,10.48,10.48,0,0,1-1,.85l-.15-.13a8.42,8.42,0,0,0,1-.9,4.25,4.25,0,0,0-.87-1Zm5.53,5.92h.61v.21H48.28v-.21h.89v-5.65h3ZM52,162.12H49.38v1.63H52Zm0,3.52V164H49.38v1.68Zm-2.59.21v1.72H52v-1.72Z"/><path class="cls-1" d="M55.72,162.48c0,.07-.09.1-.2.11a11.19,11.19,0,0,0-.1,1.55c0,.34,0,.66,0,.95.1,1.36.68,2.14,1.3,2.14.31,0,.73-.73,1-1.65a1.05,1.05,0,0,0,.2.11c-.36,1-.76,1.76-1.25,1.77-.74,0-1.4-.88-1.51-2.35,0-.28,0-.6,0-.94,0-.6,0-1.23.09-1.79Zm5.15,3.17A3.62,3.62,0,0,0,59,162.94l.13-.18a3.78,3.78,0,0,1,1.94,2.84Z"/><path class="cls-1" d="M64.85,164.41v2.33c.63.92,1.82.92,3,.92.74,0,1.64,0,2.14,0a.68.68,0,0,0-.08.22l-2,0c-1.38,0-2.45,0-3.19-.92-.4.34-.82.69-1.16.95a.08.08,0,0,1,0,.09l-.16-.24a15.1,15.1,0,0,0,1.25-1v-2.14H63.47v-.21Zm-1.08-2.68a4.83,4.83,0,0,1,1.19,1.2l-.17.13a4.85,4.85,0,0,0-1.18-1.23Zm4.43,1.62a15.81,15.81,0,0,0-1.76-.78l.14-.15c.35.13.74.28,1.11.45a5.64,5.64,0,0,0,1.46-.75H65.67v-.21h3.78l.18.13-.07,0a6.26,6.26,0,0,1-1.64.92,7.53,7.53,0,0,1,.72.37h.94v3.38c0,.18,0,.25-.19.29a5,5,0,0,1-1,0,.91.91,0,0,0-.08-.21H69c.34,0,.38,0,.38-.14v-1H67.73V167h-.21v-1.28H65.94v1.31h-.21v-3.7Zm-.68.21H65.94v.87h1.58Zm-1.58,2h1.58v-.9H65.94Zm3.44-1.11v-.87H67.73v.87Zm-1.65,1.11h1.65v-.9H67.73Z"/><path class="cls-1" d="M73.06,165.67a3.38,3.38,0,0,1-.2-1.18,12.65,12.65,0,0,1,.25-2.44l.43.1c0,.1-.11.11-.22.12a11.08,11.08,0,0,0-.24,2.19,2.76,2.76,0,0,0,0,.54c.15-.37.43-.91.57-1.18a1.7,1.7,0,0,0,.18.13,9.78,9.78,0,0,0-.57,1.21.8.8,0,0,0,0,.27.58.58,0,0,0,0,.19Zm3.57-3.8c0,.09-.07.12-.2.15,0,.65.12,1.72.12,2.47,0,1.36-.53,2.54-2.56,3.38l-.15-.2c1.9-.72,2.49-1.89,2.49-3.18,0-.78-.08-1.83-.15-2.65Z"/><path class="cls-1" d="M83.06,162.57a.14.14,0,0,1-.15.1c-.22,2-1,4.29-2.1,4.29-.47,0-1-.56-1-1.6a3,3,0,0,1,3.11-3.08,2.55,2.55,0,0,1,2.82,2.62c0,1.68-1,2.45-2.68,2.8l-.12-.21c1.62-.31,2.58-1.1,2.58-2.58a2.34,2.34,0,0,0-2.59-2.42h-.11Zm-.36-.06A2.84,2.84,0,0,0,80,165.36c0,.86.42,1.37.78,1.37C81.77,166.73,82.48,164.62,82.7,162.5Z"/><path class="cls-1" d="M91.3,162.36H89.54v5.07h-.25v-5.07H87.52v-.22H91.3Z"/><path class="cls-1" d="M97.27,162.15l-2,5.29h-.22l-1.77-5.29h.27l1,2.94c.27.79.48,1.44.64,2h0c.16-.59.41-1.27.69-2l1.1-2.94Z"/><path class="cls-1" d="M103,167.24a3.39,3.39,0,0,1-1.44.27,2.41,2.41,0,0,1-2.46-2.7,2.55,2.55,0,0,1,2.66-2.75,2.66,2.66,0,0,1,1.21.23l-.1.2a2.38,2.38,0,0,0-1.09-.24,2.32,2.32,0,0,0-2.42,2.58,2.23,2.23,0,0,0,2.33,2.47,2.75,2.75,0,0,0,1.22-.26Z"/><path class="cls-1" d="M110.51,167.43h-.25l-.16-2.58c-.06-.92-.13-1.84-.12-2.37h0c-.2.55-.41,1.14-.73,2l-1.18,3h-.16l-1.11-2.93c-.32-.86-.55-1.46-.71-2h0c0,.61-.06,1.53-.13,2.44l-.17,2.5h-.25l.39-5.29h.26l1.23,3.24c.25.69.44,1.19.6,1.68h0c.14-.47.33-.92.61-1.65l1.27-3.27h.28Z"/><path class="cls-1" d="M116.37,162.57a.14.14,0,0,1-.15.1c-.22,2-1,4.29-2.1,4.29-.47,0-1-.56-1-1.6a3,3,0,0,1,3.11-3.08,2.55,2.55,0,0,1,2.82,2.62c0,1.68-1,2.45-2.68,2.8l-.12-.21c1.62-.31,2.58-1.1,2.58-2.58a2.34,2.34,0,0,0-2.59-2.42h-.11Zm-.36-.06a2.84,2.84,0,0,0-2.67,2.86c0,.86.42,1.37.78,1.37C115.07,166.73,115.79,164.62,116,162.5Z"/><path class="cls-1" d="M2.54,174.91V176H4.41v.21H2.54V177H4v2.09c0,.15,0,.22-.16.26a4.7,4.7,0,0,1-.87,0,.72.72,0,0,0-.08-.19h.44c.41,0,.46,0,.46-.1v-1.89H2.54V180H2.33v-2.74H1.09v2.19H.88V177H2.33v-.88H.44V176H2.33v-1.05H1.18a4.67,4.67,0,0,1-.34.93l-.19-.08a7.63,7.63,0,0,0,.57-2l.32.08s0,.06-.13.06a7.92,7.92,0,0,1-.17.79H2.33v-1.13l.32,0s0,.06-.11.07v1H4.09v.21Zm2.28-.5.32,0s0,.06-.11.07v3.78H4.81Zm1.5-.72.32,0s0,.06-.11.07v5.84c0,.22-.08.3-.24.34a5.41,5.41,0,0,1-1.06,0,2.11,2.11,0,0,0-.09-.2h.56c.58,0,.62,0,.62-.17Z"/><path class="cls-1" d="M10.09,175.65A8.12,8.12,0,0,1,9,177.12L8.89,177a9.18,9.18,0,0,0,1.9-3.34l.3.09a.13.13,0,0,1-.13.06,10.49,10.49,0,0,1-.7,1.58l.15,0s0,.06-.11.06V180h-.21ZM15.5,175H13.07v1.32h2.26v.21H13.07v1.37h2.35v.21H13.07V180h-.21v-5H12a7.86,7.86,0,0,1-1,1.67l-.17-.13a8.81,8.81,0,0,0,1.51-2.87l.32.1s-.06.06-.14.06c-.11.32-.24.64-.38,1H15.5Z"/><path class="cls-1" d="M19.92,173.88c0,.08-.09.12-.23.12-.08.43-.22,1.16-.32,1.58a9.61,9.61,0,0,1,1-.08c1,0,1.32.63,1.32,1.63a5.35,5.35,0,0,1-.28,1.7,1.19,1.19,0,0,1-1.16.91,2,2,0,0,1-1.28-.64.86.86,0,0,0,.11-.19c.62.5.93.6,1.18.6a1,1,0,0,0,.94-.74,5.66,5.66,0,0,0,.27-1.64c0-.85-.29-1.42-1.11-1.42a10.09,10.09,0,0,0-1,.08,12.1,12.1,0,0,1-1.54,3.87l-.21-.1a11.36,11.36,0,0,0,1.52-3.75c-.43,0-1,.1-1.37.17l0-.22,1.46-.17c.11-.51.24-1.18.33-1.81Zm1.8-.2a5.44,5.44,0,0,1,1,1l-.16.13a5.31,5.31,0,0,0-1-1Zm1.74,4.08a4.49,4.49,0,0,0-1.61-2.44l.17-.14a4.58,4.58,0,0,1,1.66,2.49Zm-.71-4.36a5.45,5.45,0,0,1,1,1l-.16.13a5.35,5.35,0,0,0-1-1Z"/><path class="cls-1" d="M32.37,174.09v.21h-.93v5.23c0,.26-.07.37-.28.41a9.53,9.53,0,0,1-1.37,0c0-.06-.06-.17-.1-.25h.85c.67,0,.69,0,.69-.22V174.3H26.1v-.21Zm-2.67,4.07H27v.6H26.8V175.6H29.7Zm-.21-2.35H27v2.14h2.47Z"/><path class="cls-1" d="M37.11,175.23a7.91,7.91,0,0,0-.67-.9l.15-.08a7.44,7.44,0,0,1,1,1.53l-.15.1a4.92,4.92,0,0,0-.25-.47l-2.79.13s0,.07-.08.08l-.1-.3h.58a12.71,12.71,0,0,0,.83-1.74l.29.09s-.06.06-.13.06a17.22,17.22,0,0,1-.78,1.58Zm0,1v3.41c0,.34-.13.35-1.1.35a.78.78,0,0,0-.09-.23h.62c.33,0,.36,0,.36-.13v-1H35V180h-.21v-3.78Zm-.21.21H35v.85h2Zm-2,1.95h2v-.89H35Zm5.11-2c.32,0,.38-.13.41-.92a.58.58,0,0,0,.21.1c0,.82-.12,1-.61,1H38.61c-.53,0-.69-.08-.69-.47v-2.59l.31,0s0,.06-.1.07v1.27a17.85,17.85,0,0,0,2-.74l.21.2h-.11a20.74,20.74,0,0,1-2.12.72v1c0,.21.07.26.46.26Zm-1.94,3c0,.22.08.27.48.27h1.53c.36,0,.41-.15.44-1a.7.7,0,0,0,.21.09c0,.92-.13,1.14-.64,1.14H38.63c-.55,0-.71-.08-.71-.48v-2.58l.31,0s0,.06-.1.07v1.18a9.11,9.11,0,0,0,2.14-.81l.19.21h-.11a10.06,10.06,0,0,1-2.23.78Z"/><path class="cls-1" d="M48,175.83H48a.27.27,0,0,1-.13,0c-2.06.64-4.16,1.67-4.16,2.74,0,.78.89,1,2.15,1a19.74,19.74,0,0,0,2.45-.14v.24a21.3,21.3,0,0,1-2.47.12c-1.4,0-2.38-.31-2.38-1.23,0-.76.81-1.44,1.95-2a6.92,6.92,0,0,1-.31-2.84l.44,0c0,.08-.08.14-.21.15a5.81,5.81,0,0,0,.29,2.54,18.55,18.55,0,0,1,2.33-.9Z"/><path class="cls-1" d="M53,173.75c0,.06-.09.1-.22.1-.06.35-.12.72-.2,1a10.89,10.89,0,0,0,2.3-.36l0,.23a14.59,14.59,0,0,1-2.39.36A9.74,9.74,0,0,1,51,178.64l-.2-.1a9.53,9.53,0,0,0,1.52-3.4H50.8v-.22h1.58c.09-.39.16-.8.22-1.25Zm1.91,2.94c0,.67.06,1,.1,1.58a7.22,7.22,0,0,1,1.59.88l-.14.2a7.17,7.17,0,0,0-1.44-.83v.3a1.07,1.07,0,0,1-1.22,1.08c-.81,0-1.36-.33-1.36-.93s.74-1,1.36-1a3.18,3.18,0,0,1,1,.17c0-.53-.09-1.06-.09-1.46Zm-.13,1.73a2.82,2.82,0,0,0-1-.2c-.48,0-1.12.17-1.12.73s.48.71,1.13.71,1-.28,1-.85C54.82,178.66,54.82,178.54,54.82,178.42Zm1.79-2.61a9,9,0,0,0-2.5.38l-.06-.22a9.44,9.44,0,0,1,2.55-.39Z"/><path class="cls-1" d="M60,177.67a3.38,3.38,0,0,1-.2-1.18A12.65,12.65,0,0,1,60,174l.43.1c0,.1-.11.11-.22.12a11.08,11.08,0,0,0-.24,2.19,2.76,2.76,0,0,0,0,.54c.15-.37.43-.91.57-1.18a1.7,1.7,0,0,0,.18.13,9.78,9.78,0,0,0-.57,1.21.8.8,0,0,0,0,.27.58.58,0,0,0,0,.19Zm3.57-3.8c0,.09-.07.12-.2.15,0,.65.12,1.72.12,2.47,0,1.36-.53,2.54-2.56,3.38l-.15-.2c1.9-.72,2.49-1.89,2.49-3.18,0-.78-.08-1.83-.15-2.65Z"/><path class="cls-1" d="M66.74,174.72c.44,0,1,0,1.41,0l1.18,0c0-.36,0-.78,0-1.05l.43,0c0,.08-.06.12-.2.14,0,.24,0,.59,0,.87a12.94,12.94,0,0,0,2.47-.3l0,.22a13.13,13.13,0,0,1-2.52.3l0,1.51a10.87,10.87,0,0,0,2.12-.29l0,.23a13.38,13.38,0,0,1-2.16.27l.06,1.35a8.3,8.3,0,0,1,2.18,1.17l-.15.2a7.54,7.54,0,0,0-2-1.13c0,.15,0,.31,0,.42a1,1,0,0,1-1.11,1.11c-.87,0-1.53-.31-1.53-1s.77-1,1.51-1a3.37,3.37,0,0,1,.88.1c0-.36,0-.81,0-1.27h-.76c-1,0-1.53-.06-1.53-.53,0-.25.19-.43.59-.71l.16.16c-.45.27-.53.43-.53.57s.46.3,1.3.3h.75l0-1.5c-.51,0-1,0-1.63,0-.33,0-.69,0-1,0Zm2.72,3.45a3.24,3.24,0,0,0-.9-.12c-.6,0-1.28.25-1.28.76s.59.75,1.3.75.88-.29.88-.9Z"/><path class="cls-1" d="M74.69,174.9l3.43-.11c0-.12,0-1.16,0-1.17h.42c0,.06,0,.12-.18.14,0,.22,0,.64,0,1l2.33-.06V175c-.66,0-1.52,0-2.33,0,0,.6,0,1,.06,1.57a2.46,2.46,0,0,1,.08.73c0,.67-.06,1.84-2.07,2.67l-.15-.19c1.29-.48,1.87-1.2,2-2h0a1.09,1.09,0,0,1-1,.53,1.15,1.15,0,0,1-1.13-1.19,1.26,1.26,0,0,1,1.2-1.27,1.1,1.1,0,0,1,.79.29s0-.08,0-.1,0-.57,0-1l-3.43.12Zm3.54,2.23c0-.49-.09-1.08-.84-1.08a1,1,0,0,0-1,1.05.92.92,0,0,0,.92,1A.91.91,0,0,0,78.24,177.12Z"/><path class="cls-1" d="M84.94,179a1,1,0,1,1-1-1A1,1,0,0,1,84.94,179Zm-.21,0a.77.77,0,1,0-.77.77A.77.77,0,0,0,84.73,179Z"/><path class="cls-1" d="M10.56,278.79a3.85,3.85,0,0,1,.74.82,5,5,0,0,0,.68-.89l.22.12a.08.08,0,0,1-.09,0,5.89,5.89,0,0,1-.71.89,6.13,6.13,0,0,1,.18,4.28c-.1.13-.2.19-.73.19h-.3a.49.49,0,0,0-.08-.19l.46,0c.34,0,.43,0,.51-.13A4.4,4.4,0,0,0,11.7,282a6.67,6.67,0,0,0,0-.77,5.09,5.09,0,0,1-1.29,1.48.59.59,0,0,0-.13-.16,4.41,4.41,0,0,0,1.38-1.6,3.2,3.2,0,0,0-.36-1.06,8.92,8.92,0,0,1-.85.73l-.13-.11a7.08,7.08,0,0,0,.89-.77,3.64,3.64,0,0,0-.74-.84Zm4.74,5.07h.52V284H12v-.18h.76V279H15.3Zm-.18-4.66H12.9v1.39h2.22Zm0,3v-1.44H12.9v1.44Zm-2.22.18v1.47h2.22v-1.47Z"/><path class="cls-1" d="M18,279.5c0,.06-.08.09-.17.1a9.53,9.53,0,0,0-.08,1.33c0,.29,0,.56,0,.81.08,1.16.58,1.83,1.12,1.83.26,0,.62-.62.89-1.41l.17.1c-.31.82-.65,1.51-1.07,1.51-.63,0-1.2-.75-1.29-2,0-.24,0-.52,0-.8,0-.51,0-1.06.08-1.53Zm4.41,2.72a3.1,3.1,0,0,0-1.58-2.32l.11-.16a3.24,3.24,0,0,1,1.66,2.43Z"/><path class="cls-1" d="M26.06,278.85c0,.06-.1.11-.18.11,0,.29-.1.62-.17,1a7.12,7.12,0,0,0,1.89-.36l.07.19a7.79,7.79,0,0,1-2,.37A14.27,14.27,0,0,1,24.54,284l-.19-.08a13.65,13.65,0,0,0,1.12-3.75H24.29V280h1.22c.07-.41.13-.84.18-1.22Zm3.2,5.11h-.51a5.52,5.52,0,0,1-1.53-.16.78.78,0,0,1-.57-.76,1.4,1.4,0,0,1,.37-.86l.16.1a1.28,1.28,0,0,0-.34.76c0,.54.49.73,1.78.73l.64,0ZM29.08,281a6.48,6.48,0,0,0-2.14.3l-.06-.17a7,7,0,0,1,2.21-.32Z"/><path class="cls-1" d="M31.68,279.5c0,.06-.08.09-.17.1a9.53,9.53,0,0,0-.08,1.33c0,.29,0,.56,0,.81.08,1.16.58,1.83,1.12,1.83.26,0,.62-.62.89-1.41l.17.1c-.31.82-.65,1.51-1.07,1.51-.63,0-1.2-.75-1.29-2,0-.24,0-.52,0-.8,0-.51,0-1.06.08-1.53Zm4.41,2.72a3.1,3.1,0,0,0-1.58-2.32l.11-.16a3.24,3.24,0,0,1,1.66,2.43Z"/><path class="cls-1" d="M40.12,280l.12,0,0,0a7.66,7.66,0,0,1-.63,2.62,4.73,4.73,0,0,1,.74.67l-.11.15a4.61,4.61,0,0,0-.71-.65,3.25,3.25,0,0,1-1.25,1.34.81.81,0,0,0-.13-.16,3,3,0,0,0,1.23-1.3,7.53,7.53,0,0,0-.94-.59l-.08.31-.17-.09c.16-.55.38-1.38.57-2.19H38V280h.74c.11-.47.21-.92.29-1.31l.27,0s0,.05-.1.05c-.08.35-.17.77-.28,1.21h1.16Zm-1.21.19c-.15.63-.31,1.28-.46,1.81a9.12,9.12,0,0,1,1,.59,7.08,7.08,0,0,0,.59-2.4Zm4.64,1.22v.18H42v2.3c0,.19-.05.26-.2.29a5.49,5.49,0,0,1-1,0,1.08,1.08,0,0,0-.08-.19h.68c.37,0,.4,0,.4-.14v-2.3H40.23v-.18h1.61v-1.09l.17,0a5.8,5.8,0,0,0,1.13-1.15H40.5V279h2.82l.15.1a.12.12,0,0,1-.06,0A6.68,6.68,0,0,1,42,280.54v.88Z"/><path class="cls-1" d="M45.88,279.56v.73a3.72,3.72,0,0,1-.64,2.28.37.37,0,0,0-.14-.12,3.51,3.51,0,0,0,.6-2.17v-.91h2.48a5.36,5.36,0,0,1-.08-.68h.29s0,.06-.1.07c0,.2,0,.4.07.6H50.6v.18h-2.2a6,6,0,0,0,.62,1.66,5,5,0,0,0,.67-1.22l.26.08s-.05.05-.11.05a5,5,0,0,1-.71,1.25c.35.56.76.94,1.1.94.18,0,.25-.22.28-.82a.51.51,0,0,0,.17.09c0,.68-.16.91-.45.91s-.84-.38-1.21-1a4.56,4.56,0,0,1-1.07.93.67.67,0,0,0-.14-.12,4.29,4.29,0,0,0,1.1-1,6.23,6.23,0,0,1-.68-1.81Zm.29,3.24a1.61,1.61,0,0,1-.9,1.22l-.14-.11a1.52,1.52,0,0,0,.88-1.16Zm0-2.55v-.18h1.94v.18Zm1.75,1.66H46.49v.25h-.18v-1.43h1.57Zm-.18-1H46.49v.83h1.21Zm-.78,2.88c0,.14.06.17.42.17h1.36c.29,0,.34-.08.36-.7a.58.58,0,0,0,.18.08c0,.66-.11.8-.53.8H47.35c-.49,0-.62,0-.62-.35v-1l.27,0s0,.05-.09.06Zm1.35-.6a4,4,0,0,0-1.16-.73l.12-.13a3.73,3.73,0,0,1,1.16.71Zm.83-4.49a3,3,0,0,1,.91.44l-.11.16a3,3,0,0,0-.91-.46ZM50.49,284a4.24,4.24,0,0,0-1.17-1.18l.14-.1a4.19,4.19,0,0,1,1.18,1.17Z"/><path class="cls-1" d="M57.84,279.55H53v1.63a6.7,6.7,0,0,1-.57,3.08.54.54,0,0,0-.15-.11,6.39,6.39,0,0,0,.54-3v-1.81h2.33v-.66l.27,0s0,.05-.09.06v.58h2.47Zm-.79,2.64.13.08,0,0a3.16,3.16,0,0,1-1.37,1.21,7.26,7.26,0,0,0,2.12.55.57.57,0,0,0-.11.16,7.53,7.53,0,0,1-2.2-.62,8.09,8.09,0,0,1-2.3.61.6.6,0,0,0-.09-.16,7.93,7.93,0,0,0,2.21-.54,3.22,3.22,0,0,1-1.22-1l.16-.07a3.06,3.06,0,0,0,1.25,1,3.05,3.05,0,0,0,1.29-1H53.41v-.18h3.65Zm-.44-.54H54.44V280.6H53.35v-.18h1.09v-.63l.27,0s0,.05-.09.06v.55h1.82v-.63l.27,0s0,.05-.09.06v.55H57.8v.18H56.61Zm-.18-1.06H54.62v.88h1.82Z"/><path class="cls-1" d="M63.18,280h.23a1.15,1.15,0,1,1,0,2.29,2.21,2.21,0,0,1-1.26-.44,1.06,1.06,0,0,0,.08-.18,2,2,0,0,0,1.19.43,1,1,0,0,0,1.08-1c0-.58-.42-.92-1.07-.92a8.74,8.74,0,0,0-2.21.56c.25.88.65,2.36.91,3.33l-.21,0c-.21-.91-.64-2.46-.89-3.31l-1.33.45a.17.17,0,0,1-.1.13l-.12-.26,1.49-.5c-.2-.67-.37-1.25-.46-1.54l.38-.08c0,.08,0,.11-.13.16.17.58.28.94.4,1.39a11.07,11.07,0,0,1,2-.55,5.51,5.51,0,0,0-1.16-1.07l.13-.14a5.39,5.39,0,0,1,1.22,1.12Z"/><path class="cls-1" d="M66.59,282.69a12.52,12.52,0,0,1,1.4,1.36l-.17.17a12.44,12.44,0,0,0-1.37-1.39Z"/><path class="cls-1" d="M75.16,279.85a.06.06,0,0,1-.05,0,7.48,7.48,0,0,1-.92,2.06,10.1,10.1,0,0,1,.85.55l-.12.16a8,8,0,0,0-.83-.55,5.81,5.81,0,0,1-2.27,2,.52.52,0,0,0-.14-.14A5.82,5.82,0,0,0,73.91,282a10.58,10.58,0,0,0-1.54-.7l.1-.17a11.47,11.47,0,0,1,1.55.71,6.88,6.88,0,0,0,.86-1.88h-2.3a6.3,6.3,0,0,1-1.45,1.76L71,281.6a6.82,6.82,0,0,0,1.94-2.78l.29.08c0,.05-.07.07-.14.06-.1.23-.25.57-.38.82H75l0,0Z"/><path class="cls-1" d="M77.26,281.25h5v.2h-4.8a.23.23,0,0,1-.17.11Z"/><path class="cls-1" d="M89.2,280.38v.19H87.56a.13.13,0,0,1-.1.07,4.21,4.21,0,0,1-2.06,3.43l-.16-.13a3.94,3.94,0,0,0,2-3.36h-1.9a5.12,5.12,0,0,1-1,1.3.55.55,0,0,0-.16-.11,6.32,6.32,0,0,0,1.67-2.87l.34.09a.15.15,0,0,1-.16.08,9.53,9.53,0,0,1-.58,1.31ZM87.88,279a4.36,4.36,0,0,1,.81.91l-.14.11a4.16,4.16,0,0,0-.8-.89Zm.8-.35a4.36,4.36,0,0,1,.81.91l-.14.11a4.14,4.14,0,0,0-.8-.89Z"/><path class="cls-1" d="M91.71,280.48a6.81,6.81,0,0,1,.47,1.31l-.17,0a6.55,6.55,0,0,0-.46-1.28Zm3.64,0s-.05,0-.11,0A4.57,4.57,0,0,1,92.43,284l-.11-.14a4.39,4.39,0,0,0,2.76-3.42Zm-2.16-.29a8.29,8.29,0,0,1,.27,1.39l-.17,0a7.49,7.49,0,0,0-.28-1.37Z"/><path class="cls-1" d="M101.12,281.94a23.78,23.78,0,0,0-2.26-1V284h-.2v-5.17l.34,0c0,.06-.05.09-.14.11v1.8l0-.08a22.94,22.94,0,0,1,2.33,1Z"/><path class="cls-1" d="M104.75,281.17a1.73,1.73,0,0,1,1.06-.45c.45,0,.68.32.74.83.53-.25,1.22-.52,1.73-.72l.13.25h0a.17.17,0,0,1-.09,0c-.46.16-1.17.44-1.71.7a4.75,4.75,0,0,1,0,.53c0,.22,0,.47,0,.74h-.22c0-.23,0-.55,0-.83a3.27,3.27,0,0,0,0-.36c-.82.4-1.52.86-1.52,1.32s.47.62,1.41.62a13.5,13.5,0,0,0,1.52-.06v.2c-.38,0-.94,0-1.52,0-1.15,0-1.61-.29-1.61-.81s.75-1,1.68-1.51c0-.52-.27-.72-.55-.72a2.18,2.18,0,0,0-1.52.91,9.35,9.35,0,0,1-.68.65l-.13-.14a4.37,4.37,0,0,0,1.59-2.4h-1.46v-.19h1.51a8.49,8.49,0,0,0,.19-.91l.35.06c0,.06-.05.1-.14.1a7.39,7.39,0,0,1-.17.74,8.68,8.68,0,0,0,2.23-.37l0,.2a9,9,0,0,1-2.33.36,4.74,4.74,0,0,1-.52,1.23Z"/><path class="cls-1" d="M36.84,290.63a9.53,9.53,0,0,1,1.67.53l-.08.19a9.83,9.83,0,0,0-1.66-.53Zm.5,3a6.42,6.42,0,0,0,4.13-3.61,1.36,1.36,0,0,0,.17.11,6.55,6.55,0,0,1-4.07,3.62.13.13,0,0,1-.05.14Zm.12-4.53a9.55,9.55,0,0,1,1.65.58l-.08.18a9.65,9.65,0,0,0-1.64-.58Z"/><path class="cls-1" d="M47.22,289.44a.07.07,0,0,1-.06,0,9.61,9.61,0,0,1-1.25,2.12,22.2,22.2,0,0,1,2.33,2.16l-.16.13a20.92,20.92,0,0,0-2.3-2.13,9.2,9.2,0,0,1-2.44,2.14,1,1,0,0,0-.14-.15,9.17,9.17,0,0,0,3.7-4.2H43.79v-.19H47l0,0Z"/><path class="cls-1" d="M54.83,291.07H52.7l.09,0s0,.06-.11.07A3.27,3.27,0,0,1,50.79,294a1.06,1.06,0,0,0-.14-.15,3.1,3.1,0,0,0,1.83-2.79H50v-.19h4.8Zm-.58-1.7H50.56v-.19h3.68Z"/><path class="cls-1" d="M61.25,293.86c-.08-.18-.2-.4-.34-.63-1.21.12-3.53.24-4.47.29a.16.16,0,0,1-.1.11l-.1-.3.64,0c.41-1.18,1-3,1.39-4.27l.31.09c0,.05-.07.07-.16.07-.36,1.16-.92,2.9-1.34,4.1,1.19-.05,2.8-.16,3.71-.25a12.44,12.44,0,0,0-1.24-1.66l.16-.1a11.72,11.72,0,0,1,1.72,2.49Z"/><path class="cls-1" d="M64.13,289.13c0,.07-.08.1-.21.08a14.92,14.92,0,0,0-.31,2.75,8,8,0,0,0,.1,1.42l.5-1.31.18.07c-.28.73-.44,1.09-.52,1.34a1,1,0,0,0,0,.28.54.54,0,0,0,0,.17l-.19.05a6.07,6.07,0,0,1-.26-2,16.09,16.09,0,0,1,.34-2.92Zm4,4.32-.64,0a8,8,0,0,1-1.18-.07c-.67-.1-1-.49-1-.95a1.82,1.82,0,0,1,.59-1.13l.16.11a1.57,1.57,0,0,0-.56,1c0,.35.29.68.88.77a7.06,7.06,0,0,0,1,.07c.23,0,.48,0,.72,0Zm-2.8-3.51A18.22,18.22,0,0,0,68,289.7l0,.2a21.68,21.68,0,0,1-2.68.23Z"/><path class="cls-1" d="M72.53,289.11h.17a5.41,5.41,0,0,0,2.67,5,.81.81,0,0,0-.15.14,5.39,5.39,0,0,1-2.61-3.9A5.51,5.51,0,0,1,70,294.2l-.14-.13a5.37,5.37,0,0,0,2.61-3.9l.16,0a8.08,8.08,0,0,1-.07-.91H70.9v-.18h1.63Z"/><path class="cls-1" d="M82.06,290.11h.08l.1,0v.06c-.11,2.72-.2,3.6-.44,3.86s-.28.16-.52.16-.54,0-.86,0a.38.38,0,0,0-.06-.18c.45,0,.86,0,1,0s.2,0,.27-.08.32-1.12.41-3.66H79.59a4.71,4.71,0,0,1-2.32,4,.54.54,0,0,0-.13-.13,4.55,4.55,0,0,0,2.27-3.83h-2.1v-.18h2.11c0-.18,0-.36,0-.53v-.86l.27,0s0,.05-.09.06v.78c0,.17,0,.35,0,.53Z"/><path class="cls-1" d="M9,421.57a9.53,9.53,0,0,1,1.67.53l-.08.19A9.87,9.87,0,0,0,9,421.76Zm.5,3A6.42,6.42,0,0,0,13.66,421a1.43,1.43,0,0,0,.17.11,6.55,6.55,0,0,1-4.07,3.62.13.13,0,0,1-.05.14Zm.12-4.53a9.6,9.6,0,0,1,1.65.58l-.08.18a9.6,9.6,0,0,0-1.64-.58Z"/><path class="cls-1" d="M19.4,420.38a.08.08,0,0,1-.06,0,9.62,9.62,0,0,1-1.25,2.12,22.19,22.19,0,0,1,2.33,2.16l-.16.13A21,21,0,0,0,18,422.7a9.2,9.2,0,0,1-2.44,2.14,1,1,0,0,0-.14-.15,9.17,9.17,0,0,0,3.7-4.2H16v-.19h3.2l0,0Z"/><path class="cls-1" d="M27,422H24.88l.09,0s0,.06-.11.07A3.27,3.27,0,0,1,23,424.95a1.09,1.09,0,0,0-.14-.15A3.1,3.1,0,0,0,24.67,422H22.21v-.19H27Zm-.58-1.7H22.75v-.19h3.68Z"/><path class="cls-1" d="M33.43,424.8c-.08-.18-.2-.4-.34-.63-1.21.12-3.53.24-4.47.29a.16.16,0,0,1-.1.11l-.1-.3.64,0c.41-1.18,1-3,1.39-4.27l.31.09c0,.05-.07.07-.16.07-.36,1.16-.92,2.9-1.34,4.1,1.19-.05,2.8-.16,3.71-.25a12.38,12.38,0,0,0-1.24-1.66l.16-.1a11.72,11.72,0,0,1,1.72,2.5Z"/><path class="cls-1" d="M37.54,419.93c0,.07-.08.1-.2.1-.07.37-.19,1-.27,1.35a8.2,8.2,0,0,1,.83-.07c.83,0,1.13.54,1.13,1.4a4.59,4.59,0,0,1-.24,1.46,1,1,0,0,1-1,.78,1.74,1.74,0,0,1-1.1-.55.68.68,0,0,0,.1-.16c.53.43.8.52,1,.52a.82.82,0,0,0,.8-.64,4.86,4.86,0,0,0,.23-1.4c0-.73-.25-1.21-1-1.21-.21,0-.38,0-.86.07a10.4,10.4,0,0,1-1.32,3.32l-.18-.08a9.72,9.72,0,0,0,1.3-3.21l-1.18.14,0-.19,1.25-.14c.1-.44.2-1,.28-1.55Zm1.54-.17a4.65,4.65,0,0,1,.87.85l-.14.11a4.57,4.57,0,0,0-.86-.84Zm1.49,3.5a3.85,3.85,0,0,0-1.38-2.09l.14-.12a3.92,3.92,0,0,1,1.42,2.13ZM40,419.52a4.68,4.68,0,0,1,.87.84l-.14.11a4.6,4.6,0,0,0-.86-.84Z"/><path class="cls-1" d="M42.76,419.73a3.84,3.84,0,0,1,.74.82,5,5,0,0,0,.68-.89l.22.12a.08.08,0,0,1-.09,0,5.89,5.89,0,0,1-.71.89,6.13,6.13,0,0,1,.18,4.28c-.1.13-.2.19-.73.19h-.3a.49.49,0,0,0-.08-.19l.46,0c.34,0,.43,0,.51-.13a4.4,4.4,0,0,0,.26-1.92,6.67,6.67,0,0,0,0-.77,5.09,5.09,0,0,1-1.29,1.47.59.59,0,0,0-.13-.16,4.42,4.42,0,0,0,1.38-1.6,3.2,3.2,0,0,0-.36-1.06,8.92,8.92,0,0,1-.85.73l-.13-.11a7.12,7.12,0,0,0,.89-.77,3.65,3.65,0,0,0-.74-.84Zm4.74,5.07H48V425H44.16v-.18h.76V420H47.5Zm-.18-4.66H45.1v1.39h2.22Zm0,3v-1.44H45.1v1.44Zm-2.22.18v1.47h2.22v-1.47Z"/><path class="cls-1" d="M49.88,422.06l.49-.14a8.61,8.61,0,0,1,2.18-.46,1.35,1.35,0,0,1,1.51,1.39c0,1.28-1.36,1.77-2.86,1.89a1.41,1.41,0,0,0,0-.17c1.38-.11,2.72-.54,2.72-1.71a1.18,1.18,0,0,0-1.31-1.22,8.15,8.15,0,0,0-2.11.45l-.4.13a.1.1,0,0,1-.07.09Z"/><path class="cls-1" d="M57.81,419.8c0,.06-.1.11-.18.11,0,.29-.1.62-.17,1a7.12,7.12,0,0,0,1.89-.36l.07.19a7.77,7.77,0,0,1-2,.37A14.28,14.28,0,0,1,56.3,425l-.19-.08a13.65,13.65,0,0,0,1.12-3.75H56V421h1.22c.07-.41.13-.84.18-1.22Zm3.2,5.11h-.51a5.54,5.54,0,0,1-1.53-.16.78.78,0,0,1-.57-.76,1.4,1.4,0,0,1,.37-.86l.16.1a1.28,1.28,0,0,0-.34.76c0,.54.49.73,1.78.73.2,0,.42,0,.64,0ZM60.83,422a6.5,6.5,0,0,0-2.14.3l-.06-.17a7,7,0,0,1,2.21-.32Z"/><path class="cls-1" d="M64.92,420.95l.12,0,0,0a7.66,7.66,0,0,1-.63,2.62,4.73,4.73,0,0,1,.74.67l-.11.15a4.58,4.58,0,0,0-.71-.65A3.25,3.25,0,0,1,63,425.17a.81.81,0,0,0-.13-.16,3.05,3.05,0,0,0,1.23-1.3,7.59,7.59,0,0,0-.94-.59l-.08.31-.17-.09c.16-.55.38-1.38.57-2.19h-.7V421h.74c.11-.47.21-.92.29-1.31l.27,0s0,.05-.1.05c-.08.35-.17.77-.28,1.21h1.16Zm-1.21.19c-.15.63-.31,1.28-.46,1.81a9.2,9.2,0,0,1,1,.59,7.08,7.08,0,0,0,.59-2.4Zm4.64,1.22v.18H66.81v2.3c0,.19-.05.26-.2.29a5.49,5.49,0,0,1-1,0,1.07,1.07,0,0,0-.08-.19h.68c.37,0,.4,0,.4-.14v-2.3H65v-.18h1.61v-1.08l.17,0a5.79,5.79,0,0,0,1.13-1.15H65.29V420h2.82l.15.1a.12.12,0,0,1-.06,0,6.69,6.69,0,0,1-1.39,1.39v.88Z"/><path class="cls-1" d="M70.67,420.5v.73a3.72,3.72,0,0,1-.64,2.28.37.37,0,0,0-.14-.12,3.51,3.51,0,0,0,.6-2.17v-.91H73a5.37,5.37,0,0,1-.08-.68h.29s0,.06-.1.07c0,.2,0,.4.07.6h2.24v.18h-2.2a6.05,6.05,0,0,0,.62,1.66,5,5,0,0,0,.67-1.22l.26.08s-.05.05-.11.05a4.93,4.93,0,0,1-.71,1.25c.35.56.76.94,1.1.94.18,0,.25-.22.28-.82a.5.5,0,0,0,.17.09c0,.68-.16.91-.45.91s-.84-.38-1.21-1a4.57,4.57,0,0,1-1.07.93.67.67,0,0,0-.14-.12,4.31,4.31,0,0,0,1.1-1A6.24,6.24,0,0,1,73,420.5Zm.29,3.24a1.6,1.6,0,0,1-.9,1.22l-.14-.11a1.52,1.52,0,0,0,.88-1.16Zm0-2.55V421h1.94v.18Zm1.75,1.66H71.28v.25H71.1v-1.43h1.57Zm-.18-1H71.28v.83h1.21Zm-.78,2.88c0,.14.06.17.42.17h1.36c.29,0,.34-.08.36-.7a.57.57,0,0,0,.18.08c0,.66-.11.8-.53.8H72.15c-.49,0-.62,0-.62-.35v-1l.27,0s0,.05-.09.06Zm1.35-.6a4,4,0,0,0-1.16-.73l.12-.13a3.73,3.73,0,0,1,1.16.71Zm.83-4.49a3,3,0,0,1,.91.44l-.11.16a3,3,0,0,0-.91-.46Zm1.39,5.31a4.24,4.24,0,0,0-1.17-1.18l.14-.1a4.19,4.19,0,0,1,1.18,1.17Z"/><path class="cls-1" d="M82.67,423.2H81.41a2.4,2.4,0,0,1-1,1.17,14.77,14.77,0,0,1,2.12.64l-.12.16a15.15,15.15,0,0,0-2.22-.68,7.37,7.37,0,0,1-2.87.65.53.53,0,0,0-.08-.18,7.93,7.93,0,0,0,2.68-.53c-.51-.11-1-.22-1.6-.31l-.18.23-.16-.08c.23-.29.53-.68.81-1.08h-1.6V423H78.9l.47-.69.25.08s-.05,0-.11,0l-.4.57h3.56Zm-3.57-2.36v-.7H77.22V420h5.4v.18H80.72v.7h1.45v1.44H77.7v-1.44Zm-1.22.18v1.08H79.1V421ZM79,423.2l-.58.79c.59.09,1.18.2,1.73.33a2.4,2.4,0,0,0,1.07-1.12Zm1.55-2.36v-.7H79.28v.7Zm-1.26.18v1.08h1.26V421ZM82,421H80.72v1.08H82Z"/><path class="cls-1" d="M84.56,420h5v5.21h-.18v-.31H84.74v.31h-.18Zm.18,4.73h4.65v-4.55H84.74Zm4.19-2.85h-1.7A2.7,2.7,0,0,0,89,424a.55.55,0,0,0-.13.16,2.92,2.92,0,0,1-1.8-2.36h0a2.66,2.66,0,0,1-1.76,2.39.56.56,0,0,0-.13-.14,2.54,2.54,0,0,0,1.71-2.25H85.18v-.18h1.71c0-.35.07-.74.08-1.15l.28,0s0,.07-.11.08c0,.37,0,.72-.08,1h1.86Z"/><path class="cls-1" d="M92.88,422.12a1.72,1.72,0,0,1,1.06-.45c.45,0,.68.32.74.83.53-.25,1.22-.52,1.73-.72l.13.25h0a.17.17,0,0,1-.09,0c-.46.16-1.17.44-1.71.7a4.76,4.76,0,0,1,0,.53c0,.22,0,.47,0,.74h-.22c0-.23,0-.55,0-.83a3.27,3.27,0,0,0,0-.36c-.82.4-1.52.86-1.52,1.32s.47.62,1.41.62a13.5,13.5,0,0,0,1.52-.06v.2c-.38,0-.94,0-1.52,0-1.15,0-1.61-.29-1.61-.81s.75-1,1.68-1.51c0-.52-.27-.72-.55-.72a2.18,2.18,0,0,0-1.52.91,9.25,9.25,0,0,1-.68.65l-.13-.14a4.37,4.37,0,0,0,1.59-2.4H91.72v-.19h1.51a8.49,8.49,0,0,0,.19-.91l.35.06c0,.06-.05.1-.14.1a7.38,7.38,0,0,1-.17.74,8.7,8.7,0,0,0,2.23-.37l0,.2a9,9,0,0,1-2.33.36,4.74,4.74,0,0,1-.52,1.23Z"/><path class="cls-1" d="M99.42,422.46a1.83,1.83,0,0,0,1.42.56h.73c.75,0,1.73,0,2.24,0a.64.64,0,0,0-.07.19l-1.2,0s0,0-.09.05v.44h1.35v.18h-1.35v1c0,.15,0,.22-.18.25a5.52,5.52,0,0,1-1,0,.81.81,0,0,0-.08-.16h.53c.54,0,.54,0,.54-.12v-1h-4v-.18h4v-.49h-1.42a2,2,0,0,1-1.51-.56l-.86.59s0,.06,0,.07l-.13-.22a10.29,10.29,0,0,0,.93-.59v-1h-.91v-.18h1.09Zm-.8-2.63a3.52,3.52,0,0,1,.82.77l-.14.13a3.53,3.53,0,0,0-.82-.79Zm1.72,5a3.92,3.92,0,0,0-1-.74l.13-.12a4,4,0,0,1,1,.73Zm-.07-4h1.18c0-.13.08-.28.12-.42h-1.8v-.18H101a2.44,2.44,0,0,0-.46-.53l.15-.09a2.31,2.31,0,0,1,.5.59l0,0h1.08a4.94,4.94,0,0,0,.38-.62l.23.1a.08.08,0,0,1-.1,0c-.08.13-.21.32-.33.48h1.3v.18h-2l-.12.42h1.6v1.79h-3Zm2.78.53V421h-2.6v.35Zm0,.53v-.35h-2.6v.35Zm0,.55v-.37h-2.6v.37Z"/><path class="cls-1" d="M108.7,425.12a19.54,19.54,0,0,0-2.37-2.31c-.26-.21-.38-.38-.38-.54s.12-.31.34-.52c.51-.47,1.5-1.37,2.15-2l.28.19a.13.13,0,0,1-.11,0h-.08c-.64.62-1.63,1.5-2.12,2-.15.14-.25.26-.25.36s.08.23.29.4a20.17,20.17,0,0,1,2.43,2.34Z"/><path class="cls-1" d="M33.65,433l.23,2-.19,0-.22-2-2.35.3,0-.19,2.36-.3-.17-1.55-2,.26,0-.19,2-.26-.14-1.25h.33c0,.05-.05.1-.13.11l.13,1.12,1.93-.25,0,.19-1.93.25.17,1.55,2.36-.3,0,.19Z"/><path class="cls-1" d="M38,432.19h5v.2h-4.8a.23.23,0,0,1-.17.11Z"/><path class="cls-1" d="M49.55,430.44a.11.11,0,0,1-.05,0c-.23,2.41-1.1,3.65-3,4.43l-.13-.15a4.36,4.36,0,0,0,3-4.19H45.47v1.74h-.19v-1.93h4.05l.05,0Z"/><path class="cls-1" d="M51.58,432.19h5v.2h-4.8a.23.23,0,0,1-.17.11Z"/><path class="cls-1" d="M62,432.88a24,24,0,0,0-2.26-1V435h-.2v-5.17l.34,0c0,.06-.05.09-.14.11v1.8l0-.08a22.94,22.94,0,0,1,2.33,1Zm-.73-2.69a5.28,5.28,0,0,1,.88.93l-.14.11a5.48,5.48,0,0,0-.87-.92Zm.79-.5a5.48,5.48,0,0,1,.88.92l-.13.11a5.53,5.53,0,0,0-.88-.92Z"/><path class="cls-1" d="M66.14,432.12a1.72,1.72,0,0,1,1.06-.45c.45,0,.68.32.74.83.53-.25,1.22-.52,1.73-.72l.13.25h0a.17.17,0,0,1-.09,0c-.46.16-1.17.44-1.71.7a4.76,4.76,0,0,1,0,.53c0,.22,0,.47,0,.74h-.22c0-.23,0-.55,0-.83a3.27,3.27,0,0,0,0-.36c-.82.4-1.52.86-1.52,1.32s.47.62,1.41.62a13.5,13.5,0,0,0,1.52-.06v.2c-.38,0-.94,0-1.52,0-1.15,0-1.61-.29-1.61-.81s.75-1,1.68-1.51c0-.52-.27-.72-.55-.72a2.18,2.18,0,0,0-1.52.91,9.25,9.25,0,0,1-.68.65l-.13-.14a4.37,4.37,0,0,0,1.59-2.4H65v-.19h1.51a8.49,8.49,0,0,0,.19-.91l.35.06c0,.06-.05.1-.14.1a7.38,7.38,0,0,1-.17.74,8.7,8.7,0,0,0,2.23-.37l0,.2a9,9,0,0,1-2.33.36,4.74,4.74,0,0,1-.52,1.23Z"/><path class="cls-1" d="M73.38,432.52l-.78.3v2.05c0,.17-.05.23-.17.26a3.17,3.17,0,0,1-.7,0,1.07,1.07,0,0,0-.08-.17h.42c.33,0,.35,0,.35-.12v-2l-.89.33a.09.09,0,0,1-.05.09l-.13-.23,1.07-.38v-1.59h-1v-.18h1v-1.28l.27,0s0,.05-.09.06v1.19h.76v.18H72.6v1.52l.74-.28Zm1.83,2.25a3.45,3.45,0,0,0,.68.05H77a.66.66,0,0,0-.08.18h-1c-.92,0-1.55-.18-1.91-1.09a2.67,2.67,0,0,1-.76,1.26l-.14-.11A3.26,3.26,0,0,0,74,433l.27.05s0,.05-.1.05a5.92,5.92,0,0,1-.11.59,1.43,1.43,0,0,0,1,1.06v-2.08H73.5v-.18h3.43v.18H75.22v.91h1.43v.18H75.22Zm1.32-4.9v2h-2.7v-2Zm-.18.91v-.73H74v.73Zm0,.92V431H74v.74Z"/><path class="cls-1" d="M80,432.69s0,0-.11,0a5.41,5.41,0,0,1-1.25,1.9.9.9,0,0,0-.14-.11,5.07,5.07,0,0,0,1.25-1.91Zm4-.85H81.46v3c0,.18-.05.25-.2.28a6.24,6.24,0,0,1-1,0,.71.71,0,0,0-.08-.19h.71c.38,0,.41,0,.41-.14v-3H78.72v-.18H84Zm-.51-1.7v.18H79.26v-.18Zm.45,4.46a7.51,7.51,0,0,0-1.19-1.91l.15-.07a7.77,7.77,0,0,1,1.21,1.9Z"/><path class="cls-1" d="M87.38,434.32a.84.84,0,1,1-.84-.84A.84.84,0,0,1,87.38,434.32Zm-.18,0a.66.66,0,1,0-.66.66A.66.66,0,0,0,87.2,434.32Z"/><line class="cls-2" x1="62.42" y1="307.1" x2="62.42" y2="318.35"/><polyline class="cls-2" points="76.4 311.63 62.42 325.08 48.43 311.63"/><path class="cls-1" d="M62.12,17.85,59,20.09a23.68,23.68,0,0,0-2.83,2.37,11.31,11.31,0,0,0-2,2.66,6.15,6.15,0,0,0-.73,3H71.93v-.57H54v-.14A5.92,5.92,0,0,1,55.52,24a22.81,22.81,0,0,1,3.28-3c1.27-1,2.64-1.95,4.09-2.92a38.9,38.9,0,0,0,4-3.09A17.22,17.22,0,0,0,70,11.49a7.41,7.41,0,0,0,1.21-4.11,7.35,7.35,0,0,0-.66-3.23,6.76,6.76,0,0,0-1.79-2.29A7.67,7.67,0,0,0,66.07.47,11.5,11.5,0,0,0,62.74,0c-2.93,0-5.15.83-6.61,2.48a10.36,10.36,0,0,0-2.24,6.91h.57a13.3,13.3,0,0,1,.46-3.46A7.46,7.46,0,0,1,56.38,3.1,6.76,6.76,0,0,1,59,1.24,9.77,9.77,0,0,1,62.74.57,10.75,10.75,0,0,1,65.88,1,7.18,7.18,0,0,1,68.36,2.3,6.16,6.16,0,0,1,70,4.43a6.84,6.84,0,0,1,.61,2.94,6.82,6.82,0,0,1-.73,3.11A11.46,11.46,0,0,1,68,13.18a22.38,22.38,0,0,1-2.72,2.41C64.24,16.35,63.19,17.11,62.12,17.85Z"/><path class="cls-1" d="M119.92,413.78H.58v-74.1H119.92Zm-118.8-.54H119.38v-73H1.12Z"/><image width="1580" height="1108" transform="translate(5.11 333.73) scale(0.07)" xlink:href="../../Downloads/COLLAGE_ZERO_fix/26972427_1706521512738208_603565730_o.png"/><path class="cls-1" d="M119.34,273H0v-74.1H119.34ZM.54,272.51H118.8v-73H.54Z"/></g></g></svg>