<svg xmlns="http://www.w3.org/2000/svg" viewBox="0 0 118.81 5.46"><defs><style>.cls-1{fill:#fff;}</style></defs><title>title2-small</title><g id="Layer_2" data-name="Layer 2"><g id="レイヤー_1" data-name="レイヤー 1"><path class="cls-1" d="M1.72,0H2L3.7,4.28H3.42L2.88,2.91H.83L.28,4.28H0ZM2.8,2.68,1.88.26h0l-1,2.42Z"/><path class="cls-1" d="M7.43,3.62h0a1.4,1.4,0,0,1-.48.55,1.28,1.28,0,0,1-.7.18,1.28,1.28,0,0,1-.6-.13,1.19,1.19,0,0,1-.41-.35A1.56,1.56,0,0,1,5,3.36a2.36,2.36,0,0,1-.08-.61A2.31,2.31,0,0,1,5,2.11a1.44,1.44,0,0,1,.25-.51,1.22,1.22,0,0,1,.43-.34,1.37,1.37,0,0,1,.61-.13,1.33,1.33,0,0,1,.37.05A1.28,1.28,0,0,1,7,1.33a1.05,1.05,0,0,1,.44.56h0V0h.23V4.28H7.43Zm-1.15.53A1,1,0,0,0,6.79,4a1.08,1.08,0,0,0,.35-.32,1.39,1.39,0,0,0,.21-.45,2,2,0,0,0,.07-.52,2,2,0,0,0-.07-.52,1.47,1.47,0,0,0-.21-.46,1,1,0,0,0-.36-.32,1.05,1.05,0,0,0-.51-.12,1.08,1.08,0,0,0-.52.12,1,1,0,0,0-.36.31,1.32,1.32,0,0,0-.2.46,2.24,2.24,0,0,0-.06.53,2,2,0,0,0,.07.52,1.38,1.38,0,0,0,.21.45A1,1,0,0,0,5.77,4,1.07,1.07,0,0,0,6.28,4.16Z"/><path class="cls-1" d="M10.64,4.28h-.28L9.11,1.2h.26L10.49,4h0l1-2.82h.25Z"/><path class="cls-1" d="M13.29,2.77v0a1.83,1.83,0,0,0,.07.52,1.31,1.31,0,0,0,.21.43,1,1,0,0,0,.35.29,1.09,1.09,0,0,0,.5.11,1.06,1.06,0,0,0,.73-.24,1.27,1.27,0,0,0,.37-.67h.23a1.38,1.38,0,0,1-.44.83,1.34,1.34,0,0,1-.9.29,1.37,1.37,0,0,1-.6-.12,1.21,1.21,0,0,1-.43-.34,1.41,1.41,0,0,1-.25-.5,2.23,2.23,0,0,1-.08-.63,2.18,2.18,0,0,1,.09-.62,1.55,1.55,0,0,1,.26-.52,1.29,1.29,0,0,1,.43-.36,1.33,1.33,0,0,1,.62-.13,1.31,1.31,0,0,1,.57.12,1.2,1.2,0,0,1,.42.33,1.44,1.44,0,0,1,.25.48,1.93,1.93,0,0,1,.09.58s0,0,0,.07,0,0,0,.06Zm2.27-.2a1.85,1.85,0,0,0-.08-.48,1.18,1.18,0,0,0-.21-.4,1.07,1.07,0,0,0-.34-.27,1,1,0,0,0-.46-.1,1.06,1.06,0,0,0-.84.38,1.22,1.22,0,0,0-.22.4,1.88,1.88,0,0,0-.1.47Z"/><path class="cls-1" d="M17.63,1.88h0a.76.76,0,0,1,.15-.28,1.07,1.07,0,0,1,.27-.23,1.34,1.34,0,0,1,.35-.15,1.44,1.44,0,0,1,.4,0v.23a1.08,1.08,0,0,0-.41,0,1,1,0,0,0-.44.26l-.15.17a.82.82,0,0,0-.1.19,1.19,1.19,0,0,0-.07.23,2,2,0,0,0,0,.3V4.28H17.4V1.2h.23Z"/><path class="cls-1" d="M21.28,1.4h-.67V3.55a.82.82,0,0,0,0,.29.34.34,0,0,0,.13.17.46.46,0,0,0,.21.07h.29v.2h-.34a.68.68,0,0,1-.29-.09.53.53,0,0,1-.2-.23.85.85,0,0,1-.06-.41V1.4h-.57V1.2h.57v-1h.23v1h.67Z"/><path class="cls-1" d="M22.84.62V0h.23V.62Zm0,3.67V1.2h.23V4.28Z"/><path class="cls-1" d="M25,3.26a1,1,0,0,0,.1.38.9.9,0,0,0,.53.46,1.22,1.22,0,0,0,.39.06l.32,0a1.11,1.11,0,0,0,.32-.1.65.65,0,0,0,.24-.2A.53.53,0,0,0,27,3.5a.48.48,0,0,0-.16-.39,1.1,1.1,0,0,0-.39-.2,4,4,0,0,0-.51-.12,2.63,2.63,0,0,1-.51-.13A1,1,0,0,1,25,2.4a.68.68,0,0,1-.16-.48.68.68,0,0,1,.1-.38.76.76,0,0,1,.26-.24,1.2,1.2,0,0,1,.36-.13,2.05,2.05,0,0,1,.4,0,1.79,1.79,0,0,1,.45.05,1,1,0,0,1,.36.17.83.83,0,0,1,.24.31,1.06,1.06,0,0,1,.09.45h-.23a.86.86,0,0,0-.07-.36.63.63,0,0,0-.19-.24.84.84,0,0,0-.29-.14,1.39,1.39,0,0,0-.36,0l-.32,0a.92.92,0,0,0-.29.1.64.64,0,0,0-.21.19.47.47,0,0,0-.08.28.47.47,0,0,0,.09.3.65.65,0,0,0,.24.18,1.63,1.63,0,0,0,.33.11l.37.08.43.1a1.23,1.23,0,0,1,.35.16.71.71,0,0,1,.23.26.83.83,0,0,1,.08.4.7.7,0,0,1-.11.41.87.87,0,0,1-.29.26,1.23,1.23,0,0,1-.39.14,2.32,2.32,0,0,1-.42,0,1.67,1.67,0,0,1-.49-.07,1.11,1.11,0,0,1-.39-.21,1,1,0,0,1-.26-.34,1.16,1.16,0,0,1-.1-.47Z"/><path class="cls-1" d="M28.89.62V0h.23V.62Zm0,3.67V1.2h.23V4.28Z"/><path class="cls-1" d="M30.92,1.2h.23v.66h0a1,1,0,0,1,.17-.31,1.14,1.14,0,0,1,.26-.23,1.12,1.12,0,0,1,.32-.14,1.31,1.31,0,0,1,.35,0,1.4,1.4,0,0,1,.46.07.9.9,0,0,1,.31.17.83.83,0,0,1,.19.24,1.14,1.14,0,0,1,.1.27,1.77,1.77,0,0,1,0,.27c0,.09,0,.16,0,.22V4.28h-.23v-2c0-.08,0-.17,0-.29A.88.88,0,0,0,33,1.71a.76.76,0,0,0-.26-.27.9.9,0,0,0-.49-.11,1.09,1.09,0,0,0-.47.1,1,1,0,0,0-.35.27,1.18,1.18,0,0,0-.22.41,1.72,1.72,0,0,0-.07.52V4.28h-.23Z"/><path class="cls-1" d="M37.66,1.2V4.12a2.08,2.08,0,0,1-.06.5,1.12,1.12,0,0,1-.21.43,1,1,0,0,1-.4.3,1.66,1.66,0,0,1-.65.11,2,2,0,0,1-.46-.05,1.11,1.11,0,0,1-.38-.16A.82.82,0,0,1,35.24,5a1,1,0,0,1-.11-.45h.23a.83.83,0,0,0,.1.35.73.73,0,0,0,.22.24.92.92,0,0,0,.3.14,1.48,1.48,0,0,0,.36,0,1.29,1.29,0,0,0,.53-.1.91.91,0,0,0,.34-.25.9.9,0,0,0,.18-.35,1.59,1.59,0,0,0,.05-.39V3.47h0A1.23,1.23,0,0,1,37,4a1.21,1.21,0,0,1-.67.18,1.37,1.37,0,0,1-.59-.12,1.13,1.13,0,0,1-.41-.32,1.38,1.38,0,0,1-.25-.48,2.1,2.1,0,0,1-.08-.6,1.91,1.91,0,0,1,.09-.58,1.44,1.44,0,0,1,.25-.48,1.24,1.24,0,0,1,.42-.33A1.36,1.36,0,0,1,37,1.31a1,1,0,0,1,.44.53h0V1.2Zm-1.35.13a1,1,0,0,0-.49.11,1,1,0,0,0-.34.3,1.37,1.37,0,0,0-.2.42,1.73,1.73,0,0,0-.07.48,1.87,1.87,0,0,0,.07.51,1.21,1.21,0,0,0,.21.42,1,1,0,0,0,.35.29,1,1,0,0,0,.48.1,1.07,1.07,0,0,0,.49-.11,1,1,0,0,0,.35-.29,1.29,1.29,0,0,0,.21-.42,1.83,1.83,0,0,0,0-1,1.26,1.26,0,0,0-.21-.42,1,1,0,0,0-.35-.29A1.07,1.07,0,0,0,36.31,1.33Z"/><path class="cls-1" d="M42.87,2.77,41.71,1.6l.16-.16L43,2.61,44.2,1.44l.16.16L43.19,2.77l1.16,1.16-.16.16L43,2.93,41.86,4.1l-.16-.16Z"/><path class="cls-1" d="M47.13.23V0h3.28V.23H48.9V4.28h-.26V.23Z"/><path class="cls-1" d="M51.83,2.77v0a1.83,1.83,0,0,0,.07.52,1.31,1.31,0,0,0,.21.43,1,1,0,0,0,.35.29,1.09,1.09,0,0,0,.5.11,1.06,1.06,0,0,0,.73-.24,1.27,1.27,0,0,0,.37-.67h.23a1.38,1.38,0,0,1-.44.83,1.34,1.34,0,0,1-.9.29,1.37,1.37,0,0,1-.6-.12,1.21,1.21,0,0,1-.43-.34,1.41,1.41,0,0,1-.25-.5,2.23,2.23,0,0,1-.08-.63,2.18,2.18,0,0,1,.09-.62A1.55,1.55,0,0,1,52,1.62a1.29,1.29,0,0,1,.43-.36A1.33,1.33,0,0,1,53,1.13a1.31,1.31,0,0,1,.57.12,1.2,1.2,0,0,1,.42.33,1.44,1.44,0,0,1,.25.48,1.93,1.93,0,0,1,.09.58s0,0,0,.07,0,0,0,.06Zm2.27-.2A1.85,1.85,0,0,0,54,2.1a1.18,1.18,0,0,0-.21-.4,1.07,1.07,0,0,0-.34-.27,1,1,0,0,0-.46-.1,1.06,1.06,0,0,0-.84.38,1.22,1.22,0,0,0-.22.4,1.88,1.88,0,0,0-.1.47Z"/><path class="cls-1" d="M58.27,2.15a.88.88,0,0,0-.11-.36.8.8,0,0,0-.22-.26,1,1,0,0,0-.32-.16,1.38,1.38,0,0,0-.39-.05,1.08,1.08,0,0,0-.51.12,1.11,1.11,0,0,0-.37.31,1.4,1.4,0,0,0-.23.44,1.71,1.71,0,0,0-.08.51,2.19,2.19,0,0,0,.07.58,1.31,1.31,0,0,0,.22.46,1,1,0,0,0,.37.3,1.19,1.19,0,0,0,.52.11,1.07,1.07,0,0,0,.72-.27,1,1,0,0,0,.23-.3,1.25,1.25,0,0,0,.12-.39h.23a1.45,1.45,0,0,1-.15.49,1.19,1.19,0,0,1-.29.36,1.25,1.25,0,0,1-.4.23,1.54,1.54,0,0,1-1.11-.06,1.23,1.23,0,0,1-.44-.36,1.53,1.53,0,0,1-.25-.53,2.32,2.32,0,0,1-.08-.62,2,2,0,0,1,.09-.61,1.49,1.49,0,0,1,.27-.5,1.29,1.29,0,0,1,.44-.34,1.39,1.39,0,0,1,.61-.13,1.7,1.7,0,0,1,.47.06,1.21,1.21,0,0,1,.39.19,1,1,0,0,1,.28.32,1.13,1.13,0,0,1,.13.45Z"/><path class="cls-1" d="M60.37,0V1.86h0a1,1,0,0,1,.17-.31,1.14,1.14,0,0,1,.26-.23,1.12,1.12,0,0,1,.32-.14,1.31,1.31,0,0,1,.35,0,1.4,1.4,0,0,1,.46.07.9.9,0,0,1,.31.17.83.83,0,0,1,.19.24,1.14,1.14,0,0,1,.1.27,1.77,1.77,0,0,1,0,.27c0,.09,0,.16,0,.22V4.28h-.23v-2c0-.08,0-.17,0-.29a.88.88,0,0,0-.11-.33A.76.76,0,0,0,62,1.44a.9.9,0,0,0-.49-.11,1.09,1.09,0,0,0-.47.1,1,1,0,0,0-.35.27,1.18,1.18,0,0,0-.22.41,1.72,1.72,0,0,0-.07.52V4.28h-.23V0Z"/><path class="cls-1" d="M64.33,1.2h.23v.66h0a1,1,0,0,1,.17-.31A1.14,1.14,0,0,1,65,1.32a1.12,1.12,0,0,1,.32-.14,1.31,1.31,0,0,1,.35,0,1.4,1.4,0,0,1,.46.07.9.9,0,0,1,.31.17.83.83,0,0,1,.19.24,1.14,1.14,0,0,1,.1.27,1.77,1.77,0,0,1,0,.27c0,.09,0,.16,0,.22V4.28h-.23v-2c0-.08,0-.17,0-.29a.88.88,0,0,0-.11-.33.76.76,0,0,0-.26-.27.9.9,0,0,0-.49-.11,1.09,1.09,0,0,0-.47.1,1,1,0,0,0-.35.27,1.18,1.18,0,0,0-.22.41,1.72,1.72,0,0,0-.07.52V4.28h-.23Z"/><path class="cls-1" d="M68.38,2.74a2,2,0,0,1,.09-.62,1.56,1.56,0,0,1,.27-.51,1.3,1.3,0,0,1,.44-.35,1.49,1.49,0,0,1,1.21,0,1.3,1.3,0,0,1,.44.35,1.55,1.55,0,0,1,.27.51,2,2,0,0,1,.09.62,2,2,0,0,1-.09.62,1.51,1.51,0,0,1-.27.51,1.32,1.32,0,0,1-.44.35,1.49,1.49,0,0,1-1.21,0,1.32,1.32,0,0,1-.44-.35,1.53,1.53,0,0,1-.27-.51A2,2,0,0,1,68.38,2.74Zm.23,0a1.81,1.81,0,0,0,.08.53,1.44,1.44,0,0,0,.23.45,1.11,1.11,0,0,0,.37.31,1.17,1.17,0,0,0,1,0,1.11,1.11,0,0,0,.37-.31,1.44,1.44,0,0,0,.23-.45,1.84,1.84,0,0,0,0-1.06,1.44,1.44,0,0,0-.23-.45,1.11,1.11,0,0,0-.37-.31,1.17,1.17,0,0,0-1,0,1.11,1.11,0,0,0-.37.31,1.44,1.44,0,0,0-.23.45A1.82,1.82,0,0,0,68.61,2.74Z"/><path class="cls-1" d="M73.11,0V4.28h-.23V0Z"/><path class="cls-1" d="M74.77,2.74a2,2,0,0,1,.09-.62,1.56,1.56,0,0,1,.27-.51,1.3,1.3,0,0,1,.44-.35,1.49,1.49,0,0,1,1.21,0,1.3,1.3,0,0,1,.44.35,1.55,1.55,0,0,1,.27.51,2,2,0,0,1,.09.62,2,2,0,0,1-.09.62,1.51,1.51,0,0,1-.27.51,1.32,1.32,0,0,1-.44.35,1.49,1.49,0,0,1-1.21,0,1.32,1.32,0,0,1-.44-.35,1.53,1.53,0,0,1-.27-.51A2,2,0,0,1,74.77,2.74Zm.23,0a1.81,1.81,0,0,0,.08.53,1.44,1.44,0,0,0,.23.45,1.11,1.11,0,0,0,.37.31,1.17,1.17,0,0,0,1,0,1.11,1.11,0,0,0,.37-.31,1.44,1.44,0,0,0,.23-.45,1.84,1.84,0,0,0,0-1.06,1.44,1.44,0,0,0-.23-.45,1.11,1.11,0,0,0-.37-.31,1.17,1.17,0,0,0-1,0,1.11,1.11,0,0,0-.37.31,1.44,1.44,0,0,0-.23.45A1.82,1.82,0,0,0,75,2.74Z"/><path class="cls-1" d="M81.76,1.2V4.12a2.08,2.08,0,0,1-.06.5,1.12,1.12,0,0,1-.21.43,1,1,0,0,1-.4.3,1.66,1.66,0,0,1-.65.11A2,2,0,0,1,80,5.41a1.11,1.11,0,0,1-.38-.16A.82.82,0,0,1,79.34,5a1,1,0,0,1-.11-.45h.23a.83.83,0,0,0,.1.35.73.73,0,0,0,.22.24.92.92,0,0,0,.3.14,1.48,1.48,0,0,0,.36,0,1.29,1.29,0,0,0,.53-.1.91.91,0,0,0,.34-.25.9.9,0,0,0,.18-.35,1.59,1.59,0,0,0,.05-.39V3.47h0a1.23,1.23,0,0,1-.44.52,1.21,1.21,0,0,1-.67.18,1.37,1.37,0,0,1-.59-.12,1.13,1.13,0,0,1-.41-.32,1.38,1.38,0,0,1-.25-.48,2.1,2.1,0,0,1-.08-.6,1.91,1.91,0,0,1,.09-.58,1.44,1.44,0,0,1,.25-.48,1.24,1.24,0,0,1,.42-.33,1.36,1.36,0,0,1,1.25.06,1,1,0,0,1,.44.53h0V1.2Zm-1.35.13a1,1,0,0,0-.49.11,1,1,0,0,0-.34.3,1.37,1.37,0,0,0-.2.42,1.73,1.73,0,0,0-.07.48,1.87,1.87,0,0,0,.07.51,1.21,1.21,0,0,0,.21.42,1,1,0,0,0,.35.29,1,1,0,0,0,.48.1,1.07,1.07,0,0,0,.49-.11,1,1,0,0,0,.35-.29,1.29,1.29,0,0,0,.21-.42,1.83,1.83,0,0,0,0-1,1.26,1.26,0,0,0-.21-.42,1,1,0,0,0-.35-.29A1.07,1.07,0,0,0,80.41,1.33Z"/><path class="cls-1" d="M83.15,1.2h.27L84.56,4,85.62,1.2h.26L84.56,4.61,84.38,5a.67.67,0,0,1-.18.24.56.56,0,0,1-.29.12l-.43,0v-.2a1.48,1.48,0,0,0,.38,0A.6.6,0,0,0,84.12,5a.76.76,0,0,0,.14-.24q.07-.18.18-.48Z"/><path class="cls-1" d="M91.73,2.15a.88.88,0,0,0-.11-.36.8.8,0,0,0-.22-.26,1,1,0,0,0-.32-.16,1.38,1.38,0,0,0-.39-.05,1.08,1.08,0,0,0-.51.12,1.11,1.11,0,0,0-.37.31,1.4,1.4,0,0,0-.23.44,1.71,1.71,0,0,0-.08.51,2.19,2.19,0,0,0,.07.58,1.31,1.31,0,0,0,.22.46,1,1,0,0,0,.37.3,1.19,1.19,0,0,0,.52.11,1.07,1.07,0,0,0,.72-.27,1,1,0,0,0,.23-.3,1.25,1.25,0,0,0,.12-.39H92a1.45,1.45,0,0,1-.15.49,1.19,1.19,0,0,1-.29.36,1.25,1.25,0,0,1-.4.23A1.54,1.54,0,0,1,90,4.22a1.23,1.23,0,0,1-.44-.36,1.53,1.53,0,0,1-.25-.53,2.32,2.32,0,0,1-.08-.62,2,2,0,0,1,.09-.61,1.49,1.49,0,0,1,.27-.5,1.29,1.29,0,0,1,.44-.34,1.39,1.39,0,0,1,.61-.13,1.7,1.7,0,0,1,.47.06,1.21,1.21,0,0,1,.39.19,1,1,0,0,1,.28.32,1.13,1.13,0,0,1,.13.45Z"/><path class="cls-1" d="M93.46,2.74a2,2,0,0,1,.09-.62,1.56,1.56,0,0,1,.27-.51,1.3,1.3,0,0,1,.44-.35,1.49,1.49,0,0,1,1.21,0,1.3,1.3,0,0,1,.44.35,1.55,1.55,0,0,1,.27.51,2,2,0,0,1,.09.62,2,2,0,0,1-.09.62,1.51,1.51,0,0,1-.27.51,1.32,1.32,0,0,1-.44.35,1.49,1.49,0,0,1-1.21,0,1.32,1.32,0,0,1-.44-.35,1.53,1.53,0,0,1-.27-.51A2,2,0,0,1,93.46,2.74Zm.23,0a1.81,1.81,0,0,0,.08.53,1.44,1.44,0,0,0,.23.45,1.11,1.11,0,0,0,.37.31,1.17,1.17,0,0,0,1,0,1.11,1.11,0,0,0,.37-.31A1.44,1.44,0,0,0,96,3.27a1.84,1.84,0,0,0,0-1.06,1.44,1.44,0,0,0-.23-.45,1.11,1.11,0,0,0-.37-.31,1.17,1.17,0,0,0-1,0,1.11,1.11,0,0,0-.37.31,1.44,1.44,0,0,0-.23.45A1.82,1.82,0,0,0,93.69,2.74Z"/><path class="cls-1" d="M97.91,1.2h.23v.63h0a.84.84,0,0,1,.13-.27,1,1,0,0,1,.22-.23,1,1,0,0,1,.29-.15,1,1,0,0,1,.33-.05,1.15,1.15,0,0,1,.38.06.92.92,0,0,1,.28.15.74.74,0,0,1,.18.21.79.79,0,0,1,.09.24h0a1.12,1.12,0,0,1,.37-.49,1,1,0,0,1,.61-.16,1.15,1.15,0,0,1,.39.06.82.82,0,0,1,.31.19.88.88,0,0,1,.2.33,1.38,1.38,0,0,1,.07.47V4.28h-.23V2.17a1,1,0,0,0-.09-.46.73.73,0,0,0-.21-.25.61.61,0,0,0-.25-.11l-.19,0a1,1,0,0,0-.39.07.82.82,0,0,0-.31.22,1,1,0,0,0-.2.36,1.53,1.53,0,0,0-.07.49V4.28h-.23V2.17a1,1,0,0,0-.09-.46.7.7,0,0,0-.2-.26.62.62,0,0,0-.24-.11l-.2,0a1,1,0,0,0-.65.27,1,1,0,0,0-.23.35,1.31,1.31,0,0,0-.09.51V4.28h-.23Z"/><path class="cls-1" d="M104,1.91h0a1.21,1.21,0,0,1,.12-.25,1,1,0,0,1,.22-.25,1.21,1.21,0,0,1,.33-.2,1.2,1.2,0,0,1,.45-.08,1.35,1.35,0,0,1,.62.13,1.25,1.25,0,0,1,.43.35,1.51,1.51,0,0,1,.25.52,2.21,2.21,0,0,1,.08.62,2.33,2.33,0,0,1-.08.65,1.42,1.42,0,0,1-.26.51,1.18,1.18,0,0,1-.43.33,1.47,1.47,0,0,1-.62.12,1.38,1.38,0,0,1-.69-.17,1,1,0,0,1-.44-.55h0V5.39h-.22V1.2H104Zm1.14,2.25A1.12,1.12,0,0,0,105.7,4a1,1,0,0,0,.36-.31,1.32,1.32,0,0,0,.21-.45,2.11,2.11,0,0,0,0-1.06,1.44,1.44,0,0,0-.2-.46,1.06,1.06,0,0,0-.36-.32,1.21,1.21,0,0,0-1.06,0,1,1,0,0,0-.35.32,1.33,1.33,0,0,0-.2.45,2.31,2.31,0,0,0-.06.53,2.55,2.55,0,0,0,.05.53,1.29,1.29,0,0,0,.18.45.93.93,0,0,0,.35.31A1.15,1.15,0,0,0,105.18,4.16Z"/><path class="cls-1" d="M110.22,3.67h0a1,1,0,0,1-.16.26,1.12,1.12,0,0,1-.25.22,1.23,1.23,0,0,1-.33.15,1.45,1.45,0,0,1-.41.05,1.2,1.2,0,0,1-.76-.21.79.79,0,0,1-.27-.66.77.77,0,0,1,.38-.71,1.15,1.15,0,0,1,.37-.14l.39-.06.35,0a2.1,2.1,0,0,0,.39-.06.49.49,0,0,0,.21-.11.31.31,0,0,0,.09-.18,1.72,1.72,0,0,0,0-.27.56.56,0,0,0,0-.23.53.53,0,0,0-.15-.19.75.75,0,0,0-.26-.13,1.42,1.42,0,0,0-.4,0,1,1,0,0,0-.67.2.81.81,0,0,0-.28.62h-.23a1,1,0,0,1,.33-.76,1.3,1.3,0,0,1,.86-.25,1.24,1.24,0,0,1,.81.22.72.72,0,0,1,.25.57V3.71s0,.09,0,.13a.45.45,0,0,0,0,.12.19.19,0,0,0,.06.09.19.19,0,0,0,.12,0l.17,0v.19l-.19,0a.55.55,0,0,1-.22,0,.29.29,0,0,1-.12-.1.35.35,0,0,1-.06-.14.91.91,0,0,1,0-.18Zm0-1.14a.43.43,0,0,1-.25.14l-.38.05-.38,0-.34.05a1,1,0,0,0-.3.11.62.62,0,0,0-.22.21.66.66,0,0,0-.08.35.6.6,0,0,0,.22.51,1,1,0,0,0,.59.17,1.16,1.16,0,0,0,.62-.14,1.09,1.09,0,0,0,.35-.32,1,1,0,0,0,.15-.35,1.46,1.46,0,0,0,0-.23Z"/><path class="cls-1" d="M112.26,1.2h.23v.66h0a1,1,0,0,1,.17-.31,1.14,1.14,0,0,1,.26-.23,1.12,1.12,0,0,1,.32-.14,1.31,1.31,0,0,1,.35,0,1.4,1.4,0,0,1,.46.07.9.9,0,0,1,.31.17.83.83,0,0,1,.19.24,1.14,1.14,0,0,1,.1.27,1.77,1.77,0,0,1,0,.27c0,.09,0,.16,0,.22V4.28h-.23v-2c0-.08,0-.17,0-.29a.88.88,0,0,0-.11-.33.76.76,0,0,0-.26-.27.9.9,0,0,0-.49-.11,1.09,1.09,0,0,0-.47.1,1,1,0,0,0-.35.27,1.18,1.18,0,0,0-.22.41,1.72,1.72,0,0,0-.07.52V4.28h-.23Z"/><path class="cls-1" d="M116.08,1.2h.27L117.5,4l1.06-2.81h.26l-1.32,3.41-.18.39a.67.67,0,0,1-.18.24.56.56,0,0,1-.29.12l-.43,0v-.2a1.48,1.48,0,0,0,.38,0,.6.6,0,0,0,.26-.16.76.76,0,0,0,.14-.24q.07-.18.18-.48Z"/></g></g></svg>