<svg xmlns="http://www.w3.org/2000/svg" xmlns:xlink="http://www.w3.org/1999/xlink" viewBox="0 0 119.46 53.24"><defs><style>.cls-1{fill:#fff;}.cls-2{fill:#231f20;}</style></defs><title>top3_small</title><g id="Layer_2" data-name="Layer 2"><g id="レイヤー_1" data-name="レイヤー 1"><image width="790" height="126" transform="translate(0.32) scale(0.15)" xlink:href="../../Downloads/COLLAGE_ZERO_fix/COLLAGE-ZERO_logo.png"/><path class="cls-1" d="M46.35,50.22v-.13l3,1.49v.14l-3,1.49V53.1l2.94-1.44Z"/><path class="cls-1" d="M55,52.59a1.11,1.11,0,0,1-.27.35,1.19,1.19,0,0,1-.38.22,1.43,1.43,0,0,1-.48.08,1.33,1.33,0,0,1-.58-.12,1.26,1.26,0,0,1-.43-.33,1.44,1.44,0,0,1-.26-.49,1.92,1.92,0,0,1-.09-.6,2.28,2.28,0,0,1,.09-.64,1.58,1.58,0,0,1,.26-.53,1.29,1.29,0,0,1,.45-.37,1.4,1.4,0,0,1,.64-.14,1.3,1.3,0,0,1,.41.07,1.12,1.12,0,0,1,.35.19,1.06,1.06,0,0,1,.26.31,1.2,1.2,0,0,1,.13.44H55a1.12,1.12,0,0,0-.13-.39,1,1,0,0,0-.23-.28.93.93,0,0,0-.31-.17,1.23,1.23,0,0,0-.37-.05,1.27,1.27,0,0,0-.62.14,1.17,1.17,0,0,0-.41.37,1.55,1.55,0,0,0-.22.5,2.29,2.29,0,0,0-.07.55,1.8,1.8,0,0,0,.08.54,1.42,1.42,0,0,0,.24.46,1.14,1.14,0,0,0,.39.31,1.19,1.19,0,0,0,.54.12,1.28,1.28,0,0,0,.43-.07,1.05,1.05,0,0,0,.71-.93h.12A1.35,1.35,0,0,1,55,52.59Z"/><path class="cls-1" d="M56,51a1.56,1.56,0,0,1,.27-.51,1.34,1.34,0,0,1,.43-.36,1.39,1.39,0,0,1,1.19,0,1.35,1.35,0,0,1,.43.36,1.56,1.56,0,0,1,.27.51,2.11,2.11,0,0,1,0,1.22,1.55,1.55,0,0,1-.27.51,1.32,1.32,0,0,1-.43.35,1.3,1.3,0,0,1-.6.13,1.29,1.29,0,0,1-.59-.13,1.31,1.31,0,0,1-.43-.35,1.55,1.55,0,0,1-.27-.51A2.11,2.11,0,0,1,56,51Zm.11,1.17a1.42,1.42,0,0,0,.24.48,1.19,1.19,0,0,0,.4.33,1.17,1.17,0,0,0,.55.12,1.16,1.16,0,0,0,.54-.12,1.21,1.21,0,0,0,.4-.33,1.42,1.42,0,0,0,.24-.48,2,2,0,0,0,.08-.56,1.94,1.94,0,0,0-.08-.56,1.43,1.43,0,0,0-.24-.48,1.25,1.25,0,0,0-.4-.33,1.14,1.14,0,0,0-.54-.13,1.15,1.15,0,0,0-.55.13,1.23,1.23,0,0,0-.4.33,1.43,1.43,0,0,0-.24.48,1.94,1.94,0,0,0-.08.56A2,2,0,0,0,56.15,52.2Z"/><path class="cls-1" d="M59.82,50.09v.76h0a1.11,1.11,0,0,1,.13-.33,1.07,1.07,0,0,1,.23-.26,1.05,1.05,0,0,1,.33-.18,1.28,1.28,0,0,1,.41-.06,1.3,1.3,0,0,1,.44.07,1,1,0,0,1,.35.21,1,1,0,0,1,.23.35,1.31,1.31,0,0,1,.08.48v2h-.12v-2a1.19,1.19,0,0,0-.08-.46.86.86,0,0,0-.21-.31.84.84,0,0,0-.31-.18,1.21,1.21,0,0,0-.37-.06,1.07,1.07,0,0,0-.49.1,1,1,0,0,0-.35.28,1.22,1.22,0,0,0-.21.41,1.63,1.63,0,0,0-.07.49v1.75H59.7V50.09Z"/><path class="cls-1" d="M63.51,52.57a.73.73,0,0,0,0,.27.34.34,0,0,0,.1.14.26.26,0,0,0,.13.06h.31l.1,0v.12H63.9a.54.54,0,0,1-.36-.12.57.57,0,0,1-.15-.45V50.21h-.56v-.12h.56v-1h.12v1h.7v.12h-.7Z"/><path class="cls-1" d="M65.19,50.64a.93.93,0,0,1,.22-.33,1.05,1.05,0,0,1,.36-.22,1.46,1.46,0,0,1,.5-.08,1.71,1.71,0,0,1,.39,0,.82.82,0,0,1,.32.15.76.76,0,0,1,.22.27,1,1,0,0,1,.09.42v2a.2.2,0,0,0,0,.13.18.18,0,0,0,.1.06h.26v.12h-.18a.42.42,0,0,1-.23-.06.26.26,0,0,1-.1-.24v-.4h0a1,1,0,0,1-.15.29,1.12,1.12,0,0,1-.26.25,1.35,1.35,0,0,1-.36.17,1.5,1.5,0,0,1-.44.06,1.24,1.24,0,0,1-.75-.21.72.72,0,0,1-.28-.62A1,1,0,0,1,65,52a.74.74,0,0,1,.24-.27,1,1,0,0,1,.34-.14l.38-.05.55,0a1.7,1.7,0,0,0,.38-.06.41.41,0,0,0,.22-.14.44.44,0,0,0,.07-.27,1.88,1.88,0,0,0,0-.29.62.62,0,0,0-.12-.28.67.67,0,0,0-.27-.21,1.21,1.21,0,0,0-.49-.08,1.11,1.11,0,0,0-.76.24.93.93,0,0,0-.3.67H65.1A1.24,1.24,0,0,1,65.19,50.64Zm2,.72a.37.37,0,0,1-.19.13,1.5,1.5,0,0,1-.29.07l-.35,0-.37,0-.35,0a.82.82,0,0,0-.3.12.61.61,0,0,0-.21.24.88.88,0,0,0-.08.4.78.78,0,0,0,0,.26.56.56,0,0,0,.15.23.84.84,0,0,0,.28.16,1.24,1.24,0,0,0,.42.06,1.32,1.32,0,0,0,.53-.1,1.21,1.21,0,0,0,.39-.27,1.12,1.12,0,0,0,.24-.38,1.26,1.26,0,0,0,.08-.44v-.57Z"/><path class="cls-1" d="M70.83,52.59a1.11,1.11,0,0,1-.27.35,1.19,1.19,0,0,1-.38.22,1.43,1.43,0,0,1-.48.08,1.33,1.33,0,0,1-.58-.12,1.26,1.26,0,0,1-.43-.33,1.44,1.44,0,0,1-.26-.49,1.92,1.92,0,0,1-.09-.6,2.28,2.28,0,0,1,.09-.64,1.58,1.58,0,0,1,.26-.53,1.29,1.29,0,0,1,.45-.37,1.4,1.4,0,0,1,.64-.14,1.3,1.3,0,0,1,.41.07,1.12,1.12,0,0,1,.35.19,1.06,1.06,0,0,1,.26.31,1.2,1.2,0,0,1,.13.44h-.12a1.12,1.12,0,0,0-.13-.39,1,1,0,0,0-.23-.28.93.93,0,0,0-.31-.17,1.23,1.23,0,0,0-.37-.05,1.27,1.27,0,0,0-.62.14,1.17,1.17,0,0,0-.41.37,1.55,1.55,0,0,0-.22.5,2.29,2.29,0,0,0-.07.55,1.8,1.8,0,0,0,.08.54,1.42,1.42,0,0,0,.24.46,1.14,1.14,0,0,0,.39.31,1.19,1.19,0,0,0,.54.12,1.28,1.28,0,0,0,.43-.07,1.05,1.05,0,0,0,.71-.93H71A1.35,1.35,0,0,1,70.83,52.59Z"/><path class="cls-1" d="M72.28,52.57a.73.73,0,0,0,0,.27.34.34,0,0,0,.1.14.26.26,0,0,0,.13.06h.31l.1,0v.12h-.29a.54.54,0,0,1-.36-.12.57.57,0,0,1-.15-.45V50.21H71.6v-.12h.56v-1h.12v1H73v.12h-.7Z"/><path class="cls-1" d="M1.72,34.23H2L3.7,38.51H3.42l-.54-1.37H.83L.28,38.51H0ZM2.8,36.91l-.92-2.42h0l-1,2.42Z"/><path class="cls-1" d="M7.43,37.85h0a1.4,1.4,0,0,1-.48.55,1.28,1.28,0,0,1-.7.18,1.28,1.28,0,0,1-.6-.13,1.19,1.19,0,0,1-.41-.35A1.56,1.56,0,0,1,5,37.59,2.36,2.36,0,0,1,4.9,37,2.31,2.31,0,0,1,5,36.34a1.44,1.44,0,0,1,.25-.51,1.22,1.22,0,0,1,.43-.34,1.37,1.37,0,0,1,.61-.13,1.33,1.33,0,0,1,.37.05,1.28,1.28,0,0,1,.33.15,1.05,1.05,0,0,1,.44.56h0V34.23h.23v4.28H7.43Zm-1.15.53a1,1,0,0,0,.51-.12,1.08,1.08,0,0,0,.35-.32,1.39,1.39,0,0,0,.21-.45A2,2,0,0,0,7.42,37a2,2,0,0,0-.07-.52A1.47,1.47,0,0,0,7.15,36a1,1,0,0,0-.36-.32,1.05,1.05,0,0,0-.51-.12,1.08,1.08,0,0,0-.52.12A1,1,0,0,0,5.4,36a1.32,1.32,0,0,0-.2.46,2.24,2.24,0,0,0-.06.53,2,2,0,0,0,.07.52,1.38,1.38,0,0,0,.21.45,1,1,0,0,0,.36.31A1.07,1.07,0,0,0,6.28,38.39Z"/><path class="cls-1" d="M10.64,38.51h-.28L9.11,35.43h.26l1.12,2.82h0l1-2.82h.25Z"/><path class="cls-1" d="M13.29,37v0a1.83,1.83,0,0,0,.07.52,1.31,1.31,0,0,0,.21.43,1,1,0,0,0,.35.29,1.09,1.09,0,0,0,.5.11,1.06,1.06,0,0,0,.73-.24,1.27,1.27,0,0,0,.37-.67h.23a1.38,1.38,0,0,1-.44.83,1.34,1.34,0,0,1-.9.29,1.37,1.37,0,0,1-.6-.12,1.21,1.21,0,0,1-.43-.34,1.41,1.41,0,0,1-.25-.5,2.23,2.23,0,0,1-.08-.63,2.18,2.18,0,0,1,.09-.62,1.55,1.55,0,0,1,.26-.52,1.29,1.29,0,0,1,.43-.36,1.33,1.33,0,0,1,.62-.13,1.31,1.31,0,0,1,.57.12,1.2,1.2,0,0,1,.42.33,1.44,1.44,0,0,1,.25.48,1.93,1.93,0,0,1,.09.58s0,0,0,.07,0,0,0,.06Zm2.27-.2a1.85,1.85,0,0,0-.08-.48,1.18,1.18,0,0,0-.21-.4,1.07,1.07,0,0,0-.34-.27,1,1,0,0,0-.46-.1,1.06,1.06,0,0,0-.84.38,1.22,1.22,0,0,0-.22.4,1.88,1.88,0,0,0-.1.47Z"/><path class="cls-1" d="M17.63,36.11h0a.76.76,0,0,1,.15-.28,1.07,1.07,0,0,1,.27-.23,1.34,1.34,0,0,1,.35-.15,1.44,1.44,0,0,1,.4,0v.23a1.08,1.08,0,0,0-.41,0,1,1,0,0,0-.44.26l-.15.17a.82.82,0,0,0-.1.19,1.19,1.19,0,0,0-.07.23,2,2,0,0,0,0,.3v1.69H17.4V35.43h.23Z"/><path class="cls-1" d="M21.28,35.63h-.67v2.15a.82.82,0,0,0,0,.29.34.34,0,0,0,.13.17.46.46,0,0,0,.21.07h.29v.2h-.34a.68.68,0,0,1-.29-.09.53.53,0,0,1-.2-.23.85.85,0,0,1-.06-.41V35.63h-.57v-.2h.57v-1h.23v1h.67Z"/><path class="cls-1" d="M22.84,34.85v-.62h.23v.62Zm0,3.67V35.43h.23v3.08Z"/><path class="cls-1" d="M25,37.49a1,1,0,0,0,.1.38.9.9,0,0,0,.53.46,1.22,1.22,0,0,0,.39.06l.32,0a1.11,1.11,0,0,0,.32-.1.65.65,0,0,0,.24-.2.53.53,0,0,0,.1-.33.48.48,0,0,0-.16-.39,1.1,1.1,0,0,0-.39-.2,4,4,0,0,0-.51-.12,2.63,2.63,0,0,1-.51-.13,1,1,0,0,1-.39-.25.8.8,0,0,1-.05-.86.76.76,0,0,1,.26-.24,1.2,1.2,0,0,1,.36-.13,2.05,2.05,0,0,1,.4,0,1.79,1.79,0,0,1,.45.05,1,1,0,0,1,.36.17.83.83,0,0,1,.24.31,1.06,1.06,0,0,1,.09.45h-.23a.86.86,0,0,0-.07-.36.63.63,0,0,0-.19-.24.84.84,0,0,0-.29-.14,1.39,1.39,0,0,0-.36,0l-.32,0a.92.92,0,0,0-.29.1.64.64,0,0,0-.21.19.47.47,0,0,0-.08.28.47.47,0,0,0,.09.3.65.65,0,0,0,.24.18,1.63,1.63,0,0,0,.33.11l.37.08.43.1a1.23,1.23,0,0,1,.35.16.71.71,0,0,1,.23.26.83.83,0,0,1,.08.4.7.7,0,0,1-.11.41.87.87,0,0,1-.29.26,1.23,1.23,0,0,1-.39.14,2.32,2.32,0,0,1-.42,0,1.67,1.67,0,0,1-.49-.07,1.11,1.11,0,0,1-.39-.21,1,1,0,0,1-.26-.34,1.16,1.16,0,0,1-.1-.47Z"/><path class="cls-1" d="M28.89,34.85v-.62h.23v.62Zm0,3.67V35.43h.23v3.08Z"/><path class="cls-1" d="M30.92,35.43h.23v.66h0a1,1,0,0,1,.17-.31,1.14,1.14,0,0,1,.26-.23,1.12,1.12,0,0,1,.32-.14,1.31,1.31,0,0,1,.35,0,1.4,1.4,0,0,1,.46.07.9.9,0,0,1,.31.17.83.83,0,0,1,.19.24,1.14,1.14,0,0,1,.1.27,1.77,1.77,0,0,1,0,.27c0,.09,0,.16,0,.22v1.91h-.23v-2c0-.08,0-.17,0-.29a.88.88,0,0,0-.11-.33.76.76,0,0,0-.26-.27.9.9,0,0,0-.49-.11,1.09,1.09,0,0,0-.47.1,1,1,0,0,0-.35.27,1.18,1.18,0,0,0-.22.41,1.72,1.72,0,0,0-.07.52v1.67h-.23Z"/><path class="cls-1" d="M37.66,35.43v2.92a2.08,2.08,0,0,1-.06.5,1.12,1.12,0,0,1-.21.43,1,1,0,0,1-.4.3,1.66,1.66,0,0,1-.65.11,2,2,0,0,1-.46-.05,1.11,1.11,0,0,1-.38-.16.82.82,0,0,1-.26-.29,1,1,0,0,1-.11-.45h.23a.83.83,0,0,0,.1.35.73.73,0,0,0,.22.24.92.92,0,0,0,.3.14,1.48,1.48,0,0,0,.36,0,1.29,1.29,0,0,0,.53-.1.91.91,0,0,0,.34-.25.9.9,0,0,0,.18-.35,1.59,1.59,0,0,0,.05-.39V37.7h0a1.23,1.23,0,0,1-.44.52,1.21,1.21,0,0,1-.67.18,1.37,1.37,0,0,1-.59-.12,1.13,1.13,0,0,1-.41-.32,1.38,1.38,0,0,1-.25-.48,2.1,2.1,0,0,1-.08-.6,1.91,1.91,0,0,1,.09-.58,1.44,1.44,0,0,1,.25-.48,1.24,1.24,0,0,1,.42-.33,1.36,1.36,0,0,1,1.25.06,1,1,0,0,1,.44.53h0v-.64Zm-1.35.13a1,1,0,0,0-.49.11,1,1,0,0,0-.34.3,1.37,1.37,0,0,0-.2.42,1.73,1.73,0,0,0-.07.48,1.87,1.87,0,0,0,.07.51,1.21,1.21,0,0,0,.21.42,1,1,0,0,0,.35.29,1,1,0,0,0,.48.1,1.07,1.07,0,0,0,.49-.11,1,1,0,0,0,.35-.29,1.29,1.29,0,0,0,.21-.42,1.83,1.83,0,0,0,0-1,1.26,1.26,0,0,0-.21-.42,1,1,0,0,0-.35-.29A1.07,1.07,0,0,0,36.31,35.55Z"/><path class="cls-1" d="M42.87,37l-1.16-1.17.16-.16L43,36.84l1.16-1.17.16.16L43.19,37l1.16,1.16-.16.16L43,37.16l-1.17,1.17-.16-.16Z"/><path class="cls-1" d="M47.13,34.46v-.23h3.28v.23H48.9v4.06h-.26V34.46Z"/><path class="cls-1" d="M51.83,37v0a1.83,1.83,0,0,0,.07.52,1.31,1.31,0,0,0,.21.43,1,1,0,0,0,.35.29,1.09,1.09,0,0,0,.5.11,1.06,1.06,0,0,0,.73-.24,1.27,1.27,0,0,0,.37-.67h.23a1.38,1.38,0,0,1-.44.83,1.34,1.34,0,0,1-.9.29,1.37,1.37,0,0,1-.6-.12,1.21,1.21,0,0,1-.43-.34,1.41,1.41,0,0,1-.25-.5,2.23,2.23,0,0,1-.08-.63,2.18,2.18,0,0,1,.09-.62,1.55,1.55,0,0,1,.26-.52,1.29,1.29,0,0,1,.43-.36,1.33,1.33,0,0,1,.62-.13,1.31,1.31,0,0,1,.57.12,1.2,1.2,0,0,1,.42.33,1.44,1.44,0,0,1,.25.48,1.93,1.93,0,0,1,.09.58s0,0,0,.07,0,0,0,.06Zm2.27-.2a1.85,1.85,0,0,0-.08-.48,1.18,1.18,0,0,0-.21-.4,1.07,1.07,0,0,0-.34-.27,1,1,0,0,0-.46-.1,1.06,1.06,0,0,0-.84.38,1.22,1.22,0,0,0-.22.4,1.88,1.88,0,0,0-.1.47Z"/><path class="cls-1" d="M58.27,36.38a.88.88,0,0,0-.11-.36.8.8,0,0,0-.22-.26,1,1,0,0,0-.32-.16,1.38,1.38,0,0,0-.39-.05,1.08,1.08,0,0,0-.51.12,1.11,1.11,0,0,0-.37.31,1.4,1.4,0,0,0-.23.44,1.71,1.71,0,0,0-.08.51,2.19,2.19,0,0,0,.07.58,1.31,1.31,0,0,0,.22.46,1,1,0,0,0,.37.3,1.19,1.19,0,0,0,.52.11,1.07,1.07,0,0,0,.72-.27,1,1,0,0,0,.23-.3,1.25,1.25,0,0,0,.12-.39h.23a1.45,1.45,0,0,1-.15.49,1.19,1.19,0,0,1-.29.36,1.25,1.25,0,0,1-.4.23,1.54,1.54,0,0,1-1.11-.06,1.23,1.23,0,0,1-.44-.36,1.53,1.53,0,0,1-.25-.53,2.32,2.32,0,0,1-.08-.62,2,2,0,0,1,.09-.61,1.49,1.49,0,0,1,.27-.5,1.29,1.29,0,0,1,.44-.34,1.39,1.39,0,0,1,.61-.13,1.7,1.7,0,0,1,.47.06,1.21,1.21,0,0,1,.39.19,1,1,0,0,1,.28.32,1.13,1.13,0,0,1,.13.45Z"/><path class="cls-1" d="M60.37,34.23v1.86h0a1,1,0,0,1,.17-.31,1.14,1.14,0,0,1,.26-.23,1.12,1.12,0,0,1,.32-.14,1.31,1.31,0,0,1,.35,0,1.4,1.4,0,0,1,.46.07.9.9,0,0,1,.31.17.83.83,0,0,1,.19.24,1.14,1.14,0,0,1,.1.27,1.77,1.77,0,0,1,0,.27c0,.09,0,.16,0,.22v1.91h-.23v-2c0-.08,0-.17,0-.29a.88.88,0,0,0-.11-.33.76.76,0,0,0-.26-.27.9.9,0,0,0-.49-.11,1.09,1.09,0,0,0-.47.1,1,1,0,0,0-.35.27,1.18,1.18,0,0,0-.22.41,1.72,1.72,0,0,0-.07.52v1.67h-.23V34.23Z"/><path class="cls-1" d="M64.33,35.43h.23v.66h0a1,1,0,0,1,.17-.31,1.14,1.14,0,0,1,.26-.23,1.12,1.12,0,0,1,.32-.14,1.31,1.31,0,0,1,.35,0,1.4,1.4,0,0,1,.46.07.9.9,0,0,1,.31.17.83.83,0,0,1,.19.24,1.14,1.14,0,0,1,.1.27,1.77,1.77,0,0,1,0,.27c0,.09,0,.16,0,.22v1.91h-.23v-2c0-.08,0-.17,0-.29a.88.88,0,0,0-.11-.33.76.76,0,0,0-.26-.27.9.9,0,0,0-.49-.11,1.09,1.09,0,0,0-.47.1,1,1,0,0,0-.35.27,1.18,1.18,0,0,0-.22.41,1.72,1.72,0,0,0-.07.52v1.67h-.23Z"/><path class="cls-1" d="M68.38,37a2,2,0,0,1,.09-.62,1.56,1.56,0,0,1,.27-.51,1.3,1.3,0,0,1,.44-.35,1.49,1.49,0,0,1,1.21,0,1.3,1.3,0,0,1,.44.35,1.55,1.55,0,0,1,.27.51,2,2,0,0,1,.09.62,2,2,0,0,1-.09.62,1.51,1.51,0,0,1-.27.51,1.32,1.32,0,0,1-.44.35,1.49,1.49,0,0,1-1.21,0,1.32,1.32,0,0,1-.44-.35,1.53,1.53,0,0,1-.27-.51A2,2,0,0,1,68.38,37Zm.23,0a1.81,1.81,0,0,0,.08.53,1.44,1.44,0,0,0,.23.45,1.11,1.11,0,0,0,.37.31,1.17,1.17,0,0,0,1,0,1.11,1.11,0,0,0,.37-.31,1.44,1.44,0,0,0,.23-.45,1.84,1.84,0,0,0,0-1.06,1.44,1.44,0,0,0-.23-.45,1.11,1.11,0,0,0-.37-.31,1.17,1.17,0,0,0-1,0,1.11,1.11,0,0,0-.37.31,1.44,1.44,0,0,0-.23.45A1.82,1.82,0,0,0,68.61,37Z"/><path class="cls-1" d="M73.11,34.23v4.28h-.23V34.23Z"/><path class="cls-1" d="M74.77,37a2,2,0,0,1,.09-.62,1.56,1.56,0,0,1,.27-.51,1.3,1.3,0,0,1,.44-.35,1.49,1.49,0,0,1,1.21,0,1.3,1.3,0,0,1,.44.35,1.55,1.55,0,0,1,.27.51,2,2,0,0,1,.09.62,2,2,0,0,1-.09.62,1.51,1.51,0,0,1-.27.51,1.32,1.32,0,0,1-.44.35,1.49,1.49,0,0,1-1.21,0,1.32,1.32,0,0,1-.44-.35,1.53,1.53,0,0,1-.27-.51A2,2,0,0,1,74.77,37ZM75,37a1.81,1.81,0,0,0,.08.53,1.44,1.44,0,0,0,.23.45,1.11,1.11,0,0,0,.37.31,1.17,1.17,0,0,0,1,0,1.11,1.11,0,0,0,.37-.31,1.44,1.44,0,0,0,.23-.45,1.84,1.84,0,0,0,0-1.06,1.44,1.44,0,0,0-.23-.45,1.11,1.11,0,0,0-.37-.31,1.17,1.17,0,0,0-1,0,1.11,1.11,0,0,0-.37.31,1.44,1.44,0,0,0-.23.45A1.82,1.82,0,0,0,75,37Z"/><path class="cls-1" d="M81.76,35.43v2.92a2.08,2.08,0,0,1-.06.5,1.12,1.12,0,0,1-.21.43,1,1,0,0,1-.4.3,1.66,1.66,0,0,1-.65.11,2,2,0,0,1-.46-.05,1.11,1.11,0,0,1-.38-.16.82.82,0,0,1-.26-.29,1,1,0,0,1-.11-.45h.23a.83.83,0,0,0,.1.35.73.73,0,0,0,.22.24.92.92,0,0,0,.3.14,1.48,1.48,0,0,0,.36,0,1.29,1.29,0,0,0,.53-.1.91.91,0,0,0,.34-.25.9.9,0,0,0,.18-.35,1.59,1.59,0,0,0,.05-.39V37.7h0a1.23,1.23,0,0,1-.44.52,1.21,1.21,0,0,1-.67.18,1.37,1.37,0,0,1-.59-.12,1.13,1.13,0,0,1-.41-.32,1.38,1.38,0,0,1-.25-.48,2.1,2.1,0,0,1-.08-.6,1.91,1.91,0,0,1,.09-.58,1.44,1.44,0,0,1,.25-.48,1.24,1.24,0,0,1,.42-.33,1.36,1.36,0,0,1,1.25.06,1,1,0,0,1,.44.53h0v-.64Zm-1.35.13a1,1,0,0,0-.49.11,1,1,0,0,0-.34.3,1.37,1.37,0,0,0-.2.42,1.73,1.73,0,0,0-.07.48,1.87,1.87,0,0,0,.07.51,1.21,1.21,0,0,0,.21.42,1,1,0,0,0,.35.29,1,1,0,0,0,.48.1,1.07,1.07,0,0,0,.49-.11,1,1,0,0,0,.35-.29,1.29,1.29,0,0,0,.21-.42,1.83,1.83,0,0,0,0-1,1.26,1.26,0,0,0-.21-.42,1,1,0,0,0-.35-.29A1.07,1.07,0,0,0,80.41,35.55Z"/><path class="cls-1" d="M83.15,35.43h.27l1.15,2.81,1.06-2.81h.26l-1.32,3.41-.18.39a.67.67,0,0,1-.18.24.56.56,0,0,1-.29.12l-.43,0v-.2a1.48,1.48,0,0,0,.38,0,.6.6,0,0,0,.26-.16.76.76,0,0,0,.14-.24q.07-.18.18-.48Z"/><path class="cls-1" d="M91.73,36.38a.88.88,0,0,0-.11-.36.8.8,0,0,0-.22-.26,1,1,0,0,0-.32-.16,1.38,1.38,0,0,0-.39-.05,1.08,1.08,0,0,0-.51.12,1.11,1.11,0,0,0-.37.31,1.4,1.4,0,0,0-.23.44,1.71,1.71,0,0,0-.08.51,2.19,2.19,0,0,0,.07.58,1.31,1.31,0,0,0,.22.46,1,1,0,0,0,.37.3,1.19,1.19,0,0,0,.52.11,1.07,1.07,0,0,0,.72-.27,1,1,0,0,0,.23-.3,1.25,1.25,0,0,0,.12-.39H92a1.45,1.45,0,0,1-.15.49,1.19,1.19,0,0,1-.29.36,1.25,1.25,0,0,1-.4.23A1.54,1.54,0,0,1,90,38.45a1.23,1.23,0,0,1-.44-.36,1.53,1.53,0,0,1-.25-.53,2.32,2.32,0,0,1-.08-.62,2,2,0,0,1,.09-.61,1.49,1.49,0,0,1,.27-.5,1.29,1.29,0,0,1,.44-.34,1.39,1.39,0,0,1,.61-.13,1.7,1.7,0,0,1,.47.06,1.21,1.21,0,0,1,.39.19,1,1,0,0,1,.28.32,1.13,1.13,0,0,1,.13.45Z"/><path class="cls-1" d="M93.46,37a2,2,0,0,1,.09-.62,1.56,1.56,0,0,1,.27-.51,1.3,1.3,0,0,1,.44-.35,1.49,1.49,0,0,1,1.21,0,1.3,1.3,0,0,1,.44.35,1.55,1.55,0,0,1,.27.51,2,2,0,0,1,.09.62,2,2,0,0,1-.09.62,1.51,1.51,0,0,1-.27.51,1.32,1.32,0,0,1-.44.35,1.49,1.49,0,0,1-1.21,0,1.32,1.32,0,0,1-.44-.35,1.53,1.53,0,0,1-.27-.51A2,2,0,0,1,93.46,37Zm.23,0a1.81,1.81,0,0,0,.08.53A1.44,1.44,0,0,0,94,38a1.11,1.11,0,0,0,.37.31,1.17,1.17,0,0,0,1,0,1.11,1.11,0,0,0,.37-.31A1.44,1.44,0,0,0,96,37.5a1.84,1.84,0,0,0,0-1.06,1.44,1.44,0,0,0-.23-.45,1.11,1.11,0,0,0-.37-.31,1.17,1.17,0,0,0-1,0A1.11,1.11,0,0,0,94,36a1.44,1.44,0,0,0-.23.45A1.82,1.82,0,0,0,93.69,37Z"/><path class="cls-1" d="M97.91,35.43h.23v.63h0a.84.84,0,0,1,.13-.27,1,1,0,0,1,.22-.23,1,1,0,0,1,.29-.15,1,1,0,0,1,.33-.05,1.15,1.15,0,0,1,.38.06.92.92,0,0,1,.28.15.74.74,0,0,1,.18.21A.79.79,0,0,1,100,36h0a1.12,1.12,0,0,1,.37-.49,1,1,0,0,1,.61-.16,1.15,1.15,0,0,1,.39.06.82.82,0,0,1,.31.19.88.88,0,0,1,.2.33,1.38,1.38,0,0,1,.07.47v2.11h-.23V36.4a1,1,0,0,0-.09-.46.73.73,0,0,0-.21-.25.61.61,0,0,0-.25-.11l-.19,0a1,1,0,0,0-.39.07.82.82,0,0,0-.31.22,1,1,0,0,0-.2.36,1.53,1.53,0,0,0-.07.49v1.82h-.23V36.4a1,1,0,0,0-.09-.46.7.7,0,0,0-.2-.26.62.62,0,0,0-.24-.11l-.2,0a1,1,0,0,0-.65.27,1,1,0,0,0-.23.35,1.31,1.31,0,0,0-.09.51v1.82h-.23Z"/><path class="cls-1" d="M104,36.14h0a1.21,1.21,0,0,1,.12-.25,1,1,0,0,1,.22-.25,1.21,1.21,0,0,1,.33-.2,1.2,1.2,0,0,1,.45-.08,1.35,1.35,0,0,1,.62.13,1.25,1.25,0,0,1,.43.35,1.51,1.51,0,0,1,.25.52,2.21,2.21,0,0,1,.08.62,2.33,2.33,0,0,1-.08.65,1.42,1.42,0,0,1-.26.51,1.18,1.18,0,0,1-.43.33,1.47,1.47,0,0,1-.62.12,1.38,1.38,0,0,1-.69-.17,1,1,0,0,1-.44-.55h0v1.75h-.22V35.43H104Zm1.14,2.25a1.12,1.12,0,0,0,.52-.11,1,1,0,0,0,.36-.31,1.32,1.32,0,0,0,.21-.45,2.11,2.11,0,0,0,0-1.06,1.44,1.44,0,0,0-.2-.46,1.06,1.06,0,0,0-.36-.32,1.21,1.21,0,0,0-1.06,0,1,1,0,0,0-.35.32,1.33,1.33,0,0,0-.2.45A2.31,2.31,0,0,0,104,37a2.55,2.55,0,0,0,.05.53,1.29,1.29,0,0,0,.18.45.93.93,0,0,0,.35.31A1.15,1.15,0,0,0,105.18,38.39Z"/><path class="cls-1" d="M110.22,37.9h0a1,1,0,0,1-.16.26,1.12,1.12,0,0,1-.25.22,1.23,1.23,0,0,1-.33.15,1.45,1.45,0,0,1-.41.05,1.2,1.2,0,0,1-.76-.21.79.79,0,0,1-.27-.66.77.77,0,0,1,.38-.71,1.15,1.15,0,0,1,.37-.14l.39-.06.35,0a2.1,2.1,0,0,0,.39-.06.49.49,0,0,0,.21-.11.31.31,0,0,0,.09-.18,1.72,1.72,0,0,0,0-.27.56.56,0,0,0,0-.23.53.53,0,0,0-.15-.19.75.75,0,0,0-.26-.13,1.42,1.42,0,0,0-.4,0,1,1,0,0,0-.67.2.81.81,0,0,0-.28.62h-.23a1,1,0,0,1,.33-.76,1.3,1.3,0,0,1,.86-.25,1.24,1.24,0,0,1,.81.22.72.72,0,0,1,.25.57v1.79s0,.09,0,.13a.45.45,0,0,0,0,.12.19.19,0,0,0,.06.09.19.19,0,0,0,.12,0l.17,0v.19l-.19,0a.55.55,0,0,1-.22,0,.29.29,0,0,1-.12-.1.35.35,0,0,1-.06-.14.91.91,0,0,1,0-.18Zm0-1.14a.43.43,0,0,1-.25.14l-.38.05-.38,0-.34.05a1,1,0,0,0-.3.11.62.62,0,0,0-.22.21.66.66,0,0,0-.08.35.6.6,0,0,0,.22.51,1,1,0,0,0,.59.17,1.16,1.16,0,0,0,.62-.14,1.09,1.09,0,0,0,.35-.32,1,1,0,0,0,.15-.35,1.46,1.46,0,0,0,0-.23Z"/><path class="cls-1" d="M112.26,35.43h.23v.66h0a1,1,0,0,1,.17-.31,1.14,1.14,0,0,1,.26-.23,1.12,1.12,0,0,1,.32-.14,1.31,1.31,0,0,1,.35,0,1.4,1.4,0,0,1,.46.07.9.9,0,0,1,.31.17.83.83,0,0,1,.19.24,1.14,1.14,0,0,1,.1.27,1.77,1.77,0,0,1,0,.27c0,.09,0,.16,0,.22v1.91h-.23v-2c0-.08,0-.17,0-.29a.88.88,0,0,0-.11-.33.76.76,0,0,0-.26-.27.9.9,0,0,0-.49-.11,1.09,1.09,0,0,0-.47.1,1,1,0,0,0-.35.27,1.18,1.18,0,0,0-.22.41,1.72,1.72,0,0,0-.07.52v1.67h-.23Z"/><path class="cls-1" d="M116.08,35.43h.27l1.15,2.81,1.06-2.81h.26l-1.32,3.41-.18.39a.67.67,0,0,1-.18.24.56.56,0,0,1-.29.12l-.43,0v-.2a1.48,1.48,0,0,0,.38,0,.6.6,0,0,0,.26-.16.76.76,0,0,0,.14-.24q.07-.18.18-.48Z"/><rect class="cls-2" x="46.35" y="47.07" width="26.76" height="6.17"/></g></g></svg>