<svg xmlns="http://www.w3.org/2000/svg" viewBox="0 0 145.19 185.23"><defs><style>.cls-1{fill:none;stroke:#fff;stroke-miterlimit:10;stroke-width:0.1px;}</style></defs><title>wrapper</title><g id="Layer_2" data-name="Layer 2"><g id="レイヤー_1" data-name="レイヤー 1"><path class="cls-1" d="M126.6,142.84a92.05,92.05,0,0,1-19.08,25.71,63.15,63.15,0,0,1-26.17,14.77q-14.84,4.21-33.94-1.17Q28.55,176.85,18,165.48a62.73,62.73,0,0,1-14.75-26.3A92,92,0,0,1,.36,107.29,170.35,170.35,0,0,1,18.59,42.55,92,92,0,0,1,37.67,16.84,64,64,0,0,1,64,2q15-4.3,33.85,1Q117,8.36,127.39,19.82A64.41,64.41,0,0,1,142,46.21a92.09,92.09,0,0,1,2.86,31.89,170.41,170.41,0,0,1-5.89,33.28A170.37,170.37,0,0,1,126.6,142.84Z"/></g></g></svg>